<svg width="17" height="19" viewBox="0 0 17 19" fill="none" xmlns="http://www.w3.org/2000/svg">
<path d="M14.7968 11.5646C14.881 11.5655 14.9638 11.5435 15.0363 11.5007C15.1088 11.458 15.1683 11.3962 15.2082 11.3221C15.2481 11.248 15.2669 11.1643 15.2627 11.0802C15.2585 10.9962 15.2313 10.9149 15.1842 10.8451C13.9349 9.29494 12.5722 7.83974 11.1073 6.49153H12.952C13.0348 6.49079 13.1159 6.46823 13.1872 6.42612C13.2584 6.38402 13.3173 6.32385 13.3579 6.25171C13.4013 6.18262 13.4243 6.1027 13.4243 6.02112C13.4243 5.93953 13.4013 5.85961 13.3579 5.79052C12.0255 3.92396 10.4775 2.22117 8.74602 0.717471C8.70351 0.650814 8.64488 0.595945 8.57556 0.557935C8.50624 0.519925 8.42845 0.5 8.3494 0.5C8.27034 0.5 8.19255 0.519925 8.12323 0.557935C8.05391 0.595945 7.99529 0.650814 7.95278 0.717471C6.22126 2.22117 4.67327 3.92396 3.34091 5.79052C3.29751 5.85961 3.27449 5.93953 3.27449 6.02112C3.27449 6.1027 3.29751 6.18262 3.34091 6.25171C3.37988 6.32122 3.43587 6.3797 3.50364 6.42165C3.5714 6.4636 3.64871 6.48764 3.72831 6.49153H5.57305C4.10813 7.83974 2.74541 9.29494 1.49616 10.8451C1.44902 10.9149 1.42186 10.9962 1.41763 11.0802C1.4134 11.1643 1.43226 11.248 1.47217 11.3221C1.51208 11.3962 1.57152 11.458 1.64403 11.5007C1.71655 11.5435 1.79939 11.5655 1.88356 11.5646H4.65068C3.03136 13.0942 1.66191 14.8682 0.592237 16.8221C0.540849 16.8906 0.509555 16.9721 0.501864 17.0574C0.494172 17.1427 0.510386 17.2285 0.548689 17.3051C0.586992 17.3817 0.64587 17.4461 0.718727 17.4911C0.791583 17.5361 0.875539 17.56 0.961187 17.56H15.7192C15.8048 17.56 15.8888 17.5361 15.9616 17.4911C16.0345 17.4461 16.0934 17.3817 16.1317 17.3051C16.17 17.2285 16.1862 17.1427 16.1785 17.0574C16.1708 16.9721 16.1395 16.8906 16.0881 16.8221C15.0184 14.8682 13.649 13.0942 12.0297 11.5646H14.7968Z" fill="#0A8475" stroke="#0A8475" stroke-linecap="round" stroke-linejoin="round"/>
<path d="M3.276 8.78816C6.32906 8.63136 9.08695 8.26241 11.1069 6.49146L3.276 8.78816Z" fill="#0A8475"/>
<path d="M3.276 8.78816C6.32906 8.63136 9.08695 8.26241 11.1069 6.49146" stroke="#0A8475" stroke-linecap="round" stroke-linejoin="round"/>
<path d="M2.8053 13.5014C6.30109 13.5014 9.38182 13.0771 12.029 11.5645L2.8053 13.5014Z" fill="#0A8475"/>
<path d="M2.8053 13.5014C6.30109 13.5014 9.38182 13.0771 12.029 11.5645" stroke="#0A8475" stroke-linecap="round" stroke-linejoin="round"/>
<path d="M8.34067 4.41626C8.40182 4.41626 8.46048 4.44055 8.50372 4.4838C8.54697 4.52704 8.57126 4.5857 8.57126 4.64685" fill="#0A8475"/>
<path d="M8.34067 4.41626C8.40182 4.41626 8.46048 4.44055 8.50372 4.4838C8.54697 4.52704 8.57126 4.5857 8.57126 4.64685" stroke="#0A8475" stroke-linecap="round" stroke-linejoin="round"/>
<path d="M8.10983 4.64685C8.10983 4.5857 8.13413 4.52704 8.17737 4.4838C8.22062 4.44055 8.27927 4.41626 8.34043 4.41626" fill="#0A8475"/>
<path d="M8.10983 4.64685C8.10983 4.5857 8.13413 4.52704 8.17737 4.4838C8.22062 4.44055 8.27927 4.41626 8.34043 4.41626" stroke="#0A8475" stroke-linecap="round" stroke-linejoin="round"/>
<path d="M8.34043 4.87732C8.27927 4.87732 8.22062 4.85303 8.17737 4.80978C8.13413 4.76654 8.10983 4.70789 8.10983 4.64673" fill="#0A8475"/>
<path d="M8.34043 4.87732C8.27927 4.87732 8.22062 4.85303 8.17737 4.80978C8.13413 4.76654 8.10983 4.70789 8.10983 4.64673" stroke="#0A8475" stroke-linecap="round" stroke-linejoin="round"/>
<path d="M8.57126 4.64673C8.57126 4.70789 8.54697 4.76654 8.50372 4.80978C8.46048 4.85303 8.40182 4.87732 8.34067 4.87732" fill="#0A8475"/>
<path d="M8.57126 4.64673C8.57126 4.70789 8.54697 4.76654 8.50372 4.80978C8.46048 4.85303 8.40182 4.87732 8.34067 4.87732" stroke="#0A8475" stroke-linecap="round" stroke-linejoin="round"/>
<path d="M7.18668 10.4116C7.24783 10.4116 7.30649 10.4359 7.34973 10.4792C7.39298 10.5224 7.41727 10.5811 7.41727 10.6422" fill="#0A8475"/>
<path d="M7.18668 10.4116C7.24783 10.4116 7.30649 10.4359 7.34973 10.4792C7.39298 10.5224 7.41727 10.5811 7.41727 10.6422" stroke="#0A8475" stroke-linecap="round" stroke-linejoin="round"/>
<path d="M6.95743 10.6422C6.95743 10.5811 6.98172 10.5224 7.02497 10.4792C7.06821 10.4359 7.12686 10.4116 7.18802 10.4116" fill="#0A8475"/>
<path d="M6.95743 10.6422C6.95743 10.5811 6.98172 10.5224 7.02497 10.4792C7.06821 10.4359 7.12686 10.4116 7.18802 10.4116" stroke="#0A8475" stroke-linecap="round" stroke-linejoin="round"/>
<path d="M7.18802 10.8729C7.12686 10.8729 7.06821 10.8486 7.02497 10.8054C6.98172 10.7621 6.95743 10.7035 6.95743 10.6423" fill="#0A8475"/>
<path d="M7.18802 10.8729C7.12686 10.8729 7.06821 10.8486 7.02497 10.8054C6.98172 10.7621 6.95743 10.7035 6.95743 10.6423" stroke="#0A8475" stroke-linecap="round" stroke-linejoin="round"/>
<path d="M7.41727 10.6423C7.41727 10.7035 7.39298 10.7621 7.34973 10.8054C7.30649 10.8486 7.24783 10.8729 7.18668 10.8729" fill="#0A8475"/>
<path d="M7.41727 10.6423C7.41727 10.7035 7.39298 10.7621 7.34973 10.8054C7.30649 10.8486 7.24783 10.8729 7.18668 10.8729" stroke="#0A8475" stroke-linecap="round" stroke-linejoin="round"/>
<path d="M10.1855 9.25879C10.2466 9.25879 10.3053 9.28308 10.3485 9.32633C10.3918 9.36957 10.416 9.42822 10.416 9.48938" fill="#0A8475"/>
<path d="M10.1855 9.25879C10.2466 9.25879 10.3053 9.28308 10.3485 9.32633C10.3918 9.36957 10.416 9.42822 10.416 9.48938" stroke="#0A8475" stroke-linecap="round" stroke-linejoin="round"/>
<path d="M9.95364 9.48938C9.95364 9.42822 9.97794 9.36957 10.0212 9.32633C10.0644 9.28308 10.1231 9.25879 10.1842 9.25879" fill="#0A8475"/>
<path d="M9.95364 9.48938C9.95364 9.42822 9.97794 9.36957 10.0212 9.32633C10.0644 9.28308 10.1231 9.25879 10.1842 9.25879" stroke="#0A8475" stroke-linecap="round" stroke-linejoin="round"/>
<path d="M10.1842 9.71985C10.1231 9.71985 10.0644 9.69556 10.0212 9.65231C9.97794 9.60907 9.95364 9.55041 9.95364 9.48926" fill="#0A8475"/>
<path d="M10.1842 9.71985C10.1231 9.71985 10.0644 9.69556 10.0212 9.65231C9.97794 9.60907 9.95364 9.55041 9.95364 9.48926" stroke="#0A8475" stroke-linecap="round" stroke-linejoin="round"/>
<path d="M10.416 9.48926C10.416 9.55041 10.3918 9.60907 10.3485 9.65231C10.3053 9.69556 10.2466 9.71985 10.1855 9.71985" fill="#0A8475"/>
<path d="M10.416 9.48926C10.416 9.55041 10.3918 9.60907 10.3485 9.65231C10.3053 9.69556 10.2466 9.71985 10.1855 9.71985" stroke="#0A8475" stroke-linecap="round" stroke-linejoin="round"/>
<path d="M11.5685 15.0237C11.6297 15.0237 11.6883 15.048 11.7316 15.0912C11.7748 15.1345 11.7991 15.1931 11.7991 15.2543" fill="#0A8475"/>
<path d="M11.5685 15.0237C11.6297 15.0237 11.6883 15.048 11.7316 15.0912C11.7748 15.1345 11.7991 15.1931 11.7991 15.2543" stroke="#0A8475" stroke-linecap="round" stroke-linejoin="round"/>
<path d="M11.3383 15.2543C11.3383 15.1931 11.3626 15.1345 11.4059 15.0912C11.4491 15.048 11.5078 15.0237 11.5689 15.0237" fill="#0A8475"/>
<path d="M11.3383 15.2543C11.3383 15.1931 11.3626 15.1345 11.4059 15.0912C11.4491 15.048 11.5078 15.0237 11.5689 15.0237" stroke="#0A8475" stroke-linecap="round" stroke-linejoin="round"/>
<path d="M11.5689 15.4847C11.5078 15.4847 11.4491 15.4604 11.4059 15.4172C11.3626 15.374 11.3383 15.3153 11.3383 15.2542" fill="#0A8475"/>
<path d="M11.5689 15.4847C11.5078 15.4847 11.4491 15.4604 11.4059 15.4172C11.3626 15.374 11.3383 15.3153 11.3383 15.2542" stroke="#0A8475" stroke-linecap="round" stroke-linejoin="round"/>
<path d="M11.7991 15.2542C11.7991 15.3153 11.7748 15.374 11.7316 15.4172C11.6883 15.4604 11.6297 15.4847 11.5685 15.4847" fill="#0A8475"/>
<path d="M11.7991 15.2542C11.7991 15.3153 11.7748 15.374 11.7316 15.4172C11.6883 15.4604 11.6297 15.4847 11.5685 15.4847" stroke="#0A8475" stroke-linecap="round" stroke-linejoin="round"/>
<path d="M5.11197 15.4846C5.17313 15.4846 5.23178 15.5089 5.27502 15.5522C5.31827 15.5954 5.34256 15.6541 5.34256 15.7152" fill="#0A8475"/>
<path d="M5.11197 15.4846C5.17313 15.4846 5.23178 15.5089 5.27502 15.5522C5.31827 15.5954 5.34256 15.6541 5.34256 15.7152" stroke="#0A8475" stroke-linecap="round" stroke-linejoin="round"/>
<path d="M4.88181 15.7152C4.88181 15.6541 4.9061 15.5954 4.94934 15.5522C4.99259 15.5089 5.05124 15.4846 5.1124 15.4846" fill="#0A8475"/>
<path d="M4.88181 15.7152C4.88181 15.6541 4.9061 15.5954 4.94934 15.5522C4.99259 15.5089 5.05124 15.4846 5.1124 15.4846" stroke="#0A8475" stroke-linecap="round" stroke-linejoin="round"/>
<path d="M5.1124 15.9459C5.05124 15.9459 4.99259 15.9216 4.94934 15.8784C4.9061 15.8351 4.88181 15.7765 4.88181 15.7153" fill="#0A8475"/>
<path d="M5.1124 15.9459C5.05124 15.9459 4.99259 15.9216 4.94934 15.8784C4.9061 15.8351 4.88181 15.7765 4.88181 15.7153" stroke="#0A8475" stroke-linecap="round" stroke-linejoin="round"/>
<path d="M5.34256 15.7153C5.34256 15.7765 5.31827 15.8351 5.27502 15.8784C5.23178 15.9216 5.17313 15.9459 5.11197 15.9459" fill="#0A8475"/>
<path d="M5.34256 15.7153C5.34256 15.7765 5.31827 15.8351 5.27502 15.8784C5.23178 15.9216 5.17313 15.9459 5.11197 15.9459" stroke="#0A8475" stroke-linecap="round" stroke-linejoin="round"/>
<path d="M8.34067 14.793C8.40182 14.793 8.46048 14.8173 8.50372 14.8605C8.54697 14.9038 8.57126 14.9624 8.57126 15.0236" fill="#0A8475"/>
<path d="M8.34067 14.793C8.40182 14.793 8.46048 14.8173 8.50372 14.8605C8.54697 14.9038 8.57126 14.9624 8.57126 15.0236" stroke="#0A8475" stroke-linecap="round" stroke-linejoin="round"/>
<path d="M8.10983 15.0236C8.10983 14.9624 8.13413 14.9038 8.17737 14.8605C8.22062 14.8173 8.27927 14.793 8.34043 14.793" fill="#0A8475"/>
<path d="M8.10983 15.0236C8.10983 14.9624 8.13413 14.9038 8.17737 14.8605C8.22062 14.8173 8.27927 14.793 8.34043 14.793" stroke="#0A8475" stroke-linecap="round" stroke-linejoin="round"/>
<path d="M8.34043 15.2543C8.27927 15.2543 8.22062 15.23 8.17737 15.1867C8.13413 15.1435 8.10983 15.0848 8.10983 15.0237" fill="#0A8475"/>
<path d="M8.34043 15.2543C8.27927 15.2543 8.22062 15.23 8.17737 15.1867C8.13413 15.1435 8.10983 15.0848 8.10983 15.0237" stroke="#0A8475" stroke-linecap="round" stroke-linejoin="round"/>
<path d="M8.57126 15.0237C8.57126 15.0848 8.54697 15.1435 8.50372 15.1867C8.46048 15.23 8.40182 15.2543 8.34067 15.2543" fill="#0A8475"/>
<path d="M8.57126 15.0237C8.57126 15.0848 8.54697 15.1435 8.50372 15.1867C8.46048 15.23 8.40182 15.2543 8.34067 15.2543" stroke="#0A8475" stroke-linecap="round" stroke-linejoin="round"/>
</svg>
