<svg width="18" height="19" viewBox="0 0 18 19" fill="none" xmlns="http://www.w3.org/2000/svg">
<path d="M15.4566 12.0646C15.5408 12.0655 15.6236 12.0435 15.6961 12.0007C15.7687 11.958 15.8281 11.8962 15.868 11.8221C15.9079 11.748 15.9268 11.6643 15.9225 11.5802C15.9183 11.4962 15.8911 11.4149 15.844 11.3451C14.5948 9.79494 13.232 8.33974 11.7671 6.99153H13.6119C13.6946 6.99079 13.7757 6.96823 13.847 6.92612C13.9182 6.88402 13.9771 6.82385 14.0177 6.75171C14.0611 6.68262 14.0841 6.6027 14.0841 6.52112C14.0841 6.43953 14.0611 6.35961 14.0177 6.29052C12.6853 4.42396 11.1373 2.72117 9.40584 1.21747C9.36333 1.15081 9.3047 1.09595 9.23538 1.05794C9.16606 1.01993 9.08828 1 9.00922 1C8.93016 1 8.85237 1.01993 8.78305 1.05794C8.71373 1.09595 8.65511 1.15081 8.6126 1.21747C6.88108 2.72117 5.33309 4.42396 4.00073 6.29052C3.95734 6.35961 3.93431 6.43953 3.93431 6.52112C3.93431 6.6027 3.95734 6.68262 4.00073 6.75171C4.0397 6.82122 4.0957 6.8797 4.16346 6.92165C4.23122 6.9636 4.30853 6.98764 4.38813 6.99153H6.23287C4.76795 8.33974 3.40523 9.79494 2.15598 11.3451C2.10884 11.4149 2.08168 11.4962 2.07745 11.5802C2.07322 11.6643 2.09208 11.748 2.13199 11.8221C2.1719 11.8962 2.23134 11.958 2.30385 12.0007C2.37637 12.0435 2.45921 12.0655 2.54338 12.0646H5.3105C3.69118 13.5942 2.32173 15.3682 1.25206 17.3221C1.20067 17.3906 1.16938 17.4721 1.16168 17.5574C1.15399 17.6427 1.17021 17.7285 1.20851 17.8051C1.24681 17.8817 1.30569 17.9461 1.37855 17.9911C1.4514 18.0361 1.53536 18.06 1.62101 18.06H16.379C16.4646 18.06 16.5486 18.0361 16.6214 17.9911C16.6943 17.9461 16.7532 17.8817 16.7915 17.8051C16.8298 17.7285 16.846 17.6427 16.8383 17.5574C16.8306 17.4721 16.7993 17.3906 16.7479 17.3221C15.6783 15.3682 14.3088 13.5942 12.6895 12.0646H15.4566Z" fill="#A61A25" stroke="#A61A25" stroke-linecap="round" stroke-linejoin="round"/>
<path d="M3.93582 9.28816C6.98888 9.13136 9.74677 8.76241 11.7668 6.99146L3.93582 9.28816Z" fill="#A61A25"/>
<path d="M3.93582 9.28816C6.98888 9.13136 9.74677 8.76241 11.7668 6.99146" stroke="#A61A25" stroke-linecap="round" stroke-linejoin="round"/>
<path d="M3.46512 14.0014C6.96091 14.0014 10.0416 13.5771 12.6888 12.0645L3.46512 14.0014Z" fill="#A61A25"/>
<path d="M3.46512 14.0014C6.96091 14.0014 10.0416 13.5771 12.6888 12.0645" stroke="#A61A25" stroke-linecap="round" stroke-linejoin="round"/>
<path d="M9.00049 4.91626C9.06165 4.91626 9.1203 4.94055 9.16354 4.9838C9.20679 5.02704 9.23108 5.0857 9.23108 5.14685" fill="#A61A25"/>
<path d="M9.00049 4.91626C9.06165 4.91626 9.1203 4.94055 9.16354 4.9838C9.20679 5.02704 9.23108 5.0857 9.23108 5.14685" stroke="#A61A25" stroke-linecap="round" stroke-linejoin="round"/>
<path d="M8.76965 5.14685C8.76965 5.0857 8.79395 5.02704 8.83719 4.9838C8.88044 4.94055 8.93909 4.91626 9.00025 4.91626" fill="#A61A25"/>
<path d="M8.76965 5.14685C8.76965 5.0857 8.79395 5.02704 8.83719 4.9838C8.88044 4.94055 8.93909 4.91626 9.00025 4.91626" stroke="#A61A25" stroke-linecap="round" stroke-linejoin="round"/>
<path d="M9.00025 5.37732C8.93909 5.37732 8.88044 5.35303 8.83719 5.30978C8.79395 5.26654 8.76965 5.20789 8.76965 5.14673" fill="#A61A25"/>
<path d="M9.00025 5.37732C8.93909 5.37732 8.88044 5.35303 8.83719 5.30978C8.79395 5.26654 8.76965 5.20789 8.76965 5.14673" stroke="#A61A25" stroke-linecap="round" stroke-linejoin="round"/>
<path d="M9.23108 5.14673C9.23108 5.20789 9.20679 5.26654 9.16354 5.30978C9.1203 5.35303 9.06165 5.37732 9.00049 5.37732" fill="#A61A25"/>
<path d="M9.23108 5.14673C9.23108 5.20789 9.20679 5.26654 9.16354 5.30978C9.1203 5.35303 9.06165 5.37732 9.00049 5.37732" stroke="#A61A25" stroke-linecap="round" stroke-linejoin="round"/>
<path d="M7.8465 10.9116C7.90765 10.9116 7.96631 10.9359 8.00955 10.9792C8.0528 11.0224 8.07709 11.0811 8.07709 11.1422" fill="#A61A25"/>
<path d="M7.8465 10.9116C7.90765 10.9116 7.96631 10.9359 8.00955 10.9792C8.0528 11.0224 8.07709 11.0811 8.07709 11.1422" stroke="#A61A25" stroke-linecap="round" stroke-linejoin="round"/>
<path d="M7.61725 11.1422C7.61725 11.0811 7.64154 11.0224 7.68479 10.9792C7.72803 10.9359 7.78668 10.9116 7.84784 10.9116" fill="#A61A25"/>
<path d="M7.61725 11.1422C7.61725 11.0811 7.64154 11.0224 7.68479 10.9792C7.72803 10.9359 7.78668 10.9116 7.84784 10.9116" stroke="#A61A25" stroke-linecap="round" stroke-linejoin="round"/>
<path d="M7.84784 11.3729C7.78668 11.3729 7.72803 11.3486 7.68479 11.3054C7.64154 11.2621 7.61725 11.2035 7.61725 11.1423" fill="#A61A25"/>
<path d="M7.84784 11.3729C7.78668 11.3729 7.72803 11.3486 7.68479 11.3054C7.64154 11.2621 7.61725 11.2035 7.61725 11.1423" stroke="#A61A25" stroke-linecap="round" stroke-linejoin="round"/>
<path d="M8.07709 11.1423C8.07709 11.2035 8.0528 11.2621 8.00955 11.3054C7.96631 11.3486 7.90765 11.3729 7.8465 11.3729" fill="#A61A25"/>
<path d="M8.07709 11.1423C8.07709 11.2035 8.0528 11.2621 8.00955 11.3054C7.96631 11.3486 7.90765 11.3729 7.8465 11.3729" stroke="#A61A25" stroke-linecap="round" stroke-linejoin="round"/>
<path d="M10.8453 9.75879C10.9064 9.75879 10.9651 9.78308 11.0083 9.82633C11.0516 9.86957 11.0759 9.92822 11.0759 9.98938" fill="#A61A25"/>
<path d="M10.8453 9.75879C10.9064 9.75879 10.9651 9.78308 11.0083 9.82633C11.0516 9.86957 11.0759 9.92822 11.0759 9.98938" stroke="#A61A25" stroke-linecap="round" stroke-linejoin="round"/>
<path d="M10.6135 9.98938C10.6135 9.92822 10.6378 9.86957 10.681 9.82633C10.7242 9.78308 10.7829 9.75879 10.8441 9.75879" fill="#A61A25"/>
<path d="M10.6135 9.98938C10.6135 9.92822 10.6378 9.86957 10.681 9.82633C10.7242 9.78308 10.7829 9.75879 10.8441 9.75879" stroke="#A61A25" stroke-linecap="round" stroke-linejoin="round"/>
<path d="M10.8441 10.2199C10.7829 10.2199 10.7242 10.1956 10.681 10.1523C10.6378 10.1091 10.6135 10.0504 10.6135 9.98926" fill="#A61A25"/>
<path d="M10.8441 10.2199C10.7829 10.2199 10.7242 10.1956 10.681 10.1523C10.6378 10.1091 10.6135 10.0504 10.6135 9.98926" stroke="#A61A25" stroke-linecap="round" stroke-linejoin="round"/>
<path d="M11.0759 9.98926C11.0759 10.0504 11.0516 10.1091 11.0083 10.1523C10.9651 10.1956 10.9064 10.2199 10.8453 10.2199" fill="#A61A25"/>
<path d="M11.0759 9.98926C11.0759 10.0504 11.0516 10.1091 11.0083 10.1523C10.9651 10.1956 10.9064 10.2199 10.8453 10.2199" stroke="#A61A25" stroke-linecap="round" stroke-linejoin="round"/>
<path d="M12.2283 15.5237C12.2895 15.5237 12.3481 15.548 12.3914 15.5912C12.4346 15.6345 12.4589 15.6931 12.4589 15.7543" fill="#A61A25"/>
<path d="M12.2283 15.5237C12.2895 15.5237 12.3481 15.548 12.3914 15.5912C12.4346 15.6345 12.4589 15.6931 12.4589 15.7543" stroke="#A61A25" stroke-linecap="round" stroke-linejoin="round"/>
<path d="M11.9982 15.7543C11.9982 15.6931 12.0225 15.6345 12.0657 15.5912C12.109 15.548 12.1676 15.5237 12.2288 15.5237" fill="#A61A25"/>
<path d="M11.9982 15.7543C11.9982 15.6931 12.0225 15.6345 12.0657 15.5912C12.109 15.548 12.1676 15.5237 12.2288 15.5237" stroke="#A61A25" stroke-linecap="round" stroke-linejoin="round"/>
<path d="M12.2288 15.9847C12.1676 15.9847 12.109 15.9604 12.0657 15.9172C12.0225 15.874 11.9982 15.8153 11.9982 15.7542" fill="#A61A25"/>
<path d="M12.2288 15.9847C12.1676 15.9847 12.109 15.9604 12.0657 15.9172C12.0225 15.874 11.9982 15.8153 11.9982 15.7542" stroke="#A61A25" stroke-linecap="round" stroke-linejoin="round"/>
<path d="M12.4589 15.7542C12.4589 15.8153 12.4346 15.874 12.3914 15.9172C12.3481 15.9604 12.2895 15.9847 12.2283 15.9847" fill="#A61A25"/>
<path d="M12.4589 15.7542C12.4589 15.8153 12.4346 15.874 12.3914 15.9172C12.3481 15.9604 12.2895 15.9847 12.2283 15.9847" stroke="#A61A25" stroke-linecap="round" stroke-linejoin="round"/>
<path d="M5.77179 15.9846C5.83295 15.9846 5.8916 16.0089 5.93484 16.0522C5.97809 16.0954 6.00238 16.1541 6.00238 16.2152" fill="#A61A25"/>
<path d="M5.77179 15.9846C5.83295 15.9846 5.8916 16.0089 5.93484 16.0522C5.97809 16.0954 6.00238 16.1541 6.00238 16.2152" stroke="#A61A25" stroke-linecap="round" stroke-linejoin="round"/>
<path d="M5.54163 16.2152C5.54163 16.1541 5.56592 16.0954 5.60916 16.0522C5.65241 16.0089 5.71106 15.9846 5.77222 15.9846" fill="#A61A25"/>
<path d="M5.54163 16.2152C5.54163 16.1541 5.56592 16.0954 5.60916 16.0522C5.65241 16.0089 5.71106 15.9846 5.77222 15.9846" stroke="#A61A25" stroke-linecap="round" stroke-linejoin="round"/>
<path d="M5.77222 16.4459C5.71106 16.4459 5.65241 16.4216 5.60916 16.3784C5.56592 16.3351 5.54163 16.2765 5.54163 16.2153" fill="#A61A25"/>
<path d="M5.77222 16.4459C5.71106 16.4459 5.65241 16.4216 5.60916 16.3784C5.56592 16.3351 5.54163 16.2765 5.54163 16.2153" stroke="#A61A25" stroke-linecap="round" stroke-linejoin="round"/>
<path d="M6.00238 16.2153C6.00238 16.2765 5.97809 16.3351 5.93484 16.3784C5.8916 16.4216 5.83295 16.4459 5.77179 16.4459" fill="#A61A25"/>
<path d="M6.00238 16.2153C6.00238 16.2765 5.97809 16.3351 5.93484 16.3784C5.8916 16.4216 5.83295 16.4459 5.77179 16.4459" stroke="#A61A25" stroke-linecap="round" stroke-linejoin="round"/>
<path d="M9.00049 15.293C9.06165 15.293 9.1203 15.3173 9.16354 15.3605C9.20679 15.4038 9.23108 15.4624 9.23108 15.5236" fill="#A61A25"/>
<path d="M9.00049 15.293C9.06165 15.293 9.1203 15.3173 9.16354 15.3605C9.20679 15.4038 9.23108 15.4624 9.23108 15.5236" stroke="#A61A25" stroke-linecap="round" stroke-linejoin="round"/>
<path d="M8.76965 15.5236C8.76965 15.4624 8.79395 15.4038 8.83719 15.3605C8.88044 15.3173 8.93909 15.293 9.00025 15.293" fill="#A61A25"/>
<path d="M8.76965 15.5236C8.76965 15.4624 8.79395 15.4038 8.83719 15.3605C8.88044 15.3173 8.93909 15.293 9.00025 15.293" stroke="#A61A25" stroke-linecap="round" stroke-linejoin="round"/>
<path d="M9.00025 15.7543C8.93909 15.7543 8.88044 15.73 8.83719 15.6867C8.79395 15.6435 8.76965 15.5848 8.76965 15.5237" fill="#A61A25"/>
<path d="M9.00025 15.7543C8.93909 15.7543 8.88044 15.73 8.83719 15.6867C8.79395 15.6435 8.76965 15.5848 8.76965 15.5237" stroke="#A61A25" stroke-linecap="round" stroke-linejoin="round"/>
<path d="M9.23108 15.5237C9.23108 15.5848 9.20679 15.6435 9.16354 15.6867C9.1203 15.73 9.06165 15.7543 9.00049 15.7543" fill="#A61A25"/>
<path d="M9.23108 15.5237C9.23108 15.5848 9.20679 15.6435 9.16354 15.6867C9.1203 15.73 9.06165 15.7543 9.00049 15.7543" stroke="#A61A25" stroke-linecap="round" stroke-linejoin="round"/>
</svg>
