<svg width="287" height="103" viewBox="0 0 287 103" fill="none" xmlns="http://www.w3.org/2000/svg">
<mask id="mask0_11216_574" style="mask-type:luminance" maskUnits="userSpaceOnUse" x="81" y="29" width="126" height="45">
<path d="M206.388 29H81V74H206.388V29Z" fill="white"/>
</mask>
<g mask="url(#mask0_11216_574)">
<mask id="mask1_11216_574" style="mask-type:luminance" maskUnits="userSpaceOnUse" x="81" y="29" width="126" height="45">
<path d="M206.388 29H81V74H206.388V29Z" fill="white"/>
</mask>
<g mask="url(#mask1_11216_574)">
<mask id="mask2_11216_574" style="mask-type:luminance" maskUnits="userSpaceOnUse" x="81" y="29" width="126" height="45">
<path d="M206.388 29H81V74H206.388V29Z" fill="white"/>
</mask>
<g mask="url(#mask2_11216_574)">
<path d="M179.855 52.0422C176.126 52.0422 173.168 48.8056 173.168 44.8133C173.168 40.5417 176.06 37.913 179.74 37.913C181.531 37.913 183.995 38.603 183.995 40.0981V41.5438H187.429V38.9644C187.429 35.465 182.287 34.3807 179.641 34.3807C173.678 34.3807 169.225 38.8823 169.225 44.7969C169.225 50.7114 173.513 55.558 179.789 55.558C182.763 55.558 184.998 54.4573 186.394 53.4879L184.587 50.58C183.502 51.2864 181.892 52.0422 179.855 52.0422Z" fill="#094752"/>
<path d="M118.179 52.0094H121.12C122.977 52.0094 124.012 50.7772 124.012 49.0357C124.012 47.2941 122.944 46.0948 121.12 46.0948H117.539V51.3686C117.539 51.7794 117.769 52.0094 118.179 52.0094ZM120.792 43.1047C122.385 43.1047 123.273 41.9546 123.273 40.476C123.273 38.9974 122.402 37.9459 120.726 37.9459H117.539V43.1047H120.792ZM113.744 37.9295H111.871V34.7258H120.759C124.455 34.7258 127.117 36.6316 127.117 39.9996C127.117 42.2832 125.868 43.7454 124.636 44.3862V44.4519C126.871 45.1091 127.938 47.1956 127.938 49.2657C127.938 53.3566 124.669 55.2131 120.841 55.2131H115.731C114.368 55.2131 113.76 54.6381 113.76 53.258V37.9295H113.744Z" fill="#094752"/>
<path d="M86.8818 55.2131H89.5927L97.0516 34.7258H94.3572L86.8818 55.2131Z" fill="#094752"/>
<path d="M81 55.2131H83.7108L91.1697 34.7258H88.4753L81 55.2131Z" fill="#094752"/>
<path d="M99.5979 46.8506L101.372 41.7246C101.75 40.6074 102.177 38.6688 102.177 38.6688H102.227C102.227 38.6688 102.654 40.6074 103.032 41.7246L104.806 46.8506H99.5979ZM111.164 52.0094C110.671 52.0094 110.441 51.8944 110.261 51.3686L104.198 34.7258H100.239L92.7798 55.2131H95.0635C96.5092 55.2131 97.0021 54.8352 97.4621 53.5373L98.7436 49.9557H105.693L106.975 53.5373C107.435 54.8352 107.96 55.2131 109.406 55.2131H112.216V52.0094H111.164Z" fill="#094752"/>
<path d="M164.412 34.7258C163.015 34.7258 162.44 35.3337 162.44 36.6973V46.062C162.44 47.2449 162.637 48.9371 162.637 48.9371H162.571C162.571 48.9371 161.668 47.2449 160.863 46.062L153.075 34.7258H149.658V55.2131H151.482C152.862 55.2131 153.453 54.6381 153.453 53.258V43.9097C153.453 42.7268 153.256 41.0182 153.256 41.0182H153.322C153.322 41.0182 154.225 42.7432 155.03 43.9097L162.834 55.2131H166.219V38.5702C166.219 38.1595 166.449 37.9295 166.86 37.9295H168.108V34.7258H164.412Z" fill="#094752"/>
<path d="M135.085 46.8506L136.843 41.7246C137.221 40.6074 137.648 38.6688 137.648 38.6688H137.714C137.714 38.6688 138.141 40.6074 138.519 41.7246L140.277 46.8506H135.085ZM146.652 52.0094C146.159 52.0094 145.928 51.8944 145.748 51.3686L139.669 34.7258H135.71L128.267 55.2131H130.551C131.996 55.2131 132.49 54.8352 132.949 53.5373L134.215 49.9557H141.164L142.429 53.5373C142.889 54.8352 143.415 55.2131 144.861 55.2131H147.67V52.0094H146.652Z" fill="#094752"/>
<path d="M193.804 46.8506L195.561 41.7246C195.939 40.6074 196.366 38.6688 196.366 38.6688H196.432C196.432 38.6688 196.876 40.6074 197.237 41.7246L198.995 46.8506H193.804ZM205.369 52.0094C204.877 52.0094 204.647 51.8944 204.466 51.3686L198.387 34.7258H194.428L186.969 55.2131H189.252C190.698 55.2131 191.191 54.8352 191.651 53.5373L192.933 49.9557H199.882L201.147 53.5373C201.607 54.8352 202.133 55.2131 203.579 55.2131H206.388V52.0094H205.369Z" fill="#094752"/>
<path d="M168.19 63.7562C169.505 63.7562 170.359 62.9676 170.359 61.6204C170.359 60.2732 169.505 59.5339 168.207 59.5339H165.89V63.7562H168.19ZM164.937 58.6795H168.322C170.079 58.6795 171.345 59.8132 171.345 61.6204C171.345 63.4276 170.079 64.6105 168.322 64.6105H165.89V68.4549H164.921V58.6795H164.937Z" fill="#094752"/>
<path d="M172.643 61.4561H173.579V62.6883C173.579 62.9841 173.546 63.2469 173.546 63.2469H173.579C173.907 62.1955 174.696 61.3904 175.797 61.3904C175.994 61.3904 176.175 61.4397 176.175 61.4397V62.3762C176.175 62.3762 176.011 62.3433 175.83 62.3433C174.844 62.3433 174.105 63.1155 173.792 64.1506C173.645 64.5941 173.595 65.0706 173.595 65.5142V68.455H172.643V61.4561Z" fill="#094752"/>
<path d="M177.259 68.4549H178.212V61.456H177.259V68.4549ZM177.226 59.8624H178.212V58.6795H177.226V59.8624Z" fill="#094752"/>
<path d="M179.181 61.4562H180.184L182.139 66.5821C182.27 66.9271 182.369 67.42 182.369 67.42H182.402C182.402 67.42 182.517 66.9436 182.648 66.5821L184.587 61.4562H185.573L182.895 68.455H181.86L179.181 61.4562Z" fill="#094752"/>
<path d="M188.53 67.8143C189.861 67.8143 190.682 66.4178 190.682 65.2184V64.9063H190.271C189.17 64.9063 186.969 64.9556 186.969 66.4999C186.969 67.1407 187.478 67.8143 188.53 67.8143ZM190.287 64.1341H190.682V63.9534C190.682 62.6062 189.943 62.1462 188.94 62.1462C187.79 62.1462 186.969 62.8198 186.969 62.8198L186.525 62.0969C186.525 62.0969 187.445 61.3083 189.023 61.3083C190.715 61.3083 191.651 62.2447 191.651 63.9863V68.4715H190.747V67.6993C190.747 67.3543 190.78 67.1078 190.78 67.1078H190.747C190.747 67.1078 190.156 68.6193 188.398 68.6193C187.232 68.6193 186.016 67.9457 186.016 66.5492C185.999 64.1834 189.072 64.1341 190.287 64.1341Z" fill="#094752"/>
<path d="M196.202 67.7813C197.369 67.7813 198.469 66.9435 198.469 64.9555C198.469 63.5426 197.747 62.1461 196.235 62.1461C195.003 62.1461 193.984 63.1976 193.984 64.9555C193.984 66.7134 194.888 67.7813 196.202 67.7813ZM196.153 61.2918C197.845 61.2918 198.437 62.6061 198.437 62.6061H198.469C198.469 62.6061 198.437 62.3761 198.437 62.0804V58.6795H199.389V68.4549H198.469V67.7156C198.469 67.4035 198.503 67.2063 198.503 67.2063H198.469C198.469 67.2063 197.894 68.6192 196.055 68.6192C194.214 68.6192 192.999 67.1242 192.999 64.9391C193.015 62.7375 194.313 61.2918 196.153 61.2918Z" fill="#094752"/>
<path d="M203.3 67.8143C204.63 67.8143 205.452 66.4178 205.452 65.2184V64.9063H205.041C203.941 64.9063 201.739 64.9556 201.739 66.4999C201.739 67.1407 202.248 67.8143 203.3 67.8143ZM205.058 64.1341H205.452V63.9534C205.452 62.6062 204.713 62.1462 203.71 62.1462C202.544 62.1462 201.722 62.8198 201.722 62.8198L201.279 62.0969C201.279 62.0969 202.199 61.3083 203.776 61.3083C205.468 61.3083 206.388 62.2447 206.388 63.9863V68.4715H205.485V67.6993C205.485 67.3543 205.518 67.1078 205.518 67.1078H205.485C205.485 67.1078 204.893 68.6193 203.135 68.6193C201.969 68.6193 200.753 67.9457 200.753 66.5492C200.77 64.1834 203.842 64.1341 205.058 64.1341Z" fill="#094752"/>
</g>
</g>
</g>
</svg>
