<svg width="200" height="67" viewBox="0 0 200 67" fill="none" xmlns="http://www.w3.org/2000/svg">
<path d="M119.933 21.8551C118.643 23.381 115.656 24.3803 114.071 25.8471C112.874 26.9547 112.51 28.5052 111.472 29.7407C108.636 33.1076 102.882 32.3545 101.159 28.2542C99.7663 24.9414 100.785 21.8453 100.347 18.5621C100.19 17.3659 99.7958 16.918 98.5455 17.1789L98.4865 16.8835C99.5841 16.4553 100.618 14.6439 101.858 15.7563C102.72 16.5291 103.207 18.7048 103.33 19.8369C103.414 20.6245 103.202 23.509 104.561 21.417C105.791 19.5268 106.101 17.1493 106.815 15.0573C107.214 13.8858 108.41 10.8241 109.173 9.97749C109.793 9.28343 110.93 9.2982 110.95 10.3959C110.974 11.6412 109.247 14.9097 108.937 16.5882C108.833 17.1346 108.518 19.832 109.419 18.2519C109.828 17.5382 110.064 16.3322 110.433 15.4905C111.014 14.1664 112.308 11.8135 113.15 10.6518C113.992 9.49017 115.414 9.8495 115.227 11.3114C114.386 13.177 113.298 14.9392 112.456 16.7999C112.2 17.3708 111.102 19.7139 111.255 20.1717C111.585 21.1807 112.845 18.7097 113.037 18.439C113.977 17.1001 115.227 15.205 116.325 14.0532C117.423 12.9014 118.388 13.2607 118.156 14.8211C116.719 17.1001 114.725 19.4235 113.701 21.9339C113.396 22.6821 112.938 23.6665 114.282 23.2186C115.149 22.9282 117.034 21.4662 118.013 20.9297C118.53 20.6442 119.214 20.0781 119.785 20.3735C120.391 20.6885 120.332 21.3826 119.938 21.8502L119.933 21.8551ZM101.051 16.1452C100.775 15.8548 100.293 16.3224 100.426 16.5882C100.697 17.1346 101.479 16.598 101.051 16.1452Z" fill="black"/>
<path d="M97.5118 23.3414C97.6299 23.6121 97.6447 23.9025 97.6644 24.1929C97.9056 27.8896 97.2853 30.0062 93.8052 31.5568C87.8492 34.2099 85.4618 28.559 83.0204 24.5523C82.7496 24.1092 81.8981 22.731 81.5437 22.4898C80.7758 21.9631 80.382 22.6621 79.7667 22.8442C79.1908 23.0116 80.1359 21.9336 80.1851 21.845C80.5444 21.2051 80.5986 20.1221 81.4747 19.94C82.7053 19.689 84.4971 21.5989 85.1911 22.4996C85.5012 22.9033 86.3971 24.5621 86.7613 24.5966C86.8992 24.6064 86.9976 24.631 87.0911 24.4981C87.3028 24.2028 87.2831 23.8385 87.2634 23.494C87.1059 20.1517 85.7621 17.0309 85.2896 13.7822C85.1567 12.8666 84.7727 10.243 86.5251 11.0109C87.3914 11.3899 87.8049 14.8208 88.0953 15.8151C88.2381 16.3024 89.2176 18.8719 89.5277 19.0442C89.6557 19.1131 89.8329 19.054 89.9756 19.0688C89.9756 17.5035 89.4785 15.9726 89.385 14.4073C89.321 13.2998 89.2619 11.3456 89.385 10.2775C89.5523 8.79091 91.157 8.67277 91.6246 10.0461C91.9446 13.792 91.472 18.2418 94.1153 21.2494C95.0358 22.2978 96.1778 22.9377 97.5068 23.3463L97.5118 23.3414ZM81.2532 21.4118C81.6519 21.6628 82.09 21.0279 81.7209 20.767C81.1892 20.3929 80.9677 21.2297 81.2532 21.4118Z" fill="black"/>
<path d="M104.167 11.2571C104.246 11.3064 104.511 11.3014 104.6 11.2473C104.684 11.1981 105.417 9.83459 105.589 9.58355C106.406 8.39726 107.347 7.10269 108.238 5.97547C108.735 5.34049 110.083 3.26326 110.935 4.55291C111.344 5.17313 110.94 5.6949 110.625 6.23636C109.444 8.24959 108.026 9.67215 107.022 11.961C105.855 14.6142 105.589 17.5873 104.211 20.1223C104.019 20.1223 103.955 18.7539 103.881 18.4438C103.581 17.1246 102.729 14.688 101.135 14.5748C99.776 14.4764 98.0975 16.588 96.9408 17.2378C96.8276 17.8482 97.812 17.607 98.1861 17.6464C98.5602 17.6857 98.9737 17.7842 99.3527 17.8679C99.8056 18.1829 99.7071 21.9977 99.525 22.6967C99.274 23.0806 97.0343 22.4063 96.5864 22.1946C91.984 20.0091 93.3573 14.0284 93.0521 10.0266C93.0176 9.57863 92.8355 8.23975 92.4319 8.0527C91.9643 7.83612 91.413 8.08224 91.0438 7.78689L93.0964 6.30527C95.0358 5.52261 95.8431 9.19961 95.9858 10.5188C96.0301 10.952 95.8825 12.7683 96.3107 12.916C96.6454 13.0292 96.8866 12.7388 97.0343 12.4779C98.6341 9.71153 99.2936 5.68997 100.436 2.65781C100.761 1.79148 101.617 -0.965036 102.853 0.34923C103.414 0.944834 103.094 2.04252 102.907 2.77102C102.444 4.59721 101.213 7.02885 101.43 8.96826C101.563 10.1349 101.981 9.47526 102.257 8.8452C103.31 6.44802 103.901 4.67105 105.353 2.37724C105.565 2.04252 106.052 1.14665 106.283 0.944834C107.214 0.137569 108.341 1.0925 107.991 2.18034C106.963 4.55291 105.378 6.87134 104.477 9.29313C104.354 9.62293 103.817 11.0307 104.162 11.2473L104.167 11.2571ZM93.3721 6.92056C92.8454 7.05839 93.121 7.71798 93.5591 7.60477C94.0858 7.46694 93.8102 6.80735 93.3721 6.92056Z" fill="black"/>
<path d="M61.8788 62.7302C61.4801 62.7302 61.421 63.2667 61.2192 63.5473C60.727 64.2167 60.1806 64.7828 59.4619 65.211C57.0106 66.6582 54.1655 66.4121 51.852 64.7877C47.8993 62.0066 47.8058 53.993 51.3696 50.8722C53.7619 48.7753 57.9508 48.5833 60.348 50.7541C61.0223 51.3645 61.2881 52.0733 61.8837 52.7033V42.7307L62.061 42.5535H64.7781L64.9553 42.7307V65.5113L64.7781 65.6885H62.061L61.8837 65.5113V62.74L61.8788 62.7302ZM55.9425 51.6647C50.4196 52.4671 50.4787 63.124 56.1492 63.6753C60.8993 64.133 62.3071 60.077 61.8641 56.0752C61.5343 53.1217 58.8319 51.2463 55.9425 51.6647Z" fill="black"/>
<path d="M15.8254 42.5483V45.1473H3.48502C3.48502 45.1473 3.18968 45.423 3.18968 45.4427V52.6441L3.36689 52.8213H12.931L13.1082 52.9985V55.4203H3.48502C3.48502 55.4203 3.27829 55.6024 3.24875 55.6565C3.12077 58.6493 3.20937 61.6815 3.17984 64.6891C3.17984 64.9106 3.40135 65.6883 3.00756 65.6883H0.295341C0.255962 65.6883 0.118136 65.5308 0 65.5702V42.6714C0.118136 42.7108 0.255962 42.5533 0.295341 42.5533H15.8254V42.5483Z" fill="black"/>
<path d="M186.931 49.2774L184.214 63.6211L184.569 64.325C185.927 64.9846 186.606 61.6226 187.113 61.0812C187.448 60.7218 187.547 61.2042 187.468 61.5488C186.961 63.7245 185.199 67.2292 182.442 65.7426C180.586 64.7434 181.177 62.4102 181.384 60.7218C180.842 61.2731 180.665 62.1444 180.266 62.8483C177.564 67.6131 171.505 67.111 170.998 61.2485C170.594 56.6166 173.257 50.7836 178.056 49.5432C180.207 48.987 182.196 49.2577 183.924 50.6852L186.936 49.2725L186.931 49.2774ZM180.055 50.0108C176.501 50.3603 174.522 57.2762 174.527 60.2001C174.527 62.2428 175.674 64.9944 178.11 63.5374C180.178 62.3019 182.856 55.194 182.673 52.8805C182.565 51.4875 181.654 49.8582 180.055 50.0108Z" fill="black"/>
<path d="M77.9356 63.0894C77.7683 63.05 77.7437 63.114 77.6403 63.2026C77.3056 63.493 77.0546 64.0984 76.5771 64.5021C74.5048 66.2594 71.3938 66.7368 69.0016 65.3487C67.7267 64.6104 67.0031 63.3109 66.9539 61.844C66.7865 56.71 74.239 56.7494 77.7043 55.696C77.7043 54.8248 77.7781 54.1061 77.3893 53.3037C76.2325 50.8967 72.3685 51.0149 70.9115 53.0626C70.6752 53.3973 70.2765 54.618 70.0599 54.6869L67.6529 54.4162C67.3772 54.2341 67.7316 53.4416 67.8399 53.1708C69.105 49.9221 72.5998 48.7949 75.8387 49.3019C82.7054 50.3799 80.1113 57.9997 80.702 62.8531C81.086 64.0492 82.2624 63.872 83.1878 63.4339C83.7046 64.4922 83.3305 65.3783 82.2132 65.7622C80.067 66.5055 78.1325 65.329 77.9356 63.0795V63.0894ZM77.6994 57.7732C75.947 58.2458 71.2265 58.5903 70.3011 60.2344C69.5184 61.6274 70.1682 63.242 71.6744 63.7342C73.7516 64.4184 76.2227 63.0943 77.153 61.1795C77.2514 60.9826 77.6994 59.8259 77.6994 59.7176V57.7683V57.7732Z" fill="black"/>
<path d="M113.578 49.1888C123.443 48.9378 125.146 63.1338 116.222 65.7673C114.356 66.3186 113.204 66.3432 111.329 65.7673C102.798 63.1486 104.172 49.43 113.578 49.1888ZM113.578 51.5516C106.574 51.8026 107.263 65.3538 115.045 63.6458C120.583 62.4299 120.391 51.3054 113.578 51.5516Z" fill="black"/>
<path d="M141.35 65.6835C141.104 65.4324 142.118 64.8467 142.295 64.6842C142.955 64.0689 143.521 63.3896 144.043 62.6562L154.941 42.8585C155.177 42.5534 156.944 42.5681 157.038 42.8635L160.631 62.7596C160.533 63.2617 161.822 65.3487 161.778 65.5013C161.68 65.8459 161.04 65.5702 160.779 65.5604C159.105 65.5112 157.427 65.5752 155.753 65.6342C155.586 65.6392 155.522 65.6982 155.404 65.5063L156.314 64.1772C156.954 62.671 156.437 60.2886 156.078 58.6937C156.029 58.4771 155.935 57.9357 155.758 57.8323H147.73C147.513 57.9308 146.204 60.3969 145.992 60.8202C145.387 62.0311 144.574 63.3109 145.101 64.7039C145.16 64.8565 145.815 65.6785 145.421 65.6785H141.345L141.35 65.6835ZM148.079 57.0694H155.753L153.922 46.6832L148.079 57.0694Z" fill="black"/>
<path d="M126.942 65.5654C126.849 65.7131 124.393 65.7524 124.112 65.6244C124.058 65.5998 123.876 65.4128 123.876 65.3882V49.809L124.053 49.6318H126.77L126.947 49.809V51.6991C126.947 51.7533 126.775 51.9206 126.829 52.0535C126.829 52.1569 127.075 52.1323 127.125 52.1126C127.198 52.0831 127.833 51.0445 128.065 50.8131C130.162 48.7408 134.631 48.6227 136.63 50.882C139.327 53.9339 137.713 61.406 138.175 65.2848L137.993 65.6934H135.276L135.099 65.5162V55.0119C135.099 54.815 134.68 53.6828 134.552 53.4318C133.376 51.0789 129.842 51.0986 128.188 52.9445C127.7 53.4909 126.947 54.879 126.947 55.6026V65.5752L126.942 65.5654Z" fill="black"/>
<path d="M26.9252 63.616C26.9399 63.493 27.2353 62.8826 26.7036 63.2173C26.6741 63.237 26.5068 63.7391 26.3837 63.9015C25.2171 65.4767 22.6821 66.4513 20.7821 66.092C18.882 65.7326 17.3906 64.9254 16.6079 63.0647C16.4652 62.73 16.0615 61.4207 16.0615 61.1352V49.6267H18.8377L19.0149 49.8039V59.8357C19.0149 60.195 19.266 61.1942 19.4087 61.5683C20.4621 64.3888 24.4591 64.3347 26.0588 62.0359C26.2754 61.7209 26.9301 60.3771 26.9301 60.0719V49.8039L27.1073 49.6267H29.8244L30.0016 49.8039V65.5013L29.8244 65.6785H27.1073L26.9301 65.5013C26.9744 64.8909 26.871 64.2116 26.9301 63.6111L26.9252 63.616Z" fill="black"/>
<path d="M47.1168 65.5654C46.9986 65.526 46.8608 65.6835 46.8214 65.6835H44.3406C43.9468 65.6835 44.1732 64.9058 44.1683 64.6843C44.1388 61.8835 44.3406 58.8218 44.1584 56.0653C43.9714 53.1709 42.7014 51.2266 39.5068 51.6499C37.7397 51.8813 35.8938 54.0816 35.8938 55.829V65.5063L35.7166 65.6835H33.1176C33.0881 65.6835 32.8863 65.4817 32.8715 65.3931V49.9222C32.8863 49.8336 33.0881 49.6317 33.1176 49.6317H35.7166L35.8938 49.809V52.1126C36.3221 52.1274 36.3811 51.6007 36.6026 51.3447C39.9646 47.4856 47.1119 49.0411 47.1119 54.6476V65.5654H47.1168Z" fill="black"/>
<path d="M85.5358 51.4431C88.376 48.6324 94.0514 48.3322 96.8916 51.2807C97.8613 52.2898 98.8901 54.4457 98.9492 55.8437C98.9541 55.9766 98.9738 56.0996 98.8409 56.1882L96.3453 56.3064C95.9515 53.2693 93.8939 51.3201 90.7436 51.64C84.4332 52.275 84.6645 64.7384 92.3434 63.6259C94.1745 63.3601 95.4937 61.9572 96.0548 60.2541C96.1681 59.9095 96.1238 59.0629 96.4683 58.8906L98.836 59.1269C98.9689 59.2106 98.9492 59.3385 98.9443 59.4715C98.9196 60.0326 98.5603 61.1697 98.3487 61.716C96.2074 67.1552 88.4498 67.5096 84.9549 63.2075C82.4347 60.0966 82.666 54.2784 85.5308 51.4431H85.5358Z" fill="black"/>
<path d="M170.515 40.8994L166.499 63.0254C166.41 65.0977 167.572 64.5119 168.369 63.2419C168.723 62.6808 169.142 61.2681 169.398 60.9629C169.526 60.8103 169.959 60.7069 169.924 61.017C169.811 61.9621 168.881 64.0492 168.275 64.7974C167.291 66.0083 165.923 66.4562 164.471 65.772C162.753 64.9598 163.013 62.5036 163.23 60.9334C163.968 55.4942 165.573 50.0008 166.021 44.5124L165.804 43.6707L165.091 42.7305L170.52 40.8994H170.515Z" fill="black"/>
<path d="M199.203 54.7019L198.858 54.7117C198.769 52.477 197.381 50.0306 194.9 49.9813C192.868 49.942 191.588 51.9454 192.892 53.6534C194.738 56.0703 198.986 57.5421 199.05 61.1649C199.153 67.1406 191.253 66.9684 187.783 64.1331C187.674 63.946 188.373 60.4019 188.467 59.8457C188.487 59.7177 188.487 59.4667 188.644 59.4322C189.058 59.3486 188.91 60.274 188.964 60.525C189.506 63.0896 191.474 65.6787 194.398 65.1865C195.811 64.9502 196.451 63.5276 196.249 62.2134C195.826 59.4372 189.791 57.734 189.752 53.7076C189.707 48.6326 197.017 48.2684 200 50.8723L199.198 54.7019H199.203Z" fill="black"/>
<path d="M103.798 49.6318L103.886 65.3735C103.872 65.4572 103.65 65.6836 103.62 65.6836H101.021L100.844 65.5064V49.809L101.021 49.6318H103.798Z" fill="black"/>
<path d="M118.324 42.5483C118.358 42.7354 118.304 42.8191 118.21 42.9667C117.314 44.3745 115.882 45.7233 114.957 47.1507H112.889L114.957 42.5483H118.324Z" fill="black"/>
<path d="M100.903 42.5483H103.738L103.916 42.7255V45.7971L103.738 45.9743H100.903L100.726 45.7971V42.7255L100.903 42.5483Z" fill="black"/>
<path d="M101.051 16.1449C101.479 16.5929 100.697 17.1294 100.426 16.588C100.293 16.3221 100.775 15.8545 101.051 16.1449Z" fill="white"/>
<path d="M81.2533 21.4118C80.9678 21.2346 81.1893 20.3978 81.721 20.767C82.0901 21.0279 81.652 21.6579 81.2533 21.4118Z" fill="white"/>
<path d="M93.3721 6.92059C93.8102 6.80738 94.0858 7.46697 93.5591 7.6048C93.1211 7.71801 92.8454 7.05842 93.3721 6.92059Z" fill="white"/>
</svg>
