<svg width="200" height="113" viewBox="0 0 200 113" fill="none" xmlns="http://www.w3.org/2000/svg">
<path d="M41.5998 111.791C41.5998 111.897 41.516 111.981 41.4102 111.981H40.5988C40.493 111.981 40.4092 111.897 40.4092 111.791V105.19C40.4092 105.084 40.493 105.001 40.5988 105.001H41.4102C41.516 105.001 41.5998 105.084 41.5998 105.19V111.791Z" fill="#1D1D1B"/>
<path d="M43.7031 111.985C43.5973 111.985 43.5135 111.901 43.5135 111.796V105.075C43.5135 104.992 43.5752 104.93 43.6458 104.93C43.7428 104.93 43.8266 104.965 43.8839 105.027L48.0112 109.212V105.194C48.0112 105.089 48.095 105.005 48.2008 105.005H49.0122C49.118 105.005 49.2018 105.089 49.2018 105.194V111.928C49.2018 111.99 49.1401 112.047 49.0695 112.047C48.999 112.047 48.9152 112.012 48.8667 111.95L44.7041 107.62V111.796C44.7041 111.901 44.6203 111.985 44.5145 111.985H43.7031Z" fill="#1D1D1B"/>
<path d="M52.6148 106.05H50.8333C50.7275 106.05 50.6437 105.966 50.6437 105.86V105.19C50.6437 105.084 50.7275 105.001 50.8333 105.001H55.6045C55.7103 105.001 55.7941 105.084 55.7941 105.19V105.86C55.7941 105.966 55.7103 106.05 55.6045 106.05H53.7966V111.791C53.7966 111.897 53.7128 111.981 53.607 111.981H52.8044C52.6986 111.981 52.6148 111.897 52.6148 111.791V106.05Z" fill="#1D1D1B"/>
<path d="M58.4178 109.066V110.918H61.6941C61.7999 110.918 61.8837 111.002 61.8837 111.108V111.791C61.8837 111.897 61.7999 111.981 61.6941 111.981H57.4256C57.3198 111.981 57.236 111.897 57.236 111.791V105.19C57.236 105.084 57.3198 105.001 57.4256 105.001H61.6941C61.7999 105.001 61.8837 105.084 61.8837 105.19V105.86C61.8837 105.966 61.7999 106.05 61.6941 106.05H58.4178V107.999H60.9401C61.0459 107.999 61.1297 108.083 61.1297 108.189V108.872C61.1297 108.978 61.0459 109.062 60.9401 109.062H58.4178V109.066Z" fill="#1D1D1B"/>
<path d="M66.5269 109.569C66.4211 109.569 66.3373 109.485 66.3373 109.379V108.696C66.3373 108.585 66.4211 108.506 66.5269 108.506H68.7538C68.8596 108.506 68.9434 108.59 68.9434 108.696V110.896C68.9434 111.015 68.8949 111.134 68.7979 111.218C68.1982 111.756 67.4706 112.078 66.4167 112.078C63.7357 112.078 62.9728 109.974 62.9728 108.488C62.9728 107.002 63.7401 104.912 66.4167 104.912C67.5059 104.912 68.1761 105.234 68.7714 105.834C68.842 105.918 68.842 106.037 68.7714 106.107L68.282 106.61C68.2114 106.681 68.0923 106.681 68.0086 106.61C67.6161 106.275 67.0164 105.988 66.4167 105.988C64.4545 105.988 64.1546 107.853 64.1546 108.488C64.1546 109.123 64.4545 110.989 66.4167 110.989C66.8973 110.989 67.3956 110.843 67.766 110.605V109.564H66.5225L66.5269 109.569Z" fill="#1D1D1B"/>
<path d="M71.7787 111.791C71.7787 111.897 71.695 111.981 71.5891 111.981H70.8131C70.7072 111.981 70.6234 111.897 70.6234 111.791V105.19C70.6234 105.084 70.7072 105.001 70.8131 105.001H73.2295C75.0947 105.001 75.668 106.293 75.668 107.201C75.668 108.22 75.011 108.969 74.1952 109.295L75.3681 111.818C75.4034 111.888 75.3461 111.985 75.2623 111.985H74.376C74.2569 111.985 74.1467 111.915 74.1026 111.818L73.0002 109.45H71.7787V111.796V111.791ZM73.3089 108.369C74.2657 108.369 74.495 107.567 74.495 107.197C74.495 106.804 74.2657 106.037 73.2736 106.037H71.7787V108.369H73.3089Z" fill="#1D1D1B"/>
<path d="M80.6905 110.261H78.2168L77.595 111.804C77.5465 111.91 77.4495 111.985 77.3304 111.985H76.4574C76.3603 111.985 76.303 111.888 76.3383 111.804L79.3059 105.022C79.3412 104.961 79.3897 104.925 79.4603 104.925C79.522 104.925 79.5793 104.961 79.6146 105.022L82.5822 111.804C82.6175 111.888 82.5602 111.985 82.4632 111.985H81.5769C81.4578 111.985 81.3608 111.915 81.3123 111.804L80.6905 110.261ZM78.618 109.256H80.2804L79.4559 107.196L78.618 109.256Z" fill="#1D1D1B"/>
<path d="M88.8349 106.698C88.7644 106.768 88.6453 106.768 88.5703 106.698C88.1382 106.292 87.4812 105.944 86.8374 105.944C84.8751 105.944 84.5753 107.822 84.5753 108.457C84.5753 109.092 84.8751 110.958 86.8374 110.993C87.5297 110.993 88.1647 110.658 88.6188 110.287C88.7026 110.217 88.8217 110.226 88.8834 110.309L89.3376 110.869C89.4082 110.953 89.3993 111.072 89.3155 111.143C88.6806 111.729 87.9045 112.086 86.8374 112.086C84.1696 112.086 83.3803 109.948 83.3803 108.449C83.3803 106.949 84.1696 104.859 86.8374 104.859C87.9486 104.859 88.7026 105.278 89.3508 105.935C89.4214 106.006 89.4214 106.125 89.3376 106.2L88.8349 106.689V106.698Z" fill="#1D1D1B"/>
<path d="M92.1113 111.791C92.1113 111.897 92.0275 111.981 91.9217 111.981H91.1103C91.0045 111.981 90.9207 111.897 90.9207 111.791V105.19C90.9207 105.084 91.0045 105.001 91.1103 105.001H91.9217C92.0275 105.001 92.1113 105.084 92.1113 105.19V111.791Z" fill="#1D1D1B"/>
<path d="M100.675 108.453C100.675 109.948 99.9074 112.029 97.2308 112.029C94.5542 112.029 93.7869 109.948 93.7869 108.453C93.7869 106.958 94.5542 104.925 97.2308 104.925C99.9074 104.925 100.675 107.007 100.675 108.453ZM99.4796 108.453C99.4796 107.818 99.193 106.001 97.2308 106.001C95.2685 106.001 94.9687 107.818 94.9687 108.453C94.9687 109.088 95.2685 110.953 97.2308 110.953C99.193 110.953 99.4796 109.088 99.4796 108.453ZM97.8305 102.081L98.1656 102.571C98.2273 102.654 98.2009 102.773 98.1039 102.822L96.4767 103.841C96.3797 103.889 96.2607 103.863 96.2033 103.779L95.9873 103.457C95.9255 103.373 95.952 103.254 96.0358 103.184L97.5659 102.046C97.6497 101.975 97.7687 101.997 97.8305 102.081Z" fill="#1D1D1B"/>
<path d="M102.544 111.985C102.438 111.985 102.355 111.901 102.355 111.796V105.075C102.355 104.992 102.416 104.93 102.487 104.93C102.584 104.93 102.668 104.965 102.725 105.027L106.852 109.212V105.194C106.852 105.089 106.936 105.005 107.042 105.005H107.853C107.959 105.005 108.043 105.089 108.043 105.194V111.928C108.043 111.99 107.981 112.047 107.911 112.047C107.84 112.047 107.756 112.012 107.708 111.95L103.545 107.62V111.796C103.545 111.901 103.461 111.985 103.356 111.985H102.544Z" fill="#1D1D1B"/>
<path d="M114.732 109.066V110.918H118.009C118.114 110.918 118.198 111.002 118.198 111.108V111.791C118.198 111.897 118.114 111.981 118.009 111.981H113.74C113.634 111.981 113.551 111.897 113.551 111.791V105.19C113.551 105.084 113.634 105.001 113.74 105.001H118.009C118.114 105.001 118.198 105.084 118.198 105.19V105.86C118.198 105.966 118.114 106.05 118.009 106.05H114.732V107.999H117.255C117.36 107.999 117.444 108.083 117.444 108.189V108.872C117.444 108.978 117.36 109.062 117.255 109.062H114.732V109.066Z" fill="#1D1D1B"/>
<path d="M122.352 107.845C123.406 108.167 124.707 108.621 124.707 110.142C124.707 111.24 123.644 112.078 122.207 112.078C121.236 112.078 120.544 111.888 119.803 111.518C119.706 111.456 119.671 111.35 119.72 111.253L119.993 110.645C120.041 110.548 120.147 110.499 120.244 110.548C120.853 110.821 121.475 111.002 122.136 111.002C122.855 111.002 123.499 110.667 123.499 110.129C123.499 109.353 122.696 109.15 121.885 108.885C120.857 108.599 119.72 108.242 119.72 106.875C119.72 105.631 120.628 104.912 121.933 104.912C122.326 104.912 123.177 104.983 124.195 105.428C124.301 105.477 124.341 105.596 124.292 105.693L124.019 106.315C123.97 106.42 123.851 106.46 123.754 106.42C123.265 106.24 122.533 106.037 122.154 106.037C121.483 106.037 120.945 106.156 120.91 106.813C120.91 107.413 121.594 107.615 122.356 107.84L122.352 107.845Z" fill="#1D1D1B"/>
<path d="M131.599 106.698C131.528 106.768 131.409 106.768 131.334 106.698C130.902 106.292 130.245 105.944 129.601 105.944C127.639 105.944 127.339 107.822 127.339 108.457C127.339 109.092 127.639 110.958 129.601 110.993C130.294 110.993 130.929 110.658 131.383 110.287C131.467 110.217 131.586 110.226 131.647 110.309L132.102 110.869C132.172 110.953 132.163 111.072 132.079 111.143C131.445 111.729 130.668 112.086 129.606 112.086C126.938 112.086 126.149 109.948 126.149 108.449C126.149 106.949 126.938 104.859 129.606 104.859C130.717 104.859 131.471 105.278 132.119 105.935C132.19 106.006 132.19 106.125 132.106 106.2L131.603 106.689L131.599 106.698Z" fill="#1D1D1B"/>
<path d="M140.33 108.453C140.33 109.948 139.563 112.029 136.886 112.029C134.209 112.029 133.442 109.948 133.442 108.453C133.442 106.958 134.209 104.925 136.886 104.925C139.563 104.925 140.33 107.007 140.33 108.453ZM139.135 108.453C139.135 107.818 138.848 106.001 136.886 106.001C134.924 106.001 134.624 107.818 134.624 108.453C134.624 109.088 134.924 110.953 136.886 110.953C138.848 110.953 139.135 109.088 139.135 108.453Z" fill="#1D1D1B"/>
<path d="M143.095 110.918H145.498C145.604 110.918 145.687 111.002 145.687 111.108V111.791C145.687 111.897 145.604 111.981 145.498 111.981H142.089C141.983 111.981 141.9 111.897 141.9 111.791V105.19C141.9 105.084 141.983 105.001 142.089 105.001H142.9C143.006 105.001 143.09 105.084 143.09 105.19V110.918H143.095Z" fill="#1D1D1B"/>
<path d="M150.833 110.261H148.36L147.738 111.804C147.689 111.91 147.592 111.985 147.473 111.985H146.6C146.503 111.985 146.446 111.888 146.481 111.804L149.449 105.022C149.484 104.961 149.532 104.925 149.603 104.925C149.665 104.925 149.722 104.961 149.757 105.022L152.725 111.804C152.76 111.888 152.703 111.985 152.606 111.985H151.72C151.601 111.985 151.504 111.915 151.455 111.804L150.833 110.261ZM148.761 109.256H150.423L149.599 107.196L148.761 109.256Z" fill="#1D1D1B"/>
<path d="M155.15 111.791C155.15 111.897 155.067 111.981 154.961 111.981H154.185C154.079 111.981 153.995 111.897 153.995 111.791V105.19C153.995 105.084 154.079 105.001 154.185 105.001H156.601C158.466 105.001 159.04 106.293 159.04 107.201C159.04 108.22 158.382 108.969 157.567 109.295L158.74 111.818C158.775 111.888 158.718 111.985 158.634 111.985H157.748C157.628 111.985 157.518 111.915 157.474 111.818L156.372 109.45H155.15V111.796V111.791ZM156.68 108.369C157.637 108.369 157.867 107.567 157.867 107.197C157.867 106.804 157.637 106.037 156.645 106.037H155.15V108.369H156.68Z" fill="#1D1D1B"/>
<path d="M146.446 15.0366C146.309 14.3134 145.612 13.8372 144.889 13.9739C139.108 15.0631 134.461 18.6833 130.977 23.1723C126.413 16.5932 120.2 11.2664 113.189 11.2664C107.752 11.2664 103.091 14.9969 99.4311 20.1605C95.3214 14.3884 90.5679 11.2664 85.7262 11.2664C78.715 11.2664 72.502 16.5932 67.9381 23.1723C64.4545 18.6833 59.8024 15.0631 54.0215 13.9739C53.3027 13.8372 52.6016 14.3134 52.4649 15.0366C52.3282 15.7598 52.8045 16.4565 53.5276 16.5932C58.8897 17.603 63.2022 21.1791 66.3947 25.5402C62.3776 32.1193 59.9832 39.4215 59.9832 43.7958C59.9832 45.2025 60.2258 46.3402 60.702 47.1736C61.3193 48.2539 62.3335 48.8492 63.555 48.8492C66.6461 48.8492 67.0562 45.6258 67.3251 43.496C67.4177 42.7684 67.5677 41.5999 67.797 41.1898C68.0527 41.6263 68.2644 42.8566 68.3923 43.6194C68.7671 45.8242 69.2786 48.8492 72.0654 48.8492C73.0047 48.8492 75.2271 48.4171 75.6019 44.4132C76.0076 40.0874 73.9836 32.2339 69.6269 25.5446C73.8072 19.2081 79.5088 13.9254 85.7218 13.9254C90.3871 13.9254 94.5498 17.5721 97.8525 22.5549C93.1343 30.3422 90.4621 40.2726 90.4621 45.9389C90.4621 47.6145 90.687 48.9683 91.1279 49.9516C91.9393 51.7639 93.3063 52.0329 94.0515 52.0329C97.3587 52.0329 97.8172 47.6233 98.2626 43.3549C98.4566 41.5073 98.8138 38.0854 99.44 37.6489C100.097 38.1295 100.45 41.5205 100.639 43.3549C101.085 47.6189 101.543 52.0329 104.85 52.0329C105.596 52.0329 106.963 51.7639 107.774 49.9516C108.215 48.9638 108.44 47.6145 108.44 45.9389C108.44 40.2549 105.913 31.5637 102.293 24.8038C101.878 24.0321 101.455 23.3045 101.023 22.5946C104.335 17.5942 108.502 13.9254 113.18 13.9254C119.398 13.9254 125.095 19.2081 129.275 25.5402C124.918 32.2295 122.894 40.083 123.3 44.4088C123.675 48.4127 125.897 48.8448 126.832 48.8448C129.619 48.8448 130.13 45.8242 130.505 43.615C130.638 42.8478 130.845 41.6219 131.101 41.1854C131.33 41.5955 131.48 42.764 131.572 43.4916C131.846 45.6214 132.251 48.8448 135.343 48.8448C136.568 48.8448 137.583 48.2495 138.2 47.1692C138.676 46.3313 138.919 45.1981 138.919 43.787C138.919 39.4171 136.529 32.1149 132.507 25.5314C135.695 21.1703 140.012 17.5942 145.37 16.5844C146.093 16.4477 146.569 15.751 146.433 15.0278L146.446 15.0366ZM72.9517 44.1662C72.8636 45.0967 72.5813 46.1814 72.0742 46.1814C71.5671 46.1814 71.2232 44.2985 71.0292 43.1741C70.672 41.0707 70.2266 38.4514 67.8278 38.4514C65.2879 38.4514 64.9396 41.1721 64.6882 43.1564C64.4281 45.2069 64.1944 46.1814 63.5638 46.1814C63.3301 46.1814 63.1846 46.1285 63.0258 45.8507C62.8891 45.6082 62.6598 45.0217 62.6598 43.7914C62.6598 40.1756 64.7059 33.9184 68.0792 28.0669C71.6156 33.9404 73.2913 40.546 72.9562 44.1618L72.9517 44.1662ZM105.777 45.9433C105.777 47.5616 105.543 48.4259 105.344 48.8668C105.119 49.3695 104.943 49.3695 104.859 49.3695C103.955 49.3695 103.497 44.9644 103.303 43.0859C102.888 39.0996 102.461 34.9767 99.4576 34.9767C96.4547 34.9767 96.0314 39.0996 95.6169 43.0859C95.4229 44.9644 94.9643 49.3695 94.0603 49.3695C93.9765 49.3695 93.8001 49.3695 93.5708 48.8668C93.3724 48.4259 93.1387 47.5616 93.1387 45.9433C93.1387 40.8899 95.511 32.2251 99.4576 25.1786C103.404 32.2207 105.777 40.8899 105.777 45.9433ZM136.26 43.7958C136.26 45.0261 136.03 45.6126 135.894 45.8551C135.735 46.1329 135.59 46.1858 135.356 46.1858C134.725 46.1858 134.492 45.2113 134.231 43.1609C133.98 41.1765 133.632 38.4558 131.092 38.4558C128.689 38.4558 128.243 41.0751 127.89 43.1785C127.701 44.3029 127.379 46.1858 126.85 46.1858C126.321 46.1858 126.06 45.1011 125.972 44.1706C125.633 40.5548 127.313 33.9448 130.849 28.0713C134.223 33.9228 136.269 40.18 136.269 43.7958H136.26Z" fill="#1D1D1B"/>
<path d="M99.4576 11.1827C102.54 11.1827 105.044 8.67363 105.044 5.59134C105.044 2.50905 102.535 0 99.4576 0C96.3797 0 93.8662 2.50905 93.8662 5.59134C93.8662 8.67363 96.3753 11.1827 99.4576 11.1827ZM99.4576 2.6722C101.067 2.6722 102.377 3.98184 102.377 5.59575C102.377 7.20965 101.067 8.51929 99.4576 8.51929C97.8481 8.51929 96.534 7.20965 96.534 5.59575C96.534 3.98184 97.8437 2.6722 99.4576 2.6722Z" fill="#1D1D1B"/>
<path d="M67.9424 14.9616C70.6058 14.9616 72.7709 12.7965 72.7709 10.1332C72.7709 7.46979 70.6058 5.30469 67.9424 5.30469C65.2791 5.30469 63.114 7.46979 63.114 10.1332C63.114 12.7965 65.2791 14.9616 67.9424 14.9616ZM67.9424 7.96807C69.133 7.96807 70.1031 8.93817 70.1031 10.1288C70.1031 11.3193 69.133 12.2894 67.9424 12.2894C66.7519 12.2894 65.7774 11.3193 65.7774 10.1288C65.7774 8.93817 66.7475 7.96807 67.9424 7.96807Z" fill="#1D1D1B"/>
<path d="M130.973 14.9616C133.636 14.9616 135.801 12.7965 135.801 10.1332C135.801 7.46979 133.636 5.30469 130.973 5.30469C128.309 5.30469 126.144 7.46979 126.144 10.1332C126.144 12.7965 128.309 14.9616 130.973 14.9616ZM130.973 7.96807C132.163 7.96807 133.133 8.93817 133.133 10.1288C133.133 11.3193 132.163 12.2894 130.973 12.2894C129.782 12.2894 128.812 11.3193 128.812 10.1288C128.812 8.93817 129.782 7.96807 130.973 7.96807Z" fill="#1D1D1B"/>
<path d="M11.6677 70.8707H11.5663C10.9269 69.442 9.57315 67.7575 6.87009 67.7575H3.5497L3.57615 75.9285H7.15231C7.96807 75.9285 8.88967 74.9319 9.14543 73.759H9.29976V78.4287H9.14543C8.88967 77.3307 8.02099 76.2857 7.15231 76.2857H3.57615V84.0465C3.57615 84.8138 3.90687 85.6031 4.54626 85.8588V86.0132H0V85.8588C0.639386 85.6031 0.970103 84.8138 0.970103 84.0465V69.3935C0.970103 68.6262 0.639386 67.8369 0 67.5812V67.4268H11.0548L11.6677 70.8751V70.8707Z" fill="#1D1D1B"/>
<path d="M23.0531 84.0421C23.0531 84.8094 23.3089 85.5987 23.9483 85.8545V86.0088H20.8087L20.6808 83.7114C19.6842 85.0387 18.1012 86.1896 16.3418 86.1896C13.4844 86.1896 12.1042 84.2494 12.1042 81.0568V76.1313C12.1042 74.9804 11.6721 74.4954 11.0062 73.9354V73.834C11.8485 73.5253 13.4579 72.9653 14.4766 72.6081H14.578V81.3655C14.578 83.9451 15.7509 85.1181 17.5147 85.1181C18.8949 85.1181 19.94 84.3287 20.5794 83.535V76.1313C20.5794 74.9804 20.1472 74.4954 19.4814 73.9354V73.834L22.9297 72.6081H23.0576V84.0465L23.0531 84.0421Z" fill="#1D1D1B"/>
<path d="M37.7855 84.0423C37.7855 84.8095 38.0677 85.5989 38.7026 85.8546V86.0089H34.4121V85.8546C35.0515 85.5989 35.3073 84.858 35.3073 84.0423V77.3044C35.3073 74.6234 34.0814 73.424 32.4719 73.424C30.8624 73.424 29.7645 74.0855 29.0016 75.082V84.0423C29.0016 84.8095 29.2574 85.5989 29.8968 85.8546V86.0089H25.6327V85.8546C26.2721 85.5989 26.5279 84.858 26.5279 84.0423V76.1271C26.5279 74.9762 26.0957 74.4911 25.4299 73.9311V73.8297C26.3735 73.4725 27.8022 72.961 28.7723 72.6038H28.9002V74.9277C29.8438 73.4725 31.6297 72.3481 33.6978 72.3481C37.1196 72.3481 37.781 75.3863 37.781 77.8645V84.0423H37.7855Z" fill="#1D1D1B"/>
<path d="M52.3636 66.2981V84.0422C52.3636 84.8095 52.6458 85.5988 53.2807 85.8546V86.0089H50.0618L49.9074 83.5307C48.9638 85.0608 47.3543 86.1853 45.3391 86.1853C42.4553 86.1853 40.1314 83.9408 40.1314 79.8046C40.1314 75.3377 43.0153 72.3745 46.1814 72.3745C47.5086 72.3745 48.9902 72.961 49.8854 73.984V69.8478C49.8854 68.6969 49.4532 68.2119 48.7874 67.6518V67.524C49.6296 67.2197 51.2656 66.6817 52.2577 66.2981H52.3591H52.3636ZM49.8854 83.3014V74.2397C49.1975 73.4989 47.9716 73.1682 46.9486 73.1682C44.4219 73.1682 42.7639 75.4921 42.7639 79.6018C42.7639 83.0986 44.2191 85.1182 46.3621 85.1182C47.8923 85.1182 49.1446 84.3773 49.8854 83.3058V83.3014Z" fill="#1D1D1B"/>
<path d="M67.2986 84.1966L67.3516 84.2716C66.8665 85.6253 66.1521 86.1853 64.9792 86.1853C63.8063 86.1853 62.8097 85.471 62.5539 83.7336V83.6586C61.3545 85.1667 59.7186 86.1853 57.7299 86.1853C55.7412 86.1853 54.5153 85.1138 54.5153 83.4293C54.5153 81.7449 55.7412 80.4926 58.7264 79.421L62.5319 78.0673V77.0443C62.5319 75.4083 61.919 73.4461 59.3394 73.4461C56.9891 73.4461 55.384 75.3863 55.384 77.0707H55.2561C55.2561 74.7734 56.9935 72.3481 60.1066 72.3481C63.577 72.3481 64.9572 74.5926 64.9572 77.7366V83.4293C64.9572 84.6817 65.3893 85.1138 66.0816 85.1138C66.5402 85.1138 66.9503 84.858 67.281 84.1966H67.3075H67.2986ZM62.5231 83.4558V78.2745L59.7936 79.399C57.3683 80.4441 56.7025 81.7493 56.7025 82.9752C56.7025 84.201 57.4918 85.1976 58.9249 85.1976C60.6358 85.1976 61.7823 84.3024 62.5231 83.4602V83.4558Z" fill="#1D1D1B"/>
<path d="M67.603 79.3196C67.603 75.3863 70.2091 72.3481 74.4467 72.3481C76.3119 72.3481 77.7406 73.1639 78.6093 73.8782L77.6921 76.1756H77.6171C77.3349 75.4612 76.3913 72.6788 74.3232 72.6788C71.6951 72.6788 70.2399 75.5362 70.2399 78.6273C70.2664 82.252 72.0523 84.7522 75.0905 84.7522C76.5456 84.7522 77.8729 84.3201 78.8165 83.0148L78.8915 83.1163C78.2257 84.7258 76.5192 86.1809 73.966 86.1809C70.2885 86.1809 67.6074 83.5264 67.6074 79.3152L67.603 79.3196Z" fill="#1D1D1B"/>
<path d="M80.1657 86.0089V85.8546C80.8051 85.5988 81.0609 84.8095 81.0609 84.0422V76.0785C81.0609 74.9276 80.6287 74.4426 79.9893 73.8826V73.7547C80.8051 73.4504 82.4146 72.9125 83.4376 72.5553H83.539V84.0422C83.539 84.8095 83.8213 85.5988 84.4562 85.8546V86.0089H80.1657ZM80.545 68.2427C80.545 67.374 81.2593 66.6332 82.1809 66.6332C83.0496 66.6332 83.7904 67.374 83.7904 68.2427C83.7904 69.1864 83.0496 69.9007 82.1809 69.9007C81.2637 69.9007 80.545 69.1864 80.545 68.2427Z" fill="#1D1D1B"/>
<path d="M85.9335 79.3196C85.9335 75.3377 88.7424 72.348 92.4949 72.348C96.2475 72.348 99.0299 75.1569 99.0299 79.2137C99.0299 83.2705 96.2475 86.1853 92.4949 86.1853C88.7424 86.1853 85.9335 83.4557 85.9335 79.3196ZM96.3753 79.2711C96.3753 75.0335 94.7658 72.6832 92.4949 72.6832C90.224 72.6832 88.5881 75.0335 88.5881 79.2711C88.5881 83.5087 90.1975 85.8854 92.4949 85.8854C94.7923 85.8854 96.4018 83.5616 96.3753 79.2711ZM91.6262 70.2579L93.0064 66.0468H95.9697V66.0997L91.7585 70.2623H91.6307L91.6262 70.2579Z" fill="#1D1D1B"/>
<path d="M112.841 84.0423C112.841 84.8095 113.123 85.5989 113.758 85.8546V86.0089H109.467V85.8546C110.107 85.5989 110.362 84.858 110.362 84.0423V77.3044C110.362 74.6234 109.137 73.424 107.527 73.424C105.918 73.424 104.82 74.0855 104.057 75.082V84.0423C104.057 84.8095 104.312 85.5989 104.952 85.8546V86.0089H100.688V85.8546C101.327 85.5989 101.583 84.858 101.583 84.0423V76.1271C101.583 74.9762 101.151 74.4911 100.485 73.9311V73.8297C101.429 73.4725 102.857 72.961 103.827 72.6038H103.955V74.9277C104.899 73.4725 106.685 72.3481 108.753 72.3481C112.175 72.3481 112.836 75.3863 112.836 77.8645V84.0423H112.841Z" fill="#1D1D1B"/>
<path d="M129.923 67.4225L130.611 71.5587H130.483C129.694 69.9227 128.005 67.859 125.862 67.859H124.535V83.8129C124.535 84.6551 124.967 85.5723 125.606 85.828V86.0088H119.605V85.828C120.244 85.5723 120.676 84.6551 120.676 83.8129V67.859H119.168C117.025 67.859 115.341 69.9271 114.574 71.5587H114.446L115.134 67.4225H129.914H129.923Z" fill="#1D1D1B"/>
<path d="M141.767 83.9936L141.842 84.095C141.128 85.5237 140.259 86.1896 138.804 86.1896C137.578 86.1896 136.304 85.5237 135.819 83.8657L135.792 83.8128C134.593 85.268 133.063 86.1852 131.171 86.1852C129.28 86.1852 127.93 85.0872 127.93 83.4027C127.93 81.7183 129.055 80.466 132.168 79.3415L135.744 78.0407V77.0706C135.744 75.3597 135.184 73.6223 132.732 73.6223C130.563 73.6223 128.953 75.4346 128.953 77.2205H128.799C128.799 74.6674 130.867 72.1407 134.108 72.1407C137.834 72.1407 139.444 74.5395 139.444 77.8334V83.0147C139.444 84.4434 139.929 84.827 140.515 84.827C140.925 84.827 141.384 84.6462 141.741 83.9848H141.767V83.9936ZM135.744 83.6364V78.2479L134.108 78.9888C131.784 80.0603 131.171 81.414 131.171 82.6663C131.171 83.7908 131.758 84.8888 133.085 84.8888C134.209 84.8888 135.1 84.3023 135.74 83.6364H135.744Z" fill="#1D1D1B"/>
<path d="M142.305 79.1917C142.305 75.2848 145.061 72.1452 149.735 72.1452C151.318 72.1452 152.901 72.7581 153.999 73.6753L152.928 76.4093H152.826C152.624 75.8713 151.728 72.4759 149.612 72.4759C147.495 72.4759 146.292 75.0555 146.318 78.1158C146.344 81.714 147.848 84.2936 150.838 84.2936C151.989 84.2936 153.316 83.9893 154.335 82.6576L154.436 82.7855C153.695 84.4964 151.984 86.1809 148.999 86.1809C145.246 86.1809 142.31 83.4734 142.31 79.1873L142.305 79.1917Z" fill="#1D1D1B"/>
<path d="M168.114 83.8128C168.114 84.655 168.37 85.5987 169.01 85.8544V86.0088H164.644L164.49 83.8393C163.493 85.193 161.963 86.1896 160.177 86.1896C157.086 86.1896 156.067 83.7908 156.067 80.8804V76.44C156.067 75.267 155.635 74.6541 154.842 74.0147V73.8869C155.838 73.5826 158.338 72.8153 159.719 72.3788H159.82V81.4934C159.82 83.8172 160.79 84.7609 162.117 84.7609C163.013 84.7609 163.775 84.3023 164.34 83.7158V76.44C164.34 75.267 163.908 74.6541 163.14 74.0147V73.8869L167.991 72.3788H168.119V83.8172L168.114 83.8128Z" fill="#1D1D1B"/>
<path d="M192.191 83.8128C192.191 84.655 192.446 85.5987 193.086 85.8544V86.0088H187.521V85.8544C188.16 85.5987 188.416 84.73 188.416 83.8128V76.9206C188.416 74.5483 187.419 73.5782 186.194 73.5782C185.122 73.5782 184.306 74.1382 183.667 74.8525V83.8128C183.667 84.655 183.923 85.5987 184.562 85.8544V86.0088H178.997V85.8544C179.637 85.5987 179.892 84.73 179.892 83.8128V76.9206C179.892 74.5483 178.896 73.5782 177.648 73.5782C176.603 73.5782 175.761 74.0368 175.148 74.7291V83.8172C175.148 84.6594 175.403 85.6031 176.043 85.8588V86.0132H170.478V85.8588C171.117 85.6031 171.373 84.7344 171.373 83.8172V76.44C171.373 75.267 170.963 74.6541 170.174 74.0147V73.8868L174.843 72.3788H174.971L175.024 74.5747C175.994 73.146 177.679 72.1495 179.645 72.1495C182.3 72.1495 183.297 73.8868 183.579 74.6277C184.549 73.2254 186.233 72.1495 188.174 72.1495C191.542 72.1495 192.208 75.1348 192.208 77.6879V83.8128H192.191Z" fill="#1D1D1B"/>
<path d="M194.435 86.0089V85.8546C195.074 85.5988 195.33 84.6552 195.33 83.813V76.3079C195.33 75.157 194.898 74.5484 194.104 73.9091V73.7812C195.101 73.4769 197.601 72.7097 198.981 72.2731H199.083V83.813C199.083 84.6552 199.365 85.5988 200 85.8546V86.0089H194.435ZM194.894 68.1149C194.894 66.889 195.917 65.8925 197.165 65.8925C198.413 65.8925 199.361 66.889 199.361 68.1149C199.361 69.3407 198.364 70.3858 197.165 70.3858C195.965 70.3858 194.894 69.3628 194.894 68.1149Z" fill="#1D1D1B"/>
</svg>
