<svg width="200" height="63" viewBox="0 0 200 63" fill="none" xmlns="http://www.w3.org/2000/svg">
<path d="M0.00708008 15.3774H8.2079C18.0733 15.3774 23.3898 20.6957 23.3898 29.4221C23.3898 38.1485 18.4374 43.7933 8.2079 43.7933H0.00708008V15.3774ZM8.41059 40.8713C16.0823 40.8713 19.8993 36.5288 19.8993 29.4239C19.8993 22.319 15.8401 18.3011 8.41059 18.3011H3.45817V40.8713H8.41059Z" fill="black"/>
<path d="M40.6812 15.3774H44.8211L55.5385 43.7933H51.804L49.2461 36.8122H36.2149L33.6983 43.7933H29.9225L40.6794 15.3774H40.6812ZM37.2301 34.0104H48.2309L42.7511 18.9092H42.6704L37.2301 34.0104Z" fill="black"/>
<path d="M64.263 15.3774H72.462C82.3274 15.3774 87.6439 20.6957 87.6439 29.4221C87.6439 38.1485 82.6915 43.7933 72.462 43.7933H64.263V15.3774ZM72.6647 40.8713C80.3364 40.8713 84.1534 36.5288 84.1534 29.4239C84.1534 22.319 80.0942 18.3011 72.6647 18.3011H67.7123V40.8713H72.6647Z" fill="black"/>
<path d="M110.291 14.8913C118.248 14.8913 124.499 20.615 124.499 29.3826C124.499 38.1503 118.329 44.2812 110.291 44.2812C102.254 44.2812 96.0833 38.5162 96.0833 29.3826C96.0833 20.2491 102.295 14.8913 110.291 14.8913ZM110.291 41.2767C116.259 41.2767 120.967 36.8122 120.967 29.3826C120.967 22.3603 116.259 17.894 110.291 17.894C104.324 17.894 99.6151 22.3585 99.6151 29.3826C99.6151 36.8122 104.284 41.2767 110.291 41.2767Z" fill="black"/>
<path d="M134.157 15.3774H146.051C153.276 15.3774 155.834 19.6392 155.834 23.8616C155.834 27.2714 153.966 30.6006 149.825 31.8597L155.873 43.7951H152.056L146.616 32.3476H137.604V43.7951H134.153V15.3774H134.157ZM145.97 29.5853C150.556 29.5853 152.343 26.7441 152.343 23.9011C152.343 21.058 150.598 18.2993 146.011 18.2993H137.608V29.5853H145.97Z" fill="black"/>
<path d="M165.939 15.3774H169.39V43.7933H165.939V15.3774Z" fill="black"/>
<path d="M180.633 38.5969C182.866 40.0588 185.993 41.1942 189.401 41.1942C193.907 41.1942 196.059 39.1637 196.059 36.3638C196.059 28.6508 179.415 33.6445 179.415 22.6832C179.415 18.3388 183.028 14.8895 189.159 14.8895C192.934 14.8895 196.059 15.8223 198.577 17.0402L197.238 19.8814C195.046 18.7855 192.326 17.9729 189.281 17.9729C185.343 17.9729 183.03 20.0016 183.03 22.6401C183.03 30.3943 199.632 25.2374 199.632 36.362C199.632 40.8265 196.303 44.2776 189.403 44.2776C185.222 44.2776 181.365 42.9377 178.929 41.3557L180.635 38.5951L180.633 38.5969Z" fill="black"/>
<path d="M134.148 2.25293H139.644V3.44754H135.498V5.66635H139.08V6.81432H135.498V10.1363H134.148V2.25293Z" fill="black"/>
<path d="M141.035 2.25293H142.399V7.17486C142.399 8.42507 143.199 9.1013 144.257 9.1013C145.315 9.1013 146.126 8.42507 146.126 7.17486V2.25293H147.477V7.17486C147.477 9.24838 146.092 10.2726 144.255 10.2726C142.418 10.2726 141.034 9.24838 141.034 7.17486V2.25293H141.035Z" fill="black"/>
<path d="M149.175 2.25293H150.47L154.4 7.96229V2.25293H155.695V10.1363H154.4L150.47 4.43766V10.1363H149.175V2.25293Z" fill="black"/>
<path d="M157.426 2.25293H159.859C162.63 2.25293 164.149 3.72915 164.149 6.18294C164.149 8.63673 162.73 10.1363 159.859 10.1363H157.426V2.25293ZM159.937 8.99906C161.817 8.99906 162.775 7.92821 162.775 6.18294C162.775 4.43766 161.762 3.39014 159.937 3.39014H158.766V8.99906H159.937Z" fill="black"/>
<path d="M167.57 2.25293H169.157L172.074 10.1363H170.621L170.024 8.43583H166.702L166.117 10.1363H164.653L167.57 2.25293ZM167.075 7.34347H169.643L168.37 3.67175H168.348L167.075 7.34347Z" fill="black"/>
<path d="M176.655 2.11658C177.679 2.11658 178.603 2.43227 179.403 3.0511L178.671 4.0197C178.063 3.54616 177.432 3.28787 176.678 3.28787C175.067 3.28787 173.986 4.41431 173.986 6.12551C173.986 7.8367 175.033 9.09947 176.678 9.09947C177.489 9.09947 178.176 8.8071 178.752 8.24388L179.586 9.12279C178.775 9.89947 177.796 10.2726 176.623 10.2726C174.235 10.2726 172.614 8.57212 172.614 6.1273C172.614 3.68248 174.28 2.11837 176.657 2.11837L176.655 2.11658Z" fill="black"/>
<path d="M180.897 2.25293H182.248V10.1363H180.897V2.25293Z" fill="black"/>
<path d="M187.675 2.11657C189.962 2.11657 191.697 3.704 191.697 6.14882C191.697 8.59364 189.962 10.2708 187.675 10.2708C185.388 10.2708 183.643 8.64925 183.643 6.14882C183.643 3.6484 185.388 2.11657 187.675 2.11657ZM187.675 9.09947C189.162 9.09947 190.321 7.99455 190.321 6.14882C190.321 4.3031 189.173 3.2771 187.675 3.2771C186.178 3.2771 185.028 4.36947 185.028 6.14882C185.028 7.92818 186.188 9.09947 187.675 9.09947ZM188.341 0L189.354 0.686989L188.014 1.63407H187.057L188.341 0Z" fill="black"/>
<path d="M193.1 2.25293H194.395L198.325 7.96229V2.25293H199.62V10.1363H198.325L194.395 4.43766V10.1363H193.1V2.25293Z" fill="black"/>
<path d="M0 55.5261H1.21613V61.5439H4.97395V62.6184H0V55.5261Z" fill="black"/>
<path d="M9.70394 55.5261H11.1335L13.7577 62.6184H12.4501L11.9138 61.0883H8.92547L8.39812 62.6184H7.08154L9.70573 55.5261H9.70394ZM9.2591 60.1072H11.5694L10.425 56.8032H10.4053L9.2609 60.1072H9.2591Z" fill="black"/>
<path d="M20.1953 55.5261H25.2195V56.6005H21.4007V58.5162H24.8249V59.5081H21.4007V61.5439H25.2697V62.6184H20.1935V55.5261H20.1953Z" fill="black"/>
<path d="M28.1073 55.5261H30.2957C32.7871 55.5261 34.1557 56.8534 34.1557 59.0615C34.1557 61.2695 32.8804 62.6184 30.2957 62.6184H28.1073V55.5261ZM30.3656 61.596C32.0571 61.596 32.9181 60.6327 32.9181 59.0633C32.9181 57.4938 32.0068 56.5503 30.3656 56.5503H29.3127V61.596H30.3656Z" fill="black"/>
<path d="M36.8374 55.5261H38.0643V59.9529C38.0643 61.0776 38.7836 61.6856 39.736 61.6856C40.6885 61.6856 41.4185 61.0776 41.4185 59.9529V55.5261H42.6347V59.9529C42.6347 61.8184 41.388 62.7386 39.7378 62.7386C38.0876 62.7386 36.841 61.8166 36.841 59.9529V55.5261H36.8374Z" fill="black"/>
<path d="M48.9413 55.404C49.8632 55.404 50.6937 55.6874 51.413 56.2452L50.7547 57.117C50.2076 56.6919 49.6408 56.4587 48.961 56.4587C47.5117 56.4587 46.5395 57.4721 46.5395 59.0129C46.5395 60.5537 47.4812 61.6873 48.961 61.6873C49.691 61.6873 50.3081 61.4237 50.8246 60.9178L51.5744 61.7089C50.8444 62.4066 49.9637 62.742 48.9108 62.742C46.7637 62.742 45.3036 61.212 45.3036 59.0147C45.3036 56.8174 46.8032 55.4076 48.9413 55.4076V55.404Z" fill="black"/>
<path d="M56.2954 55.5261H57.725L60.3492 62.6184H59.0416L58.5053 61.0883H55.517L54.9896 62.6184H53.673L56.2972 55.5261H56.2954ZM55.8488 60.1072H58.1591L57.0147 56.8032H56.995L55.8506 60.1072H55.8488Z" fill="black"/>
<path d="M65.9384 55.404C66.8604 55.404 67.6909 55.6874 68.4101 56.2452L67.7519 57.117C67.2048 56.6919 66.638 56.4587 65.9582 56.4587C64.5088 56.4587 63.5366 57.4721 63.5366 59.0129C63.5366 60.5537 64.4783 61.6873 65.9582 61.6873C66.6882 61.6873 67.3052 61.4237 67.8218 60.9178L68.5716 61.7089C67.8415 62.4066 66.9608 62.742 65.9079 62.742C63.7609 62.742 62.3008 61.212 62.3008 59.0147C62.3008 56.8174 63.8003 55.4076 65.9384 55.4076V55.404Z" fill="black"/>
<path d="M71.2245 55.5261H72.4407V62.6184H71.2245V55.5261Z" fill="black"/>
<path d="M78.7904 55.404C80.8477 55.404 82.4065 56.8318 82.4065 59.0309C82.4065 61.2299 80.8459 62.7384 78.7904 62.7384C76.7348 62.7384 75.1635 61.2802 75.1635 59.0309C75.1635 56.7815 76.733 55.404 78.7904 55.404ZM78.7904 61.6855C80.1285 61.6855 81.1706 60.6936 81.1706 59.0326C81.1706 57.3717 80.1374 56.4497 78.7904 56.4497C77.4433 56.4497 76.4101 57.4327 76.4101 59.0326C76.4101 60.6326 77.454 61.6855 78.7904 61.6855ZM79.3895 53.5009L80.3007 54.1179L79.0953 54.9699H78.2343L79.3895 53.5009Z" fill="black"/>
<path d="M85.14 55.5261H86.306L89.8413 60.6632V55.5261H91.0073V62.6184H89.8413L86.306 57.492V62.6184H85.14V55.5261Z" fill="black"/>
<path d="M97.974 55.5261H99.1902V58.4857H102.372V55.5261H103.578V62.6184H102.372V59.5493H99.1902V62.6184H97.974V55.5261Z" fill="black"/>
<path d="M108.69 55.5261H110.119L112.743 62.6184H111.436L110.899 61.0883H107.911L107.384 62.6184H106.067L108.691 55.5261H108.69ZM108.245 60.1072H110.555L109.411 56.8032H109.391L108.247 60.1072H108.245Z" fill="black"/>
<path d="M118.333 55.404C119.255 55.404 120.085 55.6874 120.804 56.2452L120.146 57.117C119.599 56.6919 119.032 56.4587 118.352 56.4587C116.903 56.4587 115.931 57.4721 115.931 59.0129C115.931 60.5537 116.872 61.6873 118.352 61.6873C119.082 61.6873 119.699 61.4237 120.216 60.9178L120.966 61.7089C120.236 62.4066 119.355 62.742 118.302 62.742C116.155 62.742 114.695 61.212 114.695 59.0147C114.695 56.8174 116.194 55.4076 118.333 55.4076V55.404Z" fill="black"/>
<path d="M123.619 55.5261H128.643V56.6005H124.824V58.5162H128.248V59.5081H124.824V61.5439H128.693V62.6184H123.617V55.5261H123.619Z" fill="black"/>
<path d="M135.47 55.5261H138.357C140.271 55.5261 140.951 56.622 140.951 57.7144C140.951 58.8068 140.262 59.9225 138.357 59.9225H136.686V62.6166H135.47V55.5243V55.5261ZM138.347 58.9305C139.33 58.9305 139.735 58.3637 139.735 57.7252C139.735 57.0866 139.33 56.5395 138.357 56.5395H136.686V58.9305H138.347Z" fill="black"/>
<path d="M143.703 55.5261H148.727V56.6005H144.908V58.5162H148.332V59.5081H144.908V61.5439H148.777V62.6184H143.701V55.5261H143.703Z" fill="black"/>
<path d="M151.615 55.5261H154.684C156.589 55.5261 157.267 56.622 157.267 57.7144C157.267 58.5664 156.811 59.3359 155.9 59.6893L157.319 62.6166H155.991L154.775 59.8812H152.831V62.6166H151.615V55.5243V55.5261ZM154.664 58.9305C155.627 58.9305 156.042 58.3727 156.042 57.7252C156.042 57.0776 155.627 56.5395 154.675 56.5395H152.831V58.9305H154.664Z" fill="black"/>
<path d="M160.356 61.0184C160.983 61.4041 161.713 61.666 162.494 61.666C163.426 61.666 163.891 61.2606 163.891 60.6938C163.891 59.092 159.9 60.1467 159.9 57.4418C159.9 56.3082 160.842 55.4059 162.433 55.4059C163.365 55.4059 164.185 55.6391 164.894 55.9835L164.438 56.9557C163.841 56.6615 163.172 56.4786 162.472 56.4786C161.651 56.4786 161.164 56.8947 161.164 57.4203C161.164 59.0113 165.155 57.9279 165.155 60.683C165.155 61.8489 164.275 62.7404 162.492 62.7404C161.448 62.7404 160.445 62.4068 159.767 61.9799L160.354 61.0167L160.356 61.0184Z" fill="black"/>
<path d="M171.154 55.404C173.211 55.404 174.77 56.8318 174.77 59.0309C174.77 61.2299 173.209 62.7385 171.154 62.7385C169.098 62.7385 167.527 61.2802 167.527 59.0309C167.527 56.7816 169.096 55.404 171.154 55.404ZM171.154 61.6855C172.492 61.6855 173.534 60.6936 173.534 59.0327C173.534 57.3717 172.501 56.4497 171.154 56.4497C169.807 56.4497 168.773 57.4327 168.773 59.0327C168.773 60.6326 169.817 61.6855 171.154 61.6855Z" fill="black"/>
<path d="M177.503 55.5261H178.669L182.205 60.6632V55.5261H183.371V62.6184H182.205L178.669 57.492V62.6184H177.503V55.5261Z" fill="black"/>
<path d="M188.483 55.5261H189.912L192.536 62.6184H191.229L190.692 61.0883H187.704L187.177 62.6184H185.86L188.484 55.5261H188.483ZM188.038 60.1072H190.348L189.204 56.8032H189.184L188.04 60.1072H188.038Z" fill="black"/>
<path d="M195.198 61.0184C195.826 61.4041 196.556 61.666 197.336 61.666C198.269 61.666 198.734 61.2606 198.734 60.6938C198.734 59.092 194.743 60.1467 194.743 57.4418C194.743 56.3082 195.684 55.4059 197.275 55.4059C198.208 55.4059 199.028 55.6391 199.738 55.9835L199.283 56.9557C198.685 56.6615 198.016 56.4786 197.317 56.4786C196.497 56.4786 196.009 56.8947 196.009 57.4203C196.009 59.0113 200 57.9279 200 60.683C200 61.8489 199.119 62.7404 197.336 62.7404C196.292 62.7404 195.29 62.4068 194.612 61.9799L195.2 61.0167L195.198 61.0184Z" fill="black"/>
<path d="M199.623 49.1996H0V50.0821H199.623V49.1996Z" fill="black"/>
<path d="M46.4373 2.24921H39.0257V10.1325H46.4373V2.24921Z" fill="black"/>
</svg>
