<svg width="226" height="63" viewBox="0 0 226 63" fill="none" xmlns="http://www.w3.org/2000/svg">
<path d="M201.034 39.893C201.034 39.893 188.123 61.3091 187.699 62.0952L194.28 62.076C194.28 62.076 203.583 46.3447 205.479 43.6892C210.578 35.7324 221.594 30.2682 222.739 33.0387C218.659 32.2334 217.649 38.2441 220.862 39.4712C225.933 41.4076 228.838 31.7828 221.911 31.4281C217.611 31.3131 209.125 38.1195 208.115 39.1356L212.512 31.5911L205.873 31.6103C197.32 46.0762 179.464 60.1012 171.498 60.3792C154.44 61.6159 174.894 31.1885 182.321 31.8212C184.082 31.9937 184.919 32.9044 184.755 35.3682C184.207 40.6695 176.327 49.3931 166.331 49.048L166.149 49.7383C176.337 50.7736 194.203 40.3723 188.613 32.636C183.803 27.8716 170.901 32.8853 162.647 43.8234L161.011 46.22C159.876 48.3674 154.161 58.2223 163.156 62.0377C166.957 63.2264 170.055 62.4595 173.845 61.1845C185.785 57.302 201.043 39.8738 201.043 39.8738L201.034 39.893Z" fill="#030402"/>
<path d="M160.636 47.6962C157.172 52.8154 148.215 60.1586 148.215 60.1586C143.549 63.4563 139.816 63.0249 138.421 62.4018C133.476 59.6409 137.555 53.1509 141.009 46.9005C140.422 47.9646 141.009 46.9005 141.009 46.9005C134.409 54.0904 128.598 58.3372 128.598 58.3372C121.469 64.415 109.578 63.5139 114.6 53.9082C115.87 51.4829 125.789 34.4573 125.789 34.4573L127.203 31.9265C117.38 44.1876 113.291 41.3691 113.291 41.3691C112.329 40.9186 111.973 40.2859 111.742 39.6723C111.319 37.8797 112.252 35.253 114.34 34.9366C115.062 34.8216 115.908 34.9366 116.87 35.4351C116.986 31.0254 108.26 32.1853 103.497 38.5028C101.294 40.7173 89.066 62.1909 89.066 62.1909L81.7541 62.2197L89.7875 49.3355C72.47 70.7037 63.0704 61.6541 64.5616 55.5954C59.7031 59.4109 55.9894 60.8968 54.2288 61.6253C52.1218 62.4306 49.6396 62.8811 47.8982 62.5648C43.1648 61.7499 40.7115 57.5607 42.2219 52.0197C42.2219 52.0197 32.5722 61.1268 21.0656 62.5552C-11.4433 65.0573 0.217185 32.8755 16.6015 16.3006C35.7086 -1.41519 50.6402 -2.13418 58.3754 2.78367C60.9442 4.31751 66.4569 3.05209 68.9391 1.988C64.8791 6.19645 61.2616 12.9837 61.2616 12.9837C60.8576 5.1707 55.9798 -1.52064 44.0114 1.6333C28.0119 5.86092 16.8805 24.1135 13.9269 28.4083C5.44132 44.6381 7.2308 54.2533 11.82 58.9219C16.1397 63.3221 29.3588 62.6415 42.2219 50.8693C45.2333 45.3955 48.7834 40.9665 52.5355 37.6688L55.3256 39.5094C52.2661 43.2193 48.437 49.4218 47.523 53.6398C46.4744 58.4522 48.6391 63.696 58.183 58.9028C58.183 58.9028 60.5208 57.6086 62.4065 55.9885C68.3522 50.9077 71.8831 44.7819 74.0093 40.305C77.2996 33.3645 72.4411 28.5041 64.5231 32.3771C60.617 34.2848 57.6442 36.7964 54.7676 40.0654L52.5355 37.6688C57.8559 32.981 63.282 30.1818 68.6505 30.2393C69.7184 30.2489 70.4881 30.316 71.556 30.546C77.6749 31.7635 75.539 39.2889 75.8084 37.8413C75.8565 37.5633 78.281 33.0289 79.2238 31.6389L85.487 31.6197L72.8452 52.9112C70.5843 56.5733 70.719 59.2862 72.874 60.2257C80.8497 62.2197 95.512 41.4458 101.015 31.6964L107.317 31.6772L104.546 36.2212C109.722 31.6677 114.215 32.3387 114.215 32.3387C114.215 32.3387 117.38 32.6071 117.957 35.4447C117.957 35.4447 118.467 37.8988 117.072 39.749C124.894 36.4321 132.658 23.3083 135.987 17.7002L142.25 17.681L134.765 30.7569H141.827L140.923 31.6964L134.015 31.7156L121.623 52.7962C116.716 59.8135 122.229 62.1238 129.291 56.7362C141.788 47.9263 149.456 33.863 151.034 31.7156H156.778L144.088 53.659C140.836 59.0849 144.309 63.4947 152.006 55.9597C152.006 55.9597 160.645 47.8592 162.214 44.3889" fill="#030402"/>
<path d="M158.269 24.8805C159.821 24.8805 161.078 23.6273 161.078 22.0813C161.078 20.5353 159.821 19.282 158.269 19.282C156.717 19.282 155.46 20.5353 155.46 22.0813C155.46 23.6273 156.717 24.8805 158.269 24.8805Z" fill="#030402"/>
</svg>
