<svg width="300" height="150" viewBox="0 0 300 150" fill="none" xmlns="http://www.w3.org/2000/svg">
<path d="M212.236 74.8508C212.236 74.8508 203.051 90.1409 202.75 90.7021L207.432 90.6884C207.432 90.6884 214.05 79.457 215.398 77.5611C219.026 71.8804 226.862 67.9792 227.677 69.9572C224.775 69.3823 224.056 73.6736 226.342 74.5497C229.949 75.9322 232.016 69.0606 227.088 68.8073C224.029 68.7252 217.992 73.5846 217.274 74.3101L220.401 68.9237L215.679 68.9374C209.594 79.2654 196.891 89.2785 191.224 89.477C179.09 90.3599 193.64 68.6362 198.924 69.088C200.177 69.2111 200.772 69.8614 200.656 71.6203C200.266 75.4052 194.66 81.6335 187.549 81.3871L187.419 81.8799C194.667 82.619 207.377 75.193 203.4 69.6697C199.978 66.2681 190.8 69.8477 184.928 77.657L183.764 79.368C182.957 80.9011 178.891 87.937 185.29 90.661C187.994 91.5097 190.198 90.9622 192.894 90.0519C201.388 87.2868 212.236 74.8508 212.236 74.8508Z" fill="#010202"/>
<path d="M183.497 80.422C181.033 84.0768 174.661 89.3195 174.661 89.3195C171.342 91.6739 168.679 91.3659 167.694 90.9211C164.176 88.9499 167.078 84.3164 169.535 79.8539C169.117 80.6136 169.535 79.8539 169.535 79.8539C164.84 84.9871 160.706 88.0191 160.706 88.0191C155.634 92.3584 147.175 91.715 150.748 84.8571C151.651 83.1255 158.707 70.9701 158.707 70.9701L159.714 69.1632C152.726 77.917 149.817 75.9048 149.817 75.9048C149.132 75.5831 148.879 75.1314 148.715 74.6933C148.414 73.4135 149.078 71.5381 150.563 71.3123C151.076 71.2301 151.678 71.3191 152.363 71.6682C152.445 68.5198 146.237 69.348 142.849 73.8583C141.282 75.4394 132.583 90.7705 132.583 90.7705L127.381 90.791L133.096 81.5924C120.777 96.8482 114.09 90.3872 115.151 86.0616C111.694 88.7857 109.052 89.8465 107.8 90.3667C106.301 90.9416 104.535 91.2633 103.296 91.0374C99.9289 90.4557 98.1837 87.4647 99.2582 83.5087C99.2582 83.5087 92.3934 90.0108 84.2077 91.0306C61.081 92.8238 69.3762 69.8408 81.032 58.0071C94.6246 45.3589 105.247 44.8456 110.75 48.3567C112.577 49.4517 116.499 48.5483 118.265 47.7886C115.376 50.7932 112.803 55.6389 112.803 55.6389C112.509 50.0609 109.039 45.2904 100.524 47.5422C89.1492 50.5537 81.2304 63.5851 79.1293 66.6513C73.0926 78.2387 74.3657 85.1103 77.6304 88.4434C80.7034 91.585 90.1074 91.099 99.2582 82.6943C101.4 78.7862 103.926 75.6242 106.595 73.2697L108.58 74.5838C106.404 77.2326 103.68 81.6608 103.029 84.6723C102.283 88.1081 103.823 91.8519 110.613 88.4298C110.613 88.4298 112.276 87.5058 113.617 86.3491C117.847 82.7148 120.359 78.3482 121.872 75.1519C124.212 70.1967 120.756 66.7266 115.123 69.4917C112.344 70.8537 110.23 72.6469 108.183 74.9808L106.595 73.2697C110.38 69.9229 114.24 67.9244 118.059 67.9654C118.819 67.9723 119.367 68.0202 120.126 68.1845C124.479 69.0537 122.96 74.4264 123.151 73.3929C123.186 73.1945 124.91 69.9571 125.581 68.9647L130.037 68.951L121.043 84.1521C119.435 86.7666 119.531 88.7035 121.064 89.3743C126.738 90.7979 137.169 75.9664 141.083 69.0058L145.566 68.9921L143.595 72.2363C147.277 68.9852 150.474 69.4643 150.474 69.4643C150.474 69.4643 152.726 69.656 153.136 71.6819C153.136 71.6819 153.499 73.434 152.506 74.7549C158.071 72.3868 163.594 63.017 165.962 59.0132L170.418 58.9995L165.093 68.335H170.117L169.473 69.0058L164.559 69.0195L155.744 84.07C152.253 89.08 156.175 90.7294 161.199 86.883C170.089 80.5931 175.544 70.5526 176.667 69.0195H180.753L171.725 84.686C169.405 88.5598 171.883 91.7082 177.358 86.3286C177.358 86.3286 183.504 80.5452 184.62 78.0676" fill="#010202"/>
<path d="M181.814 64.1327C182.917 64.1327 183.812 63.2379 183.812 62.1341C183.812 61.0304 182.917 60.1356 181.814 60.1356C180.71 60.1356 179.815 61.0304 179.815 62.1341C179.815 63.2379 180.71 64.1327 181.814 64.1327Z" fill="#010202"/>
</svg>
