<svg width="300" height="150" viewBox="0 0 300 150" fill="none" xmlns="http://www.w3.org/2000/svg">
<path d="M198.647 79.1871C198.647 79.1871 191.462 91.1474 191.227 91.5864L194.889 91.5757C194.889 91.5757 200.066 82.7902 201.12 81.3072C203.958 76.8635 210.088 73.8119 210.725 75.3591C208.455 74.9094 207.893 78.2662 209.681 78.9515C212.503 80.033 214.119 74.6578 210.265 74.4597C207.872 74.3955 203.149 78.1966 202.587 78.7641L205.034 74.5507L201.34 74.5614C196.58 82.6403 186.644 90.4728 182.211 90.6281C172.719 91.3187 184.101 74.3259 188.234 74.6792C189.214 74.7756 189.679 75.2842 189.588 76.6601C189.283 79.6207 184.898 84.4927 179.336 84.2999L179.234 84.6854C184.904 85.2636 194.846 79.4548 191.735 75.1343C189.058 72.4735 181.879 75.2735 177.285 81.3821L176.375 82.7206C175.744 83.9198 172.563 89.4235 177.569 91.5543C179.684 92.2182 181.408 91.7899 183.517 91.0778C190.161 88.9149 198.647 79.1871 198.647 79.1871Z" fill="#010202"/>
<path d="M176.166 83.5451C174.239 86.404 169.255 90.505 169.255 90.505C166.658 92.3467 164.576 92.1058 163.805 91.7578C161.053 90.2159 163.323 86.5914 165.245 83.1007C164.918 83.695 165.245 83.1007 165.245 83.1007C161.572 87.116 158.338 89.4878 158.338 89.4878C154.371 92.8821 147.754 92.3788 150.549 87.0143C151.255 85.6598 156.775 76.1515 156.775 76.1515L157.562 74.7381C152.096 81.5856 149.821 80.0116 149.821 80.0116C149.285 79.76 149.087 79.4066 148.959 79.064C148.723 78.0628 149.242 76.5959 150.404 76.4192C150.806 76.355 151.277 76.4246 151.812 76.6976C151.876 74.2349 147.021 74.8827 144.37 78.4108C143.144 79.6475 136.34 91.64 136.34 91.64L132.271 91.656L136.741 84.4606C127.104 96.3941 121.874 91.3402 122.704 87.9566C120 90.0874 117.933 90.9172 116.954 91.3241C115.781 91.7738 114.4 92.0255 113.431 91.8488C110.797 91.3937 109.432 89.0541 110.272 85.9596C110.272 85.9596 104.902 91.0457 98.4992 91.8434C80.4088 93.2461 86.8976 75.2681 96.0151 66.0115C106.648 56.1177 114.957 55.7162 119.261 58.4626C120.691 59.3192 123.758 58.6125 125.14 58.0183C122.88 60.3686 120.867 64.1591 120.867 64.1591C120.637 59.7957 117.923 56.0642 111.263 57.8255C102.365 60.1812 96.1704 70.3748 94.5267 72.7733C89.8047 81.8372 90.8005 87.2124 93.3543 89.8197C95.7581 92.2771 103.114 91.897 110.272 85.3225C111.948 82.2655 113.923 79.7921 116.011 77.9504L117.564 78.9783C115.862 81.0502 113.731 84.5141 113.222 86.8698C112.639 89.5574 113.843 92.4859 119.154 89.809C119.154 89.809 120.455 89.0862 121.504 88.1814C124.813 85.3386 126.778 81.9229 127.961 79.4227C129.792 75.5465 127.088 72.8322 122.682 74.9951C120.509 76.0605 118.854 77.4632 117.254 79.2888L116.011 77.9504C118.972 75.3324 121.992 73.7691 124.979 73.8012C125.573 73.8066 126.002 73.844 126.596 73.9725C130.001 74.6525 128.812 78.8552 128.962 78.0467C128.989 77.8915 130.338 75.3592 130.863 74.5829L134.348 74.5721L127.313 86.4629C126.055 88.508 126.13 90.0231 127.329 90.5478C131.768 91.6614 139.927 80.0598 142.989 74.615L146.496 74.6043L144.954 77.142C147.834 74.5989 150.334 74.9737 150.334 74.9737C150.334 74.9737 152.096 75.1236 152.417 76.7083C152.417 76.7083 152.701 78.0789 151.925 79.1121C156.277 77.2597 160.598 69.9304 162.45 66.7985L165.935 66.7878L161.77 74.0903H165.7L165.197 74.615L161.353 74.6257L154.457 86.3986C151.726 90.3176 154.794 91.6079 158.724 88.599C165.678 83.6789 169.945 75.8249 170.823 74.6257H174.02L166.958 86.8805C165.143 89.9107 167.081 92.3734 171.364 88.1654C171.364 88.1654 176.172 83.6414 177.044 81.7034" fill="#010202"/>
<path d="M174.849 70.8031C175.713 70.8031 176.413 70.1032 176.413 69.2398C176.413 68.3764 175.713 67.6765 174.849 67.6765C173.986 67.6765 173.286 68.3764 173.286 69.2398C173.286 70.1032 173.986 70.8031 174.849 70.8031Z" fill="#010202"/>
</svg>
