<svg width="300" height="150" viewBox="0 0 300 150" fill="none" xmlns="http://www.w3.org/2000/svg">
<path d="M130.549 48.1047L128.773 44.6125L126.072 42.7387L121.813 42.6414L119.696 45.0992L118.929 48.1047L120.122 51.8402L122.665 54.1764L124.441 55.6487L130.269 58.4108L131.06 53.3855L130.549 48.1047ZM130.026 57.7051L127.787 53.6654L126.899 56.4883L126.656 56.3301L127.447 53.5437L122.908 52.3512L123.151 54.1277L122.871 53.9452L122.652 52.1931L120.109 50.9885L120.036 50.7694L122.64 51.8889L122.105 48.6644L119.963 50.6113L119.927 50.3801L122.044 48.3602L121.557 45.3548L120.243 44.9532L120.426 44.7342L121.533 45.0384L121.314 43.8095L121.496 43.5661L121.74 45.0992L123.942 45.7441L122.068 42.8969L125.743 44.5882L124.721 42.9942H125.062L125.962 44.357L126.838 43.5783L127.057 43.7365L126.072 44.6004L127.301 46.7419L129.941 47.5328L130.099 47.9343L129.247 49.6257L130.805 52.1687L130.866 52.7163L129.174 50.015L128.006 53.568L130.61 54.4563L130.026 57.7051Z" fill="#010202"/>
<path d="M121.837 45.3792L124.076 46.0605L122.239 48.0804L121.837 45.3792Z" fill="#010202"/>
<path d="M122.953 44.2609L120.497 46.7432L122.979 49.1995L125.436 46.7173L122.953 44.2609Z" fill="#010202"/>
<path d="M124.721 45.8658L127.045 46.608L125.889 44.8315L124.721 45.8658Z" fill="#010202"/>
<path d="M125.872 43.6599L123.826 45.7269L125.893 47.7725L127.939 45.7054L125.872 43.6599Z" fill="#010202"/>
<path d="M124.441 46.1458L127.361 46.9732L128.955 49.7961L127.544 53.2882L124.441 46.1458Z" fill="#010202"/>
<path d="M126.676 43.8839L120.873 49.7478L126.72 55.5336L132.522 49.6696L126.676 43.8839Z" fill="#010202"/>
<path d="M117.068 59.7858L116.557 57.9728L114.415 54.1765L111.884 52.7285L109.487 52.8259L107.504 54.0305L106.749 57.1941L107.796 59.4816L110.144 61.319L113.478 62.4262L117.664 62.6696L117.068 59.7858ZM114.415 60.163L111.836 60.5767L113.162 62.0734L112.797 61.9517L111.422 60.5646L109.804 60.7714L109.657 60.6254L109.536 58.7272L108.197 57.4618L107.394 58.0093L107.37 57.8025L108.088 57.2914L107.248 56.4762L107.285 56.2693L108.124 57.0481L107.638 54.8214L109.329 56.026L109.244 54.3347L108.222 53.921L108.368 53.7993L109.244 54.14L109.305 53.2882L109.511 53.1666L109.414 54.213L111.519 55.0161L113.271 53.848L113.442 54.0061L111.726 55.1256L114.111 56.1477L113.576 54.0183L114.281 54.3103L115.717 56.8899L114.342 56.2937L114.646 59.8102L115.851 57.1698L115.973 57.3766L115.668 58.3987L116.69 59.8345L114.707 60.1144L117.165 62.3776L114.671 62.1951L114.415 60.163Z" fill="#010202"/>
<path d="M109.584 56.2693L111.361 55.1498L109.438 54.4076L109.584 56.2693Z" fill="#010202"/>
<path d="M110.391 53.4541L108.509 55.3568L110.411 57.2398L112.294 55.337L110.391 53.4541Z" fill="#010202"/>
<path d="M108.356 57.2915C108.21 57.3158 109.56 58.4596 109.56 58.4596L109.439 56.5614L108.356 57.2915Z" fill="#010202"/>
<path d="M108.891 55.8848L107.273 57.5194L108.908 59.137L110.526 57.5024L108.891 55.8848Z" fill="#010202"/>
<path d="M109.645 56.4397L109.73 58.6907L111.628 60.3821L114.427 60.017L109.645 56.4397Z" fill="#010202"/>
<path d="M112.01 54.0463L107.671 58.4313L112.056 62.7706L116.395 58.3856L112.01 54.0463Z" fill="#010202"/>
<path d="M105.034 64.2878L103.452 61.8299L101.505 60.2846L99.5095 59.9318L96.9908 61.0634L96.3945 62.8277L96.6987 64.7745L98.4266 66.551L101.943 67.5975H105.971L105.034 64.2878ZM103.306 67.3176L103.221 65.6141L100.167 65.9061L100.775 66.9647L100.495 66.8674L99.9962 65.9305L98.3657 66.0157L98.171 65.8575L99.8989 65.7358L98.7186 64.2148L98.025 65.6871L97.8668 65.5533L98.5847 64.0931L97.514 62.5843L96.7474 62.7182L96.8204 62.487L97.4045 62.414L97.0516 61.8664L97.1124 61.6109L97.6113 62.3775L99.0106 62.1341L97.2463 61.185L99.692 61.0877L98.8403 60.5523L99.0106 60.4671L99.8258 60.9295L100.057 60.3211L100.24 60.3455L100.008 61.0147L101.249 61.8299L102.819 61.5988L103.026 61.7326L103.135 62.998L104.486 63.8133L104.705 64.154L103.233 63.3266L103.342 65.4559L105.034 65.3221L105.155 66.9282L103.391 65.6385L103.525 67.3054L103.306 67.3176Z" fill="#010202"/>
<path d="M100.106 65.7236L103.148 65.4803L99.181 64.6285L100.106 65.7236Z" fill="#010202"/>
<path d="M101.151 62.6498L98.6433 65.184L101.195 67.7088L103.702 65.1747L101.151 62.6498Z" fill="#010202"/>
<path d="M97.6965 62.5236L98.6578 63.9107L99.3027 62.2559L97.6965 62.5236Z" fill="#010202"/>
<path d="M98.4903 61.45L96.8641 63.0933L98.5074 64.7194L100.134 63.0762L98.4903 61.45Z" fill="#010202"/>
<path d="M99.5096 62.122L100.994 61.8908L99.9477 61.1851L99.5096 62.122Z" fill="#010202"/>
<path d="M100.242 60.4416L99.035 61.6611L100.255 62.8679L101.461 61.6484L100.242 60.4416Z" fill="#010202"/>
<path d="M99.5704 62.2679L100.69 64.884L103.099 63.2535L99.5704 62.2679Z" fill="#010202"/>
<path d="M101.323 60.4999L98.2676 63.5875L101.355 66.643L104.411 63.5554L101.323 60.4999Z" fill="#010202"/>
<path d="M101.468 61.9638L102.941 62.852L102.843 61.8177L101.468 61.9638Z" fill="#010202"/>
<path d="M102.189 61.0771L100.94 62.3398L102.202 63.5894L103.452 62.3267L102.189 61.0771Z" fill="#010202"/>
<path d="M169.511 53.3977L170.314 58.423L176.142 55.6609L177.919 54.1886L180.462 51.8645L181.654 48.129L180.888 45.1236L178.77 42.6779L174.512 42.763L171.81 44.6369L170.034 48.129L169.511 53.3977ZM169.973 54.4684L172.577 53.5802L171.409 50.0272L169.73 52.7284L169.791 52.1809L171.348 49.6378L170.496 47.9587L170.655 47.5571L173.295 46.7662L174.524 44.6247L173.538 43.7608L173.757 43.6026L174.633 44.3813L175.534 43.0186H175.874L174.852 44.6125L178.527 42.9334L176.641 45.7806L178.843 45.1357L179.087 43.6026L179.269 43.846L179.05 45.0749L180.158 44.7707L180.34 44.9897L179.014 45.3669L178.527 48.3724L180.644 50.3922L180.608 50.6234L178.466 48.6766L177.931 51.901L180.535 50.7816L180.462 51.0006L177.919 52.2174L177.7 53.9696L177.42 54.1521L177.663 52.3756L173.125 53.568L173.928 56.3544L173.684 56.5126L172.796 53.6897L170.557 57.7416L169.973 54.4684Z" fill="#010202"/>
<path d="M178.746 45.4034L176.507 46.0727L178.345 48.0925L178.746 45.4034Z" fill="#010202"/>
<path d="M177.607 44.2801L175.151 46.7623L177.633 49.2187L180.089 46.7365L177.607 44.2801Z" fill="#010202"/>
<path d="M173.526 46.6323L175.862 45.8901L174.694 44.8436L173.526 46.6323Z" fill="#010202"/>
<path d="M174.688 43.6766L172.642 45.7437L174.709 47.7892L176.755 45.7221L174.688 43.6766Z" fill="#010202"/>
<path d="M176.13 46.1699L173.222 46.9973L171.628 49.8203L173.039 53.3124L176.13 46.1699Z" fill="#010202"/>
<path d="M173.856 43.9138L168.053 49.7777L173.9 55.5635L179.703 49.6995L173.856 43.9138Z" fill="#010202"/>
<path d="M182.92 62.6939L187.105 62.4505L190.439 61.3433L192.788 59.5059L193.834 57.2184L193.08 54.0548L191.096 52.8501L188.711 52.7528L186.181 54.2008L184.039 57.9971L183.528 59.8223L182.92 62.6939ZM185.901 62.2193L183.406 62.4019L185.864 60.1387L183.881 59.8466L184.903 58.423L184.599 57.4009L184.72 57.194L185.925 59.8345L186.229 56.318L184.866 56.902L186.302 54.3225L186.996 54.0426L186.46 56.172L188.857 55.1499L187.142 54.0304L187.312 53.8722L189.064 55.0404L191.169 54.2494L191.072 53.203L191.279 53.3247L191.34 54.1886L192.216 53.8357L192.362 53.9574L191.34 54.3711L191.254 56.0624L192.946 54.8578L192.459 57.0845L193.299 56.3058L193.335 56.5127L192.496 57.3279L193.214 57.8389L193.189 58.0458L192.398 57.4982L191.048 58.7515L190.926 60.6497L190.78 60.7957L189.162 60.5889L187.787 61.976L187.422 62.0977L188.748 60.601L186.168 60.1873L185.901 62.2193Z" fill="#010202"/>
<path d="M189.211 55.1742L190.999 56.2937L191.133 54.432L189.211 55.1742Z" fill="#010202"/>
<path d="M190.176 53.4697L188.293 55.3724L190.195 57.2554L192.078 55.3526L190.176 53.4697Z" fill="#010202"/>
<path d="M190.938 56.464L190.853 58.7029L188.955 60.4064L186.156 60.0292L190.938 56.464Z" fill="#010202"/>
<path d="M188.522 54.0638L184.183 58.4487L188.568 62.7881L192.907 58.4031L188.522 54.0638Z" fill="#010202"/>
<path d="M194.589 67.6097H198.616L202.133 66.5632L203.86 64.7867L204.165 62.8399L203.568 61.0756L201.05 59.944L199.054 60.2968L197.107 61.8421L195.525 64.3L194.589 67.6097ZM197.059 67.3176L197.192 65.6507L195.428 66.9404L195.55 65.3343L197.241 65.4681L197.351 63.3388L195.878 64.1662L196.097 63.8255L197.448 63.0103L197.557 61.7448L197.764 61.611L199.334 61.8421L200.575 61.0269L200.344 60.3577L200.526 60.3333L200.758 60.9417L201.573 60.4794L201.743 60.5767L200.879 61.1121L203.337 61.1973L201.573 62.1463L202.972 62.3897L203.483 61.6231L203.544 61.8786L203.191 62.4262L203.775 62.4992L203.848 62.7304L203.082 62.5965L202.011 64.1054L202.729 65.5655L202.571 65.6993L201.877 64.227L200.697 65.748L202.425 65.8697L202.23 66.0279L200.599 65.9427L200.101 66.8796L199.821 66.977L200.429 65.9184L197.375 65.6263L197.278 67.3298L197.059 67.3176Z" fill="#010202"/>
<path d="M197.424 65.4924L200.478 65.7479L201.403 64.6528L197.424 65.4924Z" fill="#010202"/>
<path d="M199.388 62.6653L196.881 65.1995L199.432 67.7243L201.94 65.1902L199.388 62.6653Z" fill="#010202"/>
<path d="M201.913 63.9348L202.887 62.5356L201.268 62.28L201.913 63.9348Z" fill="#010202"/>
<path d="M202.076 61.4689L200.45 63.1122L202.093 64.7384L203.719 63.0951L202.076 61.4689Z" fill="#010202"/>
<path d="M199.59 61.9151L201.074 62.1341L200.636 61.2094L199.59 61.9151Z" fill="#010202"/>
<path d="M200.334 60.4587L199.128 61.6782L200.347 62.885L201.554 61.6655L200.334 60.4587Z" fill="#010202"/>
<path d="M201.013 62.2925L199.894 64.8964L197.484 63.2781L201.013 62.2925Z" fill="#010202"/>
<path d="M199.24 60.522L196.184 63.6096L199.272 66.6651L202.327 63.5775L199.24 60.522Z" fill="#010202"/>
<path d="M197.643 62.8764L199.115 61.9881L197.728 61.83L197.643 62.8764Z" fill="#010202"/>
<path d="M198.368 61.1018L197.118 62.3645L198.381 63.6141L199.631 62.3514L198.368 61.1018Z" fill="#010202"/>
<path d="M151.94 35C151.174 35 150.407 35.0487 149.641 35.0973C148.984 35.146 148.327 35.2069 147.682 35.3407C145.808 35.7057 144.019 36.3263 142.389 37.3362C141.172 38.0906 140.186 39.0762 139.517 40.3538C138.617 42.0817 138.495 43.9433 138.799 45.8293C139.103 47.6667 140.089 49.1633 141.525 50.3071C143.034 51.5117 144.798 52.2296 146.66 52.6798C147.499 52.8745 148.351 52.9962 149.203 53.1057C149.957 53.203 150.724 53.3125 151.478 53.3003C152.269 53.3003 153.084 53.2517 153.851 53.0813C155.7 52.692 157.538 52.2174 159.338 51.7915C159.886 49.8934 160.409 48.1047 160.932 46.3039C160.908 46.2917 160.872 46.2795 160.847 46.2674C160.604 46.7297 160.373 47.2043 160.105 47.6545C159.192 49.139 157.951 50.2827 156.418 51.0858C154.934 51.8524 153.315 52.1566 151.673 52.2296C151.016 52.2539 150.359 52.1444 149.714 52.0349C147.463 51.6577 145.808 50.4288 144.761 48.4089C144.287 47.4963 143.995 46.5351 143.8 45.5251C143.63 44.6369 143.605 43.773 143.751 42.8969C143.946 41.7166 144.336 40.585 144.932 39.5386C145.711 38.188 146.806 37.1659 148.266 36.6061C150.188 35.8517 152.172 35.9248 154.155 36.3385C155.189 36.5575 156.163 36.959 157.063 37.5309C158.268 38.2975 159.29 39.2344 160.02 40.4633C160.324 40.9744 160.592 41.5098 160.932 42.1303C160.908 41.9356 160.92 41.8383 160.884 41.7531C160.421 40.0983 159.947 38.4435 159.46 36.7887C159.424 36.6548 159.253 36.5088 159.107 36.4723C157.866 36.1194 156.625 35.7544 155.372 35.4502C154.252 35.1825 153.109 35 151.94 35Z" fill="#010202"/>
<path d="M107.406 74.5818C107.406 74.5818 131.474 70.0067 150.93 70.0067C170.886 70.0067 194.515 74.5818 194.515 74.5818L151.064 64.446L107.406 74.5818Z" fill="#010202"/>
<path d="M65.61 94.902C65.61 102.166 74.4803 103.407 77.6926 103.407C80.9049 103.407 83.4723 102.458 84.6526 102.166C85.845 101.874 86.0275 103.638 86.0275 103.638L87.1591 96.2526C87.1591 96.2526 84.8959 102.507 77.7534 102.507C70.6109 102.507 70.2581 95.486 70.2581 94.8898C70.2581 94.2936 70.5623 87.0294 77.7048 87.0294C84.8473 87.0294 86.9401 93.5879 86.9401 93.5879L86.1614 86.5914C85.6868 88.1002 84.251 87.4431 84.251 87.4431C84.251 87.4431 80.9779 86.202 77.7048 86.202C74.4316 86.202 65.61 87.6257 65.61 94.902Z" fill="#010202"/>
<path d="M105.265 86.5914C107.345 86.5914 107.589 88.8668 107.589 88.8668V94.0624H96.4553V88.5747C96.4553 87.1511 98.8402 86.5914 98.8402 86.5914H89.8482C92.0506 86.5914 92.1114 88.7451 92.1114 88.7451V101.083C92.1114 102.677 89.7874 102.969 89.7874 102.969H98.6577C96.5161 102.969 96.3945 100.962 96.3945 100.962V94.8777H107.528V101.083C107.528 102.324 105.265 102.969 105.265 102.969H114.135C112.115 102.969 111.872 101.022 111.872 101.022V88.8546C111.872 87.431 114.135 86.5792 114.135 86.5792H105.265V86.5914Z" fill="#010202"/>
<path d="M125.573 89.0493L129.503 96.9584H121.703L125.573 89.0493ZM125.573 86.5914C125.573 86.5914 119.854 98.1387 118.661 100.329C117.469 102.507 115.145 102.981 115.145 102.981H122.64C118.771 102.981 119.781 100.499 119.781 100.499L121.265 97.7858H129.953C129.953 97.7858 130.732 99.5014 131.267 100.743C131.803 101.984 128.821 102.981 128.821 102.981H139.48C137.753 102.981 136.268 100.803 136.268 100.803L129.028 86.5914H125.573Z" fill="#010202"/>
<path d="M155.104 86.5914C155.104 86.5914 157.489 86.7374 157.611 88.6234V97.8345C157.611 97.8345 157.732 102.446 151.174 102.446C144.628 102.446 144.98 97.8953 144.98 97.8953V88.7451C144.98 88.7451 144.98 86.5914 147.304 86.5914H138.312C138.312 86.5914 140.697 87.3945 140.697 88.7451V97.1896C140.697 97.1896 140.576 103.565 149.811 103.565C159.046 103.565 158.56 97.8953 158.56 97.8953V88.7451C158.56 88.7451 158.742 86.5914 161.005 86.5914H155.104Z" fill="#010202"/>
<path d="M183.212 86.5914L176.069 98.3698L168.987 86.5914H162.441C164.826 87.0295 164.826 88.4531 164.826 88.4531V100.974C164.765 102.689 162.149 102.981 162.149 102.981H168.16C166.079 102.981 165.897 100.913 165.897 100.913V89.5117L174.171 103.565L182.506 89.4509V100.962C182.506 102.556 180.304 102.969 180.304 102.969H189.356C186.911 102.969 186.911 100.962 186.911 100.962V88.5748C186.911 87.0416 189.235 86.5914 189.235 86.5914H183.212Z" fill="#010202"/>
<path d="M192.082 86.5914C193.98 86.5914 194.345 88.6842 194.345 88.6842V101.022C194.345 102.446 191.839 102.969 191.839 102.969H209.64L210.772 97.7127C209.822 102.081 204.822 102.142 204.822 102.142H198.75V94.8777H203.276C205.187 94.8777 205.892 98.0656 205.892 98.0656V90.8014C205.892 93.8069 203.276 94.1111 203.276 94.1111H198.811V87.3823H204.408C207.924 87.6743 209.762 91.9817 209.762 91.9817L208.448 86.5792H192.082V86.5914Z" fill="#010202"/>
<path d="M213.035 86.5914L212.086 92.8822C213.874 87.3945 216.247 87.3945 216.247 87.3945H220.834V101.095C220.834 102.397 218.328 102.981 218.328 102.981H227.624C225.191 102.981 225.118 100.974 225.118 100.974V87.3945H229.887C231.968 87.6865 234 92.943 234 92.943L232.929 86.5914H213.035Z" fill="#010202"/>
<path d="M131.389 109.236H134.127C134.942 109.236 135.331 109.71 135.331 110.379C135.331 111.097 134.978 111.657 133.932 111.657H131.377V109.236H131.389ZM130.33 108.323V115.405H131.389V112.57H134.078C135.575 112.57 136.402 111.694 136.402 110.355C136.402 109.041 135.587 108.323 134.017 108.323H130.33Z" fill="#010202"/>
<path d="M141.087 109.297L142.45 112.424H139.736L141.087 109.297ZM140.527 108.323L137.303 115.405H138.446L139.359 113.348H142.863L143.776 115.405H144.98L141.756 108.323H140.527Z" fill="#010202"/>
<path d="M148.4 109.236H151.393C152.245 109.236 152.646 109.698 152.646 110.367C152.646 110.866 152.391 111.487 151.356 111.487H148.4V109.236ZM147.341 108.323V115.405H148.4V112.399H151.162C152.05 112.399 152.476 112.789 152.537 114.054C152.585 114.906 152.585 115.198 152.756 115.405H153.875C153.632 115.125 153.595 114.796 153.534 113.482C153.486 112.643 153.121 112.059 152.5 111.973V111.949C153.279 111.694 153.705 111.061 153.705 110.197C153.705 109.297 153.182 108.311 151.758 108.311H147.341V108.323Z" fill="#010202"/>
<path d="M158.134 108.323H157.075V115.405H158.134V108.323Z" fill="#010202"/>
<path d="M161.468 110.294C161.468 111.669 162.733 112.01 163.585 112.144L165.203 112.411C166.018 112.557 166.529 112.825 166.529 113.458C166.529 114.224 165.726 114.65 164.595 114.65C163.512 114.65 162.319 114.322 162.295 113.056H161.249C161.249 115.003 162.916 115.563 164.522 115.563C165.958 115.563 167.588 115.052 167.588 113.239C167.588 111.791 165.994 111.523 165.434 111.426L163.682 111.134C162.806 110.988 162.514 110.635 162.514 110.209C162.514 109.369 163.39 109.041 164.169 109.041C165.872 109.041 166.201 109.795 166.286 110.355H167.345C167.247 108.652 165.739 108.128 164.303 108.128C162.502 108.153 161.468 109.004 161.468 110.294Z" fill="#010202"/>
</svg>
