<svg width="212" height="88" viewBox="0 0 212 98" fill="none" xmlns="http://www.w3.org/2000/svg">
<path d="M88.4768 13.423L86.6577 9.84598L83.8911 7.92667L79.5286 7.8269L77.3602 10.3445L76.5746 13.423L77.7966 17.2492L80.4013 19.6422L82.2205 21.1502L88.19 23.9794L89.0002 18.8321L88.4768 13.423ZM87.9411 23.2565L85.6477 19.1187L84.7382 22.0102L84.4893 21.8482L85.2995 18.9941L80.6502 17.7726L80.8991 19.5923L80.6123 19.4054L80.388 17.6106L77.7832 16.3767L77.7085 16.1524L80.3757 17.299L79.8277 13.9963L77.6337 15.9904L77.5968 15.7536L79.7652 13.6847L79.2664 10.6062L77.9205 10.195L78.1079 9.97064L79.2418 10.2822L79.0175 9.02338L79.2039 8.77417L79.4539 10.3445L81.7093 11.0051L79.7898 8.08861L83.5541 9.82109L82.5073 8.18838H82.8565L83.7784 9.58428L84.6757 8.78656L84.9 8.9486L83.8911 9.83349L85.1499 12.0271L87.854 12.8372L88.0159 13.2485L87.1432 14.9808L88.739 17.5857L88.8015 18.1465L87.0684 15.3797L85.8721 19.019L88.5393 19.9288L87.9411 23.2565Z" fill="#010202"/>
<path d="M79.5527 10.6312L81.8461 11.3292L79.9645 13.3981L79.5527 10.6312Z" fill="#010202"/>
<path d="M80.696 9.48608L78.1803 12.0286L80.7226 14.5446L83.2393 12.002L80.696 9.48608Z" fill="#010202"/>
<path d="M82.5071 11.1297L84.8875 11.89L83.7034 10.0703L82.5071 11.1297Z" fill="#010202"/>
<path d="M83.6862 8.87024L81.5905 10.9875L83.7077 13.0827L85.8034 10.9655L83.6862 8.87024Z" fill="#010202"/>
<path d="M82.22 11.4165L85.211 12.264L86.8437 15.1555L85.3984 18.7325L82.22 11.4165Z" fill="#010202"/>
<path d="M84.5093 9.09961L78.5653 15.1059L84.5543 21.0323L90.4972 15.0259L84.5093 9.09961Z" fill="#010202"/>
<path d="M74.6681 25.3879L74.1447 23.5309L71.9506 19.6422L69.3582 18.1592L66.903 18.2588L64.8718 19.4927L64.0984 22.7331L65.1709 25.0763L67.5759 26.9582L70.9909 28.0924L75.2786 28.3416L74.6681 25.3879ZM71.9506 25.7743L69.309 26.198L70.6672 27.731L70.2933 27.6063L68.8849 26.1855L67.2277 26.3974L67.0771 26.2478L66.9531 24.3036L65.5816 23.0073L64.7591 23.5682L64.7345 23.3563L65.47 22.8329L64.6096 21.9978L64.6475 21.786L65.5068 22.5836L65.009 20.3028L66.7411 21.5367L66.6541 19.8043L65.6072 19.3805L65.7568 19.2559L66.6541 19.6049L66.7165 18.7325L66.9275 18.6078L66.8282 19.6796L68.9843 20.5022L70.7789 19.3058L70.954 19.4678L69.1963 20.6144L71.6393 21.6613L71.0913 19.4802L71.8134 19.7794L73.2843 22.4216L71.8759 21.8109L72.1873 25.4128L73.4215 22.7083L73.5465 22.9201L73.2341 23.967L74.2809 25.4377L72.2497 25.7244L74.7674 28.0425L72.2129 27.8556L71.9506 25.7743Z" fill="#010202"/>
<path d="M67.0021 21.7859L68.8222 20.6393L66.8525 19.879L67.0021 21.7859Z" fill="#010202"/>
<path d="M67.8289 18.9022L65.9012 20.8512L67.8494 22.7799L69.7781 20.8309L67.8289 18.9022Z" fill="#010202"/>
<path d="M65.7441 22.8329C65.5946 22.8578 66.9773 24.0294 66.9773 24.0294L66.8534 22.0851L65.7441 22.8329Z" fill="#010202"/>
<path d="M66.2925 21.3918L64.6352 23.0661L66.3099 24.7231L67.9672 23.0487L66.2925 21.3918Z" fill="#010202"/>
<path d="M67.0649 21.9603L67.152 24.2661L69.0961 25.9985L71.9631 25.6246L67.0649 21.9603Z" fill="#010202"/>
<path d="M69.4872 19.5088L65.0428 24.0003L69.5344 28.445L73.9787 23.9536L69.4872 19.5088Z" fill="#010202"/>
<path d="M62.3418 29.999L60.7214 27.4814L58.7271 25.8986L56.6832 25.5372L54.1033 26.6963L53.4925 28.5035L53.8041 30.4976L55.5739 32.3172L59.1758 33.3891H63.3016L62.3418 29.999ZM60.5719 33.1024L60.4848 31.3575L57.3566 31.6566L57.9794 32.741L57.6926 32.6413L57.1817 31.6816L55.5116 31.7689L55.3121 31.6069L57.082 31.4822L55.873 29.9243L55.1626 31.4323L55.0006 31.2953L55.7359 29.7996L54.6392 28.2542L53.854 28.3913L53.9287 28.1545L54.527 28.0797L54.1655 27.5188L54.2278 27.2571L54.7388 28.0423L56.1721 27.793L54.365 26.8209L56.8701 26.7212L55.9977 26.1728L56.1721 26.0855L57.0071 26.5592L57.2439 25.936L57.4314 25.961L57.1938 26.6464L58.4649 27.4814L60.073 27.2447L60.2851 27.3818L60.3967 28.6779L61.7805 29.513L62.0048 29.862L60.4971 29.0145L60.6087 31.1955L62.3418 31.0585L62.4658 32.7036L60.6589 31.3825L60.7962 33.0899L60.5719 33.1024Z" fill="#010202"/>
<path d="M57.2943 31.4698L60.4102 31.2206L56.3468 30.3481L57.2943 31.4698Z" fill="#010202"/>
<path d="M58.3643 28.3213L55.7957 30.9169L58.4093 33.5032L60.9772 30.9074L58.3643 28.3213Z" fill="#010202"/>
<path d="M54.8259 28.192L55.8105 29.6128L56.4711 27.9178L54.8259 28.192Z" fill="#010202"/>
<path d="M55.6395 27.0924L53.9738 28.7756L55.657 30.4413L57.3231 28.7581L55.6395 27.0924Z" fill="#010202"/>
<path d="M56.6833 27.7807L58.2038 27.544L57.1321 26.821L56.6833 27.7807Z" fill="#010202"/>
<path d="M57.4336 26.0596L56.1973 27.3087L57.447 28.5448L58.6822 27.2957L57.4336 26.0596Z" fill="#010202"/>
<path d="M56.7455 27.9303L57.8923 30.6099L60.3598 28.9398L56.7455 27.9303Z" fill="#010202"/>
<path d="M58.5407 26.1191L55.4111 29.2818L58.5735 32.4115L61.7038 29.2489L58.5407 26.1191Z" fill="#010202"/>
<path d="M58.689 27.6188L60.1978 28.5285L60.0974 27.4691L58.689 27.6188Z" fill="#010202"/>
<path d="M59.4277 26.7106L58.1483 28.004L59.441 29.284L60.7213 27.9905L59.4277 26.7106Z" fill="#010202"/>
<path d="M128.385 18.8446L129.207 23.9919L135.177 21.1627L136.997 19.6547L139.602 17.2741L140.823 13.4479L140.038 10.3695L137.869 7.86438L133.507 7.95155L130.74 9.87097L128.921 13.4479L128.385 18.8446ZM128.858 19.9413L131.525 19.0315L130.329 15.3922L128.609 18.159L128.672 17.5982L130.267 14.9933L129.394 13.2734L129.557 12.8621L132.261 12.052L133.52 9.85847L132.51 8.97358L132.734 8.81154L133.631 9.60916L134.554 8.21336H134.902L133.856 9.84597L137.62 8.12609L135.688 11.0424L137.944 10.3819L138.194 8.81154L138.38 9.06085L138.156 10.3196L139.291 10.008L139.477 10.2323L138.119 10.6187L137.62 13.6972L139.788 15.7661L139.751 16.0029L137.557 14.0088L137.009 17.3115L139.677 16.1649L139.602 16.3892L136.997 17.6356L136.773 19.4303L136.486 19.6173L136.735 17.7976L132.087 19.019L132.909 21.8731L132.659 22.0351L131.75 19.1436L129.456 23.294L128.858 19.9413Z" fill="#010202"/>
<path d="M137.844 10.6561L135.551 11.3417L137.433 13.4105L137.844 10.6561Z" fill="#010202"/>
<path d="M136.677 9.50562L134.161 12.0481L136.704 14.5642L139.219 12.0217L136.677 9.50562Z" fill="#010202"/>
<path d="M132.497 11.9148L134.89 11.1546L133.694 10.0828L132.497 11.9148Z" fill="#010202"/>
<path d="M133.688 8.88745L131.592 11.0048L133.709 13.0999L135.805 10.9827L133.688 8.88745Z" fill="#010202"/>
<path d="M135.164 11.4414L132.186 12.2889L130.553 15.1804L131.998 18.7574L135.164 11.4414Z" fill="#010202"/>
<path d="M132.836 9.13037L126.892 15.1368L132.881 21.063L138.825 15.0567L132.836 9.13037Z" fill="#010202"/>
<path d="M142.119 28.3665L146.406 28.1172L149.821 26.9831L152.227 25.1011L153.298 22.758L152.526 19.5176L150.494 18.2836L148.051 18.184L145.46 19.6671L143.266 23.5556L142.742 25.4252L142.119 28.3665ZM145.173 27.8804L142.617 28.0674L145.135 25.7493L143.104 25.4501L144.151 23.9919L143.839 22.945L143.963 22.733L145.197 25.4377L145.509 21.8358L144.113 22.4339L145.584 19.7918L146.294 19.5051L145.745 21.6862L148.201 20.6393L146.444 19.4926L146.618 19.3305L148.413 20.5271L150.569 19.7169L150.469 18.6451L150.681 18.7698L150.744 19.6546L151.641 19.2932L151.791 19.4178L150.744 19.8416L150.656 21.5739L152.389 20.3401L151.89 22.6209L152.75 21.8233L152.787 22.0352L151.928 22.8702L152.663 23.3936L152.638 23.6055L151.828 23.0446L150.445 24.3284L150.32 26.2727L150.17 26.4222L148.513 26.2104L147.105 27.6312L146.731 27.7558L148.089 26.2228L145.446 25.799L145.173 27.8804Z" fill="#010202"/>
<path d="M148.563 20.6641L150.395 21.8107L150.532 19.9038L148.563 20.6641Z" fill="#010202"/>
<path d="M149.552 18.9183L147.623 20.8674L149.571 22.796L151.5 20.8471L149.552 18.9183Z" fill="#010202"/>
<path d="M150.333 21.9852L150.246 24.2785L148.302 26.0234L145.435 25.637L150.333 21.9852Z" fill="#010202"/>
<path d="M147.858 19.5269L143.413 24.0183L147.905 28.4631L152.349 23.9716L147.858 19.5269Z" fill="#010202"/>
<path d="M154.072 33.4017H158.197L161.799 32.3298L163.568 30.5101L163.88 28.516L163.269 26.7089L160.69 25.5498L158.645 25.9112L156.651 27.494L155.031 30.0116L154.072 33.4017ZM156.602 33.1025L156.738 31.3951L154.931 32.7161L155.056 31.071L156.788 31.2081L156.901 29.0271L155.392 29.8746L155.617 29.5256L157 28.6906L157.112 27.3943L157.324 27.2573L158.932 27.494L160.203 26.659L159.967 25.9736L160.153 25.9486L160.391 26.5717L161.226 26.0982L161.4 26.1979L160.515 26.7463L163.032 26.8335L161.226 27.8056L162.659 28.0549L163.182 27.2697L163.244 27.5314L162.883 28.0923L163.481 28.1671L163.556 28.4039L162.771 28.2667L161.674 29.8123L162.41 31.3078L162.248 31.4449L161.537 29.9368L160.328 31.4948L162.098 31.6194L161.898 31.7815L160.228 31.6942L159.718 32.6539L159.431 32.7536L160.054 31.6693L156.926 31.3701L156.826 33.115L156.602 33.1025Z" fill="#010202"/>
<path d="M156.975 31.2332L160.104 31.4949L161.051 30.3732L156.975 31.2332Z" fill="#010202"/>
<path d="M158.987 28.3373L156.42 30.9329L159.033 33.5192L161.601 30.9234L158.987 28.3373Z" fill="#010202"/>
<path d="M161.574 29.6377L162.572 28.2045L160.913 27.9427L161.574 29.6377Z" fill="#010202"/>
<path d="M161.741 27.1117L160.076 28.7949L161.758 30.4606L163.424 28.7774L161.741 27.1117Z" fill="#010202"/>
<path d="M159.194 27.5688L160.714 27.7932L160.266 26.8459L159.194 27.5688Z" fill="#010202"/>
<path d="M159.956 26.0771L158.721 27.3262L159.97 28.5623L161.206 27.3132L159.956 26.0771Z" fill="#010202"/>
<path d="M160.652 27.9553L159.506 30.6225L157.037 28.9649L160.652 27.9553Z" fill="#010202"/>
<path d="M158.836 26.1417L155.706 29.3044L158.869 32.4341L161.998 29.2714L158.836 26.1417Z" fill="#010202"/>
<path d="M157.2 28.5534L158.708 27.6436L157.287 27.4816L157.2 28.5534Z" fill="#010202"/>
<path d="M157.943 26.7358L156.663 28.0292L157.956 29.3092L159.237 28.0158L157.943 26.7358Z" fill="#010202"/>
<path d="M110.387 0C109.602 0 108.817 0.0498844 108.032 0.0996648C107.359 0.149548 106.686 0.211924 106.026 0.348973C104.106 0.722839 102.274 1.35851 100.604 2.39294C99.3574 3.16567 98.3475 4.17521 97.6622 5.48384C96.7404 7.25371 96.6154 9.16052 96.9268 11.0923C97.2382 12.9744 98.2481 14.5073 99.719 15.6789C101.265 16.9127 103.071 17.6481 104.979 18.1092C105.838 18.3086 106.711 18.4333 107.583 18.5455C108.356 18.6451 109.141 18.7573 109.914 18.7448C110.724 18.7448 111.559 18.695 112.344 18.5205C114.238 18.1217 116.121 17.6356 117.965 17.1993C118.526 15.2551 119.062 13.423 119.597 11.5785C119.573 11.566 119.536 11.5535 119.51 11.5411C119.261 12.0146 119.025 12.5007 118.75 12.9619C117.815 14.4824 116.544 15.6539 114.974 16.4765C113.454 17.2617 111.795 17.5733 110.113 17.6481C109.441 17.673 108.768 17.5608 108.107 17.4487C105.801 17.0623 104.106 15.8035 103.034 13.7346C102.548 12.7998 102.249 11.8153 102.049 10.7807C101.875 9.87097 101.85 8.98609 101.999 8.08871C102.199 6.87974 102.598 5.72065 103.209 4.64884C104.007 3.26543 105.128 2.21851 106.624 1.64511C108.592 0.872385 110.625 0.947263 112.656 1.37101C113.715 1.59533 114.713 2.00658 115.634 2.59237C116.869 3.37759 117.915 4.33725 118.663 5.596C118.975 6.11951 119.249 6.66791 119.597 7.30348C119.573 7.10406 119.585 7.0044 119.548 6.91713C119.074 5.22213 118.588 3.52714 118.09 1.83215C118.053 1.69499 117.878 1.54545 117.728 1.50806C116.457 1.14659 115.186 0.772723 113.902 0.461134C112.755 0.186932 111.584 0 110.387 0Z" fill="#010202"/>
<path d="M64.7712 40.5432C64.7712 40.5432 89.4238 35.857 109.352 35.857C129.793 35.857 153.996 40.5432 153.996 40.5432L109.49 30.1613L64.7712 40.5432Z" fill="#010202"/>
<path d="M21.9601 61.357C21.9601 68.7974 31.0458 70.0686 34.3362 70.0686C37.6265 70.0686 40.2562 69.0965 41.4652 68.7974C42.6866 68.4983 42.8735 70.3052 42.8735 70.3052L44.0326 62.7404C44.0326 62.7404 41.7144 69.1467 34.3984 69.1467C27.0825 69.1467 26.7211 61.9552 26.7211 61.3445C26.7211 60.7338 27.0327 53.2932 34.3487 53.2932C41.6646 53.2932 43.8083 60.011 43.8083 60.011L43.0107 52.8445C42.5245 54.39 41.0539 53.7169 41.0539 53.7169C41.0539 53.7169 37.7013 52.4457 34.3487 52.4457C30.996 52.4457 21.9601 53.904 21.9601 61.357Z" fill="#010202"/>
<path d="M62.5786 52.8445C64.7091 52.8445 64.959 55.1752 64.959 55.1752V60.497H53.5549V54.876C53.5549 53.4178 55.9977 52.8445 55.9977 52.8445H46.7873C49.0432 52.8445 49.1055 55.0505 49.1055 55.0505V67.6881C49.1055 69.3208 46.725 69.6199 46.725 69.6199H55.8108C53.6172 69.6199 53.4926 67.5642 53.4926 67.5642V61.3321H64.8965V67.6881C64.8965 68.9593 62.5786 69.6199 62.5786 69.6199H71.664C69.5949 69.6199 69.346 67.6256 69.346 67.6256V55.1627C69.346 53.7045 71.664 52.832 71.664 52.832H62.5786V52.8445Z" fill="#010202"/>
<path d="M83.3798 55.3622L87.4052 63.4634H79.4158L83.3798 55.3622ZM83.3798 52.8446C83.3798 52.8446 77.5219 64.6724 76.2999 66.9159C75.0789 69.1468 72.6985 69.6323 72.6985 69.6323H80.3755C76.4126 69.6323 77.4471 67.09 77.4471 67.09L78.9671 64.3109H87.8662C87.8662 64.3109 88.6641 66.0682 89.2121 67.3399C89.7611 68.6111 86.7067 69.6323 86.7067 69.6323H97.6246C95.8556 69.6323 94.3345 67.4014 94.3345 67.4014L86.9187 52.8446H83.3798Z" fill="#010202"/>
<path d="M113.628 52.8446C113.628 52.8446 116.071 52.9941 116.196 54.926V64.3608C116.196 64.3608 116.32 69.0843 109.602 69.0843C102.897 69.0843 103.258 64.4231 103.258 64.4231V55.0506C103.258 55.0506 103.258 52.8446 105.638 52.8446H96.428C96.428 52.8446 98.8709 53.6672 98.8709 55.0506V63.7002C98.8709 63.7002 98.747 70.2305 108.206 70.2305C117.666 70.2305 117.168 64.4231 117.168 64.4231V55.0506C117.168 55.0506 117.354 52.8446 119.672 52.8446H113.628Z" fill="#010202"/>
<path d="M142.419 52.8446L135.102 64.9091L127.848 52.8446H121.143C123.586 53.2933 123.586 54.7515 123.586 54.7515V67.5765C123.524 69.3332 120.844 69.6323 120.844 69.6323H127.001C124.869 69.6323 124.683 67.5141 124.683 67.5141V55.8358L133.158 70.2305L141.695 55.7736V67.5642C141.695 69.197 139.44 69.62 139.44 69.62H148.712C146.207 69.62 146.207 67.5642 146.207 67.5642V54.8762C146.207 53.3057 148.588 52.8446 148.588 52.8446H142.419Z" fill="#010202"/>
<path d="M151.504 52.8445C153.448 52.8445 153.822 54.9882 153.822 54.9882V67.6256C153.822 69.0842 151.255 69.6199 151.255 69.6199H169.488L170.648 64.2359C169.675 68.7104 164.553 68.7728 164.553 68.7728H158.334V61.3321H162.97C164.927 61.3321 165.649 64.5974 165.649 64.5974V57.1568C165.649 60.2353 162.97 60.5469 162.97 60.5469H158.396V53.6546H164.129C167.731 53.9537 169.613 58.3657 169.613 58.3657L168.267 52.832H151.504V52.8445Z" fill="#010202"/>
<path d="M172.966 52.8446L171.994 59.2882C173.825 53.6672 176.256 53.6672 176.256 53.6672H180.954V67.7005C180.954 69.0341 178.387 69.6323 178.387 69.6323H187.909C185.417 69.6323 185.342 67.5765 185.342 67.5765V53.6672H190.227C192.359 53.9663 194.44 59.3505 194.44 59.3505L193.343 52.8446H172.966Z" fill="#010202"/>
<path d="M89.337 76.0391H92.1415C92.9763 76.0391 93.3747 76.5246 93.3747 77.2098C93.3747 77.9453 93.0132 78.5189 91.9418 78.5189H89.3247V76.0391H89.337ZM88.2523 75.1039V82.3579H89.337V79.454H92.0913C93.6247 79.454 94.4717 78.5568 94.4717 77.1852C94.4717 75.8393 93.6369 75.1039 92.0288 75.1039H88.2523Z" fill="#010202"/>
<path d="M99.2708 76.1015L100.667 79.3045H97.8869L99.2708 76.1015ZM98.6971 75.1039L95.3948 82.3579H96.5656L97.5008 80.2509H101.09L102.025 82.3579H103.258L99.956 75.1039H98.6971Z" fill="#010202"/>
<path d="M106.761 76.039H109.827C110.699 76.039 111.11 76.5122 111.11 77.1975C111.11 77.7086 110.849 78.3447 109.789 78.3447H106.761V76.039ZM105.676 75.1038V82.3579H106.761V79.2789H109.59C110.5 79.2789 110.936 79.6783 110.998 80.974C111.048 81.8467 111.048 82.1458 111.223 82.3579H112.369C112.12 82.0711 112.082 81.7341 112.02 80.3882C111.97 79.5288 111.597 78.9306 110.961 78.8425V78.8179C111.758 78.5567 112.195 77.9083 112.195 77.0234C112.195 76.1015 111.659 75.0916 110.2 75.0916H105.676V75.1038Z" fill="#010202"/>
<path d="M116.732 75.1039H115.647V82.3579H116.732V75.1039Z" fill="#010202"/>
<path d="M120.147 77.1228C120.147 78.5312 121.442 78.8805 122.315 79.0177L123.972 79.2912C124.807 79.4408 125.331 79.7153 125.331 80.3636C125.331 81.1482 124.508 81.5846 123.35 81.5846C122.24 81.5846 121.018 81.2486 120.994 79.9519H119.922C119.922 81.9462 121.63 82.5198 123.275 82.5198C124.746 82.5198 126.415 81.9963 126.415 80.1393C126.415 78.6561 124.783 78.3816 124.209 78.2823L122.414 77.9832C121.517 77.8336 121.218 77.4721 121.218 77.0357C121.218 76.1753 122.115 75.8394 122.913 75.8394C124.658 75.8394 124.995 76.6117 125.082 77.1853H126.166C126.066 75.4409 124.521 74.9042 123.05 74.9042C121.206 74.9298 120.147 75.8015 120.147 77.1228Z" fill="#010202"/>
</svg>
