<svg width="300" height="150" viewBox="0 0 300 150" fill="none" xmlns="http://www.w3.org/2000/svg">
<path d="M135.364 54.7599L134.041 52.1591L132.029 50.7635L128.858 50.691L127.281 52.5216L126.71 54.7599L127.598 57.542L129.492 59.2819L130.815 60.3784L135.156 62.4355L135.745 58.6929L135.364 54.7599ZM134.974 61.9099L133.307 58.9013L132.645 61.0037L132.464 60.8859L133.053 58.8107L129.673 57.9226L129.854 59.2456L129.646 59.1097L129.483 57.8048L127.589 56.9076L127.534 56.7445L129.474 57.5782L129.075 55.1768L127.48 56.6267L127.453 56.4545L129.03 54.9502L128.667 52.7119L127.689 52.4128L127.824 52.2497L128.649 52.4763L128.486 51.561L128.622 51.3798L128.803 52.5216L130.443 53.0019L129.048 50.8813L131.785 52.141L131.023 50.9538H131.277L131.948 51.9688L132.6 51.3888L132.763 51.5066L132.029 52.15L132.945 53.745L134.911 54.334L135.029 54.633L134.394 55.8927L135.554 57.7866L135.6 58.1944L134.34 56.1827L133.47 58.8288L135.409 59.4903L134.974 61.9099Z" fill="#010202"/>
<path d="M128.876 52.73L130.543 53.2375L129.175 54.7418L128.876 52.73Z" fill="#010202"/>
<path d="M129.707 51.8972L127.878 53.7458L129.726 55.5753L131.556 53.7266L129.707 51.8972Z" fill="#010202"/>
<path d="M131.024 53.0924L132.755 53.6452L131.894 52.3221L131.024 53.0924Z" fill="#010202"/>
<path d="M131.88 51.4495L130.357 52.989L131.896 54.5125L133.42 52.973L131.88 51.4495Z" fill="#010202"/>
<path d="M130.815 53.3009L132.99 53.9171L134.177 56.0195L133.126 58.6203L130.815 53.3009Z" fill="#010202"/>
<path d="M132.479 51.6163L128.158 55.9835L132.512 60.2925L136.834 55.9253L132.479 51.6163Z" fill="#010202"/>
<path d="M125.324 63.4595L124.943 62.1092L123.348 59.2819L121.463 58.2035L119.678 58.276L118.201 59.1731L117.639 61.5293L118.418 63.2329L120.167 64.6013L122.65 65.426L125.768 65.6072L125.324 63.4595ZM123.348 63.7404L121.427 64.0485L122.415 65.1632L122.143 65.0725L121.119 64.0395L119.913 64.1935L119.805 64.0848L119.714 62.6711L118.717 61.7286L118.119 62.1364L118.101 61.9824L118.636 61.6018L118.01 60.9946L118.038 60.8406L118.663 61.4205L118.3 59.7622L119.56 60.6593L119.497 59.3997L118.735 59.0916L118.844 59.001L119.497 59.2547L119.542 58.6203L119.696 58.5297L119.624 59.3091L121.191 59.9072L122.496 59.0372L122.623 59.155L121.345 59.9887L123.121 60.7499L122.723 59.1641L123.248 59.3816L124.318 61.3027L123.294 60.8587L123.52 63.4776L124.417 61.5111L124.508 61.6652L124.281 62.4264L125.043 63.4957L123.566 63.7042L125.396 65.3897L123.538 65.2538L123.348 63.7404Z" fill="#010202"/>
<path d="M119.75 60.8405L121.073 60.0068L119.641 59.454L119.75 60.8405Z" fill="#010202"/>
<path d="M120.351 58.7438L118.949 60.1609L120.366 61.5632L121.769 60.1461L120.351 58.7438Z" fill="#010202"/>
<path d="M118.835 61.6018C118.727 61.62 119.732 62.4718 119.732 62.4718L119.642 61.0581L118.835 61.6018Z" fill="#010202"/>
<path d="M119.234 60.5541L118.029 61.7715L119.247 62.9762L120.451 61.7588L119.234 60.5541Z" fill="#010202"/>
<path d="M119.796 60.9674L119.859 62.6439L121.273 63.9035L123.357 63.6317L119.796 60.9674Z" fill="#010202"/>
<path d="M121.557 59.1849L118.325 62.4507L121.591 65.6824L124.823 62.4167L121.557 59.1849Z" fill="#010202"/>
<path d="M116.361 66.8123L115.183 64.9818L113.733 63.8309L112.247 63.5681L110.371 64.4109L109.927 65.7249L110.154 67.1748L111.44 68.4979L114.059 69.2772H117.059L116.361 66.8123ZM115.074 69.0688L115.011 67.8001L112.736 68.0176L113.189 68.806L112.981 68.7335L112.609 68.0357L111.395 68.0992L111.25 67.9813L112.537 67.8907L111.658 66.758L111.141 67.8545L111.024 67.7548L111.558 66.6673L110.761 65.5436L110.19 65.6433L110.244 65.4712L110.679 65.4168L110.416 65.009L110.462 64.8187L110.833 65.3896L111.875 65.2084L110.561 64.5015L112.383 64.429L111.749 64.0303L111.875 63.9668L112.483 64.3112L112.655 63.8581L112.791 63.8762L112.619 64.3746L113.543 64.9818L114.712 64.8096L114.866 64.9093L114.948 65.8518L115.953 66.4589L116.117 66.7127L115.02 66.0964L115.102 67.6823L116.361 67.5826L116.452 68.7788L115.138 67.8182L115.237 69.0597L115.074 69.0688Z" fill="#010202"/>
<path d="M112.691 67.8817L114.957 67.7005L112.002 67.0662L112.691 67.8817Z" fill="#010202"/>
<path d="M113.469 65.5924L111.602 67.4797L113.502 69.3601L115.37 67.4728L113.469 65.5924Z" fill="#010202"/>
<path d="M110.897 65.4984L111.613 66.5315L112.093 65.2991L110.897 65.4984Z" fill="#010202"/>
<path d="M111.488 64.6989L110.277 65.9227L111.501 67.1338L112.712 65.91L111.488 64.6989Z" fill="#010202"/>
<path d="M112.247 65.1994L113.353 65.0272L112.573 64.5016L112.247 65.1994Z" fill="#010202"/>
<path d="M112.792 63.9479L111.894 64.8561L112.802 65.7549L113.701 64.8466L112.792 63.9479Z" fill="#010202"/>
<path d="M112.292 65.308L113.126 67.2563L114.92 66.042L112.292 65.308Z" fill="#010202"/>
<path d="M113.598 63.9913L111.322 66.2909L113.622 68.5665L115.897 66.267L113.598 63.9913Z" fill="#010202"/>
<path d="M113.706 65.0815L114.802 65.7431L114.73 64.9728L113.706 65.0815Z" fill="#010202"/>
<path d="M114.243 64.4211L113.312 65.3616L114.253 66.2922L115.183 65.3518L114.243 64.4211Z" fill="#010202"/>
<path d="M164.381 58.7018L164.979 62.4445L169.32 60.3874L170.643 59.2909L172.537 57.56L173.425 54.778L172.854 52.5396L171.277 50.7181L168.106 50.7816L166.094 52.1771L164.771 54.778L164.381 58.7018ZM164.725 59.4993L166.665 58.8378L165.795 56.1916L164.544 58.2034L164.59 57.7956L165.749 55.9016L165.115 54.6511L165.233 54.352L167.199 53.763L168.115 52.1681L167.381 51.5247L167.544 51.4069L168.196 51.9868L168.867 50.9719H169.121L168.359 52.159L171.096 50.9084L169.691 53.029L171.332 52.5487L171.513 51.4069L171.649 51.5881L171.486 52.5034L172.31 52.2768L172.446 52.4399L171.459 52.7209L171.096 54.9592L172.673 56.4635L172.646 56.6357L171.051 55.1857L170.652 57.5872L172.591 56.7535L172.537 56.9166L170.643 57.8228L170.48 59.1277L170.271 59.2637L170.453 57.9406L167.073 58.8287L167.671 60.9039L167.489 61.0217L166.828 58.9193L165.16 61.937L164.725 59.4993Z" fill="#010202"/>
<path d="M171.259 52.748L169.592 53.2465L170.96 54.7508L171.259 52.748Z" fill="#010202"/>
<path d="M170.411 51.9115L168.582 53.7601L170.43 55.5895L172.26 53.7409L170.411 51.9115Z" fill="#010202"/>
<path d="M167.371 53.6633L169.111 53.1105L168.241 52.3312L167.371 53.6633Z" fill="#010202"/>
<path d="M168.237 51.462L166.713 53.0015L168.253 54.5249L169.776 52.9854L168.237 51.462Z" fill="#010202"/>
<path d="M169.311 53.319L167.145 53.9352L165.958 56.0376L167.009 58.6384L169.311 53.319Z" fill="#010202"/>
<path d="M167.617 51.6386L163.296 56.0059L167.65 60.3149L171.972 55.9476L167.617 51.6386Z" fill="#010202"/>
<path d="M174.367 65.6253L177.485 65.444L179.968 64.6194L181.717 63.251L182.496 61.5473L181.934 59.1912L180.457 58.2941L178.681 58.2216L176.796 59.2999L175.201 62.1273L174.821 63.4866L174.367 65.6253ZM176.588 65.2719L174.73 65.4078L176.56 63.7222L175.083 63.5047L175.845 62.4445L175.618 61.6833L175.709 61.5292L176.606 63.4957L176.832 60.8767L175.817 61.3117L176.887 59.3906L177.403 59.1821L177.004 60.768L178.79 60.0068L177.512 59.1731L177.639 59.0553L178.944 59.9252L180.512 59.3362L180.439 58.5569L180.593 58.6475L180.638 59.2909L181.291 59.0281L181.4 59.1187L180.638 59.4268L180.575 60.6864L181.835 59.7893L181.472 61.4477L182.097 60.8677L182.125 61.0217L181.499 61.6289L182.034 62.0095L182.016 62.1636L181.427 61.7558L180.421 62.6892L180.33 64.1028L180.222 64.2116L179.016 64.0575L177.992 65.0906L177.72 65.1812L178.708 64.0666L176.787 63.7585L176.588 65.2719Z" fill="#010202"/>
<path d="M179.053 60.025L180.385 60.8587L180.485 59.4722L179.053 60.025Z" fill="#010202"/>
<path d="M179.771 58.7555L178.369 60.1726L179.786 61.5749L181.189 60.1579L179.771 58.7555Z" fill="#010202"/>
<path d="M180.339 60.9856L180.276 62.653L178.862 63.9217L176.778 63.6408L180.339 60.9856Z" fill="#010202"/>
<path d="M178.54 59.1979L175.308 62.4636L178.574 65.6954L181.806 62.4296L178.54 59.1979Z" fill="#010202"/>
<path d="M183.058 69.2864H186.058L188.676 68.507L189.963 67.184L190.19 65.734L189.746 64.42L187.87 63.5773L186.384 63.8401L184.934 64.991L183.756 66.8215L183.058 69.2864ZM184.898 69.0689L184.997 67.8274L183.683 68.788L183.774 67.5918L185.034 67.6915L185.115 66.1056L184.019 66.7218L184.182 66.4681L185.188 65.8609L185.269 64.9185L185.423 64.8188L186.592 64.991L187.517 64.3838L187.344 63.8854L187.48 63.8673L187.652 64.3204L188.26 63.976L188.386 64.0485L187.743 64.4472L189.574 64.5107L188.26 65.2175L189.302 65.3987L189.682 64.8278L189.728 65.0181L189.465 65.4259L189.9 65.4803L189.954 65.6525L189.383 65.5528L188.586 66.6765L189.121 67.764L189.003 67.8636L188.486 66.7671L187.607 67.8999L188.894 67.9905L188.749 68.1083L187.535 68.0449L187.163 68.7427L186.955 68.8152L187.408 68.0268L185.133 67.8093L185.061 69.078L184.898 69.0689Z" fill="#010202"/>
<path d="M185.17 67.7095L187.444 67.8998L188.133 67.0842L185.17 67.7095Z" fill="#010202"/>
<path d="M186.633 65.604L184.765 67.4913L186.665 69.3717L188.533 67.4844L186.633 65.604Z" fill="#010202"/>
<path d="M188.513 66.5496L189.238 65.5074L188.033 65.3171L188.513 66.5496Z" fill="#010202"/>
<path d="M188.634 64.7129L187.423 65.9368L188.647 67.1479L189.858 65.924L188.634 64.7129Z" fill="#010202"/>
<path d="M186.783 65.0453L187.888 65.2084L187.562 64.5197L186.783 65.0453Z" fill="#010202"/>
<path d="M187.337 63.9607L186.439 64.8689L187.347 65.7677L188.246 64.8594L187.337 63.9607Z" fill="#010202"/>
<path d="M187.843 65.3263L187.009 67.2656L185.215 66.0603L187.843 65.3263Z" fill="#010202"/>
<path d="M186.522 64.0078L184.246 66.3074L186.546 68.583L188.822 66.2834L186.522 64.0078Z" fill="#010202"/>
<path d="M185.333 65.7612L186.429 65.0996L185.396 64.9818L185.333 65.7612Z" fill="#010202"/>
<path d="M185.873 64.4396L184.942 65.38L185.883 66.3106L186.813 65.3702L185.873 64.4396Z" fill="#010202"/>
<path d="M151.295 45C150.725 45 150.154 45.0362 149.583 45.0725C149.093 45.1087 148.604 45.1541 148.124 45.2537C146.728 45.5256 145.396 45.9878 144.182 46.7399C143.276 47.3018 142.542 48.0358 142.043 48.9873C141.373 50.2741 141.282 51.6606 141.508 53.0652C141.735 54.4336 142.469 55.5483 143.538 56.4001C144.662 57.2972 145.976 57.8319 147.363 58.1672C147.988 58.3122 148.622 58.4028 149.257 58.4844C149.818 58.5569 150.389 58.6384 150.951 58.6294C151.54 58.6294 152.147 58.5931 152.718 58.4662C154.096 58.1763 155.464 57.8228 156.805 57.5057C157.213 56.092 157.603 54.7599 157.992 53.4187C157.974 53.4096 157.947 53.4005 157.929 53.3915C157.748 53.7358 157.575 54.0893 157.376 54.4246C156.696 55.5301 155.772 56.382 154.63 56.9801C153.525 57.551 152.319 57.7775 151.096 57.8319C150.607 57.85 150.117 57.7685 149.637 57.6869C147.961 57.406 146.728 56.4907 145.949 54.9864C145.595 54.3068 145.378 53.5909 145.233 52.8387C145.106 52.1772 145.088 51.5338 145.197 50.8813C145.342 50.0023 145.632 49.1595 146.076 48.3802C146.656 47.3743 147.471 46.6131 148.559 46.1962C149.991 45.6343 151.468 45.6887 152.945 45.9968C153.715 46.1599 154.44 46.459 155.111 46.8849C156.008 47.4558 156.769 48.1536 157.313 49.0689C157.539 49.4495 157.739 49.8482 157.992 50.3104C157.974 50.1654 157.983 50.0929 157.956 50.0295C157.612 48.797 157.258 47.5646 156.896 46.3321C156.869 46.2324 156.742 46.1237 156.633 46.0965C155.709 45.8337 154.784 45.5618 153.851 45.3353C153.017 45.1359 152.165 45 151.295 45Z" fill="#010202"/>
<path d="M118.128 74.479C118.128 74.479 136.053 71.0717 150.543 71.0717C165.405 71.0717 183.004 74.479 183.004 74.479L150.643 66.9303L118.128 74.479Z" fill="#010202"/>
<path d="M87 89.6126C87 95.0226 93.6063 95.947 95.9986 95.947C98.391 95.947 100.303 95.2401 101.182 95.0226C102.07 94.8051 102.206 96.1191 102.206 96.1191L103.049 90.6185C103.049 90.6185 101.363 95.2764 96.0439 95.2764C90.7245 95.2764 90.4617 90.0475 90.4617 89.6035C90.4617 89.1595 90.6883 83.7494 96.0077 83.7494C101.327 83.7494 102.886 88.6339 102.886 88.6339L102.306 83.4232C101.952 84.5469 100.883 84.0575 100.883 84.0575C100.883 84.0575 98.4454 83.1332 96.0077 83.1332C93.57 83.1332 87 84.1934 87 89.6126Z" fill="#010202"/>
<path d="M116.533 83.4232C118.083 83.4232 118.264 85.1179 118.264 85.1179V88.9874H109.972V84.9004C109.972 83.8401 111.749 83.4232 111.749 83.4232H105.052C106.692 83.4232 106.737 85.0272 106.737 85.0272V94.2162C106.737 95.4033 105.006 95.6208 105.006 95.6208H111.613C110.018 95.6208 109.927 94.1256 109.927 94.1256V89.5945H118.219V94.2162C118.219 95.1405 116.533 95.6208 116.533 95.6208H123.14C121.635 95.6208 121.454 94.1709 121.454 94.1709V85.1088C121.454 84.0485 123.14 83.4142 123.14 83.4142H116.533V83.4232Z" fill="#010202"/>
<path d="M131.658 85.2538L134.585 91.1441H128.776L131.658 85.2538ZM131.658 83.4232C131.658 83.4232 127.399 92.0231 126.511 93.6543C125.622 95.2764 123.892 95.6298 123.892 95.6298H129.474C126.592 95.6298 127.344 93.7812 127.344 93.7812L128.45 91.7603H134.92C134.92 91.7603 135.5 93.0381 135.899 93.9624C136.298 94.8867 134.077 95.6298 134.077 95.6298H142.016C140.729 95.6298 139.623 94.0077 139.623 94.0077L134.231 83.4232H131.658Z" fill="#010202"/>
<path d="M153.652 83.4232C153.652 83.4232 155.428 83.532 155.518 84.9366V91.7966C155.518 91.7966 155.609 95.2311 150.724 95.2311C145.849 95.2311 146.112 91.8419 146.112 91.8419V85.0272C146.112 85.0272 146.112 83.4232 147.843 83.4232H141.146C141.146 83.4232 142.922 84.0213 142.922 85.0272V91.3163C142.922 91.3163 142.831 96.0648 149.71 96.0648C156.588 96.0648 156.225 91.8419 156.225 91.8419V85.0272C156.225 85.0272 156.361 83.4232 158.047 83.4232H153.652Z" fill="#010202"/>
<path d="M174.585 83.4232L169.266 92.1953L163.991 83.4232H159.116C160.892 83.7495 160.892 84.8097 160.892 84.8097V94.1346C160.847 95.4123 158.899 95.6298 158.899 95.6298H163.375C161.826 95.6298 161.69 94.0893 161.69 94.0893V85.5981L167.852 96.0648L174.059 85.5528V94.1255C174.059 95.3127 172.419 95.6208 172.419 95.6208H179.161C177.34 95.6208 177.34 94.1255 177.34 94.1255V84.9003C177.34 83.7585 179.071 83.4232 179.071 83.4232H174.585Z" fill="#010202"/>
<path d="M181.191 83.4232C182.605 83.4232 182.877 84.9819 182.877 84.9819V94.1709C182.877 95.2311 181.01 95.6208 181.01 95.6208H194.268L195.11 91.706C194.404 94.9593 190.679 95.0046 190.679 95.0046H186.157V89.5945H189.528C190.951 89.5945 191.477 91.9688 191.477 91.9688V86.5587C191.477 88.7971 189.528 89.0236 189.528 89.0236H186.202V84.0123H190.371C192.99 84.2298 194.358 87.4377 194.358 87.4377L193.38 83.4142H181.191V83.4232Z" fill="#010202"/>
<path d="M196.796 83.4232L196.089 88.1083C197.421 84.0213 199.189 84.0213 199.189 84.0213H202.605V94.2252C202.605 95.1949 200.738 95.6298 200.738 95.6298H207.662C205.849 95.6298 205.795 94.1346 205.795 94.1346V84.0213H209.347C210.897 84.2388 212.41 88.1536 212.41 88.1536L211.613 83.4232H196.796V83.4232Z" fill="#010202"/>
<path d="M135.99 100.288H138.029C138.636 100.288 138.926 100.641 138.926 101.14C138.926 101.674 138.663 102.091 137.884 102.091H135.981V100.288H135.99ZM135.201 99.608V104.882H135.99V102.771H137.992C139.107 102.771 139.723 102.118 139.723 101.121C139.723 100.143 139.116 99.608 137.947 99.608H135.201Z" fill="#010202"/>
<path d="M143.212 100.333L144.227 102.662H142.206L143.212 100.333ZM142.795 99.608L140.394 104.882H141.246L141.925 103.351H144.535L145.215 104.882H146.112L143.711 99.608H142.795Z" fill="#010202"/>
<path d="M148.658 100.288H150.888C151.522 100.288 151.821 100.632 151.821 101.13C151.821 101.502 151.631 101.964 150.86 101.964H148.658V100.288V100.288ZM147.87 99.6081V104.882H148.658V102.644H150.715C151.377 102.644 151.694 102.934 151.74 103.876C151.776 104.511 151.776 104.728 151.903 104.882H152.736C152.555 104.674 152.528 104.429 152.483 103.45C152.446 102.825 152.174 102.39 151.712 102.327V102.309C152.292 102.118 152.609 101.647 152.609 101.004C152.609 100.333 152.22 99.599 151.16 99.599H147.87V99.6081Z" fill="#010202"/>
<path d="M155.908 99.608H155.12V104.882H155.908V99.608Z" fill="#010202"/>
<path d="M158.391 101.076C158.391 102.1 159.333 102.354 159.968 102.454L161.173 102.653C161.78 102.762 162.161 102.961 162.161 103.432C162.161 104.003 161.563 104.32 160.72 104.32C159.913 104.32 159.025 104.076 159.007 103.133H158.228C158.228 104.583 159.469 105 160.665 105C161.735 105 162.949 104.619 162.949 103.269C162.949 102.191 161.762 101.991 161.345 101.919L160.04 101.701C159.388 101.593 159.17 101.33 159.17 101.013C159.17 100.387 159.823 100.143 160.403 100.143C161.671 100.143 161.916 100.705 161.979 101.121H162.768C162.695 99.8527 161.572 99.463 160.502 99.463C159.161 99.4811 158.391 100.115 158.391 101.076Z" fill="#010202"/>
</svg>
