<svg width="300" height="150" viewBox="0 0 300 150" fill="none" xmlns="http://www.w3.org/2000/svg">
<path d="M226.558 50.551C226.558 50.551 209.765 73.8296 209.613 73.9899C209.708 73.0615 209.542 71.9277 208.589 71.2496C203.724 67.8003 196.499 76.2773 194.805 78.5365C192.816 80.7901 187.068 85.2072 185.521 84.6192C183.954 84.0227 189.584 76.7415 190.754 75.1012C193.297 71.5338 192.299 70.9542 188.54 70.9542C189.136 69.5447 189.218 67.3305 187.746 67.3305C185.02 67.3305 183.768 71.4578 185.577 72.0627C183.836 76.8737 174.09 85.7136 172.348 84.8246C171.49 84.3857 172.689 82.1743 174.138 80.2358C177.255 76.0578 181.095 70.957 181.095 70.957H178.009C178.009 70.957 176.166 73.5285 175.907 73.9055C175.992 72.9686 175.691 71.8714 174.821 71.199C171.35 68.5093 164.037 73.1825 159.586 79.4621C158.548 80.8745 152.274 85.089 151.284 84.5179C150.687 84.1747 151.453 82.8411 152.353 81.5525C153.478 79.9404 154.955 78.1285 156.117 76.4433C157.133 74.969 158.464 73.1093 158.464 72.0008C158.464 71.2074 157.955 70.4478 156.447 70.4478C154.387 70.4478 149.931 73.5989 149.298 74.1644C149.936 73.3963 157.845 62.9471 157.845 62.9471H154.812C147.874 72.5044 139.197 77.5799 137.366 78.3311C138.26 77.1888 139.85 74.1559 138.733 72.1415C138.153 71.0977 136.991 70.4365 135.545 70.4365C132.825 70.4365 128.793 71.9558 123.293 78.4746C122.387 79.6534 116.616 84.9484 115.317 84.4954C114.579 84.2394 114.965 83.235 116.028 81.8001C117.311 80.0698 118.836 78.2101 119.911 76.7865C122.184 73.7705 122.246 72.299 121.737 71.4212C121.371 70.791 120.561 70.4506 119.317 70.4506C117.005 70.4506 113.429 72.2287 112.34 73.1712C112.34 73.1712 113.682 71.5591 113.747 71.4691C114.43 71.078 122.3 66.0278 126.255 62.2831C131.398 57.4158 133.565 51.9718 131.657 51.215C128.464 49.9517 119.613 59.4247 109.239 72.9546C107.067 74.2966 104.856 75.6639 102.524 76.8146C103.489 75.5345 106.308 69.6066 102.065 67.6709C98.0897 65.8562 89.9053 71.0471 86.7148 77.5011H87.5195C90.7156 71.6604 99.5048 66.613 101.908 69.1226C103.497 70.7826 101.168 76.2998 96.9586 79.991C92.1842 84.1803 86.6191 85.2719 84.0505 84.0959C79.5405 82.0336 84.1349 73.1628 88.5773 67.6934C109.875 64.6802 122.755 50.6776 118.378 46.9301C115.696 44.6343 98.2472 48.7504 84.948 66.8888C79.9231 67.3783 71.463 65.2682 71.8541 57.7591C72.3802 47.6053 90.3976 44.865 99.6568 45.9426L100.174 45.3349C86.4222 43.6186 70 48.5619 70 58.7269C70 64.9587 76.274 68.0029 84.1799 68.0029C78.5079 76.6571 79.2479 83.0858 83.1558 85.2438C87.8092 87.8096 95.5407 85.2353 101.37 78.3536C103.283 77.563 105.199 76.3954 107.506 75.0816C102.951 80.6044 98.9027 85.5392 98.9027 85.5392H103.067C103.067 85.5392 107.028 79.4115 111.673 75.18C113.913 73.1403 116.338 71.8179 118.257 71.6154C119.402 71.4944 119.376 72.6817 118.276 74.1306C116.47 76.5192 114.63 78.9304 113.263 80.7844C111.603 83.0352 111.425 85.0918 112.948 85.8008C115.204 86.8503 119.154 83.9186 122.235 81.2093C121.99 82.6385 122.421 85.1903 125.003 85.8149C128.109 86.5633 131.967 84.5517 136.057 80.0389C139.282 79.2989 145.201 74.7974 145.39 74.6258C145.339 74.7552 140.362 81.1024 129.347 95.6339C129.347 95.6395 132.479 95.6339 132.479 95.6339C132.479 95.6339 143.53 81.4456 143.538 81.4569C147.626 76.1816 153.791 72.1415 154.871 72.1134C155.698 72.0908 154.713 73.717 153.329 75.5767C151.796 77.6362 150.218 79.7097 149.298 81.0602C147.992 82.9789 147.303 85.1537 149.351 85.9021C151.917 86.8418 158.357 82.0083 158.973 81.5019C158.928 81.8789 158.427 84.8499 161.038 85.7727C164.614 87.0416 169.287 82.9255 169.287 82.9255C169.287 82.9255 168.964 85.3225 170.902 85.8768C174.945 87.0331 182.921 79.5634 187.986 72.043C189.71 72.0543 189.043 72.9771 188.728 73.5313C188.416 74.0884 186.449 76.6627 184.348 79.5634C182.246 82.4641 181.312 85.1228 183.94 85.8993C187.006 86.8052 193.612 81.5525 193.612 81.5525C193.216 83.8061 194.063 85.0806 195.441 85.7108C198.283 87.0078 202.838 83.6823 203.471 83.1618C203.327 83.6457 203.215 85.5364 204.591 85.8993C209.511 87.1963 218.205 76.1704 218.205 76.1704L217.234 76.0916C217.234 76.0916 215.892 77.8134 213.639 79.9967C211.011 82.54 207.646 85.1594 206.622 84.5742C205.823 84.1184 208.082 80.5594 209.39 78.725C210.485 77.186 229.504 50.5482 229.504 50.5482H226.558V50.551ZM89.4073 66.3092C101.632 52.1153 115.654 46.8457 117.263 47.9007C120.353 49.932 103.728 63.9037 89.4073 66.3092ZM115.975 68.529C118.757 64.8068 129.128 51.2516 131.154 52.0872C131.924 52.4023 128.121 60.2996 115.975 68.529ZM136.997 76.01C134.628 74.7608 131.682 78.2186 134.029 79.7209C131.218 83.0071 126.68 85.5533 125.361 84.7936C121.509 82.571 132.11 71.711 136.207 71.8179C138.812 71.8798 137.681 74.8593 136.997 76.01ZM171.667 79.223C169.203 81.9998 163.722 86.0147 162.068 84.8611C158.644 82.4781 170.674 69.992 174.031 72.0768C175.803 73.1768 174.394 76.1507 171.667 79.223ZM204.88 79.9545C201.94 83.37 198.243 85.6855 196.682 84.6304C193.199 82.2756 204.923 69.3646 207.961 72.1584C209.599 73.6636 207.472 76.9441 204.88 79.9545Z" fill="#010202"/>
<path d="M70.031 101.604V101.984H71.3421V104.913H71.7303V101.984H73.0442V101.604H70.031Z" fill="#010202"/>
<path d="M77.0111 101.604V102.91H75.1711V101.604H74.7772V104.913H75.1711V103.292H77.0111V104.913H77.3966V101.604H77.0111Z" fill="#010202"/>
<path d="M79.9062 101.604V104.913H82.4862V104.53H80.2945V103.334H81.5437V102.955H80.2945V101.984H82.3596V101.604H79.9062Z" fill="#010202"/>
<path d="M89.3454 102.17L90.0347 103.635H88.6646L89.3454 102.17ZM89.1823 101.604L87.6545 104.913H88.0709L88.4817 104.024H90.2035L90.6256 104.913H91.0476L89.503 101.604H89.1823Z" fill="#010202"/>
<path d="M94.8402 103.078C95.2369 103.078 95.4367 102.898 95.4367 102.538C95.4367 102.367 95.3888 102.232 95.2904 102.133C95.1919 102.035 95.0484 101.987 94.8599 101.987H93.4644V103.078H94.8402ZM93.0762 101.604H94.8627C95.1722 101.604 95.4114 101.686 95.583 101.846C95.7546 102.006 95.839 102.234 95.839 102.524C95.839 102.642 95.8221 102.752 95.7884 102.856C95.7546 102.96 95.704 103.05 95.6421 103.132C95.5802 103.213 95.5014 103.284 95.4114 103.34C95.3213 103.396 95.2172 103.436 95.1019 103.455L95.8812 104.91H95.4536L94.6714 103.461H93.4644V104.91H93.0762V101.604V101.604Z" fill="#010202"/>
<path d="M97.3412 101.604V101.984H98.6551V104.913H99.0433V101.984H100.354V101.604H97.3412Z" fill="#010202"/>
<path d="M102.49 101.584H102.096V104.924H102.49V101.584Z" fill="#010202"/>
<path d="M104.923 104.058C105.146 104.243 105.376 104.381 105.616 104.474C105.852 104.57 106.085 104.615 106.316 104.615C106.468 104.615 106.603 104.598 106.721 104.564C106.839 104.53 106.944 104.48 107.025 104.418C107.107 104.356 107.171 104.28 107.219 104.195C107.264 104.111 107.29 104.021 107.29 103.922C107.29 103.771 107.23 103.641 107.109 103.529C106.989 103.419 106.806 103.351 106.561 103.332C106.426 103.32 106.299 103.309 106.184 103.301C106.066 103.292 105.953 103.284 105.846 103.27C105.737 103.258 105.635 103.242 105.542 103.216C105.447 103.194 105.36 103.163 105.278 103.121C104.983 102.969 104.833 102.741 104.833 102.44C104.833 102.313 104.862 102.195 104.918 102.085C104.974 101.976 105.056 101.877 105.16 101.793C105.264 101.708 105.393 101.644 105.542 101.596C105.692 101.548 105.858 101.525 106.043 101.525C106.308 101.525 106.567 101.57 106.817 101.663C107.067 101.756 107.306 101.888 107.534 102.066L107.309 102.409C106.921 102.077 106.499 101.914 106.049 101.914C105.801 101.914 105.604 101.964 105.458 102.063C105.312 102.164 105.239 102.282 105.239 102.42C105.239 102.535 105.289 102.634 105.39 102.715C105.455 102.769 105.534 102.808 105.621 102.831C105.708 102.856 105.807 102.873 105.917 102.887C106.024 102.898 106.142 102.91 106.268 102.915C106.395 102.921 106.53 102.932 106.673 102.949C107.003 102.991 107.256 103.101 107.433 103.281C107.61 103.461 107.703 103.678 107.703 103.931C107.703 104.074 107.672 104.209 107.61 104.339C107.548 104.468 107.461 104.581 107.343 104.676C107.228 104.772 107.084 104.848 106.913 104.907C106.741 104.963 106.544 104.994 106.325 104.994C106.015 104.994 105.728 104.947 105.464 104.854C105.196 104.761 104.943 104.612 104.701 104.412L104.923 104.058Z" fill="#010202"/>
<path d="M111.124 102.17L111.814 103.635H110.444L111.124 102.17ZM110.961 101.604L109.433 104.913H109.85L110.261 104.024H111.982L112.404 104.913H112.827L111.282 101.604H110.961Z" fill="#010202"/>
<path d="M117.098 101.604V104.077L115.075 101.604H114.872V104.913H115.258V102.437L117.289 104.913H117.486V101.604H117.098Z" fill="#010202"/>
<path d="M124.84 104.612C125.014 104.612 125.175 104.578 125.321 104.51C125.47 104.443 125.597 104.35 125.707 104.232C125.816 104.114 125.901 103.973 125.963 103.807C126.024 103.644 126.055 103.464 126.055 103.267C126.055 103.07 126.024 102.89 125.963 102.724C125.901 102.558 125.816 102.417 125.707 102.296C125.6 102.178 125.47 102.082 125.321 102.018C125.172 101.95 125.012 101.916 124.84 101.916C124.666 101.916 124.505 101.95 124.356 102.018C124.207 102.085 124.08 102.178 123.971 102.296C123.861 102.414 123.777 102.558 123.715 102.724C123.653 102.89 123.622 103.07 123.622 103.267C123.622 103.464 123.653 103.644 123.715 103.807C123.777 103.97 123.861 104.114 123.971 104.235C124.078 104.356 124.207 104.449 124.356 104.513C124.505 104.578 124.666 104.612 124.84 104.612ZM124.84 104.997C124.609 104.997 124.393 104.955 124.196 104.868C123.996 104.781 123.827 104.662 123.684 104.508C123.54 104.353 123.43 104.173 123.349 103.962C123.267 103.751 123.228 103.52 123.228 103.264C123.228 103.014 123.27 102.783 123.349 102.572C123.43 102.358 123.543 102.175 123.684 102.021C123.824 101.866 123.996 101.745 124.196 101.658C124.395 101.57 124.609 101.528 124.84 101.528C125.071 101.528 125.287 101.57 125.484 101.658C125.684 101.742 125.856 101.863 125.999 102.021C126.145 102.175 126.255 102.358 126.337 102.572C126.418 102.786 126.458 103.017 126.458 103.264C126.458 103.517 126.418 103.751 126.337 103.962C126.255 104.173 126.143 104.353 125.999 104.508C125.856 104.662 125.684 104.781 125.484 104.868C125.287 104.955 125.071 104.997 124.84 104.997Z" fill="#010202"/>
<path d="M128.709 101.604V104.913H129.097V103.334H130.346V102.955H129.097V101.984H131.162V101.604H128.709Z" fill="#010202"/>
<path d="M136.631 101.604V104.913H139.211V104.53H137.019V103.334H138.269V102.955H137.019V101.984H139.085V101.604H136.631Z" fill="#010202"/>
<path d="M144.225 101.604L142.959 103.63L141.698 101.604H141.338V104.913H141.721V102.327L142.959 104.285L144.197 102.327V104.913H144.577V101.604H144.225Z" fill="#010202"/>
<path d="M148.423 104.612C148.597 104.612 148.757 104.578 148.904 104.51C149.053 104.443 149.179 104.35 149.289 104.232C149.399 104.114 149.483 103.973 149.545 103.807C149.607 103.644 149.638 103.464 149.638 103.267C149.638 103.07 149.607 102.89 149.545 102.724C149.483 102.558 149.399 102.417 149.289 102.296C149.182 102.178 149.053 102.082 148.904 102.018C148.755 101.95 148.594 101.916 148.423 101.916C148.248 101.916 148.088 101.95 147.939 102.018C147.79 102.085 147.663 102.178 147.553 102.296C147.443 102.414 147.359 102.558 147.297 102.724C147.235 102.89 147.204 103.07 147.204 103.267C147.204 103.464 147.235 103.644 147.297 103.807C147.359 103.97 147.443 104.114 147.553 104.235C147.66 104.356 147.79 104.449 147.939 104.513C148.088 104.578 148.248 104.612 148.423 104.612ZM148.423 104.997C148.192 104.997 147.975 104.955 147.778 104.868C147.579 104.781 147.41 104.662 147.266 104.508C147.123 104.353 147.013 104.173 146.931 103.962C146.85 103.751 146.81 103.52 146.81 103.264C146.81 103.014 146.853 102.783 146.931 102.572C147.013 102.358 147.126 102.175 147.266 102.021C147.407 101.866 147.579 101.745 147.778 101.658C147.978 101.57 148.192 101.528 148.423 101.528C148.653 101.528 148.87 101.57 149.067 101.658C149.267 101.742 149.438 101.863 149.582 102.021C149.725 102.175 149.838 102.358 149.919 102.572C150.001 102.786 150.04 103.017 150.04 103.264C150.04 103.517 150.001 103.751 149.919 103.962C149.838 104.173 149.725 104.353 149.582 104.508C149.438 104.662 149.264 104.781 149.067 104.868C148.87 104.955 148.656 104.997 148.423 104.997Z" fill="#010202"/>
<path d="M151.523 101.604V101.984H152.837V104.913H153.223V101.984H154.536V101.604H151.523Z" fill="#010202"/>
<path d="M156.672 101.584H156.278V104.924H156.672V101.584Z" fill="#010202"/>
<path d="M160.54 104.612C160.715 104.612 160.875 104.578 161.021 104.51C161.17 104.443 161.297 104.35 161.407 104.232C161.516 104.114 161.601 103.973 161.663 103.807C161.725 103.644 161.756 103.464 161.756 103.267C161.756 103.07 161.725 102.89 161.663 102.724C161.601 102.558 161.516 102.417 161.407 102.296C161.3 102.178 161.17 102.082 161.021 102.018C160.872 101.95 160.712 101.916 160.54 101.916C160.366 101.916 160.205 101.95 160.056 102.018C159.907 102.085 159.781 102.178 159.671 102.296C159.561 102.414 159.477 102.558 159.415 102.724C159.353 102.89 159.322 103.07 159.322 103.267C159.322 103.464 159.353 103.644 159.415 103.807C159.477 103.97 159.561 104.114 159.671 104.235C159.778 104.356 159.907 104.449 160.056 104.513C160.205 104.578 160.366 104.612 160.54 104.612ZM160.54 104.997C160.31 104.997 160.093 104.955 159.896 104.868C159.696 104.781 159.527 104.662 159.384 104.508C159.24 104.353 159.131 104.173 159.049 103.962C158.967 103.751 158.928 103.52 158.928 103.264C158.928 103.014 158.97 102.783 159.049 102.572C159.131 102.358 159.243 102.175 159.384 102.021C159.525 101.866 159.696 101.745 159.896 101.658C160.096 101.57 160.31 101.528 160.54 101.528C160.771 101.528 160.985 101.57 161.185 101.658C161.384 101.742 161.556 101.863 161.699 102.021C161.846 102.175 161.955 102.358 162.037 102.572C162.119 102.786 162.158 103.017 162.158 103.264C162.158 103.517 162.119 103.751 162.037 103.962C161.955 104.173 161.843 104.353 161.699 104.508C161.556 104.662 161.384 104.781 161.185 104.868C160.985 104.955 160.771 104.997 160.54 104.997Z" fill="#010202"/>
<path d="M166.634 101.604V104.077L164.611 101.604H164.409V104.913H164.797V102.437L166.825 104.913H167.022V101.604H166.634Z" fill="#010202"/>
<path d="M169.45 104.058C169.673 104.243 169.903 104.381 170.142 104.474C170.379 104.57 170.612 104.615 170.843 104.615C170.995 104.615 171.13 104.598 171.248 104.564C171.366 104.53 171.47 104.48 171.552 104.418C171.634 104.356 171.698 104.28 171.746 104.195C171.791 104.111 171.816 104.021 171.816 103.922C171.816 103.771 171.757 103.641 171.636 103.529C171.515 103.419 171.332 103.351 171.088 103.332C170.953 103.32 170.826 103.309 170.711 103.301C170.593 103.292 170.48 103.284 170.373 103.27C170.263 103.258 170.162 103.242 170.069 103.216C169.976 103.194 169.889 103.163 169.808 103.121C169.512 102.969 169.363 102.741 169.363 102.44C169.363 102.313 169.391 102.195 169.447 102.085C169.504 101.976 169.585 101.877 169.689 101.793C169.796 101.708 169.923 101.644 170.069 101.596C170.218 101.548 170.384 101.525 170.57 101.525C170.835 101.525 171.093 101.57 171.344 101.663C171.594 101.756 171.833 101.888 172.061 102.066L171.836 102.409C171.448 102.077 171.026 101.914 170.576 101.914C170.328 101.914 170.131 101.964 169.985 102.063C169.839 102.164 169.765 102.282 169.765 102.42C169.765 102.535 169.816 102.634 169.917 102.715C169.982 102.769 170.061 102.808 170.148 102.831C170.235 102.856 170.334 102.873 170.443 102.887C170.55 102.898 170.669 102.91 170.795 102.915C170.922 102.921 171.057 102.932 171.2 102.949C171.529 102.991 171.783 103.101 171.96 103.281C172.14 103.461 172.23 103.678 172.23 103.931C172.23 104.074 172.199 104.209 172.137 104.339C172.075 104.468 171.988 104.581 171.87 104.676C171.755 104.772 171.611 104.848 171.439 104.907C171.268 104.963 171.074 104.994 170.851 104.994C170.542 104.994 170.255 104.947 169.99 104.854C169.723 104.761 169.47 104.612 169.228 104.412L169.45 104.058Z" fill="#010202"/>
<path d="M180.457 103.138H177.564V103.388H180.457V103.138Z" fill="#010202"/>
<path d="M185.915 104.058C186.137 104.243 186.368 104.381 186.607 104.474C186.843 104.57 187.077 104.615 187.307 104.615C187.459 104.615 187.594 104.598 187.713 104.564C187.831 104.53 187.935 104.48 188.016 104.418C188.098 104.356 188.163 104.28 188.211 104.195C188.256 104.111 188.281 104.021 188.281 103.922C188.281 103.771 188.222 103.641 188.101 103.529C187.98 103.419 187.797 103.351 187.552 103.332C187.417 103.32 187.291 103.309 187.175 103.301C187.057 103.292 186.944 103.284 186.838 103.27C186.728 103.258 186.627 103.242 186.534 103.216C186.441 103.194 186.354 103.163 186.272 103.121C185.977 102.969 185.828 102.741 185.828 102.44C185.828 102.313 185.856 102.195 185.912 102.085C185.968 101.976 186.05 101.877 186.154 101.793C186.258 101.708 186.387 101.644 186.534 101.596C186.683 101.548 186.849 101.525 187.035 101.525C187.299 101.525 187.558 101.57 187.808 101.663C188.059 101.756 188.298 101.888 188.526 102.066L188.301 102.409C187.912 102.077 187.49 101.914 187.04 101.914C186.793 101.914 186.596 101.964 186.449 102.063C186.303 102.164 186.23 102.282 186.23 102.42C186.23 102.535 186.281 102.634 186.382 102.715C186.447 102.769 186.525 102.808 186.613 102.831C186.7 102.856 186.798 102.873 186.908 102.887C187.015 102.898 187.133 102.91 187.26 102.915C187.386 102.921 187.521 102.932 187.665 102.949C187.994 102.991 188.247 103.101 188.424 103.281C188.602 103.461 188.694 103.678 188.694 103.931C188.694 104.074 188.664 104.209 188.602 104.339C188.54 104.468 188.453 104.581 188.334 104.676C188.219 104.772 188.076 104.848 187.904 104.907C187.732 104.963 187.538 104.994 187.316 104.994C187.006 104.994 186.719 104.947 186.455 104.854C186.188 104.761 185.934 104.612 185.693 104.412L185.915 104.058Z" fill="#010202"/>
<path d="M191.404 101.584H191.01V104.924H191.404V101.584Z" fill="#010202"/>
<path d="M196.133 101.604V104.077L194.11 101.604H193.905V104.913H194.293V102.437L196.325 104.913H196.519V101.604H196.133Z" fill="#010202"/>
<path d="M201.817 104.103C201.67 104.392 201.473 104.615 201.226 104.769C200.981 104.924 200.697 105 200.382 105C200.151 105 199.934 104.958 199.737 104.871C199.538 104.783 199.369 104.665 199.225 104.513C199.085 104.359 198.972 104.178 198.891 103.967C198.809 103.756 198.77 103.526 198.77 103.27C198.77 103.022 198.809 102.789 198.891 102.578C198.972 102.364 199.085 102.181 199.225 102.026C199.369 101.871 199.54 101.75 199.737 101.663C199.937 101.576 200.151 101.534 200.382 101.534C200.671 101.534 200.933 101.601 201.169 101.736C201.406 101.871 201.6 102.063 201.743 102.308L201.42 102.552C201.319 102.353 201.178 102.198 200.995 102.085C200.812 101.976 200.607 101.919 200.379 101.919C200.204 101.919 200.044 101.953 199.895 102.021C199.746 102.088 199.619 102.181 199.512 102.299C199.403 102.417 199.318 102.561 199.256 102.727C199.194 102.893 199.163 103.073 199.163 103.27C199.163 103.467 199.194 103.647 199.256 103.81C199.318 103.973 199.403 104.117 199.512 104.238C199.619 104.359 199.749 104.451 199.895 104.516C200.044 104.581 200.204 104.615 200.379 104.615C200.621 104.615 200.837 104.55 201.029 104.423C201.22 104.297 201.378 104.108 201.501 103.858L201.817 104.103Z" fill="#010202"/>
<path d="M204.078 101.604V104.913H206.658V104.53H204.467V103.334H205.716V102.955H204.467V101.984H206.532V101.604H204.078Z" fill="#010202"/>
<path d="M212.781 101.75H212.387V104.93H212.781V101.75Z" fill="#010202"/>
<path d="M217.78 102.524C217.78 102.4 217.707 102.296 217.558 102.209C217.409 102.122 217.192 102.077 216.908 102.077C216.627 102.077 216.41 102.122 216.264 102.209C216.114 102.296 216.041 102.406 216.041 102.538C216.041 102.665 216.114 102.766 216.258 102.842C216.401 102.918 216.618 102.955 216.908 102.955C217.198 102.955 217.414 102.918 217.561 102.842C217.707 102.763 217.78 102.659 217.78 102.524ZM215.825 103.936C215.825 104.133 215.918 104.294 216.103 104.42C216.289 104.547 216.556 104.612 216.908 104.612C217.257 104.612 217.524 104.547 217.71 104.42C217.893 104.294 217.985 104.133 217.985 103.936C217.985 103.709 217.895 103.551 217.713 103.467C217.532 103.382 217.265 103.34 216.911 103.34C216.556 103.34 216.286 103.382 216.103 103.467C215.918 103.551 215.825 103.706 215.825 103.936ZM217.856 103.121C218.211 103.295 218.388 103.568 218.388 103.931C218.388 104.086 218.354 104.229 218.289 104.361C218.225 104.491 218.126 104.603 218 104.699C217.873 104.792 217.718 104.865 217.532 104.918C217.35 104.972 217.141 104.997 216.905 104.997C216.43 104.997 216.064 104.899 215.805 104.702C215.546 104.505 215.417 104.249 215.417 103.934C215.417 103.562 215.597 103.289 215.954 103.118C215.735 102.966 215.625 102.774 215.625 102.541C215.625 102.291 215.737 102.088 215.957 101.93C216.179 101.773 216.494 101.694 216.902 101.694C217.31 101.694 217.625 101.773 217.848 101.93C218.07 102.088 218.18 102.291 218.18 102.541C218.185 102.774 218.075 102.969 217.856 103.121Z" fill="#010202"/>
<path d="M221.173 103.523C221.187 103.672 221.235 103.81 221.314 103.939C221.393 104.071 221.497 104.187 221.62 104.285C221.744 104.387 221.888 104.465 222.048 104.522C222.208 104.578 222.38 104.606 222.566 104.606C222.715 104.606 222.853 104.586 222.979 104.541C223.106 104.499 223.213 104.44 223.303 104.373C223.393 104.305 223.463 104.223 223.511 104.131C223.559 104.038 223.584 103.942 223.584 103.846C223.584 103.739 223.559 103.641 223.503 103.545C223.449 103.45 223.373 103.368 223.28 103.301C223.185 103.23 223.075 103.177 222.946 103.137C222.816 103.098 222.676 103.078 222.526 103.078C222.296 103.078 222.071 103.115 221.851 103.188C221.632 103.267 221.407 103.377 221.173 103.523ZM223.581 102.518C223.407 102.372 223.227 102.26 223.038 102.186C222.85 102.113 222.661 102.077 222.473 102.077C222.113 102.077 221.82 102.164 221.592 102.344C221.364 102.521 221.229 102.763 221.182 103.07C221.409 102.943 221.629 102.848 221.84 102.789C222.051 102.727 222.279 102.696 222.515 102.696C222.735 102.696 222.934 102.724 223.114 102.783C223.294 102.839 223.449 102.921 223.579 103.022C223.708 103.123 223.809 103.244 223.883 103.388C223.956 103.531 223.989 103.68 223.989 103.844C223.989 104.007 223.956 104.159 223.891 104.299C223.826 104.44 223.731 104.561 223.61 104.665C223.489 104.766 223.34 104.848 223.162 104.907C222.985 104.966 222.788 104.997 222.566 104.997C222.287 104.997 222.037 104.952 221.815 104.865C221.59 104.778 221.398 104.657 221.238 104.502C221.077 104.347 220.954 104.17 220.869 103.967C220.782 103.765 220.74 103.548 220.74 103.32C220.74 103.084 220.782 102.865 220.864 102.662C220.948 102.462 221.063 102.291 221.215 102.147C221.364 102.004 221.545 101.891 221.756 101.809C221.967 101.728 222.197 101.686 222.453 101.686C222.715 101.686 222.954 101.731 223.171 101.818C223.387 101.905 223.598 102.043 223.807 102.226L223.581 102.518Z" fill="#010202"/>
<path d="M227.757 104.617C227.954 104.617 228.131 104.586 228.291 104.519C228.452 104.454 228.589 104.364 228.705 104.249C228.82 104.133 228.91 103.998 228.975 103.844C229.04 103.689 229.07 103.523 229.07 103.346C229.07 103.171 229.04 103.005 228.975 102.848C228.91 102.693 228.823 102.558 228.708 102.443C228.595 102.327 228.457 102.237 228.294 102.173C228.131 102.108 227.954 102.074 227.757 102.074C227.56 102.074 227.38 102.108 227.219 102.173C227.056 102.237 226.918 102.327 226.806 102.443C226.693 102.558 226.603 102.693 226.541 102.848C226.476 103.002 226.446 103.168 226.446 103.346C226.446 103.523 226.476 103.686 226.541 103.844C226.606 103.998 226.696 104.133 226.811 104.249C226.927 104.364 227.064 104.454 227.228 104.519C227.385 104.584 227.562 104.617 227.757 104.617ZM227.757 104.997C227.501 104.997 227.27 104.955 227.059 104.871C226.848 104.786 226.668 104.671 226.519 104.522C226.37 104.373 226.251 104.198 226.17 103.996C226.085 103.796 226.046 103.579 226.046 103.346C226.046 103.112 226.088 102.896 226.17 102.693C226.251 102.49 226.37 102.316 226.519 102.167C226.671 102.021 226.851 101.902 227.059 101.818C227.27 101.731 227.501 101.689 227.757 101.689C228.01 101.689 228.243 101.731 228.454 101.818C228.665 101.905 228.845 102.021 228.997 102.167C229.149 102.313 229.267 102.49 229.349 102.693C229.431 102.896 229.473 103.115 229.473 103.346C229.473 103.579 229.431 103.796 229.349 103.996C229.265 104.195 229.149 104.373 228.997 104.522C228.845 104.671 228.663 104.786 228.454 104.871C228.243 104.955 228.01 104.997 227.757 104.997Z" fill="#010202"/>
</svg>
