<svg width="212" height="85" viewBox="0 0 212 88" fill="none" xmlns="http://www.w3.org/2000/svg">
<path d="M204.233 12.4549C204.233 12.4549 182.754 42.2274 182.56 42.4325C182.682 41.2451 182.47 39.795 181.25 38.9278C175.029 34.5162 165.788 45.358 163.622 48.2474C161.078 51.1297 153.726 56.7791 151.747 56.027C149.743 55.2642 156.943 45.9517 158.44 43.8539C161.693 39.2912 160.416 38.5499 155.608 38.5499C156.371 36.7472 156.476 33.9153 154.594 33.9153C151.107 33.9153 149.506 39.194 151.819 39.9677C149.592 46.1208 137.127 57.4268 134.9 56.2897C133.802 55.7284 135.335 52.9001 137.189 50.4208C141.175 45.0773 146.087 38.5535 146.087 38.5535H142.14C142.14 38.5535 139.783 41.8424 139.452 42.3246C139.56 41.1263 139.175 39.723 138.063 38.863C133.623 35.423 124.271 41.3998 118.578 49.4313C117.25 51.2376 109.226 56.6279 107.959 55.8975C107.196 55.4585 108.175 53.7529 109.327 52.1048C110.766 50.043 112.655 47.7257 114.141 45.5703C115.44 43.6847 117.142 41.3063 117.142 39.8885C117.142 38.8738 116.491 37.9022 114.562 37.9022C111.928 37.9022 106.229 41.9324 105.419 42.6556C106.236 41.6733 116.351 28.3091 116.351 28.3091H112.472C103.598 40.5326 92.5009 47.024 90.1584 47.9847C91.3026 46.5238 93.3357 42.6448 91.9072 40.0684C91.1659 38.7334 89.6798 37.8878 87.8302 37.8878C84.3507 37.8878 79.1943 39.8309 72.1595 48.1683C71.0009 49.676 63.6207 56.448 61.9583 55.8687C61.0155 55.5412 61.5085 54.2566 62.8686 52.4215C64.5095 50.2085 66.4598 47.83 67.8343 46.0093C70.7418 42.1519 70.821 40.2699 70.1697 39.1473C69.7019 38.3412 68.6656 37.9058 67.0751 37.9058C64.1173 37.9058 59.5438 40.18 58.1512 41.3854C58.1512 41.3854 59.8676 39.3236 59.9504 39.2084C60.8248 38.7083 70.8893 32.2493 75.9486 27.4599C82.5263 21.2348 85.297 14.272 82.8574 13.3041C78.7733 11.6884 67.4529 23.804 54.1859 41.1083C51.408 42.8247 48.5797 44.5735 45.5967 46.0452C46.8309 44.408 50.4364 36.8263 45.0101 34.3507C39.9257 32.0298 29.4582 38.6687 25.3777 46.9232H26.4068C30.4945 39.4531 41.7357 32.9977 44.8086 36.2074C46.8417 38.3304 43.8623 45.3868 38.4792 50.1078C32.3728 55.4657 25.2553 56.8618 21.9701 55.3577C16.2019 52.7201 22.078 41.3746 27.7598 34.3795C54.9991 30.5257 71.4723 12.6168 65.8733 7.82381C62.444 4.88758 40.1272 10.1519 23.1179 33.3503C16.6913 33.9873 5.87113 31.2885 6.3713 21.6846C7.04419 8.69821 30.0879 5.19343 41.93 6.57159L42.5921 5.79435C25.0034 3.60297 4 9.92523 4 22.9224C4 30.8927 12.0243 34.7861 22.1356 34.7861C14.8813 45.8545 15.8277 54.0767 20.8258 56.8366C26.7774 60.1183 36.6656 56.8258 44.1214 48.0243C46.5682 47.0132 49.0187 45.5199 51.9693 43.8395C46.1436 50.903 40.9656 57.2145 40.9656 57.2145H46.2911C46.2911 57.2145 51.3576 49.3773 57.2984 43.9654C60.1627 41.3566 63.2645 39.6654 65.7185 39.4063C67.183 39.2516 67.1507 40.7701 65.7437 42.6232C63.4336 45.6782 61.0803 48.762 59.3315 51.1333C57.2085 54.0119 56.9818 56.6423 58.9285 57.5491C61.8143 58.8913 66.8664 55.1418 70.8066 51.6766C70.4935 53.5046 71.044 56.7683 74.3473 57.5671C78.3199 58.5242 83.2532 55.9514 88.4851 50.1797C92.6088 49.2334 100.18 43.476 100.421 43.2565C100.356 43.4221 93.9906 51.5399 79.9031 70.1253C79.9031 70.1325 83.9081 70.1253 83.9081 70.1253C83.9081 70.1253 98.0423 51.9789 98.0531 51.9933C103.281 45.2464 111.165 40.0792 112.547 40.0432C113.605 40.0145 112.346 42.0943 110.575 44.4728C108.614 47.1068 106.596 49.7587 105.419 51.4859C103.749 53.94 102.868 56.7215 105.487 57.6786C108.769 58.8805 117.005 52.6986 117.794 52.0509C117.736 52.533 117.095 56.3329 120.435 57.5131C125.008 59.136 130.985 53.8716 130.985 53.8716C130.985 53.8716 130.571 56.9374 133.05 57.6463C138.221 59.1252 148.423 49.5716 154.899 39.9533C157.105 39.9677 156.252 41.1479 155.849 41.8568C155.45 42.5693 152.935 45.8617 150.247 49.5716C147.559 53.2815 146.364 56.6819 149.725 57.675C153.647 58.8337 162.096 52.1156 162.096 52.1156C161.589 54.9979 162.672 56.6279 164.435 57.434C168.069 59.0928 173.895 54.8396 174.705 54.1739C174.521 54.7928 174.377 57.2109 176.137 57.675C182.43 59.3339 193.549 45.232 193.549 45.232L192.308 45.1313C192.308 45.1313 190.591 47.3335 187.709 50.1258C184.348 53.3786 180.045 56.7287 178.735 55.9802C177.713 55.3973 180.602 50.8454 182.276 48.4993C183.675 46.531 208 12.4621 208 12.4621H204.233V12.4549ZM28.8177 32.6055C44.4524 14.4519 62.3865 7.71226 64.4447 9.06164C68.3993 11.6596 47.1368 29.5289 28.8177 32.6055ZM62.8003 35.4482C66.359 30.6876 79.6225 13.3508 82.2133 14.4195C83.1956 14.819 78.3307 24.9195 62.8003 35.4482ZM89.6834 45.0125C86.6536 43.4149 82.8861 47.8372 85.8872 49.7587C82.2924 53.9616 76.4883 57.2181 74.8007 56.2465C69.8746 53.4038 83.4331 39.5143 88.6723 39.651C92.0043 39.7338 90.5578 43.5408 89.6834 45.0125ZM134.029 49.1218C130.877 52.6734 123.868 57.8082 121.752 56.3329C117.373 53.2851 132.759 37.3157 137.052 39.9821C139.315 41.389 137.512 45.196 134.029 49.1218ZM176.507 50.0574C172.747 54.4258 168.019 57.3872 166.022 56.0378C161.567 53.026 176.561 36.5133 180.448 40.0864C182.542 42.0151 179.822 46.2108 176.507 50.0574Z" fill="black"/>
<path d="M4.03589 77.7465V78.2322H5.7163V81.9781H6.21288V78.2322H7.8897V77.7465H4.03589Z" fill="black"/>
<path d="M12.9635 77.7465V79.4197H10.6137V77.7465H10.11V81.9781H10.6137V79.9055H12.9635V81.9781H13.46V77.7465H12.9635Z" fill="black"/>
<path d="M16.6697 77.7465V81.9781H19.9693V81.4923H17.1662V79.9594H18.7639V79.4737H17.1662V78.2322H19.8038V77.7465H16.6697Z" fill="black"/>
<path d="M28.7385 78.4697L29.6201 80.3445H27.8677L28.7385 78.4697ZM28.5334 77.7465L26.5795 81.9781H27.112L27.6374 80.841H29.8396L30.3793 81.9781H30.9191L28.9436 77.7465H28.5334Z" fill="black"/>
<path d="M35.766 79.632C36.2734 79.632 36.5289 79.4017 36.5289 78.9411C36.5289 78.7216 36.4677 78.5489 36.3418 78.4229C36.2158 78.297 36.0323 78.2358 35.7912 78.2358H34.0101V79.632H35.766ZM33.5099 77.7465H35.7948C36.1906 77.7465 36.4965 77.8508 36.716 78.0559C36.9355 78.261 37.0434 78.5525 37.0434 78.9231C37.0434 79.0742 37.0219 79.2146 36.9787 79.3477C36.9355 79.4772 36.8707 79.596 36.7916 79.7003C36.7124 79.8047 36.6116 79.8947 36.4965 79.9666C36.3814 80.0386 36.2482 80.089 36.1007 80.1142L37.0974 81.9745H36.5505L35.5501 80.1213H34.0065V81.9745H33.5099V77.7465Z" fill="black"/>
<path d="M38.9685 77.7465V78.2322H40.6453V81.9781H41.1419V78.2322H42.8223V77.7465H38.9685Z" fill="black"/>
<path d="M45.5499 77.7249H45.0461V81.9961H45.5499V77.7249Z" fill="black"/>
<path d="M48.666 80.8879C48.9502 81.1254 49.2453 81.3017 49.5512 81.4205C49.8534 81.5428 50.1521 81.6004 50.4472 81.6004C50.6415 81.6004 50.8142 81.5788 50.9653 81.5356C51.1164 81.4924 51.2496 81.4277 51.3539 81.3485C51.4583 81.2693 51.541 81.1722 51.6022 81.0642C51.6598 80.9563 51.6922 80.8411 51.6922 80.7152C51.6922 80.5209 51.6166 80.3554 51.4619 80.2114C51.3072 80.0711 51.0733 79.9847 50.7602 79.9595C50.5875 79.9452 50.4256 79.9308 50.278 79.92C50.1269 79.9092 49.983 79.8984 49.8462 79.8804C49.7059 79.866 49.5764 79.8444 49.4576 79.812C49.3353 79.7832 49.2237 79.7436 49.1194 79.6897C48.7415 79.4954 48.5508 79.2039 48.5508 78.8189C48.5508 78.6569 48.5868 78.5058 48.6588 78.3655C48.7308 78.2252 48.8351 78.0992 48.9682 77.9913C49.1014 77.8833 49.2669 77.8005 49.4576 77.7394C49.6483 77.6782 49.8606 77.6494 50.0981 77.6494C50.4364 77.6494 50.7674 77.707 51.0877 77.8257C51.4079 77.9445 51.7138 78.1136 52.0052 78.3403L51.7174 78.7793C51.2208 78.3547 50.681 78.146 50.1053 78.146C49.7887 78.146 49.5368 78.2108 49.3497 78.3367C49.1626 78.4662 49.069 78.6174 49.069 78.7937C49.069 78.9412 49.1338 79.0672 49.2633 79.1715C49.3461 79.2399 49.4468 79.2903 49.5584 79.319C49.6699 79.3514 49.7959 79.373 49.9362 79.391C50.0729 79.4054 50.2241 79.4198 50.386 79.427C50.5479 79.4342 50.7206 79.4486 50.9041 79.4702C51.3251 79.5241 51.649 79.6645 51.8757 79.8948C52.106 80.1251 52.2211 80.4021 52.2211 80.726C52.2211 80.9095 52.1816 81.0822 52.1024 81.2477C52.0232 81.4133 51.9117 81.5572 51.7605 81.6795C51.613 81.8019 51.4295 81.899 51.21 81.9746C50.9905 82.0466 50.7386 82.0862 50.458 82.0862C50.0621 82.0862 49.6951 82.025 49.3569 81.9062C49.0186 81.7875 48.6912 81.5968 48.3817 81.3413L48.666 80.8879Z" fill="black"/>
<path d="M56.5932 78.4697L57.4748 80.3445H55.7224L56.5932 78.4697ZM56.3881 77.7465L54.4342 81.9781H54.9668L55.4921 80.841H57.6943L58.234 81.9781H58.7738L56.7983 77.7465H56.3881Z" fill="black"/>
<path d="M64.2324 77.7465V80.9094L61.6452 77.7465H61.3861V81.9781H61.8827V78.8152L64.4807 81.9781H64.729V77.7465H64.2324Z" fill="black"/>
<path d="M74.1385 81.5932C74.3616 81.5932 74.5667 81.55 74.7538 81.4636C74.9445 81.3773 75.1065 81.2585 75.2468 81.1074C75.3871 80.9563 75.4951 80.7764 75.5742 80.5641C75.6534 80.3554 75.693 80.1251 75.693 79.8732C75.693 79.6213 75.6534 79.391 75.5742 79.1787C75.4951 78.9664 75.3871 78.7865 75.2468 78.6318C75.11 78.4806 74.9445 78.3583 74.7538 78.2755C74.5631 78.1928 74.358 78.146 74.1385 78.146C73.9154 78.146 73.7103 78.1892 73.5196 78.2755C73.3289 78.3619 73.167 78.4806 73.0266 78.6318C72.8863 78.7829 72.7783 78.9664 72.6992 79.1787C72.62 79.391 72.5804 79.6213 72.5804 79.8732C72.5804 80.1251 72.62 80.3554 72.6992 80.5641C72.7783 80.7728 72.8863 80.9563 73.0266 81.111C73.1634 81.2657 73.3289 81.3845 73.5196 81.4672C73.7103 81.55 73.9154 81.5932 74.1385 81.5932ZM74.1385 82.0862C73.8434 82.0862 73.5664 82.0322 73.3145 81.9206C73.059 81.8091 72.8431 81.6579 72.6596 81.46C72.4761 81.2621 72.3357 81.0319 72.2314 80.762C72.127 80.4921 72.0767 80.197 72.0767 79.8696C72.0767 79.5493 72.1306 79.2543 72.2314 78.9844C72.3357 78.7109 72.4797 78.477 72.6596 78.2791C72.8395 78.0812 73.059 77.9265 73.3145 77.8149C73.57 77.7034 73.8434 77.6494 74.1385 77.6494C74.4336 77.6494 74.7106 77.7034 74.9625 77.8149C75.218 77.9229 75.4375 78.0776 75.621 78.2791C75.8081 78.477 75.9485 78.7109 76.0528 78.9844C76.1572 79.2579 76.2075 79.5529 76.2075 79.8696C76.2075 80.1934 76.1572 80.4921 76.0528 80.762C75.9485 81.0319 75.8045 81.2621 75.621 81.46C75.4375 81.6579 75.218 81.8091 74.9625 81.9206C74.707 82.0322 74.4336 82.0862 74.1385 82.0862Z" fill="black"/>
<path d="M79.0863 77.7465V81.9781H79.5793V79.9594H81.1769V79.4737H79.5793V78.2322H82.2204V77.7465H79.0863Z" fill="black"/>
<path d="M89.2156 77.7465V81.9781H92.5152V81.4923H89.7121V79.9594H91.3098V79.4737H89.7121V78.2322H92.3533V77.7465H89.2156Z" fill="black"/>
<path d="M98.9274 77.7465L97.3082 80.3372L95.6961 77.7465H95.2391V81.9781H95.7249V78.6748L97.3082 81.1793L98.8914 78.6748V81.9781H99.3808V77.7465H98.9274Z" fill="black"/>
<path d="M104.3 81.5932C104.523 81.5932 104.728 81.55 104.915 81.4636C105.106 81.3773 105.268 81.2585 105.408 81.1074C105.548 80.9563 105.656 80.7764 105.735 80.5641C105.815 80.3554 105.854 80.1251 105.854 79.8732C105.854 79.6213 105.815 79.391 105.735 79.1787C105.656 78.9664 105.548 78.7865 105.408 78.6318C105.271 78.4806 105.106 78.3583 104.915 78.2755C104.724 78.1892 104.519 78.146 104.3 78.146C104.077 78.146 103.872 78.1892 103.681 78.2755C103.49 78.3619 103.328 78.4806 103.188 78.6318C103.048 78.7829 102.94 78.9664 102.86 79.1787C102.781 79.391 102.742 79.6213 102.742 79.8732C102.742 80.1251 102.781 80.3554 102.86 80.5641C102.94 80.7728 103.048 80.9563 103.188 81.111C103.325 81.2657 103.49 81.3845 103.681 81.4672C103.872 81.55 104.077 81.5932 104.3 81.5932ZM104.3 82.0862C104.005 82.0862 103.728 82.0322 103.476 81.9206C103.224 81.8091 103.004 81.6579 102.821 81.46C102.637 81.2621 102.497 81.0319 102.393 80.762C102.288 80.4921 102.238 80.197 102.238 79.8696C102.238 79.5493 102.292 79.2543 102.393 78.9844C102.497 78.7109 102.641 78.477 102.821 78.2791C103.001 78.0812 103.22 77.9265 103.476 77.8149C103.731 77.7034 104.005 77.6494 104.3 77.6494C104.595 77.6494 104.872 77.7034 105.124 77.8149C105.379 77.9229 105.599 78.0776 105.782 78.2791C105.966 78.477 106.11 78.7109 106.214 78.9844C106.318 79.2579 106.369 79.5529 106.369 79.8696C106.369 80.1934 106.318 80.4921 106.214 80.762C106.11 81.0319 105.966 81.2621 105.782 81.46C105.599 81.6579 105.376 81.8091 105.124 81.9206C104.868 82.0322 104.595 82.0862 104.3 82.0862Z" fill="black"/>
<path d="M108.261 77.7465V78.2322H109.942V81.9781H110.438V78.2322H112.115V77.7465H108.261Z" fill="black"/>
<path d="M114.846 77.7249H114.343V81.9961H114.846V77.7249Z" fill="black"/>
<path d="M119.794 81.5932C120.017 81.5932 120.222 81.55 120.41 81.4636C120.6 81.3773 120.762 81.2585 120.903 81.1074C121.043 80.9563 121.151 80.7764 121.23 80.5641C121.309 80.3554 121.349 80.1251 121.349 79.8732C121.349 79.6213 121.309 79.391 121.23 79.1787C121.151 78.9664 121.043 78.7865 120.903 78.6318C120.766 78.4806 120.6 78.3583 120.41 78.2755C120.219 78.1892 120.014 78.146 119.794 78.146C119.571 78.146 119.366 78.1892 119.175 78.2755C118.985 78.3619 118.823 78.4806 118.682 78.6318C118.542 78.7829 118.434 78.9664 118.355 79.1787C118.276 79.391 118.236 79.6213 118.236 79.8732C118.236 80.1251 118.276 80.3554 118.355 80.5641C118.434 80.7728 118.542 80.9563 118.682 81.111C118.819 81.2657 118.985 81.3845 119.175 81.4672C119.366 81.55 119.571 81.5932 119.794 81.5932ZM119.794 82.0862C119.499 82.0862 119.222 82.0322 118.97 81.9206C118.715 81.8091 118.499 81.6579 118.315 81.46C118.132 81.2621 117.991 81.0319 117.887 80.762C117.783 80.4921 117.732 80.197 117.732 79.8696C117.732 79.5493 117.786 79.2543 117.887 78.9844C117.991 78.7109 118.135 78.477 118.315 78.2791C118.495 78.0812 118.715 77.9265 118.97 77.8149C119.226 77.7034 119.499 77.6494 119.794 77.6494C120.089 77.6494 120.363 77.7034 120.618 77.8149C120.874 77.9229 121.093 78.0776 121.277 78.2791C121.464 78.477 121.604 78.7109 121.709 78.9844C121.813 79.2579 121.863 79.5529 121.863 79.8696C121.863 80.1934 121.813 80.4921 121.709 80.762C121.604 81.0319 121.46 81.2621 121.277 81.46C121.093 81.6579 120.874 81.8091 120.618 81.9206C120.366 82.0322 120.089 82.0862 119.794 82.0862Z" fill="black"/>
<path d="M127.588 77.7465V80.9094L125.001 77.7465H124.742V81.9781H125.239V78.8152L127.833 81.9781H128.085V77.7465H127.588Z" fill="black"/>
<path d="M131.19 80.8879C131.474 81.1254 131.769 81.3017 132.075 81.4205C132.377 81.5428 132.676 81.6004 132.971 81.6004C133.166 81.6004 133.338 81.5788 133.489 81.5356C133.64 81.4924 133.774 81.4277 133.878 81.3485C133.982 81.2693 134.065 81.1722 134.126 81.0642C134.187 80.9563 134.216 80.8411 134.216 80.7152C134.216 80.5209 134.141 80.3554 133.986 80.2114C133.831 80.0711 133.597 79.9847 133.284 79.9595C133.112 79.9452 132.95 79.9308 132.802 79.92C132.651 79.9092 132.507 79.8984 132.37 79.8804C132.23 79.866 132.1 79.8444 131.982 79.812C131.863 79.7832 131.751 79.7436 131.647 79.6897C131.269 79.4954 131.078 79.2039 131.078 78.8189C131.078 78.6569 131.114 78.5058 131.186 78.3655C131.258 78.2252 131.363 78.0992 131.496 77.9913C131.633 77.8833 131.795 77.8005 131.982 77.7394C132.172 77.6782 132.385 77.6494 132.622 77.6494C132.96 77.6494 133.291 77.707 133.612 77.8257C133.932 77.9445 134.238 78.1136 134.529 78.3403L134.241 78.7793C133.745 78.3547 133.205 78.146 132.629 78.146C132.313 78.146 132.061 78.2108 131.874 78.3367C131.687 78.4662 131.593 78.6174 131.593 78.7937C131.593 78.9412 131.658 79.0672 131.787 79.1715C131.87 79.2399 131.971 79.2903 132.082 79.319C132.194 79.3514 132.32 79.373 132.46 79.391C132.597 79.4054 132.748 79.4198 132.91 79.427C133.072 79.4342 133.245 79.4486 133.428 79.4702C133.849 79.5241 134.173 79.6645 134.4 79.8948C134.63 80.1251 134.745 80.4021 134.745 80.726C134.745 80.9095 134.706 81.0822 134.626 81.2477C134.547 81.4133 134.436 81.5572 134.285 81.6795C134.137 81.8019 133.954 81.899 133.734 81.9746C133.515 82.0466 133.266 82.0862 132.982 82.0862C132.586 82.0862 132.219 82.025 131.881 81.9062C131.543 81.7875 131.215 81.5968 130.906 81.3413L131.19 80.8879Z" fill="black"/>
<path d="M145.267 79.7112H141.568V80.0314H145.267V79.7112Z" fill="black"/>
<path d="M152.247 80.8879C152.532 81.1254 152.827 81.3017 153.133 81.4205C153.435 81.5428 153.734 81.6004 154.029 81.6004C154.223 81.6004 154.396 81.5788 154.547 81.5356C154.698 81.4924 154.831 81.4277 154.935 81.3485C155.04 81.2693 155.122 81.1722 155.184 81.0642C155.241 80.9563 155.274 80.8411 155.274 80.7152C155.274 80.5209 155.198 80.3554 155.043 80.2114C154.889 80.0711 154.655 79.9847 154.342 79.9595C154.169 79.9452 154.007 79.9308 153.859 79.92C153.708 79.9092 153.564 79.8984 153.428 79.8804C153.287 79.866 153.158 79.8444 153.039 79.812C152.92 79.7832 152.809 79.7436 152.704 79.6897C152.327 79.4954 152.136 79.2039 152.136 78.8189C152.136 78.6569 152.172 78.5058 152.244 78.3655C152.316 78.2252 152.42 78.0992 152.553 77.9913C152.686 77.8833 152.852 77.8005 153.039 77.7394C153.23 77.6782 153.442 77.6494 153.68 77.6494C154.018 77.6494 154.349 77.707 154.669 77.8257C154.989 77.9445 155.295 78.1136 155.587 78.3403L155.299 78.7793C154.802 78.3547 154.262 78.146 153.687 78.146C153.37 78.146 153.118 78.2108 152.931 78.3367C152.744 78.4662 152.65 78.6174 152.65 78.7937C152.65 78.9412 152.715 79.0672 152.845 79.1715C152.927 79.2399 153.028 79.2903 153.14 79.319C153.251 79.3514 153.377 79.373 153.518 79.391C153.654 79.4054 153.805 79.4198 153.967 79.427C154.129 79.4342 154.302 79.4486 154.486 79.4702C154.907 79.5241 155.23 79.6645 155.457 79.8948C155.687 80.1251 155.803 80.4021 155.803 80.726C155.803 80.9095 155.763 81.0822 155.684 81.2477C155.605 81.4133 155.493 81.5572 155.342 81.6795C155.194 81.8019 155.011 81.899 154.791 81.9746C154.572 82.0466 154.324 82.0862 154.039 82.0862C153.644 82.0862 153.277 82.025 152.938 81.9062C152.596 81.7875 152.273 81.5968 151.963 81.3413L152.247 80.8879Z" fill="black"/>
<path d="M159.268 77.7249H158.764V81.9961H159.268V77.7249Z" fill="black"/>
<path d="M165.317 77.7465V80.9094L162.729 77.7465H162.47V81.9781H162.963V78.8152L165.561 81.9781H165.813V77.7465H165.317Z" fill="black"/>
<path d="M172.589 80.9419C172.402 81.3125 172.15 81.5968 171.833 81.7947C171.52 81.9926 171.157 82.0897 170.754 82.0897C170.459 82.0897 170.181 82.0358 169.93 81.9242C169.674 81.8127 169.458 81.6616 169.275 81.4672C169.095 81.2693 168.951 81.039 168.846 80.7692C168.742 80.4993 168.692 80.2042 168.692 79.8768C168.692 79.5601 168.742 79.2615 168.846 78.9916C168.951 78.7181 169.095 78.4842 169.275 78.2863C169.458 78.0884 169.678 77.9337 169.93 77.8221C170.181 77.7106 170.459 77.6566 170.754 77.6566C171.124 77.6566 171.459 77.743 171.761 77.9157C172.063 78.0884 172.312 78.3331 172.495 78.6462L172.081 78.9592C171.952 78.7037 171.772 78.5058 171.538 78.3619C171.304 78.2216 171.041 78.1496 170.75 78.1496C170.527 78.1496 170.322 78.1928 170.131 78.2791C169.94 78.3655 169.778 78.4842 169.642 78.6354C169.501 78.7865 169.393 78.97 169.314 79.1823C169.235 79.3946 169.196 79.6249 169.196 79.8768C169.196 80.1287 169.235 80.359 169.314 80.5677C169.393 80.7764 169.501 80.9599 169.642 81.1146C169.778 81.2693 169.944 81.3881 170.131 81.4708C170.322 81.5536 170.527 81.5968 170.75 81.5968C171.059 81.5968 171.337 81.514 171.581 81.3521C171.826 81.1902 172.027 80.9491 172.186 80.6288L172.589 80.9419Z" fill="black"/>
<path d="M175.482 77.7465V81.9781H178.778V81.4923H175.975V79.9594H177.573V79.4737H175.975V78.2322H178.616V77.7465H175.482Z" fill="black"/>
<path d="M186.608 77.9336H186.104V81.9997H186.608V77.9336Z" fill="black"/>
<path d="M193.002 78.9233C193.002 78.765 192.909 78.6319 192.718 78.5203C192.527 78.4088 192.25 78.3512 191.887 78.3512C191.527 78.3512 191.25 78.4088 191.063 78.5203C190.872 78.6319 190.778 78.7722 190.778 78.9413C190.778 79.1032 190.872 79.2328 191.056 79.3299C191.239 79.4271 191.516 79.4739 191.887 79.4739C192.257 79.4739 192.534 79.4271 192.722 79.3299C192.909 79.2328 193.002 79.096 193.002 78.9233ZM190.505 80.7297C190.505 80.9816 190.624 81.1867 190.861 81.3486C191.099 81.5105 191.441 81.5933 191.89 81.5933C192.337 81.5933 192.678 81.5105 192.916 81.3486C193.15 81.1867 193.268 80.9816 193.268 80.7297C193.268 80.4382 193.153 80.2367 192.919 80.1288C192.689 80.0208 192.347 79.9668 191.894 79.9668C191.441 79.9668 191.095 80.0208 190.861 80.1288C190.62 80.2367 190.505 80.4382 190.505 80.7297ZM193.099 79.6862C193.553 79.9093 193.779 80.2583 193.779 80.7225C193.779 80.9204 193.736 81.1039 193.654 81.273C193.571 81.4386 193.445 81.5825 193.283 81.7048C193.121 81.8236 192.923 81.9171 192.686 81.9855C192.452 82.0539 192.185 82.0863 191.883 82.0863C191.275 82.0863 190.807 81.9603 190.476 81.7084C190.145 81.4565 189.98 81.1291 189.98 80.7261C189.98 80.2511 190.21 79.9021 190.667 79.6826C190.386 79.4883 190.246 79.2436 190.246 78.9449C190.246 78.6247 190.386 78.3656 190.67 78.1641C190.955 77.9626 191.358 77.8618 191.88 77.8618C192.401 77.8618 192.804 77.9626 193.089 78.1641C193.373 78.3656 193.513 78.6247 193.513 78.9449C193.52 79.2472 193.38 79.4919 193.099 79.6862Z" fill="black"/>
<path d="M197.345 80.2041C197.363 80.3949 197.425 80.5712 197.525 80.7367C197.626 80.9058 197.759 81.0533 197.917 81.1793C198.076 81.3088 198.259 81.4096 198.464 81.4816C198.67 81.5535 198.889 81.5895 199.127 81.5895C199.317 81.5895 199.494 81.5643 199.655 81.5067C199.817 81.4528 199.954 81.3772 200.069 81.2908C200.184 81.2009 200.274 81.1001 200.336 80.9814C200.397 80.8626 200.429 80.7403 200.429 80.6179C200.429 80.4812 200.397 80.3553 200.325 80.2329C200.256 80.1106 200.159 80.0062 200.041 79.9199C199.918 79.8299 199.778 79.7615 199.612 79.7112C199.447 79.6608 199.267 79.6356 199.076 79.6356C198.781 79.6356 198.493 79.6824 198.213 79.7759C197.928 79.8731 197.64 80.017 197.345 80.2041ZM200.422 78.9159C200.199 78.7288 199.969 78.5849 199.727 78.4913C199.486 78.3978 199.245 78.351 199.004 78.351C198.544 78.351 198.169 78.4626 197.878 78.6928C197.586 78.9195 197.414 79.229 197.353 79.6212C197.644 79.4593 197.925 79.3369 198.195 79.2614C198.464 79.1822 198.756 79.1426 199.058 79.1426C199.339 79.1426 199.594 79.1786 199.825 79.2542C200.055 79.3262 200.253 79.4305 200.418 79.56C200.584 79.6896 200.713 79.8479 200.807 80.0278C200.901 80.2077 200.944 80.402 200.944 80.6108C200.944 80.8195 200.9 81.0138 200.818 81.1937C200.735 81.3736 200.613 81.5283 200.458 81.6615C200.303 81.791 200.112 81.8954 199.886 81.9709C199.659 82.0465 199.407 82.0861 199.123 82.0861C198.767 82.0861 198.446 82.0285 198.162 81.9169C197.874 81.8054 197.63 81.6507 197.425 81.4528C197.219 81.2549 197.061 81.0282 196.953 80.7691C196.842 80.51 196.788 80.2329 196.788 79.9415C196.788 79.6392 196.842 79.3585 196.946 79.0995C197.054 78.844 197.201 78.6245 197.396 78.441C197.586 78.2574 197.817 78.1135 198.087 78.0092C198.356 77.9048 198.652 77.8508 198.979 77.8508C199.314 77.8508 199.619 77.9084 199.897 78.02C200.174 78.1315 200.444 78.3078 200.71 78.5417L200.422 78.9159Z" fill="black"/>
<path d="M205.762 81.6005C206.014 81.6005 206.24 81.5609 206.446 81.4745C206.651 81.3918 206.827 81.2766 206.974 81.1291C207.122 80.9816 207.237 80.8088 207.32 80.6109C207.403 80.413 207.442 80.2007 207.442 79.974C207.442 79.7509 207.403 79.5386 207.32 79.3371C207.237 79.1392 207.126 78.9665 206.978 78.819C206.834 78.6714 206.658 78.5563 206.449 78.4735C206.24 78.3908 206.014 78.3476 205.762 78.3476C205.51 78.3476 205.28 78.3908 205.075 78.4735C204.866 78.5563 204.69 78.6714 204.546 78.819C204.402 78.9665 204.287 79.1392 204.207 79.3371C204.125 79.535 204.085 79.7473 204.085 79.974C204.085 80.2007 204.125 80.4094 204.207 80.6109C204.29 80.8088 204.405 80.9816 204.553 81.1291C204.7 81.2766 204.877 81.3918 205.085 81.4745C205.29 81.5609 205.517 81.6005 205.762 81.6005ZM205.762 82.0863C205.434 82.0863 205.139 82.0323 204.869 81.9243C204.6 81.8164 204.369 81.6688 204.179 81.4781C203.988 81.2874 203.837 81.0643 203.732 80.8052C203.624 80.5498 203.574 80.2727 203.574 79.974C203.574 79.6754 203.628 79.3983 203.732 79.1392C203.837 78.8801 203.988 78.657 204.179 78.4663C204.373 78.2792 204.603 78.1281 204.869 78.0201C205.139 77.9086 205.434 77.8546 205.762 77.8546C206.086 77.8546 206.384 77.9086 206.654 78.0201C206.924 78.1317 207.154 78.2792 207.349 78.4663C207.543 78.6534 207.694 78.8801 207.799 79.1392C207.903 79.3983 207.957 79.679 207.957 79.974C207.957 80.2727 207.903 80.5498 207.799 80.8052C207.691 81.0607 207.543 81.2874 207.349 81.4781C207.154 81.6688 206.921 81.8164 206.654 81.9243C206.384 82.0359 206.089 82.0863 205.762 82.0863Z" fill="black"/>
</svg>
