<svg width="300" height="150" viewBox="0 0 300 150" fill="none" xmlns="http://www.w3.org/2000/svg">
<path d="M241.548 45.5925C241.548 45.5925 221.603 73.2398 221.422 73.4302C221.536 72.3275 221.339 70.9809 220.206 70.1756C214.428 66.079 205.848 76.1468 203.836 78.83C201.474 81.5065 194.647 86.7526 192.809 86.0543C190.948 85.3459 197.634 76.6982 199.024 74.7501C202.045 70.5131 200.859 69.8248 196.395 69.8248C197.103 68.1507 197.2 65.521 195.452 65.521C192.214 65.521 190.727 70.4229 192.876 71.1413C190.808 76.8552 179.233 87.3541 177.164 86.2982C176.145 85.7769 177.569 83.1505 179.29 80.8483C182.992 75.8862 187.553 69.8281 187.553 69.8281H183.887C183.887 69.8281 181.699 72.8822 181.391 73.33C181.492 72.2173 181.134 70.9141 180.102 70.1155C175.978 66.9211 167.294 72.4712 162.008 79.9294C160.775 81.6068 153.323 86.6123 152.147 85.934C151.439 85.5263 152.347 83.9425 153.417 82.4121C154.753 80.4974 156.508 78.3455 157.888 76.344C159.094 74.5931 160.674 72.3844 160.674 71.0678C160.674 70.1255 160.07 69.2233 158.278 69.2233C155.833 69.2233 150.54 72.9658 149.788 73.6374C150.546 72.7252 159.939 60.315 159.939 60.315H156.337C148.097 71.6659 137.792 77.6939 135.617 78.5861C136.679 77.2295 138.567 73.6274 137.241 71.2349C136.552 69.9952 135.172 69.21 133.455 69.21C130.224 69.21 125.435 71.0144 118.903 78.7565C117.827 80.1566 110.973 86.4452 109.43 85.9072C108.554 85.6032 109.012 84.4103 110.275 82.7061C111.799 80.6511 113.61 78.4424 114.886 76.7516C117.586 73.1696 117.66 71.422 117.055 70.3795C116.62 69.631 115.658 69.2267 114.181 69.2267C111.435 69.2267 107.188 71.3385 105.894 72.4579C105.894 72.4579 107.488 70.5432 107.565 70.4363C108.377 69.9718 117.723 63.9739 122.421 59.5264C128.529 53.7457 131.102 47.28 128.837 46.3811C125.044 44.8808 114.532 56.1315 102.212 72.2006C99.6325 73.7945 97.0061 75.4184 94.236 76.7851C95.3822 75.2647 98.7303 68.2242 93.6914 65.9253C88.9699 63.7701 79.2496 69.9351 75.4604 77.6004H76.416C80.2119 70.6635 90.6507 64.6689 93.5043 67.6495C95.3922 69.621 92.6255 76.1736 87.6266 80.5576C81.9562 85.533 75.3468 86.8295 72.296 85.4328C66.9397 82.9835 72.3963 72.4478 77.6724 65.952C102.967 62.3733 118.264 45.7429 113.065 41.2921C109.881 38.5654 89.157 43.454 73.3619 64.9964C67.3941 65.5778 57.3463 63.0717 57.8108 54.1533C58.4356 42.094 79.8344 38.8394 90.8311 40.1192L91.4459 39.3975C75.1129 37.3592 55.6088 43.2301 55.6088 55.3028C55.6088 62.7041 63.0602 66.3196 72.4497 66.3196C65.7133 76.5979 66.5921 84.2332 71.2334 86.7961C76.7602 89.8435 85.9425 86.7861 92.8661 78.6128C95.1382 77.6739 97.4138 76.2872 100.154 74.7267C94.7439 81.286 89.9356 87.1469 89.9356 87.1469H94.881C94.881 87.1469 99.5857 79.8692 105.102 74.8437C107.762 72.4211 110.643 70.8506 112.921 70.61C114.281 70.4664 114.251 71.8765 112.945 73.5973C110.8 76.4342 108.614 79.2978 106.99 81.4999C105.019 84.173 104.808 86.6156 106.616 87.4577C109.296 88.7041 113.987 85.2222 117.646 82.0044C117.356 83.7019 117.867 86.7326 120.934 87.4744C124.623 88.3632 129.204 85.9741 134.063 80.6144C137.892 79.7356 144.923 74.3892 145.147 74.1854C145.086 74.3391 139.175 81.8774 126.094 99.1361C126.094 99.1428 129.813 99.1361 129.813 99.1361C129.813 99.1361 142.938 82.2851 142.948 82.2985C147.803 76.0332 155.124 71.2349 156.407 71.2015C157.39 71.1747 156.22 73.1061 154.576 75.3148C152.755 77.7608 150.88 80.2234 149.788 81.8273C148.237 84.1062 147.419 86.6892 149.851 87.578C152.899 88.694 160.547 82.9534 161.279 82.3519C161.226 82.7997 160.631 86.3283 163.732 87.4243C167.979 88.9313 173.529 84.0427 173.529 84.0427C173.529 84.0427 173.145 86.8896 175.447 87.5479C180.249 88.9212 189.722 80.0497 195.736 71.1179C197.785 71.1313 196.993 72.2273 196.618 72.8856C196.247 73.5472 193.912 76.6046 191.416 80.0497C188.92 83.4947 187.81 86.6524 190.931 87.5746C194.573 88.6506 202.419 82.4121 202.419 82.4121C201.948 85.0886 202.954 86.6023 204.591 87.3508C207.966 88.8912 213.376 84.9416 214.128 84.3234C213.957 84.8981 213.824 87.1436 215.458 87.5746C221.302 89.1151 231.627 76.0199 231.627 76.0199L230.474 75.9263C230.474 75.9263 228.88 77.9713 226.204 80.5643C223.083 83.5849 219.086 86.6958 217.87 86.0008C216.921 85.4595 219.604 81.2325 221.158 79.0539C222.458 77.2261 245.046 45.5892 245.046 45.5892H241.548V45.5925ZM78.6582 64.308C93.1768 47.4504 109.831 41.1918 111.742 42.4449C115.411 44.8574 95.6662 61.4511 78.6582 64.308ZM110.212 66.9445C113.516 62.5237 125.833 46.4245 128.239 47.417C129.154 47.7912 124.637 57.1707 110.212 66.9445ZM135.179 75.8294C132.365 74.3458 128.867 78.4524 131.654 80.2368C128.316 84.1396 122.926 87.1636 121.359 86.2614C116.784 83.6217 129.375 70.7236 134.24 70.8506C137.334 70.9241 135.991 74.4627 135.179 75.8294ZM176.356 79.6453C173.429 82.9434 166.919 87.7116 164.955 86.3416C160.888 83.5114 175.176 68.682 179.163 71.158C181.268 72.4646 179.594 75.9965 176.356 79.6453ZM215.802 80.5141C212.31 84.5707 207.919 87.3207 206.065 86.0676C201.928 83.2708 215.852 67.9369 219.461 71.2549C221.405 73.0426 218.879 76.9388 215.802 80.5141Z" fill="#010202"/>
<path d="M55.6456 106.227V106.678H57.2028V110.156H57.6639V106.678H59.2243V106.227H55.6456Z" fill="#010202"/>
<path d="M63.9356 106.227V107.777H61.7503V106.227H61.2825V110.156H61.7503V108.232H63.9356V110.156H64.3934V106.227H63.9356Z" fill="#010202"/>
<path d="M67.374 106.227V110.156H70.4381V109.702H67.8351V108.282H69.3188V107.831H67.8351V106.678H70.2878V106.227H67.374Z" fill="#010202"/>
<path d="M78.5846 106.898L79.4033 108.639H77.776L78.5846 106.898ZM78.3908 106.227L76.5764 110.156H77.071L77.5588 109.1H79.6038L80.105 110.156H80.6062L78.7718 106.227H78.3908Z" fill="#010202"/>
<path d="M85.1106 107.978C85.5817 107.978 85.819 107.764 85.819 107.336C85.819 107.132 85.7622 106.972 85.6452 106.855C85.5283 106.738 85.3579 106.681 85.134 106.681H83.4766V107.978H85.1106ZM83.0155 106.227H85.1373C85.5049 106.227 85.7889 106.324 85.9927 106.514C86.1966 106.705 86.2968 106.975 86.2968 107.319C86.2968 107.46 86.2768 107.59 86.2367 107.714C86.1966 107.837 86.1364 107.944 86.0629 108.041C85.9894 108.138 85.8958 108.222 85.7889 108.288C85.682 108.355 85.5584 108.402 85.4214 108.425L86.3469 110.153H85.839L84.9101 108.432H83.4766V110.153H83.0155V106.227Z" fill="#010202"/>
<path d="M88.0811 106.227V106.678H89.6415V110.156H90.1026V106.678H91.6598V106.227H88.0811Z" fill="#010202"/>
<path d="M94.1961 106.203H93.7283V110.17H94.1961V106.203Z" fill="#010202"/>
<path d="M97.0862 109.141C97.3502 109.361 97.6242 109.525 97.9082 109.635C98.1889 109.749 98.4663 109.802 98.7403 109.802C98.9207 109.802 99.0811 109.782 99.2214 109.742C99.3618 109.702 99.4854 109.642 99.5823 109.568C99.6792 109.495 99.7561 109.405 99.8129 109.304C99.8663 109.204 99.8964 109.097 99.8964 108.98C99.8964 108.8 99.8262 108.646 99.6826 108.512C99.5389 108.382 99.3217 108.302 99.031 108.279C98.8706 108.265 98.7202 108.252 98.5832 108.242C98.4429 108.232 98.3092 108.222 98.1822 108.205C98.0519 108.192 97.9316 108.172 97.8214 108.142C97.7078 108.115 97.6042 108.078 97.5073 108.028C97.1564 107.847 96.9793 107.577 96.9793 107.219C96.9793 107.069 97.0127 106.929 97.0796 106.798C97.1464 106.668 97.2433 106.551 97.3669 106.451C97.4906 106.35 97.6443 106.274 97.8214 106.217C97.9985 106.16 98.1956 106.133 98.4161 106.133C98.7302 106.133 99.0377 106.187 99.335 106.297C99.6324 106.407 99.9165 106.564 100.187 106.775L99.9198 107.183C99.4587 106.788 98.9575 106.594 98.4228 106.594C98.1288 106.594 97.8949 106.655 97.7211 106.772C97.5474 106.892 97.4605 107.032 97.4605 107.196C97.4605 107.333 97.5206 107.45 97.6409 107.547C97.7178 107.61 97.8113 107.657 97.9149 107.684C98.0185 107.714 98.1355 107.734 98.2658 107.751C98.3928 107.764 98.5331 107.777 98.6835 107.784C98.8338 107.791 98.9942 107.804 99.1646 107.824C99.5556 107.874 99.8563 108.005 100.067 108.218C100.277 108.432 100.388 108.69 100.388 108.99C100.388 109.161 100.351 109.321 100.277 109.475C100.204 109.628 100.1 109.762 99.9599 109.876C99.8229 109.989 99.6525 110.08 99.4487 110.15C99.2448 110.217 99.0109 110.253 98.7503 110.253C98.3827 110.253 98.0419 110.197 97.7278 110.086C97.4104 109.976 97.1096 109.799 96.8223 109.562L97.0862 109.141Z" fill="#010202"/>
<path d="M104.451 106.898L105.27 108.639H103.642L104.451 106.898ZM104.257 106.227L102.443 110.156H102.937L103.425 109.1H105.47L105.971 110.156H106.472L104.638 106.227H104.257Z" fill="#010202"/>
<path d="M111.545 106.227V109.164L109.142 106.227H108.902V110.156H109.36V107.216L111.772 110.156H112.006V106.227H111.545Z" fill="#010202"/>
<path d="M120.74 109.799C120.948 109.799 121.138 109.759 121.312 109.679C121.489 109.598 121.639 109.488 121.77 109.348C121.9 109.208 122 109.04 122.074 108.843C122.147 108.649 122.184 108.436 122.184 108.202C122.184 107.968 122.147 107.754 122.074 107.557C122 107.36 121.9 107.193 121.77 107.049C121.643 106.909 121.489 106.795 121.312 106.718C121.135 106.638 120.944 106.598 120.74 106.598C120.533 106.598 120.343 106.638 120.166 106.718C119.989 106.798 119.838 106.909 119.708 107.049C119.578 107.189 119.477 107.36 119.404 107.557C119.33 107.754 119.294 107.968 119.294 108.202C119.294 108.436 119.33 108.649 119.404 108.843C119.477 109.037 119.578 109.208 119.708 109.351C119.835 109.495 119.989 109.605 120.166 109.682C120.343 109.759 120.533 109.799 120.74 109.799ZM120.74 110.257C120.466 110.257 120.209 110.207 119.975 110.103C119.738 109.999 119.538 109.859 119.367 109.675C119.197 109.492 119.066 109.278 118.969 109.027C118.873 108.776 118.826 108.502 118.826 108.198C118.826 107.901 118.876 107.627 118.969 107.376C119.066 107.122 119.2 106.905 119.367 106.721C119.534 106.538 119.738 106.394 119.975 106.29C120.213 106.187 120.466 106.137 120.74 106.137C121.014 106.137 121.272 106.187 121.506 106.29C121.743 106.391 121.947 106.534 122.117 106.721C122.291 106.905 122.421 107.122 122.518 107.376C122.615 107.63 122.662 107.904 122.662 108.198C122.662 108.499 122.615 108.776 122.518 109.027C122.421 109.278 122.288 109.492 122.117 109.675C121.947 109.859 121.743 109.999 121.506 110.103C121.272 110.207 121.014 110.257 120.74 110.257Z" fill="#010202"/>
<path d="M125.335 106.227V110.156H125.796V108.282H127.28V107.831H125.796V106.678H128.249V106.227H125.335Z" fill="#010202"/>
<path d="M134.745 106.227V110.156H137.809V109.702H135.206V108.282H136.689V107.831H135.206V106.678H137.658V106.227H134.745Z" fill="#010202"/>
<path d="M143.763 106.227L142.26 108.633L140.763 106.227H140.335V110.156H140.789V107.086L142.26 109.411L143.73 107.086V110.156H144.181V106.227H143.763Z" fill="#010202"/>
<path d="M148.749 109.799C148.956 109.799 149.146 109.759 149.32 109.679C149.497 109.598 149.647 109.488 149.778 109.348C149.908 109.208 150.008 109.04 150.082 108.843C150.155 108.649 150.192 108.436 150.192 108.202C150.192 107.968 150.155 107.754 150.082 107.557C150.008 107.36 149.908 107.193 149.778 107.049C149.651 106.909 149.497 106.795 149.32 106.718C149.143 106.638 148.952 106.598 148.749 106.598C148.541 106.598 148.351 106.638 148.174 106.718C147.997 106.798 147.846 106.909 147.716 107.049C147.586 107.189 147.486 107.36 147.412 107.557C147.339 107.754 147.302 107.968 147.302 108.202C147.302 108.436 147.339 108.649 147.412 108.843C147.486 109.037 147.586 109.208 147.716 109.351C147.843 109.495 147.997 109.605 148.174 109.682C148.351 109.759 148.541 109.799 148.749 109.799ZM148.749 110.257C148.475 110.257 148.217 110.207 147.983 110.103C147.746 109.999 147.546 109.859 147.375 109.675C147.205 109.492 147.075 109.278 146.978 109.027C146.881 108.776 146.834 108.502 146.834 108.198C146.834 107.901 146.884 107.627 146.978 107.376C147.075 107.122 147.208 106.905 147.375 106.721C147.542 106.538 147.746 106.394 147.983 106.29C148.221 106.187 148.475 106.137 148.749 106.137C149.023 106.137 149.28 106.187 149.514 106.29C149.751 106.391 149.955 106.534 150.125 106.721C150.296 106.905 150.429 107.122 150.526 107.376C150.623 107.63 150.67 107.904 150.67 108.198C150.67 108.499 150.623 108.776 150.526 109.027C150.429 109.278 150.296 109.492 150.125 109.675C149.955 109.859 149.748 109.999 149.514 110.103C149.28 110.207 149.026 110.257 148.749 110.257Z" fill="#010202"/>
<path d="M152.431 106.227V106.678H153.991V110.156H154.449V106.678H156.01V106.227H152.431Z" fill="#010202"/>
<path d="M158.546 106.203H158.078V110.17H158.546V106.203Z" fill="#010202"/>
<path d="M163.14 109.799C163.348 109.799 163.538 109.759 163.712 109.679C163.889 109.598 164.039 109.488 164.17 109.348C164.3 109.208 164.4 109.04 164.474 108.843C164.547 108.649 164.584 108.436 164.584 108.202C164.584 107.968 164.547 107.754 164.474 107.557C164.4 107.36 164.3 107.193 164.17 107.049C164.043 106.909 163.889 106.795 163.712 106.718C163.535 106.638 163.344 106.598 163.14 106.598C162.933 106.598 162.743 106.638 162.566 106.718C162.389 106.798 162.238 106.909 162.108 107.049C161.978 107.189 161.877 107.36 161.804 107.557C161.73 107.754 161.694 107.968 161.694 108.202C161.694 108.436 161.73 108.649 161.804 108.843C161.877 109.037 161.978 109.208 162.108 109.351C162.235 109.495 162.389 109.605 162.566 109.682C162.743 109.759 162.933 109.799 163.14 109.799ZM163.14 110.257C162.866 110.257 162.609 110.207 162.375 110.103C162.138 109.999 161.937 109.859 161.767 109.675C161.597 109.492 161.466 109.278 161.369 109.027C161.272 108.776 161.226 108.502 161.226 108.198C161.226 107.901 161.276 107.627 161.369 107.376C161.466 107.122 161.6 106.905 161.767 106.721C161.934 106.538 162.138 106.394 162.375 106.29C162.612 106.187 162.866 106.137 163.14 106.137C163.414 106.137 163.668 106.187 163.906 106.29C164.143 106.391 164.347 106.534 164.517 106.721C164.691 106.905 164.821 107.122 164.918 107.376C165.015 107.63 165.062 107.904 165.062 108.198C165.062 108.499 165.015 108.776 164.918 109.027C164.821 109.278 164.687 109.492 164.517 109.675C164.347 109.859 164.143 109.999 163.906 110.103C163.668 110.207 163.414 110.257 163.14 110.257Z" fill="#010202"/>
<path d="M170.378 106.227V109.164L167.975 106.227H167.735V110.156H168.196V107.216L170.605 110.156H170.839V106.227H170.378Z" fill="#010202"/>
<path d="M173.723 109.141C173.987 109.361 174.261 109.525 174.545 109.635C174.825 109.749 175.103 109.802 175.377 109.802C175.557 109.802 175.717 109.782 175.858 109.742C175.998 109.702 176.122 109.642 176.219 109.568C176.316 109.495 176.392 109.405 176.449 109.304C176.503 109.204 176.533 109.097 176.533 108.98C176.533 108.8 176.463 108.646 176.319 108.512C176.175 108.382 175.958 108.302 175.667 108.279C175.507 108.265 175.357 108.252 175.22 108.242C175.079 108.232 174.946 108.222 174.819 108.205C174.688 108.192 174.568 108.172 174.458 108.142C174.347 108.115 174.244 108.078 174.147 108.028C173.796 107.847 173.619 107.577 173.619 107.219C173.619 107.069 173.652 106.929 173.719 106.798C173.786 106.668 173.883 106.551 174.007 106.451C174.134 106.35 174.284 106.274 174.458 106.217C174.635 106.16 174.832 106.133 175.052 106.133C175.367 106.133 175.674 106.187 175.971 106.297C176.269 106.407 176.553 106.564 176.823 106.775L176.556 107.183C176.095 106.788 175.594 106.594 175.059 106.594C174.765 106.594 174.531 106.655 174.357 106.772C174.184 106.892 174.097 107.032 174.097 107.196C174.097 107.333 174.157 107.45 174.277 107.547C174.354 107.61 174.448 107.657 174.551 107.684C174.655 107.714 174.772 107.734 174.902 107.751C175.029 107.764 175.169 107.777 175.32 107.784C175.47 107.791 175.631 107.804 175.801 107.824C176.192 107.874 176.493 108.005 176.703 108.218C176.917 108.432 177.024 108.69 177.024 108.99C177.024 109.161 176.987 109.321 176.914 109.475C176.84 109.628 176.737 109.762 176.596 109.876C176.459 109.989 176.289 110.08 176.085 110.15C175.881 110.217 175.651 110.253 175.387 110.253C175.019 110.253 174.678 110.197 174.364 110.086C174.047 109.976 173.746 109.799 173.459 109.562L173.723 109.141Z" fill="#010202"/>
<path d="M186.795 108.048H183.359V108.345H186.795V108.048Z" fill="#010202"/>
<path d="M193.277 109.141C193.541 109.361 193.815 109.525 194.099 109.635C194.38 109.749 194.657 109.802 194.931 109.802C195.111 109.802 195.272 109.782 195.412 109.742C195.552 109.702 195.676 109.642 195.773 109.568C195.87 109.495 195.947 109.405 196.004 109.304C196.057 109.204 196.087 109.097 196.087 108.98C196.087 108.8 196.017 108.646 195.873 108.512C195.73 108.382 195.512 108.302 195.222 108.279C195.061 108.265 194.911 108.252 194.774 108.242C194.634 108.232 194.5 108.222 194.373 108.205C194.243 108.192 194.122 108.172 194.012 108.142C193.902 108.115 193.798 108.078 193.701 108.028C193.35 107.847 193.173 107.577 193.173 107.219C193.173 107.069 193.207 106.929 193.274 106.798C193.34 106.668 193.437 106.551 193.561 106.451C193.685 106.35 193.838 106.274 194.012 106.217C194.189 106.16 194.386 106.133 194.607 106.133C194.921 106.133 195.228 106.187 195.526 106.297C195.823 106.407 196.107 106.564 196.378 106.775L196.11 107.183C195.649 106.788 195.148 106.594 194.614 106.594C194.319 106.594 194.086 106.655 193.912 106.772C193.738 106.892 193.651 107.032 193.651 107.196C193.651 107.333 193.711 107.45 193.832 107.547C193.908 107.61 194.002 107.657 194.106 107.684C194.209 107.714 194.326 107.734 194.456 107.751C194.583 107.764 194.724 107.777 194.874 107.784C195.025 107.791 195.185 107.804 195.355 107.824C195.746 107.874 196.047 108.005 196.258 108.218C196.468 108.432 196.578 108.69 196.578 108.99C196.578 109.161 196.542 109.321 196.468 109.475C196.394 109.628 196.291 109.762 196.151 109.876C196.014 109.989 195.843 110.08 195.639 110.15C195.436 110.217 195.205 110.253 194.941 110.253C194.573 110.253 194.233 110.197 193.918 110.086C193.601 109.976 193.3 109.799 193.013 109.562L193.277 109.141Z" fill="#010202"/>
<path d="M199.796 106.203H199.328V110.17H199.796V106.203Z" fill="#010202"/>
<path d="M205.413 106.227V109.164L203.011 106.227H202.767V110.156H203.228V107.216L205.64 110.156H205.871V106.227H205.413Z" fill="#010202"/>
<path d="M212.163 109.194C211.989 109.538 211.755 109.802 211.461 109.986C211.17 110.17 210.833 110.26 210.459 110.26C210.185 110.26 209.927 110.21 209.694 110.106C209.456 110.003 209.256 109.862 209.085 109.682C208.918 109.498 208.785 109.284 208.688 109.034C208.591 108.783 208.544 108.509 208.544 108.205C208.544 107.911 208.591 107.634 208.688 107.383C208.785 107.129 208.918 106.912 209.085 106.728C209.256 106.544 209.46 106.401 209.694 106.297C209.931 106.193 210.185 106.143 210.459 106.143C210.803 106.143 211.114 106.224 211.394 106.384C211.675 106.544 211.906 106.772 212.076 107.062L211.692 107.353C211.571 107.116 211.404 106.932 211.187 106.798C210.97 106.668 210.726 106.601 210.455 106.601C210.248 106.601 210.058 106.641 209.881 106.721C209.704 106.802 209.553 106.912 209.426 107.052C209.296 107.193 209.196 107.363 209.122 107.56C209.049 107.757 209.012 107.971 209.012 108.205C209.012 108.439 209.049 108.653 209.122 108.847C209.196 109.04 209.296 109.211 209.426 109.354C209.553 109.498 209.707 109.608 209.881 109.685C210.058 109.762 210.248 109.802 210.455 109.802C210.743 109.802 211 109.725 211.227 109.575C211.454 109.425 211.642 109.201 211.789 108.903L212.163 109.194Z" fill="#010202"/>
<path d="M214.849 106.227V110.156H217.913V109.702H215.31V108.282H216.794V107.831H215.31V106.678H217.763V106.227H214.849Z" fill="#010202"/>
<path d="M225.185 106.401H224.717V110.176H225.185V106.401Z" fill="#010202"/>
<path d="M231.122 107.319C231.122 107.172 231.035 107.049 230.858 106.945C230.681 106.842 230.424 106.788 230.086 106.788C229.752 106.788 229.495 106.842 229.321 106.945C229.144 107.049 229.057 107.179 229.057 107.336C229.057 107.487 229.144 107.607 229.314 107.697C229.485 107.787 229.742 107.831 230.086 107.831C230.43 107.831 230.688 107.787 230.861 107.697C231.035 107.603 231.122 107.48 231.122 107.319ZM228.8 108.997C228.8 109.231 228.91 109.421 229.131 109.572C229.351 109.722 229.669 109.799 230.086 109.799C230.501 109.799 230.818 109.722 231.039 109.572C231.256 109.421 231.366 109.231 231.366 108.997C231.366 108.726 231.259 108.539 231.042 108.439C230.828 108.339 230.511 108.288 230.09 108.288C229.669 108.288 229.348 108.339 229.131 108.439C228.91 108.539 228.8 108.723 228.8 108.997ZM231.212 108.028C231.633 108.235 231.844 108.559 231.844 108.99C231.844 109.174 231.804 109.344 231.727 109.501C231.65 109.655 231.533 109.789 231.383 109.902C231.232 110.013 231.049 110.1 230.828 110.163C230.611 110.227 230.364 110.257 230.083 110.257C229.518 110.257 229.084 110.14 228.776 109.906C228.469 109.672 228.315 109.368 228.315 108.994C228.315 108.552 228.529 108.228 228.954 108.025C228.693 107.844 228.563 107.617 228.563 107.34C228.563 107.042 228.696 106.802 228.957 106.614C229.221 106.427 229.595 106.334 230.08 106.334C230.564 106.334 230.938 106.427 231.202 106.614C231.466 106.802 231.597 107.042 231.597 107.34C231.603 107.617 231.473 107.847 231.212 108.028Z" fill="#010202"/>
<path d="M235.152 108.506C235.169 108.683 235.226 108.847 235.319 109C235.413 109.157 235.536 109.294 235.683 109.411C235.83 109.532 236.001 109.625 236.191 109.692C236.382 109.759 236.586 109.792 236.806 109.792C236.983 109.792 237.147 109.769 237.297 109.715C237.448 109.665 237.575 109.595 237.682 109.515C237.788 109.435 237.872 109.338 237.929 109.227C237.986 109.117 238.016 109.004 238.016 108.89C238.016 108.763 237.986 108.646 237.919 108.532C237.855 108.419 237.765 108.322 237.655 108.242C237.541 108.158 237.411 108.095 237.257 108.048C237.103 108.001 236.936 107.978 236.759 107.978C236.485 107.978 236.218 108.021 235.957 108.108C235.697 108.202 235.429 108.332 235.152 108.506ZM238.012 107.313C237.805 107.139 237.591 107.005 237.367 106.919C237.144 106.832 236.92 106.788 236.696 106.788C236.268 106.788 235.921 106.892 235.65 107.106C235.379 107.316 235.219 107.604 235.162 107.968C235.433 107.817 235.693 107.704 235.944 107.634C236.195 107.56 236.465 107.523 236.746 107.523C237.007 107.523 237.244 107.557 237.458 107.627C237.671 107.694 237.855 107.791 238.009 107.911C238.163 108.031 238.283 108.175 238.37 108.345C238.457 108.516 238.497 108.693 238.497 108.887C238.497 109.08 238.457 109.261 238.38 109.428C238.303 109.595 238.189 109.739 238.046 109.862C237.902 109.983 237.725 110.08 237.514 110.15C237.304 110.22 237.07 110.257 236.806 110.257C236.475 110.257 236.178 110.203 235.914 110.1C235.647 109.996 235.419 109.852 235.229 109.669C235.038 109.485 234.891 109.274 234.791 109.034C234.688 108.793 234.637 108.536 234.637 108.265C234.637 107.984 234.688 107.724 234.784 107.483C234.885 107.246 235.022 107.042 235.202 106.872C235.379 106.701 235.593 106.568 235.844 106.471C236.094 106.374 236.368 106.324 236.672 106.324C236.983 106.324 237.267 106.377 237.524 106.481C237.782 106.584 238.032 106.748 238.28 106.965L238.012 107.313Z" fill="#010202"/>
<path d="M242.971 109.805C243.205 109.805 243.415 109.769 243.606 109.689C243.796 109.612 243.96 109.505 244.097 109.368C244.234 109.231 244.341 109.07 244.418 108.887C244.495 108.703 244.532 108.506 244.532 108.295C244.532 108.088 244.495 107.891 244.418 107.704C244.341 107.52 244.237 107.36 244.1 107.223C243.967 107.086 243.803 106.979 243.609 106.902C243.415 106.825 243.205 106.785 242.971 106.785C242.737 106.785 242.523 106.825 242.333 106.902C242.139 106.979 241.975 107.086 241.842 107.223C241.708 107.36 241.601 107.52 241.528 107.704C241.451 107.887 241.414 108.085 241.414 108.295C241.414 108.506 241.451 108.699 241.528 108.887C241.604 109.07 241.711 109.231 241.848 109.368C241.985 109.505 242.149 109.612 242.343 109.689C242.53 109.765 242.74 109.805 242.971 109.805ZM242.971 110.257C242.667 110.257 242.393 110.206 242.142 110.106C241.892 110.006 241.678 109.869 241.501 109.692C241.324 109.515 241.183 109.308 241.086 109.067C240.986 108.83 240.939 108.572 240.939 108.295C240.939 108.018 240.99 107.761 241.086 107.52C241.183 107.279 241.324 107.072 241.501 106.895C241.681 106.721 241.895 106.581 242.142 106.481C242.393 106.377 242.667 106.327 242.971 106.327C243.272 106.327 243.549 106.377 243.8 106.481C244.05 106.584 244.264 106.721 244.445 106.895C244.625 107.069 244.765 107.279 244.862 107.52C244.959 107.761 245.009 108.021 245.009 108.295C245.009 108.572 244.959 108.83 244.862 109.067C244.762 109.304 244.625 109.515 244.445 109.692C244.264 109.869 244.047 110.006 243.8 110.106C243.549 110.206 243.272 110.257 242.971 110.257Z" fill="#010202"/>
</svg>
