<svg width="212" height="41" viewBox="0 0 212 41" fill="none" xmlns="http://www.w3.org/2000/svg">
<g clip-path="url(#clip0_7101_645)">
<path d="M58.9141 17.3349H60.9908V4.54443H58.9141V4.2804H69.6126V7.51483H69.4095C69.247 7.02738 69.0693 6.60086 68.8865 6.23527C68.6986 5.86969 68.4752 5.55487 68.2112 5.30099C67.9471 5.04711 67.6374 4.85417 67.2769 4.72723C66.9164 4.60028 66.4797 4.53935 65.9669 4.53935H62.8644V10.3177H64.078C64.4893 10.3177 64.8396 10.2821 65.124 10.206C65.4083 10.1298 65.6571 9.9927 65.8653 9.78452C66.0735 9.57634 66.2461 9.29707 66.3883 8.94164C66.5305 8.58621 66.6726 8.12922 66.8097 7.56561H67.0179V13.3795H66.8097C66.7234 13.019 66.632 12.6686 66.5406 12.3335C66.4492 11.9984 66.3172 11.6988 66.1497 11.4347C65.9821 11.1707 65.7587 10.9625 65.4743 10.8102C65.19 10.6579 64.8295 10.5766 64.3826 10.5766H62.8695V17.3298H66.4035C67.089 17.3298 67.6577 17.1826 68.1147 16.8932C68.5717 16.5987 68.9423 16.2483 69.2267 15.8472C69.511 15.441 69.7243 15.0246 69.8614 14.5879C69.9985 14.1513 70.0848 13.7908 70.1254 13.5013H70.3285V17.5939H58.9191V17.3298L58.9141 17.3349Z" fill="black"/>
<path d="M71.6135 17.3349H73.6902V4.54443H71.6135V4.2804H77.6355V4.54443H75.5588V17.3349H78.8846C79.9814 17.3349 80.8446 16.9947 81.464 16.3042C82.0886 15.6187 82.5405 14.6844 82.8299 13.5013H83.0381V17.5939H71.6084V17.3298L71.6135 17.3349Z" fill="black"/>
<path d="M88.1104 17.335H89.7555L94.8026 3.9453H95.2545L100.342 17.335H102.008V17.599H96.2498V17.335H98.3265L96.3615 12.1355H92.0252L90.0602 17.335H92.1369V17.599H88.1154V17.335H88.1104ZM94.1882 6.43333L92.1318 11.8765H96.2447L94.1882 6.43333ZM96.4884 0.746408C96.7372 0.44683 96.9149 0.248803 97.0215 0.147251C97.1282 0.0507761 97.2704 0 97.443 0C97.6156 0 97.768 0.0660089 97.8898 0.198027C98.0168 0.330045 98.0777 0.482373 98.0777 0.655011C98.0777 0.792107 98.0371 0.898737 97.9558 0.974901C97.8746 1.05106 97.8035 1.112 97.7426 1.16277L94.5437 3.44262H94.2796L96.4884 0.751486V0.746408Z" fill="black"/>
<path d="M102.079 17.335H104.156V4.5445H102.079V4.28046H105.633C105.781 4.28046 105.933 4.28046 106.08 4.27031C106.232 4.26523 106.38 4.25508 106.532 4.24492C106.679 4.24492 106.832 4.24492 106.979 4.23476C107.131 4.22969 107.278 4.22461 107.431 4.22461C108.167 4.22461 108.812 4.26523 109.376 4.34647C109.934 4.42771 110.462 4.66128 110.945 5.04718C111.381 5.3823 111.691 5.76312 111.869 6.18964C112.046 6.61616 112.138 7.01222 112.138 7.38796C112.138 7.57583 112.102 7.81448 112.036 8.10898C111.965 8.40348 111.818 8.70306 111.589 9.00772C111.361 9.31237 111.026 9.59164 110.589 9.8506C110.152 10.1045 109.574 10.2771 108.853 10.3634V10.399C109.051 10.4244 109.325 10.4701 109.665 10.5412C110.005 10.6122 110.356 10.7239 110.711 10.8864C111.066 11.0489 111.396 11.2622 111.691 11.5313C111.985 11.8004 112.204 12.1457 112.326 12.5671C112.402 12.8159 112.453 13.1003 112.483 13.4202C112.513 13.74 112.539 14.065 112.559 14.4001C112.579 14.7353 112.595 15.0602 112.615 15.375C112.635 15.6848 112.666 15.9488 112.717 16.1621C112.793 16.487 112.91 16.7815 113.072 17.0405C113.235 17.2995 113.493 17.4315 113.859 17.4315C114.022 17.4315 114.189 17.401 114.362 17.335C114.534 17.2741 114.692 17.1725 114.829 17.0354L114.996 17.2385C114.936 17.2893 114.859 17.3401 114.783 17.3959C114.702 17.4518 114.6 17.5026 114.473 17.5533C114.347 17.6041 114.199 17.6447 114.016 17.6752C113.834 17.7057 113.615 17.7209 113.351 17.7209C112.854 17.7209 112.437 17.66 112.107 17.533C111.777 17.4061 111.513 17.2233 111.31 16.9796C111.112 16.7358 110.965 16.4363 110.868 16.0808C110.772 15.7254 110.711 15.3141 110.67 14.8368L110.538 13.1358C110.488 12.5113 110.366 12.0289 110.163 11.6785C109.959 11.3282 109.731 11.0743 109.462 10.9118C109.193 10.7493 108.919 10.6529 108.629 10.6224C108.345 10.5919 108.096 10.5767 107.883 10.5767H106.014V17.3299H108.091V17.594H102.069V17.3299L102.079 17.335ZM106.024 10.3228H107.746C108.096 10.3228 108.411 10.2771 108.7 10.1908C108.985 10.1045 109.233 9.95215 109.436 9.73381C109.645 9.51548 109.802 9.22098 109.914 8.84523C110.025 8.46949 110.081 7.99727 110.081 7.4235C110.081 6.77357 109.995 6.25565 109.827 5.8596C109.66 5.46862 109.442 5.16904 109.172 4.97102C108.903 4.77299 108.604 4.64097 108.274 4.58004C107.944 4.51911 107.614 4.48865 107.294 4.48865C107.07 4.48865 106.842 4.48864 106.613 4.4988C106.38 4.50388 106.187 4.51911 106.024 4.5445V10.3228Z" fill="black"/>
<path d="M115.113 17.335H117.19V4.5445H115.113V4.28046H118.383C118.571 4.28046 118.759 4.28046 118.952 4.27031C119.145 4.26523 119.343 4.25508 119.541 4.24492C119.739 4.24492 119.932 4.24492 120.12 4.23476C120.307 4.22969 120.485 4.22461 120.663 4.22461C121.572 4.22461 122.323 4.33124 122.907 4.54958C123.491 4.76791 123.953 5.03703 124.288 5.35692C124.628 5.67681 124.857 6.01701 124.984 6.38767C125.111 6.75834 125.172 7.08838 125.172 7.38796C125.172 7.79925 125.08 8.18007 124.903 8.53042C124.725 8.88078 124.481 9.18543 124.171 9.44947C123.867 9.7135 123.511 9.92169 123.115 10.0842C122.714 10.2467 122.298 10.3533 121.861 10.4041V10.4396C122.308 10.4751 122.77 10.5767 123.237 10.729C123.704 10.8864 124.126 11.1048 124.507 11.384C124.887 11.6633 125.197 12.0137 125.431 12.4199C125.664 12.8261 125.786 13.3034 125.786 13.8416C125.786 14.3798 125.679 14.9181 125.466 15.3852C125.253 15.8523 124.938 16.2535 124.512 16.5886C124.085 16.9237 123.552 17.1877 122.902 17.3858C122.252 17.5838 121.501 17.6752 120.637 17.6752C120.465 17.6752 120.292 17.6752 120.125 17.665C119.957 17.66 119.779 17.6498 119.591 17.6346C119.404 17.6244 119.211 17.6143 119.013 17.6092C118.815 17.6041 118.601 17.599 118.378 17.599H115.108V17.335H115.113ZM119.058 10.3228H120.78C121.13 10.3228 121.445 10.2771 121.734 10.1908C122.019 10.1045 122.267 9.95215 122.47 9.73381C122.679 9.51548 122.836 9.22098 122.948 8.84523C123.059 8.46949 123.115 7.99727 123.115 7.4235C123.115 6.77357 123.029 6.25565 122.861 5.8596C122.694 5.46862 122.476 5.16904 122.206 4.97102C121.937 4.77299 121.638 4.64097 121.308 4.58004C120.978 4.51911 120.648 4.48865 120.328 4.48865C120.104 4.48865 119.876 4.48864 119.647 4.4988C119.414 4.50388 119.221 4.51911 119.058 4.5445V10.3228ZM119.058 17.335C119.211 17.3502 119.373 17.3655 119.556 17.3807C119.739 17.3959 119.998 17.4112 120.333 17.4112C120.917 17.4112 121.419 17.3553 121.836 17.2436C122.252 17.1319 122.597 16.9339 122.866 16.6546C123.136 16.3753 123.329 16.0047 123.455 15.5426C123.582 15.0805 123.643 14.5017 123.643 13.801C123.643 12.8058 123.43 12.0187 123.009 11.445C122.587 10.8712 121.958 10.5818 121.12 10.5818H119.063V17.335H119.058Z" fill="black"/>
<path d="M127.828 10.9219C127.828 9.92166 128.026 9.00261 128.417 8.15465C128.808 7.30669 129.315 6.57044 129.93 5.94589C130.549 5.32134 131.24 4.83389 132.017 4.47846C132.794 4.12303 133.565 3.94531 134.337 3.94531C135.16 3.94531 135.962 4.12303 136.739 4.47846C137.516 4.83389 138.216 5.32134 138.826 5.94589C139.435 6.57044 139.928 7.30669 140.293 8.15465C140.659 9.00261 140.847 9.92673 140.847 10.9219C140.847 11.7953 140.679 12.6483 140.339 13.4811C140.004 14.3189 139.542 15.0602 138.958 15.7051C138.369 16.355 137.683 16.878 136.891 17.274C136.099 17.6752 135.246 17.8732 134.337 17.8732C133.428 17.8732 132.535 17.6802 131.737 17.2943C130.94 16.9084 130.25 16.3956 129.671 15.7508C129.092 15.111 128.64 14.3696 128.315 13.5268C127.99 12.6839 127.828 11.8156 127.828 10.9169V10.9219ZM129.981 10.9219C129.981 12.0441 130.057 13.0241 130.204 13.8568C130.351 14.6895 130.6 15.3902 130.95 15.9488C131.301 16.5073 131.748 16.9288 132.296 17.2029C132.844 17.4771 133.525 17.6142 134.332 17.6142C135.139 17.6142 135.81 17.4771 136.363 17.2029C136.917 16.9288 137.368 16.5124 137.719 15.9488C138.069 15.3852 138.318 14.6895 138.465 13.8568C138.618 13.0241 138.689 12.0441 138.689 10.9219C138.689 10.0588 138.633 9.2311 138.521 8.42376C138.409 7.6215 138.196 6.90048 137.876 6.27593C137.556 5.64631 137.115 5.14363 136.551 4.76789C135.982 4.39214 135.246 4.20935 134.332 4.20935C133.418 4.20935 132.682 4.39722 132.118 4.76789C131.55 5.14363 131.108 5.64631 130.793 6.27593C130.473 6.90556 130.26 7.6215 130.148 8.42376C130.036 9.2311 129.981 10.0588 129.981 10.9219Z" fill="black"/>
<path d="M142.208 17.3349H144.284V4.54443H142.208V4.2804H148.23V4.54443H146.153V17.3349H149.484C150.58 17.3349 151.439 16.9947 152.063 16.3042C152.688 15.6187 153.14 14.6844 153.429 13.5013H153.632V17.5939H142.208V17.3298V17.3349Z" fill="black"/>
<path d="M0.399902 39.7779H2.47664V26.9874H0.399902V26.7234H3.87806C4.0507 26.7234 4.22842 26.7234 4.40106 26.7133C4.5737 26.7031 4.75141 26.698 4.92405 26.6828C5.09669 26.6828 5.27441 26.6828 5.44704 26.6726C5.61968 26.6625 5.7974 26.6625 5.97004 26.6625C6.34578 26.6625 6.67583 26.6676 6.97033 26.6828C7.26483 26.698 7.53902 26.7183 7.7929 26.7488C8.04678 26.7793 8.29051 26.825 8.52408 26.8808C8.75257 26.9367 9.00137 27.0078 9.26541 27.0992C10.027 27.348 10.6821 27.6831 11.2406 28.0994C11.7941 28.5158 12.251 28.9982 12.6065 29.5466C12.9619 30.0949 13.2259 30.6941 13.3935 31.344C13.5611 31.994 13.6474 32.6693 13.6474 33.3802C13.6474 34.2027 13.5458 34.939 13.3478 35.594C13.1498 36.249 12.8756 36.8278 12.5252 37.3356C12.1749 37.8383 11.7687 38.275 11.3015 38.6456C10.8344 39.0112 10.3317 39.3108 9.79856 39.5342C9.49898 39.6713 9.21463 39.7779 8.94552 39.8541C8.6764 39.9303 8.40221 39.9861 8.12294 40.0217C7.84368 40.0572 7.53394 40.0826 7.19882 40.0978C6.8637 40.108 6.4778 40.1181 6.04112 40.1181C5.85325 40.1181 5.65523 40.1181 5.44197 40.108C5.22871 40.1029 5.02053 40.0928 4.80727 40.0826C4.59401 40.0674 4.38582 40.0623 4.18272 40.0521C3.97454 40.0471 3.78159 40.042 3.59372 40.042H0.399902V39.7779ZM4.3452 39.7779C4.55846 39.8033 4.80219 39.8236 5.08653 39.8338C5.3658 39.849 5.67554 39.8541 6.01066 39.8541C6.4321 39.8541 6.85354 39.8338 7.26991 39.7881C7.68627 39.7475 8.0874 39.651 8.46822 39.5088C8.84904 39.3667 9.20447 39.1585 9.53452 38.8894C9.86456 38.6202 10.1641 38.2699 10.4231 37.8332C10.8192 37.1579 11.0984 36.4724 11.2558 35.7666C11.4082 35.0608 11.4894 34.2941 11.4894 33.4563C11.4894 32.4713 11.398 31.5776 11.2101 30.7703C11.0223 29.968 10.7125 29.2825 10.286 28.7138C9.85441 28.1451 9.28572 27.7085 8.57485 27.3987C7.86399 27.089 6.98556 26.9316 5.93957 26.9316C5.62984 26.9316 5.34549 26.9367 5.08653 26.9519C4.83265 26.9671 4.58385 26.9773 4.3452 26.9874V39.7779Z" fill="black"/>
<path d="M15.1758 39.778H17.2525V26.9875H15.1758V26.7235H25.8743V29.9579H25.6712C25.5087 29.4705 25.331 29.044 25.1482 28.6784C24.9603 28.3128 24.7369 27.998 24.4729 27.7441C24.2088 27.4902 23.8991 27.2973 23.5386 27.1754C23.1781 27.0485 22.7414 26.9875 22.2286 26.9875H19.1262V32.7659H20.3397C20.751 32.7659 21.1014 32.7303 21.3857 32.6542C21.67 32.578 21.9188 32.4409 22.127 32.2327C22.3352 32.0245 22.5078 31.7453 22.65 31.3898C22.7922 31.0344 22.9344 30.5774 23.0715 30.0189H23.2796V35.8327H23.0715C22.9851 35.4722 22.8937 35.1219 22.8023 34.7868C22.711 34.4516 22.5789 34.1521 22.4114 33.888C22.2438 33.624 22.0204 33.4158 21.7361 33.2584C21.4517 33.101 21.0912 33.0248 20.6444 33.0248H19.1312V39.778H22.6653C23.3507 39.778 23.9194 39.6308 24.3764 39.3363C24.8334 39.0418 25.2041 38.6965 25.4884 38.2903C25.7727 37.8841 25.986 37.4627 26.1231 37.026C26.2602 36.5893 26.3465 36.2288 26.3871 35.9394H26.5902V40.037H15.1809V39.773L15.1758 39.778Z" fill="black"/>
<path d="M32.6021 39.778H34.6788V26.9875H32.6021V26.7235H38.6241V26.9875H36.5474V39.778H39.8783C40.975 39.778 41.8331 39.4378 42.4577 38.7473C43.0822 38.0618 43.5341 37.1275 43.8236 35.9394H44.0267V40.037H32.6021V39.773V39.778Z" fill="black"/>
<path d="M44.3667 39.778H46.0118L51.059 26.3883H51.5109L56.5987 39.778H58.2641V40.042H52.5061V39.778H54.5828L52.6178 34.5785H48.2815L46.3165 39.778H48.3932V40.042H44.3718V39.778H44.3667ZM50.4446 28.8713L48.3882 34.3145H52.501L50.4446 28.8713Z" fill="black"/>
<path d="M59.1782 36.0155H59.3813C59.5184 36.6908 59.6961 37.2595 59.9145 37.7165C60.1328 38.1786 60.3715 38.5594 60.6355 38.859C60.8995 39.1586 61.1686 39.3871 61.4581 39.5495C61.7424 39.712 62.0318 39.8288 62.3263 39.905C62.6208 39.9811 62.9001 40.0218 63.1692 40.037C63.4383 40.0471 63.6922 40.0573 63.9258 40.0573C64.5859 40.0573 65.1292 39.9557 65.5506 39.7577C65.9721 39.5597 66.3123 39.3058 66.5611 39.0012C66.8099 38.6965 66.9825 38.3665 67.0841 38.011C67.1856 37.6556 67.2364 37.3255 67.2364 37.031C67.2364 36.5944 67.1551 36.2237 66.9927 35.9089C66.8302 35.5941 66.6271 35.33 66.3732 35.1117C66.1193 34.8934 65.8502 34.7157 65.5608 34.5786C65.2663 34.4415 64.9921 34.3348 64.728 34.2587L62.5751 33.6037C61.5647 33.2939 60.8031 32.8826 60.2851 32.3698C59.7672 31.857 59.5083 31.1715 59.5083 30.3134C59.5083 29.7498 59.6047 29.2318 59.8078 28.7495C60.0059 28.2722 60.2851 27.8558 60.6507 27.5055C61.0112 27.1551 61.4479 26.8809 61.9506 26.6829C62.4533 26.4849 63.0067 26.3833 63.6059 26.3833C64.0426 26.3833 64.4082 26.4239 64.6976 26.495C64.9921 26.5712 65.2409 26.6524 65.4541 26.7489C65.6674 26.8454 65.8553 26.9266 66.0228 27.0028C66.1904 27.0789 66.363 27.1145 66.5357 27.1145C66.6982 27.1145 66.8099 27.0942 66.8657 27.0485C66.9216 27.0078 66.9977 26.8961 67.0993 26.7184H67.3633V30.1052H67.1399C67.0637 29.6584 66.9368 29.2217 66.7591 28.8053C66.5763 28.389 66.3427 28.0183 66.0584 27.7035C65.774 27.3887 65.4237 27.1297 65.0225 26.9368C64.6214 26.7438 64.1492 26.6473 63.611 26.6473C63.3114 26.6473 62.9814 26.688 62.6208 26.7692C62.2603 26.8504 61.9252 26.9926 61.6104 27.1906C61.2956 27.3887 61.0417 27.6527 60.8335 27.9777C60.6304 28.3026 60.5238 28.7139 60.5238 29.2115C60.5238 29.6127 60.605 29.9529 60.7675 30.2321C60.93 30.5114 61.1382 30.75 61.3921 30.943C61.6459 31.1359 61.9354 31.2984 62.2553 31.4304C62.5751 31.5625 62.895 31.6792 63.22 31.7757L65.4846 32.4866C65.7233 32.5628 66.0178 32.6592 66.3833 32.7862C66.7439 32.9131 67.0942 33.0959 67.4395 33.3498C67.7797 33.5986 68.0742 33.9286 68.3179 34.3399C68.5616 34.7512 68.6835 35.2742 68.6835 35.9089C68.6835 36.4928 68.5769 37.0514 68.3585 37.5845C68.1402 38.1126 67.8254 38.5797 67.4141 38.9859C67.0028 39.3921 66.5052 39.7171 65.9162 39.9608C65.3323 40.2045 64.6722 40.3264 63.9359 40.3264C63.677 40.3264 63.4434 40.3264 63.2454 40.3163C63.0474 40.3061 62.8595 40.2959 62.6818 40.2706C62.5091 40.2452 62.3314 40.2198 62.1588 40.1893C61.9861 40.1589 61.7932 40.1081 61.5799 40.0471C61.3311 39.971 61.062 39.8847 60.7777 39.7831C60.4882 39.6816 60.2394 39.6308 60.0262 39.6308C59.8383 39.6308 59.7114 39.6714 59.6454 39.7425C59.5743 39.8187 59.5184 39.9151 59.4676 40.0421H59.1884V36.0206L59.1782 36.0155Z" fill="black"/>
<path d="M75.0762 39.778H77.1529V26.9875H75.0762V26.7235H85.7747V29.9579H85.5716C85.4091 29.4705 85.2314 29.044 85.0486 28.6784C84.8607 28.3128 84.6373 27.998 84.3733 27.7441C84.1092 27.4902 83.7995 27.2973 83.439 27.1754C83.0785 27.0485 82.6418 26.9875 82.129 26.9875H79.0266V33.0451H80.2401C80.6514 33.0451 81.0017 33.0096 81.2861 32.9334C81.5704 32.8573 81.8192 32.7202 82.0274 32.512C82.2356 32.3038 82.4082 32.0245 82.5504 31.6691C82.6926 31.3137 82.8348 30.8567 82.9718 30.2981H83.18V36.112H82.9718C82.8855 35.7515 82.7941 35.4011 82.7027 35.066C82.6113 34.7309 82.4793 34.4313 82.3118 34.1673C82.1442 33.9032 81.9208 33.6951 81.6364 33.5377C81.3521 33.3803 80.9916 33.3041 80.5448 33.3041H79.0316V39.773H81.1084V40.037H75.0863V39.773L75.0762 39.778Z" fill="black"/>
<path d="M86.9121 26.7235H92.9342V26.9875H90.8574V36.0206C90.8574 36.7721 90.9234 37.4017 91.0554 37.9196C91.1874 38.4376 91.3804 38.8539 91.6444 39.1738C91.9085 39.4937 92.2284 39.7171 92.6193 39.8542C93.0103 39.9913 93.447 40.0624 93.9446 40.0624C94.6453 40.0624 95.2597 39.9608 95.7979 39.7527C96.3311 39.5495 96.7931 39.184 97.179 38.661C97.306 38.4985 97.4126 38.336 97.5091 38.1735C97.6055 38.011 97.6817 37.8232 97.7528 37.6048C97.8188 37.3865 97.8747 37.1275 97.9102 36.8178C97.9457 36.5131 97.9661 36.1374 97.9661 35.6855V26.9875H95.8893V26.7235H100.322V26.9875H98.2453V36.0562C98.2453 36.5791 98.1895 37.0564 98.0778 37.488C97.9661 37.9196 97.7376 38.3665 97.3872 38.8235C97.0521 39.2703 96.5799 39.6359 95.9858 39.9101C95.3866 40.1842 94.5945 40.3213 93.6095 40.3213C92.1167 40.3213 90.9691 39.9558 90.177 39.2195C89.3849 38.4832 88.9888 37.356 88.9888 35.8378V26.9926H86.9121V26.7286V26.7235Z" fill="black"/>
<path d="M100.637 39.778H102.714V26.9875H100.637V26.7235H104.638L110.96 36.9142H110.995V26.9824H108.918V26.7184H113.351V26.9824H111.275V40.301H110.899L103.023 27.7542H102.988V39.778H105.065V40.042H100.632V39.778H100.637Z" fill="black"/>
<path d="M113.839 39.7779H115.916V26.9874H113.839V26.7234H117.317C117.49 26.7234 117.667 26.7234 117.84 26.7133C118.013 26.7031 118.19 26.698 118.363 26.6828C118.536 26.6828 118.713 26.6828 118.886 26.6726C119.059 26.6625 119.236 26.6625 119.409 26.6625C119.785 26.6625 120.115 26.6676 120.409 26.6828C120.704 26.698 120.978 26.7183 121.232 26.7488C121.486 26.7793 121.729 26.825 121.963 26.8808C122.192 26.9367 122.44 27.0078 122.704 27.0992C123.466 27.348 124.121 27.6831 124.68 28.0994C125.233 28.5158 125.69 28.9982 126.045 29.5466C126.401 30.0949 126.665 30.6941 126.832 31.344C127 31.994 127.086 32.6693 127.086 33.3802C127.086 34.2027 126.985 34.939 126.787 35.594C126.589 36.249 126.315 36.8278 125.964 37.3356C125.614 37.8383 125.208 38.275 124.74 38.6456C124.273 39.0112 123.771 39.3108 123.238 39.5342C122.938 39.6713 122.654 39.7779 122.384 39.8541C122.115 39.9303 121.841 39.9861 121.562 40.0217C121.283 40.0572 120.973 40.0826 120.638 40.0978C120.303 40.108 119.917 40.1181 119.48 40.1181C119.292 40.1181 119.094 40.1181 118.881 40.108C118.668 40.1029 118.459 40.0928 118.246 40.0826C118.033 40.0674 117.825 40.0623 117.622 40.0521C117.414 40.0471 117.221 40.042 117.033 40.042H113.854V39.7779H113.839ZM117.789 39.7779C118.003 39.8033 118.246 39.8236 118.531 39.8338C118.81 39.849 119.12 39.8541 119.455 39.8541C119.876 39.8541 120.298 39.8338 120.714 39.7881C121.13 39.7475 121.531 39.651 121.912 39.5088C122.293 39.3667 122.649 39.1585 122.979 38.8894C123.309 38.6202 123.608 38.2699 123.867 37.8332C124.263 37.1579 124.542 36.4724 124.7 35.7666C124.852 35.0608 124.933 34.2941 124.933 33.4563C124.933 32.4713 124.842 31.5776 124.654 30.7703C124.466 29.968 124.157 29.2825 123.73 28.7138C123.298 28.1451 122.73 27.7085 122.019 27.3987C121.308 27.089 120.43 26.9316 119.384 26.9316C119.074 26.9316 118.79 26.9367 118.531 26.9519C118.277 26.9671 118.028 26.9773 117.789 26.9874V39.7779Z" fill="black"/>
<path d="M127.005 39.778H128.65L133.702 26.3883H134.149L139.237 39.778H140.902V40.042H135.144V39.778H137.221L135.256 34.5785H130.915L128.95 39.778H131.026V40.042H127.005V39.778ZM133.083 28.8713L131.026 34.3145H135.139L133.083 28.8713Z" fill="black"/>
<path d="M152.403 40.0369H152.124C152.037 39.9353 151.936 39.8439 151.824 39.7627C151.713 39.6815 151.54 39.6408 151.301 39.6408C151.113 39.6408 150.91 39.6764 150.692 39.7424C150.474 39.8135 150.225 39.8896 149.946 39.976C149.666 40.0623 149.351 40.1384 149.001 40.2095C148.651 40.2806 148.265 40.3111 147.843 40.3111C147.056 40.3111 146.295 40.1689 145.553 39.8795C144.812 39.5901 144.111 39.128 143.451 38.4781C142.842 37.8688 142.329 37.1427 141.918 36.3099C141.507 35.4772 141.298 34.5074 141.298 33.4106C141.298 32.4763 141.466 31.5827 141.801 30.7347C142.136 29.8868 142.608 29.1403 143.202 28.4904C143.802 27.8405 144.502 27.3276 145.315 26.9468C146.127 26.566 147.011 26.373 147.97 26.373C148.356 26.373 148.701 26.4137 149.001 26.4848C149.301 26.5558 149.57 26.6422 149.803 26.7386C150.037 26.8351 150.26 26.9164 150.458 26.9925C150.656 27.0687 150.849 27.1042 151.037 27.1042C151.286 27.1042 151.464 27.0636 151.57 26.9824C151.677 26.9011 151.773 26.8097 151.86 26.7082H152.139V30.4504H151.936C151.824 29.9782 151.682 29.511 151.504 29.0489C151.327 28.5869 151.088 28.1807 150.773 27.8252C150.458 27.4698 150.067 27.1855 149.585 26.9671C149.103 26.7488 148.509 26.6371 147.798 26.6371C147.138 26.6371 146.569 26.7386 146.097 26.9468C145.624 27.1499 145.223 27.4241 144.898 27.7694C144.573 28.1147 144.314 28.5107 144.121 28.9677C143.929 29.4247 143.781 29.902 143.68 30.4047C143.578 30.9124 143.517 31.4202 143.482 31.9381C143.446 32.456 143.436 32.9435 143.436 33.4055C143.436 34.7156 143.543 35.8022 143.756 36.6603C143.969 37.5235 144.264 38.1988 144.644 38.7015C145.025 39.1991 145.482 39.5494 146.015 39.7475C146.554 39.9455 147.143 40.047 147.793 40.047C148.625 40.047 149.301 39.9303 149.813 39.6916C150.326 39.453 150.738 39.1483 151.047 38.7675C151.357 38.3867 151.596 37.9601 151.758 37.4778C151.921 37.0005 152.063 36.5232 152.19 36.0459H152.393V40.0318L152.403 40.0369Z" fill="black"/>
<path d="M153.505 39.778H155.582V26.9875H153.505V26.7235H159.527V26.9875H157.45V39.778H159.527V40.0421H153.505V39.778Z" fill="black"/>
<path d="M160.949 33.3599C160.949 32.3646 161.147 31.4405 161.538 30.5926C161.929 29.7446 162.436 29.0084 163.051 28.3889C163.67 27.7643 164.361 27.2769 165.138 26.9215C165.91 26.566 166.686 26.3883 167.458 26.3883C168.281 26.3883 169.083 26.566 169.86 26.9215C170.637 27.2769 171.338 27.7643 171.947 28.3889C172.556 29.0134 173.049 29.7497 173.414 30.5926C173.78 31.4405 173.968 32.3646 173.968 33.3599C173.968 34.2332 173.8 35.0862 173.46 35.9241C173.12 36.7619 172.663 37.5032 172.079 38.148C171.49 38.798 170.804 39.321 170.012 39.717C169.22 40.1131 168.367 40.3162 167.458 40.3162C166.549 40.3162 165.656 40.1232 164.858 39.7373C164.061 39.3514 163.371 38.8386 162.792 38.1937C162.213 37.5489 161.761 36.8076 161.436 35.9697C161.111 35.1269 160.949 34.2586 160.949 33.3599ZM163.097 33.3599C163.097 34.482 163.173 35.462 163.32 36.2947C163.467 37.1274 163.716 37.8282 164.066 38.3918C164.417 38.9503 164.864 39.3717 165.412 39.6459C165.96 39.9201 166.641 40.0572 167.448 40.0572C168.255 40.0572 168.926 39.9201 169.479 39.6459C170.033 39.3717 170.484 38.9503 170.835 38.3918C171.185 37.8282 171.434 37.1325 171.581 36.2947C171.734 35.462 171.805 34.482 171.805 33.3599C171.805 32.4967 171.749 31.669 171.637 30.8617C171.525 30.0543 171.312 29.3384 170.992 28.7088C170.672 28.0791 170.231 27.5765 169.667 27.2058C169.103 26.8351 168.362 26.6422 167.448 26.6422C166.534 26.6422 165.798 26.8301 165.234 27.2058C164.671 27.5815 164.224 28.0842 163.909 28.7088C163.589 29.3384 163.376 30.0543 163.264 30.8617C163.152 31.6639 163.097 32.4967 163.097 33.3599Z" fill="black"/>
<path d="M175.161 39.778H177.238V26.9875H175.161V26.7235H179.162L185.484 36.9142H185.519V26.9824H183.442V26.7184H187.875V26.9824H185.798V40.301H185.423L177.547 27.7542H177.512V39.778H179.589V40.042H175.156V39.778H175.161Z" fill="black"/>
<path d="M188.363 39.778H190.44V26.9875H188.363V26.7235H199.061V29.9579H198.858C198.696 29.4705 198.518 29.044 198.335 28.6784C198.147 28.3128 197.924 27.998 197.66 27.7441C197.396 27.4902 197.086 27.2973 196.726 27.1754C196.365 27.0485 195.928 26.9875 195.416 26.9875H192.313V32.7659H193.527C193.938 32.7659 194.288 32.7303 194.573 32.6542C194.857 32.578 195.106 32.4409 195.314 32.2327C195.522 32.0245 195.695 31.7453 195.837 31.3898C195.979 31.0344 196.121 30.5774 196.258 30.0189H196.467V35.8327H196.258C196.172 35.4722 196.081 35.1219 195.989 34.7868C195.898 34.4516 195.766 34.1521 195.598 33.888C195.431 33.624 195.207 33.4158 194.923 33.2584C194.639 33.101 194.278 33.0248 193.831 33.0248H192.318V39.778H195.852C196.538 39.778 197.106 39.6308 197.563 39.3363C198.02 39.0418 198.391 38.6965 198.675 38.2903C198.96 37.8841 199.173 37.4627 199.31 37.026C199.447 36.5893 199.534 36.2288 199.574 35.9394H199.777V40.037H188.368V39.773L188.363 39.778Z" fill="black"/>
<path d="M201.905 36.0155H202.108C202.245 36.6908 202.423 37.2595 202.641 37.7165C202.859 38.1786 203.098 38.5594 203.362 38.859C203.626 39.1586 203.895 39.3871 204.185 39.5495C204.469 39.712 204.758 39.8288 205.053 39.905C205.347 39.9811 205.627 40.0218 205.896 40.037C206.165 40.0471 206.419 40.0573 206.652 40.0573C207.312 40.0573 207.856 39.9557 208.277 39.7577C208.699 39.5597 209.039 39.3058 209.288 39.0012C209.536 38.6965 209.709 38.3665 209.811 38.011C209.912 37.6556 209.963 37.3255 209.963 37.031C209.963 36.5944 209.882 36.2237 209.719 35.9089C209.557 35.5941 209.354 35.33 209.1 35.1117C208.846 34.8934 208.577 34.7157 208.287 34.5786C207.993 34.4415 207.719 34.3348 207.455 34.2587L205.302 33.6037C204.291 33.2939 203.53 32.8826 203.012 32.3698C202.494 31.857 202.235 31.1715 202.235 30.3134C202.235 29.7498 202.331 29.2318 202.534 28.7495C202.732 28.2722 203.012 27.8558 203.377 27.5055C203.738 27.1551 204.174 26.8809 204.677 26.6829C205.18 26.4849 205.733 26.3833 206.332 26.3833C206.769 26.3833 207.135 26.4239 207.424 26.495C207.719 26.5712 207.967 26.6524 208.181 26.7489C208.394 26.8454 208.582 26.9266 208.749 27.0028C208.917 27.0789 209.09 27.1145 209.262 27.1145C209.425 27.1145 209.536 27.0942 209.592 27.0485C209.648 27.0078 209.724 26.8961 209.826 26.7184H210.09V30.1052H209.866C209.79 29.6584 209.663 29.2217 209.486 28.8053C209.303 28.389 209.069 28.0183 208.785 27.7035C208.501 27.3887 208.15 27.1297 207.749 26.9368C207.348 26.7438 206.876 26.6473 206.338 26.6473C206.038 26.6473 205.708 26.688 205.347 26.7692C204.987 26.8504 204.652 26.9926 204.337 27.1906C204.022 27.3887 203.768 27.6527 203.56 27.9777C203.357 28.3026 203.25 28.7139 203.25 29.2115C203.25 29.6127 203.332 29.9529 203.494 30.2321C203.657 30.5114 203.865 30.75 204.119 30.943C204.372 31.1359 204.662 31.2984 204.982 31.4304C205.302 31.5625 205.622 31.6792 205.947 31.7757L208.211 32.4866C208.45 32.5628 208.744 32.6592 209.11 32.7862C209.47 32.9131 209.821 33.0959 210.166 33.3498C210.506 33.5986 210.801 33.9286 211.044 34.3399C211.288 34.7512 211.41 35.2742 211.41 35.9089C211.41 36.4928 211.303 37.0514 211.085 37.5845C210.867 38.1126 210.552 38.5797 210.141 38.9859C209.729 39.3921 209.232 39.7171 208.643 39.9608C208.059 40.2045 207.399 40.3264 206.663 40.3264C206.404 40.3264 206.17 40.3264 205.972 40.3163C205.774 40.3061 205.586 40.2959 205.408 40.2706C205.236 40.2452 205.058 40.2198 204.885 40.1893C204.713 40.1589 204.52 40.1081 204.306 40.0471C204.058 39.971 203.789 39.8847 203.504 39.7831C203.215 39.6816 202.966 39.6308 202.753 39.6308C202.565 39.6308 202.438 39.6714 202.372 39.7425C202.301 39.8187 202.245 39.9151 202.194 40.0421H201.915V36.0206L201.905 36.0155Z" fill="black"/>
</g>
<defs>
<clipPath id="clip0_7101_645">
<rect width="211" height="40.3213" fill="white" transform="translate(0.399902)"/>
</clipPath>
</defs>
</svg>
