<svg width="300" height="150" viewBox="0 0 300 150" fill="none" xmlns="http://www.w3.org/2000/svg">
<path d="M18.7125 61.644L20.6883 59.8364C20.1466 59.2515 19.3074 58.4965 18.1282 57.8585C16.2799 56.8696 14.5484 56.7101 13.5923 56.6995C12.7425 56.742 9.85313 56.9759 7.31429 59.2621C4.33993 61.9418 4.04249 65.4615 4 66.1846C4 66.8438 4.06374 70.4273 6.96374 73.2771C9.75752 76.0312 13.1887 76.1269 13.8791 76.1269C14.9414 76.0737 16.4392 75.8717 18.1176 75.2549C19.5304 74.7339 20.6352 74.0746 21.4319 73.511V66.8651H14.3997V69.3852H18.2345V71.8841C17.8202 72.1925 17.2147 72.5753 16.4286 72.873C15.5257 73.2133 14.7183 73.309 14.166 73.3409C13.7517 73.3728 11.0747 73.511 8.93957 71.4269C6.88938 69.4171 6.90001 66.8545 6.91063 66.4291C6.91063 65.9506 6.98499 63.271 9.17327 61.1974C11.096 59.3791 13.3586 59.2409 13.9323 59.2196C14.4528 59.2196 15.3026 59.2728 16.2586 59.6875C17.6077 60.2617 18.3726 61.2081 18.7019 61.6653L18.7125 61.644Z" fill="black" stroke="black" stroke-width="0.25" stroke-miterlimit="10"/>
<path d="M23.9919 75.7122L32.7663 56.1785L41.5407 75.7122H38.407L37.0685 72.9263H27.9436L26.6689 75.7122H23.9919Z" fill="black" stroke="black" stroke-width="0.25" stroke-miterlimit="10"/>
<path d="M29.1652 70.4167H36.1974L32.6813 62.6862L29.1652 70.4167Z" fill="white"/>
<path d="M101.984 75.6167L110.758 56.0829L119.522 75.6167H116.388L115.05 72.8307H105.936L104.661 75.6167H101.984Z" fill="black" stroke="black" stroke-width="0.25" stroke-miterlimit="10"/>
<path d="M107.157 70.321H114.179L110.673 62.5905L107.157 70.321Z" fill="#FEFEFE"/>
<path d="M196.101 75.6805L204.876 56.1467L213.65 75.6805H210.506L209.178 72.8945H200.053L198.778 75.6805H196.101Z" fill="black" stroke="black" stroke-width="0.25" stroke-miterlimit="10"/>
<path d="M201.275 70.3956H208.307L204.791 62.6544L201.275 70.3956Z" fill="#FEFEFE"/>
<path d="M153.812 75.6167L162.587 56.0829L171.361 75.6167H168.217L166.889 72.8307H157.764L156.489 75.6167H153.812Z" fill="black" stroke="black" stroke-width="0.25" stroke-miterlimit="10"/>
<path d="M158.986 70.321H166.018L162.502 62.5905L158.986 70.321Z" fill="#FEFEFE"/>
<path d="M261.187 76.1801L269.961 56.6357L278.736 76.1801H275.602L274.264 73.3835H265.139L263.864 76.1801H261.187Z" fill="black" stroke="black" stroke-width="0.25" stroke-miterlimit="10"/>
<path d="M266.36 70.8847H273.392L269.876 63.1542L266.36 70.8847Z" fill="#FEFEFE"/>
<path d="M45.0248 56.6995H47.7548V73.5323H54.086V75.6165H45.0248V56.6995Z" fill="black" stroke="black" stroke-width="0.25" stroke-miterlimit="10"/>
<path d="M218.366 56.9015H221.097V73.8726H227.428V75.9886H218.366V56.9015Z" fill="black" stroke="black" stroke-width="0.25" stroke-miterlimit="10"/>
<path d="M59.3445 56.6995H72.0386V59.4748H62.5419L62.4782 66.9927H70.9339L70.902 69.1088H62.5101V73.5004H72.0386V75.6165H59.3445V56.6995Z" fill="black" stroke="black" stroke-width="0.25" stroke-miterlimit="10"/>
<path d="M233.186 56.9335H245.88V59.7301H236.383L236.319 67.3011H244.775L244.743 69.4385H236.351V73.8514H245.88V75.9887H233.186V56.9335Z" fill="black" stroke="black" stroke-width="0.25" stroke-miterlimit="10"/>
<path d="M77.764 75.6165V56.6995H84.0952C84.7432 56.8377 86.3791 57.2737 87.845 58.773C89.3216 60.283 89.7465 61.9843 89.874 62.6436V66.3441C89.8421 66.7588 89.6934 67.8221 88.9073 68.8429C88.1212 69.8638 87.1439 70.2466 86.7721 70.3742C87.8131 72.1287 88.8435 73.8726 89.8846 75.6271H86.7509L84.1058 71.3631L80.4197 71.3312V75.6271H77.7747L77.764 75.6165Z" fill="black" stroke="black" stroke-width="0.25" stroke-miterlimit="10"/>
<path d="M79.8781 59.3154V68.7899H83.9997C84.3608 68.7367 85.2425 68.5453 86.0499 67.8223C86.7403 67.2055 87.0378 66.4931 87.1652 66.1422V61.9526C87.0059 61.591 86.6235 60.836 85.8162 60.198C85.0088 59.5706 84.2015 59.3686 83.8085 59.3048H79.8781V59.3154Z" fill="#FEFEFE"/>
<path d="M97.8305 56.6995H95.1854V75.6165H97.8305V56.6995Z" fill="black" stroke="black" stroke-width="0.25" stroke-miterlimit="10"/>
<path d="M175.77 56.6251V75.6166H178.404V61.3889L188.825 66.8546V75.6166H191.491V56.774H188.899V63.8346L175.77 56.6251Z" fill="black" stroke="black" stroke-width="0.25" stroke-miterlimit="10"/>
<path d="M252.104 56.6995V59.3791H255.28V75.1592C255.174 75.457 254.919 76.0737 254.303 76.5948C253.411 77.3497 252.391 77.371 252.104 77.371V79.3914H255.28C255.535 79.3595 256.3 79.2425 256.969 78.6045C257.713 77.9027 257.841 77.0307 257.872 76.7968V56.7207H252.104V56.6995Z" fill="black" stroke="black" stroke-width="0.25" stroke-miterlimit="10"/>
<path d="M291.993 60.7297L293.735 58.8157C293.405 58.3371 292.789 57.5822 291.78 56.9548C291.302 56.6677 290.081 55.9233 288.349 55.9871C286.384 56.0509 285.067 57.1143 284.684 57.4439C284.355 57.731 282.783 59.1028 282.666 61.3358C282.592 62.8032 283.186 63.8878 283.441 64.3238C284.408 66.0252 285.97 66.7908 286.554 67.0354C288.572 67.8967 289.443 67.0779 290.909 68.12C291.228 68.3433 292.386 69.1727 292.46 70.5444C292.534 71.9374 291.44 72.8625 291.334 72.9476C290.144 73.9152 288.721 73.5643 288.562 73.5324C287.977 73.4048 287.17 73.1709 286.299 72.6818C285.279 72.1075 284.589 71.427 284.164 70.9379C283.452 71.4695 282.74 72.0118 282.029 72.5435C282.475 73.1709 283.388 74.2768 284.918 75.1168C286.384 75.925 287.744 76.127 288.498 76.1802C288.795 76.2227 291.653 76.5417 293.671 74.3938C293.937 74.1066 295.254 72.6711 295.243 70.4806C295.243 70.1829 295.211 68.758 294.234 67.3437C293.278 65.9614 291.971 65.3765 291.472 65.1851C289.868 64.5684 289.284 65.1745 287.765 64.377C287.223 64.0899 286.448 63.6858 286.065 62.7926C285.64 61.8249 285.916 60.8786 286.023 60.5596C286.203 60.2086 286.713 59.3473 287.712 58.9858C289.103 58.4754 290.888 59.1453 291.971 60.7297H291.993Z" fill="black" stroke="black" stroke-width="0.25" stroke-miterlimit="10"/>
<path d="M148.256 61.8143L150.466 60.3575C149.999 59.6557 149.085 58.4967 147.566 57.5715C145.59 56.37 143.689 56.2211 142.807 56.1998C142.17 56.1892 138.186 56.1679 135.201 59.3686C132.726 62.027 132.545 65.1639 132.524 65.972C132.524 66.5781 132.641 71.225 136.476 74.2024C139.1 76.2334 141.957 76.3078 142.892 76.2972C143.827 76.2759 145.431 76.127 147.215 75.3082C149.128 74.4363 150.338 73.2134 150.965 72.4904L148.618 70.5125C148.097 71.0336 147.215 71.7779 145.941 72.3415C144.57 72.9582 143.327 73.0965 142.573 73.1284C141.936 73.0858 139.875 72.8625 138.069 71.2143C135.881 69.2046 135.711 66.5675 135.69 66.0358C135.7 65.5254 135.817 63.2286 137.666 61.3571C139.758 59.2304 142.456 59.3048 142.892 59.3261C143.561 59.3686 144.602 59.5175 145.771 60.0491C146.982 60.6021 147.8 61.3358 148.267 61.8249L148.256 61.8143Z" fill="black" stroke="black" stroke-width="0.25" stroke-miterlimit="10"/>
<path d="M116.728 98.8508H117.801V90.9926L121.785 94.1295L126.257 90.9926V98.8508H127.277V88.3448C125.439 89.7485 123.601 91.1521 121.764 92.5557C120.085 91.1521 118.407 89.7485 116.728 88.3448V98.8508Z" fill="black" stroke="black" stroke-width="0.25" stroke-miterlimit="10"/>
<path d="M129.932 98.8508L134.713 87.8132H135.69L140.407 98.8508H138.356L137.815 97.2664H132.567L131.972 98.8508H129.932Z" fill="black" stroke="black" stroke-width="0.25" stroke-miterlimit="10"/>
<path d="M133.077 95.7139H137.273L135.648 91.5349H134.702L133.077 95.7139Z" fill="#FEFEFE"/>
<path d="M143.105 87.8132H147.853C148.395 87.9408 149.616 88.3024 150.657 89.3976C152.304 91.1309 152.208 93.3427 152.187 93.7361C152.187 94.1614 152.092 95.8522 150.753 97.2877C149.67 98.4467 148.374 98.7551 147.906 98.8508H143.105V87.8132Z" fill="black" stroke="black" stroke-width="0.25" stroke-miterlimit="10"/>
<path d="M144.688 89.3551H147.906C148.267 89.5146 149.234 89.9931 149.925 91.099C150.594 92.173 150.594 93.2257 150.583 93.6192C150.583 93.9594 150.509 95.0228 149.712 96.0011C149.043 96.8305 148.214 97.1495 147.874 97.2558H144.698V89.3445L144.688 89.3551Z" fill="#FEFEFE"/>
<path d="M173.953 87.8132H178.701C179.243 87.9408 180.465 88.3024 181.506 89.3976C183.152 91.1309 183.057 93.3427 183.035 93.7361C183.035 94.1614 182.94 95.8522 181.601 97.2877C180.518 98.4467 179.222 98.7551 178.754 98.8508H173.953V87.8132Z" fill="black" stroke="black" stroke-width="0.25" stroke-miterlimit="10"/>
<path d="M175.536 89.3551H178.755C179.116 89.5146 180.082 89.9931 180.773 91.099C181.442 92.173 181.442 93.2257 181.431 93.6192C181.431 93.9594 181.357 95.0228 180.56 96.0011C179.891 96.8305 179.063 97.1495 178.723 97.2558H175.547V89.3445L175.536 89.3551Z" fill="#FEFEFE"/>
<path d="M155.81 87.8132V98.8508H157.36V96.2775H159.496L161.121 98.8508H163.118L161.471 96.235L161.514 95.1716C161.663 95.1185 161.854 95.0228 162.056 94.8633C163.161 94.0126 163.129 92.375 163.118 91.8752C163.118 91.5243 163.033 89.2594 161.355 88.196C161.025 87.9834 160.707 87.8664 160.484 87.8132H155.82H155.81Z" fill="black" stroke="black" stroke-width="0.25" stroke-miterlimit="10"/>
<path d="M157.318 89.3551V94.6825H159.973C160.218 94.5655 160.632 94.321 160.983 93.8637C161.556 93.0981 161.556 92.2687 161.546 92.0135C161.546 91.7477 161.535 90.6843 160.728 89.8868C160.451 89.6103 160.154 89.4402 159.91 89.3445H157.318V89.3551Z" fill="#FEFDFD"/>
<path d="M167.271 87.8132H168.928L168.833 98.8508H167.271V87.8132Z" fill="black" stroke="black" stroke-width="0.25" stroke-miterlimit="10"/>
<path d="M95.1854 53.7328L97.2462 51H100.847L97.8305 53.7328H95.1854Z" fill="black" stroke="black" stroke-width="0.25" stroke-miterlimit="10"/>
</svg>
