<svg width="287" height="103" viewBox="0 0 287 103" fill="none" xmlns="http://www.w3.org/2000/svg">
<path d="M20.504 38.5813L22.3175 36.9064C21.8202 36.3645 21.05 35.665 19.9677 35.0739C18.2712 34.1576 16.6819 34.0099 15.8044 34C15.0244 34.0394 12.3723 34.2562 10.042 36.3744C7.31201 38.8571 7.039 42.1182 7 42.7882C7 43.399 7.0585 46.7192 9.72029 49.3596C12.2846 51.9113 15.4339 52 16.0676 52C17.0427 51.9507 18.4174 51.7635 19.958 51.1921C21.2547 50.7094 22.2687 50.0985 23 49.5764V43.4187H16.5454V45.7537H20.0652V48.069C19.6849 48.3547 19.1292 48.7094 18.4077 48.9852C17.5789 49.3005 16.8379 49.3892 16.3309 49.4187C15.9506 49.4483 13.4936 49.5764 11.5338 47.6453C9.65204 45.7832 9.66179 43.4089 9.67154 43.0148C9.67154 42.5714 9.73979 40.0887 11.7483 38.1675C13.5131 36.4828 15.5899 36.3547 16.1164 36.335C16.5942 36.335 17.3742 36.3842 18.2517 36.7685C19.4899 37.3005 20.192 38.1773 20.4942 38.601L20.504 38.5813Z" fill="#030402"/>
<path d="M75.7933 52V33.8182H82.6115C84.0083 33.8182 85.1802 34.0608 86.1271 34.5462C87.08 35.0315 87.7991 35.7121 88.2844 36.5881C88.7757 37.4581 89.0213 38.4731 89.0213 39.6332C89.0213 40.7991 88.7727 41.8112 88.2756 42.6694C87.7843 43.5217 87.0593 44.1816 86.1005 44.6491C85.1417 45.1108 83.9639 45.3416 82.5671 45.3416H77.7109V42.6072H82.1232C82.94 42.6072 83.6088 42.4948 84.1296 42.2699C84.6505 42.0391 85.0352 41.7047 85.2837 41.2667C85.5382 40.8228 85.6655 40.2783 85.6655 39.6332C85.6655 38.988 85.5382 38.4376 85.2837 37.9819C85.0292 37.5202 84.6416 37.171 84.1207 36.9343C83.5999 36.6916 82.9281 36.5703 82.1055 36.5703H79.087V52H75.7933ZM85.1861 43.7614L89.6871 52H86.0117L81.5906 43.7614H85.1861Z" fill="#030402"/>
<path d="M149.076 74V63.0909H153.167C154.005 63.0909 154.708 63.2365 155.276 63.5277C155.848 63.8189 156.279 64.2273 156.571 64.7528C156.865 65.2749 157.013 65.8839 157.013 66.5799C157.013 67.2795 156.864 67.8867 156.565 68.4016C156.271 68.913 155.836 69.3089 155.26 69.5895C154.685 69.8665 153.978 70.005 153.14 70.005H150.227V68.3643H152.874C153.364 68.3643 153.765 68.2969 154.078 68.1619C154.39 68.0234 154.621 67.8228 154.77 67.56C154.923 67.2937 154.999 66.967 154.999 66.5799C154.999 66.1928 154.923 65.8626 154.77 65.5891C154.618 65.3121 154.385 65.1026 154.072 64.9606C153.76 64.815 153.357 64.7422 152.863 64.7422H151.052V74H149.076ZM154.712 69.0568L157.412 74H155.207L152.554 69.0568H154.712Z" fill="#030402"/>
<path d="M45 34H47.7116V50.0169H54V52H45V34Z" fill="#030402"/>
<path d="M208 34H210.57V49.96H216.53V51.95H208V34Z" fill="#030402"/>
<path d="M58 34H70V36.6408H61.0226L60.9623 43.7943H68.9557L68.9255 45.8078H60.9925V49.9865H70V52H58V34Z" fill="#030402"/>
<path d="M222 34H234V36.6417H225.023L224.962 43.7935H232.956L232.926 45.8125H224.992V49.981H234V52H222V34Z" fill="#030402"/>
<path d="M95 34H92V52H95V34Z" fill="#030402" stroke="#030402" stroke-width="0.25" stroke-miterlimit="10"/>
<path d="M168 34V52H170.58V38.77L180.39 43.91V52.15H182.9V34H180.46V41.07L168 34Z" fill="#030402"/>
<path d="M240 34V36.52H242.99V51.36C242.89 51.64 242.65 52.22 242.07 52.71C241.23 53.42 240.27 53.44 240 53.44V55.34H242.99C243.23 55.31 243.95 55.2 244.58 54.6C245.28 53.94 245.4 53.12 245.43 52.9V34.02H240V34Z" fill="#030402"/>
<path d="M277.048 38.2215L278.63 36.5192C278.331 36.0936 277.772 35.4221 276.855 34.8641C276.421 34.6087 275.312 33.9467 273.74 34.0034C271.955 34.0602 270.759 35.0059 270.412 35.2991C270.113 35.5545 268.685 36.7745 268.579 38.7606C268.511 40.0658 269.051 41.0305 269.283 41.4182C270.161 42.9315 271.579 43.6124 272.109 43.8299C273.942 44.596 274.733 43.8678 276.064 44.7946C276.354 44.9932 277.405 45.7309 277.473 46.951C277.54 48.1899 276.547 49.0127 276.45 49.0884C275.37 49.949 274.077 49.6369 273.932 49.6086C273.402 49.4951 272.669 49.287 271.878 48.8519C270.952 48.3412 270.325 47.7359 269.939 47.3009C269.293 47.7738 268.646 48.2561 268 48.729C268.405 49.287 269.235 50.2706 270.624 51.0177C271.955 51.7365 273.19 51.9162 273.875 51.9635C274.145 52.0013 276.739 52.2851 278.572 50.3746C278.813 50.1193 280.01 48.8425 280 46.8942C280 46.6294 279.971 45.3621 279.084 44.1042C278.215 42.8747 277.029 42.3545 276.576 42.1843C275.119 41.6358 274.588 42.1748 273.209 41.4655C272.717 41.2102 272.013 40.8508 271.666 40.0563C271.28 39.1957 271.531 38.354 271.627 38.0702C271.791 37.7581 272.254 36.992 273.161 36.6705C274.424 36.2165 276.045 36.8124 277.029 38.2215H277.048Z" fill="#030402"/>
<path d="M142.503 39.0292L144.54 37.7246C144.109 37.0961 143.267 36.0581 141.866 35.2296C140.045 34.1536 138.292 34.0202 137.479 34.0012C136.892 33.9917 133.219 33.9726 130.468 36.839C128.186 39.2197 128.02 42.0289 128 42.7527C128 43.2955 128.108 47.4569 131.643 50.1233C134.062 51.9422 136.696 52.0089 137.558 51.9993C138.419 51.9803 139.898 51.847 141.543 51.1137C143.306 50.3328 144.422 49.2377 145 48.5902L142.836 46.8189C142.356 47.2855 141.543 47.9521 140.368 48.4568C139.105 49.0092 137.959 49.133 137.264 49.1615C136.676 49.1234 134.776 48.9235 133.112 47.4474C131.094 45.6476 130.938 43.2859 130.918 42.8098C130.928 42.3527 131.036 40.2958 132.74 38.6198C134.669 36.7152 137.156 36.7819 137.558 36.8009C138.175 36.839 139.134 36.9723 140.211 37.4485C141.328 37.9436 142.082 38.6007 142.513 39.0388L142.503 39.0292Z" fill="#030402"/>
<path d="M112.52 74H114V66.61L117.5 69.5L121 66.61V74L122.45 74V63C120.72 64.32 119.23 65.68 117.5 67C115.92 65.68 114.1 64.32 112.52 63V74Z" fill="#030402" stroke="#030402" stroke-width="0.25" stroke-miterlimit="10"/>
<path d="M160 63H162L161.885 74H160V63Z" fill="#030402" stroke="#030402" stroke-width="0.25" stroke-miterlimit="10"/>
<path d="M92.24 31.57L94.18 29H97.57L94.73 31.57H92.24Z" fill="#030402" stroke="#030402" stroke-width="0.25" stroke-miterlimit="10"/>
<path d="M29.1282 52H25.6126L32.0135 33.8182H36.0795L42.4893 52H38.9737L34.1175 37.5469H33.9755L29.1282 52ZM29.2436 44.8711H38.8317V47.5167H29.2436V44.8711Z" fill="#030402"/>
<path d="M101.128 52H97.6126L104.013 33.8182H108.08L114.489 52H110.974L106.118 37.5469H105.975L101.128 52ZM101.244 44.8711H110.832V47.5167H101.244V44.8711Z" fill="#030402"/>
<path d="M151.128 52H147.613L154.013 33.8182H158.08L164.489 52H160.974L156.118 37.5469H155.975L151.128 52ZM151.244 44.8711H160.832V47.5167H151.244V44.8711Z" fill="#030402"/>
<path d="M191.128 52H187.613L194.013 33.8182H198.08L204.489 52H200.974L196.118 37.5469H195.975L191.128 52ZM191.244 44.8711H200.832V47.5167H191.244V44.8711Z" fill="#030402"/>
<path d="M252.128 52H248.613L255.013 33.8182H259.08L265.489 52H261.974L257.118 37.5469H256.975L252.128 52ZM252.244 44.8711H261.832V47.5167H252.244V44.8711Z" fill="#030402"/>
<path d="M140.773 74H137.076V63.0909H140.847C141.93 63.0909 142.861 63.3093 143.638 63.7461C144.42 64.1793 145.02 64.8026 145.439 65.6158C145.858 66.429 146.067 67.402 146.067 68.5348C146.067 69.6712 145.856 70.6477 145.434 71.4645C145.015 72.2812 144.409 72.908 143.617 73.3448C142.829 73.7816 141.881 74 140.773 74ZM139.052 72.2901H140.677C141.437 72.2901 142.071 72.1516 142.578 71.8746C143.086 71.5941 143.468 71.1768 143.724 70.6229C143.979 70.0653 144.107 69.3693 144.107 68.5348C144.107 67.7003 143.979 67.0078 143.724 66.4574C143.468 65.9034 143.09 65.4897 142.589 65.2163C142.092 64.9393 141.474 64.8008 140.735 64.8008H139.052V72.2901Z" fill="#030402"/>
<path d="M168.773 74H165.076V63.0909H168.847C169.93 63.0909 170.861 63.3093 171.638 63.7461C172.42 64.1793 173.02 64.8026 173.439 65.6158C173.858 66.429 174.067 67.402 174.067 68.5348C174.067 69.6712 173.856 70.6477 173.434 71.4645C173.015 72.2812 172.409 72.908 171.617 73.3448C170.829 73.7816 169.881 74 168.773 74ZM167.052 72.2901H168.677C169.437 72.2901 170.071 72.1516 170.578 71.8746C171.086 71.5941 171.468 71.1768 171.724 70.6229C171.979 70.0653 172.107 69.3693 172.107 68.5348C172.107 67.7003 171.979 67.0078 171.724 66.4574C171.468 65.9034 171.09 65.4897 170.589 65.2163C170.092 64.9393 169.474 64.8008 168.735 64.8008H167.052V72.2901Z" fill="#030402"/>
<path d="M126.477 74H124.368L128.208 63.0909H130.648L134.494 74H132.384L129.471 65.3281H129.385L126.477 74ZM126.546 69.7227H132.299V71.31H126.546V69.7227Z" fill="#030402"/>
</svg>
