<svg width="300" height="150" viewBox="0 0 300 150" fill="none" xmlns="http://www.w3.org/2000/svg">
<path d="M26.836 63.0099L28.6941 61.3099C28.1846 60.7599 27.3954 60.0499 26.2865 59.4499C24.5483 58.5199 22.9199 58.3699 22.0208 58.3599C21.2217 58.3999 18.5044 58.6199 16.1168 60.7699C13.3197 63.2899 13.04 66.5999 13 67.2799C13 67.8999 13.0599 71.2699 15.7872 73.9499C18.4145 76.5399 21.6412 76.6299 22.2906 76.6299C23.2896 76.5799 24.6981 76.3899 26.2765 75.8099C27.6052 75.3199 28.6441 74.6999 29.3934 74.1699V67.9199H22.7801V70.2899H26.3864V72.6399C25.9968 72.9299 25.4274 73.2899 24.6881 73.5699C23.839 73.8899 23.0798 73.9799 22.5603 74.0099C22.1707 74.0399 19.6532 74.1699 17.6453 72.2099C15.7172 70.3199 15.7272 67.9099 15.7372 67.5099C15.7372 67.0599 15.8072 64.5399 17.8651 62.5899C19.6732 60.8799 21.8011 60.7499 22.3405 60.7299C22.83 60.7299 23.6292 60.7799 24.5283 61.1699C25.797 61.7099 26.5163 62.5999 26.826 63.0299L26.836 63.0099Z" fill="black" stroke="black" stroke-width="0.25" stroke-miterlimit="10"/>
<path d="M31.8009 76.24L40.0525 57.87L48.3042 76.24H45.3571L44.0984 73.62H35.5171L34.3183 76.24H31.8009Z" fill="black" stroke="black" stroke-width="0.25" stroke-miterlimit="10"/>
<path d="M36.6659 71.2599H43.2792L39.9725 63.9899L36.6659 71.2599Z" fill="white"/>
<path d="M105.146 76.15L113.398 57.78L121.64 76.15H118.693L117.434 73.53H108.863L107.664 76.15H105.146Z" fill="black" stroke="black" stroke-width="0.25" stroke-miterlimit="10"/>
<path d="M110.011 71.1699H116.615L113.318 63.8999L110.011 71.1699Z" fill="#FEFEFE"/>
<path d="M193.656 76.2101L201.908 57.8401L210.16 76.2101H207.203L205.954 73.5901H197.373L196.174 76.2101H193.656Z" fill="black" stroke="black" stroke-width="0.25" stroke-miterlimit="10"/>
<path d="M198.522 71.2401H205.135L201.828 63.9601L198.522 71.2401Z" fill="#FEFEFE"/>
<path d="M153.887 76.15L162.139 57.78L170.39 76.15H167.433L166.185 73.53H157.603L156.405 76.15H153.887Z" fill="black" stroke="black" stroke-width="0.25" stroke-miterlimit="10"/>
<path d="M158.752 71.1699H165.365L162.059 63.8999L158.752 71.1699Z" fill="#FEFEFE"/>
<path d="M254.865 76.6799L263.116 58.2999L271.368 76.6799H268.421L267.162 74.0499H258.581L257.382 76.6799H254.865Z" fill="black" stroke="black" stroke-width="0.25" stroke-miterlimit="10"/>
<path d="M259.729 71.7001H266.343L263.036 64.4301L259.729 71.7001Z" fill="#FEFEFE"/>
<path d="M51.5807 58.3599H54.1481V74.1899H60.102V76.1499H51.5807V58.3599Z" fill="black" stroke="black" stroke-width="0.25" stroke-miterlimit="10"/>
<path d="M214.595 58.5499H217.162V74.5099H223.116V76.4999H214.595V58.5499Z" fill="black" stroke="black" stroke-width="0.25" stroke-miterlimit="10"/>
<path d="M65.0472 58.3599H76.9851V60.9699H68.0542L67.9942 68.0399H75.9462L75.9162 70.0299H68.0242V74.1599H76.9851V76.1499H65.0472V58.3599Z" fill="black" stroke="black" stroke-width="0.25" stroke-miterlimit="10"/>
<path d="M228.531 58.58H240.469V61.21H231.538L231.478 68.33H239.43L239.4 70.34H231.508V74.49H240.469V76.5H228.531V58.58Z" fill="black" stroke="black" stroke-width="0.25" stroke-miterlimit="10"/>
<path d="M82.3694 76.1499V58.3599H88.3233C88.9327 58.4899 90.4712 58.8999 91.8498 60.3099C93.2384 61.7299 93.6379 63.3299 93.7578 63.9499V67.4299C93.7279 67.8199 93.588 68.8199 92.8488 69.7799C92.1095 70.7399 91.1904 71.0999 90.8408 71.2199C91.8198 72.8699 92.7888 74.5099 93.7678 76.1599H90.8208L88.3333 72.1499L84.8668 72.1199V76.1599H82.3794L82.3694 76.1499Z" fill="black" stroke="black" stroke-width="0.25" stroke-miterlimit="10"/>
<path d="M84.3574 60.8201V69.7301H88.2335C88.5731 69.6801 89.4023 69.5001 90.1615 68.8201C90.8109 68.2401 91.0906 67.5701 91.2105 67.2401V63.3001C91.0606 62.9601 90.701 62.2501 89.9417 61.6501C89.1825 61.0601 88.4233 60.8701 88.0537 60.8101H84.3574V60.8201Z" fill="#FEFEFE"/>
<path d="M101.24 58.3599H98.7528V76.1499H101.24V58.3599Z" fill="black" stroke="black" stroke-width="0.25" stroke-miterlimit="10"/>
<path d="M174.536 58.29V76.15H177.014V62.77L186.814 67.91V76.15H189.321V58.43H186.884V65.07L174.536 58.29Z" fill="black" stroke="black" stroke-width="0.25" stroke-miterlimit="10"/>
<path d="M246.323 58.3599V60.8799H249.31V75.7199C249.21 75.9999 248.97 76.5799 248.391 77.0699C247.551 77.7799 246.592 77.7999 246.323 77.7999V79.6999H249.31C249.549 79.6699 250.269 79.5599 250.898 78.9599C251.597 78.2999 251.717 77.4799 251.747 77.2599V58.3799H246.323V58.3599Z" fill="black" stroke="black" stroke-width="0.25" stroke-miterlimit="10"/>
<path d="M283.835 62.15L285.473 60.35C285.163 59.9 284.584 59.19 283.635 58.6C283.185 58.33 282.037 57.63 280.408 57.69C278.56 57.75 277.321 58.75 276.962 59.06C276.652 59.33 275.174 60.62 275.064 62.72C274.994 64.1 275.553 65.12 275.793 65.53C276.702 67.13 278.171 67.85 278.72 68.08C280.618 68.89 281.437 68.12 282.816 69.1C283.116 69.31 284.204 70.09 284.274 71.38C284.344 72.69 283.315 73.56 283.215 73.64C282.097 74.55 280.758 74.22 280.608 74.19C280.059 74.07 279.299 73.85 278.48 73.39C277.521 72.85 276.872 72.21 276.472 71.75C275.803 72.25 275.134 72.76 274.464 73.26C274.884 73.85 275.743 74.89 277.182 75.68C278.56 76.44 279.839 76.63 280.548 76.68C280.828 76.72 283.515 77.02 285.413 75C285.663 74.73 286.902 73.38 286.892 71.32C286.892 71.04 286.862 69.7 285.943 68.37C285.044 67.07 283.815 66.52 283.345 66.34C281.837 65.76 281.287 66.33 279.859 65.58C279.349 65.31 278.62 64.93 278.26 64.09C277.861 63.18 278.121 62.29 278.221 61.99C278.39 61.66 278.87 60.85 279.809 60.51C281.118 60.03 282.796 60.66 283.815 62.15H283.835Z" fill="black" stroke="black" stroke-width="0.25" stroke-miterlimit="10"/>
<path d="M148.662 63.17L150.74 61.8C150.3 61.14 149.441 60.05 148.013 59.18C146.155 58.05 144.366 57.91 143.537 57.89C142.938 57.88 139.192 57.86 136.385 60.87C134.057 63.37 133.887 66.32 133.867 67.08C133.867 67.65 133.977 72.02 137.583 74.82C140.051 76.73 142.738 76.8 143.617 76.79C144.496 76.77 146.005 76.63 147.683 75.86C149.481 75.04 150.62 73.89 151.209 73.21L149.002 71.35C148.512 71.84 147.683 72.54 146.484 73.07C145.196 73.65 144.027 73.78 143.317 73.81C142.718 73.77 140.78 73.56 139.082 72.01C137.024 70.12 136.864 67.64 136.844 67.14C136.854 66.66 136.964 64.5 138.702 62.74C140.67 60.74 143.208 60.81 143.617 60.83C144.247 60.87 145.226 61.01 146.324 61.51C147.463 62.03 148.232 62.72 148.672 63.18L148.662 63.17Z" fill="black" stroke="black" stroke-width="0.25" stroke-miterlimit="10"/>
<path d="M119.012 98H120.021V90.61L123.768 93.56L127.973 90.61V98H128.932V88.12C127.204 89.44 125.476 90.76 123.748 92.08C122.169 90.76 120.591 89.44 119.012 88.12V98Z" fill="black" stroke="black" stroke-width="0.25" stroke-miterlimit="10"/>
<path d="M131.43 98L135.925 87.62H136.844L141.28 98H139.352L138.842 96.51H133.907L133.348 98H131.43Z" fill="black" stroke="black" stroke-width="0.25" stroke-miterlimit="10"/>
<path d="M134.387 95.05H138.333L136.805 91.12H135.915L134.387 95.05Z" fill="#FEFEFE"/>
<path d="M143.817 87.62H148.283C148.792 87.74 149.941 88.08 150.92 89.11C152.468 90.74 152.379 92.82 152.359 93.19C152.359 93.59 152.269 95.18 151.01 96.53C149.991 97.62 148.772 97.91 148.333 98H143.817V87.62Z" fill="black" stroke="black" stroke-width="0.25" stroke-miterlimit="10"/>
<path d="M145.306 89.0701H148.333C148.672 89.2201 149.581 89.6701 150.231 90.7101C150.86 91.7201 150.86 92.7101 150.85 93.0801C150.85 93.4001 150.78 94.4001 150.031 95.3201C149.402 96.1001 148.622 96.4001 148.303 96.5001H145.316V89.0601L145.306 89.0701Z" fill="#FEFEFE"/>
<path d="M172.828 87.62H177.293C177.803 87.74 178.951 88.08 179.93 89.11C181.479 90.74 181.389 92.82 181.369 93.19C181.369 93.59 181.279 95.18 180.02 96.53C179.001 97.62 177.783 97.91 177.343 98H172.828V87.62Z" fill="black" stroke="black" stroke-width="0.25" stroke-miterlimit="10"/>
<path d="M174.316 89.0701H177.343C177.683 89.2201 178.592 89.6701 179.241 90.7101C179.871 91.7201 179.871 92.7101 179.861 93.0801C179.861 93.4001 179.791 94.4001 179.041 95.3201C178.412 96.1001 177.633 96.4001 177.313 96.5001H174.326V89.0601L174.316 89.0701Z" fill="#FEFEFE"/>
<path d="M155.765 87.62V98H157.224V95.58H159.232L160.76 98H162.638L161.09 95.54L161.13 94.54C161.27 94.49 161.449 94.4 161.639 94.25C162.678 93.45 162.648 91.91 162.638 91.44C162.638 91.11 162.558 88.98 160.98 87.98C160.67 87.78 160.37 87.67 160.161 87.62H155.775H155.765Z" fill="black" stroke="black" stroke-width="0.25" stroke-miterlimit="10"/>
<path d="M157.183 89.0701V94.0801H159.681C159.911 93.9701 160.3 93.7401 160.63 93.3101C161.169 92.5901 161.169 91.8101 161.159 91.5701C161.159 91.3201 161.149 90.3201 160.39 89.5701C160.13 89.3101 159.851 89.1501 159.621 89.0601H157.183V89.0701Z" fill="#FEFDFD"/>
<path d="M166.544 87.62H168.102L168.012 98H166.544V87.62Z" fill="black" stroke="black" stroke-width="0.25" stroke-miterlimit="10"/>
<path d="M98.7528 55.57L100.691 53H104.077L101.24 55.57H98.7528Z" fill="black" stroke="black" stroke-width="0.25" stroke-miterlimit="10"/>
</svg>
