<svg width="300" height="150" viewBox="0 0 300 150" fill="none" xmlns="http://www.w3.org/2000/svg">
<path d="M59.6447 60.489C61.8746 60.341 64.0923 60.921 65.9645 62.1419C76.022 68.6609 74.4871 86.6226 62.4262 89.1282C56.1482 89.9289 51.2445 85.2663 49.6021 79.5156C48.4027 75.3568 48.9056 70.8919 51.0002 67.1042C53.1719 63.2189 55.5362 61.653 59.6447 60.489ZM62.2048 88.5737C64.0923 88.1213 65.3338 87.3945 66.3152 85.6516C69.0581 80.7781 68.8914 73.4712 67.798 68.1511C66.8442 63.5109 64.2275 60.5198 59.2727 61.1558C57.2204 61.8592 55.7428 63.0412 54.8424 65.0858C52.5415 70.3117 52.7081 78.1242 54.2439 83.538C55.3264 87.3546 58.3891 89.1033 62.2048 88.5737Z" fill="black"/>
<path d="M135.658 60.4973C142.82 60.2158 147.618 66.6397 148.515 73.1674C149.47 80.1157 145.166 88.2758 137.742 89.1934C131.96 90.0287 126.946 84.5183 125.522 79.3859C124.362 75.194 124.916 70.7128 127.063 66.9302C129.192 63.1938 131.67 61.5893 135.658 60.4973ZM137.845 88.6231C139.715 88.2657 141.055 87.6082 142.086 85.9378C144.939 81.3195 144.824 74.1821 143.982 68.955C143.252 64.4237 140.813 60.6327 135.795 61.1303C133.69 61.6491 132.356 62.314 131.215 64.2667C129.732 66.8018 129.319 69.9 129.213 72.7979C128.991 78.9253 129.064 89.4639 137.845 88.6231Z" fill="black"/>
<path d="M163.241 87.5334C163.313 86.989 163.989 85.2259 164.204 84.5874C165.011 82.1832 165.835 79.7845 166.674 77.3915C167.358 75.4307 172.185 61.0379 172.798 60.594C173.16 60.9911 181.231 85.3095 182.04 87.9515C183.325 88.0237 185.103 87.9815 186.425 87.9861C186.251 86.9815 186.306 82.658 186.302 81.4246L186.286 68.2259C186.288 66.53 186.319 64.8025 186.358 63.1031C186.402 61.1528 185.024 62.2815 184.294 61.5949L184.354 61.2578C184.385 61.246 184.547 61.187 184.571 61.1876C188.814 61.286 194.306 60.3596 198.081 62.5579C201.072 64.3 201.762 68.4416 200.013 71.2283C198.925 72.9615 197.607 73.6046 195.676 74.0417C202.012 75.9308 200.082 80.7122 200.618 85.8186C200.736 86.9389 201.298 87.3494 202.158 87.9082C202.626 87.9544 206.886 88.1979 206.965 87.7239C207.471 84.705 206.39 65.8442 207.243 64.2814C208.091 67.0237 207.47 74.3216 207.629 77.5575C207.708 79.179 207.786 86.6579 207.452 87.9651C208.189 87.956 209.07 87.8692 209.71 88.1986L209.691 88.3865C208.816 88.6339 203.048 88.6621 202.07 88.5065C201.347 88.3854 200.649 88.1424 200.008 87.7879C198.541 86.9624 198.071 85.9679 197.57 84.473C196.59 81.5426 198.332 76.8725 195.253 75.1268C193.678 74.2342 191.142 74.4682 189.406 74.2861C189.594 76.2681 189.242 87.2694 189.519 87.9413L189.538 88.5686C186.193 88.7317 179.423 88.4669 175.76 88.5777C175.588 88.4726 175.442 88.3833 175.321 88.3094L175.309 88.0772C175.687 87.9205 178.083 87.9834 178.662 87.9905C178.134 86.8403 176.105 80.709 175.878 79.5228C173.854 79.3013 169.136 79.526 166.636 79.4191C165.725 81.4904 164.621 86.1368 163.662 87.8431L163.241 87.5334ZM189.412 73.7066C191.582 73.7434 193.852 74.0516 195.521 72.4478C195.603 72.3696 195.682 72.2889 195.758 72.2059C197.048 70.2972 197.723 68.5238 197.201 66.2443C196.146 61.634 193.019 61.8184 189.5 61.7594C189.376 65.3289 189.743 70.305 189.412 73.7066ZM166.743 78.9094C168.24 78.8468 169.579 78.8595 171.074 78.883C172.498 78.8759 174.2 78.9104 175.601 78.812C174.66 76.1148 173.752 73.4065 172.876 70.6879C172.602 69.8345 171.759 66.5757 171.195 66.3062C169.673 69.6349 168.342 75.4468 166.743 78.9094Z" fill="black"/>
<path d="M231.859 88.085C232.875 87.4891 240.008 64.6607 241.316 61.6533C241.423 61.408 241.744 60.316 241.838 60C242.526 61.6475 243.244 63.994 243.823 65.7258L247.084 75.4481L249.703 83.2229C250.137 84.5193 250.924 86.6865 251.14 87.9395C252.339 88.0386 253.836 88.0311 255.073 88.0863C255.254 79.8735 254.883 71.3182 255.126 63.1275C255.4 63.6514 255.421 63.7649 255.461 64.3558C255.662 65.3853 255.591 70.6887 255.576 72.0997C255.521 77.3964 255.641 82.8091 255.54 88.092C256.355 88.0245 256.885 87.9239 257.645 88.25L257.674 88.4033C255.689 88.7611 250.012 88.5888 247.689 88.6003L247.635 87.9779C247.536 86.713 245.544 81.4677 245.087 79.5457C242.126 79.3955 238.666 79.6453 235.902 79.4373C234.794 82.2844 233.894 85.1595 232.773 88.0009C233.303 87.9929 235.03 87.9209 235.4 88.3184C234.654 88.7076 226.905 88.6662 225.706 88.5647C225.085 88.573 224.216 88.635 223.653 88.4359L223.603 88.1377C224.173 87.7717 224.413 88.1097 225.325 87.8768C225.353 87.8397 225.556 87.5668 225.556 87.5668C225.586 81.855 225.285 68.1901 225.71 63.4149C223.668 66.3103 221.923 74.6813 220.387 78.2828C218.98 81.5789 218.103 85.597 216.633 89.0507C215.777 85.0104 212.854 78.5727 211.487 74.382C210.53 71.451 209.14 67.9314 208.02 65.0089C207.804 64.4462 207.696 64.4408 207.243 64.2815L207.094 61.8964C206.432 61.8647 205.575 61.8807 204.989 61.6123L205.045 61.4285C206.105 61.0782 209.742 60.8732 210.047 61.3427C211.409 63.4469 217.242 82.0758 218.063 82.6107C218.585 81.9968 224.697 63.4716 225.535 61.0898C226.845 61.0864 229.566 61.0061 230.702 61.5523L230.544 61.5529L230.74 61.6458L230.406 61.7301L230.439 61.5515C230.037 61.9737 229.275 61.8324 228.693 61.8078C228.776 67.5758 228.806 73.3444 228.784 79.1129C228.78 81.1674 228.873 86.0673 228.633 87.931C229.481 87.9615 231.072 87.9736 231.859 88.085ZM236.076 78.8632L241.302 78.8763C242.452 78.8811 243.695 78.862 244.837 78.9017C243.55 76.0786 241.779 69.4305 240.654 66.2695C240.531 66.2102 240.425 66.1589 240.334 66.1154L236.076 78.8632Z" fill="black"/>
<path d="M75.9688 61.7947C75.3632 61.8081 74.2228 61.952 73.8528 61.4401C74.0259 61.3467 74.2119 61.279 74.4043 61.239C75.5421 60.9979 77.1369 61.131 78.3139 61.1077C82.6451 61.0218 89.2732 60.9405 90.3975 66.4336C90.7386 68.1684 90.3756 69.9676 89.3884 71.4341C88.2769 73.1002 87.1848 73.5822 85.323 73.9492C90.5584 76.002 90.0255 78.8879 90.0178 83.8213C90.0139 86.3894 90.1098 87.5898 92.6783 88.3794C93.7182 88.0447 94.2241 87.9171 95.3008 87.7405C94.2234 88.303 93.5979 88.5868 92.4607 89.0104C83.8248 87.077 88.5479 80.6983 85.695 75.8348C84.8345 74.3683 80.6823 74.3717 78.9575 74.2697C79.1802 76.7969 78.6705 86.7742 79.1075 88.0727C78.8719 88.3728 78.7361 88.4128 78.3963 88.5618C77.6305 88.6269 74.3741 88.705 73.8869 88.1763C74.6199 87.9266 75.275 87.9746 76.0447 87.9793C75.824 86.7142 75.9148 81.4241 75.9141 79.7434C75.8935 73.7605 75.9122 67.7775 75.9688 61.7947ZM78.9594 73.7517C80.2646 73.7698 81.8651 73.8344 83.1471 73.803C83.8679 73.3177 84.5803 72.8726 85.2039 72.2661C87.3901 69.7578 87.6701 65.5332 85.0874 63.0678C83.5332 61.5842 81.051 61.922 79.0811 61.6934C78.8655 65.1962 79.3514 70.5904 78.9594 73.7517Z" fill="black"/>
<path d="M255.126 63.1275C255.046 62.6811 255 62.0472 254.676 61.7678C254.15 61.744 253.189 61.7505 252.742 61.5532L252.739 61.3844C253.313 60.9568 257.765 61.1118 258.658 61.1973C262.726 67.7802 267.89 76.3406 272.259 82.6134C272.079 80.3893 272.085 77.7969 272.139 75.5496C272.249 71.0302 271.979 66.3009 272.239 61.8083C271.698 61.8136 270.19 61.8461 269.815 61.41C270.387 60.9088 281.662 61.0505 282.976 61.4421L283 61.5882C282.143 61.8421 281.864 61.8303 280.984 61.8224C281.002 64.714 280.924 87.6579 281.116 88.0227L281.06 88.5705C279.35 88.6003 277.552 88.6806 275.874 88.3647L275.785 88.2063C276.464 87.915 277.228 87.9477 277.969 87.9288C277.694 85.7665 277.843 80.4118 277.858 78.0271C277.891 72.7249 277.777 67.137 277.935 61.8598C276.27 61.7495 274.473 61.7863 272.746 61.6881C272.78 70.946 272.617 80.34 272.709 89.5617C270.634 86.7609 256.631 63.833 255.829 63.348C255.572 63.6116 255.562 63.9492 255.461 64.3558C255.421 63.7649 255.399 63.6514 255.126 63.1275Z" fill="black"/>
<path d="M103.886 60.4933C107.547 60.344 107.154 61.3881 110.351 61.8453C111.209 61.968 111.959 61.0663 112.566 60.4679C112.485 61.5347 112.445 68.8375 112.398 68.9191L112.192 68.9171C111.295 67.443 111.797 65.3947 109.425 62.9672C108.257 61.7715 106.657 61.0958 104.985 61.0919C98.3423 61.0216 97.2469 69.5542 97.3563 74.5434C97.4477 78.6966 97.3081 83.7406 100.38 86.966C102.493 89.1847 106.562 89.4124 108.74 87.2137C110.731 85.2109 110.472 82.8221 110.468 80.2046L110.508 77.7932C109.478 77.8033 108.787 77.8572 107.823 77.437C108.415 77.0609 115.212 77.0072 115.735 77.3745L115.683 77.5799C115.262 77.8934 114.197 77.7354 113.617 77.703C113.702 79.0327 113.861 87.5903 113.455 88.3086C109.74 85.1484 109.901 88.2498 106.891 89.0147C100.747 90.5766 95.6097 85.118 93.8592 79.6673C92.5579 75.6505 92.9331 71.2783 94.9005 67.5421C97.1137 63.2514 99.5451 61.8753 103.886 60.4933Z" fill="black"/>
<path d="M27.8866 60.5241C31.4712 60.2006 31.3728 61.6818 34.3781 61.8759C35.2141 61.9299 35.8895 60.9163 36.413 60.2738C36.3419 61.9414 36.626 68.0004 36.0848 68.9881C35.7899 68.8814 35.6719 68.2379 35.6382 67.914C35.2893 64.5665 32.6328 60.9822 28.9512 61.114C20.7618 61.4486 21.2614 71.7465 21.2137 77.635C21.1954 78.6857 21.5086 79.5989 21.5749 80.6385C21.9395 86.3547 27.3325 91.6173 32.626 87.1522C34.4761 85.5917 34.4448 82.8144 34.3949 80.3789L34.4207 77.7668C33.788 77.7836 32.409 77.8464 31.9176 77.4728C32.0554 77.4007 32.2011 77.3447 32.3518 77.3061C33.5975 76.9921 38.7167 76.9231 39.7398 77.5507L39.5452 77.4833L39.7344 77.5917L39.4935 77.6814L39.5337 77.5056L39.3835 77.7038C38.9239 77.8277 38.0373 77.7305 37.5296 77.6989C37.5976 79.1871 37.6931 87.4906 37.3665 88.5712L37.209 88.5782C36.8264 88.0359 36.4444 87.4573 35.9778 86.9881C34.431 86.2782 32.0906 88.706 30.4968 89.0415C23.9425 90.4212 18.9597 84.4237 17.4792 78.7334C16.4513 74.6656 17.092 70.3557 19.2587 66.7628C21.4991 62.9634 23.7734 61.5831 27.8866 60.5241Z" fill="black"/>
<path d="M116.345 61.1398C118.365 61.1143 121.87 60.9694 123.711 61.3522L123.629 61.5695C123.177 61.9066 122.273 61.7901 121.742 61.7291C121.571 64.0526 121.724 67.2547 121.695 69.6646C121.621 75.7268 121.819 81.9235 121.666 87.9765C122.309 87.9846 123.3 87.9468 123.86 88.2056L123.834 88.4058L123.457 88.5618C121.807 88.6047 117.561 88.8324 116.169 88.3491C116.629 87.9582 117.951 88.0365 118.54 88.0704L118.508 61.6921C118.205 61.7142 117.902 61.7333 117.598 61.7494C117.051 61.7767 116.555 61.8369 116.172 61.4893L116.345 61.1398Z" fill="black"/>
<path d="M42.5333 61.8048C41.9088 61.8096 40.8222 61.8801 40.2813 61.6613L40.1499 61.4257C40.7301 60.9435 47.2866 61.0223 47.7755 61.3958C47.0059 61.8974 46.5318 61.8143 45.6401 61.7519C45.5715 64.4768 45.6229 67.2024 45.6229 69.9297C45.6229 75.8196 45.6197 81.7125 45.58 87.6021C45.5791 87.7484 45.7829 88.0137 45.8746 88.1296C45.5523 88.3702 45.3127 88.4356 44.939 88.5693L42.7968 88.6005C42.6553 88.4883 42.5723 88.2778 42.4868 88.1094C42.6604 86.4129 42.5245 81.4442 42.5205 79.4852L42.5333 61.8048Z" fill="black"/>
<path d="M163.241 87.5334L163.662 87.8431C164.179 88.0395 164.959 87.842 165.812 88.1042L165.919 88.3076C165.117 88.785 161.284 88.5408 160.273 88.3082C161.389 88.0213 162.55 88.1605 163.241 87.5334Z" fill="black"/>
<path d="M247.689 88.6003C246.625 88.5894 245.288 88.6448 244.307 88.253L244.614 88.1024L244.639 88.3497L244.711 88.3614L244.861 88.0622C245.633 87.9273 246.816 87.9715 247.635 87.978L247.689 88.6003Z" fill="black"/>
<path d="M79.1074 88.0728C79.8925 87.9837 81.8065 87.8007 82.414 88.2178L82.3876 88.3889C81.6044 88.6146 79.3236 88.5521 78.3962 88.562C78.736 88.4129 78.8718 88.373 79.1074 88.0728Z" fill="black"/>
<path d="M189.519 87.9413C190.443 87.9489 191.607 87.9029 192.467 88.174L192.52 88.338C191.666 88.6394 190.473 88.5628 189.538 88.5686L189.519 87.9413Z" fill="black"/>
<path d="M42.7967 88.6004C42.2165 88.5655 40.4526 88.6898 40.2664 88.1297C41.0287 87.8522 41.7039 87.9672 42.4866 88.1093C42.5722 88.2777 42.6551 88.4882 42.7967 88.6004Z" fill="black"/>
<path d="M281.116 88.0227C281.765 87.9859 282.336 87.9034 282.935 88.1699L282.94 88.3833C282.438 88.6708 281.659 88.5836 281.06 88.5705L281.116 88.0227Z" fill="black"/>
<path d="M45.8745 88.1295C46.5135 87.9971 46.8107 87.9056 47.4485 88.0962C46.9955 88.6977 45.6453 88.5739 44.939 88.5692C45.3127 88.4356 45.5522 88.3702 45.8745 88.1295Z" fill="black"/>
</svg>
