<svg width="300" height="150" viewBox="0 0 300 150" fill="none" xmlns="http://www.w3.org/2000/svg">
<path d="M80.1788 63.3804C81.9138 63.2653 83.6392 63.7166 85.0958 64.6665C92.9209 69.7384 91.7267 83.7132 82.3429 85.6626C77.4584 86.2856 73.6432 82.658 72.3654 78.1837C71.4322 74.9481 71.8235 71.4742 73.4531 68.5273C75.1427 65.5044 76.9823 64.2861 80.1788 63.3804ZM82.1706 85.2312C83.6392 84.8792 84.6051 84.3138 85.3687 82.9577C87.5027 79.166 87.373 73.481 86.5223 69.3418C85.7803 65.7315 83.7444 63.4044 79.8894 63.8992C78.2926 64.4465 77.143 65.3661 76.4425 66.9569C74.6523 71.0228 74.7819 77.1012 75.9768 81.3133C76.819 84.2827 79.2019 85.6432 82.1706 85.2312Z" fill="black"/>
<path d="M139.32 63.387C144.892 63.1679 148.625 68.1659 149.323 73.2446C150.066 78.6506 146.717 84.9994 140.941 85.7134C136.443 86.3633 132.541 82.076 131.434 78.0828C130.531 74.8214 130.962 71.3349 132.632 68.3919C134.289 65.4849 136.217 64.2365 139.32 63.387ZM141.021 85.2697C142.476 84.9916 143.519 84.48 144.321 83.1804C146.54 79.5872 146.451 74.0341 145.796 69.9673C145.228 66.4418 143.33 63.4923 139.426 63.8795C137.788 64.2831 136.751 64.8004 135.862 66.3197C134.709 68.292 134.387 70.7025 134.305 72.9572C134.133 77.7244 134.189 85.9238 141.021 85.2697Z" fill="black"/>
<path d="M160.78 84.4219C160.836 83.9983 161.362 82.6265 161.529 82.1298C162.157 80.2592 162.798 78.3929 163.451 76.5311C163.984 75.0056 167.738 63.8075 168.216 63.4622C168.497 63.7711 174.777 82.6915 175.406 84.7472C176.406 84.8033 177.789 84.7704 178.818 84.7741C178.682 83.9924 178.725 80.6286 178.722 79.669L178.71 69.4C178.712 68.0805 178.736 66.7365 178.766 65.4143C178.8 63.8969 177.728 64.7751 177.16 64.2409L177.207 63.9786C177.23 63.9694 177.357 63.9236 177.375 63.924C180.677 64.0006 184.95 63.2798 187.887 64.9901C190.214 66.3456 190.751 69.5678 189.39 71.736C188.543 73.0845 187.518 73.5848 186.016 73.9249C190.945 75.3947 189.444 79.1147 189.86 83.0877C189.952 83.9593 190.39 84.2787 191.059 84.7135C191.423 84.7494 194.737 84.9388 194.799 84.5701C195.192 82.2212 194.351 67.547 195.015 66.3311C195.675 68.4647 195.192 74.1427 195.315 76.6603C195.377 77.9218 195.437 83.7407 195.178 84.7577C195.751 84.7506 196.436 84.6831 196.934 84.9393L196.919 85.0855C196.239 85.278 191.752 85.3 190.99 85.1789C190.428 85.0847 189.885 84.8957 189.386 84.6198C188.245 83.9776 187.879 83.2038 187.489 82.0407C186.726 79.7608 188.082 76.1273 185.686 74.7691C184.461 74.0746 182.488 74.2567 181.137 74.115C181.284 75.6571 181.009 84.2164 181.225 84.7392L181.24 85.2272C178.637 85.3542 173.37 85.1481 170.52 85.2343C170.386 85.1526 170.273 85.083 170.178 85.0256L170.169 84.845C170.464 84.723 172.327 84.772 172.778 84.7775C172.367 83.8826 170.789 79.1123 170.612 78.1894C169.037 78.017 165.367 78.1919 163.421 78.1087C162.713 79.7202 161.854 83.3352 161.108 84.6628L160.78 84.4219ZM181.142 73.6642C182.83 73.6928 184.596 73.9326 185.895 72.6848C185.959 72.6239 186.02 72.5611 186.079 72.4966C187.083 71.0116 187.608 69.6318 187.202 67.8583C186.381 64.2713 183.948 64.4148 181.211 64.3688C181.114 67.1461 181.4 71.0176 181.142 73.6642ZM163.505 77.7121C164.669 77.6634 165.711 77.6733 166.874 77.6916C167.982 77.686 169.306 77.7129 170.396 77.6363C169.665 75.5378 168.958 73.4307 168.277 71.3155C168.063 70.6516 167.407 68.1161 166.969 67.9064C165.785 70.4962 164.749 75.0181 163.505 77.7121Z" fill="black"/>
<path d="M214.167 84.851C214.958 84.3874 220.507 66.6261 221.525 64.2863C221.608 64.0955 221.858 63.2458 221.931 63C222.466 64.2818 223.025 66.1075 223.476 67.4548L226.013 75.0191L228.05 81.0681C228.388 82.0768 229.001 83.7629 229.168 84.7378C230.102 84.8149 231.266 84.8091 232.228 84.852C232.369 78.4622 232.08 71.8059 232.27 65.4333C232.482 65.8409 232.5 65.9292 232.53 66.389C232.686 67.1899 232.631 71.3161 232.62 72.414C232.577 76.535 232.67 80.7462 232.592 84.8564C233.226 84.8039 233.638 84.7256 234.229 84.9793L234.252 85.0987C232.708 85.377 228.291 85.243 226.483 85.2519L226.441 84.7677C226.364 83.7835 224.815 79.7026 224.459 78.2072C222.155 78.0903 219.463 78.2846 217.313 78.1228C216.451 80.3379 215.75 82.5749 214.878 84.7856C215.291 84.7793 216.634 84.7233 216.922 85.0326C216.342 85.3354 210.312 85.3032 209.38 85.2242C208.897 85.2307 208.221 85.2789 207.782 85.124L207.743 84.892C208.187 84.6073 208.374 84.8702 209.084 84.689C209.105 84.6601 209.263 84.4478 209.263 84.4478C209.287 80.0039 209.052 69.3721 209.383 65.6569C207.794 67.9096 206.436 74.4225 205.241 77.2246C204.147 79.789 203.465 82.9152 202.321 85.6023C201.655 82.4589 199.381 77.4501 198.317 74.1896C197.573 71.9092 196.491 69.1709 195.62 66.8971C195.452 66.4593 195.368 66.4551 195.015 66.3311L194.899 64.4754C194.384 64.4508 193.717 64.4633 193.261 64.2544L193.305 64.1114C194.129 63.8388 196.959 63.6794 197.196 64.0446C198.256 65.6818 202.794 80.1757 203.433 80.5918C203.839 80.1142 208.595 65.701 209.247 63.8479C210.266 63.8453 212.383 63.7828 213.267 64.2077L213.144 64.2082L213.297 64.2805L213.036 64.3461L213.062 64.2071C212.749 64.5356 212.157 64.4257 211.704 64.4065C211.769 68.8942 211.792 73.3823 211.775 77.8704C211.772 79.4689 211.844 83.2811 211.657 84.7312C212.317 84.7549 213.555 84.7643 214.167 84.851ZM217.448 77.6761L221.514 77.6863C222.409 77.6901 223.376 77.6752 224.265 77.7061C223.263 75.5097 221.885 70.3372 221.01 67.8779C220.915 67.8318 220.831 67.7918 220.761 67.758L217.448 77.6761Z" fill="black"/>
<path d="M92.8797 64.3963C92.4086 64.4067 91.5213 64.5187 91.2334 64.1204C91.3681 64.0477 91.5128 63.9951 91.6625 63.964C92.5478 63.7764 93.7885 63.8799 94.7043 63.8618C98.0741 63.7949 103.231 63.7317 104.106 68.0055C104.371 69.3552 104.089 70.7551 103.321 71.8961C102.456 73.1923 101.606 73.5673 100.158 73.8529C104.231 75.45 103.816 77.6953 103.81 81.5337C103.807 83.5317 103.882 84.4657 105.88 85.08C106.689 84.8196 107.083 84.7203 107.921 84.5829C107.082 85.0206 106.596 85.2414 105.711 85.5709C98.9919 84.0667 102.667 79.1039 100.447 75.3199C99.7775 74.179 96.5469 74.1816 95.205 74.1022C95.3783 76.0685 94.9817 83.8311 95.3217 84.8413C95.1384 85.0749 95.0328 85.106 94.7684 85.2219C94.1726 85.2726 91.639 85.3333 91.2599 84.922C91.8302 84.7277 92.34 84.765 92.9388 84.7687C92.7671 83.7844 92.8377 79.6686 92.8372 78.3609C92.8212 73.706 92.8357 69.0511 92.8797 64.3963ZM95.2065 73.6992C96.222 73.7133 97.4673 73.7635 98.4647 73.7391C99.0255 73.3616 99.5798 73.0152 100.065 72.5433C101.766 70.5918 101.984 67.305 99.9743 65.3868C98.7651 64.2325 96.8339 64.4954 95.3012 64.3175C95.1334 67.0427 95.5115 71.2396 95.2065 73.6992Z" fill="black"/>
<path d="M232.27 65.4334C232.207 65.086 232.172 64.5928 231.92 64.3755C231.511 64.357 230.763 64.362 230.415 64.2085L230.413 64.0772C230.859 63.7445 234.323 63.8651 235.018 63.9316C238.183 69.0533 242.2 75.7136 245.6 80.594C245.459 78.8635 245.464 76.8466 245.507 75.0981C245.592 71.5819 245.382 67.9024 245.584 64.407C245.164 64.4111 243.99 64.4364 243.698 64.0971C244.143 63.7072 252.916 63.8174 253.938 64.1221L253.957 64.2357C253.29 64.4333 253.073 64.4241 252.388 64.4179C252.402 66.6677 252.341 84.5188 252.491 84.8026L252.447 85.2288C251.117 85.252 249.718 85.3145 248.413 85.0686L248.343 84.9454C248.871 84.7188 249.466 84.7442 250.042 84.7295C249.829 83.0472 249.944 78.8811 249.956 77.0257C249.982 72.9004 249.893 68.5529 250.016 64.4471C248.72 64.3613 247.322 64.3898 245.979 64.3135C246.005 71.5164 245.878 78.8252 245.95 86C244.335 83.8209 233.441 65.9823 232.817 65.6049C232.617 65.81 232.609 66.0727 232.53 66.389C232.5 65.9293 232.483 65.841 232.27 65.4334Z" fill="black"/>
<path d="M114.6 63.3837C117.448 63.2676 117.143 64.0799 119.63 64.4357C120.298 64.5312 120.881 63.8296 121.354 63.364C121.29 64.194 121.259 69.8759 121.222 69.9393L121.062 69.9377C120.364 68.7909 120.755 67.1973 118.91 65.3086C118.001 64.3783 116.756 63.8525 115.455 63.8495C110.287 63.7948 109.435 70.4334 109.52 74.3152C109.591 77.5465 109.482 81.4709 111.873 83.9804C113.516 85.7066 116.682 85.8837 118.376 84.173C119.926 82.6148 119.724 80.7563 119.721 78.7198L119.752 76.8436C118.951 76.8515 118.413 76.8934 117.663 76.5665C118.124 76.2738 123.412 76.2321 123.819 76.5179L123.778 76.6777C123.451 76.9216 122.622 76.7986 122.171 76.7734C122.237 77.808 122.361 84.4661 122.045 85.025C119.155 82.5662 119.28 84.9791 116.938 85.5743C112.158 86.7895 108.161 82.5425 106.799 78.3018C105.786 75.1765 106.078 71.7748 107.609 68.868C109.331 65.5296 111.223 64.459 114.6 63.3837Z" fill="black"/>
<path d="M55.4702 63.4077C58.2591 63.1561 58.1825 64.3085 60.5207 64.4595C61.1712 64.5015 61.6967 63.7129 62.1039 63.213C62.0486 64.5105 62.2697 69.2245 61.8486 69.993C61.6192 69.91 61.5274 69.4093 61.5011 69.1573C61.2297 66.5529 59.1629 63.7642 56.2984 63.8667C49.9268 64.127 50.3155 72.1391 50.2784 76.7205C50.2642 77.538 50.5078 78.2485 50.5594 79.0574C50.8431 83.5048 55.039 87.5992 59.1575 84.1252C60.5969 82.9111 60.5726 80.7503 60.5338 78.8554L60.5538 76.8231C60.0616 76.8361 58.9887 76.885 58.6064 76.5944C58.7136 76.5383 58.827 76.4947 58.9442 76.4646C59.9134 76.2203 63.8963 76.1667 64.6923 76.655L64.5409 76.6025L64.6881 76.6868L64.5006 76.7567L64.5319 76.6199L64.4151 76.7741C64.0575 76.8705 63.3677 76.7949 62.9727 76.7703C63.0256 77.9281 63.0999 84.3885 62.8458 85.2293L62.7232 85.2347C62.4256 84.8128 62.1284 84.3626 61.7654 83.9976C60.5618 83.4452 58.741 85.3342 57.5009 85.5952C52.4015 86.6686 48.5247 82.0023 47.3728 77.5751C46.5731 74.4103 47.0716 71.057 48.7574 68.2616C50.5004 65.3056 52.27 64.2317 55.4702 63.4077Z" fill="black"/>
<path d="M124.294 63.8868C125.866 63.867 128.592 63.7542 130.025 64.0521L129.961 64.2212C129.609 64.4834 128.906 64.3928 128.493 64.3453C128.36 66.1531 128.478 68.6444 128.456 70.5194C128.399 75.2359 128.553 80.0572 128.434 84.7666C128.934 84.7729 129.705 84.7435 130.141 84.9449L130.121 85.1006L129.827 85.222C128.543 85.2554 125.24 85.4325 124.157 85.0565C124.515 84.7523 125.543 84.8133 126.002 84.8397L125.977 64.3165C125.741 64.3337 125.505 64.3486 125.269 64.3611C124.843 64.3823 124.457 64.4292 124.159 64.1588L124.294 63.8868Z" fill="black"/>
<path d="M66.8659 64.4042C66.3799 64.4079 65.5346 64.4628 65.1137 64.2926L65.0115 64.1093C65.4629 63.7341 70.5641 63.7954 70.9444 64.086C70.3457 64.4763 69.9768 64.4116 69.283 64.3631C69.2297 66.4831 69.2697 68.6037 69.2697 70.7256C69.2697 75.3082 69.2671 79.893 69.2363 84.4753C69.2355 84.5891 69.3941 84.7955 69.4655 84.8857C69.2147 85.0729 69.0283 85.1238 68.7376 85.2278L67.0709 85.2521C66.9607 85.1648 66.8962 85.0011 66.8297 84.87C66.9647 83.5501 66.859 79.6843 66.8558 78.1601L66.8659 64.4042Z" fill="black"/>
<path d="M160.78 84.4219L161.108 84.6628C161.51 84.8156 162.117 84.6619 162.781 84.8659L162.864 85.0242C162.24 85.3956 159.258 85.2056 158.471 85.0247C159.339 84.8015 160.243 84.9097 160.78 84.4219Z" fill="black"/>
<path d="M226.484 85.252C225.656 85.2435 224.615 85.2866 223.852 84.9818L224.091 84.8646L224.111 85.057L224.167 85.0661L224.283 84.8333C224.884 84.7284 225.805 84.7628 226.441 84.7678L226.484 85.252Z" fill="black"/>
<path d="M95.3214 84.8415C95.9322 84.7722 97.4213 84.6298 97.894 84.9543L97.8735 85.0874C97.2641 85.263 95.4896 85.2144 94.7681 85.2221C95.0324 85.1061 95.1381 85.075 95.3214 84.8415Z" fill="black"/>
<path d="M181.225 84.7391C181.944 84.7451 182.85 84.7093 183.519 84.9202L183.56 85.0478C182.895 85.2823 181.968 85.2227 181.24 85.2272L181.225 84.7391Z" fill="black"/>
<path d="M67.0707 85.252C66.6193 85.2249 65.247 85.3215 65.1021 84.8857C65.6951 84.6699 66.2205 84.7593 66.8295 84.8699C66.896 85.001 66.9606 85.1647 67.0707 85.252Z" fill="black"/>
<path d="M252.491 84.8026C252.996 84.7739 253.44 84.7097 253.906 84.9171L253.91 85.0831C253.519 85.3068 252.913 85.2389 252.447 85.2288L252.491 84.8026Z" fill="black"/>
<path d="M69.4654 84.8856C69.9626 84.7826 70.1938 84.7114 70.69 84.8596C70.3376 85.3277 69.2871 85.2313 68.7375 85.2277C69.0283 85.1237 69.2147 85.0728 69.4654 84.8856Z" fill="black"/>
</svg>
