<svg width="212" height="86" viewBox="0 0 212 89" fill="none" xmlns="http://www.w3.org/2000/svg">
<path fill-rule="evenodd" clip-rule="evenodd" d="M29 43.9692H38.1743V47.2964H35.3364V52.8825H45.6769V47.2964H42.7574V43.9692H52.0948V47.2964H49.0938V63.7204H52.0948V66.9742H42.7574V63.7204H45.6769V56.1363H35.3364V63.7204H38.1743V66.9742H29V63.7204H31.9195V47.2964H29V43.9692Z" fill="#010202"/>
<path fill-rule="evenodd" clip-rule="evenodd" d="M138.716 43.9692H157.554V50.3871H154.39V47.2964H145.216V52.801H153.053V56.0548H145.216V63.7204H154.309V59.3086H157.644V66.9742H138.716V63.7204H141.799V47.2964H138.716V43.9692Z" fill="#010202"/>
<path fill-rule="evenodd" clip-rule="evenodd" d="M56.3433 43.9692H75.2713V50.3871H72.0173V47.2964H62.8513V52.801H70.6883V56.0548H62.8513V63.7204H71.9363V59.3086H75.2713V66.9742H56.3433V63.7204H59.4343V47.2964H56.3433V43.9692Z" fill="#010202"/>
<path fill-rule="evenodd" clip-rule="evenodd" d="M144.221 40.8784H150.973L152.637 42.8846H146.056L144.221 40.8784Z" fill="#010202"/>
<path fill-rule="evenodd" clip-rule="evenodd" d="M176.066 53.804C173.734 53.2169 172.143 53.3066 169.73 52.5563C167.642 51.806 167.226 50.5583 167.226 49.7184C167.226 48.805 168.139 46.5543 171.475 46.5543C174.81 46.5543 177.061 48.805 177.142 50.7214H180.396V43.9692H177.232V45.4697L177.395 45.8856V45.9671V45.8856C177.314 45.8856 177.232 45.6328 176.898 45.3881C176.898 45.3881 176.898 45.3881 176.898 45.3066C175.984 44.4748 174.06 43.4717 171.23 43.4717C167.813 43.4717 163.809 45.6409 163.809 49.7265C163.809 53.7306 166.647 55.0599 169.142 55.7286C171.556 56.3973 172.812 56.3973 174.892 56.9763C176.89 57.4737 178.227 58.7296 178.227 60.5644C178.227 62.2281 177.142 64.4788 172.804 64.4788C168.555 64.4788 166.802 62.1465 166.304 58.8927H163.222V66.9824H166.386V65.4819L166.304 65.066C166.304 65.066 166.386 65.3188 166.802 65.5634V65.645C168.384 66.8927 170.553 67.7326 173.22 67.7326C176.302 67.7326 181.554 66.1506 181.554 60.646C181.57 56.6338 179.483 54.8071 176.066 53.804Z" fill="#010202"/>
<path fill-rule="evenodd" clip-rule="evenodd" d="M131.295 63.7204V47.2964H134.378V43.9692H126.044L120.457 57.4737L120.376 58.1343L120.205 57.4737L114.708 43.9692H106.284V47.2964H109.367V63.7204H106.284V66.9742H115.703V63.7204H112.784V48.6338V47.6307L113.036 48.381L119.454 63.7204H121.289L127.707 48.381L127.878 47.5492L127.96 48.4707V63.7204H125.04V66.9742H134.378V63.7204H131.295Z" fill="#010202"/>
<path fill-rule="evenodd" clip-rule="evenodd" d="M64.0993 35.1294C64.0993 35.1294 64.0173 35.1294 60.9353 35.1294V34.2976H63.2673C63.3483 34.4607 63.8463 34.8766 64.0993 35.1294Z" fill="#010202"/>
<path fill-rule="evenodd" clip-rule="evenodd" d="M143.715 35.1294C143.715 34.795 144.05 34.4607 144.466 34.2976H146.129V35.1294H143.715Z" fill="#010202"/>
<path fill-rule="evenodd" clip-rule="evenodd" d="M91.3613 35.7083C89.9423 36.377 88.1973 36.2955 86.7783 35.7083H70.1823C68.6003 36.377 66.7653 36.377 65.1833 35.7083H60.9353V37.2904H146.137V35.7083H91.3613Z" fill="#010202"/>
<path fill-rule="evenodd" clip-rule="evenodd" d="M71.1853 35.1294C71.4383 34.9663 72.0173 34.3791 72.0993 34.2976H84.9433C85.1063 34.5504 85.5303 34.9663 85.7743 35.1294H71.1853Z" fill="#010202"/>
<path fill-rule="evenodd" clip-rule="evenodd" d="M89.1101 34.632C91.2791 34.632 93.1141 32.797 93.1141 30.6278C93.1141 28.377 91.2791 26.5422 89.1101 26.5422C86.8591 26.5422 85.0241 28.377 85.0241 30.6278C85.0241 32.797 86.8591 34.632 89.1101 34.632V35.4637C86.3621 35.4637 84.1921 33.2944 84.1921 30.6278C84.1921 27.8796 86.3621 25.7104 89.1101 25.7104C91.7771 25.7104 93.9461 27.8796 93.9461 30.6278C93.9461 33.2944 91.7771 35.4637 89.1101 35.4637V34.632Z" fill="#010202"/>
<path fill-rule="evenodd" clip-rule="evenodd" d="M73.1831 29.9592C73.1831 26.9581 70.6801 24.4546 67.6791 24.4546C64.5961 24.4546 62.1741 26.9581 62.1741 29.9592C62.1741 33.0417 64.5881 35.4637 67.6791 35.4637C70.6881 35.4637 73.1831 33.0417 73.1831 29.9592H72.2701C72.2701 32.5443 70.1821 34.6319 67.6871 34.6319C65.1021 34.6319 63.0221 32.5443 63.0221 29.9592C63.0221 27.374 65.1101 25.3761 67.6871 25.3761C70.1901 25.3761 72.2701 27.374 72.2701 29.9592H73.1831Z" fill="#010202"/>
<path fill-rule="evenodd" clip-rule="evenodd" d="M91.6951 33.376L90.0311 31.4596V31.378C90.1131 31.2965 90.1131 31.2149 90.1941 31.1252L92.6981 31.7939C92.7791 31.7939 92.9511 31.8755 92.9511 31.957C92.9511 31.8755 93.0321 31.5411 93.1141 31.3699C93.0321 31.4514 92.8611 31.4514 92.6981 31.4514L90.3661 30.7827C90.2841 30.7827 90.2841 30.7012 90.2841 30.7012C90.2841 30.6196 90.2841 30.4484 90.2841 30.3668V30.2853L92.6981 29.3719C92.6981 29.3719 92.9511 29.3719 92.9511 29.4534C92.9511 29.3719 92.7881 28.956 92.7881 28.8663C92.7881 28.9478 92.6251 29.1191 92.5351 29.1191L92.6981 29.0375L90.1941 29.9509C90.1941 30.0324 90.1941 29.9509 90.1131 29.9509C90.1131 29.8694 90.0311 29.7878 89.9501 29.7878C89.9501 29.7063 89.8681 29.6247 89.9501 29.6247L91.2871 27.537C91.3691 27.4555 91.5401 27.3739 91.6211 27.3739C91.5401 27.3739 91.2061 27.1211 91.0341 27.0396C91.1161 27.0396 91.1161 27.2924 91.0341 27.3739L89.6971 29.4616C89.6151 29.4616 89.6151 29.4616 89.5341 29.4616C89.5341 29.4616 89.3711 29.3801 89.2811 29.3801C89.2811 29.3801 89.1991 29.3801 89.1991 29.2985L89.1181 26.8846C89.1181 26.7215 89.1181 26.5503 89.2811 26.5503C89.1181 26.5503 88.7841 26.5503 88.6121 26.5503C88.6941 26.5503 88.7751 26.8031 88.7751 26.8846L88.8571 29.2985C88.8571 29.3801 88.7751 29.3801 88.7751 29.3801C88.7751 29.3801 88.6121 29.4616 88.5231 29.5432C88.5231 29.5432 88.4411 29.5432 88.4411 29.4616L86.8591 27.5452C86.7771 27.4636 86.7771 27.2924 86.7771 27.2108C86.6961 27.2924 86.3621 27.5452 86.2801 27.6267C86.3621 27.6267 86.5331 27.7083 86.6141 27.7898L88.1961 29.7063V29.7878C88.1151 29.7878 88.0331 29.9509 88.0331 30.0406C88.0331 30.0406 87.9521 30.1222 87.8701 30.1222L85.5381 29.4534C85.3751 29.3719 85.2851 29.2904 85.2851 29.2006C85.2851 29.2822 85.1221 29.6981 85.1221 29.7878C85.1221 29.7878 85.3751 29.7063 85.4561 29.7878L87.7891 30.375C87.8701 30.375 87.8701 30.4565 87.8701 30.4565C87.8701 30.5381 87.8701 30.7093 87.8701 30.7909V30.8724L85.5381 31.8755C85.4561 31.8755 85.2851 31.957 85.2851 31.8755C85.2851 31.957 85.3671 32.2914 85.4481 32.4626C85.4481 32.3811 85.6111 32.2098 85.7011 32.2098L87.9521 31.2068C88.0331 31.2068 88.0331 31.2883 88.0331 31.2883C88.1151 31.2883 88.1961 31.3699 88.1961 31.4514C88.2781 31.4514 88.2781 31.533 88.2781 31.533L86.8591 33.6206C86.7771 33.7022 86.6961 33.7837 86.6061 33.7837C86.6881 33.8653 87.0221 34.1181 87.1041 34.1181C87.0221 34.1181 87.1041 33.8653 87.1041 33.7837L88.5231 31.7858C88.5231 31.7042 88.6041 31.7042 88.6041 31.7042C88.6861 31.7858 88.7671 31.7858 88.8571 31.7858C88.9391 31.7858 88.9391 31.7858 88.9391 31.8673L89.1021 34.3709C89.1021 34.4524 89.0201 34.6237 88.9391 34.6237C89.0201 34.6237 89.4361 34.6237 89.6071 34.6237C89.4441 34.6237 89.4441 34.4606 89.4441 34.2893L89.2811 31.8755C89.2811 31.7939 89.3631 31.7939 89.3631 31.7939C89.4441 31.7939 89.6151 31.7124 89.6971 31.6308C89.6971 31.6308 89.7781 31.6308 89.7781 31.7124L91.4421 33.5472C91.4421 33.6288 91.5241 33.8 91.5241 33.8816C91.6051 33.8 91.8581 33.5472 91.9401 33.4657C91.8581 33.5472 91.6951 33.376 91.6951 33.376Z" fill="#010202"/>
<path fill-rule="evenodd" clip-rule="evenodd" d="M67.5163 26.795C69.8483 26.795 72.1883 27.0478 73.5183 27.4637C73.6813 27.4637 73.6813 27.6268 73.5183 27.7165C72.0993 28.0508 69.7663 28.3036 67.5973 28.3036C65.4283 28.3852 63.0963 28.3036 61.5953 27.9693C61.4323 27.9693 61.4323 27.8062 61.5953 27.8062C62.9323 27.2924 65.1833 26.8765 67.5163 26.795V26.3792C65.0123 26.4607 62.5173 27.0478 60.4293 27.798C60.1763 27.8796 60.1763 28.0508 60.4293 28.0508C62.7613 28.638 65.1833 28.7196 67.5973 28.6381C69.9293 28.5565 72.4333 28.3853 74.6843 27.7247C75.0183 27.6432 74.9373 27.4719 74.7653 27.4719C72.5963 26.8032 70.0933 26.3872 67.5163 26.3872V26.795Z" fill="#010202"/>
<path fill-rule="evenodd" clip-rule="evenodd" d="M92.2821 25.2944C91.6951 25.4575 90.7001 25.7919 90.1941 25.7919C89.7791 25.7919 87.6911 25.7103 86.2721 25.7919C84.3561 25.8734 84.1841 26.1262 84.1031 25.955C83.6871 25.2863 83.3521 24.2914 82.6841 23.7042C78.7611 24.3729 74.9281 23.7858 71.4301 22.5381V22.0406C71.6831 22.1222 71.8461 22.1222 72.0171 22.1222C71.4301 21.2904 70.4351 21.0376 69.8481 20.1242C69.5141 19.8714 69.4321 19.374 69.0981 19.1212C69.1791 20.0345 68.4291 20.7032 68.3471 21.4535C68.8451 21.6166 69.5141 21.6166 69.7661 21.535C70.1011 21.4535 70.5171 21.535 70.6801 21.7878C70.9321 21.8694 71.0961 22.0406 71.4301 22.0406V22.5381C71.0141 22.4565 70.9321 22.375 70.5981 22.2037C70.1821 22.3668 69.8481 22.2853 69.6851 22.1222C69.6031 22.0406 68.7711 22.0406 68.4371 22.0406C67.3521 22.0406 66.1861 22.4565 65.5991 23.378C65.3461 23.8755 65.4361 24.4626 65.6811 24.8785C65.8441 25.1313 66.5941 26.2159 67.1001 26.5421L66.4311 26.7052C65.4281 25.7919 64.6781 24.9519 64.8491 23.8673C65.3461 21.535 67.5161 21.8694 68.1031 20.8663C68.5191 19.953 68.6901 17.2781 68.1841 16.5279C66.7651 15.9407 65.0201 15.1905 64.6861 13.5269C64.6041 13.111 64.7671 12.6135 65.1831 12.5238C65.9341 12.3607 66.4311 12.7766 67.0181 13.0213C67.2711 12.8582 66.7651 12.271 67.3521 12.271C68.1031 12.271 68.6001 13.7715 68.8531 13.8531L68.7711 14.4402C68.2741 14.2771 66.4391 13.2741 66.2681 13.1925C65.9341 13.0294 65.5181 12.7766 65.2651 13.111C64.9301 13.5269 65.3461 14.0243 65.5991 14.4484C69.5221 18.534 76.0211 14.1956 80.2701 17.115C80.3511 16.8622 80.2701 16.7807 80.1071 16.6991C77.1871 13.9509 72.5231 15.3617 68.7711 14.4484L68.8531 13.8612C73.5261 15.0274 79.6911 13.111 82.1131 18.4443C83.6951 20.6951 85.3671 24.2832 88.7841 24.3648C91.5321 24.4463 93.3671 23.3617 94.7041 21.3638C96.5391 18.0284 97.6241 14.1956 100.877 11.9448C101.212 11.7817 101.375 11.9448 101.212 12.0264C99.6301 13.6084 98.2111 15.6961 97.4611 17.4494C98.7081 22.2037 101.465 21.2007 102.133 21.1191C101.97 19.3658 102.133 14.1956 105.885 12.9479C106.716 12.2792 109.717 10.3628 113.64 12.0345C110.72 14.7827 108.967 18.7053 108.388 21.4535L105.134 22.3668C105.387 21.8694 105.387 21.0294 105.297 20.1161C104.963 20.2792 104.629 20.532 103.878 20.9479C103.544 21.0294 103.797 20.532 103.797 20.532C103.797 20.3689 104.629 20.0345 105.297 19.6186C105.045 17.7022 104.881 15.1986 106.464 13.6166C103.21 14.7012 104.131 21.535 104.466 22.3668C103.552 22.7827 102.296 22.7827 102.296 22.7827L102.133 21.6166C100.714 22.114 98.3001 21.7797 97.2161 18.0284C96.0331 20.4586 95.0301 24.2914 92.2821 25.2944Z" fill="#010202"/>
<path fill-rule="evenodd" clip-rule="evenodd" d="M143.136 15.1171C142.973 14.954 142.883 14.8643 142.72 14.8643C142.639 14.7827 142.72 14.7012 142.802 14.7012C142.883 14.6196 143.055 14.7012 143.136 14.8643C143.218 14.954 143.218 15.1171 143.136 15.1171Z" fill="#010202"/>
<path fill-rule="evenodd" clip-rule="evenodd" d="M68.5193 31.2068L70.2723 33.2047C70.4353 33.3678 70.4353 33.6206 70.3533 33.7022C70.6063 33.6206 70.9413 33.2047 71.1043 33.0335C71.0223 33.115 70.6883 33.115 70.6063 32.9519L68.7713 30.954C68.7713 30.8724 68.7713 30.8724 68.7713 30.7909C68.7713 30.7909 68.7713 30.7909 68.8533 30.7093C68.8533 30.6278 68.9343 30.6278 68.9343 30.6278L71.5203 31.5411C71.7723 31.7042 71.8543 31.8755 71.8543 31.957C71.9363 31.7939 72.1073 31.2883 72.1883 31.1252C72.1073 31.2068 71.8543 31.2883 71.6913 31.2068L69.1063 30.2934C69.0243 30.2934 69.0243 30.2934 69.0243 30.2119C69.0243 30.1303 69.0243 30.1303 69.0243 30.0488C69.0243 29.9672 69.1063 29.9672 69.1063 29.9672L71.7723 29.5513C72.1073 29.4698 72.2703 29.6329 72.2703 29.7144C72.2703 29.5513 72.1883 28.9642 72.1883 28.8011C72.1883 28.8826 72.0253 29.1354 71.6913 29.217L69.1063 29.6329C69.0243 29.6329 69.0243 29.5513 69.0243 29.5513C68.9433 29.4698 68.9433 29.3882 68.8613 29.2985V29.217L70.9493 27.4637C71.2023 27.3006 71.4463 27.3006 71.5363 27.3821C71.3733 27.219 71.0383 26.795 70.8673 26.6319C70.9493 26.7134 70.8673 26.9662 70.7043 27.219L68.7063 28.8826C68.6253 28.9642 68.6253 28.9642 68.6253 28.8826C68.5433 28.8826 68.4623 28.8826 68.3723 28.8011C68.3723 28.8011 68.2903 28.7195 68.3723 28.7195L69.2853 26.1344C69.3673 25.8816 69.6203 25.8001 69.7013 25.8001C69.5383 25.7185 68.9513 25.4657 68.7883 25.4657C68.8693 25.4657 69.0413 25.8001 68.9513 26.0529L68.0213 28.5401C68.0213 28.6217 67.9403 28.6217 67.9403 28.6217C67.8583 28.6217 67.7763 28.6217 67.6873 28.6217L67.6053 28.5401L67.1083 25.8735C67.1083 25.5391 67.2713 25.376 67.2713 25.376C67.1083 25.376 66.6023 25.4576 66.3583 25.5391C66.4393 25.5391 66.6923 25.7022 66.7733 25.955L67.2713 28.5401C67.2713 28.6217 67.2713 28.6217 67.1893 28.7032C67.1083 28.7032 67.0263 28.7848 66.9373 28.7848H66.8553L65.0203 26.7868C64.8573 26.534 64.8573 26.2894 64.9393 26.2894C64.7753 26.3709 64.3513 26.7053 64.2703 26.8765C64.3513 26.8765 64.6043 26.8765 64.7673 27.0396L66.6023 29.0376V29.1191C66.5213 29.2007 66.5213 29.2007 66.4393 29.2822C66.4393 29.2822 66.4393 29.2822 66.3583 29.2822L63.8543 28.3689C63.6013 28.2873 63.4383 28.0345 63.5203 27.953C63.3573 28.2058 63.2673 28.7032 63.1853 28.8663C63.2673 28.7848 63.5203 28.7032 63.7723 28.7848L66.2763 29.6166C66.2763 29.6981 66.2763 29.6981 66.2763 29.6981C66.2763 29.7797 66.2763 29.8612 66.2763 29.9509C66.2763 30.0325 66.2763 30.0325 66.2763 30.0325L63.6093 30.5299C63.3573 30.5299 63.1123 30.3668 63.1123 30.2771C63.1123 30.5299 63.1933 31.1089 63.2753 31.2802C63.2753 31.1986 63.3573 30.9458 63.6913 30.8643L66.2763 30.3668C66.2763 30.3668 66.3583 30.3668 66.3583 30.4484C66.3583 30.5299 66.3583 30.5299 66.4393 30.6115C66.4393 30.693 66.4393 30.693 66.4393 30.693L64.3513 32.3566C64.0993 32.6094 63.8543 32.5197 63.8543 32.4382C63.8543 32.691 64.2703 33.1069 64.3513 33.1884C64.3513 33.1069 64.3513 32.8541 64.5153 32.691L66.6843 31.0274C66.6843 30.9458 66.6843 30.9458 66.7653 31.0274C66.7653 31.0274 66.8473 31.1089 66.9283 31.1905C67.0103 31.1905 67.0103 31.1905 67.0103 31.272L66.0973 33.7756C66.0153 34.0284 65.7623 34.1915 65.6813 34.1099C65.8443 34.1915 66.3493 34.4443 66.5943 34.4443C66.4313 34.4443 66.3413 34.1915 66.4313 33.9468L67.3443 31.3617C67.3443 31.3617 67.3443 31.2802 67.4263 31.2802C67.5073 31.3617 67.5893 31.3617 67.6793 31.3617C67.6793 31.3617 67.7603 31.3617 67.7603 31.4433L68.2583 34.0284C68.2583 34.3627 68.0953 34.5258 68.0053 34.6155C68.2583 34.6155 68.7553 34.4525 68.9183 34.3627C68.8373 34.4443 68.5843 34.1996 68.5843 34.0284L68.0863 31.3617C68.0863 31.2802 68.0863 31.2802 68.0863 31.2802C68.1683 31.2802 68.2493 31.1986 68.3393 31.1986C68.4373 31.1252 68.4373 31.1252 68.5193 31.2068Z" fill="#010202"/>
<path fill-rule="evenodd" clip-rule="evenodd" d="M141.97 15.4515C141.889 15.3699 141.97 15.2884 141.97 15.1987C142.052 14.9459 142.133 14.9459 142.133 14.7012C141.717 14.3669 141.636 13.6982 141.88 13.5351C142.133 13.2822 142.965 13.6166 142.965 13.6166C143.715 13.0294 143.968 12.6135 144.384 12.3689C144.971 12.3689 146.137 13.4535 146.137 14.1222C145.974 14.375 145.55 14.7909 144.89 15.6227C145.142 16.2099 145.142 16.6258 144.726 16.9601C144.645 16.9601 144.474 16.9601 144.311 16.797C144.392 17.6288 145.314 18.1344 145.648 18.795C145.648 20.1324 147.067 21.796 145.485 22.8806C145.151 23.0437 144.816 23.2965 144.653 23.6309C144.906 24.9683 145.403 26.3791 145.656 27.798L144.074 27.8796C143.911 28.377 143.405 29.2985 143.577 29.796C143.577 29.796 143.495 29.7144 143.658 29.796C143.911 30.1303 143.993 32.8786 143.911 33.1314C143.911 33.4657 144.164 33.4657 143.993 34.0447C143.829 34.1263 143.161 34.5422 143.079 34.795C142.663 35.2109 141.497 35.2924 141.497 35.1293C141.497 34.7134 142.329 34.216 142.5 33.7104C142.663 31.7124 142.5 29.7063 141.416 28.1242C141 27.8714 140.665 28.5401 140.413 28.8745C140.828 30.1222 141.579 31.4596 141.497 32.8786C141.497 33.2945 141.995 33.8816 141.75 34.4606L140.413 35.1293H135.577C135.414 34.8765 135.079 34.6319 135.161 34.2975H139.499C139.499 34.1344 139.915 34.216 140.331 33.5473C140.331 31.5493 138.243 28.6298 138.578 27.6268C138.994 26.3791 139.581 25.376 140.241 23.7043L140.576 23.6227C139.825 26.1263 138.741 27.374 138.912 28.1242C138.994 28.5401 139.165 28.8745 139.409 29.3719L139.573 29.8694C139.654 30.1222 139.907 30.7012 140.07 30.8724C140.323 30.8724 140.486 30.7093 140.657 30.6196C140.657 30.2853 140.404 29.8694 140.241 29.6166L139.573 29.8694L139.409 29.3719C139.907 29.3719 140.241 29.0376 139.825 28.7848C140.992 28.1976 139.573 28.3689 139.988 28.1161C140.657 27.7817 140.992 26.534 141.073 25.7838C141.073 25.6207 141.155 25.531 141.326 25.531C141.823 26.8684 141.823 28.6135 142.663 29.8694V30.2853C142.582 30.6196 142.663 31.0355 142.826 31.2883C143.577 31.3699 143.495 31.2068 143.324 30.2853C143.161 30.2853 142.826 30.2037 142.655 30.2853V29.8694C142.737 29.7878 143.071 29.8694 143.153 29.7878C142.9 29.3719 142.9 29.0376 142.9 28.6217C142.9 28.3689 143.063 27.8714 143.234 28.956C143.487 29.0376 143.903 27.0396 143.984 26.3709C142.402 26.7053 143.984 24.8704 142.818 24.7889L143.405 23.7858C143.405 23.4515 143.153 23.1987 142.737 23.3699L142.402 22.954C142.15 22.8725 141.905 22.4566 141.571 22.2037C141.318 22.4566 140.902 22.954 140.82 23.2884C140.739 23.3699 140.983 23.4515 141.073 23.3699C141.326 23.1171 141.489 23.6227 141.905 23.533C142.068 23.3699 142.574 23.2802 142.402 22.9458L142.737 23.3618C142.402 23.5248 142.402 24.112 142.402 24.5279C141.815 25.6125 142.068 23.9408 141.399 23.9408C140.983 24.1936 140.812 23.5249 140.567 23.6064L140.233 23.6879C140.233 23.1008 140.315 22.4402 140.233 21.7715C140.731 18.9336 141.318 19.0233 141.399 18.1834C141.399 17.849 142.647 17.1803 142.565 16.846C142.647 16.846 142.818 17.0988 142.818 17.1803C142.737 17.5962 141.905 17.5962 141.986 18.5177C142.484 17.6044 143.903 17.6859 143.984 16.6013C143.732 15.9326 144.319 16.3485 144.319 15.688C144.156 15.5249 143.65 15.0193 143.568 14.7746C143.487 14.6931 143.821 14.1874 142.655 14.1874C142.574 14.269 142.492 14.7746 142.321 15.0193C142.239 15.1008 142.068 15.2721 142.158 15.3536C142.158 15.4352 142.321 15.5167 142.321 15.8511C142.239 16.1854 142.321 16.3485 142.484 16.5198C143.153 16.8541 143.65 16.5198 142.9 16.9357C142.9 17.0172 142.9 17.0988 142.818 17.1885C142.818 17.1069 142.565 16.7726 142.484 16.691C142.402 16.691 141.986 16.4382 142.068 16.1039C142.133 15.7858 142.133 15.6227 141.97 15.4515Z" fill="#010202"/>
<path fill-rule="evenodd" clip-rule="evenodd" d="M119.544 12.2874C119.626 12.8746 119.291 13.2905 119.291 13.8695C119.878 15.2884 119.291 16.373 119.454 17.7023C118.786 17.2864 118.623 16.2018 118.37 15.0356C118.207 14.0326 118.451 13.6982 118.533 12.6218L119.544 12.2874Z" fill="#010202"/>
<path fill-rule="evenodd" clip-rule="evenodd" d="M117.791 12.7031C117.709 14.4564 117.456 15.2882 118.704 18.0364C115.54 19.3738 112.955 20.2872 109.204 21.3718C109.619 18.7051 112.205 13.6165 114.374 12.1975C116.209 12.7031 117.791 12.7031 117.791 12.7031Z" fill="#010202"/>
<path fill-rule="evenodd" clip-rule="evenodd" d="M109.619 32.2914C108.788 32.5442 108.788 33.0416 109.285 33.5391C109.619 33.7919 109.954 34.2078 109.954 34.2893H104.62C104.62 34.5421 104.873 34.7052 105.036 35.1211H134.549C134.712 34.7052 134.215 34.2078 134.052 33.7022C131.964 32.9519 131.964 31.0355 131.882 28.8663C131.882 28.7847 131.719 28.5319 131.719 28.116C131.467 27.7817 130.056 24.3648 130.716 21.6166L131.214 20.7032C131.63 20.1161 131.132 19.7899 131.467 19.1211L137.64 17.955C137.721 17.8734 137.721 17.6206 137.558 17.5391C137.558 17.4575 137.64 17.5391 137.558 17.5391L131.556 18.6237C131.891 17.1232 130.553 16.6257 131.14 15.3699C131.972 16.2832 134.223 17.8734 135.389 18.1181L135.976 18.0365C134.476 17.3678 131.809 15.7858 130.309 13.6981C130.145 13.6981 129.974 13.535 129.811 13.4453C129.811 13.6084 130.227 14.114 130.145 14.1956C130.145 14.1956 129.142 14.8643 127.308 14.0325C126.72 15.1986 120.221 18.1181 120.221 18.1181C120.474 19.953 121.305 21.1191 122.219 22.1222C121.966 21.9591 122.3 22.2853 122.219 22.1222C123.556 23.2068 125.138 23.7042 126.892 24.0386C127.226 25.0416 128.474 28.2873 128.555 28.7929C128.718 29.2904 128.971 29.2904 128.971 29.2904C129.134 29.4535 129.721 30.5381 129.721 30.954L129.884 32.7073C129.966 33.1232 130.472 32.7888 130.553 33.2047L130.3 34.2893H131.548C130.879 33.7022 131.295 32.7073 130.463 32.2914C130.382 31.2883 130.3 30.5381 129.876 30.1222C129.542 29.1191 128.457 26.4524 127.789 24.0386L128.205 23.4514C126.37 23.9489 124.951 23.2883 123.287 22.3668C122.039 21.7797 122.79 22.2853 123.206 22.0325C125.204 22.9458 126.207 22.7012 127.707 22.5299C127.87 22.7827 128.205 23.0274 128.205 23.4433L127.789 24.0304C128.205 23.6145 128.539 23.8673 128.792 25.0335C129.126 26.0365 129.46 26.7868 129.705 27.6186C130.039 28.4504 130.292 29.535 130.537 30.1222C130.537 30.1222 130.79 30.1222 130.953 30.4565C131.54 32.2914 131.703 32.5442 131.621 33.376C131.785 34.0447 132.706 33.4575 132.625 34.2893H110.696C111.03 32.9519 110.28 31.7858 110.696 30.5381C109.864 29.2007 107.776 28.2057 108.111 26.3709C109.114 24.9519 112.36 23.533 111.609 21.8694C114.61 20.3689 116.111 22.8724 118.859 22.6196C119.862 22.6196 120.947 22.4565 121.86 22.2037C120.694 21.2904 119.691 19.8714 119.112 18.6155C113.273 21.0294 107.605 22.954 101.35 24.2017L100.853 24.0386C100.266 24.1201 90.7651 26.2893 91.1001 26.7052C87.5111 26.958 83.3441 28.4585 82.4311 28.956C82.0151 29.2088 81.9331 29.3719 82.4311 29.5432C86.2641 30.5462 89.4361 29.796 95.3561 27.5452L94.9411 27.2108C94.6061 27.4636 89.7701 29.1273 87.8541 29.3801C85.8561 29.6329 84.1031 29.5432 83.2711 29.2985C83.0181 29.217 83.0181 29.217 83.1891 29.1354C86.9411 27.6349 94.1901 26.2975 95.1931 27.5534C95.7811 27.7165 96.1961 28.0508 96.5311 28.4667C96.8651 28.8826 97.5341 28.7195 98.0311 28.6298C98.7001 28.4667 98.7821 27.8796 98.7821 27.2924L98.0311 27.2108C97.6971 27.2108 96.3681 27.3739 96.1961 27.5452C95.6991 27.1293 95.1931 26.7134 94.5331 26.5421C95.8701 25.955 98.0311 25.4575 99.2061 25.376C98.1211 26.1262 98.6181 27.0396 98.0391 27.2108L98.7901 27.2924C98.7901 26.958 98.7901 26.7052 98.9531 26.5421C99.7031 24.7073 102.867 24.4545 104.457 24.0386C104.457 24.0386 103.626 25.1232 103.038 25.376C102.875 27.9611 101.954 30.2119 101.791 32.797C102.541 32.797 102.541 33.6288 102.704 34.1344C102.451 34.5503 102.117 34.1344 101.791 34.2159C100.625 33.6288 102.044 32.6339 101.122 31.8021C101.619 29.7144 102.37 27.6349 102.37 25.4657C102.035 25.4657 101.954 25.8 101.783 26.0528C101.53 28.1405 100.951 30.0569 100.445 31.9733C100.608 32.1364 101.032 32.3077 101.032 32.642C100.364 33.0579 101.032 33.8082 100.779 34.3056H93.1951L92.4451 35.1374H103.952L104.033 34.7215C102.37 32.8867 102.949 30.22 103.781 28.2221L105.778 25.5554C107.442 24.8867 108.445 22.8887 110.198 22.22C110.198 23.1334 109.114 23.4677 108.535 23.9733C107.866 25.3923 105.95 25.5554 105.697 27.1374C106.447 27.9693 107.532 28.5564 108.445 29.3067C109.358 29.8938 109.114 31.1415 109.783 31.7205C109.954 31.8755 109.783 32.2098 109.619 32.2914Z" fill="#010202"/>
<path fill-rule="evenodd" clip-rule="evenodd" d="M122.374 2.19959C122.039 2.69699 121.371 3.03139 121.787 3.95289C120.955 4.45029 121.199 5.20059 121.452 5.61649C121.036 6.03239 120.784 6.86419 121.371 7.36979C120.702 8.12009 121.534 8.78879 121.787 9.03339C121.452 9.78369 121.787 10.3708 121.787 10.3708C121.705 10.8683 120.784 11.7082 120.449 11.9529C119.952 13.2006 120.115 15.7857 120.196 17.539C122.529 16.3728 124.869 15.2882 126.696 13.7062C125.114 12.6216 123.858 10.0365 122.113 10.2077C121.95 8.37289 121.199 5.11899 123.776 1.78369C124.111 1.62059 124.608 1.53089 124.861 1.36779C123.776 1.20469 122.357 1.86519 121.363 1.28619C121.371 1.27809 121.876 2.10989 122.374 2.19959Z" fill="#010202"/>
<path fill-rule="evenodd" clip-rule="evenodd" d="M127.96 1.35967C127.96 1.44127 128.294 1.61247 128.294 1.61247C128.294 1.61247 128.629 1.53098 128.629 1.44938C128.629 1.36788 128.71 1.11508 128.629 1.03348C128.547 1.03348 128.294 0.951975 128.131 0.951975C128.131 0.943775 127.96 1.27817 127.96 1.35967L127.797 1.52278L126.631 0.690976L126.794 0.527876C126.794 0.527876 127.291 0.0304761 127.544 0.0304761C127.797 -0.0511239 129.126 0.0304761 129.46 0.283276C129.713 0.536076 129.876 0.699176 130.211 1.28628C131.124 1.95498 132.625 1.95498 133.546 2.70528C133.383 2.95808 133.799 3.37398 133.465 3.53708C133.212 3.61858 132.633 3.45548 132.551 3.61858L132.47 4.11608L132.135 4.03448C132.135 4.03448 132.298 3.44737 132.135 3.44737C131.972 3.36577 131.638 3.19458 131.467 3.28428C131.385 3.36578 131.467 3.44738 131.548 3.61858C131.548 3.78168 131.964 3.87138 132.217 3.78168L132.551 3.86328L132.967 3.94478C132.804 4.36067 132.714 4.53198 132.135 4.36068C131.972 4.77658 132.886 5.11098 132.967 5.27408C132.886 5.43717 132.714 5.60838 132.135 5.27408C132.135 5.27408 129.721 7.60638 128.302 8.27508C126.802 8.94378 128.221 7.94068 128.221 7.94068C128.89 7.68788 131.809 5.19247 131.809 4.93967C131.728 4.77658 131.556 4.44228 131.556 4.18948C131.14 4.02638 130.309 4.27098 129.974 4.52378C130.137 5.27408 131.475 9.02538 130.472 14.693L130.309 14.5299C131.222 9.02528 129.721 4.60538 129.721 4.60538C128.89 4.93968 128.302 4.68687 127.887 4.76848C127.723 8.18538 130.472 8.68278 129.469 13.1925C126.549 12.6951 124.47 9.10688 122.798 9.44128C122.716 8.85408 122.129 7.85918 122.716 7.52478C122.553 7.02738 122.382 6.35868 123.132 5.94278C122.879 5.27408 122.798 4.69508 123.548 4.18948C123.385 3.77358 123.467 2.85207 124.38 2.68897C124.462 1.93867 124.796 1.35157 125.465 1.10687C124.714 0.772575 124.551 0.0222764 124.551 0.0222764C125.22 0.438176 125.799 0.690976 126.802 0.519776L127.96 1.35967Z" fill="#010202"/>
<path fill-rule="evenodd" clip-rule="evenodd" d="M99.6132 63.7206L99.5322 59.0478C99.5322 57.6289 98.6182 56.1284 97.3632 55.2965C97.1102 55.215 96.6942 55.0437 96.3602 55.0437C96.6942 55.0437 97.1102 55.0438 97.5262 54.8807C98.7732 54.2935 100.274 52.7114 100.274 49.9632C100.274 47.8756 99.4422 46.2935 97.9422 45.2089C96.5232 44.2058 94.9412 43.9612 93.2772 43.9612H80.4412V47.2966H83.3612V63.7206H80.4412V66.9744H89.6152V63.7206H86.6962V56.4709H93.0322C95.2022 56.5524 96.0332 57.9714 96.0332 59.1375L96.2862 66.9744H102.541V63.7206H99.6132ZM93.6932 53.3067H86.6882V47.2966C86.6882 47.2966 91.6872 47.2966 93.2772 47.2966C94.0272 47.2966 94.8592 47.2966 95.5282 47.5494C96.3602 47.9653 97.1102 48.8868 97.1102 50.2976C97.1102 52.0509 95.5282 53.3067 93.6932 53.3067Z" fill="#010202"/>
<path fill-rule="evenodd" clip-rule="evenodd" d="M79.2753 75.146C82.2763 75.146 83.6133 76.809 83.6133 78.897C83.6133 80.985 82.1943 82.567 79.0303 82.567H76.8613V88.316H74.9453V75.146H79.2753ZM76.8533 80.895H79.1853C80.6043 80.895 81.5993 80.145 81.5993 78.807C81.5993 77.804 81.0123 76.809 79.2673 76.809H76.8533V80.895Z" fill="#010202"/>
<path fill-rule="evenodd" clip-rule="evenodd" d="M98.5291 88.316H96.4411L94.7781 84.401H89.0281L87.4461 88.316H85.3591L91.1981 75.064H92.5351L98.5291 88.316ZM89.7791 82.648H94.0271L91.7771 77.478L89.7791 82.648Z" fill="#010202"/>
<path fill-rule="evenodd" clip-rule="evenodd" d="M120.457 88.316H118.541V75.146H120.457V88.316Z" fill="#010202"/>
<path fill-rule="evenodd" clip-rule="evenodd" d="M134.215 77.9829C132.967 76.9799 131.801 76.6459 130.798 76.6459C129.55 76.6459 128.547 77.2329 128.547 78.1469C128.547 80.7319 134.72 80.6499 134.72 84.8989C134.72 86.8969 133.057 88.3969 130.716 88.3969C129.216 88.3969 127.878 88.0629 126.712 87.2309V84.8169C127.797 86.0649 129.126 86.7339 130.545 86.7339C132.127 86.7339 132.877 85.8199 132.877 85.0699C132.877 82.4029 126.622 82.0689 126.622 78.4809C126.622 76.3119 128.376 74.9824 130.961 74.9824C132.127 74.9824 133.13 75.2349 134.215 75.8959V77.9829Z" fill="#010202"/>
<path fill-rule="evenodd" clip-rule="evenodd" d="M112.368 86.734C112.115 86.399 111.87 86.065 111.617 85.649C110.614 83.986 109.783 82.811 108.535 82.061C110.035 81.474 110.867 80.308 110.867 78.807C110.867 76.556 109.114 75.137 106.284 75.137H102.867V88.308H104.865V82.558H105.697C106.7 82.558 107.532 82.893 109.285 85.559L111.12 88.308H113.371L112.368 86.734ZM106.121 80.895H104.873V76.728H106.121C108.037 76.728 108.788 77.478 108.788 78.726C108.869 79.818 108.282 80.895 106.121 80.895Z" fill="#010202"/>
</svg>
