<svg width="300" height="150" viewBox="0 0 300 150" fill="none" xmlns="http://www.w3.org/2000/svg">
<path fill-rule="evenodd" clip-rule="evenodd" d="M98 74.8442H104.227V77.1026H102.301V80.8942H109.319V77.1026H107.338V74.8442H113.676V77.1026H111.639V88.2505H113.676V90.459H107.338V88.2505H109.319V83.1027H102.301V88.2505H104.227V90.459H98V88.2505H99.9816V77.1026H98V74.8442Z" fill="#010202"/>
<path fill-rule="evenodd" clip-rule="evenodd" d="M172.471 74.8442H185.257V79.2004H183.109V77.1026H176.882V80.8389H182.201V83.0474H176.882V88.2505H183.054V85.2559H185.318V90.459H172.471V88.2505H174.563V77.1026H172.471V74.8442Z" fill="#010202"/>
<path fill-rule="evenodd" clip-rule="evenodd" d="M116.559 74.8442H129.407V79.2004H127.198V77.1026H120.977V80.8389H126.296V83.0474H120.977V88.2505H127.143V85.2559H129.407V90.459H116.559V88.2505H118.657V77.1026H116.559V74.8442Z" fill="#010202"/>
<path fill-rule="evenodd" clip-rule="evenodd" d="M176.207 72.7465H180.79L181.919 74.1081H177.452L176.207 72.7465Z" fill="#010202"/>
<path fill-rule="evenodd" clip-rule="evenodd" d="M197.822 81.5197C196.239 81.1211 195.159 81.182 193.521 80.6728C192.104 80.1636 191.821 79.3167 191.821 78.7465C191.821 78.1266 192.441 76.5989 194.705 76.5989C196.969 76.5989 198.497 78.1266 198.552 79.4274H200.761V74.8442H198.613V75.8627L198.724 76.145V76.2004V76.145C198.668 76.145 198.613 75.9734 198.386 75.8074C198.386 75.8074 198.386 75.8074 198.386 75.752C197.766 75.1874 196.46 74.5066 194.539 74.5066C192.22 74.5066 189.502 75.979 189.502 78.7521C189.502 81.4699 191.428 82.3721 193.122 82.826C194.761 83.2799 195.613 83.2799 197.024 83.6729C198.381 84.0105 199.288 84.8629 199.288 86.1084C199.288 87.2375 198.552 88.7652 195.607 88.7652C192.724 88.7652 191.534 87.1822 191.196 84.9736H189.104V90.4645H191.251V89.4461L191.196 89.1638C191.196 89.1638 191.251 89.3354 191.534 89.5014V89.5568C192.607 90.4037 194.08 90.9738 195.89 90.9738C197.982 90.9738 201.547 89.9 201.547 86.1637C201.558 83.4404 200.141 82.2005 197.822 81.5197Z" fill="#010202"/>
<path fill-rule="evenodd" clip-rule="evenodd" d="M167.433 88.2505V77.1026H169.526V74.8442H163.869L160.077 84.0105L160.022 84.4589L159.906 84.0105L156.175 74.8442H150.457V77.1026H152.549V88.2505H150.457V90.459H156.85V88.2505H154.869V78.0104V77.3295L155.04 77.8388L159.396 88.2505H160.642L164.998 77.8388L165.114 77.2742L165.17 77.8997V88.2505H163.188V90.459H169.526V88.2505H167.433Z" fill="#010202"/>
<path fill-rule="evenodd" clip-rule="evenodd" d="M121.824 68.844C121.824 68.844 121.768 68.844 119.676 68.844V68.2794H121.259C121.314 68.3901 121.652 68.6724 121.824 68.844Z" fill="#010202"/>
<path fill-rule="evenodd" clip-rule="evenodd" d="M175.864 68.844C175.864 68.6171 176.091 68.3901 176.373 68.2794H177.502V68.844H175.864Z" fill="#010202"/>
<path fill-rule="evenodd" clip-rule="evenodd" d="M140.328 69.2371C139.365 69.6909 138.18 69.6356 137.217 69.2371H125.953C124.879 69.6909 123.634 69.6909 122.56 69.2371H119.676V70.3109H177.508V69.2371H140.328Z" fill="#010202"/>
<path fill-rule="evenodd" clip-rule="evenodd" d="M126.634 68.844C126.805 68.7333 127.198 68.3348 127.253 68.2794H135.971C136.082 68.451 136.37 68.7333 136.536 68.844H126.634Z" fill="#010202"/>
<path fill-rule="evenodd" clip-rule="evenodd" d="M138.8 68.5064C140.272 68.5064 141.518 67.261 141.518 65.7886C141.518 64.2609 140.272 63.0155 138.8 63.0155C137.272 63.0155 136.027 64.2609 136.027 65.7886C136.027 67.261 137.272 68.5064 138.8 68.5064V69.071C136.935 69.071 135.462 67.5987 135.462 65.7886C135.462 63.9233 136.935 62.4509 138.8 62.4509C140.61 62.4509 142.082 63.9233 142.082 65.7886C142.082 67.5987 140.61 69.071 138.8 69.071V68.5064V68.5064Z" fill="#010202"/>
<path fill-rule="evenodd" clip-rule="evenodd" d="M127.99 65.3349C127.99 63.2979 126.29 61.5986 124.253 61.5986C122.161 61.5986 120.517 63.2979 120.517 65.3349C120.517 67.4272 122.156 69.0711 124.253 69.0711C126.296 69.0711 127.99 67.4272 127.99 65.3349H127.37C127.37 67.0895 125.953 68.5066 124.259 68.5066C122.504 68.5066 121.093 67.0895 121.093 65.3349C121.093 63.5802 122.51 62.2241 124.259 62.2241C125.958 62.2241 127.37 63.5802 127.37 65.3349H127.99V65.3349Z" fill="#010202"/>
<path fill-rule="evenodd" clip-rule="evenodd" d="M140.555 67.654L139.425 66.3532V66.2978C139.481 66.2425 139.481 66.1871 139.536 66.1262L141.235 66.5801C141.291 66.5801 141.407 66.6355 141.407 66.6908C141.407 66.6355 141.462 66.4085 141.518 66.2923C141.462 66.3476 141.346 66.3476 141.235 66.3476L139.652 65.8938C139.597 65.8938 139.597 65.8384 139.597 65.8384C139.597 65.7831 139.597 65.6668 139.597 65.6115V65.5561L141.235 64.9362C141.235 64.9362 141.407 64.9362 141.407 64.9915C141.407 64.9362 141.296 64.6539 141.296 64.593C141.296 64.6483 141.186 64.7646 141.125 64.7646L141.235 64.7092L139.536 65.3292C139.536 65.3845 139.536 65.3292 139.481 65.3292C139.481 65.2738 139.425 65.2185 139.37 65.2185C139.37 65.1631 139.315 65.1078 139.37 65.1078L140.278 63.6908C140.333 63.6354 140.449 63.58 140.505 63.58C140.449 63.58 140.222 63.4085 140.106 63.3531C140.162 63.3531 140.162 63.5247 140.106 63.58L139.198 64.9971C139.143 64.9971 139.143 64.9971 139.088 64.9971C139.088 64.9971 138.977 64.9417 138.916 64.9417C138.916 64.9417 138.861 64.9417 138.861 64.8864L138.805 63.2479C138.805 63.1372 138.805 63.021 138.916 63.021C138.805 63.021 138.578 63.021 138.462 63.021C138.518 63.021 138.573 63.1926 138.573 63.2479L138.628 64.8864C138.628 64.9417 138.573 64.9417 138.573 64.9417C138.573 64.9417 138.462 64.9971 138.401 65.0524C138.401 65.0524 138.346 65.0524 138.346 64.9971L137.272 63.6963C137.217 63.6409 137.217 63.5247 137.217 63.4693C137.161 63.5247 136.934 63.6963 136.879 63.7516C136.934 63.7516 137.051 63.807 137.106 63.8623L138.18 65.1631V65.2185C138.125 65.2185 138.069 65.3292 138.069 65.3901C138.069 65.3901 138.014 65.4454 137.959 65.4454L136.375 64.9915C136.265 64.9362 136.204 64.8808 136.204 64.8199C136.204 64.8753 136.093 65.1576 136.093 65.2185C136.093 65.2185 136.265 65.1631 136.32 65.2185L137.903 65.617C137.958 65.617 137.959 65.6724 137.959 65.6724C137.959 65.7277 137.959 65.8439 137.959 65.8993V65.9546L136.375 66.6355C136.32 66.6355 136.204 66.6908 136.204 66.6355C136.204 66.6908 136.259 66.9178 136.315 67.034C136.315 66.9787 136.425 66.8624 136.486 66.8624L138.014 66.1816C138.069 66.1816 138.069 66.2369 138.069 66.2369C138.125 66.2369 138.18 66.2923 138.18 66.3476C138.235 66.3476 138.235 66.403 138.235 66.403L137.272 67.82C137.217 67.8754 137.161 67.9307 137.101 67.9307C137.156 67.9861 137.383 68.1577 137.438 68.1577C137.383 68.1577 137.438 67.9861 137.438 67.9307L138.401 66.5746C138.401 66.5192 138.457 66.5192 138.457 66.5192C138.512 66.5746 138.567 66.5746 138.628 66.5746C138.684 66.5746 138.684 66.5746 138.684 66.6299L138.794 68.3292C138.794 68.3846 138.739 68.5008 138.684 68.5008C138.739 68.5008 139.021 68.5008 139.137 68.5008C139.027 68.5008 139.027 68.3901 139.027 68.2739L138.916 66.6355C138.916 66.5801 138.971 66.5801 138.971 66.5801C139.027 66.5801 139.143 66.5248 139.198 66.4694C139.198 66.4694 139.254 66.4694 139.254 66.5248L140.383 67.7702C140.383 67.8255 140.438 67.9418 140.438 67.9971C140.494 67.9418 140.665 67.7702 140.721 67.7148C140.665 67.7702 140.555 67.654 140.555 67.654Z" fill="#010202"/>
<path fill-rule="evenodd" clip-rule="evenodd" d="M124.143 63.1872C125.726 63.1872 127.314 63.3588 128.217 63.6411C128.327 63.6411 128.327 63.7518 128.217 63.8127C127.253 64.0396 125.67 64.2112 124.198 64.2112C122.726 64.2666 121.143 64.2112 120.124 63.9843C120.013 63.9843 120.013 63.8736 120.124 63.8736C121.032 63.5248 122.56 63.2426 124.143 63.1872V62.9049C122.443 62.9603 120.75 63.3588 119.333 63.868C119.161 63.9234 119.161 64.0396 119.333 64.0396C120.916 64.4382 122.56 64.4935 124.198 64.4382C125.781 64.3828 127.48 64.2666 129.008 63.8182C129.235 63.7629 129.18 63.6466 129.063 63.6466C127.591 63.1927 125.892 62.9104 124.143 62.9104V63.1872Z" fill="#010202"/>
<path fill-rule="evenodd" clip-rule="evenodd" d="M140.953 62.1687C140.555 62.2794 139.879 62.5064 139.536 62.5064C139.254 62.5064 137.837 62.451 136.874 62.5064C135.573 62.5617 135.457 62.7333 135.401 62.6171C135.119 62.1632 134.892 61.4879 134.438 61.0893C131.776 61.5432 129.174 61.1447 126.8 60.2978V59.9602C126.971 60.0155 127.082 60.0155 127.198 60.0155C126.8 59.4509 126.124 59.2793 125.726 58.6594C125.499 58.4878 125.444 58.1502 125.217 57.9786C125.272 58.5985 124.763 59.0524 124.707 59.5616C125.045 59.6723 125.499 59.6723 125.67 59.617C125.897 59.5616 126.18 59.617 126.29 59.7886C126.462 59.8439 126.573 59.9602 126.8 59.9602V60.2978C126.517 60.2425 126.462 60.1871 126.235 60.0709C125.953 60.1816 125.726 60.1262 125.615 60.0155C125.56 59.9602 124.995 59.9602 124.768 59.9602C124.032 59.9602 123.241 60.2425 122.842 60.8679C122.67 61.2056 122.731 61.6041 122.897 61.8864C123.008 62.058 123.517 62.7942 123.86 63.0156L123.407 63.1263C122.726 62.5064 122.217 61.9362 122.333 61.2C122.67 59.617 124.143 59.8439 124.541 59.1631C124.824 58.5432 124.94 56.7276 124.597 56.2184C123.634 55.8198 122.449 55.3106 122.222 54.1814C122.167 53.8991 122.277 53.5615 122.56 53.5006C123.069 53.3899 123.407 53.6722 123.805 53.8382C123.977 53.7275 123.634 53.329 124.032 53.329C124.541 53.329 124.879 54.3475 125.051 54.4028L124.995 54.8014C124.658 54.6907 123.412 54.0098 123.296 53.9545C123.069 53.8438 122.787 53.6722 122.615 53.8991C122.388 54.1814 122.67 54.5191 122.842 54.8069C125.504 57.58 129.916 54.6353 132.8 56.6169C132.855 56.4453 132.8 56.39 132.689 56.3346C130.708 54.4693 127.541 55.4268 124.995 54.8069L125.051 54.4084C128.222 55.1999 132.407 53.8991 134.051 57.5191C135.125 59.0469 136.259 61.4823 138.579 61.5377C140.444 61.593 141.689 60.8569 142.597 59.5007C143.843 57.2368 144.579 54.6353 146.787 53.1076C147.014 52.9969 147.125 53.1076 147.014 53.1629C145.94 54.2368 144.977 55.6538 144.468 56.8438C145.315 60.0709 147.186 59.39 147.64 59.3347C147.529 58.1446 147.64 54.6353 150.186 53.7884C150.75 53.3345 152.787 52.0338 155.45 53.1685C153.468 55.0338 152.278 57.6963 151.885 59.5616L149.677 60.1816C149.848 59.8439 149.848 59.2738 149.787 58.6539C149.56 58.7646 149.333 58.9362 148.824 59.2184C148.597 59.2738 148.769 58.9362 148.769 58.9362C148.769 58.8254 149.333 58.5985 149.787 58.3162C149.616 57.0154 149.505 55.3161 150.579 54.2423C148.37 54.9785 148.996 59.617 149.223 60.1816C148.603 60.4639 147.75 60.4639 147.75 60.4639L147.64 59.6723C146.677 60.01 145.038 59.783 144.302 57.2368C143.499 58.8863 142.819 61.4879 140.953 62.1687Z" fill="#010202"/>
<path fill-rule="evenodd" clip-rule="evenodd" d="M175.471 55.2607C175.36 55.15 175.299 55.0891 175.188 55.0891C175.133 55.0337 175.188 54.9784 175.244 54.9784C175.299 54.923 175.415 54.9784 175.471 55.0891C175.526 55.15 175.526 55.2607 175.471 55.2607Z" fill="#010202"/>
<path fill-rule="evenodd" clip-rule="evenodd" d="M124.824 66.1818L126.014 67.5379C126.124 67.6486 126.124 67.8202 126.069 67.8756C126.241 67.8202 126.467 67.5379 126.578 67.4217C126.523 67.477 126.296 67.477 126.241 67.3663L124.995 66.0102C124.995 65.9548 124.995 65.9548 124.995 65.8995C124.995 65.8995 124.995 65.8995 125.05 65.8441C125.05 65.7888 125.106 65.7888 125.106 65.7888L126.86 66.4087C127.032 66.5194 127.087 66.6357 127.087 66.691C127.143 66.5803 127.259 66.2371 127.314 66.1264C127.259 66.1818 127.087 66.2371 126.977 66.1818L125.222 65.5618C125.167 65.5618 125.167 65.5618 125.167 65.5065C125.167 65.4511 125.167 65.4511 125.167 65.3958C125.167 65.3404 125.222 65.3404 125.222 65.3404L127.032 65.0581C127.259 65.0028 127.37 65.1135 127.37 65.1688C127.37 65.0581 127.314 64.6596 127.314 64.5489C127.314 64.6043 127.204 64.7758 126.977 64.8312L125.222 65.1135C125.167 65.1135 125.167 65.0581 125.167 65.0581C125.111 65.0028 125.111 64.9474 125.056 64.8865V64.8312L126.473 63.6411C126.645 63.5304 126.811 63.5304 126.872 63.5858C126.761 63.4751 126.534 63.1872 126.418 63.0765C126.473 63.1319 126.418 63.3035 126.307 63.4751L124.951 64.6043C124.895 64.6596 124.895 64.6596 124.895 64.6043C124.84 64.6043 124.785 64.6043 124.724 64.5489C124.724 64.5489 124.669 64.4936 124.724 64.4936L125.344 62.7389C125.399 62.5673 125.571 62.512 125.626 62.512C125.515 62.4566 125.117 62.285 125.006 62.285C125.062 62.285 125.178 62.512 125.117 62.6835L124.486 64.3718C124.486 64.4271 124.431 64.4271 124.431 64.4271C124.375 64.4271 124.32 64.4271 124.259 64.4271L124.204 64.3718L123.866 62.5618C123.866 62.3348 123.977 62.2241 123.977 62.2241C123.866 62.2241 123.523 62.2795 123.357 62.3348C123.412 62.3348 123.584 62.4455 123.639 62.6171L123.977 64.3718C123.977 64.4271 123.977 64.4271 123.921 64.4825C123.866 64.4825 123.811 64.5378 123.75 64.5378H123.694L122.449 63.1817C122.338 63.0101 122.338 62.8441 122.394 62.8441C122.283 62.8994 121.995 63.1264 121.94 63.2426C121.995 63.2426 122.167 63.2426 122.277 63.3533L123.523 64.7094V64.7648C123.467 64.8201 123.467 64.8201 123.412 64.8755C123.412 64.8755 123.412 64.8755 123.357 64.8755L121.657 64.2555C121.486 64.2002 121.375 64.0286 121.43 63.9732C121.32 64.1448 121.259 64.4825 121.204 64.5932C121.259 64.5378 121.43 64.4825 121.602 64.5378L123.301 65.1024C123.301 65.1578 123.301 65.1578 123.301 65.1578C123.301 65.2131 123.301 65.2685 123.301 65.3294C123.301 65.3847 123.301 65.3847 123.301 65.3847L121.491 65.7224C121.32 65.7224 121.154 65.6117 121.154 65.5508C121.154 65.7224 121.209 66.1154 121.264 66.2316C121.264 66.1762 121.32 66.0047 121.547 65.9493L123.301 65.6117C123.301 65.6117 123.357 65.6117 123.357 65.667C123.357 65.7224 123.357 65.7224 123.412 65.7777C123.412 65.8331 123.412 65.8331 123.412 65.8331L121.995 66.9622C121.823 67.1338 121.657 67.0729 121.657 67.0176C121.657 67.1892 121.94 67.4715 121.995 67.5268C121.995 67.4715 121.995 67.2999 122.106 67.1892L123.578 66.06C123.578 66.0047 123.578 66.0047 123.633 66.06C123.633 66.06 123.689 66.1154 123.744 66.1707C123.8 66.1707 123.8 66.1707 123.8 66.2261L123.18 67.9254C123.124 68.097 122.953 68.2077 122.897 68.1523C123.008 68.2077 123.351 68.3793 123.517 68.3793C123.407 68.3793 123.346 68.2077 123.407 68.0416L124.026 66.287C124.026 66.287 124.026 66.2316 124.082 66.2316C124.137 66.287 124.193 66.287 124.253 66.287C124.253 66.287 124.309 66.287 124.309 66.3423L124.646 68.097C124.646 68.3239 124.536 68.4346 124.475 68.4955C124.646 68.4955 124.984 68.3848 125.095 68.3239C125.039 68.3793 124.868 68.2132 124.868 68.097L124.53 66.287C124.53 66.2316 124.53 66.2316 124.53 66.2316C124.586 66.2316 124.641 66.1762 124.702 66.1762C124.768 66.1264 124.768 66.1264 124.824 66.1818Z" fill="#010202"/>
<path fill-rule="evenodd" clip-rule="evenodd" d="M174.679 55.4878C174.624 55.4325 174.679 55.3771 174.679 55.3162C174.734 55.1446 174.79 55.1446 174.79 54.9786C174.507 54.7516 174.452 54.2977 174.618 54.187C174.79 54.0154 175.354 54.2424 175.354 54.2424C175.864 53.8439 176.035 53.5616 176.317 53.3955C176.716 53.3955 177.508 54.1317 177.508 54.5856C177.397 54.7572 177.109 55.0395 176.661 55.604C176.832 56.0026 176.832 56.2849 176.55 56.5118C176.495 56.5118 176.378 56.5118 176.268 56.4011C176.323 56.9657 176.948 57.3089 177.175 57.7572C177.175 58.665 178.139 59.7942 177.065 60.5304C176.838 60.6411 176.611 60.8127 176.5 61.0396C176.672 61.9474 177.009 62.905 177.181 63.8681L176.107 63.9234C175.996 64.2611 175.653 64.8866 175.769 65.2242C175.769 65.2242 175.714 65.1689 175.825 65.2242C175.996 65.4512 176.052 67.3165 175.996 67.4881C175.996 67.715 176.168 67.715 176.052 68.108C175.941 68.1634 175.487 68.4457 175.432 68.6173C175.15 68.8996 174.358 68.9549 174.358 68.8442C174.358 68.5619 174.923 68.2243 175.039 67.8811C175.15 66.525 175.039 65.1633 174.303 64.0895C174.02 63.9179 173.793 64.3718 173.622 64.5987C173.904 65.4456 174.413 66.3534 174.358 67.3165C174.358 67.5988 174.696 67.9973 174.53 68.3903L173.622 68.8442H170.339C170.229 68.6726 170.002 68.5066 170.057 68.2796H173.002C173.002 68.1689 173.284 68.2243 173.566 67.7704C173.566 66.4143 172.149 64.4327 172.376 63.7519C172.659 62.905 173.057 62.2241 173.506 61.0894L173.733 61.0341C173.223 62.7334 172.487 63.5803 172.603 64.0895C172.659 64.3718 172.775 64.5987 172.941 64.9364L173.052 65.274C173.107 65.4456 173.279 65.8386 173.389 65.9549C173.561 65.9549 173.672 65.8442 173.788 65.7833C173.788 65.5563 173.616 65.274 173.506 65.1024L173.052 65.274L172.941 64.9364C173.279 64.9364 173.506 64.7094 173.223 64.5378C174.015 64.1393 173.052 64.2556 173.334 64.084C173.788 63.857 174.015 63.0101 174.07 62.5009C174.07 62.3902 174.126 62.3293 174.242 62.3293C174.579 63.2371 174.579 64.4216 175.15 65.274V65.5563C175.094 65.7833 175.15 66.0656 175.26 66.2372C175.769 66.2925 175.714 66.1818 175.598 65.5563C175.487 65.5563 175.26 65.501 175.144 65.5563V65.274C175.199 65.2187 175.426 65.274 175.482 65.2187C175.31 64.9364 175.31 64.7094 175.31 64.4271C175.31 64.2556 175.421 63.9179 175.537 64.6541C175.709 64.7094 175.991 63.3533 176.046 62.8994C174.972 63.1264 176.046 61.881 175.255 61.8256L175.653 61.1448C175.653 60.9178 175.482 60.7462 175.199 60.8625L174.972 60.5802C174.801 60.5248 174.635 60.2425 174.408 60.0709C174.236 60.2425 173.954 60.5802 173.899 60.8071C173.843 60.8625 174.009 60.9178 174.07 60.8625C174.242 60.6909 174.352 61.0341 174.635 60.9732C174.745 60.8625 175.089 60.8016 174.972 60.5747L175.199 60.8569C174.972 60.9677 174.972 61.3662 174.972 61.6485C174.574 62.3847 174.745 61.2499 174.292 61.2499C174.009 61.4215 173.893 60.9677 173.727 61.023L173.5 61.0784C173.5 60.6798 173.555 60.2315 173.5 59.7776C173.838 57.8513 174.236 57.9122 174.292 57.3421C174.292 57.1152 175.138 56.6613 175.083 56.4343C175.138 56.4343 175.255 56.6059 175.255 56.6613C175.199 56.9436 174.635 56.9436 174.69 57.569C175.028 56.9491 175.991 57.0045 176.046 56.2683C175.875 55.8144 176.273 56.0967 176.273 55.6483C176.162 55.5376 175.819 55.1944 175.764 55.0284C175.709 54.973 175.936 54.6299 175.144 54.6299C175.089 54.6852 175.033 55.0284 174.917 55.1944C174.862 55.2498 174.745 55.366 174.806 55.4214C174.806 55.4767 174.917 55.5321 174.917 55.759C174.862 55.986 174.917 56.0967 175.028 56.2129C175.482 56.4399 175.819 56.2129 175.31 56.4952C175.31 56.5506 175.31 56.6059 175.255 56.6668C175.255 56.6115 175.083 56.3845 175.028 56.3292C174.972 56.3292 174.69 56.1576 174.745 55.9306C174.79 55.7148 174.79 55.604 174.679 55.4878Z" fill="#010202"/>
<path fill-rule="evenodd" clip-rule="evenodd" d="M159.457 53.3401C159.513 53.7386 159.286 54.0209 159.286 54.4139C159.684 55.377 159.286 56.1132 159.396 57.0155C158.942 56.7332 158.832 55.997 158.66 55.2054C158.549 54.5246 158.716 54.2977 158.771 53.567L159.457 53.3401Z" fill="#010202"/>
<path fill-rule="evenodd" clip-rule="evenodd" d="M158.267 53.6224C158.212 54.8124 158.04 55.377 158.887 57.2424C156.739 58.1501 154.985 58.7701 152.439 59.5063C152.721 57.6963 154.476 54.2423 155.948 53.2792C157.193 53.6224 158.267 53.6224 158.267 53.6224Z" fill="#010202"/>
<path fill-rule="evenodd" clip-rule="evenodd" d="M152.721 66.9179C152.156 67.0895 152.156 67.4272 152.494 67.7648C152.721 67.9364 152.948 68.2187 152.948 68.274H149.328C149.328 68.4456 149.499 68.5563 149.61 68.8386H169.642C169.753 68.5563 169.415 68.2187 169.304 67.8755C167.887 67.3663 167.887 66.0655 167.832 64.5931C167.832 64.5378 167.721 64.3662 167.721 64.0839C167.55 63.857 166.592 61.5377 167.04 59.6724L167.378 59.0524C167.66 58.6539 167.323 58.4325 167.55 57.9786L171.74 57.1871C171.795 57.1317 171.795 56.9601 171.684 56.9048C171.684 56.8494 171.74 56.9048 171.684 56.9048L167.611 57.6409C167.837 56.6225 166.93 56.2848 167.328 55.4324C167.893 56.0523 169.421 57.1317 170.212 57.2978L170.611 57.2424C169.592 56.7885 167.782 55.7147 166.764 54.2977C166.653 54.2977 166.537 54.187 166.426 54.1261C166.426 54.2368 166.708 54.58 166.653 54.6353C166.653 54.6353 165.972 55.0892 164.727 54.5246C164.328 55.3162 159.917 57.2978 159.917 57.2978C160.088 58.5432 160.653 59.3347 161.273 60.0155C161.328 60.1262 161.101 59.9048 161.273 60.0155C162.18 60.7517 163.254 61.0894 164.444 61.3163C164.671 61.9971 165.518 64.2001 165.574 64.5433C165.684 64.881 165.856 64.881 165.856 64.881C165.967 64.9917 166.365 65.7279 166.365 66.0102L166.476 67.2002C166.531 67.4825 166.874 67.2556 166.93 67.5379L166.758 68.274H167.605C167.151 67.8755 167.433 67.2002 166.869 66.9179C166.813 66.2371 166.758 65.7279 166.47 65.4456C166.243 64.7647 165.507 62.9547 165.053 61.3163L165.336 60.9178C164.09 61.2554 163.127 60.8071 161.998 60.1816C161.151 59.7831 161.66 60.1262 161.942 59.9547C163.299 60.5746 163.979 60.4085 164.998 60.2923C165.109 60.4639 165.336 60.6299 165.336 60.9122L165.053 61.3108C165.336 61.0285 165.562 61.2001 165.734 61.9916C165.961 62.6724 166.188 63.1817 166.354 63.7463C166.581 64.3109 166.753 65.047 166.919 65.4456C166.919 65.4456 167.09 65.4456 167.201 65.6725C167.599 66.9179 167.71 67.0895 167.655 67.6541C167.765 68.108 168.391 67.7095 168.336 68.274H153.451C153.678 67.3663 153.169 66.5747 153.451 65.7279C152.887 64.8201 151.47 64.1448 151.697 62.8994C152.378 61.9363 154.581 60.9731 154.071 59.844C156.108 58.8255 157.127 60.5248 158.992 60.3532C159.673 60.3532 160.409 60.2425 161.029 60.0709C160.238 59.451 159.557 58.4878 159.164 57.6354C155.201 59.2738 151.354 60.5801 147.108 61.427L146.771 61.3163C146.372 61.3717 139.923 62.844 140.15 63.1263C137.715 63.2979 134.886 64.3164 134.267 64.654C133.984 64.8256 133.929 64.9363 134.267 65.0526C136.868 65.7334 139.021 65.2242 143.04 63.6964L142.757 63.4695C142.531 63.6411 139.248 64.7703 137.947 64.9419C136.591 65.1135 135.401 65.0526 134.837 64.8865C134.665 64.8312 134.665 64.8312 134.781 64.7758C137.327 63.7573 142.248 62.8496 142.929 63.702C143.328 63.8127 143.61 64.0396 143.837 64.3219C144.064 64.6042 144.518 64.4935 144.855 64.4326C145.309 64.3219 145.365 63.9234 145.365 63.5249L144.855 63.4695C144.628 63.4695 143.726 63.5802 143.61 63.6964C143.272 63.4142 142.929 63.1319 142.481 63.0156C143.389 62.6171 144.855 62.2794 145.652 62.2241C144.916 62.7333 145.254 63.3533 144.861 63.4695L145.37 63.5249C145.37 63.2979 145.37 63.1263 145.481 63.0156C145.99 61.7702 148.138 61.5986 149.217 61.3163C149.217 61.3163 148.652 62.0525 148.254 62.2241C148.143 63.9787 147.518 65.5065 147.407 67.2611C147.916 67.2611 147.916 67.8257 148.027 68.1689C147.855 68.4512 147.628 68.1689 147.407 68.2242C146.616 67.8257 147.579 67.1504 146.953 66.5858C147.291 65.1688 147.8 63.7573 147.8 62.285C147.573 62.285 147.518 62.5119 147.402 62.6835C147.23 64.1005 146.837 65.4013 146.494 66.7021C146.604 66.8128 146.892 66.929 146.892 67.1559C146.438 67.4382 146.892 67.9475 146.721 68.2851H141.573L141.064 68.8497H148.874L148.929 68.5674C147.8 67.322 148.193 65.512 148.758 64.1559L150.114 62.3459C151.243 61.892 151.924 60.5359 153.114 60.082C153.114 60.7019 152.378 60.9288 151.985 61.272C151.531 62.2352 150.23 62.3459 150.058 63.4197C150.568 63.9843 151.304 64.3828 151.924 64.892C152.544 65.2906 152.378 66.1375 152.832 66.5305C152.948 66.6356 152.832 66.8626 152.721 66.9179Z" fill="#010202"/>
<path fill-rule="evenodd" clip-rule="evenodd" d="M161.378 46.493C161.151 46.8307 160.697 47.0576 160.979 47.6831C160.415 48.0207 160.581 48.53 160.752 48.8123C160.47 49.0946 160.299 49.6592 160.697 50.0023C160.243 50.5116 160.808 50.9655 160.979 51.1315C160.752 51.6408 160.979 52.0393 160.979 52.0393C160.924 52.3769 160.299 52.9471 160.072 53.1131C159.734 53.96 159.845 55.7147 159.9 56.9047C161.483 56.1132 163.072 55.377 164.312 54.3032C163.238 53.567 162.385 51.8123 161.201 51.9286C161.09 50.6832 160.581 48.4746 162.33 46.2107C162.557 46.1 162.895 46.0391 163.066 45.9284C162.33 45.8177 161.367 46.2661 160.692 45.8731C160.697 45.8676 161.04 46.4321 161.378 46.493Z" fill="#010202"/>
<path fill-rule="evenodd" clip-rule="evenodd" d="M165.17 45.9229C165.17 45.9783 165.397 46.0945 165.397 46.0945C165.397 46.0945 165.623 46.0391 165.623 45.9838C165.623 45.9284 165.679 45.7569 165.623 45.7015C165.568 45.7015 165.397 45.6461 165.286 45.6461C165.286 45.6406 165.17 45.8676 165.17 45.9229L165.059 46.0336L164.267 45.469L164.378 45.3583C164.378 45.3583 164.716 45.0207 164.887 45.0207C165.059 44.9653 165.961 45.0207 166.188 45.1923C166.36 45.3639 166.47 45.4746 166.697 45.8731C167.317 46.327 168.336 46.327 168.961 46.8362C168.85 47.0078 169.133 47.2901 168.906 47.4008C168.734 47.4562 168.341 47.3455 168.286 47.4562L168.231 47.7938L168.004 47.7385C168.004 47.7385 168.114 47.3399 168.004 47.3399C167.893 47.2846 167.666 47.1683 167.55 47.2292C167.494 47.2846 167.55 47.3399 167.605 47.4562C167.605 47.5669 167.887 47.6277 168.059 47.5669L168.286 47.6222L168.568 47.6776C168.457 47.9599 168.397 48.0761 168.004 47.9599C167.893 48.2422 168.513 48.4691 168.568 48.5798C168.513 48.6905 168.397 48.8067 168.004 48.5798C168.004 48.5798 166.365 50.1629 165.402 50.6167C164.384 51.0706 165.347 50.3898 165.347 50.3898C165.801 50.2182 167.782 48.5244 167.782 48.3529C167.727 48.2422 167.611 48.0152 167.611 47.8436C167.328 47.7329 166.764 47.899 166.537 48.0706C166.647 48.5798 167.555 51.126 166.874 54.9729L166.764 54.8622C167.384 51.126 166.365 48.1259 166.365 48.1259C165.801 48.3529 165.402 48.1813 165.12 48.2366C165.009 50.5559 166.874 50.8935 166.194 53.9545C164.212 53.6168 162.801 51.1813 161.666 51.4083C161.61 51.0097 161.212 50.3345 161.61 50.1075C161.5 49.7699 161.384 49.316 161.893 49.0337C161.721 48.5798 161.666 48.1868 162.175 47.8436C162.064 47.5613 162.12 46.9358 162.74 46.8251C162.795 46.3159 163.022 45.9174 163.476 45.7513C162.967 45.5244 162.856 45.0151 162.856 45.0151C163.31 45.2974 163.703 45.469 164.384 45.3528L165.17 45.9229Z" fill="#010202"/>
<path fill-rule="evenodd" clip-rule="evenodd" d="M145.929 88.2504L145.874 85.0787C145.874 84.1156 145.254 83.0971 144.401 82.5325C144.23 82.4772 143.948 82.3609 143.721 82.3609C143.948 82.3609 144.23 82.361 144.512 82.2502C145.359 81.8517 146.377 80.7779 146.377 78.9125C146.377 77.4955 145.813 76.4217 144.794 75.6855C143.831 75.0047 142.757 74.8386 141.628 74.8386H132.916V77.1025H134.897V88.2504H132.916V90.4589H139.143V88.2504H137.161V83.3296H141.462C142.935 83.385 143.499 84.3481 143.499 85.1396L143.671 90.4589H147.916V88.2504H145.929ZM141.911 81.182H137.156V77.1025C137.156 77.1025 140.549 77.1025 141.628 77.1025C142.138 77.1025 142.702 77.1025 143.156 77.2741C143.721 77.5564 144.23 78.1819 144.23 79.1395C144.23 80.3295 143.156 81.182 141.911 81.182Z" fill="#010202"/>
<path fill-rule="evenodd" clip-rule="evenodd" d="M132.124 96.0052C134.161 96.0052 135.069 97.1344 135.069 98.5514C135.069 99.9684 134.106 101.042 131.958 101.042H130.486V104.945H129.185V96.0052H132.124ZM130.481 99.9076H132.064C133.027 99.9076 133.702 99.3983 133.702 98.4905C133.702 97.8097 133.303 97.1344 132.119 97.1344H130.481V99.9076Z" fill="#010202"/>
<path fill-rule="evenodd" clip-rule="evenodd" d="M145.193 104.945H143.776L142.647 102.288H138.745L137.671 104.945H136.254L140.217 95.95H141.125L145.193 104.945ZM139.254 101.098H142.138L140.61 97.5884L139.254 101.098Z" fill="#010202"/>
<path fill-rule="evenodd" clip-rule="evenodd" d="M160.077 104.945H158.776V96.0052H160.077V104.945Z" fill="#010202"/>
<path fill-rule="evenodd" clip-rule="evenodd" d="M169.415 97.9316C168.568 97.2508 167.777 97.0238 167.096 97.0238C166.249 97.0238 165.568 97.4224 165.568 98.0423C165.568 99.797 169.758 99.7416 169.758 102.625C169.758 103.982 168.629 105 167.04 105C166.022 105 165.114 104.773 164.323 104.209V102.57C165.059 103.417 165.961 103.871 166.924 103.871C167.998 103.871 168.507 103.251 168.507 102.742C168.507 100.932 164.262 100.705 164.262 98.2693C164.262 96.7969 165.452 95.8947 167.206 95.8947C167.998 95.8947 168.679 96.0662 169.415 96.5146V97.9316V97.9316Z" fill="#010202"/>
<path fill-rule="evenodd" clip-rule="evenodd" d="M154.586 103.871C154.415 103.644 154.249 103.417 154.077 103.135C153.396 102.005 152.832 101.208 151.985 100.699C153.003 100.301 153.568 99.5091 153.568 98.4906C153.568 96.9629 152.378 95.9998 150.457 95.9998H148.138V104.939H149.494V101.037H150.059C150.739 101.037 151.304 101.264 152.494 103.074L153.739 104.939H155.267L154.586 103.871ZM150.346 99.9076H149.499V97.0791H150.346C151.647 97.0791 152.156 97.5884 152.156 98.4352C152.212 99.177 151.813 99.9076 150.346 99.9076Z" fill="#010202"/>
</svg>
