<svg width="300" height="150" viewBox="0 0 300 150" fill="none" xmlns="http://www.w3.org/2000/svg">
<path fill-rule="evenodd" clip-rule="evenodd" d="M73.2578 68.9692H82.4321V72.2965H79.5942V77.8826H89.9347V72.2965H87.0152V68.9692H96.3526V72.2965H93.3516V88.7205H96.3526V91.9743H87.0152V88.7205H89.9347V81.1364H79.5942V88.7205H82.4321V91.9743H73.2578V88.7205H76.1773V72.2965H73.2578V68.9692Z" fill="#010202"/>
<path fill-rule="evenodd" clip-rule="evenodd" d="M182.974 68.9692H201.812V75.3872H198.648V72.2965H189.474V77.801H197.311V81.0549H189.474V88.7205H198.567V84.3087H201.902V91.9743H182.974V88.7205H186.057V72.2965H182.974V68.9692Z" fill="#010202"/>
<path fill-rule="evenodd" clip-rule="evenodd" d="M100.601 68.9692H119.529V75.3872H116.275V72.2965H107.109V77.801H114.946V81.0549H107.109V88.7205H116.194V84.3087H119.529V91.9743H100.601V88.7205H103.692V72.2965H100.601V68.9692Z" fill="#010202"/>
<path fill-rule="evenodd" clip-rule="evenodd" d="M188.479 65.8785H195.231L196.895 67.8847H190.314L188.479 65.8785Z" fill="#010202"/>
<path fill-rule="evenodd" clip-rule="evenodd" d="M220.324 78.8041C217.992 78.217 216.401 78.3067 213.988 77.5564C211.9 76.8061 211.484 75.5584 211.484 74.7185C211.484 73.8051 212.397 71.5544 215.733 71.5544C219.068 71.5544 221.319 73.8051 221.4 75.7215H224.654V68.9693H221.49V70.4698L221.653 70.8857V70.9672V70.8857C221.572 70.8857 221.49 70.6329 221.156 70.3882C221.156 70.3882 221.156 70.3882 221.156 70.3067C220.242 69.4749 218.318 68.4718 215.488 68.4718C212.071 68.4718 208.067 70.641 208.067 74.7266C208.067 78.7307 210.905 80.06 213.4 80.7287C215.814 81.3974 217.07 81.3974 219.15 81.9764C221.148 82.4738 222.485 83.7297 222.485 85.5645C222.485 87.2282 221.4 89.4789 217.062 89.4789C212.813 89.4789 211.06 87.1466 210.562 83.8928H207.48V91.9825H210.644V90.482L210.562 90.0661C210.562 90.0661 210.644 90.3189 211.06 90.5635V90.6451C212.642 91.8928 214.811 92.7327 217.478 92.7327C220.56 92.7327 225.812 91.1507 225.812 85.6461C225.828 81.6339 223.741 79.8072 220.324 78.8041Z" fill="#010202"/>
<path fill-rule="evenodd" clip-rule="evenodd" d="M175.553 88.7205V72.2965H178.636V68.9692H170.302L164.715 82.4738L164.634 83.1344L164.463 82.4738L158.966 68.9692H150.542V72.2965H153.625V88.7205H150.542V91.9743H159.961V88.7205H157.042V73.6339V72.6308L157.294 73.3811L163.712 88.7205H165.547L171.965 73.3811L172.136 72.5493L172.218 73.4708V88.7205H169.298V91.9743H178.636V88.7205H175.553Z" fill="#010202"/>
<path fill-rule="evenodd" clip-rule="evenodd" d="M108.357 60.1293C108.357 60.1293 108.275 60.1293 105.193 60.1293V59.2975H107.525C107.606 59.4606 108.104 59.8765 108.357 60.1293Z" fill="#010202"/>
<path fill-rule="evenodd" clip-rule="evenodd" d="M187.973 60.1293C187.973 59.7949 188.308 59.4606 188.724 59.2975H190.387V60.1293H187.973Z" fill="#010202"/>
<path fill-rule="evenodd" clip-rule="evenodd" d="M135.619 60.7083C134.2 61.377 132.455 61.2954 131.036 60.7083H114.44C112.858 61.377 111.023 61.377 109.441 60.7083H105.193V62.2903H190.395V60.7083H135.619Z" fill="#010202"/>
<path fill-rule="evenodd" clip-rule="evenodd" d="M115.443 60.1293C115.696 59.9662 116.275 59.379 116.357 59.2975H129.201C129.364 59.5503 129.788 59.9662 130.032 60.1293H115.443Z" fill="#010202"/>
<path fill-rule="evenodd" clip-rule="evenodd" d="M133.368 59.6318C135.537 59.6318 137.372 57.797 137.372 55.6278C137.372 53.377 135.537 51.5421 133.368 51.5421C131.117 51.5421 129.282 53.377 129.282 55.6278C129.282 57.797 131.117 59.6318 133.368 59.6318V60.4636C130.62 60.4636 128.45 58.2944 128.45 55.6278C128.45 52.8795 130.62 50.7103 133.368 50.7103C136.035 50.7103 138.204 52.8795 138.204 55.6278C138.204 58.2944 136.035 60.4636 133.368 60.4636V59.6318Z" fill="#010202"/>
<path fill-rule="evenodd" clip-rule="evenodd" d="M117.441 54.9591C117.441 51.958 114.938 49.4545 111.937 49.4545C108.854 49.4545 106.432 51.958 106.432 54.9591C106.432 58.0416 108.846 60.4636 111.937 60.4636C114.946 60.4636 117.441 58.0416 117.441 54.9591H116.528C116.528 57.5442 114.44 59.6318 111.945 59.6318C109.36 59.6318 107.28 57.5442 107.28 54.9591C107.28 52.3739 109.368 50.376 111.945 50.376C114.448 50.376 116.528 52.3739 116.528 54.9591H117.441Z" fill="#010202"/>
<path fill-rule="evenodd" clip-rule="evenodd" d="M135.953 58.376L134.289 56.4596V56.378C134.371 56.2965 134.371 56.2149 134.452 56.1252L136.956 56.7939C137.037 56.7939 137.209 56.8755 137.209 56.957C137.209 56.8755 137.29 56.5411 137.372 56.3699C137.29 56.4514 137.119 56.4514 136.956 56.4514L134.624 55.7827C134.542 55.7827 134.542 55.7012 134.542 55.7012C134.542 55.6196 134.542 55.4484 134.542 55.3668V55.2853L136.956 54.3719C136.956 54.3719 137.209 54.3719 137.209 54.4534C137.209 54.3719 137.046 53.956 137.046 53.8663C137.046 53.9478 136.883 54.1191 136.793 54.1191L136.956 54.0375L134.452 54.9509C134.452 55.0324 134.452 54.9509 134.371 54.9509C134.371 54.8694 134.289 54.7878 134.208 54.7878C134.208 54.7063 134.126 54.6247 134.208 54.6247L135.545 52.537C135.627 52.4555 135.798 52.3739 135.879 52.3739C135.798 52.3739 135.464 52.1211 135.292 52.0396C135.374 52.0396 135.374 52.2924 135.292 52.3739L133.955 54.4616C133.873 54.4616 133.873 54.4616 133.792 54.4616C133.792 54.4616 133.629 54.3801 133.539 54.3801C133.539 54.3801 133.457 54.3801 133.457 54.2985L133.376 51.8846C133.376 51.7215 133.376 51.5503 133.539 51.5503C133.376 51.5503 133.042 51.5503 132.87 51.5503C132.952 51.5503 133.033 51.8031 133.033 51.8846L133.115 54.2985C133.115 54.3801 133.033 54.3801 133.033 54.3801C133.033 54.3801 132.87 54.4616 132.781 54.5432C132.781 54.5432 132.699 54.5432 132.699 54.4616L131.117 52.5452C131.035 52.4636 131.035 52.2924 131.035 52.2108C130.954 52.2924 130.62 52.5452 130.538 52.6267C130.62 52.6267 130.791 52.7083 130.872 52.7898L132.454 54.7063V54.7878C132.373 54.7878 132.291 54.9509 132.291 55.0406C132.291 55.0406 132.21 55.1222 132.128 55.1222L129.796 54.4534C129.633 54.3719 129.543 54.2904 129.543 54.2006C129.543 54.2822 129.38 54.6981 129.38 54.7878C129.38 54.7878 129.633 54.7063 129.714 54.7878L132.047 55.375C132.128 55.375 132.128 55.4565 132.128 55.4565C132.128 55.5381 132.128 55.7093 132.128 55.7909V55.8724L129.796 56.8755C129.714 56.8755 129.543 56.957 129.543 56.8755C129.543 56.957 129.625 57.2914 129.706 57.4626C129.706 57.3811 129.869 57.2098 129.959 57.2098L132.21 56.2068C132.291 56.2068 132.291 56.2883 132.291 56.2883C132.373 56.2883 132.454 56.3699 132.454 56.4514C132.536 56.4514 132.536 56.533 132.536 56.533L131.117 58.6206C131.035 58.7022 130.954 58.7837 130.864 58.7837C130.946 58.8653 131.28 59.1181 131.362 59.1181C131.28 59.1181 131.362 58.8653 131.362 58.7837L132.781 56.7858C132.781 56.7042 132.862 56.7042 132.862 56.7042C132.944 56.7858 133.025 56.7858 133.115 56.7858C133.197 56.7858 133.197 56.7858 133.197 56.8673L133.36 59.3709C133.36 59.4524 133.278 59.6237 133.197 59.6237C133.278 59.6237 133.694 59.6237 133.865 59.6237C133.702 59.6237 133.702 59.4606 133.702 59.2893L133.539 56.8755C133.539 56.7939 133.621 56.7939 133.621 56.7939C133.702 56.7939 133.873 56.7124 133.955 56.6308C133.955 56.6308 134.036 56.6308 134.036 56.7124L135.7 58.5472C135.7 58.6288 135.782 58.8 135.782 58.8816C135.863 58.8 136.116 58.5472 136.198 58.4657C136.116 58.5472 135.953 58.376 135.953 58.376Z" fill="#010202"/>
<path fill-rule="evenodd" clip-rule="evenodd" d="M111.774 51.7949C114.106 51.7949 116.446 52.0477 117.776 52.4636C117.939 52.4636 117.939 52.6267 117.776 52.7164C116.357 53.0508 114.024 53.3036 111.855 53.3036C109.686 53.3851 107.354 53.3036 105.853 52.9692C105.69 52.9692 105.69 52.8061 105.853 52.8061C107.19 52.2924 109.441 51.8765 111.774 51.7949V51.379C109.27 51.4606 106.775 52.0477 104.687 52.798C104.434 52.8795 104.434 53.0508 104.687 53.0508C107.019 53.6379 109.441 53.7195 111.855 53.6379C114.187 53.5564 116.691 53.3851 118.942 52.7246C119.276 52.643 119.195 52.4718 119.023 52.4718C116.854 51.8031 114.351 51.3872 111.774 51.3872V51.7949Z" fill="#010202"/>
<path fill-rule="evenodd" clip-rule="evenodd" d="M136.54 50.2944C135.953 50.4575 134.958 50.7919 134.452 50.7919C134.037 50.7919 131.949 50.7103 130.53 50.7919C128.614 50.8734 128.442 51.1262 128.361 50.955C127.945 50.2863 127.61 49.2914 126.942 48.7042C123.019 49.3729 119.186 48.7858 115.688 47.5381V47.0406C115.941 47.1222 116.104 47.1222 116.275 47.1222C115.688 46.2904 114.693 46.0376 114.106 45.1242C113.772 44.8714 113.69 44.374 113.356 44.1212C113.437 45.0345 112.687 45.7032 112.605 46.4535C113.103 46.6166 113.772 46.6166 114.024 46.535C114.359 46.4535 114.775 46.535 114.938 46.7878C115.19 46.8694 115.354 47.0406 115.688 47.0406V47.5381C115.272 47.4565 115.19 47.375 114.856 47.2037C114.44 47.3668 114.106 47.2853 113.943 47.1222C113.861 47.0406 113.029 47.0406 112.695 47.0406C111.61 47.0406 110.444 47.4565 109.857 48.378C109.604 48.8755 109.694 49.4626 109.939 49.8785C110.102 50.1313 110.852 51.2159 111.358 51.5421L110.689 51.7052C109.686 50.7919 108.936 49.9519 109.107 48.8673C109.604 46.535 111.774 46.8694 112.361 45.8663C112.777 44.953 112.948 42.2781 112.442 41.5279C111.023 40.9407 109.278 40.1905 108.944 38.5269C108.862 38.111 109.025 37.6135 109.441 37.5238C110.192 37.3607 110.689 37.7766 111.276 38.0213C111.529 37.8582 111.023 37.271 111.61 37.271C112.361 37.271 112.858 38.7715 113.111 38.8531L113.029 39.4402C112.532 39.2771 110.697 38.2741 110.526 38.1925C110.192 38.0294 109.776 37.7766 109.523 38.111C109.188 38.5269 109.604 39.0243 109.857 39.4484C113.78 43.534 120.279 39.1956 124.528 42.115C124.609 41.8622 124.528 41.7807 124.365 41.6991C121.445 38.9509 116.781 40.3617 113.029 39.4484L113.111 38.8612C117.784 40.0274 123.949 38.111 126.371 43.4443C127.953 45.6951 129.625 49.2832 133.042 49.3648C135.79 49.4463 137.625 48.3617 138.962 46.3638C140.797 43.0284 141.882 39.1956 145.135 36.9448C145.47 36.7817 145.633 36.9448 145.47 37.0264C143.888 38.6084 142.469 40.6961 141.719 42.4494C142.966 47.2037 145.723 46.2007 146.391 46.1191C146.228 44.3658 146.391 39.1956 150.143 37.9479C150.974 37.2792 153.975 35.3628 157.898 37.0345C154.978 39.7827 153.225 43.7053 152.646 46.4535L149.392 47.3668C149.645 46.8694 149.645 46.0294 149.555 45.1161C149.221 45.2792 148.887 45.532 148.136 45.9479C147.802 46.0294 148.055 45.532 148.055 45.532C148.055 45.3689 148.887 45.0345 149.555 44.6186C149.303 42.7022 149.139 40.1986 150.722 38.6166C147.468 39.7012 148.389 46.535 148.724 47.3668C147.81 47.7827 146.554 47.7827 146.554 47.7827L146.391 46.6166C144.972 47.114 142.558 46.7797 141.474 43.0284C140.291 45.4586 139.288 49.2914 136.54 50.2944Z" fill="#010202"/>
<path fill-rule="evenodd" clip-rule="evenodd" d="M187.394 40.1171C187.231 39.954 187.141 39.8643 186.978 39.8643C186.897 39.7827 186.978 39.7012 187.06 39.7012C187.141 39.6196 187.313 39.7012 187.394 39.8643C187.476 39.954 187.476 40.1171 187.394 40.1171Z" fill="#010202"/>
<path fill-rule="evenodd" clip-rule="evenodd" d="M112.777 56.2068L114.53 58.2047C114.693 58.3678 114.693 58.6206 114.611 58.7022C114.864 58.6206 115.199 58.2047 115.362 58.0335C115.28 58.115 114.946 58.115 114.864 57.9519L113.029 55.954C113.029 55.8724 113.029 55.8724 113.029 55.7909C113.029 55.7909 113.029 55.7909 113.111 55.7093C113.111 55.6278 113.192 55.6278 113.192 55.6278L115.778 56.5411C116.03 56.7042 116.112 56.8755 116.112 56.957C116.194 56.7939 116.365 56.2883 116.446 56.1252C116.365 56.2068 116.112 56.2883 115.949 56.2068L113.364 55.2934C113.282 55.2934 113.282 55.2934 113.282 55.2119C113.282 55.1303 113.282 55.1303 113.282 55.0488C113.282 54.9672 113.364 54.9672 113.364 54.9672L116.03 54.5513C116.365 54.4698 116.528 54.6329 116.528 54.7144C116.528 54.5513 116.446 53.9641 116.446 53.801C116.446 53.8826 116.283 54.1354 115.949 54.217L113.364 54.6329C113.282 54.6329 113.282 54.5513 113.282 54.5513C113.201 54.4698 113.201 54.3882 113.119 54.2985V54.217L115.207 52.4636C115.46 52.3005 115.704 52.3005 115.794 52.3821C115.631 52.219 115.296 51.7949 115.125 51.6318C115.207 51.7134 115.125 51.9662 114.962 52.219L112.964 53.8826C112.883 53.9641 112.883 53.9641 112.883 53.8826C112.801 53.8826 112.72 53.8826 112.63 53.801C112.63 53.801 112.548 53.7195 112.63 53.7195L113.543 51.1344C113.625 50.8816 113.878 50.8 113.959 50.8C113.796 50.7185 113.209 50.4657 113.046 50.4657C113.127 50.4657 113.299 50.8 113.209 51.0528L112.279 53.5401C112.279 53.6216 112.198 53.6216 112.198 53.6216C112.116 53.6216 112.034 53.6216 111.945 53.6216L111.863 53.5401L111.366 50.8734C111.366 50.5391 111.529 50.376 111.529 50.376C111.366 50.376 110.86 50.4575 110.616 50.5391C110.697 50.5391 110.95 50.7022 111.031 50.955L111.529 53.5401C111.529 53.6216 111.529 53.6216 111.447 53.7032C111.366 53.7032 111.284 53.7847 111.195 53.7847H111.113L109.278 51.7868C109.115 51.534 109.115 51.2893 109.197 51.2893C109.033 51.3709 108.609 51.7052 108.528 51.8765C108.609 51.8765 108.862 51.8765 109.025 52.0396L110.86 54.0375V54.1191C110.779 54.2006 110.779 54.2006 110.697 54.2822C110.697 54.2822 110.697 54.2822 110.616 54.2822L108.112 53.3688C107.859 53.2873 107.696 53.0345 107.778 52.9529C107.615 53.2057 107.525 53.7032 107.443 53.8663C107.525 53.7847 107.778 53.7032 108.03 53.7847L110.534 54.6165C110.534 54.6981 110.534 54.6981 110.534 54.6981C110.534 54.7796 110.534 54.8612 110.534 54.9509C110.534 55.0324 110.534 55.0324 110.534 55.0324L107.867 55.5299C107.615 55.5299 107.37 55.3668 107.37 55.2771C107.37 55.5299 107.451 56.1089 107.533 56.2802C107.533 56.1986 107.615 55.9458 107.949 55.8642L110.534 55.3668C110.534 55.3668 110.616 55.3668 110.616 55.4483C110.616 55.5299 110.616 55.5299 110.697 55.6114C110.697 55.693 110.697 55.693 110.697 55.693L108.609 57.3566C108.357 57.6094 108.112 57.5197 108.112 57.4381C108.112 57.691 108.528 58.1069 108.609 58.1884C108.609 58.1069 108.609 57.8541 108.773 57.691L110.942 56.0273C110.942 55.9458 110.942 55.9458 111.023 56.0273C111.023 56.0273 111.105 56.1089 111.186 56.1904C111.268 56.1904 111.268 56.1904 111.268 56.272L110.355 58.7756C110.273 59.0284 110.02 59.1915 109.939 59.1099C110.102 59.1915 110.607 59.4443 110.852 59.4443C110.689 59.4443 110.599 59.1915 110.689 58.9468L111.602 56.3617C111.602 56.3617 111.602 56.2802 111.684 56.2802C111.765 56.3617 111.847 56.3617 111.937 56.3617C111.937 56.3617 112.018 56.3617 112.018 56.4432L112.516 59.0284C112.516 59.3627 112.353 59.5258 112.263 59.6155C112.516 59.6155 113.013 59.4524 113.176 59.3627C113.095 59.4443 112.842 59.1996 112.842 59.0284L112.344 56.3617C112.344 56.2801 112.344 56.2802 112.344 56.2802C112.426 56.2802 112.507 56.1986 112.597 56.1986C112.695 56.1252 112.695 56.1252 112.777 56.2068Z" fill="#010202"/>
<path fill-rule="evenodd" clip-rule="evenodd" d="M186.228 40.4515C186.147 40.3699 186.228 40.2884 186.228 40.1987C186.31 39.9459 186.391 39.9459 186.391 39.7012C185.975 39.3669 185.894 38.6982 186.138 38.5351C186.391 38.2822 187.223 38.6166 187.223 38.6166C187.973 38.0294 188.226 37.6135 188.642 37.3689C189.229 37.3689 190.395 38.4535 190.395 39.1222C190.232 39.375 189.808 39.7909 189.148 40.6227C189.4 41.2099 189.4 41.6258 188.984 41.9601C188.903 41.9601 188.732 41.9601 188.569 41.797C188.65 42.6288 189.572 43.1344 189.906 43.795C189.906 45.1324 191.325 46.796 189.743 47.8806C189.409 48.0437 189.074 48.2965 188.911 48.6309C189.164 49.9683 189.661 51.3791 189.914 52.798L188.332 52.8796C188.169 53.377 187.663 54.2985 187.835 54.796C187.835 54.796 187.753 54.7144 187.916 54.796C188.169 55.1303 188.251 57.8786 188.169 58.1314C188.169 58.4657 188.422 58.4657 188.251 59.0447C188.087 59.1263 187.419 59.5422 187.337 59.795C186.921 60.2109 185.755 60.2924 185.755 60.1293C185.755 59.7134 186.587 59.216 186.758 58.7104C186.921 56.7124 186.758 54.7063 185.674 53.1242C185.258 52.8714 184.923 53.5401 184.671 53.8745C185.086 55.1222 185.837 56.4596 185.755 57.8786C185.755 58.2945 186.253 58.8816 186.008 59.4606L184.671 60.1293H179.835C179.672 59.8765 179.337 59.6319 179.419 59.2975H183.757C183.757 59.1344 184.173 59.216 184.589 58.5473C184.589 56.5493 182.501 53.6298 182.836 52.6268C183.252 51.3791 183.839 50.376 184.499 48.7043L184.834 48.6227C184.083 51.1263 182.999 52.374 183.17 53.1242C183.252 53.5401 183.423 53.8745 183.667 54.3719L183.831 54.8694C183.912 55.1222 184.165 55.7012 184.328 55.8724C184.581 55.8724 184.744 55.7093 184.915 55.6196C184.915 55.2853 184.662 54.8694 184.499 54.6166L183.831 54.8694L183.667 54.3719C184.165 54.3719 184.499 54.0376 184.083 53.7848C185.25 53.1976 183.831 53.3689 184.246 53.1161C184.915 52.7817 185.25 51.534 185.331 50.7838C185.331 50.6207 185.413 50.531 185.584 50.531C186.081 51.8684 186.081 53.6135 186.921 54.8694V55.2853C186.84 55.6196 186.921 56.0355 187.084 56.2883C187.835 56.3699 187.753 56.2068 187.582 55.2853C187.419 55.2853 187.084 55.2037 186.913 55.2853V54.8694C186.995 54.7878 187.329 54.8694 187.411 54.7878C187.158 54.3719 187.158 54.0376 187.158 53.6217C187.158 53.3689 187.321 52.8714 187.492 53.956C187.745 54.0376 188.161 52.0396 188.242 51.3709C186.66 51.7053 188.242 49.8704 187.076 49.7889L187.663 48.7858C187.663 48.4515 187.411 48.1987 186.995 48.3699L186.66 47.954C186.408 47.8725 186.163 47.4566 185.829 47.2037C185.576 47.4566 185.16 47.954 185.078 48.2884C184.997 48.3699 185.241 48.4515 185.331 48.3699C185.584 48.1171 185.747 48.6227 186.163 48.533C186.326 48.3699 186.832 48.2802 186.66 47.9458L186.995 48.3618C186.66 48.5248 186.66 49.112 186.66 49.5279C186.073 50.6125 186.326 48.9408 185.657 48.9408C185.241 49.1936 185.07 48.5248 184.825 48.6064L184.491 48.6879C184.491 48.1008 184.573 47.4402 184.491 46.7715C184.989 43.9336 185.576 44.0233 185.657 43.1834C185.657 42.849 186.905 42.1803 186.823 41.846C186.905 41.846 187.076 42.0988 187.076 42.1803C186.995 42.5962 186.163 42.5962 186.244 43.5177C186.742 42.6044 188.161 42.6859 188.242 41.6013C187.99 40.9326 188.577 41.3485 188.577 40.688C188.414 40.5249 187.908 40.0193 187.826 39.7746C187.745 39.6931 188.079 39.1874 186.913 39.1874C186.832 39.269 186.75 39.7746 186.579 40.0193C186.497 40.1008 186.326 40.2721 186.416 40.3536C186.416 40.4352 186.579 40.5167 186.579 40.8511C186.497 41.1854 186.579 41.3485 186.742 41.5198C187.411 41.8541 187.908 41.5198 187.158 41.9357C187.158 42.0172 187.158 42.0988 187.076 42.1885C187.076 42.1069 186.823 41.7726 186.742 41.691C186.66 41.691 186.244 41.4382 186.326 41.1039C186.391 40.7858 186.391 40.6227 186.228 40.4515Z" fill="#010202"/>
<path fill-rule="evenodd" clip-rule="evenodd" d="M163.802 37.2874C163.884 37.8745 163.549 38.2904 163.549 38.8694C164.136 40.2884 163.549 41.373 163.712 42.7022C163.044 42.2863 162.881 41.2017 162.628 40.0356C162.465 39.0325 162.709 38.6982 162.791 37.6217L163.802 37.2874Z" fill="#010202"/>
<path fill-rule="evenodd" clip-rule="evenodd" d="M162.049 37.7032C161.967 39.4565 161.714 40.2884 162.962 43.0366C159.798 44.374 157.213 45.2873 153.462 46.3719C153.877 43.7053 156.463 38.6166 158.632 37.1976C160.467 37.7032 162.049 37.7032 162.049 37.7032Z" fill="#010202"/>
<path fill-rule="evenodd" clip-rule="evenodd" d="M153.877 57.2914C153.046 57.5442 153.046 58.0416 153.543 58.5391C153.877 58.7919 154.212 59.2078 154.212 59.2893H148.878C148.878 59.5421 149.131 59.7052 149.294 60.1211H178.807C178.97 59.7052 178.473 59.2078 178.31 58.7022C176.222 57.9519 176.222 56.0355 176.14 53.8663C176.14 53.7847 175.977 53.5319 175.977 53.116C175.725 52.7817 174.314 49.3648 174.974 46.6166L175.472 45.7032C175.888 45.1161 175.39 44.7899 175.725 44.1211L181.898 42.955C181.979 42.8734 181.979 42.6206 181.816 42.5391C181.816 42.4575 181.898 42.5391 181.816 42.5391L175.814 43.6237C176.149 42.1232 174.811 41.6257 175.398 40.3699C176.23 41.2832 178.481 42.8734 179.647 43.1181L180.234 43.0365C178.734 42.3678 176.067 40.7858 174.567 38.6981C174.403 38.6981 174.232 38.535 174.069 38.4453C174.069 38.6084 174.485 39.114 174.403 39.1956C174.403 39.1956 173.4 39.8643 171.566 39.0325C170.978 40.1986 164.479 43.1181 164.479 43.1181C164.732 44.953 165.563 46.1191 166.477 47.1222C166.224 46.9591 166.558 47.2853 166.477 47.1222C167.814 48.2068 169.396 48.7042 171.15 49.0386C171.484 50.0416 172.732 53.2873 172.813 53.7929C172.976 54.2904 173.229 54.2904 173.229 54.2904C173.392 54.4535 173.979 55.5381 173.979 55.954L174.142 57.7073C174.224 58.1232 174.73 57.7888 174.811 58.2047L174.558 59.2893H175.806C175.137 58.7022 175.553 57.7073 174.721 57.2914C174.64 56.2883 174.558 55.5381 174.134 55.1222C173.8 54.1191 172.715 51.4524 172.047 49.0386L172.463 48.4514C170.628 48.9489 169.209 48.2883 167.545 47.3668C166.297 46.7797 167.048 47.2853 167.464 47.0325C169.462 47.9458 170.465 47.7012 171.965 47.5299C172.128 47.7827 172.463 48.0274 172.463 48.4433L172.047 49.0304C172.463 48.6145 172.797 48.8673 173.05 50.0335C173.384 51.0365 173.718 51.7868 173.963 52.6186C174.297 53.4504 174.55 54.535 174.795 55.1222C174.795 55.1222 175.048 55.1222 175.211 55.4565C175.798 57.2914 175.961 57.5442 175.879 58.376C176.043 59.0447 176.964 58.4575 176.883 59.2893H154.954C155.288 57.9519 154.538 56.7858 154.954 55.5381C154.122 54.2007 152.034 53.2057 152.369 51.3709C153.372 49.9519 156.618 48.533 155.867 46.8694C158.868 45.3689 160.369 47.8724 163.117 47.6196C164.12 47.6196 165.205 47.4565 166.118 47.2037C164.952 46.2904 163.949 44.8714 163.37 43.6155C157.531 46.0294 151.863 47.954 145.608 49.2017L145.111 49.0386C144.524 49.1201 135.023 51.2893 135.358 51.7052C131.769 51.958 127.602 53.4585 126.689 53.956C126.273 54.2088 126.191 54.3719 126.689 54.5432C130.522 55.5462 133.694 54.796 139.614 52.5452L139.199 52.2108C138.864 52.4636 134.028 54.1273 132.112 54.3801C130.114 54.6329 128.361 54.5432 127.529 54.2985C127.276 54.217 127.276 54.217 127.447 54.1354C131.199 52.6349 138.448 51.2975 139.451 52.5534C140.039 52.7165 140.454 53.0508 140.789 53.4667C141.123 53.8826 141.792 53.7195 142.289 53.6298C142.958 53.4667 143.04 52.8796 143.04 52.2924L142.289 52.2108C141.955 52.2108 140.626 52.3739 140.454 52.5452C139.957 52.1293 139.451 51.7134 138.791 51.5421C140.128 50.955 142.289 50.4575 143.464 50.376C142.379 51.1262 142.876 52.0396 142.297 52.2108L143.048 52.2924C143.048 51.958 143.048 51.7052 143.211 51.5421C143.961 49.7073 147.125 49.4545 148.715 49.0386C148.715 49.0386 147.884 50.1232 147.296 50.376C147.133 52.9611 146.212 55.2119 146.049 57.797C146.799 57.797 146.799 58.6288 146.962 59.1344C146.709 59.5503 146.375 59.1344 146.049 59.2159C144.883 58.6288 146.302 57.6339 145.38 56.8021C145.877 54.7144 146.628 52.6349 146.628 50.4657C146.293 50.4657 146.212 50.8 146.041 51.0528C145.788 53.1405 145.209 55.0569 144.703 56.9733C144.866 57.1364 145.29 57.3077 145.29 57.642C144.622 58.0579 145.29 58.8082 145.037 59.3056H137.453L136.703 60.1374H148.21L148.291 59.7215C146.628 57.8867 147.207 55.22 148.039 53.2221L150.036 50.5554C151.7 49.8867 152.703 47.8887 154.456 47.22C154.456 48.1334 153.372 48.4677 152.793 48.9733C152.124 50.3923 150.208 50.5554 149.955 52.1375C150.705 52.9693 151.79 53.5564 152.703 54.3067C153.616 54.8938 153.372 56.1415 154.041 56.7205C154.212 56.8755 154.041 57.2098 153.877 57.2914Z" fill="#010202"/>
<path fill-rule="evenodd" clip-rule="evenodd" d="M166.632 27.1997C166.297 27.6971 165.629 28.0315 166.045 28.953C165.213 29.4504 165.457 30.2007 165.71 30.6166C165.294 31.0325 165.042 31.8643 165.629 32.3699C164.96 33.1202 165.792 33.7889 166.045 34.0335C165.71 34.7838 166.045 35.3709 166.045 35.3709C165.963 35.8684 165.042 36.7083 164.707 36.953C164.21 38.2007 164.373 40.7858 164.454 42.5391C166.787 41.3729 169.127 40.2883 170.954 38.7063C169.372 37.6217 168.116 35.0366 166.371 35.2078C166.208 33.373 165.457 30.1191 168.034 26.7838C168.369 26.6207 168.866 26.531 169.119 26.3679C168.034 26.2048 166.615 26.8653 165.621 26.2863C165.629 26.2782 166.134 27.11 166.632 27.1997Z" fill="#010202"/>
<path fill-rule="evenodd" clip-rule="evenodd" d="M172.218 26.3597C172.218 26.4413 172.552 26.6125 172.552 26.6125C172.552 26.6125 172.887 26.531 172.887 26.4494C172.887 26.3679 172.968 26.1151 172.887 26.0335C172.805 26.0335 172.552 25.952 172.389 25.952C172.389 25.9438 172.218 26.2782 172.218 26.3597L172.055 26.5228L170.889 25.691L171.052 25.5279C171.052 25.5279 171.549 25.0305 171.802 25.0305C172.055 24.9489 173.384 25.0305 173.718 25.2833C173.971 25.5361 174.134 25.6992 174.469 26.2863C175.382 26.955 176.883 26.955 177.804 27.7053C177.641 27.9581 178.057 28.374 177.723 28.5371C177.47 28.6186 176.891 28.4555 176.809 28.6186L176.728 29.1161L176.393 29.0345C176.393 29.0345 176.556 28.4474 176.393 28.4474C176.23 28.3658 175.896 28.1946 175.725 28.2843C175.643 28.3658 175.725 28.4474 175.806 28.6186C175.806 28.7817 176.222 28.8714 176.475 28.7817L176.809 28.8633L177.225 28.9448C177.062 29.3607 176.972 29.532 176.393 29.3607C176.23 29.7766 177.144 30.111 177.225 30.2741C177.144 30.4372 176.972 30.6084 176.393 30.2741C176.393 30.2741 173.979 32.6064 172.56 33.2751C171.06 33.9438 172.479 32.9407 172.479 32.9407C173.148 32.6879 176.067 30.1925 176.067 29.9397C175.986 29.7766 175.814 29.4423 175.814 29.1895C175.398 29.0264 174.567 29.271 174.232 29.5238C174.395 30.2741 175.733 34.0253 174.73 39.693L174.567 39.5299C175.48 34.0253 173.979 29.6054 173.979 29.6054C173.148 29.9397 172.56 29.6869 172.145 29.7685C171.981 33.1854 174.73 33.6828 173.727 38.1925C170.807 37.6951 168.728 34.1069 167.056 34.4413C166.974 33.8541 166.387 32.8592 166.974 32.5248C166.811 32.0274 166.64 31.3587 167.39 30.9428C167.137 30.2741 167.056 29.6951 167.806 29.1895C167.643 28.7736 167.725 27.8521 168.638 27.689C168.72 26.9387 169.054 26.3516 169.723 26.1069C168.972 25.7726 168.809 25.0223 168.809 25.0223C169.478 25.4382 170.057 25.691 171.06 25.5198L172.218 26.3597Z" fill="#010202"/>
<path fill-rule="evenodd" clip-rule="evenodd" d="M143.871 88.7205L143.79 84.0477C143.79 82.6287 142.876 81.1282 141.621 80.2964C141.368 80.2149 140.952 80.0436 140.618 80.0436C140.952 80.0436 141.368 80.0436 141.784 79.8805C143.031 79.2934 144.532 77.7113 144.532 74.9631C144.532 72.8754 143.7 71.2934 142.2 70.2088C140.781 69.2057 139.199 68.9611 137.535 68.9611H124.699V72.2964H127.619V88.7205H124.699V91.9743H133.873V88.7205H130.954V81.4707H137.29C139.46 81.5523 140.291 82.9712 140.291 84.1374L140.544 91.9743H146.799V88.7205H143.871ZM137.951 78.3066H130.946V72.2964C130.946 72.2964 135.945 72.2964 137.535 72.2964C138.285 72.2964 139.117 72.2964 139.786 72.5492C140.618 72.9651 141.368 73.8866 141.368 75.2974C141.368 77.0508 139.786 78.3066 137.951 78.3066Z" fill="#010202"/>
<path fill-rule="evenodd" clip-rule="evenodd" d="M123.533 100.146C126.534 100.146 127.871 101.809 127.871 103.897C127.871 105.984 126.452 107.566 123.288 107.566H121.119V113.316H119.203V100.146H123.533ZM121.111 105.895H123.443C124.862 105.895 125.857 105.144 125.857 103.807C125.857 102.804 125.27 101.809 123.525 101.809H121.111V105.895Z" fill="#010202"/>
<path fill-rule="evenodd" clip-rule="evenodd" d="M142.787 113.316H140.699L139.036 109.401H133.286L131.704 113.316H129.617L135.456 100.064H136.793L142.787 113.316ZM134.037 107.648H138.285L136.035 102.478L134.037 107.648Z" fill="#010202"/>
<path fill-rule="evenodd" clip-rule="evenodd" d="M164.715 113.316H162.799V100.146H164.715V113.316Z" fill="#010202"/>
<path fill-rule="evenodd" clip-rule="evenodd" d="M178.473 102.983C177.225 101.98 176.059 101.646 175.056 101.646C173.808 101.646 172.805 102.233 172.805 103.147C172.805 105.732 178.978 105.65 178.978 109.899C178.978 111.897 177.315 113.397 174.974 113.397C173.474 113.397 172.136 113.063 170.97 112.231V109.817C172.055 111.065 173.384 111.734 174.803 111.734C176.385 111.734 177.135 110.82 177.135 110.07C177.135 107.403 170.88 107.069 170.88 103.481C170.88 101.312 172.634 99.9824 175.219 99.9824C176.385 99.9824 177.388 100.235 178.473 100.896V102.983Z" fill="#010202"/>
<path fill-rule="evenodd" clip-rule="evenodd" d="M156.626 111.734C156.373 111.399 156.128 111.065 155.875 110.649C154.872 108.986 154.041 107.811 152.793 107.061C154.293 106.474 155.125 105.308 155.125 103.807C155.125 101.556 153.372 100.137 150.542 100.137H147.125V113.308H149.123V107.558H149.955C150.958 107.558 151.79 107.893 153.543 110.559L155.378 113.308H157.629L156.626 111.734ZM150.379 105.895H149.131V101.728H150.379C152.295 101.728 153.046 102.478 153.046 103.726C153.127 104.818 152.54 105.895 150.379 105.895Z" fill="#010202"/>
</svg>
