<svg width="300" height="150" viewBox="0 0 300 150" fill="none" xmlns="http://www.w3.org/2000/svg">
<path d="M177.087 79.1128C168.338 79.1128 163.298 72.9452 163.298 64.3931C163.298 59.2298 166.403 50 177.21 50C182.09 50 183.378 51.8977 185.072 51.8977C185.713 51.8977 186.163 51.5773 186.28 50.3635H187.007L187.327 58.9526H186.477C185.386 54.0357 181.8 51.6143 177.567 51.6143C175.349 51.6143 173.291 52.3783 171.683 54.0357C169.625 56.1306 168.338 59.5995 168.338 64.3993C168.338 71.8608 171.646 77.1842 178.017 77.1842C182.293 77.1842 184.955 75.4898 187.05 72.1811L187.777 72.5878C185.633 76.7344 182.084 79.1128 177.087 79.1128ZM160.352 54.3561L151.357 78.7123H150.63L144.259 60.4005L136.637 78.7123H135.91L127.161 53.3888C126.637 51.8977 125.99 51.1337 123.938 51.0105V50.2834H134.425V51.0105C132.367 51.1337 131.807 51.8176 131.807 52.7418C131.807 53.2286 132.09 54.1158 132.373 54.8799L137.857 70.8071L143.304 57.5416L141.77 53.0253C141.283 51.6513 140.519 51.1275 138.707 51.0105V50.2834H149.151V51.0105C146.729 51.0536 146.446 51.8546 146.446 52.5015C146.446 52.9452 146.606 53.6291 146.89 54.3993L152.373 70.2465L157.574 56.0937C158.258 54.2391 158.461 53.1115 158.461 52.6679C158.461 51.5773 157.611 51.1337 155.596 51.0166V50.2834H164.591V51.0105C162.447 51.1275 161.32 51.7745 160.352 54.3561ZM111.677 78.5089V77.7819C113.852 77.6648 114.863 77.1781 114.863 75.3666V53.4258C114.863 51.6081 113.852 51.0844 111.88 51.0043V50.2834H122.041V51.0105C120.106 51.0906 119.095 51.6143 119.095 53.4319V75.3666C119.095 77.1842 120.106 77.6648 122.281 77.7819V78.5089H111.677Z" fill="#010202"/>
<path d="M87.5613 99.9754C89.3543 99.9754 90.6112 99.0265 90.6112 97.4246V97.3999C90.6112 95.9828 89.687 95.3358 87.8755 94.8984C86.2304 94.5102 85.8361 94.2145 85.8361 93.5552V93.5305C85.8361 92.9699 86.3475 92.5201 87.2286 92.5201C88.0111 92.5201 88.7813 92.8281 89.5453 93.4012L90.3524 92.2674C89.4837 91.5712 88.4978 91.1954 87.2532 91.1954C85.5588 91.1954 84.3389 92.2058 84.3389 93.6723V93.6969C84.3389 95.2681 85.3617 95.8103 87.1793 96.2477C88.7628 96.6113 89.1078 96.944 89.1078 97.554V97.5786C89.1078 98.2132 88.5225 98.6507 87.5921 98.6507C86.5447 98.6507 85.7129 98.2502 84.8934 97.5416L84 98.6137C85.0228 99.5256 86.2551 99.9754 87.5613 99.9754ZM98.5471 100C100.143 100 101.123 99.4147 102.01 98.4843L101.049 97.5108C100.315 98.1947 99.6439 98.6076 98.5964 98.6076C96.9636 98.6076 95.7745 97.252 95.7745 95.5823V95.5577C95.7745 93.8879 96.9698 92.5447 98.5964 92.5447C99.5699 92.5447 100.303 92.9698 100.987 93.6045L101.948 92.4954C101.129 91.7129 100.18 91.1646 98.6026 91.1646C96.0148 91.1646 94.1972 93.1547 94.1972 95.5823V95.6069C94.2033 98.0654 96.0579 100 98.5471 100ZM106.12 99.8583H107.623V96.2601H111.702V99.8583H113.205V91.3124H111.702V94.8614H107.623V91.3124H106.12V99.8583ZM117.216 99.8583H118.757L119.638 97.7943H123.673L124.542 99.8583H126.126L122.367 91.257H120.969L117.216 99.8583ZM120.18 96.4634L121.646 93.05L123.125 96.4634H120.18ZM130.063 99.8583H131.566V96.3833H135.873V95.0154H131.566V92.6864H136.421V91.3186H130.063V99.8583ZM140.753 99.8583H142.256V96.3833H146.563V95.0154H142.256V92.6864H147.112V91.3186H140.753V99.8583ZM151.246 99.8583H152.749V96.2601H156.828V99.8583H158.325V91.3124H156.828V94.8614H152.749V91.3124H151.246V99.8583ZM162.663 99.8583H164.203L165.084 97.7943H169.12L169.989 99.8583H171.572L167.814 91.257H166.421L162.663 99.8583ZM165.633 96.4634L167.099 93.05L168.572 96.4634H165.633ZM178.368 99.9877C180.599 99.9877 182.041 98.7061 182.041 96.1553V91.3124H180.543V96.2292C180.543 97.8004 179.724 98.5952 178.393 98.5952C177.05 98.5952 176.23 97.7511 176.23 96.1676V91.3124H174.727V96.2292C174.733 98.7123 176.15 99.9877 178.368 99.9877ZM189.533 99.9754C191.326 99.9754 192.583 99.0265 192.583 97.4246V97.3999C192.583 95.9828 191.659 95.3358 189.847 94.8984C188.202 94.5102 187.808 94.2145 187.808 93.5552V93.5305C187.808 92.9699 188.319 92.5201 189.2 92.5201C189.983 92.5201 190.753 92.8281 191.517 93.4012L192.324 92.2674C191.455 91.5712 190.47 91.1954 189.225 91.1954C187.531 91.1954 186.311 92.2058 186.311 93.6723V93.6969C186.311 95.2681 187.333 95.8103 189.151 96.2477C190.734 96.6113 191.079 96.944 191.079 97.554V97.5786C191.079 98.2132 190.494 98.6507 189.564 98.6507C188.516 98.6507 187.685 98.2502 186.865 97.5416L185.959 98.6137C186.994 99.5256 188.227 99.9754 189.533 99.9754ZM196.89 99.8583H203.285V98.5151H198.393V96.2231H202.675V94.8799H198.393V92.6618H203.224V91.3186H196.89V99.8583ZM207.919 99.8583H209.397V93.7832L214.105 99.8583H215.362V91.3124H213.883V97.2151L209.305 91.3124H207.913V99.8583H207.919Z" fill="#010202"/>
</svg>
