<svg width="212" height="68" viewBox="0 0 212 88" fill="none" xmlns="http://www.w3.org/2000/svg">
<path d="M142.37 49.1503C130.567 49.1503 123.768 40.8306 123.768 29.2943C123.768 22.3293 127.958 9.87878 142.536 9.87878C149.118 9.87878 150.855 12.4387 153.141 12.4387C154.006 12.4387 154.612 12.0065 154.77 10.3692H155.751L156.183 21.9553H155.036C153.565 15.3227 148.728 12.0563 143.018 12.0563C140.026 12.0563 137.25 13.087 135.08 15.3227C132.304 18.1487 130.567 22.8279 130.567 29.3026C130.567 39.3678 135.031 46.5488 143.625 46.5488C149.393 46.5488 152.983 44.2632 155.809 39.7999L156.789 40.3485C153.898 45.9421 149.11 49.1503 142.37 49.1503ZM119.795 15.7549L107.66 48.6101H106.68L98.0863 23.9084L87.8047 48.6101H86.8239L75.0216 14.4501C74.3153 12.4387 73.4425 11.408 70.6754 11.2418V10.2611H84.8205V11.2418C82.0446 11.408 81.2887 12.3306 81.2887 13.5774C81.2887 14.234 81.671 15.4308 82.0534 16.4614L89.45 37.9465L96.7981 20.0519L94.7285 13.9597C94.0717 12.1062 93.0414 11.3998 90.5972 11.2418V10.2611H104.685V11.2418C101.419 11.3 101.036 12.3805 101.036 13.2532C101.036 13.8517 101.252 14.7742 101.635 15.8131L109.032 37.1902L116.048 18.0988C116.97 15.597 117.244 14.076 117.244 13.4777C117.244 12.0065 116.097 11.408 113.379 11.2501V10.2611H125.514V11.2418C122.621 11.3998 121.1 12.2724 119.795 15.7549ZM54.1356 48.3358V47.355C57.0691 47.1971 58.4323 46.5406 58.4323 44.097V14.4999C58.4323 12.0481 57.0691 11.3416 54.4089 11.2336V10.2611H68.1155V11.2418C65.5048 11.3498 64.1417 12.0563 64.1417 14.5082V44.097C64.1417 46.5488 65.5048 47.1971 68.4394 47.355V48.3358H54.1356Z" fill="#010202"/>
<path d="M21.6041 77.2921C24.0226 77.2921 25.7181 76.0127 25.7181 73.8517V73.8186C25.7181 71.9066 24.4714 71.034 22.0279 70.4439C19.8087 69.9202 19.2768 69.5213 19.2768 68.632V68.5987C19.2768 67.8424 19.9666 67.2356 21.1552 67.2356C22.2107 67.2356 23.2497 67.6512 24.2802 68.4241L25.3691 66.8949C24.1972 65.9557 22.8674 65.4486 21.1884 65.4486C18.9028 65.4486 17.2572 66.8117 17.2572 68.7899V68.8232C17.2572 70.9425 18.6368 71.6741 21.0887 72.2637C23.2248 72.7541 23.6901 73.2037 23.6901 74.0258V74.0588C23.6901 74.9151 22.9006 75.5057 21.6456 75.5057C20.2326 75.5057 19.1106 74.9658 18.0052 74.0092L16.8 75.4562C18.1797 76.686 19.842 77.2921 21.6041 77.2921ZM36.4233 77.3262C38.576 77.3262 39.8975 76.5361 41.0943 75.2809L39.7978 73.9674C38.8087 74.8908 37.9027 75.4473 36.4899 75.4473C34.2873 75.4473 32.6831 73.6191 32.6831 71.3664V71.3332C32.6831 69.0808 34.2956 67.2689 36.4899 67.2689C37.803 67.2689 38.7921 67.8424 39.7146 68.6984L41.0112 67.2024C39.9058 66.1469 38.6258 65.4071 36.4981 65.4071C33.0073 65.4071 30.5554 68.0917 30.5554 71.3664V71.3996C30.5638 74.7156 33.0655 77.3262 36.4233 77.3262ZM46.6381 77.1345H48.6661V72.2802H54.1685V77.1345H56.1962V65.6066H54.1685V70.3939H48.6661V65.6066H46.6381V77.1345ZM61.607 77.1345H63.6853L64.8733 74.3498H70.3171L71.4896 77.1345H73.6253L68.555 65.5317H66.6684L61.607 77.1345ZM65.605 72.5546L67.5831 67.9504L69.5777 72.5546H65.605ZM78.9369 77.1345H80.9645V72.4466H86.7742V70.6018H80.9645V67.46H87.5136V65.6149H78.9369V77.1345ZM93.3564 77.1345H95.3852V72.4466H101.195V70.6018H95.3852V67.46H101.934V65.6149H93.3564V77.1345ZM107.511 77.1345H109.539V72.2802H115.041V77.1345H117.061V65.6066H115.041V70.3939H109.539V65.6066H107.511V77.1345ZM122.912 77.1345H124.99L126.178 74.3498H131.623L132.794 77.1345H134.93L129.861 65.5317H127.982L122.912 77.1345ZM126.919 72.5546L128.897 67.9504L130.882 72.5546H126.919ZM144.099 77.3086C147.107 77.3086 149.052 75.5807 149.052 72.1392V65.6066H147.032V72.2394C147.032 74.3586 145.927 75.4308 144.132 75.4308C142.319 75.4308 141.214 74.2924 141.214 72.1557V65.6066H139.186V72.2394C139.195 75.5884 141.106 77.3086 144.099 77.3086ZM159.158 77.2921C161.577 77.2921 163.272 76.0127 163.272 73.8517V73.8186C163.272 71.9066 162.026 71.034 159.583 70.4439C157.363 69.9202 156.831 69.5213 156.831 68.632V68.5987C156.831 67.8424 157.521 67.2356 158.71 67.2356C159.766 67.2356 160.804 67.6512 161.835 68.4241L162.924 66.8949C161.751 65.9557 160.421 65.4486 158.743 65.4486C156.457 65.4486 154.811 66.8117 154.811 68.7899V68.8232C154.811 70.9425 156.191 71.6741 158.643 72.2637C160.779 72.7541 161.244 73.2037 161.244 74.0258V74.0588C161.244 74.9151 160.455 75.5057 159.2 75.5057C157.788 75.5057 156.665 74.9658 155.559 74.0092L154.338 75.4562C155.735 76.686 157.396 77.2921 159.158 77.2921ZM169.082 77.1345H177.709V75.3228H171.111V72.2306H176.887V70.419H171.111V67.4268H177.627V65.6149H169.082V77.1345ZM183.96 77.1345H185.954V68.9394L192.304 77.1345H194V65.6066H192.005V73.5684L185.83 65.6066H183.951V77.1345H183.96Z" fill="#010202"/>
</svg>
