<svg width="300" height="150" viewBox="0 0 300 150" fill="none" xmlns="http://www.w3.org/2000/svg">
<path d="M183.148 79.6094C172.438 79.6094 166.268 72.0596 166.268 61.591C166.268 55.2706 170.07 43.9724 183.299 43.9724C189.272 43.9724 190.848 46.2954 192.922 46.2954C193.707 46.2954 194.257 45.9032 194.401 44.4174H195.291L195.683 54.9312H194.642C193.307 48.9126 188.918 45.9485 183.736 45.9485C181.021 45.9485 178.502 46.8837 176.533 48.9126C174.014 51.4769 172.438 55.7232 172.438 61.5986C172.438 70.7322 176.488 77.2487 184.287 77.2487C189.521 77.2487 192.779 75.1746 195.343 71.1244L196.233 71.6222C193.609 76.6981 189.264 79.6094 183.148 79.6094ZM162.663 49.3048L151.651 79.1191H150.761L142.963 56.7037L133.633 79.1191H132.743L122.033 48.1206C121.392 46.2954 120.6 45.3602 118.089 45.2093V44.3194H130.925V45.2093C128.406 45.3602 127.72 46.1974 127.72 47.3287C127.72 47.9245 128.067 49.0106 128.414 49.9458L135.126 69.4425L141.794 53.2041L139.916 47.6756C139.32 45.9937 138.385 45.3526 136.167 45.2093V44.3194H148.951V45.2093C145.987 45.2621 145.64 46.2426 145.64 47.0346C145.64 47.5776 145.836 48.4148 146.183 49.3576L152.896 68.7561L159.262 51.4317C160.099 49.1615 160.348 47.7812 160.348 47.2382C160.348 45.9032 159.307 45.3602 156.84 45.2169V44.3194H167.852V45.2093C165.227 45.3526 163.847 46.1446 162.663 49.3048ZM103.08 78.8702V77.9803C105.742 77.837 106.979 77.2411 106.979 75.0237V48.1659C106.979 45.9409 105.742 45.2998 103.328 45.2018V44.3194H115.766V45.2093C113.397 45.3074 112.16 45.9485 112.16 48.1734V75.0237C112.16 77.2487 113.397 77.837 116.06 77.9803V78.8702H103.08Z" fill="#010202"/>
<path d="M73.5594 105.147C75.7541 105.147 77.2927 103.986 77.2927 102.025V101.995C77.2927 100.26 76.1614 99.468 73.944 98.9325C71.9302 98.4574 71.4475 98.0953 71.4475 97.2883V97.2582C71.4475 96.5718 72.0735 96.0212 73.1521 96.0212C74.1099 96.0212 75.0527 96.3983 75.9879 97.0998L76.976 95.712C75.9125 94.8597 74.7058 94.3997 73.1822 94.3997C71.1081 94.3997 69.6148 95.6366 69.6148 97.4316V97.4618C69.6148 99.3851 70.8668 100.049 73.0917 100.584C75.0301 101.029 75.4524 101.437 75.4524 102.183V102.213C75.4524 102.99 74.7359 103.526 73.5971 103.526C72.3149 103.526 71.2967 103.035 70.2936 102.168L69.2 103.48C70.452 104.597 71.9604 105.147 73.5594 105.147ZM87.0071 105.177C88.9606 105.177 90.1598 104.461 91.2458 103.322L90.0693 102.13C89.1717 102.968 88.3496 103.473 87.0675 103.473C85.0688 103.473 83.6131 101.814 83.6131 99.7697V99.7395C83.6131 97.6956 85.0763 96.0514 87.0675 96.0514C88.2591 96.0514 89.1567 96.5718 89.9938 97.3487L91.1704 95.9911C90.1673 95.0332 89.0058 94.3619 87.075 94.3619C83.9073 94.3619 81.6823 96.7981 81.6823 99.7697V99.7999C81.6899 102.809 83.9601 105.177 87.0071 105.177ZM96.2765 105.004H98.1168V100.599H103.11V105.004H104.95V94.543H103.11V98.8873H98.1168V94.543H96.2765V105.004ZM109.86 105.004H111.746L112.824 102.477H117.764L118.828 105.004H120.766L116.165 94.4751H114.453L109.86 105.004ZM113.488 100.848L115.283 96.6699L117.093 100.848H113.488ZM125.586 105.004H127.426V100.75H132.698V99.0758H127.426V96.2249H133.369V94.5505H125.586V105.004ZM138.671 105.004H140.512V100.75H145.784V99.0758H140.512V96.2249H146.455V94.5505H138.671V105.004ZM151.516 105.004H153.356V100.599H158.349V105.004H160.182V94.543H158.349V98.8873H153.356V94.543H151.516V105.004ZM165.491 105.004H167.377L168.455 102.477H173.396L174.459 105.004H176.397L171.797 94.4751H170.092L165.491 105.004ZM169.127 100.848L170.922 96.6699L172.724 100.848H169.127ZM184.717 105.162C187.447 105.162 189.212 103.594 189.212 100.471V94.543H187.379V100.562C187.379 102.485 186.376 103.458 184.747 103.458C183.102 103.458 182.099 102.425 182.099 100.486V94.543H180.259V100.562C180.267 103.601 182.001 105.162 184.717 105.162ZM198.383 105.147C200.578 105.147 202.116 103.986 202.116 102.025V101.995C202.116 100.26 200.985 99.468 198.768 98.9325C196.754 98.4574 196.271 98.0953 196.271 97.2883V97.2582C196.271 96.5718 196.897 96.0212 197.976 96.0212C198.934 96.0212 199.876 96.3983 200.812 97.0998L201.8 95.712C200.736 94.8597 199.529 94.3997 198.006 94.3997C195.932 94.3997 194.438 95.6366 194.438 97.4316V97.4618C194.438 99.3851 195.69 100.049 197.915 100.584C199.854 101.029 200.276 101.437 200.276 102.183V102.213C200.276 102.99 199.56 103.526 198.421 103.526C197.139 103.526 196.12 103.035 195.117 102.168L194.009 103.48C195.276 104.597 196.784 105.147 198.383 105.147ZM207.388 105.004H215.217V103.36H209.229V100.554H214.471V98.9099H209.229V96.1947H215.142V94.5505H207.388V105.004ZM220.889 105.004H222.699V97.5674L228.461 105.004H230V94.543H228.19V101.768L222.586 94.543H220.881V105.004H220.889Z" fill="#010202"/>
</svg>
