<svg width="212" height="88" viewBox="0 0 212 88" fill="none" xmlns="http://www.w3.org/2000/svg">
<path d="M123.421 33.763C119.404 35.4975 115.082 36.6687 110.561 37.1727V22.8077H115.965L112.622 17.9008H106.788L105.513 19.776L104.238 17.9008H98.4048L95.07 22.8077H100.473V37.1727C95.9516 36.6687 91.6301 35.4975 87.6128 33.763L83.6619 39.5668C85.389 40.3673 87.1682 41.0789 88.9986 41.6867L90.5114 39.4853C95.0918 40.9455 99.9622 41.746 105.017 41.7905V41.7979C105.21 41.7979 105.395 41.7979 105.588 41.7979C110.799 41.7979 115.824 40.99 120.539 39.4853L122.051 41.6867C123.873 41.0789 125.653 40.3673 127.387 39.5668L123.421 33.763ZM105.01 40.7676C99.7983 40.7157 94.7809 39.8337 90.0887 38.2548L88.5986 40.4415C87.4497 40.0338 86.316 39.5891 85.2041 39.1073L87.9834 35.0231C92.2083 36.765 96.745 37.8917 101.496 38.3067V21.7848H97.0114L98.9612 18.9163H103.698L105.017 20.8583V40.7676H105.01ZM120.939 38.2623C116.246 39.8411 111.228 40.7231 106.018 40.775V20.8657L107.337 18.9163H112.074L114.023 21.7848H109.538V38.3141C114.282 37.9065 118.826 36.7724 123.051 35.0305L125.831 39.1147C124.719 39.5965 123.584 40.0413 122.435 40.4489L120.939 38.2623Z" fill="#010202"/>
<path d="M52.753 57.2448C52.753 56.8964 52.4713 56.6073 52.1081 56.5555L51.6041 56.4591C51.4558 56.4369 51.3447 56.3257 51.3447 56.1848V55.8142C51.3447 55.6956 51.4411 55.6067 51.567 55.6067H56.5926C56.7186 55.6067 56.8149 55.703 56.8149 55.8142V56.1848C56.8149 56.3257 56.6963 56.4443 56.5555 56.4591L56.1923 56.511C55.8291 56.5629 55.5548 56.852 55.5548 57.2003V58.8458C55.5548 59.1127 55.3918 59.3203 55.1694 59.4536C52.3675 61.2029 50.3366 60.9954 50.3366 60.9954C47.0011 60.9954 44.2957 58.2751 44.2957 54.9248C44.2957 51.5745 47.0011 48.8541 50.3366 48.8541C51.2854 48.8541 52.1822 49.0765 52.9754 49.4619C52.9754 49.4619 53.4424 49.7955 53.6796 49.1802C53.7166 49.0691 53.8352 48.9875 53.9687 48.9875H54.2577C54.3912 48.9875 54.5023 49.0691 54.5468 49.1802L55.3473 51.7894C55.3547 51.8116 55.3621 51.8413 55.3547 51.8709C55.3473 51.9525 55.2806 52.0265 55.1991 52.0488L54.406 52.1971C54.3689 52.2044 54.3244 52.2118 54.2874 52.2045C54.1614 52.1897 54.0798 52.0933 54.0279 52.0117L53.8723 51.7078C52.6567 49.3063 50.1958 49.6176 50.1958 49.6176C48.0611 49.662 47.3347 51.7226 47.4236 54.858C47.5125 58.023 48.313 60.0244 50.4478 59.9799C50.4478 59.9799 51.7153 60.0244 52.6048 59.1127C52.7011 59.0164 52.7456 58.8532 52.7456 58.7791V57.2448H52.753Z" fill="#010202"/>
<path d="M61.0103 48.9731H66.9624C67.2885 48.9731 67.5625 49.2177 67.6667 49.4772L68.2592 51.0486C68.2743 51.0708 68.2743 51.1005 68.2743 51.1301C68.2743 51.2413 68.1777 51.3376 68.0516 51.3376H67.4885C67.3624 51.3376 67.2734 51.2561 67.207 51.1672L66.9179 50.7743C66.3548 49.9516 65.532 49.996 65.532 49.996H62.4779C62.2111 49.996 62.0036 50.1888 62.0036 50.4333V52.3013C62.0036 52.5459 62.2259 52.746 62.4928 52.746H63.2044C63.6712 52.746 63.9452 52.5237 64.0267 52.2272L64.1974 51.7157C64.2343 51.6045 64.3528 51.523 64.4865 51.523H64.8722C65.0059 51.523 65.1168 51.6045 65.1613 51.7157L66.1615 54.7992C66.169 54.8214 66.1766 54.8511 66.169 54.8808C66.1615 54.9623 66.0951 55.0364 66.0135 55.0586L65.5614 55.1624C65.5244 55.1698 65.4799 55.1772 65.4429 55.1698C65.3168 55.155 65.2353 55.0586 65.1832 54.9771L64.8722 54.4137C64.8722 54.4137 64.568 53.8505 63.8124 53.8505H62.4928C62.2259 53.8505 62.011 54.0506 62.011 54.2951V59.38C62.011 59.6246 62.2259 59.8173 62.4854 59.8173H65.9102C65.9102 59.8173 66.7994 59.8395 67.3406 59.0983L67.7331 58.5646C67.8003 58.4756 67.8886 58.3941 68.0146 58.3941H68.5786C68.7046 58.3941 68.8004 58.4831 68.8004 58.6017C68.8004 58.6314 68.7929 58.6536 68.7861 58.6832L68.0449 60.4844C67.9331 60.7512 67.6591 60.9291 67.3406 60.9291H57.8972C57.7711 60.9291 57.6748 60.8328 57.6748 60.7141V60.1953C57.6748 60.0545 57.7934 59.9359 57.9342 59.921L58.631 59.8247C58.9942 59.7729 59.2758 59.4837 59.2758 59.1354V50.804C59.2758 50.4556 58.9942 50.1665 58.631 50.1146L57.9342 50.0183C57.786 49.996 57.6748 49.8849 57.6748 49.744V49.2252C57.6748 49.1065 57.7711 48.9805 57.8972 48.9805H61.0103V48.9731Z" fill="#010202"/>
<path d="M32.6067 60.9143C32.4807 60.9143 32.3843 60.818 32.3843 60.6994V60.1805C32.3843 60.0397 32.5029 59.9211 32.6437 59.9063L33.3404 59.8099C33.7037 59.758 33.9853 59.4689 33.9853 59.1206V50.804C33.9853 50.4556 33.7037 50.1665 33.3404 50.1147L32.6437 50.0183C32.4955 49.9961 32.3843 49.8849 32.3843 49.744V49.2252C32.3843 49.1066 32.4807 48.9806 32.6067 48.9806H41.6645C41.9906 48.9806 42.2648 49.2252 42.3686 49.4846L42.9616 51.0561C42.9764 51.0782 42.9764 51.1079 42.9764 51.1376C42.9764 51.2488 42.8801 51.3451 42.754 51.3451H42.1907C42.0647 51.3451 41.9758 51.2636 41.909 51.1746L41.6199 50.7817C41.0567 49.959 40.2339 50.0035 40.2339 50.0035H37.18C36.9131 50.0035 36.6982 50.1962 36.6982 50.4408V52.3012C36.6982 52.5459 36.9206 52.746 37.1875 52.746H37.8916C38.3585 52.746 38.6328 52.5236 38.7144 52.2271L38.8848 51.7157C38.9219 51.6045 39.0405 51.523 39.1739 51.523H39.5593C39.6928 51.523 39.804 51.6045 39.8485 51.7157L40.8491 54.7992C40.8565 54.8215 40.864 54.8511 40.8565 54.8807C40.8491 54.9622 40.7823 55.0364 40.7008 55.0586L40.2487 55.1624C40.2116 55.1698 40.1671 55.1772 40.1301 55.1698C40.0041 55.155 39.9226 55.0586 39.8706 54.9771L39.5593 54.4138C39.5593 54.4138 39.2554 53.8504 38.4994 53.8504H37.18C36.9131 53.8504 36.6982 54.0431 36.6982 54.2952V59.38C36.6982 59.6246 36.9131 59.8173 37.18 59.8173H40.6045C40.6045 59.8173 41.4939 59.8395 42.035 59.0984L42.4279 58.5646C42.4946 58.4757 42.5836 58.3942 42.7096 58.3942H43.2729C43.3989 58.3942 43.4953 58.4831 43.4953 58.6017C43.4953 58.6313 43.4879 58.661 43.4804 58.6833L42.7392 60.477C42.628 60.7439 42.3538 60.9218 42.035 60.9218H32.6067V60.9143Z" fill="#010202"/>
<path d="M96.7594 50.7966C96.7594 50.4482 97.0418 50.1591 97.4049 50.1072L98.1016 50.0108C98.2495 49.9886 98.3604 49.8775 98.3604 49.7366V49.2177C98.3604 49.0991 98.2646 48.9731 98.1386 48.9731H92.653C92.527 48.9731 92.4312 49.0991 92.4312 49.2177V49.7366C92.4312 49.8775 92.5497 49.996 92.6909 50.0108L93.3876 50.1072C93.7506 50.1591 94.0322 50.4482 94.0322 50.7966V59.1205C94.0322 59.469 93.7506 59.758 93.3876 59.8099L92.6909 59.9062C92.5421 59.9285 92.4312 60.0397 92.4312 60.1805V60.6994C92.4312 60.8179 92.527 60.9143 92.653 60.9143H101.029C101.356 60.9143 101.63 60.729 101.733 60.4696L102.474 58.6684C102.49 58.6462 102.49 58.6165 102.49 58.5868C102.49 58.4756 102.393 58.3793 102.267 58.3793H101.704C101.578 58.3793 101.489 58.4609 101.422 58.5498L101.029 59.0834C100.488 59.8247 99.5984 59.8024 99.5984 59.8024H97.2343C96.967 59.8024 96.7527 59.6097 96.7527 59.3652V50.7966H96.7594Z" fill="#010202"/>
<path d="M106.329 48.9658H112.28C112.607 48.9658 112.881 49.2105 112.985 49.4699L113.578 51.0413C113.593 51.0636 113.593 51.0932 113.593 51.1228C113.593 51.234 113.497 51.3304 113.371 51.3304H112.807C112.681 51.3304 112.592 51.2489 112.525 51.1599L112.237 50.767C111.673 49.9443 110.85 49.9887 110.85 49.9887H107.797C107.529 49.9887 107.314 50.1815 107.314 50.4261V52.294C107.314 52.5386 107.537 52.7387 107.803 52.7387H108.508C108.975 52.7387 109.249 52.5163 109.331 52.2198L109.501 51.7084C109.538 51.5972 109.657 51.5157 109.79 51.5157H110.176C110.309 51.5157 110.421 51.5972 110.465 51.7084L111.465 54.7919C111.473 54.8142 111.48 54.8438 111.473 54.8734C111.465 54.9549 111.399 55.0291 111.317 55.0513L110.865 55.1551C110.828 55.1625 110.784 55.1699 110.747 55.1625C110.621 55.1477 110.539 55.0513 110.487 54.9698L110.176 54.4065C110.176 54.4065 109.872 53.8431 109.116 53.8431H107.797C107.529 53.8431 107.314 54.0432 107.314 54.2879V59.3727C107.314 59.6173 107.529 59.81 107.797 59.81H111.221C111.221 59.81 112.111 59.8323 112.651 59.091L113.044 58.5573C113.111 58.4684 113.2 58.3869 113.326 58.3869H113.889C114.015 58.3869 114.112 58.4758 114.112 58.5944C114.112 58.624 114.104 58.6463 114.097 58.6759L113.355 60.4771C113.252 60.744 112.97 60.9219 112.651 60.9219H103.216C103.089 60.9219 102.994 60.8255 102.994 60.7069V60.188C102.994 60.0472 103.112 59.9286 103.253 59.9138L103.949 59.8174C104.312 59.7655 104.595 59.4764 104.595 59.1281V50.7967C104.595 50.4484 104.312 50.1592 103.949 50.1074L103.253 50.011C103.105 49.9887 102.994 49.8776 102.994 49.7368V49.2179C102.994 49.0993 103.089 48.9733 103.216 48.9733H106.329V48.9658Z" fill="#010202"/>
<path d="M148.987 56.1186C148.987 56.1186 148.713 59.8099 151.937 59.8099C154.842 59.8099 154.842 56.504 154.842 56.504V50.8559C154.842 50.5075 154.709 50.2184 154.345 50.1665L153.797 50.0702C153.649 50.0479 153.538 49.9367 153.538 49.7959V49.277C153.538 49.1585 153.634 49.0325 153.761 49.0325H157.14C157.266 49.0325 157.363 49.1585 157.363 49.277V49.7959C157.363 49.9367 157.244 50.0554 157.103 50.0702L156.555 50.1665C156.192 50.2184 156.058 50.5075 156.058 50.8559V56.1112C156.08 56.7412 156.006 60.9069 151.492 60.9069C145.948 60.9069 146.244 56.1556 146.244 56.1556V50.7966C146.244 50.4482 145.992 50.1591 145.629 50.1072L144.933 50.0108C144.784 49.9886 144.673 49.8775 144.673 49.7366V49.2177C144.673 49.0991 144.77 48.9731 144.896 48.9731H150.084C150.21 48.9731 150.306 49.0991 150.306 49.2177V49.7366C150.306 49.8775 150.188 49.996 150.047 50.0108L149.498 50.1072C149.135 50.1591 149.002 50.4482 149.002 50.7966V56.1186H148.987Z" fill="#010202"/>
<path d="M162.751 50.7966C162.751 50.4482 163.033 50.1591 163.396 50.1072L164.093 50.0108C164.241 49.9886 164.352 49.8775 164.352 49.7366V49.2177C164.352 49.0991 164.256 48.9731 164.13 48.9731H158.645C158.519 48.9731 158.422 49.0991 158.422 49.2177V49.7366C158.422 49.8775 158.541 49.996 158.682 50.0108L159.379 50.1072C159.742 50.1591 160.023 50.4482 160.023 50.7966V59.1205C160.023 59.469 159.742 59.758 159.379 59.8099L158.682 59.9062C158.533 59.9285 158.422 60.0397 158.422 60.1805V60.6994C158.422 60.8179 158.519 60.9143 158.645 60.9143H167.021C167.347 60.9143 167.621 60.729 167.725 60.4696L168.466 58.6684C168.481 58.6462 168.481 58.6165 168.481 58.5868C168.481 58.4756 168.385 58.3793 168.259 58.3793H167.695C167.569 58.3793 167.481 58.4609 167.413 58.5498L167.021 59.0834C166.48 59.8247 165.59 59.8024 165.59 59.8024H163.225C162.959 59.8024 162.744 59.6097 162.744 59.3652V50.7966H162.751Z" fill="#010202"/>
<path d="M174.166 50.4037C174.166 50.1591 174.374 49.9664 174.648 49.9664H176.041C176.041 49.9664 176.931 50.0628 177.472 50.804L177.865 51.3376C177.931 51.4266 178.021 51.5082 178.147 51.5082H178.71C178.836 51.5082 178.932 51.4192 178.932 51.3006C178.932 51.271 178.925 51.2413 178.917 51.219L178.176 49.4179C178.065 49.1511 177.79 48.9731 177.472 48.9731H168.147C167.821 48.9731 167.547 49.1585 167.443 49.4179L166.702 51.219C166.687 51.2413 166.687 51.271 166.687 51.3006C166.687 51.4118 166.783 51.5082 166.909 51.5082H167.473C167.599 51.5082 167.687 51.4266 167.755 51.3376L168.147 50.804C168.688 50.0628 169.578 49.9664 169.578 49.9664H170.972C171.238 49.9664 171.446 50.1591 171.446 50.4037V59.0983C171.446 59.4467 171.164 59.7358 170.801 59.7877L170.104 59.884C169.956 59.9062 169.845 60.0174 169.845 60.1583V60.6771C169.845 60.7958 169.941 60.9217 170.067 60.9217H175.552C175.678 60.9217 175.775 60.7958 175.775 60.6771V60.1583C175.775 60.0174 175.656 59.8988 175.515 59.884L174.818 59.7877C174.455 59.7358 174.174 59.4467 174.174 59.0983V50.4037H174.166Z" fill="#010202"/>
<path d="M31.176 59.9062L30.9684 59.8321C30.9684 59.8321 30.3903 59.706 29.9975 58.7869L26.6915 49.4475C26.6915 49.4475 26.5508 48.9731 25.9577 48.9731H23.6451C23.0522 48.9731 22.9113 49.4475 22.9113 49.4475L19.2645 58.7869C18.8939 59.7728 18.1452 59.8395 18.1452 59.8395L17.8042 59.9062C17.6709 59.9359 17.5745 60.047 17.5745 60.1805V60.7141C17.5745 60.8253 17.6709 60.9217 17.7968 60.9217H21.4881C21.6142 60.9217 21.7179 60.8327 21.7179 60.7141V60.1731C21.7179 60.0396 21.629 59.9359 21.4956 59.9062L21.3918 59.8766C21.0435 59.8024 20.7914 59.5282 20.7914 59.1946C20.7914 59.1131 20.8062 59.0316 20.8359 58.9575L21.125 58.2162C21.125 58.2162 21.251 57.8826 21.7031 57.8826H26.2098C26.6619 57.8826 26.7879 58.2162 26.7879 58.2162L27.0474 58.9575C27.077 59.0316 27.0918 59.1057 27.0918 59.1946C27.0918 59.5282 26.8398 59.8024 26.5063 59.8766L26.4025 59.9062C26.269 59.9359 26.1801 60.047 26.1801 60.1731V60.7141C26.1801 60.8253 26.2839 60.9217 26.4099 60.9217H31.1908C31.3168 60.9217 31.4132 60.8327 31.4132 60.7141V60.1805C31.4132 60.047 31.3094 59.9359 31.176 59.9062ZM25.8688 56.7856H22.133C21.6883 56.7856 21.8366 56.4224 21.8366 56.4224L23.7637 51.4859C23.7637 51.4859 23.8972 51.0559 24.1121 51.0559C24.327 51.0559 24.4679 51.4859 24.4679 51.4859L26.1801 56.4224C26.1727 56.4224 26.3136 56.7856 25.8688 56.7856Z" fill="#010202"/>
<path d="M83.7282 59.9062L83.2988 59.8618C83.1063 59.8024 82.3205 59.921 81.6162 58.6387C80.2001 56.0815 79.4 55.3625 79.1252 55.103C78.8512 54.8436 79.2 54.7695 79.2 54.7695C82.5205 53.969 82.3129 51.7898 82.3129 51.7898C82.3129 48.9583 78.7033 48.9731 78.7033 48.9731H70.3342C70.209 48.9731 70.1123 49.0991 70.1123 49.2177V49.7366C70.1123 49.8774 70.2308 49.996 70.372 50.0108L71.0687 50.1072C71.4318 50.1591 71.7133 50.4037 71.7133 50.752V59.1131C71.7133 59.4615 71.4318 59.7506 71.0687 59.8024L70.372 59.8988C70.2232 59.921 70.1123 60.0322 70.1123 60.1731V60.6919C70.1123 60.8105 70.209 60.9069 70.3342 60.9069H75.8273C75.9533 60.9069 76.0492 60.8105 76.0492 60.6919V60.1731C76.0492 60.0322 75.9307 59.9136 75.7903 59.8988L75.0936 59.8024C74.7297 59.7506 74.4481 59.4615 74.4481 59.1131L74.4414 55.7405C74.4414 55.496 74.6557 55.2958 74.923 55.2958H75.7088C75.7088 55.2958 76.9467 55.2365 77.8132 56.7931C77.8132 56.7931 78.4511 57.9494 79.1327 59.291C79.8152 60.6326 80.2967 60.9143 82.3348 60.9143H83.7358C83.8619 60.9143 83.9585 60.8253 83.9585 60.7067V60.1731C83.9585 60.047 83.8619 59.9359 83.7282 59.9062ZM77.2283 54.1913H74.9305C74.6633 54.1913 74.4414 53.9986 74.4414 53.7541V50.3889C74.4414 50.1442 74.6557 49.9441 74.923 49.9441H77.2283C77.2283 49.9441 79.5109 49.959 79.5109 52.0937C79.5109 54.1692 77.2283 54.1913 77.2283 54.1913Z" fill="#010202"/>
<path d="M140.07 49.4546C139.269 49.0617 138.372 48.8468 137.431 48.8468C134.095 48.8468 131.39 51.567 131.39 54.9174C131.39 58.2752 134.095 60.9881 137.431 60.9881C140.766 60.9881 143.472 58.2678 143.472 54.9174C143.472 52.5158 142.086 50.4404 140.07 49.4546ZM137.579 59.9652C135.445 60.0171 134.622 58.0231 134.533 54.8581C134.436 51.5967 135.148 49.6621 137.283 49.6103C139.395 49.5583 140.24 51.4633 140.329 54.7173C140.425 57.9416 139.759 59.9133 137.579 59.9652Z" fill="#010202"/>
<path d="M193.334 59.9285L192.904 59.884C192.711 59.8247 191.925 59.9433 191.221 58.661C189.806 56.1038 189.005 55.3848 188.731 55.1253C188.463 54.8659 188.805 54.7918 188.805 54.7918C192.125 53.9913 191.918 51.8121 191.918 51.8121C191.918 48.9806 188.308 48.9954 188.308 48.9954H179.947C179.821 48.9954 179.725 49.1214 179.725 49.24V49.7589C179.725 49.8997 179.843 50.0183 179.984 50.0331L180.681 50.1294C181.044 50.1814 181.326 50.426 181.326 50.7743V59.1354C181.326 59.4838 181.044 59.7729 180.681 59.8247L179.984 59.9211C179.836 59.9433 179.725 60.0545 179.725 60.1954V60.7142C179.725 60.8328 179.821 60.9292 179.947 60.9292H185.44C185.566 60.9292 185.662 60.8328 185.662 60.7142V60.1954C185.662 60.0545 185.544 59.9359 185.403 59.9211L184.706 59.8247C184.343 59.7729 184.061 59.4838 184.061 59.1354L184.054 55.7628C184.054 55.5182 184.269 55.3181 184.535 55.3181H185.321C185.321 55.3181 186.559 55.2588 187.426 56.8154C187.426 56.8154 188.063 57.9717 188.746 59.3133C189.427 60.6549 189.909 60.9366 191.948 60.9366H193.349C193.474 60.9366 193.571 60.8476 193.571 60.729V60.1954C193.563 60.0619 193.467 59.9507 193.334 59.9285ZM186.825 54.2062H184.528C184.261 54.2062 184.039 54.0135 184.039 53.7689V50.4038C184.039 50.1591 184.254 49.959 184.52 49.959H186.825C186.825 49.959 189.109 49.9738 189.109 52.1086C189.117 54.1914 186.825 54.2062 186.825 54.2062Z" fill="#010202"/>
<path d="M90.5259 54.0133C90.5259 53.9021 90.4301 53.8057 90.304 53.8057H85.0185C84.8924 53.8057 84.7966 53.8946 84.7966 54.0133V55.2881C84.7966 55.3993 84.8924 55.4957 85.0185 55.4957H90.304C90.4301 55.4957 90.5259 55.4067 90.5259 55.2881V54.0133Z" fill="#010202"/>
<path d="M128.662 56.8745C126.639 59.8394 123.637 59.7059 123.637 59.7059C120.368 59.7949 119.181 56.415 119.049 52.2048C118.907 47.9946 119.901 44.5553 123.14 44.4664C123.14 44.4664 126.223 44.0439 128.232 47.157C128.284 47.2459 128.366 47.3423 128.492 47.3497C128.536 47.3497 128.573 47.3497 128.61 47.3423L129.404 47.1941C129.485 47.1718 129.552 47.1051 129.559 47.0162C129.559 46.9865 129.559 46.9568 129.552 46.9346L128.469 43.6065C128.432 43.4953 128.314 43.4138 128.18 43.4138H127.795C127.661 43.4138 127.551 43.4953 127.506 43.6065C127.38 44.6665 126.534 44.1254 126.534 44.1254C125.505 43.5991 124.348 43.3026 123.132 43.3026C118.678 43.3026 115.068 47.2607 115.068 52.1454C115.068 57.0302 118.678 60.9883 123.132 60.9883C124.475 60.9883 125.756 60.6176 126.868 59.9803C126.868 59.9803 127.803 59.3502 127.929 60.4101C127.966 60.5213 128.084 60.6029 128.217 60.6029H128.603C128.736 60.6029 128.847 60.5213 128.892 60.4101L129.974 57.082C129.982 57.0598 129.989 57.0302 129.982 57.0005C129.974 56.919 129.907 56.8448 129.826 56.8226L129.033 56.6744C128.996 56.6669 128.952 56.6595 128.915 56.6669C128.795 56.6966 128.714 56.793 128.662 56.8745Z" fill="#010202"/>
<path d="M198.775 60.9291H194.268C194.142 60.9291 194.046 60.8328 194.046 60.7142V60.1953C194.046 60.0544 194.165 59.9359 194.305 59.9211L195.002 59.8247C195.366 59.7728 195.647 59.4837 195.647 59.1353V50.8114C195.647 50.463 195.366 50.1739 195.002 50.1221L194.305 50.0257C194.157 50.0034 194.046 49.8923 194.046 49.7514V49.2325C194.046 49.114 194.142 48.988 194.268 48.988H197.382H203.334C203.66 48.988 203.934 49.2325 204.038 49.492L204.631 51.0634C204.646 51.0856 204.646 51.1153 204.646 51.145C204.646 51.2561 204.549 51.3525 204.423 51.3525H203.86C203.734 51.3525 203.645 51.2709 203.578 51.182L203.289 50.7891C202.725 49.9664 201.903 50.0109 201.903 50.0109H198.849C198.582 50.0109 198.368 50.2036 198.368 50.4556V52.3235C198.368 52.5681 198.589 52.7682 198.857 52.7682H199.568C200.035 52.7682 200.309 52.5459 200.391 52.2494L200.561 51.7379C200.598 51.6267 200.717 51.5452 200.85 51.5452H201.236C201.37 51.5452 201.481 51.6267 201.525 51.7379L202.525 54.8214C202.533 54.8436 202.54 54.8733 202.533 54.903C202.525 54.9845 202.459 55.0586 202.377 55.0808L201.925 55.1846C201.888 55.192 201.844 55.1994 201.807 55.192C201.681 55.1772 201.599 55.0808 201.547 54.9993L201.236 54.4359C201.236 54.4359 200.932 53.8726 200.176 53.8726H198.857C198.589 53.8726 198.374 54.0654 198.374 54.3174V59.4022C198.374 59.6468 198.589 59.8395 198.857 59.8395H202.007C204.853 59.8395 206.024 59.1873 206.024 59.1873C207.299 58.6165 207.596 57.7196 207.322 57.2823C207.084 56.8301 206.417 56.5929 205.09 57.3193C203.4 58.2459 201.859 60.5215 201.859 60.5215C201.859 60.5215 199.509 63.6791 198.76 64.7168C198.011 65.7546 195.298 69.5274 188.057 69.5274H21.7032C14.5133 69.5274 12.9123 66.5035 12.1637 65.4655C11.415 64.4277 9.06533 61.2701 9.06533 61.2701C9.06533 61.2701 7.52354 58.9945 5.83359 58.068C4.50679 57.3416 3.83965 57.5714 3.60248 58.0309C3.32825 58.4683 3.46162 59.1576 4.76624 59.9433C6.41913 60.9366 8.84295 60.6327 8.84295 60.6327C9.9103 60.5215 11.252 60.1805 12.2007 59.2984C13.95 57.6752 13.7203 54.6583 13.7647 53.4205V45.9341C13.7647 45.5561 13.483 45.2448 13.1199 45.1855L12.423 45.0743C12.2748 45.052 12.1637 44.9261 12.1637 44.7778V44.0069C12.1637 43.8809 12.26 43.7771 12.386 43.7771H19.0348C19.1608 43.7771 19.2571 43.8809 19.2571 44.0069V44.7778C19.2571 44.9335 19.1386 45.0594 18.9978 45.0743L18.301 45.1855C17.9378 45.2374 17.6561 45.5561 17.6561 45.9341V47.6315C17.6561 47.6315 17.7154 50.7002 17.4857 53.2203C17.1966 56.341 16.6852 60.7809 10.4292 61.8037C8.07949 62.1892 4.68463 61.7519 2.60925 60.4103C0.326288 59.0094 -0.466833 56.8746 0.326288 55.5182C1.11932 54.1543 3.14293 54.0357 5.24058 55.3922C5.24058 55.3922 7.65701 56.8153 10.5404 60.9217C13.4238 65.0209 15.1137 66.4808 19.5759 66.8665H190.303C194.765 66.4808 197.611 64.1312 200.495 60.0323C203.378 55.9333 205.787 54.5027 205.787 54.5027C207.877 53.1462 209.909 53.2648 210.701 54.6287C211.494 55.9925 210.701 58.1198 208.418 59.5208C206.343 60.8698 204.201 60.9143 200.598 60.9143L198.775 60.9291Z" fill="#010202"/>
</svg>
