<svg width="300" height="150" viewBox="0 0 300 150" fill="none" xmlns="http://www.w3.org/2000/svg">
<path d="M167.507 65.3625C163.616 67.0424 159.431 68.1766 155.052 68.6648V54.7523H160.285L157.048 50H151.398L150.163 51.8162L148.929 50H143.279L140.048 54.7523H145.282V68.6648C140.903 68.1766 136.718 67.0424 132.827 65.3625L129 70.9835C130.673 71.7588 132.396 72.448 134.169 73.0366L135.634 70.9045C140.07 72.3187 144.786 73.094 149.682 73.1371V73.1443C149.869 73.1443 150.048 73.1443 150.235 73.1443C155.282 73.1443 160.149 72.3618 164.715 70.9045L166.179 73.0366C167.945 72.448 169.668 71.7588 171.348 70.9835L167.507 65.3625ZM149.675 72.1465C144.629 72.0962 139.769 71.2419 135.224 69.7129L133.781 71.8306C132.669 71.4358 131.57 71.005 130.494 70.5384L133.186 66.5829C137.277 68.2699 141.671 69.3611 146.272 69.7631V53.7617H141.929L143.817 50.9835H148.405L149.682 52.8643V72.1465H149.675ZM165.102 69.72C160.558 71.2491 155.698 72.1034 150.651 72.1536V52.8715L151.929 50.9835H156.517L158.405 53.7617H154.061V69.7703C158.656 69.3755 163.056 68.2771 167.148 66.5901L169.84 70.5456C168.764 71.0122 167.665 71.4429 166.552 71.8378L165.102 69.72Z" fill="#010202"/>
<path d="M99.0649 88.1049C99.0649 87.7675 98.7921 87.4875 98.4403 87.4372L97.9522 87.3439C97.8086 87.3224 97.7009 87.2147 97.7009 87.0783V86.7194C97.7009 86.6045 97.7942 86.5184 97.9163 86.5184H102.783C102.906 86.5184 102.999 86.6117 102.999 86.7194V87.0783C102.999 87.2147 102.884 87.3296 102.748 87.3439L102.396 87.3942C102.044 87.4444 101.778 87.7244 101.778 88.0618V89.6555C101.778 89.9139 101.62 90.1149 101.405 90.2441C98.6916 91.9383 96.7246 91.7373 96.7246 91.7373C93.4941 91.7373 90.8739 89.1027 90.8739 85.8579C90.8739 82.6131 93.4941 79.9785 96.7246 79.9785C97.6435 79.9785 98.5121 80.1939 99.2802 80.5672C99.2802 80.5672 99.7325 80.8902 99.9622 80.2944C99.9981 80.1867 100.113 80.1077 100.242 80.1077H100.522C100.651 80.1077 100.759 80.1867 100.802 80.2944L101.577 82.8213C101.585 82.8428 101.592 82.8716 101.585 82.9003C101.577 82.9792 101.513 83.051 101.434 83.0726L100.666 83.2161C100.63 83.2233 100.587 83.2305 100.551 83.2233C100.429 83.209 100.35 83.1156 100.3 83.0367L100.149 82.7423C98.9715 80.4164 96.5882 80.7179 96.5882 80.7179C94.5207 80.761 93.8172 82.7567 93.9033 85.7933C93.9895 88.8586 94.7648 90.7969 96.8323 90.7538C96.8323 90.7538 98.0598 90.7969 98.9213 89.9139C99.0146 89.8206 99.0577 89.6627 99.0577 89.5909V88.1049H99.0649Z" fill="#010202"/>
<path d="M107.062 80.0934H112.827C113.143 80.0934 113.408 80.3303 113.509 80.5815L114.083 82.1034C114.097 82.125 114.097 82.1537 114.097 82.1824C114.097 82.2901 114.004 82.3834 113.882 82.3834H113.336C113.214 82.3834 113.128 82.3044 113.064 82.2183L112.784 81.8378C112.238 81.041 111.441 81.0841 111.441 81.0841H108.483C108.225 81.0841 108.024 81.2707 108.024 81.5076V83.3166C108.024 83.5535 108.239 83.7474 108.498 83.7474H109.187C109.639 83.7474 109.905 83.532 109.984 83.2449L110.149 82.7495C110.185 82.6418 110.3 82.5629 110.429 82.5629H110.802C110.931 82.5629 111.039 82.6418 111.082 82.7495L112.051 85.7359C112.059 85.7574 112.066 85.7861 112.059 85.8148C112.051 85.8938 111.987 85.9656 111.908 85.9871L111.47 86.0876C111.434 86.0948 111.391 86.102 111.355 86.0948C111.233 86.0805 111.154 85.9871 111.104 85.9082L110.802 85.3626C110.802 85.3626 110.508 84.817 109.776 84.817H108.498C108.239 84.817 108.031 85.0108 108.031 85.2477V90.1724C108.031 90.4092 108.239 90.5959 108.491 90.5959H111.807C111.807 90.5959 112.669 90.6174 113.193 89.8996L113.573 89.3827C113.638 89.2965 113.724 89.2176 113.846 89.2176H114.392C114.514 89.2176 114.607 89.3037 114.607 89.4186C114.607 89.4473 114.6 89.4688 114.593 89.4975L113.875 91.242C113.767 91.5004 113.501 91.6727 113.193 91.6727H104.047C103.925 91.6727 103.832 91.5794 103.832 91.4645V90.962C103.832 90.8256 103.947 90.7108 104.083 90.6964L104.758 90.6031C105.109 90.5528 105.382 90.2729 105.382 89.9355V81.8665C105.382 81.5291 105.109 81.2492 104.758 81.1989L104.083 81.1056C103.939 81.0841 103.832 80.9764 103.832 80.84V80.3375C103.832 80.2226 103.925 80.1006 104.047 80.1006H107.062V80.0934Z" fill="#010202"/>
<path d="M79.5531 91.6584C79.4311 91.6584 79.3378 91.5651 79.3378 91.4502V90.9477C79.3378 90.8113 79.4526 90.6964 79.589 90.6821L80.2638 90.5887C80.6156 90.5385 80.8884 90.2585 80.8884 89.9211V81.8666C80.8884 81.5292 80.6156 81.2492 80.2638 81.1989L79.589 81.1056C79.4455 81.0841 79.3378 80.9764 79.3378 80.84V80.3375C79.3378 80.2226 79.4311 80.1006 79.5531 80.1006H88.3256C88.6414 80.1006 88.9071 80.3375 89.0076 80.5887L89.5819 82.1106C89.5962 82.1322 89.5962 82.1609 89.5962 82.1896C89.5962 82.2973 89.5029 82.3906 89.3809 82.3906H88.8353C88.7132 82.3906 88.6271 82.3116 88.5625 82.2255L88.2825 81.845C87.7369 81.0482 86.9401 81.0913 86.9401 81.0913H83.9824C83.724 81.0913 83.5158 81.2779 83.5158 81.5148V83.3167C83.5158 83.5536 83.7312 83.7474 83.9896 83.7474H84.6716C85.1238 83.7474 85.3895 83.532 85.4684 83.2449L85.6335 82.7495C85.6694 82.6419 85.7843 82.5629 85.9135 82.5629H86.2868C86.416 82.5629 86.5237 82.6419 86.5668 82.7495L87.5359 85.7359C87.5431 85.7574 87.5503 85.7862 87.5431 85.8149C87.5359 85.8938 87.4713 85.9656 87.3923 85.9872L86.9544 86.0877C86.9185 86.0948 86.8755 86.102 86.8396 86.0948C86.7175 86.0805 86.6386 85.9872 86.5883 85.9082L86.2868 85.3626C86.2868 85.3626 85.9925 84.817 85.2602 84.817H83.9824C83.724 84.817 83.5158 85.0037 83.5158 85.2477V90.1724C83.5158 90.4093 83.724 90.5959 83.9824 90.5959H87.299C87.299 90.5959 88.1605 90.6175 88.6845 89.8996L89.065 89.3827C89.1296 89.2966 89.2157 89.2176 89.3378 89.2176H89.8834C90.0054 89.2176 90.0987 89.3037 90.0987 89.4186C90.0987 89.4473 90.0915 89.476 90.0844 89.4976L89.3665 91.2348C89.2588 91.4933 88.9932 91.6656 88.6845 91.6656H79.5531V91.6584Z" fill="#010202"/>
<path d="M141.685 81.8594C141.685 81.522 141.958 81.242 142.31 81.1917L142.985 81.0984C143.128 81.0769 143.236 80.9692 143.236 80.8328V80.3303C143.236 80.2154 143.142 80.0934 143.02 80.0934H137.708C137.586 80.0934 137.493 80.2154 137.493 80.3303V80.8328C137.493 80.9692 137.608 81.0841 137.744 81.0984L138.419 81.1917C138.771 81.242 139.043 81.522 139.043 81.8594V89.9211C139.043 90.2585 138.771 90.5385 138.419 90.5887L137.744 90.682C137.6 90.7036 137.493 90.8113 137.493 90.9477V91.4502C137.493 91.565 137.586 91.6584 137.708 91.6584H145.82C146.136 91.6584 146.402 91.4789 146.502 91.2276L147.22 89.4832C147.234 89.4617 147.234 89.4329 147.234 89.4042C147.234 89.2965 147.141 89.2032 147.019 89.2032H146.473C146.351 89.2032 146.265 89.2822 146.201 89.3683L145.82 89.8852C145.296 90.6031 144.435 90.5815 144.435 90.5815H142.145C141.886 90.5815 141.678 90.3949 141.678 90.158V81.8594H141.685Z" fill="#010202"/>
<path d="M150.953 80.0862H156.717C157.033 80.0862 157.299 80.3231 157.399 80.5743L157.974 82.0962C157.988 82.1178 157.988 82.1465 157.988 82.1752C157.988 82.2829 157.895 82.3762 157.773 82.3762H157.227C157.105 82.3762 157.019 82.2972 156.954 82.2111L156.674 81.8306C156.129 81.0338 155.332 81.0769 155.332 81.0769H152.374C152.116 81.0769 151.908 81.2635 151.908 81.5004V83.3094C151.908 83.5463 152.123 83.7402 152.381 83.7402H153.063C153.516 83.7402 153.781 83.5248 153.86 83.2377L154.025 82.7423C154.061 82.6346 154.176 82.5557 154.305 82.5557H154.679C154.808 82.5557 154.916 82.6346 154.959 82.7423L155.928 85.7287C155.935 85.7502 155.942 85.7789 155.935 85.8076C155.928 85.8866 155.863 85.9584 155.784 85.9799L155.346 86.0804C155.31 86.0876 155.267 86.0948 155.231 86.0876C155.109 86.0733 155.03 85.9799 154.98 85.901L154.679 85.3554C154.679 85.3554 154.384 84.8098 153.652 84.8098H152.374C152.116 84.8098 151.908 85.0036 151.908 85.2405V90.1651C151.908 90.402 152.116 90.5887 152.374 90.5887H155.691C155.691 90.5887 156.552 90.6102 157.076 89.8924L157.457 89.3755C157.521 89.2893 157.608 89.2104 157.73 89.2104H158.275C158.397 89.2104 158.491 89.2965 158.491 89.4114C158.491 89.4401 158.483 89.4616 158.476 89.4903L157.758 91.2348C157.658 91.4932 157.385 91.6655 157.076 91.6655H147.938C147.816 91.6655 147.722 91.5722 147.722 91.4573V90.9548C147.722 90.8184 147.837 90.7036 147.974 90.6892L148.648 90.5959C149 90.5456 149.273 90.2657 149.273 89.9282V81.8593C149.273 81.5219 149 81.242 148.648 81.1917L147.974 81.0984C147.83 81.0768 147.722 80.9692 147.722 80.8328V80.3303C147.722 80.2154 147.816 80.0934 147.938 80.0934H150.953V80.0862Z" fill="#010202"/>
<path d="M192.267 87.0137C192.267 87.0137 192.001 90.5887 195.124 90.5887C197.938 90.5887 197.938 87.387 197.938 87.387V81.9168C197.938 81.5794 197.809 81.2994 197.457 81.2492L196.926 81.1558C196.782 81.1343 196.675 81.0266 196.675 80.8902V80.3877C196.675 80.2729 196.768 80.1508 196.89 80.1508H200.164C200.286 80.1508 200.379 80.2729 200.379 80.3877V80.8902C200.379 81.0266 200.264 81.1415 200.128 81.1558L199.596 81.2492C199.245 81.2994 199.115 81.5794 199.115 81.9168V87.0065C199.137 87.6167 199.065 91.6512 194.693 91.6512C189.324 91.6512 189.611 87.0496 189.611 87.0496V81.8594C189.611 81.522 189.367 81.242 189.015 81.1917L188.34 81.0984C188.197 81.0769 188.089 80.9692 188.089 80.8328V80.3303C188.089 80.2154 188.182 80.0934 188.304 80.0934H193.329C193.451 80.0934 193.545 80.2154 193.545 80.3303V80.8328C193.545 80.9692 193.43 81.0841 193.293 81.0984L192.762 81.1917C192.41 81.242 192.281 81.522 192.281 81.8594V87.0137H192.267Z" fill="#010202"/>
<path d="M205.598 81.8594C205.598 81.522 205.87 81.242 206.222 81.1917L206.897 81.0984C207.04 81.0769 207.148 80.9692 207.148 80.8328V80.3303C207.148 80.2154 207.055 80.0934 206.933 80.0934H201.621C201.498 80.0934 201.405 80.2154 201.405 80.3303V80.8328C201.405 80.9692 201.52 81.0841 201.656 81.0984L202.331 81.1917C202.683 81.242 202.956 81.522 202.956 81.8594V89.9211C202.956 90.2585 202.683 90.5385 202.331 90.5887L201.656 90.682C201.513 90.7036 201.405 90.8113 201.405 90.9477V91.4502C201.405 91.565 201.498 91.6584 201.621 91.6584H209.733C210.048 91.6584 210.314 91.4789 210.414 91.2276L211.132 89.4832C211.147 89.4617 211.147 89.4329 211.147 89.4042C211.147 89.2965 211.053 89.2032 210.931 89.2032H210.386C210.264 89.2032 210.178 89.2822 210.113 89.3683L209.733 89.8852C209.208 90.6031 208.347 90.5815 208.347 90.5815H206.057C205.799 90.5815 205.59 90.3949 205.59 90.158V81.8594H205.598Z" fill="#010202"/>
<path d="M216.653 81.4789C216.653 81.242 216.854 81.0553 217.119 81.0553H218.469C218.469 81.0553 219.33 81.1487 219.855 81.8665L220.235 82.3834C220.3 82.4696 220.386 82.5485 220.508 82.5485H221.053C221.175 82.5485 221.269 82.4624 221.269 82.3475C221.269 82.3188 221.262 82.2901 221.254 82.2685L220.536 80.5241C220.429 80.2657 220.163 80.0934 219.855 80.0934H210.824C210.508 80.0934 210.242 80.2729 210.142 80.5241L209.424 82.2685C209.409 82.2901 209.409 82.3188 209.409 82.3475C209.409 82.4552 209.503 82.5485 209.625 82.5485H210.17C210.292 82.5485 210.379 82.4696 210.443 82.3834L210.824 81.8665C211.348 81.1487 212.209 81.0553 212.209 81.0553H213.559C213.817 81.0553 214.018 81.242 214.018 81.4789V89.8996C214.018 90.237 213.745 90.5169 213.394 90.5672L212.719 90.6605C212.575 90.682 212.468 90.7897 212.468 90.9261V91.4286C212.468 91.5435 212.561 91.6655 212.683 91.6655H217.995C218.117 91.6655 218.211 91.5435 218.211 91.4286V90.9261C218.211 90.7897 218.096 90.6749 217.959 90.6605L217.285 90.5672C216.933 90.5169 216.66 90.237 216.66 89.8996V81.4789H216.653Z" fill="#010202"/>
<path d="M78.1675 90.6819L77.9665 90.6101C77.9665 90.6101 77.4066 90.4881 77.0261 89.5979L73.8244 80.5527C73.8244 80.5527 73.688 80.0933 73.1137 80.0933H70.8739C70.2996 80.0933 70.1632 80.5527 70.1632 80.5527L66.6313 89.5979C66.2723 90.5527 65.5473 90.6173 65.5473 90.6173L65.217 90.6819C65.0878 90.7106 64.9945 90.8183 64.9945 90.9475V91.4644C64.9945 91.5721 65.0878 91.6654 65.2099 91.6654H68.7849C68.9069 91.6654 69.0074 91.5793 69.0074 91.4644V90.9404C69.0074 90.8111 68.9213 90.7106 68.7921 90.6819L68.6916 90.6532C68.3542 90.5814 68.1101 90.3158 68.1101 89.9928C68.1101 89.9138 68.1244 89.8348 68.1532 89.763L68.4331 89.0452C68.4331 89.0452 68.5552 88.7221 68.9931 88.7221H73.3578C73.7957 88.7221 73.9177 89.0452 73.9177 89.0452L74.169 89.763C74.1977 89.8348 74.212 89.9066 74.212 89.9928C74.212 90.3158 73.968 90.5814 73.6449 90.6532L73.5444 90.6819C73.4152 90.7106 73.329 90.8183 73.329 90.9404V91.4644C73.329 91.5721 73.4295 91.6654 73.5516 91.6654H78.1819C78.3039 91.6654 78.3972 91.5793 78.3972 91.4644V90.9475C78.3972 90.8183 78.2967 90.7106 78.1675 90.6819ZM73.0275 87.6597H69.4094C68.9787 87.6597 69.1223 87.3079 69.1223 87.3079L70.9888 82.5269C70.9888 82.5269 71.118 82.1105 71.3262 82.1105C71.5344 82.1105 71.6707 82.5269 71.6707 82.5269L73.329 87.3079C73.3219 87.3079 73.4583 87.6597 73.0275 87.6597Z" fill="#010202"/>
<path d="M129.065 90.6819L128.648 90.6389C128.462 90.5814 127.701 90.6963 127.019 89.4544C125.648 86.9777 124.872 86.2813 124.607 86.0301C124.341 85.7788 124.678 85.707 124.678 85.707C127.895 84.9317 127.694 82.8212 127.694 82.8212C127.694 80.0789 124.197 80.0933 124.197 80.0933H116.093C115.971 80.0933 115.877 80.2153 115.877 80.3302V80.8327C115.877 80.9691 115.992 81.0839 116.129 81.0983L116.803 81.1916C117.155 81.2419 117.428 81.4788 117.428 81.8162V89.9138C117.428 90.2512 117.155 90.5312 116.803 90.5814L116.129 90.6747C115.985 90.6963 115.877 90.804 115.877 90.9404V91.4429C115.877 91.5577 115.971 91.6511 116.093 91.6511H121.412C121.534 91.6511 121.628 91.5577 121.628 91.4429V90.9404C121.628 90.804 121.513 90.6891 121.376 90.6747L120.701 90.5814C120.35 90.5312 120.077 90.2512 120.077 89.9138L120.07 86.6475C120.07 86.4106 120.278 86.2167 120.536 86.2167H121.297C121.297 86.2167 122.496 86.1593 123.336 87.6668C123.336 87.6668 123.953 88.7867 124.614 90.0861C125.274 91.3854 125.741 91.6582 127.715 91.6582H129.072C129.194 91.6582 129.287 91.5721 129.287 91.4572V90.9404C129.287 90.8183 129.194 90.7106 129.065 90.6819ZM122.769 85.1471H120.544C120.285 85.1471 120.07 84.9605 120.07 84.7236V81.4644C120.07 81.2275 120.278 81.0337 120.536 81.0337H122.769C122.769 81.0337 124.98 81.048 124.98 83.1155C124.98 85.1256 122.769 85.1471 122.769 85.1471Z" fill="#010202"/>
<path d="M183.631 80.56C182.855 80.1795 181.987 79.9713 181.075 79.9713C177.844 79.9713 175.224 82.6059 175.224 85.8507C175.224 89.1027 177.844 91.7301 181.075 91.7301C184.305 91.7301 186.926 89.0955 186.926 85.8507C186.926 83.5248 185.583 81.5147 183.631 80.56ZM181.218 90.7394C179.151 90.7897 178.354 88.8586 178.268 85.7933C178.175 82.6346 178.864 80.761 180.931 80.7107C182.977 80.6605 183.796 82.5054 183.882 85.6569C183.975 88.7796 183.329 90.6892 181.218 90.7394Z" fill="#010202"/>
<path d="M235.217 90.7035L234.801 90.6605C234.614 90.603 233.853 90.7179 233.171 89.476C231.8 86.9993 231.025 86.303 230.759 86.0517C230.501 85.8004 230.831 85.7287 230.831 85.7287C234.047 84.9533 233.846 82.8428 233.846 82.8428C233.846 80.1005 230.35 80.1149 230.35 80.1149H222.252C222.13 80.1149 222.037 80.2369 222.037 80.3518V80.8543C222.037 80.9907 222.152 81.1055 222.288 81.1199L222.963 81.2132C223.315 81.2635 223.587 81.5004 223.587 81.8378V89.9354C223.587 90.2728 223.315 90.5528 222.963 90.603L222.288 90.6963C222.145 90.7179 222.037 90.8256 222.037 90.962V91.4645C222.037 91.5793 222.13 91.6727 222.252 91.6727H227.572C227.694 91.6727 227.787 91.5793 227.787 91.4645V90.962C227.787 90.8256 227.672 90.7107 227.536 90.6963L226.861 90.603C226.509 90.5528 226.236 90.2728 226.236 89.9354L226.229 86.6691C226.229 86.4322 226.437 86.2383 226.696 86.2383H227.457C227.457 86.2383 228.656 86.1809 229.496 87.6885C229.496 87.6885 230.113 88.8083 230.773 90.1077C231.434 91.407 231.9 91.6798 233.875 91.6798H235.231C235.353 91.6798 235.447 91.5937 235.447 91.4788V90.962C235.44 90.8327 235.346 90.7251 235.217 90.7035ZM228.914 85.1615H226.689C226.43 85.1615 226.215 84.9749 226.215 84.738V81.4788C226.215 81.2419 226.423 81.0481 226.682 81.0481H228.914C228.914 81.0481 231.125 81.0625 231.125 83.1299C231.132 85.1472 228.914 85.1615 228.914 85.1615Z" fill="#010202"/>
<path d="M135.648 84.9748C135.648 84.8671 135.555 84.7738 135.433 84.7738H130.314C130.192 84.7738 130.099 84.86 130.099 84.9748V86.2096C130.099 86.3172 130.192 86.4106 130.314 86.4106H135.433C135.555 86.4106 135.648 86.3244 135.648 86.2096V84.9748Z" fill="#010202"/>
<path d="M172.582 87.7459C170.623 90.6174 167.715 90.4881 167.715 90.4881C164.549 90.5743 163.401 87.3008 163.272 83.2232C163.135 79.1457 164.097 75.8148 167.234 75.7286C167.234 75.7286 170.221 75.3194 172.166 78.3345C172.216 78.4207 172.295 78.514 172.417 78.5212C172.46 78.5212 172.496 78.5212 172.532 78.514L173.3 78.3704C173.379 78.3489 173.444 78.2843 173.451 78.1981C173.451 78.1694 173.451 78.1407 173.444 78.1191L172.396 74.8959C172.36 74.7882 172.245 74.7092 172.116 74.7092H171.743C171.613 74.7092 171.506 74.7882 171.463 74.8959C171.341 75.9225 170.522 75.3984 170.522 75.3984C169.524 74.8887 168.404 74.6016 167.227 74.6016C162.913 74.6016 159.417 78.435 159.417 83.1658C159.417 87.8966 162.913 91.7301 167.227 91.7301C168.526 91.7301 169.768 91.3711 170.845 90.7538C170.845 90.7538 171.75 90.1436 171.872 91.1701C171.908 91.2778 172.023 91.3568 172.152 91.3568H172.525C172.654 91.3568 172.762 91.2778 172.805 91.1701L173.853 87.9469C173.86 87.9253 173.867 87.8966 173.86 87.8679C173.853 87.7889 173.789 87.7171 173.71 87.6956L172.941 87.552C172.906 87.5449 172.862 87.5377 172.827 87.5449C172.712 87.5736 172.633 87.6669 172.582 87.7459Z" fill="#010202"/>
<path d="M240.486 91.6727H236.122C236 91.6727 235.906 91.5793 235.906 91.4645V90.962C235.906 90.8256 236.021 90.7107 236.158 90.6964L236.832 90.603C237.184 90.5528 237.457 90.2728 237.457 89.9354V81.8737C237.457 81.5363 237.184 81.2563 236.832 81.206L236.158 81.1127C236.014 81.0912 235.906 80.9835 235.906 80.8471V80.3446C235.906 80.2297 236 80.1077 236.122 80.1077H239.137H244.901C245.217 80.1077 245.483 80.3446 245.583 80.5959L246.158 82.1177C246.172 82.1393 246.172 82.168 246.172 82.1967C246.172 82.3044 246.079 82.3977 245.957 82.3977H245.411C245.289 82.3977 245.203 82.3188 245.138 82.2326L244.858 81.8521C244.313 81.0553 243.516 81.0984 243.516 81.0984H240.558C240.3 81.0984 240.092 81.285 240.092 81.5291V83.3381C240.092 83.575 240.307 83.7689 240.565 83.7689H241.255C241.707 83.7689 241.972 83.5535 242.051 83.2663L242.216 82.771C242.252 82.6633 242.367 82.5844 242.496 82.5844H242.87C242.999 82.5844 243.107 82.6633 243.15 82.771L244.119 85.7574C244.126 85.7789 244.133 85.8076 244.126 85.8363C244.119 85.9153 244.054 85.9871 243.975 86.0086L243.537 86.1091C243.501 86.1163 243.458 86.1235 243.423 86.1163C243.3 86.102 243.222 86.0086 243.171 85.9297L242.87 85.3841C242.87 85.3841 242.575 84.8385 241.843 84.8385H240.565C240.307 84.8385 240.099 85.0251 240.099 85.2692V90.1938C240.099 90.4307 240.307 90.6174 240.565 90.6174H243.616C246.373 90.6174 247.507 89.9857 247.507 89.9857C248.742 89.4329 249.029 88.5643 248.764 88.1407C248.534 87.7028 247.888 87.4731 246.603 88.1766C244.966 89.074 243.473 91.2778 243.473 91.2778C243.473 91.2778 241.197 94.336 240.472 95.341C239.747 96.346 237.12 100 230.106 100H68.9931C62.0297 100 60.4791 97.0711 59.754 96.0661C59.0289 95.061 56.7533 92.0029 56.7533 92.0029C56.7533 92.0029 55.2601 89.799 53.6233 88.9017C52.3383 88.1981 51.6923 88.4207 51.4625 88.8658C51.1969 89.2893 51.3261 89.9569 52.5896 90.7179C54.1905 91.6798 56.5379 91.3855 56.5379 91.3855C57.5717 91.2778 58.871 90.9476 59.7899 90.0933C61.4841 88.5212 61.2615 85.5994 61.3046 84.4006V77.1501C61.3046 76.7839 61.0318 76.4824 60.6801 76.425L60.0053 76.3173C59.8617 76.2958 59.754 76.1737 59.754 76.0302V75.2836C59.754 75.1615 59.8473 75.061 59.9694 75.061H66.4087C66.5307 75.061 66.6241 75.1615 66.6241 75.2836V76.0302C66.6241 76.1809 66.5092 76.303 66.3728 76.3173L65.698 76.425C65.3463 76.4753 65.0735 76.7839 65.0735 77.1501V78.794C65.0735 78.794 65.1309 81.766 64.9083 84.2068C64.6284 87.229 64.133 91.5291 58.0742 92.5198C55.7985 92.8931 52.5106 92.4695 50.5006 91.1702C48.2895 89.8134 47.5214 87.7459 48.2895 86.4322C49.0576 85.1113 51.0175 84.9964 53.049 86.3101C53.049 86.3101 55.3893 87.6885 58.1819 91.6655C60.9744 95.6353 62.6111 97.0495 66.9328 97.4228H232.281C236.603 97.0495 239.359 94.7739 242.152 90.804C244.944 86.8342 247.278 85.4487 247.278 85.4487C249.302 84.135 251.269 84.2498 252.037 85.5707C252.805 86.8916 252.037 88.9519 249.826 90.3087C247.816 91.6152 245.741 91.6583 242.252 91.6583L240.486 91.6727Z" fill="#010202"/>
</svg>
