<svg width="300" height="150" viewBox="0 0 300 150" fill="none" xmlns="http://www.w3.org/2000/svg">
<path d="M171.621 62.8738C166.841 64.9376 161.699 66.3311 156.319 66.9308V49.8385H162.749L158.771 44H151.83L150.313 46.2313L148.796 44H141.855L137.887 49.8385H144.316V66.9308C138.936 66.3311 133.794 64.9376 129.014 62.8738L124.313 69.7795C126.368 70.732 128.485 71.5787 130.663 72.3019L132.463 69.6825C137.913 71.4199 143.708 72.3724 149.722 72.4254V72.4342C149.952 72.4342 150.172 72.4342 150.402 72.4342C156.602 72.4342 162.581 71.4729 168.191 69.6825L169.99 72.3019C172.159 71.5787 174.276 70.732 176.34 69.7795L171.621 62.8738ZM149.714 71.2083C143.513 71.1465 137.543 70.097 131.96 68.2184L130.187 70.8202C128.82 70.3351 127.471 69.806 126.148 69.2327L129.455 64.3731C134.482 66.4457 139.88 67.7863 145.533 68.2802V48.6214H140.197L142.517 45.2083H148.153L149.722 47.519V71.2083H149.714ZM168.667 68.2273C163.084 70.1058 157.113 71.1553 150.913 71.2171V47.5278L152.483 45.2083H158.119L160.438 48.6214H155.102V68.289C160.747 67.8039 166.153 66.4545 171.18 64.3819L174.488 69.2415C173.165 69.8148 171.815 70.344 170.448 70.829L168.667 68.2273Z" fill="#010202"/>
<path d="M87.5357 90.8142C87.5357 90.3996 87.2006 90.0557 86.7684 89.9939L86.1687 89.8793C85.9923 89.8528 85.86 89.7205 85.86 89.553V89.112C85.86 88.9709 85.9747 88.865 86.1246 88.865H92.1043C92.2542 88.865 92.3688 88.9797 92.3688 89.112V89.553C92.3688 89.7205 92.2277 89.8616 92.0602 89.8793L91.628 89.941C91.1959 90.0028 90.8695 90.3467 90.8695 90.7612V92.7192C90.8695 93.0367 90.6755 93.2836 90.4109 93.4424C87.0771 95.5238 84.6606 95.2768 84.6606 95.2768C80.6918 95.2768 77.4727 92.0401 77.4727 88.0536C77.4727 84.0672 80.6918 80.8304 84.6606 80.8304C85.7895 80.8304 86.8566 81.095 87.8003 81.5536C87.8003 81.5536 88.356 81.9505 88.6382 81.2185C88.6823 81.0862 88.8234 80.9892 88.9822 80.9892H89.3261C89.4849 80.9892 89.6172 81.0862 89.6701 81.2185L90.6226 84.323C90.6314 84.3494 90.6402 84.3847 90.6314 84.42C90.6226 84.517 90.5432 84.6052 90.4462 84.6317L89.5025 84.8081C89.4584 84.8169 89.4055 84.8257 89.3614 84.8169C89.2115 84.7992 89.1144 84.6846 89.0527 84.5876L88.8675 84.226C87.4211 81.3684 84.493 81.7389 84.493 81.7389C81.953 81.7918 81.0887 84.2436 81.1945 87.9743C81.3003 91.7402 82.2528 94.1215 84.7929 94.0686C84.7929 94.0686 86.301 94.1215 87.3594 93.0367C87.474 92.922 87.5269 92.728 87.5269 92.6398V90.8142H87.5357Z" fill="#010202"/>
<path d="M97.3609 80.9714H104.443C104.831 80.9714 105.157 81.2625 105.281 81.5712L105.986 83.4409C106.004 83.4674 106.004 83.5026 106.004 83.5379C106.004 83.6702 105.889 83.7849 105.739 83.7849H105.069C104.919 83.7849 104.813 83.6879 104.734 83.582L104.39 83.1146C103.72 82.1356 102.741 82.1885 102.741 82.1885H99.1071C98.7896 82.1885 98.5427 82.4178 98.5427 82.7089V84.9314C98.5427 85.2225 98.8073 85.4606 99.1248 85.4606H99.9715C100.527 85.4606 100.853 85.196 100.95 84.8432L101.153 84.2347C101.197 84.1024 101.338 84.0054 101.497 84.0054H101.956C102.115 84.0054 102.247 84.1024 102.3 84.2347L103.49 87.9036C103.499 87.93 103.508 87.9653 103.499 88.0006C103.49 88.0976 103.411 88.1858 103.314 88.2123L102.776 88.3357C102.732 88.3446 102.679 88.3534 102.635 88.3446C102.485 88.3269 102.388 88.2123 102.326 88.1153L101.956 87.445C101.956 87.445 101.594 86.7747 100.695 86.7747H99.1248C98.8073 86.7747 98.5515 87.0128 98.5515 87.3039V93.3541C98.5515 93.6451 98.8073 93.8744 99.116 93.8744H103.191C103.191 93.8744 104.249 93.9009 104.893 93.0189L105.36 92.3839C105.44 92.2781 105.545 92.1811 105.695 92.1811H106.366C106.516 92.1811 106.63 92.2869 106.63 92.428C106.63 92.4633 106.621 92.4897 106.613 92.525L105.731 94.6682C105.598 94.9857 105.272 95.1973 104.893 95.1973H93.6567C93.5067 95.1973 93.3921 95.0827 93.3921 94.9416V94.3242C93.3921 94.1566 93.5332 94.0155 93.7008 93.9979L94.5298 93.8832C94.962 93.8215 95.2971 93.4775 95.2971 93.063V83.1499C95.2971 82.7353 94.962 82.3914 94.5298 82.3296L93.7008 82.215C93.5244 82.1885 93.3921 82.0562 93.3921 81.8887V81.2713C93.3921 81.1302 93.5067 80.9803 93.6567 80.9803H97.3609V80.9714Z" fill="#010202"/>
<path d="M63.5644 95.1798C63.4145 95.1798 63.2998 95.0651 63.2998 94.924V94.3067C63.2998 94.1391 63.4409 93.998 63.6085 93.9803L64.4375 93.8657C64.8697 93.804 65.2048 93.46 65.2048 93.0455V83.15C65.2048 82.7354 64.8697 82.3915 64.4375 82.3297L63.6085 82.2151C63.4321 82.1886 63.2998 82.0563 63.2998 81.8888V81.2714C63.2998 81.1303 63.4145 80.9803 63.5644 80.9803H74.3419C74.7299 80.9803 75.0562 81.2714 75.1797 81.5801L75.8853 83.4498C75.9029 83.4763 75.9029 83.5116 75.9029 83.5468C75.9029 83.6791 75.7883 83.7938 75.6383 83.7938H74.968C74.8181 83.7938 74.7123 83.6968 74.6329 83.5909L74.2889 83.1235C73.6187 82.1445 72.6397 82.1974 72.6397 82.1974H69.006C68.6885 82.1974 68.4328 82.4268 68.4328 82.7178V84.9315C68.4328 85.2225 68.6974 85.4607 69.0149 85.4607H69.8527C70.4083 85.4607 70.7347 85.1961 70.8317 84.8433L71.0345 84.2348C71.0786 84.1025 71.2197 84.0054 71.3785 84.0054H71.8371C71.9959 84.0054 72.1282 84.1025 72.1811 84.2348L73.3717 87.9037C73.3805 87.9301 73.3894 87.9654 73.3805 88.0007C73.3717 88.0977 73.2923 88.1859 73.1953 88.2124L72.6573 88.3358C72.6132 88.3447 72.5603 88.3535 72.5162 88.3447C72.3663 88.327 72.2693 88.2124 72.2075 88.1154L71.8371 87.4451C71.8371 87.4451 71.4755 86.7748 70.5759 86.7748H69.006C68.6885 86.7748 68.4328 87.0041 68.4328 87.304V93.3542C68.4328 93.6452 68.6885 93.8745 69.006 93.8745H73.0807C73.0807 93.8745 74.139 93.901 74.7828 93.019L75.2503 92.384C75.3296 92.2782 75.4355 92.1812 75.5854 92.1812H76.2557C76.4056 92.1812 76.5203 92.287 76.5203 92.4281C76.5203 92.4634 76.5115 92.4987 76.5026 92.5251L75.6207 94.6594C75.4884 94.9769 75.1621 95.1886 74.7828 95.1886H63.5644V95.1798Z" fill="#010202"/>
<path d="M139.897 83.141C139.897 82.7265 140.233 82.3826 140.665 82.3208L141.494 82.2062C141.67 82.1797 141.802 82.0474 141.802 81.8798V81.2625C141.802 81.1214 141.688 80.9714 141.538 80.9714H135.011C134.861 80.9714 134.747 81.1214 134.747 81.2625V81.8798C134.747 82.0474 134.888 82.1885 135.056 82.2062L135.885 82.3208C136.317 82.3826 136.652 82.7265 136.652 83.141V93.0454C136.652 93.4599 136.317 93.8039 135.885 93.8656L135.056 93.9802C134.879 94.0067 134.747 94.139 134.747 94.3066V94.9239C134.747 95.0651 134.861 95.1797 135.011 95.1797H144.977C145.366 95.1797 145.692 94.9592 145.815 94.6505L146.697 92.5074C146.715 92.4809 146.715 92.4457 146.715 92.4104C146.715 92.2781 146.6 92.1634 146.45 92.1634H145.78C145.63 92.1634 145.524 92.2604 145.445 92.3663L144.977 93.0013C144.334 93.8832 143.275 93.8568 143.275 93.8568H140.462C140.144 93.8568 139.889 93.6275 139.889 93.3364V83.141H139.897Z" fill="#010202"/>
<path d="M151.283 80.9626H158.365C158.754 80.9626 159.08 81.2537 159.203 81.5624L159.909 83.4321C159.927 83.4586 159.927 83.4939 159.927 83.5291C159.927 83.6614 159.812 83.7761 159.662 83.7761H158.992C158.842 83.7761 158.736 83.6791 158.656 83.5732L158.313 83.1058C157.642 82.1268 156.663 82.1797 156.663 82.1797H153.03C152.712 82.1797 152.456 82.4091 152.456 82.7001V84.9226C152.456 85.2137 152.721 85.4518 153.038 85.4518H153.876C154.432 85.4518 154.758 85.1872 154.855 84.8344L155.058 84.2259C155.102 84.0936 155.243 83.9966 155.402 83.9966H155.861C156.019 83.9966 156.152 84.0936 156.205 84.2259L157.395 87.8948C157.404 87.9213 157.413 87.9565 157.404 87.9918C157.395 88.0888 157.316 88.177 157.219 88.2035L156.681 88.327C156.637 88.3358 156.584 88.3446 156.54 88.3358C156.39 88.3181 156.293 88.2035 156.231 88.1065L155.861 87.4362C155.861 87.4362 155.499 86.7659 154.6 86.7659H153.03C152.712 86.7659 152.456 87.004 152.456 87.2951V93.3453C152.456 93.6363 152.712 93.8656 153.03 93.8656H157.104C157.104 93.8656 158.163 93.8921 158.806 93.0101L159.274 92.3751C159.353 92.2693 159.459 92.1723 159.609 92.1723H160.279C160.429 92.1723 160.544 92.2781 160.544 92.4192C160.544 92.4545 160.535 92.481 160.526 92.5162L159.644 94.6594C159.521 94.9769 159.186 95.1886 158.806 95.1886H147.579C147.429 95.1886 147.315 95.0739 147.315 94.9328V94.3154C147.315 94.1479 147.456 94.0067 147.623 93.9891L148.452 93.8744C148.884 93.8127 149.22 93.4687 149.22 93.0542V83.1411C149.22 82.7266 148.884 82.3826 148.452 82.3209L147.623 82.2062C147.447 82.1797 147.315 82.0475 147.315 81.8799V81.2625C147.315 81.1214 147.429 80.9715 147.579 80.9715H151.283V80.9626Z" fill="#010202"/>
<path d="M202.04 89.4735C202.04 89.4735 201.714 93.8656 205.55 93.8656C209.007 93.8656 209.007 89.9321 209.007 89.9321V83.2116C209.007 82.7971 208.849 82.4531 208.416 82.3914L207.764 82.2767C207.587 82.2503 207.455 82.118 207.455 81.9504V81.333C207.455 81.1919 207.57 81.042 207.72 81.042H211.741C211.891 81.042 212.006 81.1919 212.006 81.333V81.9504C212.006 82.118 211.865 82.2591 211.697 82.2767L211.045 82.3914C210.613 82.4531 210.454 82.7971 210.454 83.2116V89.4646C210.48 90.2143 210.392 95.1709 205.021 95.1709C198.424 95.1709 198.777 89.5176 198.777 89.5176V83.141C198.777 82.7265 198.477 82.3826 198.045 82.3208L197.216 82.2062C197.039 82.1797 196.907 82.0474 196.907 81.8798V81.2625C196.907 81.1214 197.022 80.9714 197.172 80.9714H203.345C203.495 80.9714 203.61 81.1214 203.61 81.2625V81.8798C203.61 82.0474 203.469 82.1885 203.301 82.2062L202.648 82.3208C202.216 82.3826 202.058 82.7265 202.058 83.141V89.4735H202.04Z" fill="#010202"/>
<path d="M218.418 83.141C218.418 82.7265 218.753 82.3826 219.185 82.3208L220.014 82.2062C220.19 82.1797 220.323 82.0474 220.323 81.8798V81.2625C220.323 81.1214 220.208 80.9714 220.058 80.9714H213.532C213.382 80.9714 213.267 81.1214 213.267 81.2625V81.8798C213.267 82.0474 213.408 82.1885 213.576 82.2062L214.405 82.3208C214.837 82.3826 215.172 82.7265 215.172 83.141V93.0454C215.172 93.4599 214.837 93.8039 214.405 93.8656L213.576 93.9802C213.399 94.0067 213.267 94.139 213.267 94.3066V94.9239C213.267 95.0651 213.382 95.1797 213.532 95.1797H223.498C223.886 95.1797 224.212 94.9592 224.336 94.6505L225.218 92.5074C225.235 92.4809 225.235 92.4457 225.235 92.4104C225.235 92.2781 225.121 92.1634 224.971 92.1634H224.3C224.15 92.1634 224.045 92.2604 223.965 92.3663L223.498 93.0013C222.854 93.8832 221.796 93.8568 221.796 93.8568H218.982C218.665 93.8568 218.409 93.6275 218.409 93.3364V83.141H218.418Z" fill="#010202"/>
<path d="M232 82.6736C232 82.3826 232.247 82.1533 232.573 82.1533H234.231C234.231 82.1533 235.289 82.2679 235.933 83.1499L236.401 83.7849C236.48 83.8907 236.586 83.9877 236.736 83.9877H237.406C237.556 83.9877 237.671 83.8819 237.671 83.7408C237.671 83.7055 237.662 83.6702 237.653 83.6438L236.771 81.5006C236.639 81.1831 236.312 80.9714 235.933 80.9714H224.838C224.45 80.9714 224.124 81.1919 224 81.5006L223.118 83.6438C223.101 83.6702 223.101 83.7055 223.101 83.7408C223.101 83.8731 223.215 83.9877 223.365 83.9877H224.036C224.186 83.9877 224.291 83.8907 224.371 83.7849L224.838 83.1499C225.482 82.2679 226.54 82.1533 226.54 82.1533H228.199C228.516 82.1533 228.763 82.3826 228.763 82.6736V93.0189C228.763 93.4334 228.428 93.7774 227.996 93.8391L227.167 93.9538C226.99 93.9803 226.858 94.1125 226.858 94.2801V94.8975C226.858 95.0386 226.973 95.1885 227.123 95.1885H233.649C233.799 95.1885 233.914 95.0386 233.914 94.8975V94.2801C233.914 94.1125 233.772 93.9714 233.605 93.9538L232.776 93.8391C232.344 93.7774 232.009 93.4334 232.009 93.0189V82.6736H232Z" fill="#010202"/>
<path d="M61.8621 93.9803L61.6151 93.8921C61.6151 93.8921 60.9272 93.7421 60.4598 92.6485L56.5262 81.5359C56.5262 81.5359 56.3587 80.9714 55.6531 80.9714H52.9014C52.1959 80.9714 52.0283 81.5359 52.0283 81.5359L47.6891 92.6485C47.2481 93.8215 46.3573 93.9009 46.3573 93.9009L45.9516 93.9803C45.7929 94.0155 45.6782 94.1478 45.6782 94.3066V94.9416C45.6782 95.0739 45.7929 95.1885 45.9428 95.1885H50.3349C50.4849 95.1885 50.6083 95.0827 50.6083 94.9416V94.2978C50.6083 94.139 50.5025 94.0155 50.3438 93.9803L50.2203 93.945C49.8058 93.8568 49.5059 93.5305 49.5059 93.1336C49.5059 93.0366 49.5235 92.9395 49.5588 92.8514L49.9028 91.9694C49.9028 91.9694 50.0527 91.5725 50.5907 91.5725H55.953C56.491 91.5725 56.6409 91.9694 56.6409 91.9694L56.9496 92.8514C56.9849 92.9395 57.0025 93.0277 57.0025 93.1336C57.0025 93.5305 56.7026 93.8568 56.3058 93.945L56.1823 93.9803C56.0235 94.0155 55.9177 94.1478 55.9177 94.2978V94.9416C55.9177 95.0739 56.0412 95.1885 56.1911 95.1885H61.8797C62.0296 95.1885 62.1443 95.0827 62.1443 94.9416V94.3066C62.1443 94.1478 62.0208 94.0155 61.8621 93.9803ZM55.5473 90.2672H51.1022C50.5731 90.2672 50.7495 89.8351 50.7495 89.8351L53.0425 83.9613C53.0425 83.9613 53.2013 83.4497 53.4571 83.4497C53.7128 83.4497 53.8804 83.9613 53.8804 83.9613L55.9177 89.8351C55.9089 89.8351 56.0765 90.2672 55.5473 90.2672Z" fill="#010202"/>
<path d="M124.392 93.9803L123.881 93.9273C123.652 93.8568 122.717 93.9979 121.879 92.4721C120.194 89.4294 119.242 88.5739 118.915 88.2652C118.589 87.9565 119.004 87.8683 119.004 87.8683C122.955 86.9158 122.708 84.3229 122.708 84.3229C122.708 80.9538 118.413 80.9714 118.413 80.9714H108.455C108.306 80.9714 108.191 81.1214 108.191 81.2625V81.8799C108.191 82.0474 108.332 82.1885 108.5 82.2062L109.329 82.3208C109.761 82.3826 110.096 82.6736 110.096 83.0881V93.0366C110.096 93.4511 109.761 93.795 109.329 93.8568L108.5 93.9714C108.323 93.9979 108.191 94.1302 108.191 94.2978V94.9151C108.191 95.0562 108.306 95.1709 108.455 95.1709H114.991C115.141 95.1709 115.255 95.0562 115.255 94.9151V94.2978C115.255 94.1302 115.114 93.9891 114.947 93.9714L114.118 93.8568C113.685 93.795 113.35 93.4511 113.35 93.0366L113.342 89.0237C113.342 88.7326 113.597 88.4945 113.915 88.4945H114.85C114.85 88.4945 116.323 88.4239 117.354 90.276C117.354 90.276 118.113 91.6519 118.924 93.2482C119.736 94.8446 120.309 95.1797 122.734 95.1797H124.401C124.551 95.1797 124.666 95.0739 124.666 94.9328V94.2978C124.666 94.1478 124.551 94.0155 124.392 93.9803ZM116.658 87.1804H113.924C113.606 87.1804 113.342 86.9511 113.342 86.66V82.656C113.342 82.3649 113.597 82.1268 113.915 82.1268H116.658C116.658 82.1268 119.374 82.1444 119.374 84.6845C119.374 87.1539 116.658 87.1804 116.658 87.1804Z" fill="#010202"/>
<path d="M191.43 81.5447C190.477 81.0773 189.41 80.8215 188.29 80.8215C184.321 80.8215 181.102 84.0583 181.102 88.0447C181.102 92.04 184.321 95.2679 188.29 95.2679C192.259 95.2679 195.478 92.0312 195.478 88.0447C195.478 85.1872 193.829 82.7177 191.43 81.5447ZM188.467 94.0508C185.927 94.1126 184.948 91.7401 184.842 87.9742C184.727 84.0936 185.574 81.7917 188.114 81.7299C190.627 81.6682 191.633 83.9348 191.739 87.8066C191.853 91.6431 191.06 93.9891 188.467 94.0508Z" fill="#010202"/>
<path d="M254.807 94.0067L254.295 93.9538C254.066 93.8833 253.131 94.0244 252.293 92.4986C250.609 89.4559 249.656 88.6004 249.33 88.2917C249.012 87.983 249.418 87.8948 249.418 87.8948C253.369 86.9423 253.122 84.3493 253.122 84.3493C253.122 80.9803 248.827 80.9979 248.827 80.9979H238.879C238.729 80.9979 238.614 81.1479 238.614 81.289V81.9063C238.614 82.0739 238.755 82.215 238.923 82.2327L239.752 82.3473C240.184 82.4091 240.519 82.7001 240.519 83.1146V93.063C240.519 93.4776 240.184 93.8215 239.752 93.8833L238.923 93.9979C238.747 94.0244 238.614 94.1567 238.614 94.3242V94.9416C238.614 95.0827 238.729 95.1974 238.879 95.1974H245.414C245.564 95.1974 245.679 95.0827 245.679 94.9416V94.3242C245.679 94.1567 245.538 94.0156 245.37 93.9979L244.541 93.8833C244.109 93.8215 243.774 93.4776 243.774 93.063L243.765 89.0502C243.765 88.7591 244.021 88.521 244.338 88.521H245.273C245.273 88.521 246.746 88.4504 247.778 90.3025C247.778 90.3025 248.536 91.6784 249.348 93.2747C250.159 94.8711 250.732 95.2062 253.158 95.2062H254.825C254.974 95.2062 255.089 95.1004 255.089 94.9592V94.3242C255.08 94.1655 254.966 94.0332 254.807 94.0067ZM247.063 87.1981H244.329C244.012 87.1981 243.747 86.9688 243.747 86.6777V82.6736C243.747 82.3826 244.003 82.1445 244.32 82.1445H247.063C247.063 82.1445 249.78 82.1621 249.78 84.7021C249.789 87.1804 247.063 87.1981 247.063 87.1981Z" fill="#010202"/>
<path d="M132.48 86.9688C132.48 86.8365 132.366 86.7218 132.216 86.7218H125.927C125.777 86.7218 125.663 86.8276 125.663 86.9688V88.4857C125.663 88.618 125.777 88.7327 125.927 88.7327H132.216C132.366 88.7327 132.48 88.6268 132.48 88.4857V86.9688Z" fill="#010202"/>
<path d="M177.857 90.3732C175.449 93.901 171.877 93.7422 171.877 93.7422C167.988 93.8481 166.576 89.8264 166.418 84.8169C166.25 79.8074 167.432 75.7151 171.286 75.6093C171.286 75.6093 174.955 75.1066 177.345 78.8108C177.407 78.9166 177.504 79.0313 177.654 79.0401C177.707 79.0401 177.751 79.0401 177.795 79.0313L178.739 78.8549C178.836 78.8284 178.915 78.749 178.924 78.6432C178.924 78.6079 178.924 78.5726 178.915 78.5462L177.627 74.5862C177.583 74.4539 177.442 74.3569 177.283 74.3569H176.825C176.666 74.3569 176.534 74.4539 176.481 74.5862C176.331 75.8474 175.325 75.2036 175.325 75.2036C174.1 74.5774 172.724 74.2246 171.277 74.2246C165.977 74.2246 161.682 78.9342 161.682 84.7463C161.682 90.5584 165.977 95.268 171.277 95.268C172.874 95.268 174.399 94.827 175.722 94.0686C175.722 94.0686 176.834 93.3189 176.984 94.5801C177.028 94.7124 177.169 94.8094 177.327 94.8094H177.786C177.945 94.8094 178.077 94.7124 178.13 94.5801L179.418 90.6201C179.427 90.5937 179.435 90.5584 179.427 90.5231C179.418 90.4261 179.338 90.3379 179.241 90.3114L178.298 90.1351C178.254 90.1262 178.201 90.1174 178.157 90.1262C178.015 90.1615 177.918 90.2762 177.857 90.3732Z" fill="#010202"/>
<path d="M261.281 95.1973H255.918C255.768 95.1973 255.654 95.0827 255.654 94.9416V94.3242C255.654 94.1566 255.795 94.0155 255.962 93.9979L256.792 93.8832C257.224 93.8215 257.559 93.4775 257.559 93.063V83.1587C257.559 82.7442 257.224 82.4002 256.792 82.3385L255.962 82.2238C255.786 82.1974 255.654 82.0651 255.654 81.8975V81.2801C255.654 81.139 255.768 80.9891 255.918 80.9891H259.623H266.705C267.093 80.9891 267.419 81.2801 267.543 81.5888L268.248 83.4585C268.266 83.485 268.266 83.5203 268.266 83.5556C268.266 83.6878 268.151 83.8025 268.001 83.8025H267.331C267.181 83.8025 267.075 83.7055 266.996 83.5997L266.652 83.1322C265.981 82.1533 265.003 82.2062 265.003 82.2062H261.369C261.051 82.2062 260.796 82.4355 260.796 82.7353V84.9579C260.796 85.2489 261.06 85.487 261.378 85.487H262.224C262.78 85.487 263.106 85.2225 263.203 84.8697L263.406 84.2611C263.45 84.1288 263.591 84.0318 263.75 84.0318H264.209C264.368 84.0318 264.5 84.1288 264.553 84.2611L265.743 87.93C265.752 87.9565 265.761 87.9918 265.752 88.0271C265.743 88.1241 265.664 88.2123 265.567 88.2387L265.029 88.3622C264.985 88.371 264.932 88.3798 264.888 88.371C264.738 88.3534 264.641 88.2387 264.579 88.1417L264.209 87.4714C264.209 87.4714 263.847 86.8011 262.948 86.8011H261.378C261.06 86.8011 260.804 87.0305 260.804 87.3303V93.3805C260.804 93.6716 261.06 93.9009 261.378 93.9009H265.126C268.513 93.9009 269.906 93.1248 269.906 93.1248C271.423 92.4457 271.776 91.3785 271.45 90.8581C271.167 90.3201 270.374 90.0379 268.795 90.9022C266.784 92.0047 264.95 94.7123 264.95 94.7123C264.95 94.7123 262.154 98.4694 261.263 99.7041C260.372 100.939 257.144 105.428 248.528 105.428H50.5908C42.0358 105.428 40.1308 101.83 39.2401 100.595C38.3493 99.3602 35.5535 95.603 35.5535 95.603C35.5535 95.603 33.719 92.8954 31.7082 91.793C30.1295 90.9287 29.3357 91.2021 29.0535 91.7489C28.7272 92.2693 28.8859 93.0895 30.4382 94.0243C32.4049 95.2062 35.2889 94.8446 35.2889 94.8446C36.5589 94.7123 38.1553 94.3066 39.2842 93.257C41.3656 91.3256 41.0922 87.736 41.1451 86.2632V77.3554C41.1451 76.9056 40.8099 76.5352 40.3778 76.4647L39.5487 76.3324C39.3723 76.3059 39.2401 76.156 39.2401 75.9796V75.0623C39.2401 74.9124 39.3547 74.7889 39.5046 74.7889H47.4158C47.5657 74.7889 47.6803 74.9124 47.6803 75.0623V75.9796C47.6803 76.1648 47.5392 76.3147 47.3717 76.3324L46.5426 76.4647C46.1105 76.5264 45.7753 76.9056 45.7753 77.3554V79.3751C45.7753 79.3751 45.8459 83.0264 45.5725 86.025C45.2285 89.7381 44.62 95.021 37.1763 96.238C34.3805 96.6967 30.3411 96.1763 27.8717 94.58C25.1553 92.9131 24.2116 90.3731 25.1553 88.7591C26.0989 87.1363 28.5067 86.9952 31.0026 88.6092C31.0026 88.6092 33.8778 90.3025 37.3086 95.1885C40.7394 100.066 42.7502 101.803 48.0596 102.262H251.2C256.509 101.803 259.896 99.0074 263.327 94.1302C266.758 89.253 269.624 87.5508 269.624 87.5508C272.111 85.9368 274.528 86.0779 275.471 87.7007C276.415 89.3235 275.471 91.8547 272.755 93.5216C270.285 95.1268 267.737 95.1797 263.45 95.1797L261.281 95.1973Z" fill="#010202"/>
</svg>
