<svg width="300" height="150" viewBox="0 0 300 150" fill="none" xmlns="http://www.w3.org/2000/svg">
<path d="M110.194 83.2138C108.419 84.1878 104.797 84.676 103.229 84.676H100.549V64.8293C100.549 64.5169 100.793 64.1678 100.966 63.9578L102.011 62.6689C102.011 62.6689 102.082 62.4956 102.011 62.2515H95.0808C95.01 62.4956 95.0808 62.6689 95.0808 62.6689L96.1256 63.9578C96.299 64.1678 96.5431 64.5144 96.5431 64.8293V84.3269C96.5431 84.6394 96.194 85.1277 95.9865 85.301L95.0467 86.1359C95.0467 86.1359 94.9417 86.3458 95.0467 86.6241H109.913L110.748 83.2113C110.472 83.143 110.194 83.2138 110.194 83.2138Z" fill="black"/>
<path d="M135.189 73.9788C135.016 67.5707 130.036 62 123.281 62C121.436 62 119.59 62.3833 117.989 63.184C113.67 65.342 110.502 70.112 110.502 74.882C110.502 81.6368 116.072 87 122.41 87C124.045 87 125.647 86.7901 127.111 86.1651C131.742 84.2146 135.084 79.9328 135.189 73.9788ZM118.685 64.8195C126.311 63.3231 131.186 68.7181 131.186 75.2311C131.186 78.7122 129.653 82.3349 126.694 84.5271C119.522 85.5377 114.613 80.6627 114.613 73.7689C114.613 70.3219 115.797 66.98 118.685 64.8195Z" fill="black"/>
<path d="M152.468 83.5969C151.006 84.2926 146.724 84.6759 145.156 84.6759H142.823V76.0049H147.036L148.359 76.8056C148.359 76.8056 148.603 76.8764 148.848 76.8056V72.6971C148.638 72.6263 148.359 72.6971 148.359 72.6971L146.965 73.2879H142.823V64.2018H148.848L152.05 64.9342C152.05 64.9342 152.329 65.005 152.607 64.9342L152.016 62.2538H137.357C137.286 62.4979 137.357 62.6712 137.357 62.6712L138.402 63.9602C138.575 64.1701 138.819 64.5167 138.819 64.8317V84.3293C138.819 84.6417 138.47 85.13 138.263 85.3033L137.323 86.1382C137.323 86.1382 137.218 86.3481 137.323 86.6264H152.189L153.024 83.5969C152.746 83.5261 152.468 83.5969 152.468 83.5969Z" fill="black"/>
<path d="M204.587 83.5969C203.124 84.2927 198.843 84.6759 197.275 84.6759H194.942V76.0049H199.155L200.478 76.8056C200.478 76.8056 200.722 76.8764 200.966 76.8056V72.6971C200.756 72.6263 200.478 72.6971 200.478 72.6971L199.084 73.2879H194.942V64.2018H200.966L204.169 64.9342C204.169 64.9342 204.448 65.005 204.726 64.9342L204.135 62.2538H189.476C189.405 62.4979 189.476 62.6712 189.476 62.6712L190.521 63.9602C190.694 64.1677 190.938 64.5167 190.938 64.8292V84.3268C190.938 84.6393 190.589 85.1275 190.382 85.3009L189.442 86.1357C189.442 86.1357 189.337 86.3457 189.442 86.624H204.308L205.143 83.5945C204.865 83.5261 204.587 83.5969 204.587 83.5969Z" fill="black"/>
<path d="M187.833 62.2953H182.052C181.982 62.5394 182.052 62.7127 182.052 62.7127L183.131 63.7234C183.341 63.9333 183.62 64.2458 183.549 64.5582H183.551L178.43 80.4698L173.313 62.3295C172.964 62.2245 171.05 62.2245 170.667 62.3295L164.539 80.4356L160.289 64.734H160.292C160.221 64.4215 160.221 64.1774 160.363 64.0017L161.581 62.7127C161.581 62.7127 161.651 62.5394 161.581 62.2953H154.443C154.372 62.5394 154.443 62.7127 154.443 62.7127L155.627 64.0017C155.732 64.1066 155.976 64.5582 156.01 64.6974H156.015L162.103 86.6679C162.416 86.7729 164.227 86.7387 164.644 86.6679L170.808 68.3518L176.135 86.6679C176.484 86.7729 178.259 86.7729 178.642 86.6679L185.778 65.044L185.78 65.0465C185.885 64.734 186.058 64.3849 186.302 64.175L187.835 62.7127C187.833 62.7127 187.904 62.5394 187.833 62.2953Z" fill="black"/>
</svg>
