<svg width="300" height="150" viewBox="0 0 300 150" fill="none" xmlns="http://www.w3.org/2000/svg">
<path d="M95.6933 86.6502C93.2764 87.9767 88.3428 88.6416 86.2085 88.6416H82.5582V61.6133C82.5582 61.1878 82.8906 60.7124 83.1267 60.4265L84.5496 58.6712C84.5496 58.6712 84.646 58.4351 84.5496 58.1027H75.1113C75.0149 58.4351 75.1113 58.6712 75.1113 58.6712L76.5342 60.4265C76.7702 60.7124 77.1027 61.1845 77.1027 61.6133V88.1662C77.1027 88.5917 76.6273 89.2566 76.3447 89.4927L75.0648 90.6296C75.0648 90.6296 74.9218 90.9156 75.0648 91.2945H95.311L96.448 86.6469C96.0723 86.5538 95.6933 86.6502 95.6933 86.6502Z" fill="black"/>
<path d="M129.733 74.0736C129.497 65.3468 122.715 57.7603 113.516 57.7603C111.003 57.7603 108.489 58.2822 106.309 59.3726C100.428 62.3115 96.1123 68.8076 96.1123 75.3037C96.1123 84.5026 103.699 91.8065 112.329 91.8065C114.557 91.8065 116.738 91.5206 118.732 90.6695C125.039 88.0133 129.59 82.1821 129.733 74.0736ZM107.256 61.6001C117.642 59.5621 124.281 66.9093 124.281 75.7791C124.281 80.5198 122.193 85.4534 118.164 88.4388C108.396 89.8151 101.711 83.1761 101.711 73.7877C101.711 69.0935 103.323 64.5422 107.256 61.6001Z" fill="black"/>
<path d="M153.264 87.1721C151.272 88.1196 145.441 88.6416 143.307 88.6416H140.129V76.8329H145.867L147.669 77.9233C147.669 77.9233 148.001 78.0198 148.333 77.9233V72.3282C148.048 72.2318 147.669 72.3282 147.669 72.3282L145.77 73.1327H140.129V60.7589H148.333L152.695 61.7563C152.695 61.7563 153.074 61.8527 153.453 61.7563L152.649 58.106H132.685C132.589 58.4384 132.685 58.6744 132.685 58.6744L134.108 60.4298C134.344 60.7157 134.676 61.1878 134.676 61.6166V88.1695C134.676 88.595 134.201 89.2599 133.918 89.496L132.638 90.6329C132.638 90.6329 132.496 90.9188 132.638 91.2978H152.885L154.022 87.1721C153.643 87.0757 153.264 87.1721 153.264 87.1721Z" fill="black"/>
<path d="M224.242 87.1721C222.251 88.1196 216.419 88.6416 214.285 88.6416H211.107V76.8329H216.845L218.647 77.9233C218.647 77.9233 218.979 78.0198 219.312 77.9233V72.3282C219.026 72.2318 218.647 72.3282 218.647 72.3282L216.749 73.1327H211.107V60.7589H219.312L223.674 61.7563C223.674 61.7563 224.053 61.8527 224.432 61.7563L223.627 58.106H203.663C203.567 58.4384 203.663 58.6744 203.663 58.6744L205.086 60.4298C205.322 60.7124 205.655 61.1878 205.655 61.6133V88.1662C205.655 88.5917 205.179 89.2566 204.897 89.4926L203.617 90.6296C203.617 90.6296 203.474 90.9155 203.617 91.2945H223.863L225 87.1688C224.621 87.0757 224.242 87.1721 224.242 87.1721Z" fill="black"/>
<path d="M201.426 58.1625H193.554C193.457 58.4949 193.554 58.731 193.554 58.731L195.023 60.1073C195.309 60.3932 195.688 60.8188 195.591 61.2443H195.595L188.62 82.9134L181.652 58.209C181.176 58.0661 178.57 58.0661 178.048 58.209L169.704 82.8669L163.916 61.4837H163.919C163.822 61.0581 163.822 60.7257 164.015 60.4863L165.674 58.731C165.674 58.731 165.771 58.4949 165.674 58.1625H155.953C155.857 58.4949 155.953 58.731 155.953 58.731L157.566 60.4863C157.709 60.6293 158.041 61.2443 158.088 61.4338H158.094L166.386 91.3544C166.811 91.4973 169.278 91.4508 169.846 91.3544L178.241 66.4106L185.495 91.3544C185.97 91.4973 188.387 91.4973 188.909 91.3544L198.627 61.9059L198.63 61.9092C198.773 61.4837 199.009 61.0083 199.342 60.7223L201.429 58.731C201.426 58.731 201.522 58.4949 201.426 58.1625Z" fill="black"/>
</svg>
