<svg width="212" height="70" viewBox="0 0 212 88" fill="none" xmlns="http://www.w3.org/2000/svg">
<path d="M40.2339 58.1403C37.2992 59.7806 31.325 60.6008 28.7375 60.6008H24.3092V27.2467C24.3092 26.7199 24.7121 26.1331 24.9971 25.783L26.7199 23.6192C26.7199 23.6192 26.8378 23.3292 26.7199 22.9191H15.2792C15.1613 23.3292 15.2792 23.6192 15.2792 23.6192L17.0053 25.783C17.2902 26.1331 17.6964 26.7199 17.6964 27.2467V60.0207C17.6964 60.5408 17.1199 61.3643 16.776 61.6577L15.2202 63.0647C15.2202 63.0647 15.0499 63.4148 15.2202 63.8816H39.7688L41.1477 58.1436C40.6924 58.0269 40.2339 58.1403 40.2339 58.1403Z" fill="black"/>
<path d="M54.2545 27.233C66.8448 24.7191 74.8923 33.7878 74.8923 44.7336C74.8923 50.5883 72.3638 56.6697 67.477 60.3538C55.6334 62.0509 47.527 53.8624 47.527 42.2764C47.527 36.4818 49.4824 30.8638 54.2545 27.233ZM81.5019 42.6198C81.2169 31.8541 72.9926 22.4919 61.8434 22.4919C58.7974 22.4919 55.7513 23.1354 53.1081 24.4791C45.9778 28.1099 40.7471 36.1284 40.7471 44.1468C40.7471 55.4927 49.9442 64.5081 60.4055 64.5081C63.1077 64.5081 65.7509 64.1614 68.1681 63.1045C75.8094 59.8271 81.3283 52.6321 81.5019 42.6198Z" fill="black"/>
<path d="M110.028 58.7871C107.617 59.9674 100.542 60.6042 97.9549 60.6042H94.1064V46.0342H101.063L103.248 47.3812C103.248 47.3812 103.651 47.5012 104.053 47.3812V40.473C103.703 40.3563 103.248 40.473 103.248 40.473L100.948 41.4699H94.1096V26.1931H104.057L109.343 27.4234C109.343 27.4234 109.802 27.5401 110.26 27.4234L109.281 22.9191H85.0796C84.965 23.3292 85.0796 23.6192 85.0796 23.6192L86.8057 25.783C87.0907 26.1331 87.4968 26.7199 87.4968 27.2467V60.0207C87.4968 60.5408 86.9203 61.3643 86.5764 61.6577L85.0239 63.0647C85.0239 63.0647 84.8536 63.4148 85.0239 63.8816H109.572L110.955 58.7871C110.489 58.6671 110.028 58.7871 110.028 58.7871Z" fill="black"/>
<path d="M196.076 58.7871C193.666 59.9674 186.591 60.6042 184.003 60.6042H180.152V46.0342H187.105L189.293 47.3812C189.293 47.3812 189.689 47.5012 190.096 47.3812V40.473C189.752 40.3563 189.293 40.473 189.293 40.473L186.991 41.4699H180.152V26.1931H190.092L195.379 27.4234C195.379 27.4234 195.844 27.5401 196.292 27.4234L195.326 22.9191H171.122C171.007 23.3292 171.122 23.6192 171.122 23.6192L172.848 25.783C173.136 26.1331 173.539 26.7199 173.539 27.2467V60.0207C173.539 60.5408 172.966 61.3643 172.618 61.6577L171.073 63.0647C171.073 63.0647 170.899 63.4148 171.073 63.8816H195.618L197 58.7871C196.535 58.6671 196.076 58.7871 196.076 58.7871Z" fill="black"/>
<path d="M168.413 22.9886H158.869C158.757 23.3987 158.869 23.6921 158.869 23.6921L160.657 25.3858C161.001 25.7392 161.46 26.2626 161.345 26.7894H161.351L152.895 53.5319L144.444 23.042C143.868 22.8652 140.71 22.8652 140.075 23.042L129.961 53.4718L122.939 27.0828H122.942C122.831 26.5527 122.831 26.146 123.057 25.8526L125.068 23.6888C125.068 23.6888 125.182 23.3954 125.068 22.9853H113.286C113.159 23.3954 113.286 23.6888 113.286 23.6888L115.238 25.8526C115.412 26.0259 115.808 26.7861 115.867 27.0228H115.877L125.929 63.9441C126.446 64.1241 129.437 64.0608 130.121 63.9441L140.298 33.1641L149.095 63.9441C149.672 64.1241 152.6 64.1241 153.232 63.9441L165.017 27.6063L165.02 27.6096C165.197 27.0828 165.482 26.496 165.881 26.146L168.41 23.6888C168.413 23.6921 168.528 23.402 168.413 22.9886Z" fill="black"/>
</svg>
