<svg width="212" height="88" viewBox="0 0 212 88" fill="none" xmlns="http://www.w3.org/2000/svg">
<g clip-path="url(#clip0_4191_40764)">
<path d="M96.989 35.2455C96.0992 35.2455 94.8527 35.8114 93.2841 36.9269C91.7192 38.0387 90.3017 39.6255 89.0697 41.6398C88.0452 41.8728 87.0553 41.9892 86.1273 41.9892C84.919 41.9892 84.0365 41.769 83.5033 41.3323C82.972 40.8974 82.7026 40.3879 82.7026 39.8129C82.7026 39.025 83.052 38.2152 83.7399 37.4054C84.4295 36.5939 85.4358 35.9715 86.7296 35.5566C88.027 35.1399 89.3117 34.9288 90.5455 34.9288C90.9404 34.9288 91.317 34.947 91.6646 34.9798L91.6974 34.9834L91.7119 34.8306L91.6792 34.8269C91.2715 34.7924 90.8821 34.7742 90.5182 34.7742C88.3582 34.7742 86.4567 35.2218 84.8663 36.1044C83.2704 36.9905 82.4606 38.1606 82.4606 39.5836C82.4606 40.2696 82.739 40.8738 83.2868 41.3778C83.8345 41.8819 84.7734 42.1384 86.0763 42.1384C87.0371 42.1384 88.0016 42.0256 88.9405 41.8018C87.301 44.3475 85.6433 45.887 84.0128 46.3747C82.7572 45.9598 81.4725 45.7505 80.1951 45.7505C79.016 45.7505 78.4446 45.9816 78.4446 46.4566C78.4446 46.6385 78.592 46.7841 78.8813 46.8896C79.1597 46.9915 79.7748 47.0425 80.7064 47.0425C81.7255 47.0425 82.6972 46.9097 83.5907 46.6476C84.5132 46.9497 85.4795 47.1044 86.4585 47.1044C88.36 47.1044 89.9177 46.6221 91.1005 45.6741C91.0186 45.8633 90.9768 46.0562 90.9768 46.2527C90.9768 46.4948 91.0295 46.6931 91.1333 46.846C91.2406 47.0025 91.3898 47.0807 91.5791 47.0807C92.0103 47.0807 92.7819 46.6203 93.9392 45.6741C93.7263 46.0144 93.6189 46.3055 93.6189 46.5384C93.6189 46.684 93.6608 46.8114 93.7427 46.9169C93.8264 47.0261 93.9428 47.0807 94.0921 47.0807C94.254 47.0807 94.4833 46.9879 94.7945 46.795C95.0947 46.6094 95.7152 46.1181 96.6378 45.3374L96.6651 45.3138L96.5577 45.2064L96.5341 45.2264C95.6697 45.9616 95.0783 46.4365 94.7744 46.6385C94.476 46.8369 94.2595 46.9388 94.1285 46.9388C94.0666 46.9388 94.0047 46.9169 93.9447 46.8714C93.8864 46.8296 93.8591 46.7659 93.8591 46.6804C93.8591 46.5421 93.9756 46.351 94.2085 46.1126L96.6851 43.5269H95.8299L95.2457 44.1365C95.2494 44.0782 95.2512 44.0255 95.2512 43.9818C95.2512 43.6852 95.0747 43.5341 94.7271 43.5341C94.0921 43.5341 93.3023 43.8216 92.3779 44.3894C91.9194 44.6714 91.5736 44.9662 91.3407 45.2738C90.5564 45.9543 89.7885 46.3965 89.057 46.5803C88.3055 46.7714 87.5976 46.8678 86.9534 46.8678C86.2438 46.8678 85.3576 46.724 84.3203 46.4384C84.8717 46.2837 85.3557 46.0963 85.7634 45.8797C86.1983 45.6504 86.6623 45.3338 87.1463 44.9408C87.6285 44.5477 88.0471 44.1401 88.3892 43.7288C88.7313 43.3194 89.2681 42.5915 89.985 41.5671C91.8648 41.1412 93.6935 40.3424 95.4241 39.1942C97.1637 38.0387 98.0462 37.0251 98.0462 36.1826C98.0462 35.9097 97.9462 35.6822 97.7496 35.5057C97.5549 35.331 97.2965 35.2418 96.9854 35.2418L96.989 35.2455ZM92.2251 38.4791C93.1294 37.4491 94.012 36.6685 94.849 36.1608C95.6843 35.6549 96.4031 35.3983 96.9872 35.3983C97.2383 35.3983 97.4548 35.4693 97.6313 35.6112C97.806 35.7513 97.8952 35.9242 97.8952 36.1244C97.8952 36.8523 97.12 37.7894 95.5933 38.914C94.0775 40.0294 92.2305 40.8701 90.1051 41.4124C90.6292 40.4734 91.3407 39.4853 92.2251 38.4791ZM80.7174 46.8969C79.793 46.8969 79.2052 46.8514 78.9723 46.7604C78.7485 46.6731 78.6356 46.573 78.6356 46.4602C78.6356 46.1345 79.127 45.9707 80.0969 45.9707C80.943 45.9707 82.0184 46.1745 83.2904 46.5785C82.639 46.7914 81.7746 46.8987 80.7174 46.8987V46.8969ZM94.7089 43.6888C94.9528 43.6888 95.0729 43.7798 95.0729 43.9654C95.0729 44.151 95.0001 44.3457 94.8545 44.5532C94.7071 44.7661 94.3523 45.1118 93.8009 45.5849C93.2477 46.058 92.7746 46.4038 92.3979 46.6149C92.0231 46.8241 91.7519 46.9297 91.5918 46.9297C91.4844 46.9297 91.4062 46.9006 91.348 46.8405C91.2897 46.7805 91.2624 46.7186 91.2624 46.6513C91.2624 46.3237 91.7246 45.7414 92.6345 44.9226C93.5462 44.1019 94.2449 43.687 94.7108 43.687L94.7089 43.6888Z" fill="black"/>
<path d="M123.032 42.3404C123.154 42.3404 123.269 42.2949 123.378 42.2039C123.487 42.1111 123.544 41.9946 123.544 41.86C123.544 41.7654 123.513 41.6835 123.449 41.6143C123.385 41.5434 123.305 41.5088 123.211 41.5088C123.083 41.5088 122.965 41.5616 122.863 41.6653C122.761 41.769 122.708 41.8818 122.708 41.9983C122.708 42.0929 122.739 42.1748 122.803 42.2403C122.867 42.3076 122.943 42.3404 123.032 42.3404Z" fill="black"/>
<path d="M135.794 45.2082L135.21 45.7032C134.747 46.0962 134.325 46.391 133.956 46.5748C133.588 46.7586 133.313 46.8514 133.141 46.8514C133.079 46.8514 133.024 46.8314 132.977 46.7895C132.93 46.7495 132.906 46.704 132.906 46.6494C132.906 46.5766 132.953 46.4875 133.05 46.3819C133.148 46.2709 133.41 46.0344 133.828 45.6795C134.249 45.3211 134.544 45.019 134.702 44.7806C134.864 44.5386 134.946 44.3002 134.946 44.0691C134.946 43.7197 134.736 43.5432 134.325 43.5432C133.808 43.5432 132.92 44.0946 131.612 45.2301C132.036 44.757 132.251 44.3348 132.251 43.9745C132.251 43.8362 132.205 43.7234 132.114 43.6415C132.025 43.5596 131.918 43.5178 131.794 43.5178C131.295 43.5178 130.389 44.0709 129.024 45.2082L129.003 45.2283L128.995 45.2355C128.81 45.4084 128.622 45.4976 128.439 45.4976C128.284 45.4976 128.162 45.4466 128.067 45.3411C128.582 44.7351 128.833 44.2802 128.833 43.9508C128.833 43.6215 128.657 43.4522 128.309 43.4522C127.962 43.4522 127.512 43.5796 126.945 43.8307C126.377 44.0819 125.865 44.4385 125.427 44.8916C125.298 45.0263 125.189 45.1627 125.096 45.301L124.615 45.7087C124.806 45.4084 124.905 45.0863 124.905 44.7479C124.905 44.5404 124.885 44.3075 124.845 44.0546C124.805 43.8071 124.785 43.6215 124.785 43.5014C124.785 43.3594 124.817 43.2412 124.883 43.1484C124.95 43.0537 125.105 42.9063 125.343 42.7135L125.365 42.6953L125.28 42.5515L122.104 45.2082L122.081 45.2283C122.077 45.2301 122.075 45.2319 122.073 45.2355L122.055 45.2519C121.234 45.9652 120.65 46.4202 120.321 46.6021C119.99 46.7859 119.733 46.8787 119.555 46.8787C119.477 46.8787 119.413 46.8532 119.362 46.8023C119.311 46.7513 119.286 46.6931 119.286 46.6276V46.573C119.318 46.4766 119.386 46.3783 119.484 46.28L122.281 43.5287H121.353L121.344 43.5359C120.234 44.3985 119.524 44.9608 119.229 45.2101L119.213 45.2228C119.211 45.2228 119.207 45.2264 119.205 45.2283L119.196 45.2374C118.337 45.9671 117.748 46.4402 117.448 46.6403C117.149 46.8387 116.931 46.9406 116.802 46.9406C116.74 46.9406 116.678 46.9187 116.618 46.8733C116.56 46.8314 116.532 46.7677 116.532 46.6822C116.532 46.5439 116.649 46.3528 116.882 46.1144L119.358 43.5287H118.503L117.919 44.1383C117.923 44.0782 117.924 44.0273 117.924 43.9836C117.924 43.687 117.748 43.5359 117.4 43.5359C116.765 43.5359 115.975 43.8235 115.051 44.3912C114.585 44.6769 114.234 44.979 114.001 45.2901C112.673 46.3874 111.708 46.946 111.137 46.946C111.011 46.946 110.906 46.9078 110.813 46.8296C110.722 46.7513 110.678 46.6603 110.678 46.5475C110.678 45.978 111.888 44.2292 114.272 41.3523C116.662 38.4699 118.625 36.3446 120.106 35.0344L120.203 34.9489L120.077 34.978C118.856 35.26 117.471 36.0589 115.957 37.3545C114.445 38.6483 112.887 40.2405 111.328 42.0911L109.022 44.8261C108.238 45.7578 107.692 46.3528 107.399 46.5948C107.11 46.8332 106.901 46.9533 106.777 46.9533C106.63 46.9533 106.611 46.8787 106.611 46.8132C106.611 46.8132 106.611 46.7986 106.628 46.7441C106.639 46.7058 106.651 46.6749 106.668 46.6476C107.052 45.9379 107.889 44.7533 109.157 43.1265C110.425 41.4997 111.701 39.9548 112.948 38.5373C114.194 37.1197 115.304 35.9588 116.248 35.0835L116.347 34.9925L116.218 35.0289C115.027 35.3565 113.708 36.1044 112.302 37.2489C110.897 38.3917 109.206 40.1641 107.279 42.5133C106.506 43.4468 105.896 44.1437 105.467 44.5877C105.037 45.0299 104.526 45.4612 103.942 45.8688C103.36 46.2764 102.839 46.5657 102.395 46.7277C101.951 46.8896 101.516 46.9715 101.103 46.9715C100.73 46.9715 100.399 46.8969 100.121 46.7513C99.8494 46.6076 99.7111 46.4383 99.7111 46.2455C99.7111 46.2054 99.7184 46.149 99.7348 46.0799C99.8458 46.1417 99.955 46.1745 100.059 46.1745C100.204 46.1745 100.333 46.1254 100.443 46.0289C100.554 45.9307 100.61 45.8087 100.61 45.6668C100.61 45.5249 100.554 45.4011 100.444 45.2938C100.335 45.1882 100.202 45.1336 100.05 45.1336C99.8567 45.1336 99.6875 45.2082 99.5474 45.3556C99.4073 45.503 99.3345 45.6868 99.3345 45.9034C99.3345 46.2546 99.4982 46.5493 99.8185 46.7804C100.137 47.0097 100.545 47.1244 101.034 47.1244C101.491 47.1244 101.96 47.0388 102.432 46.8678C102.901 46.6986 103.425 46.4129 103.989 46.0216C104.552 45.6304 105.079 45.1846 105.558 44.6969C106.035 44.2092 106.699 43.4431 107.532 42.4187C108.364 41.3978 109.104 40.5389 109.734 39.8675C110.362 39.196 111.084 38.4991 111.881 37.7967C112.68 37.0924 113.382 36.5502 113.967 36.1844C114.54 35.8259 115.157 35.5275 115.801 35.2946C114.558 36.3173 113.715 37.036 113.293 37.4327C112.867 37.8331 112.143 38.5882 111.141 39.68C110.138 40.7718 109.281 41.7581 108.597 42.6097C107.911 43.4613 107.39 44.1747 107.048 44.7297C106.706 45.2847 106.495 45.6905 106.419 45.9379C106.344 46.1854 106.306 46.402 106.306 46.5821C106.306 46.7222 106.348 46.846 106.429 46.9515C106.513 47.0607 106.628 47.1153 106.772 47.1153C106.977 47.1153 107.25 46.9479 107.601 46.6058C107.943 46.2728 108.737 45.3666 109.961 43.9126C111.182 42.4623 112.225 41.2613 113.06 40.3424C113.894 39.4253 114.762 38.5664 115.641 37.7894C116.518 37.0124 117.282 36.4264 117.912 36.0479C118.529 35.6785 119.094 35.4165 119.597 35.2728V35.2764C117.564 36.8286 115.504 38.8084 113.473 41.1631C111.434 43.5305 110.4 45.2556 110.4 46.2891C110.4 46.533 110.473 46.7331 110.617 46.886C110.76 47.0388 110.937 47.1171 111.141 47.1171C111.73 47.1171 112.616 46.6331 113.777 45.6814C113.697 45.8688 113.655 46.0599 113.655 46.2564C113.655 46.4984 113.708 46.6967 113.812 46.8496C113.919 47.0061 114.068 47.0843 114.258 47.0843C114.689 47.0843 115.461 46.624 116.618 45.6777C116.405 46.018 116.298 46.3092 116.298 46.5421C116.298 46.6876 116.339 46.815 116.421 46.9206C116.505 47.0297 116.623 47.0843 116.771 47.0843C116.933 47.0843 117.162 46.9915 117.473 46.7986C117.773 46.613 118.392 46.1235 119.309 45.3447L120.17 44.6332L120.818 44.1419C119.939 44.9917 119.42 45.5431 119.278 45.7778C119.129 46.0271 119.053 46.2655 119.053 46.4893C119.053 46.6531 119.1 46.7859 119.196 46.8842C119.291 46.9824 119.417 47.0316 119.569 47.0316C120.032 47.0316 120.889 46.4784 122.19 45.3393L124.655 43.2994C124.612 43.4668 124.581 43.6488 124.561 43.8453C124.504 44.5677 124.19 45.2665 123.624 45.9216C123.06 46.5748 122.55 46.906 122.108 46.906C121.824 46.906 121.677 46.8041 121.658 46.593C121.7 46.6039 121.733 46.6076 121.762 46.6076C121.857 46.6076 121.948 46.5657 122.031 46.482C122.115 46.3983 122.157 46.3019 122.157 46.1963C122.157 46.1181 122.126 46.0489 122.064 45.9907C122.004 45.9325 121.931 45.9034 121.848 45.9034C121.718 45.9034 121.604 45.9543 121.509 46.0562C121.415 46.1563 121.365 46.28 121.365 46.4202C121.365 46.6076 121.44 46.7641 121.589 46.8824C121.735 46.9988 121.913 47.057 122.115 47.057C122.845 47.057 123.782 46.5876 124.907 45.6632C124.816 45.8797 124.768 46.1017 124.768 46.3255C124.768 46.5493 124.83 46.7222 124.95 46.8496C125.072 46.977 125.221 47.0407 125.398 47.0407C125.725 47.0407 126.138 46.8842 126.624 46.5785C127.099 46.2782 127.552 45.9052 127.973 45.4666C128.1 45.5886 128.257 45.6504 128.439 45.6504C128.662 45.6504 128.883 45.5503 129.092 45.3593L129.106 45.3465C129.11 45.3429 129.114 45.3411 129.117 45.3374H129.119C130.451 44.2201 131.354 43.6542 131.798 43.6542C131.985 43.6542 132.007 43.7434 132.007 43.8125C132.007 43.8853 131.91 44.0691 131.456 44.5259L129.015 46.9551H129.965L129.974 46.946C130.977 45.9871 131.867 45.1973 132.622 44.5968C133.372 44.0018 133.963 43.6997 134.38 43.6997C134.693 43.6997 134.693 43.8508 134.693 43.8999C134.693 43.9963 134.578 44.2074 134.03 44.6714L133.634 45.0099C133.293 45.2974 133.077 45.4976 132.986 45.6031C132.895 45.7087 132.813 45.8397 132.74 45.9907C132.666 46.1454 132.629 46.2982 132.629 46.4456C132.629 46.6039 132.678 46.7386 132.777 46.8441C132.875 46.9515 132.993 47.0061 133.13 47.0061C133.723 47.0061 134.651 46.4456 135.89 45.3393L135.916 45.3156L135.81 45.2101L135.794 45.2082ZM117.371 43.687C117.615 43.687 117.735 43.778 117.735 43.9636C117.735 44.1492 117.662 44.3439 117.517 44.5513C117.369 44.7642 117.015 45.11 116.463 45.5831C115.91 46.0562 115.437 46.402 115.06 46.613C114.685 46.8223 114.414 46.9278 114.254 46.9278C114.147 46.9278 114.068 46.8987 114.01 46.8387C113.952 46.7786 113.925 46.7168 113.925 46.6494C113.925 46.3219 114.387 45.7396 115.297 44.9207C116.208 44.1001 116.907 43.6852 117.373 43.6852L117.371 43.687ZM125.401 46.886C125.305 46.886 125.221 46.8551 125.147 46.795C125.074 46.735 125.038 46.6713 125.038 46.6003C125.038 46.3292 125.48 45.7523 126.351 44.888C127.223 44.0236 127.88 43.5851 128.306 43.5851C128.402 43.5851 128.486 43.616 128.564 43.6815C128.641 43.7452 128.677 43.8235 128.677 43.9235C128.677 44.1237 128.582 44.3657 128.398 44.6441C128.211 44.9262 127.944 45.2501 127.605 45.6068C127.267 45.9616 126.87 46.2691 126.424 46.5166C125.98 46.7623 125.636 46.8878 125.401 46.8878V46.886Z" fill="black"/>
<path d="M110.675 21.5014C110.762 21.2903 110.893 21.1301 111.061 20.9919C111.308 20.839 111.563 20.839 111.774 20.839C111.905 20.839 111.919 20.7225 111.919 20.6643H108.22C108.191 20.7225 108.235 20.839 108.293 20.839C108.635 20.839 108.875 20.839 109.123 21.0064C109.45 21.2757 109.632 21.727 109.392 22.1856L106.508 29.3715C106.449 29.4734 106.355 29.488 106.311 29.4006L103.136 21.727C102.976 21.2175 103.602 20.839 103.878 20.839H104.22C104.33 20.839 104.33 20.6643 104.33 20.6643H99.4801C99.451 20.7517 99.4946 20.839 99.5674 20.839C100.106 20.839 100.579 21.1593 100.921 21.6178C102.675 25.3828 104.22 29.2987 105.982 33.0564L110.671 21.5014H110.675Z" fill="black"/>
<path d="M105.709 17.3725L105.731 17.3507L106.509 18.064H107.696V18.428H109.741L109.872 18.064L110.127 18.428L109.668 19.8328H101.811L101.345 18.428L101.607 18.064L101.738 18.428H103.769V18.064H104.963L105.705 17.3725H105.709ZM105.709 17.8821L105.119 18.428H104.086V18.7919H101.815L102.077 19.4688H109.408L109.612 18.7919H107.392V18.428H106.358L105.74 17.8529L105.711 17.8821H105.709Z" fill="black"/>
<path d="M150 88H62V0H150V88ZM65.4938 84.5062H146.506V3.4938H65.4938V84.5062Z" fill="black"/>
<path d="M75.0144 51.5644C75.5694 51.579 76.2791 51.6008 76.9305 51.6008C77.582 51.6008 78.823 51.5735 79.3926 51.559V51.7118L79.2033 51.7446C78.5955 51.8247 78.2171 52.0667 78.2171 52.3578C78.2171 52.6071 78.248 52.7927 78.4573 53.3059L81.1959 59.7021L83.8854 53.2258C84.0528 52.8237 84.0728 52.5926 84.0073 52.3233C83.9272 51.9903 83.5396 51.7155 83.2212 51.7155H82.9919V51.5481C83.4214 51.5626 84.3294 51.5899 84.828 51.5899C85.3266 51.5899 85.887 51.5572 86.3711 51.5444L86.382 51.7173L86.0344 51.7592C85.4594 51.8665 85.2465 52.0048 84.7989 53.1112L80.8683 63.1522H80.73L76.5302 52.8364C76.2154 52.0794 75.7041 51.7974 75.1946 51.7355L75.0162 51.7191V51.5663" fill="black"/>
<path fill-rule="evenodd" clip-rule="evenodd" d="M126.188 53.5334C126.2 53.4333 126.199 53.2586 126.199 53.2586L136.891 53.2495C136.891 53.2495 136.92 54.6816 136.92 55.4277C136.766 55.4277 136.835 55.4313 136.727 55.4277C136.633 54.5651 136.061 53.9683 135.393 53.9301C134.909 53.9028 134.322 53.8973 133.683 53.9137V61.2871C133.683 61.5928 133.616 62.2861 133.99 62.6555C134.338 62.8484 134.662 62.8138 135.008 62.8611C135.008 62.9248 135.011 63.0103 135.011 63.0722C133.637 63.0722 132.311 63.0685 130.937 63.0685C130.939 62.9994 130.937 62.9412 130.937 62.852C131.377 62.8465 131.881 62.7646 132.065 62.5044C132.256 62.2333 132.22 61.6528 132.22 61.4763V53.9264C130.076 53.8846 129.525 53.8627 129.308 55.455C129.276 55.455 129.245 55.4495 129.179 55.4459C129.179 54.8272 129.174 54.223 129.174 53.6043C128.813 53.6116 128.633 53.699 128.46 53.8664C128.289 54.0356 128.268 54.8017 128.268 55.0492V63.2287H128.113C126.011 60.6666 121.906 55.6005 121.558 55.1747C121.542 55.1565 121.526 55.1984 121.526 55.1984C121.526 55.1984 121.529 59.4401 121.529 61.2834C121.529 62.0095 121.578 62.3843 121.833 62.6227C122.192 62.7283 122.485 62.7701 122.912 62.7737V63.0394H119.56V62.7737C120.084 62.7919 120.348 62.6955 120.639 62.5081C120.785 61.873 120.794 61.4053 120.794 60.6647V54.365C120.288 53.9665 120.072 53.4861 119.162 53.4551C119.175 53.3787 119.167 53.2604 119.167 53.2604C119.167 53.2604 121.051 53.2659 121.975 53.2659C123.838 55.6115 125.678 57.9498 127.542 60.2953C127.552 60.3099 127.563 60.2953 127.574 60.3099C127.587 59.3655 127.587 56.5996 127.583 54.9455C127.583 54.2431 127.392 53.7445 127.112 53.6808C126.896 53.557 126.515 53.5297 126.188 53.5297" fill="black"/>
<path d="M114.793 62.7192C112.081 62.7192 111.301 60.2316 111.301 57.9843C111.301 55.0619 112.831 53.5552 114.738 53.5552C117.124 53.5552 118.21 56.01 118.21 58.2409C118.21 60.7921 116.985 62.7173 114.793 62.7173V62.7192ZM114.78 52.9747C111.814 52.9747 109.625 54.9964 109.625 58.2427C109.625 60.9868 111.537 63.2068 114.738 63.2068C117.939 63.2068 119.862 60.8012 119.862 58.0917C119.862 55.2075 117.491 52.9766 114.78 52.9766" fill="black"/>
<path d="M85.6141 59.138L87.0025 55.8808C87.0025 55.8808 87.0789 55.7989 87.0953 55.8389C87.2791 56.2957 88.3745 59.1362 88.3745 59.1362H85.6141V59.138ZM109.803 62.8502C109.472 62.7883 109.141 62.7501 108.917 62.5845C108.631 62.4153 108.648 61.8439 108.648 61.3089V54.7562C108.648 54.5579 108.558 54.1102 108.879 53.7972C109.048 53.6316 109.499 53.5861 109.803 53.5698V53.3041H107.068C106.093 55.6133 105.116 57.9243 104.14 60.2353C103.087 57.9243 102.131 55.6151 101.078 53.3041H98.3027C98.29 53.3168 98.2773 53.3296 98.2645 53.3423V53.4933C98.5193 53.5407 99.2799 53.6844 99.4528 53.9792C99.5092 54.0756 99.5747 54.2321 99.5747 54.7562C99.5747 55.7043 99.5911 60.8048 99.5911 61.2015C99.5911 61.6801 99.5219 62.0459 99.42 62.2442C99.2508 62.5718 98.825 62.7519 98.381 62.812C98.5611 62.0295 98.7103 61.207 98.8905 60.4227C98.8195 60.4227 98.8286 60.4227 98.7031 60.4227C98.4447 61.1033 97.8606 62.3388 96.4485 62.3589C95.8334 62.368 95.4695 62.3461 94.9327 62.3643C94.4741 62.3643 94.3613 61.8803 94.3613 61.3944C94.3613 61.2052 94.3631 55.5787 94.3631 54.8126C94.3631 54.3723 94.3668 54.0756 94.556 53.8354C94.7453 53.5952 95.0127 53.5625 95.444 53.5698C95.444 53.4806 95.4422 53.3041 95.4422 53.3041H91.6281V53.5316C92.0758 53.6426 92.4597 53.6043 92.7072 53.9101C92.8692 54.1102 92.8055 54.6943 92.8055 54.8399V61.6674C92.8055 62.2005 92.6362 62.6027 92.1686 62.6973C91.7519 62.6718 91.4607 62.1387 91.3861 61.9476C90.5782 60.1552 89.3444 57.1782 88.5365 55.3858C88.229 54.6543 87.5921 53.1895 87.5921 53.1895L87.3719 53.2277C87.3719 53.2277 86.5294 55.2039 86.3529 55.6169C85.5049 57.5731 84.6242 59.5165 83.8108 61.4872C83.2012 62.781 82.6534 62.7756 82.4624 62.812C82.4515 62.8866 82.4624 63.0394 82.4624 63.0394L85.3902 63.0467V62.812C85.0118 62.8156 84.7461 62.7701 84.5823 62.6482C84.3548 62.479 84.3185 62.186 84.4422 61.8694C84.6496 61.3398 85.1064 60.399 85.3902 59.7804H88.7548C89.1952 60.8103 89.419 61.3762 89.581 61.7729C90.0068 62.8174 88.8913 62.8101 88.7421 62.8065C88.733 62.8993 88.7457 62.9102 88.7421 63.0758H101.578C101.578 63.0758 101.585 62.9248 101.585 62.8101C101.125 62.7992 100.696 62.7064 100.506 62.4316C100.283 62.1842 100.313 61.378 100.313 61.1433V55.1966L103.587 63.0685L103.76 63.074L107.183 55.2275C107.183 55.2275 107.137 58.8068 107.15 60.5737C107.15 61.1142 107.277 61.9876 107.074 62.3916C106.917 62.7028 106.433 62.8101 105.995 62.8465V63.074C107.277 63.0612 108.535 63.074 109.818 63.0594C109.805 62.9957 109.821 62.9102 109.809 62.8465" fill="black"/>
</g>
<defs>
<clipPath id="clip0_4191_40764">
<rect width="88" height="88" fill="white" transform="translate(62)"/>
</clipPath>
</defs>
</svg>
