<svg width="212" height="70" viewBox="0 0 212 88" fill="none" xmlns="http://www.w3.org/2000/svg">
<path d="M66.0902 39.839C68.1711 39.7755 69.5121 39.3664 70.1109 38.5973C70.711 37.8283 71.0141 35.5 71.0141 33.976V6.0291C69.3001 4.01824 68.2422 2.83299 67.8392 2.5014C67.3315 2.10631 66.7177 1.85931 66.0752 1.79581V0.300049H78.07L97.3453 25.1636H97.6135V7.63776C97.6135 5.641 97.2679 4.21585 96.5768 3.40447C95.8857 2.59309 94.4947 1.99342 92.4139 1.84521V0.300049H104.521V1.79581C102.771 2.10632 101.593 2.5014 100.993 3.03758C100.394 3.57376 100.118 4.71685 100.118 6.52299V41.3489H98.5167L73.8584 9.75441H73.4767V32.8823C73.4767 34.6886 73.7162 37.1156 74.1828 37.8776C74.9301 39.0912 76.4608 39.7402 78.7824 39.839V41.3348H66.0827L66.0902 39.839ZM125.278 0.32824V1.824C123.105 1.9016 121.659 2.25439 120.926 2.88937C120.191 3.52436 119.832 5.00602 119.832 7.24268V26.9981C119.733 29.3546 120.071 31.7112 120.841 33.9407C122.068 36.9745 125.716 38.4915 129.18 38.4915C133.491 38.4915 136.397 36.8122 137.914 33.4468C138.754 31.6052 139.17 29.0159 139.17 25.6857V7.63776C139.17 5.52112 138.796 4.11006 138.049 3.28458C137.3 2.45898 135.876 1.9863 133.724 1.81702V0.300049H146.043V1.79581C144.25 2.1627 143.073 2.6143 142.515 3.15048C141.944 3.66557 141.662 4.87902 141.662 6.77698V25.6505C141.662 30.6669 140.512 34.5334 138.219 37.2638C135.926 39.9942 132.305 41.356 127.374 41.3489C120.939 41.3489 115.225 39.3241 112.853 35.2742C111.598 33.1222 110.969 30.3424 110.963 26.9487V7.19328C110.963 4.96373 110.681 3.55267 110.116 2.95998C109.552 2.36729 108.303 1.9651 106.37 1.75352V0.300049L125.278 0.32824ZM66.0902 86.4192C67.2541 86.4479 68.4106 86.2296 69.4759 85.763C70.6336 85.1218 71.2125 83.908 71.2125 82.1091V52.7436C71.2125 50.9445 70.6761 49.7379 69.5895 49.117C68.4742 48.6302 67.2753 48.3903 66.0615 48.4115V46.9369H84.1167C87.5873 46.9369 90.4665 46.9369 92.7731 47.7835C97.0983 49.364 99.2652 52.2426 99.2652 56.4124C99.3637 58.7337 98.3832 60.9632 96.6117 62.4661C94.9887 63.8842 93.0276 64.8579 90.9181 65.2883V65.8598C92.9216 66.2337 94.8415 66.9887 96.5631 68.0751C99.5396 69.8602 101.325 73.1128 101.234 76.5839C101.234 79.9846 99.7442 82.7441 96.7677 84.8536C93.7899 86.9631 89.824 88.0135 84.864 87.9998H66.0902V86.4192ZM87.7856 63.2634C89.0206 62.0216 89.6407 59.8273 89.6407 56.6664C89.7043 54.6274 89.2876 52.6095 88.4131 50.7681C87.616 49.1664 86.0715 48.3621 83.7711 48.3691C82.8742 48.2774 81.9785 48.5102 81.2374 49.0253C80.6948 49.6603 80.4341 50.5 80.5326 51.3325V65.1189C84.1304 65.1189 86.5506 64.498 87.7856 63.2634ZM80.9842 84.6839C81.457 85.5659 82.3951 86.0038 83.715 86.0038C86.4657 86.0038 88.3919 85.2129 89.4935 83.6398C90.615 82.0592 91.1726 79.8087 91.1788 76.8945C91.1788 72.5413 89.9513 69.6486 87.5037 68.2021C86.0216 67.3344 83.7 66.9252 80.5326 66.9746V82.3199C80.4977 83.132 80.6449 83.9429 80.9842 84.6839ZM128.256 73.5079L122.675 59.3051H122.393L116.925 73.5079H128.256ZM106.383 86.4192C107.767 86.3281 109.029 85.5871 109.778 84.4157C110.73 82.779 111.527 81.0499 112.141 79.2585L124.946 46.9299H126.718L139.736 77.91C140.624 80.3376 141.718 82.6804 143.009 84.9235C143.686 85.9402 144.864 86.5178 146.085 86.4192V87.9786H127.169V86.4192C128.432 86.4404 129.688 86.2708 130.902 85.9115C131.508 85.6507 131.811 84.9946 131.811 83.9354C131.755 83.1807 131.593 82.4334 131.332 81.7211C131.141 81.1423 130.887 80.4437 130.563 79.6041L129.082 75.8853H116.008C115.153 78.3191 114.596 79.9147 114.356 80.6482C113.94 81.756 113.679 82.92 113.588 84.0976C113.588 84.9734 114.144 85.6146 115.267 86.01C116.24 86.2783 117.249 86.398 118.258 86.3706V87.9299H106.349L106.383 86.4192Z" fill="black"/>
</svg>
