<svg width="300" height="150" viewBox="0 0 300 150" fill="none" xmlns="http://www.w3.org/2000/svg">
<path d="M125.463 72.5506C126.738 72.5072 127.559 72.2272 127.925 71.701C128.293 71.175 128.478 69.582 128.478 68.5394V49.4195C127.429 48.0438 126.781 47.2329 126.534 47.0061C126.224 46.7358 125.848 46.5668 125.454 46.5233V45.5H132.799L144.602 62.5104H144.766V50.5201C144.766 49.154 144.554 48.179 144.131 47.6239C143.708 47.0688 142.856 46.6585 141.582 46.5571V45.5H148.995V46.5233C147.924 46.7358 147.203 47.0061 146.835 47.3729C146.468 47.7397 146.3 48.5218 146.3 49.7574V73.5836H145.319L130.22 51.9682H129.986V67.7912C129.986 69.0269 130.133 70.6874 130.419 71.2087C130.876 72.039 131.814 72.483 133.235 72.5506V73.574H125.459L125.463 72.5506ZM161.705 45.5193V46.5426C160.375 46.5957 159.489 46.8371 159.04 47.2715C158.59 47.7059 158.37 48.7196 158.37 50.2498V63.7655C158.31 65.3777 158.517 66.9899 158.988 68.5152C159.74 70.5908 161.974 71.6287 164.095 71.6287C166.734 71.6287 168.514 70.4798 169.443 68.1774C169.957 66.9175 170.212 65.146 170.212 62.8676V50.5201C170.212 49.072 169.983 48.1066 169.525 47.5419C169.067 46.977 168.195 46.6537 166.877 46.5378V45.5H174.42V46.5233C173.322 46.7743 172.601 47.0833 172.26 47.4501C171.91 47.8025 171.737 48.6327 171.737 49.9312V62.8435C171.737 66.2755 171.033 68.9208 169.629 70.7888C168.225 72.6568 166.008 73.5884 162.989 73.5836C159.049 73.5836 155.549 72.1983 154.097 69.4276C153.329 67.9553 152.944 66.0535 152.94 63.7317V50.216C152.94 48.6907 152.767 47.7253 152.421 47.3198C152.076 46.9143 151.311 46.6391 150.127 46.4944V45.5L161.705 45.5193ZM125.463 104.418C126.176 104.438 126.884 104.289 127.537 103.97C128.246 103.531 128.6 102.7 128.6 101.47V81.3793C128.6 80.1484 128.271 79.3229 127.606 78.8982C126.923 78.5651 126.189 78.401 125.446 78.4155V77.4066H136.501C138.627 77.4066 140.39 77.4066 141.802 77.9858C144.45 79.0671 145.777 81.0365 145.777 83.8893C145.837 85.4774 145.237 87.0027 144.152 88.0307C143.159 89.0011 141.958 89.6671 140.666 89.9619V90.3527C141.893 90.6083 143.068 91.1251 144.123 91.8683C145.945 93.0895 147.038 95.3147 146.983 97.6895C146.983 100.016 146.07 101.904 144.248 103.348C142.425 104.791 139.996 105.509 136.959 105.5H125.463V104.418ZM138.748 88.5763C139.504 87.7267 139.884 86.2255 139.884 84.0631C139.923 82.6681 139.668 81.2875 139.132 80.0277C138.644 78.932 137.698 78.3817 136.29 78.3865C135.741 78.3238 135.192 78.483 134.738 78.8354C134.406 79.2698 134.247 79.8443 134.307 80.4138V89.8459C136.51 89.8459 137.992 89.4211 138.748 88.5763ZM134.583 103.231C134.873 103.835 135.447 104.134 136.255 104.134C137.94 104.134 139.119 103.593 139.794 102.517C140.48 101.436 140.822 99.8959 140.826 97.9019C140.826 94.9239 140.074 92.9447 138.575 91.9551C137.668 91.3615 136.246 91.0815 134.307 91.1155V101.614C134.285 102.17 134.376 102.724 134.583 103.231ZM163.529 95.5851L160.111 85.8683H159.939L156.591 95.5851H163.529ZM150.136 104.418C150.983 104.356 151.756 103.849 152.214 103.048C152.797 101.928 153.285 100.745 153.661 99.5195L161.502 77.4018H162.587L170.558 98.5967C171.102 100.258 171.772 101.861 172.562 103.395C172.977 104.091 173.698 104.486 174.446 104.418V105.486H162.863V104.418C163.636 104.433 164.406 104.317 165.149 104.071C165.52 103.893 165.706 103.444 165.706 102.719C165.671 102.203 165.572 101.692 165.412 101.204C165.296 100.808 165.14 100.33 164.941 99.7559L164.034 97.2115H156.029C155.506 98.8767 155.164 99.9683 155.018 100.47C154.763 101.228 154.603 102.024 154.547 102.83C154.547 103.429 154.888 103.868 155.575 104.139C156.171 104.322 156.789 104.404 157.407 104.385V105.452H150.114L150.136 104.418Z" fill="black"/>
</svg>
