<svg width="212" height="57" viewBox="0 0 212 88" fill="none" xmlns="http://www.w3.org/2000/svg">
<path d="M103.278 2.98553C113.65 2.98553 120.022 11.5287 120.022 20.8403C120.022 30.1518 114.907 37.2461 107.862 42.5031L108.201 43.1294H124.657L128.227 36.3233H126.49L124.222 39.7013H115.779C121.617 35.5508 126.49 29.0369 126.49 21.0282C126.49 8.24257 114.957 0.810059 103.282 0.810059C91.6069 0.810059 80.074 8.24257 80.074 21.0282C80.074 29.0369 84.9469 35.5508 90.7844 39.7013H82.3414L80.074 36.3233H78.337L81.9071 43.1294H98.3588L98.6971 42.5031C91.6529 37.2419 86.5378 29.9096 86.5378 20.8403C86.5378 11.7709 92.9055 2.98553 103.282 2.98553M16.3298 70.1495C16.3298 79.8494 24.2425 87.762 33.9424 87.762C43.6422 87.762 51.5549 79.8494 51.5549 70.1495C51.5549 60.4497 43.6422 52.537 33.9424 52.537C24.2425 52.537 16.3298 60.4497 16.3298 70.1495ZM58.0646 87.0355L64.4324 66.5752L73.6478 88.0001L82.8633 66.5752L89.231 87.0355H94.5382L83.5857 52.2948L73.6437 75.4567L63.7058 52.2948L52.7533 87.0355H58.0604H58.0646ZM46.4858 70.1495C46.4858 77.2438 40.9866 82.8391 33.9424 82.8391C26.8982 82.8391 21.3948 77.2438 21.3948 70.1495C21.3948 63.0552 26.894 57.46 33.9424 57.46C40.9907 57.46 46.4858 63.0594 46.4858 70.1495ZM164.892 87.0355L168.416 80.0874H186.367L189.887 87.0355H195.583L177.394 51.3302L159.205 87.0355H164.901H164.892ZM142.069 57.4558C135.024 57.4558 129.525 63.0552 129.525 70.1453C129.525 77.2354 135.024 82.8349 142.069 82.8349C147.81 82.8349 152.779 79.0226 154.178 73.8115H142.357V68.8885H159.631C159.681 69.2726 159.681 69.7111 159.681 70.1453C159.681 79.8452 151.769 87.7579 142.069 87.7579C132.369 87.7579 124.456 79.8452 124.456 70.1453C124.456 60.4455 132.369 52.5328 142.069 52.5328C148.002 52.5328 153.263 55.4766 156.449 60.0112L152.395 62.9049C150.173 59.6229 146.411 57.4516 142.069 57.4516V57.4558ZM98.885 53.2593V87.0355H119.391V82.1125H103.95V72.5588H118.907V67.6358H103.95V58.1782H119.391V53.2552H98.885V53.2593ZM177.39 62.4748L183.854 75.1644H170.922L177.39 62.4748Z" fill="black"/>
</svg>
