<svg width="300" height="150" viewBox="0 0 300 150" fill="none" xmlns="http://www.w3.org/2000/svg">
<path d="M147.848 41.7466C156.18 41.7466 161.299 48.6054 161.299 56.0811C161.299 63.5568 157.19 69.2524 151.531 73.473L151.803 73.9759H165.022L167.89 68.5116H166.495L164.674 71.2236H157.891C162.581 67.8914 166.495 62.6618 166.495 56.232C166.495 45.9671 157.231 40 147.852 40C138.473 40 129.208 45.9671 129.208 56.232C129.208 62.6618 133.122 67.8914 137.812 71.2236H131.029L129.208 68.5116H127.812L130.68 73.9759H143.897L144.169 73.473C138.51 69.2491 134.4 63.3624 134.4 56.0811C134.4 48.7999 139.516 41.7466 147.852 41.7466M78 95.6687C78 103.456 84.3565 109.809 92.1487 109.809C99.941 109.809 106.297 103.456 106.297 95.6687C106.297 87.8814 99.941 81.5287 92.1487 81.5287C84.3565 81.5287 78 87.8814 78 95.6687ZM111.527 109.226L116.642 92.7991L124.045 110L131.449 92.7991L136.564 109.226H140.827L132.029 81.3342L124.042 99.9298L116.059 81.3342L107.26 109.226H111.524H111.527ZM102.225 95.6687C102.225 101.364 97.8076 105.856 92.1487 105.856C86.4899 105.856 82.0689 101.364 82.0689 95.6687C82.0689 89.973 86.4866 85.4811 92.1487 85.4811C97.8109 85.4811 102.225 89.9767 102.225 95.6687ZM197.345 109.226L200.176 103.647H214.597L217.425 109.226H222L207.388 80.5598L192.776 109.226H197.352H197.345ZM179.01 85.4777C173.351 85.4777 168.934 89.973 168.934 95.6654C168.934 101.358 173.351 105.853 179.01 105.853C183.622 105.853 187.614 102.792 188.738 98.6087H179.242V94.6565H193.119C193.159 94.9649 193.159 95.3168 193.159 95.6654C193.159 103.453 186.802 109.805 179.01 109.805C171.218 109.805 164.862 103.453 164.862 95.6654C164.862 87.8781 171.218 81.5253 179.01 81.5253C183.777 81.5253 188.003 83.8887 190.563 87.5295L187.306 89.8526C185.521 87.2173 182.499 85.4743 179.01 85.4743V85.4777ZM144.32 82.1086V109.226H160.793V105.273H148.388V97.603H160.404V93.6508H148.388V86.0577H160.793V82.1053H144.32V82.1086ZM207.385 89.5073L212.578 99.6951H202.189L207.385 89.5073Z" fill="black"/>
</svg>
