<svg width="300" height="150" viewBox="0 0 300 150" fill="none" xmlns="http://www.w3.org/2000/svg">
<path d="M13.0815 64.9276H15.8361C19.1647 64.9276 20.2237 67.2923 20.2237 69.5025C20.2237 72.623 18.4708 74.4553 14.8658 74.4553H13.0815V64.9276ZM15.3822 86.0442V85.3514H13.0815V74.9591H13.2015L20.8863 86.0442H25.6809V85.3514H24.2044L17.0152 74.9591C21.3663 74.6728 23.6618 72.5543 23.6618 69.4967C23.6566 66.7541 21.8776 64.2347 16.8013 64.2347H8V64.9276H9.81035V85.3514H8V86.0442H15.3822Z" fill="black"/>
<path d="M40.0384 67.3668H40.0958L42.9652 76.591H37.0177L40.0384 67.3668ZM37.0803 86.0443V85.3514H34.1796L36.809 77.2838H43.1791L45.652 85.3514H43.4191V86.0443H50.1231V85.3514H48.9127L42.2713 64H40.341L33.3344 85.3514H31.5814V86.0443H37.0751H37.0803Z" fill="black"/>
<path d="M63.1139 85.3514H67.5797C69.5727 85.3514 70.1414 84.9735 71.9517 77.2838H72.6299V86.0442H58.0376V85.3514H59.8479V64.9276H58.0376V64.2347H66.1346V64.9276H63.1191V85.3514H63.1139Z" fill="black"/>
<path d="M87.2379 64.9276H90.3525C93.4984 64.9276 94.8027 66.9717 94.8027 69.9262C94.8027 73.6995 93.3523 74.7358 90.0812 74.7358H87.2379V64.9276ZM90.0186 86.0442V85.3514H87.2379V75.4286H90.869C95.8253 75.4286 98.2356 73.2242 98.2356 69.9262C98.2356 66.6281 95.6427 64.2347 90.8377 64.2347H82.1564V64.9276H83.9667V85.3514H82.1564V86.0442H90.0186Z" fill="black"/>
<path d="M111.419 75.0794V85.3514H113.412V86.0442H106.343V85.3514H108.153V64.9276H106.343V64.2347H113.412V64.9276H111.419V74.3866H119.412V64.9276H117.419V64.2347H124.493V64.9276H122.683V85.3514H124.493V86.0442H117.419V85.3514H119.412V75.0794H111.419Z" fill="black"/>
<path d="M157.028 85.3514H161.488C163.481 85.3514 164.055 84.9735 165.86 77.2838H166.538V86.0442H151.946V85.3514H153.762V64.9276H151.946V64.2347H160.043V64.9276H157.028V85.3514Z" fill="black"/>
<path d="M182.268 67.3668H182.325L185.195 76.591H179.247L182.268 67.3668ZM179.31 86.0443V85.3514H176.414L179.039 77.2838H185.409L187.882 85.3514H185.649V86.0443H192.353V85.3514H191.142L184.501 64H182.571L175.564 85.3514H173.811V86.0443H179.305H179.31Z" fill="black"/>
<path d="M207.143 64.2347V64.9276H204.968V80.7536C204.968 84.5899 207.055 85.8152 208.959 85.8152C211.828 85.8152 213.853 83.8055 213.853 80.5303V64.9276H211.129V64.2347H216.508V64.9276H214.698V80.5647C214.698 84.212 212.371 86.5138 208.834 86.5138C203.935 86.5138 201.697 84.3723 201.697 80.0322V64.9276H199.886V64.2347H207.143Z" fill="black"/>
<path d="M230.052 64.9275H232.806C236.135 64.9275 237.194 67.2923 237.194 69.5024C237.194 72.623 235.441 74.4553 231.836 74.4553H230.052V64.9275ZM232.352 86.0442V85.3514H230.052V74.9591H230.172L237.857 86.0442H242.651V85.3514H241.169L233.985 74.9591C238.337 74.6728 240.627 72.5543 240.627 69.4967C240.627 66.7541 238.848 64.229 233.772 64.229H224.97V64.9218H226.781V85.3457H224.97V86.0385H232.347L232.352 86.0442Z" fill="black"/>
<path d="M249.689 86.0442V85.3514H251.499V64.9275H249.689V64.229H265.027V71.2316H264.349C262.732 65.3341 262.257 64.9275 260.76 64.9275H254.77V74.3865H257.123C258.636 74.3865 259.356 73.4074 259.967 70.0349H260.645V79.431H259.967C259.362 76.0585 258.636 75.0851 257.123 75.0851H254.77V85.3571H260.081C262.241 85.3571 262.878 84.5097 264.662 77.9881H265.34V86.0557H249.689V86.0442Z" fill="black"/>
<path d="M277.324 65.5631H277.262V85.3514H279.797V86.0442H274.429V85.3514H276.416V64.9276H274.429V64.2347H280.22L289.094 79.9921H289.162V64.9276H286.741V64.2347H292V64.9276H290.002V86.0442H288.979L277.324 65.5631Z" fill="black"/>
</svg>
