<svg width="300" height="150" viewBox="0 0 300 150" fill="none" xmlns="http://www.w3.org/2000/svg">
<path d="M28.5141 65.824H30.9612C33.9181 65.824 34.8589 67.9247 34.8589 69.8881C34.8589 72.6602 33.3017 74.2879 30.0992 74.2879H28.5141V65.824ZM30.558 84.5829V83.9674H28.5141V74.7355H28.6207L35.4475 84.5829H39.7067V83.9674H38.3951L32.0086 74.7355C35.8739 74.4812 37.9131 72.5992 37.9131 69.883C37.9085 67.4465 36.3281 65.2085 31.8186 65.2085H24V65.824H25.6082V83.9674H24V84.5829H30.558Z" fill="black"/>
<path d="M52.4612 67.9909H52.5122L55.0612 76.1852H49.7778L52.4612 67.9909ZM49.8334 84.583V83.9675H47.2565L49.5924 76.8006H55.2512L57.4481 83.9675H55.4644V84.583H61.4199V83.9675H60.3447L54.4448 65H52.73L46.5057 83.9675H44.9485V84.583H49.8287H49.8334Z" fill="black"/>
<path d="M72.9602 83.9674H76.9274C78.6978 83.9674 79.203 83.6317 80.8112 76.8006H81.4137V84.5829H68.4507V83.9674H70.0589V65.824H68.4507V65.2085H75.6436V65.824H72.9648V83.9674H72.9602Z" fill="black"/>
<path d="M94.3906 65.824H97.1575C99.9521 65.824 101.111 67.6398 101.111 70.2645C101.111 73.6165 99.8224 74.5371 96.9165 74.5371H94.3906V65.824ZM96.8608 84.5829V83.9674H94.3906V75.1526H97.6163C102.019 75.1526 104.16 73.1943 104.16 70.2645C104.16 67.3346 101.857 65.2085 97.5885 65.2085H89.8765V65.824H91.4847V83.9674H89.8765V84.5829H96.8608Z" fill="black"/>
<path d="M115.872 74.8423V83.9674H117.643V84.5829H111.363V83.9674H112.971V65.824H111.363V65.2085H117.643V65.824H115.872V74.2268H122.972V65.824H121.202V65.2085H127.487V65.824H125.878V83.9674H127.487V84.5829H121.202V83.9674H122.972V74.8423H115.872Z" fill="black"/>
<path d="M156.388 83.9674H160.351C162.121 83.9674 162.631 83.6317 164.234 76.8006H164.837V84.5829H151.874V83.9674H153.487V65.824H151.874V65.2085H159.067V65.824H156.388V83.9674Z" fill="black"/>
<path d="M178.81 67.9909H178.861L181.41 76.1852H176.127L178.81 67.9909ZM176.182 84.583V83.9675H173.61L175.941 76.8006H181.6L183.797 83.9675H181.813V84.583H187.769V83.9675H186.694L180.794 65H179.079L172.855 83.9675H171.297V84.583H176.178H176.182Z" fill="black"/>
<path d="M200.908 65.2085V65.824H198.976V79.883C198.976 83.2909 200.829 84.3794 202.521 84.3794C205.07 84.3794 206.868 82.5941 206.868 79.6846V65.824H204.449V65.2085H209.227V65.824H207.619V79.7151C207.619 82.9552 205.552 85 202.41 85C198.058 85 196.07 83.0977 196.07 79.2421V65.824H194.461V65.2085H200.908Z" fill="black"/>
<path d="M221.259 65.8239H223.706C226.663 65.8239 227.604 67.9246 227.604 69.888C227.604 72.6602 226.046 74.2878 222.844 74.2878H221.259V65.8239ZM223.303 84.5829V83.9674H221.259V74.7354H221.365L228.192 84.5829H232.451V83.9674H231.135L224.753 74.7354C228.619 74.4811 230.653 72.5991 230.653 69.8829C230.653 67.4465 229.073 65.2034 224.563 65.2034H216.745V65.8188H218.353V83.9623H216.745V84.5778H223.298L223.303 84.5829Z" fill="black"/>
<path d="M238.703 84.5829V83.9674H240.312V65.8239H238.703V65.2034H252.329V71.4241H251.727C250.29 66.1851 249.868 65.8239 248.538 65.8239H243.217V74.2268H245.308C246.652 74.2268 247.291 73.357 247.834 70.3611H248.436V78.708H247.834C247.296 75.712 246.652 74.8473 245.308 74.8473H243.217V83.9725H247.936C249.854 83.9725 250.42 83.2197 252.005 77.4262H252.607V84.593H238.703V84.5829Z" fill="black"/>
<path d="M263.253 66.3886H263.197V83.9674H265.45V84.5829H260.681V83.9674H262.446V65.824H260.681V65.2085H265.825L273.709 79.2065H273.769V65.824H271.618V65.2085H276.29V65.824H274.515V84.5829H273.607L263.253 66.3886Z" fill="black"/>
</svg>
