<svg width="300" height="150" viewBox="0 0 300 150" fill="none" xmlns="http://www.w3.org/2000/svg">
<g clip-path="url(#clip0_11206_245)">
<path d="M150.5 98.9861C125.183 98.9861 104.587 78.3519 104.587 52.9882C104.587 27.6245 125.183 7 150.5 7C175.817 7 196.414 27.6342 196.414 52.9882C196.414 78.3421 175.817 98.9861 150.5 98.9861ZM150.5 7.91664C125.69 7.91664 105.503 28.1315 105.503 52.9882C105.503 77.8448 125.69 98.0597 150.5 98.0597C175.31 98.0597 195.497 77.835 195.497 52.9882C195.497 28.1413 175.31 7.91664 150.5 7.91664ZM150.5 97.221C126.149 97.221 106.342 77.3767 106.342 52.9882C106.342 28.5996 126.149 8.76502 150.5 8.76502C174.851 8.76502 194.658 28.6094 194.658 52.9979C194.658 77.3864 174.851 97.2308 150.5 97.2308M150.5 9.68167C126.656 9.68167 107.269 29.1164 107.269 52.9979C107.269 76.8794 126.666 96.3141 150.5 96.3141C174.335 96.3141 193.741 76.8794 193.741 52.9979C193.741 29.1164 174.344 9.68167 150.5 9.68167ZM150.5 95.534C127.085 95.534 108.039 76.4503 108.039 52.9979C108.039 29.5455 127.085 10.452 150.5 10.452C173.915 10.452 192.971 29.5358 192.971 52.9882C192.971 76.4406 173.915 95.5243 150.5 95.5243M150.5 11.3687C127.592 11.3687 108.956 30.0428 108.956 52.9882C108.956 75.9335 127.592 94.6076 150.5 94.6076C173.408 94.6076 192.045 75.9335 192.045 52.9882C192.045 30.0428 173.408 11.3687 150.5 11.3687ZM150.5 93.496C128.207 93.496 110.067 75.3191 110.067 52.9882C110.067 30.6572 128.197 12.4804 150.5 12.4804C172.803 12.4804 190.933 30.6474 190.933 52.9882C190.933 75.3289 172.794 93.496 150.5 93.496ZM150.5 13.397C128.714 13.397 110.984 31.1545 110.984 52.9882C110.984 74.8218 128.714 92.5793 150.5 92.5793C172.287 92.5793 190.016 74.8218 190.016 52.9882C190.016 31.1545 172.287 13.4067 150.5 13.4067M150.5 87.9181C131.278 87.9181 115.636 72.2474 115.636 52.9979C115.636 33.7484 131.278 18.068 150.5 18.068C169.722 18.068 185.364 33.7387 185.364 52.9882C185.364 72.2376 169.722 87.9083 150.5 87.9083M150.5 18.9846C131.786 18.9846 116.553 34.236 116.553 52.9882C116.553 71.7403 131.776 86.9917 150.5 86.9917C169.224 86.9917 184.448 71.7403 184.448 52.9882C184.448 34.236 169.215 18.9846 150.5 18.9846Z" fill="black"/>
<path d="M114.378 52.9881C114.378 53.5634 113.91 54.0413 113.324 54.0413C112.739 54.0413 112.271 53.5732 112.271 52.9881C112.271 52.403 112.739 51.9349 113.324 51.9349C113.91 51.9349 114.378 52.403 114.378 52.9881Z" fill="black"/>
<path d="M188.768 52.9881C188.768 53.5634 188.3 54.0413 187.714 54.0413C187.129 54.0413 186.661 53.5732 186.661 52.9881C186.661 52.403 187.129 51.9349 187.714 51.9349C188.3 51.9349 188.768 52.403 188.768 52.9881Z" fill="black"/>
<path d="M119.225 71.0577C119.517 71.5648 119.342 72.2084 118.835 72.4911C118.337 72.7837 117.694 72.6082 117.401 72.1108C117.108 71.6038 117.284 70.9602 117.781 70.6676C118.288 70.3751 118.932 70.5506 119.225 71.0577Z" fill="black"/>
<path d="M183.648 33.8752C183.94 34.3823 183.765 35.0162 183.267 35.3087C182.77 35.6013 182.117 35.4257 181.834 34.9187C181.541 34.4116 181.717 33.7777 182.224 33.4852C182.731 33.2024 183.375 33.3682 183.657 33.8752" fill="black"/>
<path d="M132.122 84.1811C132.63 84.4639 132.795 85.1172 132.513 85.6146C132.22 86.1119 131.576 86.2874 131.069 85.9949C130.572 85.7023 130.396 85.0587 130.689 84.5614C130.981 84.0543 131.625 83.8885 132.122 84.1811Z" fill="black"/>
<path d="M169.644 19.872C170.141 20.1646 170.317 20.8082 170.024 21.3152C169.741 21.8126 169.088 21.9881 168.59 21.6956C168.093 21.403 167.918 20.7594 168.21 20.2621C168.503 19.755 169.146 19.5892 169.653 19.872" fill="black"/>
<path d="M150.52 89.1273C151.105 89.1273 151.573 89.5954 151.573 90.1805C151.573 90.7656 151.105 91.2336 150.52 91.2336C149.934 91.2336 149.466 90.7558 149.466 90.1805C149.466 89.6051 149.934 89.1273 150.52 89.1273Z" fill="black"/>
<path d="M150.52 14.7524C151.105 14.7524 151.573 15.2303 151.573 15.8056C151.573 16.3809 151.105 16.8588 150.52 16.8588C149.934 16.8588 149.466 16.3907 149.466 15.8056C149.466 15.2205 149.934 14.7524 150.52 14.7524Z" fill="black"/>
<path d="M168.59 84.2905C169.097 83.998 169.741 84.1735 170.024 84.6708C170.316 85.1779 170.141 85.8215 169.644 86.1043C169.136 86.3968 168.493 86.2213 168.2 85.7142C167.908 85.2072 168.083 84.5636 168.59 84.2808" fill="black"/>
<path d="M131.405 19.872C131.912 19.5794 132.556 19.7549 132.839 20.262C133.131 20.7593 132.956 21.4127 132.449 21.6955C131.941 21.988 131.298 21.8125 131.015 21.3152C130.722 20.8081 130.898 20.1645 131.395 19.872" fill="black"/>
<path d="M181.824 71.0577C182.117 70.5604 182.76 70.3849 183.258 70.6677C183.765 70.9602 183.94 71.6038 183.638 72.1109C183.345 72.6082 182.702 72.7837 182.204 72.4912C181.707 72.1986 181.532 71.555 181.824 71.0577Z" fill="black"/>
<path d="M117.401 33.8654C117.694 33.3681 118.337 33.1926 118.835 33.4851C119.342 33.7776 119.517 34.4212 119.225 34.9186C118.932 35.4159 118.288 35.5914 117.781 35.3086C117.274 35.0161 117.108 34.3725 117.401 33.8654Z" fill="black"/>
<path d="M166.63 51.1061C166.63 51.1061 167.8 50.0529 169.868 48.7365C170.277 48.4439 174.237 45.928 175.7 45.2064C174.432 45.499 168.668 48.9608 165.294 51.9935C165.021 52.2763 164.543 52.7248 164.348 52.9394C164.319 52.9784 164.299 53.0174 164.27 53.0564C164.29 53.0564 164.319 53.0271 164.368 52.9979C164.962 52.3835 165.772 51.7302 166.62 51.1061" fill="black"/>
<path d="M169.39 37.7661C169.946 37.9514 170.316 37.9124 171.116 38.1366C171.331 38.1952 171.935 38.1659 171.857 38.8192C171.857 38.8778 171.994 38.9948 172.091 39.0533C172.345 39.2191 172.842 39.5116 173.096 39.6676C172.871 39.2776 172.121 38.9363 172.111 38.3999C172.111 38.2927 172.169 37.9904 172.004 37.9514C171.019 37.7271 170.17 37.7076 169.068 37.493C169.244 37.6296 169.224 37.7076 169.39 37.7661Z" fill="black"/>
<path d="M162.817 32.978C161.705 33.3388 160.028 33.3486 160.028 33.4071C161.637 33.8362 162.173 33.4851 164.543 32.8318C164.104 32.4905 163.197 32.8513 162.817 32.978Z" fill="black"/>
<path d="M164.953 37.1614C165.128 37.2492 165.323 37.337 165.509 37.3467C166.581 37.4052 167.527 37.6685 168.717 37.7075C168.298 37.532 167.966 37.3077 167.596 37.2394C167.176 37.1712 166.728 37.2394 166.279 37.2199C165.86 37.1809 165.587 36.8396 165.177 36.7811C165.079 36.7811 164.953 36.8396 164.884 36.9176C164.845 36.9469 164.904 37.1322 164.962 37.1614" fill="black"/>
<path d="M167.098 33.0171C167.683 33.0854 168.278 33.1146 168.873 33.1536C168.893 33.1049 168.893 33.0561 168.903 32.9976C167.605 32.7831 166.318 32.5783 165.011 32.354C164.992 32.3735 164.972 32.4028 164.953 32.4223C165.138 32.5393 165.294 32.7246 165.489 32.7538C166.016 32.8708 166.562 32.9488 167.098 33.0074" fill="black"/>
<path d="M168.064 43.5292C168.044 43.7925 168.444 43.851 167.596 44.085C168.327 44.0655 169.488 44.202 170.2 44.5921C170.112 44.2605 168.824 43.8022 168.074 43.5292" fill="black"/>
<path d="M166.884 47.6053H166.903C166.035 47.6443 164.719 47.2348 163.968 46.5717C164.192 47.0007 165.762 47.9954 166.884 47.6151" fill="black"/>
<path d="M159.921 40.1649C161.12 40.1942 163.158 41.4326 163.89 41.9592C161.803 40.2332 160.779 40.1649 159.921 40.1649Z" fill="black"/>
<path d="M153.318 33.5826C153.65 33.3876 153.874 33.2121 155.308 32.9878C154.089 33.0561 153.63 33.1731 153.201 33.2706C153.026 33.2998 153.231 33.4754 153.318 33.5826Z" fill="black"/>
<path d="M162.788 30.4719C162.437 30.9692 161.364 30.6084 161.325 30.6767C161.764 31.0277 164.455 31.33 164.894 31.6811C164.933 31.6226 163.129 30.5499 162.788 30.4622" fill="black"/>
<path d="M162.944 36.5471C162.944 36.5471 164.885 38.1561 164.27 39.6969C164.329 39.6579 164.943 38.2926 163.9 37.259C163.353 36.7226 162.944 36.5471 162.944 36.5471Z" fill="black"/>
<path d="M172.374 45.772C173.096 45.6355 174.881 45.0017 174.783 44.8261C173.798 44.3483 172.433 43.5389 171.594 43.0319C171.857 43.4609 172.803 43.9388 173.701 44.8261C173.652 44.9334 172.657 45.2747 172.599 45.304C171.828 45.655 170.521 44.8554 170.492 44.8944C170.726 45.1772 170.96 45.421 171.331 45.6648C171.487 45.772 171.955 45.8208 172.374 45.772Z" fill="black"/>
<path d="M132.332 46.4448C132.332 46.4448 132.244 46.5131 132.166 46.5911C132.341 46.6203 132.478 46.6399 132.634 46.6691C132.546 46.7959 132.497 46.8739 132.449 46.9421C132.868 46.9129 133.258 46.8739 133.707 46.8349C133.668 46.6659 133.213 46.5358 132.341 46.4448" fill="black"/>
<path d="M170.482 40.2624C171.145 40.5062 172.355 41.0523 172.91 41.2473C172.774 41.1596 171.672 39.7651 170.482 40.2624Z" fill="black"/>
<path d="M164.885 34.7918C165.694 34.9283 166.386 35.0453 167.089 35.1624C167.098 35.1331 167.118 35.0941 167.128 35.0648C166.474 34.6163 165.811 34.1775 165.148 33.7289C165.119 33.7484 165.07 33.7581 165.041 33.7776C165.177 34.0117 165.314 34.2457 165.479 34.5188C165.372 34.5383 165.284 34.5285 165.197 34.5578C165.128 34.587 165.06 34.6553 164.885 34.7918Z" fill="black"/>
<path d="M168.551 36.5763C168.23 36.079 168.21 35.2794 167.235 35.2404C167.869 35.884 168.181 36.2058 168.551 36.5763Z" fill="black"/>
<path d="M162.095 31.9249C161.071 31.9249 158.799 31.8176 157.463 30.8035C158.468 32.5002 160.798 32.0322 162.095 31.9249Z" fill="black"/>
<path d="M167.742 41.9202C168.337 41.9202 168.883 41.9202 169.419 41.9202C169.419 41.9202 170.316 41.9495 170.707 42.0275C171.019 42.086 170.765 42.3785 171.077 42.4468C171.614 42.5736 172.384 42.359 173.106 42.5053C173.427 42.5736 174.071 43.1099 174.334 43.4024C174.656 43.7535 175.202 43.929 175.427 44.0363C175.261 43.7925 174.724 43.1294 174.559 42.8856C174.588 42.8369 174.617 42.7881 174.646 42.7491C174.5 42.7686 174.412 42.7881 174.149 42.7296C173.671 42.6321 172.891 42.3883 172.413 42.2908C172.199 42.2518 171.857 42.1738 171.653 42.125C171.028 41.9982 167.547 41.2766 167.254 41.2279C167.108 41.2084 166.923 41.0621 166.854 40.9353C166.737 40.711 166.718 40.5843 166.659 40.3502C166.659 40.3502 166.659 40.3502 166.65 40.3502C166.494 41.4814 167.586 41.5594 168.005 43.3927C168.064 43.4902 168.317 42.6516 167.742 41.9105" fill="black"/>
<path d="M159.258 34.3433C160.311 34.5286 161.666 34.8699 162.915 35.3867C164.153 35.9036 165.128 35.8645 165.128 35.8645C164.495 35.7378 164.104 35.5525 164.104 35.5525C161.735 34.2165 159.258 34.3433 159.258 34.3433Z" fill="black"/>
<path d="M152.402 30.4719C152.402 30.4719 152.363 30.4914 152.333 30.5012C153.338 30.5012 155.425 30.5597 156.342 31.0765C154.772 30.1989 153.865 30.3842 152.402 30.4817" fill="black"/>
<path d="M161.227 38.4291C161.705 38.2926 161.92 38.1171 161.92 38.1171C162.212 37.9513 162.817 37.9611 162.817 37.9611C162.817 37.9611 162.212 37.4052 162.164 37.298C161.481 35.845 159.911 35.3867 159.765 35.3477C159.813 35.3672 159.852 35.3867 159.901 35.4062C160.028 35.4647 159.999 35.4549 159.872 35.4159C160.984 36.0693 161.344 36.4398 161.676 36.9859C161.754 37.1127 162.095 37.7173 162.095 37.7173C162.095 37.7173 161.842 37.9221 161.627 38.0586C160.681 38.6632 158.448 38.3121 158.448 38.3121L159.569 38.5169C159.95 38.5657 160.545 38.5754 160.701 38.5462C160.72 38.5462 160.828 38.5754 160.964 38.6047C161.774 38.8387 162.31 39.4433 162.476 39.6286C162.378 39.6676 162.086 39.8431 161.93 39.9991C162.788 40.1844 163.227 40.2429 164.104 40.0089C162.905 40.1454 162.251 38.6827 161.227 38.4291Z" fill="black"/>
<path d="M166.659 40.3599C167.274 40.3404 167.839 40.2331 168.122 39.9113C168.815 39.9796 169.517 40.0186 170.082 40.0966C170.092 40.0576 168.044 38.3999 168.015 38.4194C168.161 38.6436 168.922 39.1605 168.98 39.6285C168.873 39.648 168.161 39.453 168.074 39.492C168.005 39.5213 167.908 39.7358 167.742 39.8723C167.293 40.1746 166.611 40.2819 166.386 40.3209C165.831 40.1454 165.294 39.5993 164.553 40.2039C164.933 40.2331 165.831 40.3697 166.64 40.3502C166.64 40.3404 166.64 40.3307 166.64 40.3112C166.64 40.3209 166.64 40.3307 166.64 40.3502" fill="black"/>
<path d="M142.61 37.1615C142.581 37.2395 142.552 37.3078 142.532 37.3663C142.825 36.9957 143.986 35.5232 144.746 34.5383C144.746 34.5383 143.322 35.8353 142.61 37.1615Z" fill="black"/>
<path d="M134.926 38.3804C134.926 38.3804 136.35 37.2687 136.905 36.1083C136.905 36.1083 135.842 36.8981 134.926 38.3804Z" fill="black"/>
<path d="M158.321 29.7015C158.321 29.7015 157.541 29.3699 157.112 29.0091C156.195 28.346 155.815 28.6483 155.815 28.5898C155.483 28.6776 157.57 29.2822 157.326 29.5064C156.381 30.3938 154.137 29.2139 154.02 29.2139C154.02 29.2822 154.001 29.3504 153.991 29.4187C154.703 29.6235 155.113 30.2378 156.234 30.2573C157.112 30.1891 157.346 29.9648 157.561 29.8868C157.697 29.838 158.321 29.7015 158.321 29.7015Z" fill="black"/>
<path d="M156.098 32.4807C155.727 32.51 155.425 32.6368 155.23 32.822C156.351 32.6855 157.356 32.8611 158.272 32.8806C157.473 32.6368 156.79 32.432 156.098 32.4807Z" fill="black"/>
<path d="M150.451 31.9639L149.505 32.7928C149.047 33.1633 147.282 33.5144 147.282 33.5144C148.696 33.3291 149.193 33.2901 149.729 32.9C149.749 32.8805 149.964 32.744 149.964 32.744C152.85 32.6758 154.118 32.3442 154.947 32.0127C155.191 31.9151 155.893 31.4958 155.893 31.4958C155.893 31.4958 154.84 31.3593 154.742 31.3495C154.284 31.3105 152.665 31.2228 152.665 31.2228C152.665 31.2228 153.845 31.3886 154.255 31.5738C155.317 32.0614 150.012 32.705 150.012 32.705C149.983 32.705 152.002 31.4081 152.002 31.4081C152.002 31.4081 149.388 31.5738 148.891 31.7981C148.686 31.8566 147.672 32.2077 146.716 33.2901C146.716 33.2901 146.706 33.3194 146.697 33.3389C146.96 33.1243 147.964 32.3442 148.862 32.0712C149.612 31.7981 150.471 31.9639 150.471 31.9639" fill="black"/>
<path d="M144.961 31.4666C143.742 32.51 141.928 32.0615 140.816 33.768C140.982 33.5632 142.025 32.9488 142.22 32.7148C142.22 33.4267 141.801 33.6802 140.992 33.9923C140.962 34.158 140.884 34.275 140.787 34.3823C140.689 34.4798 140.514 34.5481 140.485 34.6554C140.446 34.8211 140.494 35.0064 140.504 35.1722C140.221 35.2892 139.88 35.3477 140.212 35.728C139.87 36.2351 139.539 36.8104 139.383 37.337C139.714 36.8397 140.358 35.9231 140.728 35.3965C140.758 35.4452 140.982 35.6403 140.797 36.0693C141.46 35.6598 142.503 34.2068 142.63 34.0313C141.499 35.2892 140.943 35.0942 140.728 35.0844C140.933 34.5676 140.816 34.1775 142.035 33.7192C142.084 33.6997 142.133 33.6022 142.162 33.5339C142.211 33.4559 142.23 33.3682 142.269 33.2901C142.367 33.3486 142.474 33.4072 142.679 33.5339C142.679 33.2511 142.503 33.2219 142.523 32.8903C145.136 32.237 145.166 31.7592 145.526 31.3691C145.77 30.9888 146.151 30.745 146.151 30.745C146.151 30.745 144.785 30.8035 144.142 31.0668C144.746 30.979 145.868 30.7742 144.951 31.4764" fill="black"/>
<path d="M143.147 33.7679C143.615 33.5046 144.395 33.2803 144.395 33.2803C144.22 33.7679 143.01 35.7377 143.01 35.7377C144.103 34.8503 145.195 32.666 145.058 32.9C144.171 32.978 143.147 33.7679 143.147 33.7679Z" fill="black"/>
<path d="M141.508 41.4521C141.138 41.1011 140.611 41.0718 140.299 41.1303C140.913 41.2376 141.372 42.1152 141.44 42.6321C141.577 42.6418 141.781 42.7588 141.986 42.7783C141.986 42.7783 141.986 42.8076 141.986 42.8466C142.093 42.8271 142.181 42.7978 142.181 42.7296C142.23 42.203 141.986 41.93 141.499 41.4619" fill="black"/>
<path d="M179.591 49.4191C179.591 49.4191 179.708 48.9315 179.386 48.3074C179.045 47.6248 178.869 47.1568 178.294 46.7862C178.626 46.5229 178.626 46.1328 178.323 45.6648C178.118 45.3332 178.011 45.0407 177.855 44.6896C177.563 44.0168 177.299 43.0904 177.192 43.0124C176.724 42.6906 176.509 42.2907 176.451 41.7154C176.422 41.4521 176.129 41.0718 175.885 41.0035C175.32 40.8378 175.28 40.3502 175.066 39.9699C174.773 39.4238 174.5 38.8875 174.227 38.3414C174.12 38.4096 174.11 38.985 174.081 38.9655C173.681 38.5949 173.35 38.0098 172.852 37.5125C173.584 37.7173 173.662 37.8538 174.11 38.1561C173.681 37.3662 173.33 36.6154 172.794 35.9035C172.092 34.9576 171.233 34.119 170.434 33.2316C170.083 32.8415 169.77 32.2564 169.332 32.1297C168.327 31.8176 167.625 31.0668 167.011 30.3939C166.113 29.409 164.855 29.0774 163.89 28.2291C163.207 27.6245 162.154 27.4294 161.247 27.0979C159.531 26.4738 157.785 25.9277 155.922 25.8887C155.045 25.8692 154.167 25.9277 153.299 25.8692C151.495 25.7424 149.7 25.6157 147.935 26.2397C146.589 26.7176 145.078 26.7566 143.927 27.7415C143.878 27.7805 143.781 27.7805 143.703 27.8097C143.352 27.9365 142.981 28.0243 142.669 28.2096C142.191 28.4826 141.782 28.8629 141.314 29.1457C140.524 29.6333 139.656 30.0233 138.924 30.5889C137.627 31.5836 136.389 32.6758 135.15 33.7387C134.994 33.8849 134.848 34.3433 134.858 34.3335C134.858 34.3335 133.678 35.2794 133.19 35.8255C132.615 36.4886 132.146 37.259 131.63 37.9708C131.503 38.1464 131.376 38.3316 131.23 38.4877C130.391 39.4043 129.552 40.3209 128.723 41.2376C128.343 41.6666 127.943 42.0957 127.641 42.5735C127.163 43.3439 126.841 44.2118 126.315 44.9432C125.71 45.772 124.93 46.4644 124.286 47.264C123.096 48.7463 121.965 50.287 121.214 52.0423C119.371 56.2939 120.532 60.7114 124.296 63.7148C124.735 64.0561 125.359 64.69 125.876 64.8948C126.393 65.0995 126.578 64.8265 126.539 64.2804C126.5 63.8221 126.188 63.159 126.022 62.7299C125.71 61.8913 125.827 61.1599 125.476 60.3311C125.505 60.4188 125.583 60.4968 125.7 60.3896C125.925 60.136 126.276 59.9215 126.363 59.6289C126.919 57.8347 128.158 56.684 129.806 55.9721C132.429 54.8312 135.131 53.9341 137.949 53.4172C139.168 53.1832 140.407 52.9979 141.645 52.8614C141.977 52.8224 142.357 53.0174 142.718 53.1344C142.864 53.1832 142.981 53.3392 143.127 53.3587C143.771 53.427 144.346 53.6123 144.785 54.1486C145.107 54.5484 145.497 54.919 145.897 55.2505C146.599 55.8259 146.989 56.723 147.877 57.0838C147.945 57.1033 147.994 57.2008 148.023 57.2691C148.55 58.449 149.086 59.6387 149.583 60.8381C149.661 61.0332 149.613 61.277 149.652 61.4915C149.973 62.8762 150.325 64.2609 150.627 65.6651C150.851 66.7183 151.027 67.7617 151.173 68.8246C151.29 69.6145 151.31 70.4141 151.388 71.204C151.417 71.516 151.485 71.8281 151.534 72.1401C151.573 72.4034 151.622 72.6667 151.661 72.9398C151.729 73.2128 151.739 73.4468 151.748 73.6906C151.778 74.3342 151.436 75.0266 151.914 75.6117C152.421 76.2065 152.226 76.8209 152.09 77.4645C151.973 78.0203 151.787 78.6737 151.963 79.1417C152.138 79.6001 153.406 80.3217 153.67 80.2144C154.391 79.6488 157.57 75.6507 158.224 74.6463C158.868 73.4371 168.454 60.1458 179.425 54.4119C179.825 54.1876 180.235 53.9633 180.605 53.7C180.908 53.4757 180.391 49.6044 179.601 49.4094M156.215 26.6493C156.303 26.6493 156.81 26.6981 156.976 26.7956C156.254 26.7663 155.288 26.9029 154.684 26.9906C153.806 27.0394 152.675 27.1076 152.256 27.1369C152.568 27.0589 152.889 26.9614 153.192 26.8151C154.83 26.0252 155.093 26.6688 156.215 26.6493ZM148.686 27.1271C148.764 27.0686 148.93 26.5225 149.057 26.4933C150.208 26.2202 151.036 26.4543 152.06 26.2788C152.451 26.2105 152.841 26.23 153.27 26.2788C152.704 26.542 151.358 27.1954 150.481 27.3124C150.627 27.3222 151.378 27.3222 152.187 27.1466C152.977 27.1759 153.348 27.761 152.597 28.1705C152.334 28.0828 151.329 27.7707 150.461 27.8195C150.295 27.8292 149.642 27.8683 148.657 28.2388C148.52 28.1023 147.945 27.6537 146.589 27.9268C145.839 28.0925 144.785 28.6191 144.795 28.6094C144.893 28.5411 145 28.4728 145.127 28.3753C146.394 27.5269 146.931 27.1564 148.686 27.1174M137.52 32.8318C137.773 32.1102 140.065 30.0721 140.036 30.6767C140.611 30.0038 142.542 29.0287 142.581 29.0677C142.523 29.1652 141.157 30.1209 140.699 30.6767C140.485 30.9302 139.08 32.6562 140.085 31.0375C140.134 30.9595 139.139 32.0224 137.695 33.5339C137.793 33.6119 139.402 32.2369 139.402 32.2369C139.402 32.2369 138.739 33.3194 138.144 33.9727C137.52 34.6651 136.671 35.3964 136.603 35.4159C136.574 35.5915 138.349 34.7528 138.251 34.8601C137.608 35.5817 136.788 37.7465 135.608 38.5267C134.331 39.3653 133.151 40.2332 132.732 40.6232C133.551 39.6286 135.491 37.0737 135.716 36.6739C135.921 36.3326 136.184 36.04 136.496 35.6987C136.018 35.5427 135.569 35.7767 135.218 35.7572C135.882 34.431 136.652 33.6997 137.53 32.8415M134.975 42.1445C134.975 42.1445 134.663 41.8909 134.594 41.2863C134.487 40.4185 134.926 40.0577 134.926 40.0577C134.653 41.0523 134.984 42.1445 134.984 42.1445M133.6 41.5301C133.687 40.2917 135.023 39.4921 135.023 39.4921L133.6 41.5301ZM124.676 47.264C125.066 46.8447 125.973 45.8598 125.973 45.8598C125.973 45.8598 126.159 46.3961 125.768 46.9227C125.339 47.5371 125.115 47.6346 124.335 48.2489C124.023 48.4927 123.282 49.0876 123.282 49.0876C123.282 49.0876 124.286 47.6833 124.676 47.264ZM141.099 50.1505C141.382 50.404 141.606 50.5893 142.542 50.7843C141.528 50.7551 141.265 50.6966 140.845 50.5405C140.182 51.1744 134.321 52.7346 133.804 52.9199C132.185 53.5147 130.713 54.2266 129.113 55.309C127.797 56.3232 126.11 58.4588 125.583 59.8142C125.651 59.668 125.427 58.8586 126.607 56.9668C127.329 55.8064 128.207 54.8312 129.484 53.9828C129.855 53.7293 132.537 51.935 134.848 51.5644C135.296 51.4864 135.93 51.3011 136.379 51.2426C136.828 51.1646 138.476 50.7746 138.476 50.7746C138.476 50.7746 137.305 50.9111 137.344 50.6283C137.354 50.3455 139.695 49.9359 140.182 49.8774C138.017 49.7507 135.628 50.5795 134.741 50.6185C133.268 50.6868 132.634 50.5113 131.864 50.5503C130.44 50.6088 129.231 49.5264 129.357 49.6824C129.884 50.326 131.015 50.6868 131.386 50.8038C131.688 50.9013 131.62 51.0574 131.581 51.5644C130.05 52.1008 128.538 52.7541 127.183 53.7585C126.597 54.1876 125.203 55.7088 124.881 56.2647C124.237 57.3861 124.14 58.4588 124.393 59.7557C124.549 60.6041 125.554 63.4223 126.051 64.2999C125.125 63.6368 124.081 61.2965 123.955 60.8381C123.857 60.4578 123.145 57.9614 124.754 55.8454C125.076 55.4163 125.827 54.5289 126.188 54.0803C126.09 54.1193 125.398 54.7922 125.32 54.8702C124.715 55.4553 124.257 55.8454 123.652 56.4207C123.555 56.5085 123.34 56.4792 123.067 56.5085C122.375 57.9907 123.311 61.6378 123.252 61.6475C118.679 54.0706 123.964 51.0086 124.559 50.1115C125.242 49.0583 125.905 48.1222 126.744 47.1763C127.163 46.6984 127.27 46.4059 126.909 45.772C126.617 45.2552 127.036 44.6311 127.699 44.3483C127.748 44.3288 127.826 44.0655 127.855 43.9973C128.528 42.3883 130.586 40.4087 130.986 39.9601C131.191 39.7066 132.712 38.1073 132.8 37.7563C133.083 37.181 133.346 36.8689 133.639 36.4496C133.902 36.0888 136.194 33.6704 136.603 33.2511C135.804 34.275 133.287 37.9416 133.317 37.9611C133.404 37.8441 134.409 36.6934 134.711 36.4496C135.423 35.8938 135.53 36.2838 135.755 36.1765C135.774 36.3326 133.668 39.9211 131.103 40.0186C131.142 40.0381 131.376 40.0577 131.376 40.0577C131.376 40.0577 131.093 40.3014 130.81 40.5062C130.294 40.8963 129.416 41.8909 128.743 42.9734C128.762 42.9441 128.782 42.9246 128.801 42.8856C128.996 42.5443 129.328 42.3103 129.465 42.1932C129.504 42.1542 129.533 42.1347 129.533 42.1347L129.884 41.8324L129.543 42.1932L130.264 41.5886L129.25 42.5735C128.86 42.9538 128.743 43.2464 128.743 43.2464C128.792 43.1001 128.782 43.1976 128.84 42.9441C128.665 43.1976 128.353 43.7047 128.353 43.7047C128.353 43.7047 128.353 43.6852 128.382 43.6462C128.304 43.7925 128.236 43.929 128.177 44.0753C127.348 45.1089 127.095 45.655 127.816 46.6497C127.709 46.0841 127.426 45.772 128.07 44.9919C128.158 44.8846 128.265 44.7481 128.363 44.6311C128.402 44.6604 128.441 44.6799 128.489 44.7189C128.45 44.7969 128.411 44.8944 128.372 44.9724C128.138 45.4795 128.099 45.9671 128.353 46.5619C128.275 46.6789 128.011 46.7082 127.953 46.7862C128.187 47.0397 128.421 47.2835 128.704 47.5858C128.441 47.5858 127.329 47.7809 127.28 47.9954C128.431 47.8881 129.445 48.561 130.079 48.4732C130.157 47.8881 130.02 47.4005 129.777 47.0007C130.079 46.9617 130.381 46.9227 130.703 46.8935C130.498 46.5912 130.118 46.3864 130.576 46.0353C130.645 45.9768 130.576 45.7233 130.547 45.3625C130.869 45.5283 131.103 45.6453 131.425 45.8208C131.483 45.7038 131.6 45.46 131.717 45.226C132.751 45.7038 133.726 46.1621 134.702 46.6107C134.731 46.5522 134.75 46.4936 134.78 46.4351C134.477 46.3084 134.155 46.2206 133.882 46.0353C133.6 45.85 133.473 45.499 133.2 45.3137C132.888 45.0992 132.439 45.0309 132.049 44.8846C132.332 44.6994 132.634 44.4946 133.024 44.2313C132.927 44.1533 132.819 44.0558 132.702 43.968C132.722 43.929 132.732 43.8997 132.741 43.8705C132.907 43.929 133.122 43.9388 133.209 44.046C133.365 44.2606 133.453 44.5336 133.59 44.7676C133.765 45.0992 133.97 45.421 134.224 45.8501C134.389 45.499 134.458 45.3527 134.565 45.1187C134.624 45.4015 134.672 45.6355 134.731 45.9183C134.75 45.9183 134.867 45.9281 134.994 45.9378C134.975 45.8793 134.955 45.8501 134.955 45.8305C134.887 45.3722 134.789 44.9139 134.76 44.4458C134.76 44.3776 134.984 44.2898 135.189 44.1338C135.209 44.4946 135.228 44.7091 135.257 45.0309C135.316 45.0602 135.511 45.1479 135.745 45.2747C135.589 45.4697 135.472 45.616 135.355 45.772C135.93 46.5619 134.78 46.5327 134.76 47.0885C135.15 47.5956 134.224 48.1222 134.311 48.0929C135.374 48.2294 136.876 48.1319 139.938 47.3615C140.202 47.2933 140.397 47.0885 140.592 46.9032C140.533 46.8154 140.485 46.7277 140.494 46.6692C140.163 46.7374 140.055 47.069 139.617 47.1568C139.743 46.8155 139.929 46.4839 140.016 46.2109C139.841 46.1133 139.626 46.0061 139.285 45.8305H140.299C140.28 46.2791 140.475 46.3474 141.187 46.4839C141.713 46.2206 142.103 46.1231 141.986 46.4644C141.918 46.6594 141.567 46.8935 141.392 47.0397C140.202 48.0149 137.988 48.6292 136.896 48.8243C136.418 48.9413 135.93 49.0193 135.394 49.1266C135.394 49.1558 135.355 49.3411 135.326 49.5361C134.623 49.3703 133.912 49.6044 133.765 50.1212C134.477 49.8189 135.384 50.1505 135.969 49.3021C137.013 49.4094 139.188 48.7267 140.387 49.5556C140.475 49.3411 140.465 49.0583 140.465 49.0583L141.977 48.5902C141.977 48.5902 142.64 49.7409 144.776 50.1602C145.283 50.2577 146.736 50.2675 146.736 50.2675C146.736 50.2675 145.917 50.521 144.834 50.443C143.693 50.365 142.289 49.7312 141.791 49.5556C142.074 49.7312 144.034 50.7161 143.995 50.7843C143.001 50.6478 141.382 50.2675 141.109 50.131M128.928 46.3279C129.065 46.3961 129.221 46.4351 129.377 46.4644C129.611 46.5034 129.855 46.4644 130.108 46.4644C130.108 46.5229 130.108 46.5717 130.118 46.6302C129.903 46.6594 129.699 46.6984 129.582 46.7179C129.543 46.7959 129.513 46.8642 129.484 46.9325C129.318 46.8447 129.084 46.835 128.889 46.9422C128.889 46.7179 128.928 46.4937 128.928 46.3084M128.567 46.1231C128.226 45.8208 128.684 45.538 128.87 45.4405C128.889 45.6063 128.928 45.8305 128.938 46.1426C128.821 46.1426 128.597 46.1621 128.558 46.1328M129.406 43.1294C129.474 42.9148 129.465 43.0611 129.552 42.6711C129.279 43.0514 128.811 43.8217 128.811 43.8217C128.811 43.8217 128.977 43.4707 129.27 42.9441C129.328 42.8466 129.435 42.7393 129.513 42.6028C129.816 42.086 130.313 41.7447 130.508 41.5496C130.567 41.4911 130.606 41.4619 130.606 41.4619L131.132 41.0035L130.615 41.5399L131.708 40.633L130.167 42.1152C129.572 42.6808 129.396 43.1294 129.396 43.1294M153.387 40.6525C153.874 40.6525 154.313 40.633 154.684 40.5842C154.976 40.8378 155.532 41.0718 156.049 41.2766C156.039 41.7252 156.137 43.5389 156.137 43.5389C156.137 43.5389 154.82 43.1781 154.694 43.1489C152.607 42.6223 151.914 40.594 151.914 40.594H151.895C152.06 40.594 152.216 40.594 152.343 40.5842C152.685 40.6232 152.997 40.6525 153.289 40.6525C153.777 41.1498 154.694 42.0665 155.162 42.5443C154.645 41.7837 153.806 40.8085 153.387 40.6525ZM149.466 41.5789C148.706 41.023 148.384 40.8378 147.721 40.7013C147.721 40.6427 147.73 40.5842 147.74 40.5355C148.228 40.4185 148.706 40.3014 149.262 40.1649C149.739 40.3307 150.588 40.4867 151.329 40.555C151.495 40.8865 152.665 43.0221 155.357 43.5194C155.523 43.5487 156.556 44.0168 156.556 44.0168C156.39 43.3147 156.39 42.9148 156.39 42.6906C156.605 42.8271 157.054 43.1294 157.756 43.3049C158.321 43.89 159.648 44.4848 159.882 44.4751C159.326 44.2508 158.585 43.7242 158.087 43.3634C158.653 43.4512 159.355 43.4512 160.223 43.2171C160.691 43.9973 161.959 44.7774 161.959 44.7774C161.598 45.1187 160.633 45.7428 158.546 45.343C155.376 44.7286 154.606 43.4804 154.606 43.4804L154.528 43.3049C152.646 45.0017 149.827 41.8617 149.466 41.5789ZM153.026 45.2357C153.143 45.3332 152.353 45.538 151.417 45.6258C150.958 45.6648 150.276 45.4795 149.973 45.4015C149.252 45.2065 148.423 44.6311 148.423 44.6311C147.214 43.8412 147.75 42.8758 147.799 42.8173C148.374 42.9051 150.266 44.3093 150.968 44.4556C150.646 44.3288 148.15 42.8466 148.13 42.1445C148.364 42.2907 148.472 42.3493 148.628 42.437C148.745 42.203 148.842 41.9885 148.969 41.7447C150.5 42.0957 153.036 45.2357 153.036 45.2357M168.074 46.2791C168.6 46.4254 169.059 46.5424 169.488 46.6594C169.566 46.7959 169.673 47.108 169.332 47.4981L169.624 47.9954C169.624 47.9954 168.961 47.9466 168.912 47.9661C168.542 48.1124 168.405 48.4635 167.362 48.444C167.303 48.2392 167.186 47.9954 166.981 47.7126C167.03 48.0441 167.362 48.4245 167.137 48.7463C167.098 48.795 167.196 49.0388 167.196 49.0388C167.196 49.0388 166.611 49.1851 166.338 49.2241C165.441 49.2826 165.138 49.3118 164.904 49.2826C164.787 49.2728 164.602 49.1656 164.534 49.0681C164.407 48.9023 164.339 48.6975 164.251 48.5025C164.26 49.2046 164.729 49.9847 165.343 50.1115C164.758 51.7595 164.348 51.974 164.339 52.013C163.393 51.896 162.242 51.5059 161.803 51.1549C161.618 50.9989 161.306 50.7648 161.189 50.638C160.876 50.2967 160.613 50.1212 160.447 49.9554C160.876 50.6966 161.228 51.2719 161.549 52.2275C161.696 52.8321 161.51 53.2905 161.374 53.5928C161.296 53.7585 161.189 54.3729 161.189 54.3729C161.189 54.3729 160.623 53.9926 160.457 53.9341C159.735 53.6805 159.131 53.3197 158.926 53.0077C158.809 52.8321 158.234 52.208 158.048 51.7887C158.087 51.8082 158.585 52.0325 158.907 51.9935C159.043 51.974 159.414 52.5883 159.414 52.5883C159.414 52.5883 159.355 52.0325 159.521 51.8277C159.843 51.4474 159.862 51.2231 159.901 51.1841L160.876 53.2905C160.876 53.2905 160.681 51.9447 160.116 50.9696C160.009 50.7843 160.594 49.6726 159.589 48.5317C160.204 50.0335 159.628 51.3889 159.462 51.6034C159.423 51.662 159.248 52.13 159.248 52.13C159.248 52.13 158.936 51.7497 158.78 51.7497C158.741 51.7497 158.702 51.7497 158.663 51.7497C157.024 50.6088 157.044 49.6434 157.141 49.5166C157.229 49.3996 158.643 49.2923 159.004 50.9111C159.004 50.9111 159.17 50.0335 158.282 49.5166C158.702 49.5751 159.492 49.7312 159.492 49.7312C159.492 49.7312 159.375 49.3021 159.365 49.2143C159.277 48.561 159.687 48.3757 159.677 48.3854C160.311 48.5902 161.647 48.717 162.047 48.7853C162.369 49.1851 162.885 49.8677 163.89 50.8526L162.183 48.8048C162.144 48.7755 162.622 48.8048 163.09 48.7463C163.461 48.6975 163.968 48.561 163.968 48.561C163.968 48.561 163.939 47.4591 163.948 47.1568C163.958 46.6302 163.822 46.3474 163.617 45.9281C163.558 45.9086 163.441 45.85 163.119 45.772C163.695 46.6887 163.656 47.7126 163.5 48.2489C163.256 48.3659 161.588 48.1709 160.477 48.0149C159.014 47.8101 157.122 46.5424 156.42 45.1479C156.42 44.9822 156.312 46.2791 156.312 46.2791C156.312 46.2791 155.435 46.1816 155.269 46.1718C154.42 46.1133 153.592 45.8598 153.348 45.7233C153.338 45.7233 153.075 45.8598 153.055 45.8598C153.367 46.0256 153.738 46.0548 154.46 46.2499C154.664 46.5424 155.425 47.5176 156.703 47.9076C156.703 47.9076 155.513 47.2933 155.006 46.5912L154.84 46.3279C155.152 46.3864 156.615 46.5717 156.615 46.5717C156.615 46.5717 156.527 45.8013 156.507 45.6648C156.781 46.7082 157.824 47.4591 157.824 47.4591C158.351 47.7906 158.829 48.0344 159.306 48.2197C159.258 48.3659 159.18 48.5902 159.16 48.795C159.131 48.9998 159.238 49.4191 159.238 49.4191C159.238 49.4191 157.21 49.0485 156.956 49.0193C154.118 48.6585 152.431 46.9227 152.168 45.8305C152.168 46.8935 148.793 45.2845 148.647 45.226C148.696 45.2455 150.5 46.6107 151.612 46.7082C151.807 46.7277 150.949 47.5371 150.305 47.4591C149.34 47.3518 148.218 46.3669 148.267 45.9963C148.267 45.9963 148.023 46.2694 147.877 46.4351C148.101 46.5522 148.306 46.6302 148.472 46.7569C148.579 46.8545 149.174 47.4981 149.232 48.3659C148.501 47.381 147.76 47.5956 147.477 47.4786C147.594 47.5566 147.691 47.6443 147.799 47.7321C147.35 47.7321 147.214 47.7126 147.194 47.7613C147.935 48.1709 148.043 48.834 148.784 49.2436C150.539 50.2772 150.958 49.5264 150.91 49.6044C151.027 49.6824 150.451 51.5742 146.424 48.2392C145.79 47.7126 145.136 47.7418 144.337 47.8979C144.483 47.5078 144.59 46.991 144.59 46.991C144.59 46.991 146.355 47.2835 147.019 47.1958C146.209 47.147 145.224 46.835 144.727 46.4449C144.434 45.9086 144.551 45.616 144.522 45.2747L144.844 45.0797C145.478 45.4405 146.765 46.1719 146.98 46.3181C146.375 45.9281 145.478 45.1479 145.565 44.9724C145.77 45.0699 145.926 45.1674 146.131 45.265C146.17 45.0699 146.209 44.9042 146.248 44.7286H146.853C146.609 44.5726 146.443 44.4653 146.277 44.3678C146.277 44.3288 146.297 44.2801 146.307 44.241C146.433 44.2801 147.487 44.8359 148.306 45.1577C147.262 44.7481 147.204 44.3483 147.223 44.2801L150.256 45.6745C150.256 45.6745 151.095 45.9086 151.563 45.8208C151.904 45.7623 153.572 45.4112 153.553 45.3625C153.533 45.3137 152.958 44.6409 152.646 44.3873L152.538 44.2313C153.289 44.2313 154.089 43.8997 154.089 43.8997C154.186 43.851 154.264 43.7925 154.333 43.7437H154.323C154.84 44.1825 155.259 44.4263 156.634 45.0894C156.742 45.1382 157.766 45.6063 159.404 45.6063C159.599 45.6063 162.105 47.108 162.105 47.108L160.886 46.1523C160.886 46.1523 160.389 45.6843 160.204 45.577C161.091 45.46 161.93 45.0504 162.32 44.8456C162.32 44.8456 163.471 45.1089 164.075 44.9724C164.114 44.9724 164.173 44.9724 164.231 44.9627C164.612 45.265 165.899 46.1426 167.254 45.616C167.254 45.616 167.254 45.616 167.274 45.6258C167.703 45.8403 167.908 46.4059 167.908 46.4059C167.83 47.0397 167.254 47.3518 166.952 47.4688C168.103 47.069 168.21 46.5522 168.093 46.2011M158.019 59.3754C157.697 59.2974 157.502 59.3364 157.073 59.1511C156.664 58.8293 156.742 58.4783 156.742 58.3905C156.576 58.3222 156.439 58.2442 156.381 58.1467C155.045 56.918 155.796 54.4899 155.854 54.0998C155.854 54.0316 156.732 57.2496 157.863 58.2637C158.282 58.644 157.356 58.6343 156.771 58.41C157.59 59.2779 158.868 58.5855 158.097 57.2398C159.414 58.3222 158.594 59.4339 157.892 59.7752C158.097 59.5899 158.107 59.4339 158.019 59.3852M158.468 57.2691C157.922 57.074 157.687 56.84 157.502 56.6547C156.546 55.3968 157.073 55.1725 156.127 53.8853C156.244 53.9243 156.322 54.0316 156.615 54.1193C156.664 54.1388 157.141 54.5582 157.141 54.5094C157.141 54.4704 157.102 53.8853 157.239 53.4952C158.224 54.5289 158.399 55.9429 158.399 55.9429C158.672 54.0413 157.658 53.6025 157.336 52.5396C157.366 52.6371 157.346 52.7541 157.307 52.8711V52.8419C157.278 52.9784 157.2 53.1149 157.005 53.3197C156.868 53.466 156.898 54.0608 156.898 54.0608C156.898 54.0608 156.108 53.2905 155.874 53.1247C154.781 52.3543 154.947 50.9013 154.859 50.1212C154.635 48.2587 153.436 48.2392 153.465 48.1417C153.484 48.0539 155.415 48.7267 156.303 51.3207C156.488 51.8667 156.283 52.3836 156.283 52.3836C156.283 52.3836 156.703 51.6034 155.864 49.7897C155.318 48.834 155.922 49.1168 156.215 49.1948C156.673 49.9554 157.278 50.8038 157.375 51.7107C157.463 52.4713 157.795 53.0467 158.312 53.6903C159.131 54.7142 159.462 55.1823 159.55 55.6113C159.648 56.0891 159.462 56.4597 159.316 56.8595C159.267 56.996 159.219 57.8249 159.219 57.8249C159.219 57.8249 158.585 57.3178 158.477 57.2788M156.117 63.2858C153.845 62.9152 155.581 60.292 155.532 59.7362C155.747 60.3701 155.191 61.8718 156.117 63.2858ZM149.983 54.2071C150.256 54.88 151.027 55.348 150.627 56.723C150.393 56.3329 150.373 55.465 149.769 55.3383C149.759 55.0165 149.993 54.5972 149.983 54.2071ZM148.871 52.5688C148.754 52.247 148.871 51.7692 148.735 51.3889C149.223 51.974 150.149 52.1983 150.169 53.6805C149.817 53.3685 149.515 52.5201 148.871 52.5688ZM151.427 47.7223C151.427 47.0592 151.69 46.9617 151.778 46.9032C151.973 46.7569 152.158 46.7082 152.168 46.6984C152.441 47.2543 152.519 47.2933 152.889 47.5663C152.763 47.8004 152.597 48.0539 152.558 48.5317C152.519 49.029 152.967 49.7019 152.967 49.7019C152.967 49.7019 152.109 49.3606 151.631 49.2241C150.481 48.8925 149.515 48.0149 149.408 47.2835C149.408 47.2835 150.042 47.6736 150.578 47.5468C150.695 47.5176 151.134 47.3615 151.134 47.3615C151.134 47.3615 151.154 47.7711 151.3 48.0246C151.446 48.2684 152.08 48.9705 152.08 48.9705C152.08 48.9705 151.417 48.0441 151.417 47.7126M154.518 55.5236C154.518 55.5236 154.03 54.7239 153.972 54.6654C153.787 54.4996 153.65 54.1291 153.66 54.1974C153.709 55.1237 153.416 55.9136 153.27 56.528C152.997 56.4207 152.148 55.114 151.963 54.5191C151.592 53.3392 151.67 52.1495 150.958 51.3597C152.051 51.818 152.099 54.0511 152.928 55.1823C153.338 54.3339 153.748 51.6327 153.787 51.4669C153.826 51.4962 153.709 51.9643 153.709 52.7249C153.728 54.5679 154.694 53.2515 154.742 52.6274C154.752 52.4616 154.791 53.0369 154.616 53.7878C154.381 54.8117 154.518 55.5041 154.518 55.5041M154.567 60.9747C153.211 62.4374 153.211 58.7221 153.036 57.6591C153.874 61.1307 154.635 60.9454 154.567 60.9747ZM154.411 51.7107C153.26 51.4669 153.299 49.3021 152.909 48.3562C153.445 48.2099 153.689 49.0388 154.021 49.6921C154.421 50.482 154.742 50.9306 154.411 51.7107ZM151.748 51.1354C152.129 51.2036 152.499 51.2426 152.499 51.2426C152.499 51.2426 152.685 50.7063 152.675 50.5795C152.655 50.287 152.743 50.2285 152.597 49.6531C152.646 49.7507 152.909 49.9554 152.87 51.1646C152.87 51.2524 152.919 52.4128 152.919 52.4128C152.919 52.4128 152.587 51.5839 151.992 51.5644C150.695 51.5157 150.305 50.4138 150.305 50.4138C150.451 50.4723 150.588 50.3065 150.734 50.599C150.861 50.8428 151.114 51.0086 151.748 51.1354ZM150.598 57.5616C151.222 58.3222 151.807 60.1068 151.183 60.9942C151.017 60.1653 150.422 58.7806 150.598 57.5616ZM151.241 56.0209C151.222 55.9234 151.29 55.8161 151.319 55.7186C151.563 55.7966 151.865 55.8161 152.021 55.9819C152.207 56.1477 152.46 56.7327 152.499 56.9863C152.519 57.0643 152.168 57.0058 152.051 57.1228C151.934 57.2301 151.885 57.7274 151.739 57.8932C151.622 57.4544 151.349 56.489 151.241 56.0111M152.226 63.1492C152.197 62.7007 152.129 61.3355 152.09 60.8966C152.041 60.3213 152.012 59.3364 151.885 58.4588C152.343 58.5563 153.582 60.9747 152.226 63.159M153.631 65.5579C152.334 66.0357 152.236 64.3584 152.187 63.5491C152.353 65.5579 153.699 65.5481 153.631 65.5579ZM153.543 62.7884C153.543 62.7884 153.709 64.1244 154.606 65.3531C154.606 65.3531 153.328 65.2946 153.543 62.7884ZM154.157 58.8488C154.313 58.098 154.479 57.6104 153.874 57.1423C153.845 57.1228 154.079 56.4207 154.079 56.2062C154.333 56.3232 154.352 56.4499 154.489 56.606C155.084 57.3178 155.766 59.0439 154.791 60.175C154.655 59.6679 154.089 59.1804 154.147 58.8586M158.877 53.2027C159.462 53.8073 160.525 54.6362 161.871 54.5484L159.492 57.0838C160.447 55.348 159.17 53.6805 158.877 53.2027ZM144.376 49.0778C144.912 49.2923 142.747 49.1363 142.318 48.2879C142.552 48.1124 143.059 47.7711 143.059 47.7711C143.059 47.7711 144.668 48.0539 145.244 47.8881C144.181 48.2294 143.995 48.1319 143.956 48.3464C143.878 48.717 144.005 48.9315 144.366 49.0778M142.016 42.8661C142.016 42.8661 142.025 42.7978 142.016 42.7491C141.791 42.7783 141.47 42.6906 141.47 42.6711C141.47 42.6516 141.47 42.632 141.47 42.6028C141.392 42.6028 141.333 42.593 141.314 42.593C141.079 42.5735 140.836 42.8661 140.592 42.593C140.524 42.7003 140.426 42.7978 140.368 42.9148C140.173 43.2464 140.094 43.6072 139.675 43.2757C139.821 43.0514 139.899 42.8173 140.046 42.6028C139.334 42.476 138.924 43.5487 138.924 43.5487L138.749 43.4317C138.749 43.4317 138.71 43.0514 139.031 42.4858C139.168 42.242 139.539 41.9007 139.539 41.9007L139.461 41.6081C139.461 41.6081 138.144 42.0762 138.193 43.4414C138.203 43.695 138.417 44.1143 138.534 44.241C138.905 44.6604 139.539 44.8554 139.919 44.6896C141.05 44.1923 141.079 44.9919 141.079 44.9919C141.079 44.9919 138.827 46.4156 137.549 44.4751C137.12 43.8315 137.725 43.6072 137.861 43.0221C138.144 41.7544 139.675 40.945 140.641 40.7598C140.641 40.7598 141.031 40.6427 141.294 40.594C142.425 40.3794 143.459 40.2819 143.615 40.2722C144.083 40.0869 144.571 39.9309 145.049 39.7944C145.127 39.7749 145.946 39.6383 146.131 39.8821C145.068 39.6773 144.19 40.6135 143.703 40.6817C143.703 40.6817 142.484 40.5257 141.947 40.984C142.123 41.3936 142.845 41.3936 143.361 41.2083C143.869 41.0231 145.156 40.7305 145.497 40.7013C145.575 40.6915 146.531 40.477 146.58 40.5452C146.609 40.594 145.77 41.0133 145.731 41.0426C145.595 41.1303 145.409 41.2766 145.283 41.2376C145.107 41.1888 144.951 41.1011 144.805 41.023C144.6 41.1791 144.015 41.3058 143.986 41.3058C143.449 41.4131 143.479 41.8129 143.118 41.7934C142.377 41.7447 144.356 42.1737 144.951 42.3493C145.546 42.5248 146.531 43.0416 147.145 43.1976C146.57 43.851 145.497 43.7437 144.532 43.4414C144.62 43.2561 144.707 43.0709 144.815 42.8271C144.064 42.7978 143.518 42.398 142.776 42.3688C142.776 42.3688 142.474 44.1533 144.473 44.046C144.688 44.0363 145.37 44.241 145.624 44.3483C144.922 44.2606 144.649 44.3678 144.405 44.4946L143.956 45.1382C143.752 44.7579 143.693 44.1825 143.059 44.3191C143.108 44.4263 143.186 44.5336 143.235 44.6409C143.127 44.6799 142.991 44.7774 142.932 44.7579C142.367 44.6019 142.689 43.9875 142.552 43.7925C142.484 43.8217 142.377 44.4068 142.162 44.4946C142.133 44.1143 142.113 43.7535 142.084 43.4024C141.86 43.4219 141.694 43.4414 141.489 43.4512C141.528 43.2854 141.996 43.1196 142.308 42.9636C142.191 42.9343 142.055 42.8953 142.016 42.8856M139.012 45.772C138.827 45.9963 138.788 46.3669 138.534 46.6789C138.32 46.3669 138.086 46.2596 137.998 46.0061C137.969 45.9281 138.086 45.4015 138.173 45.421C138.407 45.6063 138.612 45.7038 139.012 45.772ZM145.722 42.2127C146.316 42.2322 147.106 41.8617 147.75 42.1445C147.75 42.2127 147.506 42.4468 147.506 42.515C147.243 42.6125 146.98 42.7003 146.824 42.7588C146.404 42.6223 146.063 42.5053 145.722 42.3883V42.2127ZM144.863 41.8422C145.107 41.7154 145.575 41.4229 145.77 41.2473C145.77 41.2473 145.985 41.7154 146.19 41.5204C146.248 41.4326 146.785 41.7057 146.833 41.5789C146.785 41.7447 146.326 41.7739 146.277 41.8324C146.073 42.1445 145.653 41.9787 144.863 41.8422ZM146.541 41.3644C147.038 40.8768 148.14 40.828 148.589 41.8032C147.945 41.7447 147.292 41.4326 146.541 41.3644ZM142.357 45.0114C142.806 45.0504 144.278 45.304 144.356 45.9183C143.244 46.4741 142.464 46.1231 142.152 45.9573C142.006 45.8793 142.835 45.5868 142.357 45.0017M148.433 50.053C147.204 50.1895 145.79 49.3996 144.756 48.873C144.376 48.678 145 48.0539 148.433 50.053ZM145.585 40.3697C146.277 40.0674 148.218 39.5213 148.842 39.5603C148.433 40.2332 146.043 40.3892 145.585 40.3697ZM141.84 40.0771C140.416 40.4282 136.837 41.9982 135.862 42.4273C135.774 42.3883 138.329 40.5355 140.153 39.9699C141.548 39.5311 145.565 39.0435 147.574 38.5559C147.477 38.6437 143.703 39.5993 141.83 40.0674M136.428 46.4839C136.662 46.4937 136.896 46.7374 137.11 46.8642C136.74 47.2153 135.901 46.9617 135.326 47.5858C135.248 47.4298 135.335 46.8447 135.238 46.6594C135.56 46.5619 136.125 46.4644 136.418 46.4839M144.502 51.9935C145.37 51.9838 145.917 52.3933 145.907 52.9979C145.4 52.6371 144.951 52.3153 144.502 51.9935ZM147.389 55.5236C147.009 55.0262 146.092 53.9243 145.761 53.4855C147.35 53.6903 147.74 54.6557 147.389 55.5236ZM147.926 53.1929C147.379 53.2222 147.409 52.052 146.589 52.5201C146.628 52.2178 146.746 52.0423 146.794 51.701C147.545 52.1008 148.101 52.5981 147.935 53.1929M147.974 54.997C148.101 54.7142 148.238 54.3924 148.384 54.0803C149.067 54.5387 149.398 55.5138 149.057 56.0404C148.53 55.9039 148.901 54.7922 147.984 54.997M148.832 57.2496C148.92 57.2496 149.652 57.5421 149.749 57.5421C149.749 58.098 149.895 58.7513 150.227 59.8727C150.178 59.8727 149.827 59.785 149.778 59.785C149.73 59.6484 149.418 58.4295 148.832 57.2496ZM150.5 62.8664C149.964 62.2619 150.412 61.1892 150.022 60.5456C150.88 60.8771 150.734 61.1892 150.5 62.8664ZM150.88 63.6661C151.31 64.3682 151.475 65.0703 151.544 65.6359C151.69 65.9479 151.963 66.3575 152.421 66.416C152.373 66.1917 152.324 65.9187 152.295 65.6164C152.753 67.2156 153.787 67.4497 153.787 67.4497C153.787 67.4497 152.88 68.3956 152.441 66.4843C152.256 66.5818 151.826 66.7085 151.573 65.9967C151.592 66.533 151.524 66.8743 151.524 66.8743C151.124 65.2751 150.89 63.6661 150.89 63.6661M151.544 67.2254C151.544 67.2254 151.826 68.9416 152.86 69.9168C152.86 69.9168 151.485 69.8583 151.544 67.2254ZM152.431 71.6721C152.88 69.517 156.283 62.8177 157.6 60.9649C157.366 60.9844 157.219 60.9649 156.966 60.9649C156.478 60.9649 156.049 60.5163 156.049 59.9312C156.049 59.6289 155.454 58.2052 155.513 57.8834C155.747 58.1272 156.742 59.4242 157.044 59.7947C157.327 60.136 157.317 60.7211 157.736 60.7796C159.345 58.4588 161.286 55.9916 163.588 53.6415C162.515 54.6362 161.871 54.5484 161.481 53.9243C161.442 53.856 161.939 53.3685 161.92 52.6761C161.891 52.13 161.618 51.6034 161.569 51.2816C161.832 51.4669 162.076 51.5937 162.33 51.6912C162.856 52.247 163.002 53.0369 163.041 53.3002C162.983 52.4713 162.71 51.9935 162.466 51.74C163.051 51.8765 164.787 52.2861 164.787 52.2861C164.787 52.2861 164.651 51.9155 164.846 51.5937C165.255 50.9208 165.421 50.3065 165.48 50.0627C165.626 50.0627 165.782 50.0335 165.938 49.9554C165.684 49.9067 165.46 49.8677 165.343 49.6239C165.675 49.5654 166.269 49.3899 166.864 49.2436C167.342 49.1168 167.762 49.1071 167.762 49.1071C167.762 49.1071 167.362 48.9413 167.381 48.873C167.42 48.756 167.43 48.6292 167.401 48.4732C167.596 48.5805 168.054 48.6682 169.01 48.1222H170.083C170.083 48.1222 169.507 47.5858 169.605 47.4591C169.761 47.2543 169.77 47.2055 169.77 46.8545C169.77 46.7862 169.751 46.7277 169.731 46.6789C170.034 46.913 170.531 47.2055 171.965 46.4644C171.594 46.2694 171.185 46.1523 170.941 46.0353C171.019 47.0592 170.122 46.3376 169.634 46.5424C169.195 46.2401 168.786 45.7818 168.054 46.1328C168.015 46.0353 167.976 45.9573 167.937 45.8988C167.801 45.694 167.674 45.5673 167.576 45.4892C167.781 45.4697 168.103 45.4502 168.103 45.4502C168.103 45.4502 167.888 45.0309 167.83 44.9139C167.43 44.046 167.284 43.5682 165.519 42.9148C165.46 42.8173 165.314 42.5443 165.323 42.4468C165.421 41.3936 164.056 40.7695 163.822 40.6525C163.792 40.633 165.255 41.5106 165.158 42.2127C165.138 42.3395 165.236 42.7783 165.236 42.7783C165.236 42.7783 164.212 42.8758 163.929 42.8758C162.164 42.8271 159.355 40.5355 158.711 40.2722C158.711 40.2722 158.711 40.2722 158.702 40.2722C159.765 41.2278 160.243 41.6764 161.169 42.32C162.408 43.0416 162.798 43.0709 164.816 43.0709C165.811 42.7491 167.391 43.9973 167.605 44.9237C167.625 45.0114 167.781 45.3137 167.781 45.3137C167.781 45.3137 167.274 45.3332 167.167 45.4015C166.484 45.5283 166.318 45.6063 165.431 45.3625C164.846 45.2065 164.592 45.0407 164.485 44.9237C164.836 44.9237 165.245 44.9237 165.245 44.9237C165.245 44.9237 164.846 43.0709 164.563 43.1781C164.495 43.2074 164.807 43.4707 164.885 44.1045C164.904 44.241 164.972 44.6701 164.972 44.6701C164.972 44.6701 164.026 44.6701 163.753 44.7579C163.432 44.8554 163.071 44.7969 162.642 44.6409C162.193 44.4751 161.003 43.8412 160.633 42.9734C161.159 42.7588 160.915 42.7783 160.925 42.7101C158.643 43.6462 156.41 42.1542 156.41 42.1542C156.41 42.1542 156.39 41.5984 156.449 41.3253C157.892 41.8422 159.57 42.242 159.57 42.242C159.57 42.242 156.546 41.3449 155.327 40.3892C156.039 40.2429 156.429 40.0576 156.527 40.1064C156.966 40.3014 157.853 40.516 158.692 40.2819C158.692 40.2819 158.692 40.2722 158.682 40.2624C158.682 40.2624 158.702 40.2624 158.711 40.2722C159.082 40.1649 159.453 39.9699 159.755 39.6383C157.629 41.0133 155.113 38.7022 154.83 38.5559C154.762 38.5169 154.128 38.3901 154.069 38.3414C154.342 38.5657 155.103 39.2873 155.952 39.7651C156.137 39.8724 149.613 41.1986 150.305 38.8387C150.49 38.4877 152.138 38.9167 154.43 39.5018C153.445 39.219 149.739 38.0196 148.657 38.0781C149.856 37.3565 151.787 37.4637 152.275 37.454C152.792 37.454 153.338 37.3955 153.884 37.3272C154.089 37.4637 154.713 37.8441 155.805 38.0976C156.234 38.1951 156.673 38.2731 157.171 38.2146C159.219 38.8387 158.975 39.7651 158.975 39.7651L159.189 39.5506C159.677 38.8777 158.39 38.3511 157.639 38.1171C157.902 38.0391 158.195 37.9221 158.507 37.7368C158.614 37.6783 159.15 37.4637 159.15 37.4637C159.15 37.4637 157.951 36.5374 157.317 36.2936L158.624 37.3662C158.624 37.3662 158.068 37.6588 157.97 37.688C157.229 37.9318 156.917 38.1268 156.273 37.9903C154.957 37.7075 154.518 37.3955 154.391 37.2687C155.259 37.1419 156.069 37.0054 156.624 36.9469C154.733 36.9859 152.928 37.4637 151.573 36.9469C152.226 36.8884 152.675 36.7226 153.211 36.5764C156.995 35.5524 158.789 35.6305 158.789 35.6305C158.789 35.6305 157.756 35.3672 157.746 35.3087C157.746 35.2111 158.36 34.9771 159.092 35.0551C158.614 34.9284 158.009 34.8113 157.414 34.7821C157.239 34.7821 157.054 34.431 157.024 34.4115C156.839 34.314 158.36 34.236 158.302 34.236C156.351 34.0312 155.21 34.236 154.976 34.2555C155.191 34.2555 156.215 34.3043 156.644 34.5675C156.927 34.7431 157.658 35.4939 157.658 35.4939C157.658 35.4939 157.054 35.5232 156.283 35.6987C153.455 36.3326 151.914 36.2058 151.417 36.4008C152.724 35.3379 153.621 34.4505 154.567 34.275C154.206 34.3238 153.445 34.4505 152.724 34.6163C152.177 34.7626 152.012 34.8601 151.797 34.9771C151.69 35.0356 151.592 35.1331 151.485 35.2014C151.573 35.1916 152.363 35.2404 152.499 35.2209C150.851 36.0888 148.101 37.3175 147.818 37.4247C147.799 37.376 151.056 35.4257 151.134 35.2989C151.173 35.2209 150.851 35.1916 149.983 35.4842C148.93 35.8352 148.316 36.5569 144.99 37.22C145.019 37.1712 147.623 35.2404 147.818 35.1136C147.76 35.2599 147.155 36.001 147.038 36.2643C148.745 34.8991 152.802 33.6314 152.802 33.6314C152.802 33.6314 151.592 33.9922 150.539 34.2652C149.964 34.3433 148.901 34.548 149.232 34.3823C150.237 33.8752 150.939 32.9098 150.851 32.9878C150.169 33.6021 148.735 34.2945 148.589 34.3725C147.389 34.9479 146.307 36.1765 145.887 36.3618C145.526 36.1668 145.751 35.6987 146.248 35.0356C145.995 34.9966 145.702 35.6207 145.058 35.65C145.205 35.4647 146.502 33.5826 146.706 33.2121C146.687 33.2218 146.677 33.2413 146.667 33.2413C146.102 34.0312 145.644 34.1092 144.912 35.0161C144.532 35.4939 144.688 35.8645 143.966 36.5764C143.537 36.9469 142.923 37.4832 142.474 37.532C142.474 37.5028 142.513 37.3857 142.572 37.2395C142.523 37.298 142.503 37.3272 142.503 37.3272C142.552 37.2297 142.601 37.1322 142.65 37.0347C142.825 36.5764 143.069 35.962 143.069 35.9328C142.084 36.1278 141.499 37.337 140.485 38.0683C140.533 37.2687 140.65 36.7909 140.797 36.3716C140.397 36.8494 139.977 37.6783 139.051 38.2244C139.217 37.8343 139.314 37.4345 139.344 37.337C138.973 38.1171 138.29 38.7412 137.53 39.5018C137.773 38.5949 137.988 37.766 137.9 37.8928C136.759 39.4823 135.608 39.9406 135.306 40.2819C135.257 40.2429 135.813 39.0045 136.662 37.5613C137.393 36.3911 138.495 34.8601 139.344 34.08C139.441 34.1287 137.783 36.8104 136.964 38.1756C136.906 38.2829 138.515 37.0054 138.905 36.2253C139.324 35.5427 139.392 35.2502 140.114 34.4895C139.88 34.4408 138.866 35.6792 138.602 35.8352C138.846 35.1916 140.563 32.6367 140.738 32.3735C141.079 31.8566 141.743 31.0765 142.357 30.784C143.274 30.3549 143.42 30.4232 143.42 30.4232C143.313 30.7937 141.46 32.2272 141.46 32.2272C142.874 31.4276 143.244 31.2033 143.537 30.9302C143.654 30.784 144.181 30.2086 144.181 30.2086C144.181 30.2086 142.298 29.7893 140.797 32.0322C140.797 32.0322 140.436 32.4222 140.446 32.4222C140.329 32.5392 138.583 34.2262 137.998 34.3823C138.134 34.2067 139.782 32.1784 140.699 31.0765C141.86 29.682 142.796 29.2725 143.644 28.5704C144.815 27.605 145.419 27.2247 146.56 26.9614C145.722 27.4879 144.707 28.5899 144.717 28.5801C144.2 28.8824 143.927 29.1457 143.927 29.1457C146.19 27.995 147.73 28.1901 147.73 28.1901C147.73 28.1901 147.379 28.4338 147.136 28.5996C146.872 28.7459 146.658 28.9409 145.751 29.2237C145.585 29.2432 145.409 29.2822 145.224 29.3602C144.727 29.5065 143.674 30.1209 144.502 29.7698C144.502 29.7698 144.893 29.6333 145.263 29.526C145.858 29.4187 145.809 29.7405 145.809 29.7405C145.673 30.1404 144.317 30.8815 144.317 30.8815C144.961 30.6084 145.292 30.4329 145.487 30.2866C145.458 30.2964 145.458 30.2866 145.487 30.2866C145.809 30.1696 146.365 30.0038 146.96 29.9453C147.818 29.8576 148.52 29.9453 148.52 29.9453C148.218 30.3549 146.736 31.3105 146.736 31.3105C148.189 31.0863 148.969 29.9746 148.969 29.9746C148.969 29.9746 148.238 29.7113 147.984 29.643C147.808 29.6333 146.95 29.4187 145.751 30.0526C145.809 29.9941 146.658 29.37 146.658 29.37C146.658 29.37 146.414 29.2725 146.424 29.2725C146.814 29.1555 147.76 28.5801 147.857 28.5314C148.286 28.2876 149.301 27.9073 150.451 27.9268C150.871 27.9463 152.08 28.0535 152.08 28.0535C151.875 28.3168 148.842 28.9994 148.842 28.9994C149.593 28.9507 150.139 28.9409 150.529 28.9019C150.354 28.9799 150.188 29.0774 150.022 29.2042C150.022 29.2042 150.481 28.9702 151.222 28.9117C152.519 28.8141 152.802 29.7503 152.802 29.7503C152.577 30.0526 150.393 30.6279 150.393 30.6279C151.436 30.6474 152.031 30.5012 152.421 30.3451C152.07 30.3451 151.856 30.3451 151.856 30.3451C152.08 30.3451 152.285 30.3256 152.49 30.3159C152.714 30.2184 152.86 30.1306 153.006 30.0721C153.172 29.9746 153.855 29.5455 153.855 29.5455C152.841 29.0384 152.07 28.7361 151.388 28.7264C151.924 28.5216 152.743 28.0633 152.743 28.0633C152.743 28.0633 153.358 27.9853 153.553 27.9755C154.177 27.9463 154.372 28.151 154.655 28.1315C154.801 28.1315 153.826 27.7122 153.816 27.6927C153.582 27.3027 154.323 27.0784 154.967 26.9516C155.22 26.9126 155.532 26.8638 155.591 26.8541C156.576 26.8248 157.005 27.3319 158.516 27.0296C158.37 26.6786 157.102 26.3275 157.122 26.269C157.892 26.3178 160.067 26.9126 161.286 27.3417C159.599 27.1466 157.424 27.3709 157.414 27.4489C158.419 27.3904 160.262 27.4489 161.491 27.7025C162.7 27.917 163.617 28.5021 163.597 28.5801C163.48 28.5801 162.651 28.5801 162.232 28.5119C161.725 28.3948 161.267 28.2291 160.701 28.112C160.252 28.0243 159.063 28.0048 159.033 28.073C159.97 28.2486 161.237 28.4923 162.213 28.5899C162.593 28.6679 162.759 28.7946 162.934 28.8824C160.798 29.0969 157.785 28.1315 158.419 28.3266C160.184 28.8922 159.521 29.37 158.594 29.526C158.585 29.5455 159.16 29.6138 159.414 29.6918C160.018 29.8576 160.408 30.1891 160.408 30.1891C160.408 30.1891 159.755 29.5358 159.745 29.5065C159.706 29.175 161.793 28.7849 163.987 29.3992C164.017 29.1847 164.075 29.0482 163.88 28.8629C165.811 29.2822 166.66 30.6767 166.65 30.7352C166.123 30.3939 165.148 30.0916 164.602 30.0038C165.236 30.4817 166.386 31.33 166.386 31.33C166.386 31.33 167.313 31.2618 168.425 31.7104C169 31.9444 169.478 32.354 169.741 32.8708C169.078 32.3735 168.825 32.393 168.649 32.3735C169.195 32.9585 170.814 33.7484 171.321 34.548C170.395 33.8069 167.791 33.7094 167.527 33.7679C170.463 34.4505 170.941 34.7041 171.633 37.2492C171.692 36.3423 171.243 35.0454 170.687 34.6943C172.423 35.3769 171.984 36.04 171.984 36.04C172.54 36.1473 173.359 37.1224 173.359 37.1224C173.359 37.1224 172.209 36.5666 171.984 36.9079C172.433 37.1419 172.589 37.6295 172.774 37.9903C172.823 38.0781 173.437 38.8095 174.666 39.6383C173.954 39.5798 173.857 39.4433 173.71 39.4823C173.525 39.5311 173.515 39.6871 173.467 39.7651C174.432 40.6915 175.466 40.7695 175.934 42.2225C175.524 41.9007 173.915 41.4521 173.457 41.2668C175.992 42.4858 175.28 43.1099 177.533 44.5531C177.475 44.5628 176.431 44.7481 176.1 44.9529C176.422 44.9139 178.245 46.2889 177.007 46.3864C170.404 50.2187 162.164 57.2008 153.835 71.1845C153.533 71.6916 153.231 72.2474 152.967 72.7447C152.938 72.6472 152.373 72.1109 152.499 71.6623M152.87 73.9929C152.889 73.9247 152.909 73.8662 152.919 73.7979C153.933 71.8281 156.098 68.142 160.135 62.9542C160.135 62.9542 172.472 48.2587 177.767 47.303C177.972 47.3908 178.089 47.5663 178.499 48.4635L178.538 48.5415C178.655 48.7755 178.752 49.1851 178.791 49.2728C178.791 49.2728 178.791 49.2826 178.782 49.2923C175.797 50.365 170.541 54.8117 165.489 60.5261C159.092 67.7617 153.24 76.3333 153.24 76.3333C153.24 76.3333 152.85 75.7872 152.714 74.7048C152.694 74.539 152.792 74.227 152.86 73.9929M179.659 52.3543C179.484 52.4518 179.308 52.5493 179.133 52.6761C178.977 52.7541 178.84 52.8419 178.684 52.9297C169.205 58.6928 162.076 68.5516 157.795 73.6614C156.546 75.2411 155.123 76.9086 153.748 78.8784C153.319 78.6737 153.045 78.5566 153.104 78.2446C153.133 78.1276 153.279 77.757 153.387 77.4937L153.796 76.8404C168.152 55.7966 176.831 51.3011 178.957 50.3748C179.055 50.443 179.24 50.599 179.376 50.8331C179.708 51.7595 179.659 52.091 179.649 52.3543" fill="black"/>
<path d="M163.002 53.4368C163.002 53.4368 163.012 53.505 163.012 53.544C163.012 53.544 163.012 53.505 163.002 53.4368Z" fill="black"/>
<path d="M74.0915 122.38C74.2182 121.912 74.6571 121.658 75.1057 121.658H84.4776C85.443 121.658 85.9404 122.146 85.9502 123.16V125.715C85.9502 125.715 85.9502 126.563 85.0139 126.563C84.0777 126.563 84.3118 124.623 82.6149 124.623H80.3231C80.0501 124.623 79.8355 124.837 79.8258 125.101V129.801C79.8355 130.054 80.0403 130.259 80.3036 130.279H81.7469C83.4438 130.279 83.2098 128.348 84.146 128.348C85.0822 128.348 85.0822 129.196 85.0822 129.196V134.335C85.0822 134.335 85.0822 135.184 84.146 135.184C83.2098 135.184 83.4438 133.243 81.7469 133.243H80.2841C80.0403 133.263 79.8355 133.467 79.8258 133.711V137.934C79.8355 138.197 80.0598 138.411 80.3231 138.411H82.9562C84.4971 138.509 85.0139 136.724 86.0574 137.153C87.2667 137.641 86.8766 138.353 86.8766 138.353L85.9209 140.118L85.7161 140.508C85.404 141.044 84.9554 141.308 84.341 141.298H77.4267H75.0959C74.6571 141.298 74.2085 141.044 74.0915 140.586C73.9452 140.05 74.1402 139.65 75.0179 139.162C75.6031 138.84 76.1784 138.421 76.1784 137.417V125.549C76.1784 124.535 75.5835 124.106 75.0082 123.794C74.1305 123.316 73.9354 122.916 74.0817 122.38" fill="black"/>
<path d="M91.6452 122.38C91.772 121.922 92.2011 121.668 92.64 121.658H102.938C103.914 121.658 104.411 122.146 104.421 123.16V125.715C104.421 125.715 104.421 126.563 103.494 126.563C102.568 126.563 102.792 124.623 101.095 124.623H97.8769C97.6038 124.623 97.3796 124.837 97.3698 125.101V129.811C97.3796 130.064 97.5843 130.269 97.8477 130.288H99.3007C100.998 130.288 100.764 128.348 101.7 128.348C102.636 128.348 102.636 129.196 102.636 129.196V134.345C102.636 134.345 102.636 135.193 101.7 135.193C100.764 135.193 100.998 133.253 99.3007 133.253H97.8477C97.5941 133.272 97.3893 133.467 97.3795 133.731V137.544C97.4186 138.372 97.8769 138.782 98.3743 139.075L98.5401 139.172C99.408 139.66 99.6128 140.059 99.4568 140.596C99.33 141.054 98.8911 141.308 98.4425 141.308H95.1463H94.9707H92.64C92.1914 141.308 91.7525 141.054 91.6355 140.596C91.4892 140.059 91.6843 139.66 92.5522 139.172C93.1373 138.85 93.7225 138.431 93.7225 137.427V129.469V125.559C93.7225 124.74 93.3324 124.311 92.8838 124.008C92.796 123.94 92.6887 123.872 92.562 123.804C91.694 123.326 91.4892 122.926 91.6452 122.39" fill="black"/>
<path d="M189.324 126.817V127.49C189.324 127.773 189.558 127.997 189.841 127.997H190.718C191.099 128.016 191.43 127.997 191.713 127.997C193.849 127.997 196.365 127.1 196.326 123.706C196.296 120.517 194.697 118.704 191.918 118.704C191.684 118.704 190.64 118.723 189.782 118.743C189.519 118.772 189.314 118.986 189.314 119.25V126.817H189.324ZM193.186 115.885H193.975C195.36 115.885 196.482 116.188 197.369 116.744C199.232 117.904 200.032 120.147 200.032 122.936C200.032 123.862 199.837 124.711 199.524 125.461C198.53 127.958 196.326 129.43 195.799 129.713C195.741 129.752 195.721 129.781 195.721 129.811C195.721 130.269 195.76 130.727 195.848 131.176C196.394 134.296 198.891 138.49 201.855 139.738C202.665 140.118 203.143 140.255 203.221 140.84C203.221 140.888 203.201 141.005 203.152 141.132C203.016 141.473 202.635 141.981 201.855 141.981C198.461 141.981 195.633 139.084 193.897 136.286C192.786 134.608 191.898 132.707 191.303 130.874C191.264 130.757 191.177 130.669 191.05 130.669C190.582 130.708 190.328 130.708 189.88 130.708C189.558 130.727 189.353 130.932 189.343 131.176V137.514C189.382 138.314 189.811 138.724 190.289 139.016C190.357 139.055 190.426 139.104 190.504 139.143C191.372 139.63 191.576 140.03 191.42 140.567C191.294 141.025 190.855 141.278 190.406 141.278H186.564H186.378H184.048C183.599 141.278 183.16 141.025 183.033 140.567C182.887 140.02 183.082 139.63 183.96 139.143C184.545 138.821 185.13 138.402 185.13 137.388V119.776C185.13 117.797 182.858 118.07 182.858 116.978C182.858 115.885 183.843 115.885 183.843 115.885H193.166H193.186Z" fill="black"/>
<path d="M63.2566 137.583C63.3151 138.528 63.949 138.909 64.5146 139.221C65.3046 139.679 65.4801 140.069 65.3436 140.586C65.2168 141.044 64.7779 141.298 64.3293 141.298H58.361C57.9221 141.298 57.4735 141.044 57.3565 140.586C57.22 140.079 57.3858 139.689 58.1659 139.231C58.7803 138.899 59.463 138.499 59.463 137.417V130.474V125.11C59.4435 124.847 59.2192 124.633 58.9559 124.633H56.4593C54.7039 124.642 54.6259 125.744 53.6507 125.744C52.6852 125.744 52.9192 124.935 52.9192 124.935L53.6312 122.438C53.8262 121.736 54.7917 121.658 55.094 121.658H67.138H68.9226C68.9226 121.658 70.0929 121.6 69.9564 122.438L69.3225 124.935C69.3225 124.935 69.2054 125.744 68.4253 125.744C67.294 125.744 68.3765 124.642 66.6211 124.633H65.168H63.7637C63.4906 124.633 63.2761 124.837 63.2566 125.101V137.583Z" fill="black"/>
<path d="M210.652 121.658H212.826C213.275 121.658 213.714 121.912 213.841 122.38C213.987 122.916 213.782 123.316 212.904 123.794C212.778 123.872 212.67 123.94 212.573 124.008C212.124 124.311 211.754 124.74 211.754 125.549V137.583C211.812 138.353 212.232 138.743 212.7 139.036C212.768 139.075 212.836 139.123 212.914 139.162C213.792 139.65 213.987 140.05 213.841 140.586C213.714 141.044 213.275 141.298 212.826 141.298H210.086H209.481H207.151C206.702 141.298 206.263 141.044 206.136 140.586C206 140.05 206.195 139.65 207.073 139.162C207.648 138.84 208.243 138.421 208.243 137.417V137.319C208.243 129.362 208.243 125.383 208.243 125.383C208.194 124.603 207.755 124.203 207.277 123.921L207.082 123.794C206.205 123.316 206.01 122.916 206.156 122.38C206.283 121.912 206.722 121.658 207.17 121.658H210.661H210.652Z" fill="black"/>
<path d="M232.36 123.014C232.623 123.17 232.848 123.414 232.955 123.774L233.93 126.71C233.93 126.71 234.252 127.821 232.916 127.812C231.59 127.812 231.112 126.524 229.327 125.491L228.586 125.081C227.465 124.545 226.304 124.262 225.29 124.262C222.676 124.262 220.726 126.875 220.726 129.772C220.726 135.037 225.504 138.099 228.947 138.099C230.634 138.099 232.097 137.192 232.838 135.544C233.053 134.95 233.862 135.359 233.969 136.334V138.577C233.969 138.675 233.93 138.753 233.862 138.811C232.087 140.401 229.766 141.327 227.25 141.327C221.038 141.327 217.498 136.578 217.498 131.332C217.498 125.783 222.003 121.658 227.328 121.658C229.181 121.658 230.878 122.156 232.35 123.004L232.36 123.014Z" fill="black"/>
<path d="M253.181 123.014C253.445 123.17 253.659 123.414 253.766 123.774L254.742 126.71C254.742 126.71 255.063 127.821 253.737 127.812C252.411 127.812 251.913 126.524 250.139 125.491L249.397 125.081C248.276 124.545 247.106 124.262 246.091 124.262C243.488 124.262 241.527 126.875 241.527 129.772C241.527 135.037 246.306 138.099 249.758 138.099C251.445 138.099 252.898 137.192 253.649 135.544C253.854 134.95 254.664 135.359 254.771 136.334V138.577C254.771 138.675 254.732 138.753 254.664 138.811C252.898 140.401 250.568 141.327 248.052 141.327C241.849 141.327 238.309 136.578 238.309 131.332C238.309 125.783 242.805 121.658 248.149 121.658C249.992 121.658 251.699 122.156 253.152 123.004H253.171L253.181 123.014Z" fill="black"/>
<path d="M48.5113 118.538C48.6966 118.733 48.8136 118.986 48.8136 119.308V122.351C48.8136 122.351 48.8136 123.345 47.7213 123.024C46.6291 122.712 46.5316 121.532 45.3125 120.264L44.7957 119.757C44.0057 119.045 43.1085 118.538 42.2699 118.294C41.714 118.138 41.1581 118.099 40.6217 118.187C38.9443 118.528 37.7448 119.952 38.0276 121.571C39.0516 127.207 50.0716 126.446 50.0716 134.384C50.0716 138.841 45.7416 141.298 42.0358 141.298C39.8708 141.298 33.9805 140.04 33.9805 137.31C33.9805 137.251 34.8582 133.926 35.8041 133.194C37.0524 132.248 38.2617 133.536 38.2617 133.935C38.2617 134.335 37.7741 135.642 37.7741 136.052C37.7741 138.88 41.6555 138.831 42.1821 138.831C44.0155 138.831 46.5023 137.622 46.5023 135.759C46.5023 130.288 35.0727 130.922 34.9459 122.097C34.8972 118.577 37.0329 116.861 39.8806 116.266C40.69 116.09 41.5677 116.002 42.4161 116.012H42.699C43.3719 116.041 44.0448 116.139 44.6494 116.315C46.1805 116.734 47.4775 117.485 48.4723 118.528L48.5113 118.538Z" fill="black"/>
<path d="M145.926 121.658H148.101C148.55 121.658 148.979 121.912 149.105 122.38C149.261 122.916 149.057 123.316 148.179 123.794C148.091 123.843 148.003 123.901 147.925 123.95C147.448 124.252 147.018 124.691 147.018 125.549V140.079C147.018 141.473 144.844 141.561 144.19 140.888L144.025 140.742L133.785 128.748C133.443 128.358 133.18 128.855 133.18 129.138V137.583C133.258 138.538 133.882 138.919 134.458 139.231C135.238 139.689 135.423 140.079 135.277 140.586C135.14 141.044 134.711 141.298 134.263 141.298H129.143C128.694 141.298 128.265 141.044 128.128 140.586C127.992 140.05 128.187 139.65 129.065 139.162C129.582 138.879 130.118 138.499 130.215 137.68V125.374C130.157 124.613 129.738 124.213 129.279 123.921C129.211 123.882 129.143 123.843 129.055 123.784C128.187 123.306 127.982 122.907 128.128 122.37C128.255 121.902 128.694 121.649 129.143 121.649H134.721C134.721 121.649 135.491 121.649 135.491 122.497C135.491 123.297 134.575 123.238 135.306 124.174L136.028 125.042L143.478 133.809C143.81 134.17 144.073 133.672 144.064 133.399V125.383C144.015 124.623 143.605 124.233 143.157 123.95C143.079 123.901 143.01 123.852 142.913 123.794C142.045 123.316 141.84 122.916 141.996 122.38C142.123 121.912 142.562 121.658 143.01 121.658H145.936H145.926Z" fill="black"/>
<path d="M263.762 121.658H265.927C266.376 121.658 266.815 121.912 266.941 122.38C267.088 122.916 266.893 123.316 266.015 123.794C265.879 123.872 265.781 123.94 265.674 124.008C265.235 124.311 264.855 124.74 264.855 125.549V137.583C264.923 138.353 265.342 138.743 265.8 139.036C265.869 139.075 265.937 139.123 266.015 139.162C266.893 139.65 267.088 140.05 266.951 140.586C266.815 141.044 266.386 141.298 265.937 141.298H263.187H262.582H260.251C259.803 141.298 259.364 141.044 259.247 140.586C259.101 140.05 259.296 139.65 260.173 139.162C260.739 138.84 261.344 138.421 261.344 137.417V125.383C261.285 124.603 260.856 124.203 260.378 123.921L260.183 123.794C259.305 123.316 259.101 122.916 259.247 122.38C259.374 121.912 259.813 121.658 260.261 121.658H263.762Z" fill="black"/>
<path d="M112.447 123.901C112.447 123.901 112.369 123.843 112.33 123.813C112.261 123.765 112.183 123.726 112.115 123.687C111.394 123.248 111.228 122.867 111.364 122.37C111.481 121.902 111.93 121.649 112.369 121.649H118.61C119.059 121.649 119.498 121.902 119.624 122.37C119.761 122.858 119.595 123.238 118.873 123.687C118.805 123.716 118.727 123.765 118.659 123.813C118.62 123.843 118.581 123.872 118.552 123.901C118.288 124.125 118.162 124.467 118.357 125.081L118.581 125.822L122.189 137.407C122.852 139.757 124.452 139.123 124.452 140.206C124.452 141.288 123.467 141.298 123.467 141.298H120.814H118.483C118.035 141.298 117.596 141.044 117.469 140.586C117.323 140.079 117.498 139.689 118.279 139.231C118.386 139.172 118.483 139.123 118.571 139.065C118.61 139.036 118.649 138.987 118.688 138.958C118.844 138.801 118.903 138.587 118.795 138.255L117.459 133.594C117.391 133.399 117.206 133.263 116.982 133.263H113.178C112.954 133.263 112.759 133.409 112.7 133.604L111.364 138.255C111.237 138.665 111.364 138.899 111.598 139.065C111.637 139.094 111.686 139.133 111.764 139.172C112.632 139.66 112.827 140.059 112.681 140.596C112.544 141.054 112.115 141.308 111.667 141.308H107.727C107.278 141.308 106.839 141.054 106.712 140.596C106.576 140.128 106.712 139.757 107.346 139.348C107.463 139.289 107.58 139.221 107.707 139.143C107.814 139.065 107.931 138.977 108.049 138.86C108.351 138.567 108.634 138.129 108.838 137.427L111.871 127.665L112.661 125.101C112.866 124.486 112.72 124.145 112.466 123.921M116.504 130.279C116.504 130.279 116.504 130.21 116.494 130.181L115.216 125.461C115.197 125.403 115.148 125.374 115.099 125.374C115.041 125.374 115.002 125.403 114.982 125.452L113.685 130.191C113.685 130.191 113.676 130.259 113.676 130.288C113.676 130.474 113.812 130.62 113.988 130.63H116.192C116.377 130.63 116.513 130.474 116.513 130.288" fill="black"/>
<path d="M159.872 124.262C157.258 124.262 155.308 126.875 155.308 129.762C155.308 135.028 160.086 138.09 163.529 138.09C165.986 138.09 167.966 136.159 167.966 132.834C167.966 127.734 163.158 124.262 159.872 124.262ZM161.92 121.658C167.479 121.658 171.75 126.144 171.75 131.254C171.75 137.036 167.235 141.337 161.832 141.337C155.62 141.337 152.07 136.588 152.07 131.342C152.07 125.793 156.576 121.668 161.91 121.668" fill="black"/>
</g>
<defs>
<clipPath id="clip0_11206_245">
<rect width="233" height="135" fill="white" transform="translate(34 7)"/>
</clipPath>
</defs>
</svg>
