<svg width="212" height="88" viewBox="0 0 212 88" fill="none" xmlns="http://www.w3.org/2000/svg">
<g clip-path="url(#clip0_4191_41062)">
<path d="M105.5 59.5985C89.3104 59.5985 76.1392 46.4538 76.1392 30.2962C76.1392 14.1385 89.3104 1 105.5 1C121.69 1 134.861 14.1448 134.861 30.2962C134.861 46.4476 121.69 59.5985 105.5 59.5985ZM105.5 1.58394C89.6347 1.58394 76.7254 14.4616 76.7254 30.2962C76.7254 46.1307 89.6347 59.0084 105.5 59.0084C121.366 59.0084 134.275 46.1245 134.275 30.2962C134.275 14.4678 121.366 1.58394 105.5 1.58394ZM105.5 58.4741C89.9278 58.4741 77.2617 45.8326 77.2617 30.2962C77.2617 14.7598 89.9278 2.12439 105.5 2.12439C121.072 2.12439 133.739 14.766 133.739 30.3024C133.739 45.8388 121.072 58.4804 105.5 58.4804M105.5 2.70832C90.2521 2.70832 77.8542 15.089 77.8542 30.3024C77.8542 45.5157 90.2584 57.8964 105.5 57.8964C120.742 57.8964 133.152 45.5157 133.152 30.3024C133.152 15.089 120.748 2.70832 105.5 2.70832ZM105.5 57.3994C90.5265 57.3994 78.3468 45.2424 78.3468 30.3024C78.3468 15.3623 90.5265 3.19908 105.5 3.19908C120.474 3.19908 132.66 15.3561 132.66 30.2962C132.66 45.2362 120.474 57.3932 105.5 57.3932M105.5 3.78301C90.8508 3.78301 78.9331 15.6791 78.9331 30.2962C78.9331 44.9132 90.8508 56.8093 105.5 56.8093C120.149 56.8093 132.067 44.9132 132.067 30.2962C132.067 15.6791 120.149 3.78301 105.5 3.78301ZM105.5 56.1011C91.2437 56.1011 79.644 44.5218 79.644 30.2962C79.644 16.0705 91.2375 4.49119 105.5 4.49119C119.763 4.49119 131.356 16.0643 131.356 30.2962C131.356 44.528 119.757 56.1011 105.5 56.1011ZM105.5 5.07512C91.568 5.07512 80.2302 16.3873 80.2302 30.2962C80.2302 44.205 91.568 55.5172 105.5 55.5172C119.432 55.5172 130.77 44.205 130.77 30.2962C130.77 16.3873 119.432 5.08133 105.5 5.08133M105.5 52.5478C93.2082 52.5478 83.205 42.565 83.205 30.3024C83.205 18.0397 93.2082 8.05071 105.5 8.05071C117.792 8.05071 127.795 18.0335 127.795 30.2962C127.795 42.5588 117.792 52.5416 105.5 52.5416M105.5 8.63464C93.5325 8.63464 83.7912 18.3503 83.7912 30.2962C83.7912 42.242 93.5262 51.9577 105.5 51.9577C117.474 51.9577 127.209 42.242 127.209 30.2962C127.209 18.3503 117.468 8.63464 105.5 8.63464Z" fill="black"/>
<path d="M82.4003 30.2961C82.4003 30.6627 82.1009 30.9671 81.7267 30.9671C81.3526 30.9671 81.0532 30.6689 81.0532 30.2961C81.0532 29.9234 81.3526 29.6252 81.7267 29.6252C82.1009 29.6252 82.4003 29.9234 82.4003 30.2961Z" fill="black"/>
<path d="M129.972 30.2961C129.972 30.6627 129.672 30.9671 129.298 30.9671C128.924 30.9671 128.625 30.6689 128.625 30.2961C128.625 29.9234 128.924 29.6252 129.298 29.6252C129.672 29.6252 129.972 29.9234 129.972 30.2961Z" fill="black"/>
<path d="M85.4999 41.8072C85.687 42.1302 85.5747 42.5402 85.2505 42.7204C84.9324 42.9067 84.5208 42.7949 84.3337 42.4781C84.1466 42.1551 84.2589 41.7451 84.5769 41.5587C84.9012 41.3724 85.3128 41.4842 85.4999 41.8072Z" fill="black"/>
<path d="M126.698 18.1205C126.885 18.4435 126.772 18.8473 126.454 19.0337C126.136 19.22 125.718 19.1082 125.538 18.7852C125.35 18.4621 125.463 18.0584 125.787 17.872C126.111 17.6918 126.523 17.7975 126.704 18.1205" fill="black"/>
<path d="M93.7478 50.1672C94.0721 50.3474 94.1781 50.7636 93.9972 51.0804C93.8101 51.3972 93.3985 51.509 93.0742 51.3227C92.7562 51.1363 92.6439 50.7263 92.831 50.4095C93.0181 50.0865 93.4297 49.9809 93.7478 50.1672Z" fill="black"/>
<path d="M117.742 9.2C118.06 9.38636 118.172 9.79636 117.985 10.1194C117.805 10.4362 117.387 10.548 117.069 10.3617C116.751 10.1753 116.638 9.7653 116.825 9.44848C117.012 9.12546 117.424 9.01985 117.748 9.2" fill="black"/>
<path d="M105.512 53.3181C105.887 53.3181 106.186 53.6163 106.186 53.989C106.186 54.3617 105.887 54.6599 105.512 54.6599C105.138 54.6599 104.839 54.3555 104.839 53.989C104.839 53.6225 105.138 53.3181 105.512 53.3181Z" fill="black"/>
<path d="M105.512 5.9386C105.887 5.9386 106.186 6.24299 106.186 6.6095C106.186 6.97602 105.887 7.28041 105.512 7.28041C105.138 7.28041 104.839 6.98223 104.839 6.6095C104.839 6.23678 105.138 5.9386 105.512 5.9386Z" fill="black"/>
<path d="M117.069 50.2369C117.393 50.0506 117.804 50.1624 117.985 50.4792C118.172 50.8022 118.06 51.2122 117.742 51.3924C117.418 51.5787 117.006 51.4669 116.819 51.1439C116.632 50.8209 116.744 50.4109 117.069 50.2307" fill="black"/>
<path d="M93.2892 9.19995C93.6135 9.01359 94.0251 9.12541 94.206 9.44844C94.3931 9.76525 94.2808 10.1815 93.9565 10.3616C93.6322 10.548 93.2206 10.4362 93.0398 10.1193C92.8527 9.79631 92.9649 9.38631 93.283 9.19995" fill="black"/>
<path d="M125.531 41.8071C125.718 41.4903 126.13 41.3785 126.448 41.5586C126.772 41.745 126.885 42.155 126.691 42.478C126.504 42.7948 126.092 42.9067 125.774 42.7203C125.456 42.5339 125.344 42.1239 125.531 41.8071Z" fill="black"/>
<path d="M84.3336 18.1143C84.5207 17.7975 84.9323 17.6857 85.2504 17.872C85.5747 18.0584 85.6869 18.4684 85.4998 18.7852C85.3127 19.102 84.9011 19.2139 84.5768 19.0337C84.2525 18.8473 84.1465 18.4373 84.3336 18.1143Z" fill="black"/>
<path d="M115.815 29.0972C115.815 29.0972 116.563 28.4263 117.886 27.5876C118.148 27.4013 120.68 25.7986 121.615 25.3389C120.804 25.5252 117.119 27.7305 114.961 29.6625C114.786 29.8426 114.481 30.1284 114.356 30.265C114.337 30.2899 114.325 30.3147 114.306 30.3396C114.318 30.3396 114.337 30.321 114.368 30.3023C114.749 29.911 115.266 29.4947 115.809 29.0972" fill="black"/>
<path d="M117.58 20.5991C117.935 20.7171 118.172 20.6923 118.684 20.8352C118.821 20.8724 119.208 20.8538 119.158 21.27C119.158 21.3073 119.245 21.3818 119.307 21.4191C119.469 21.5247 119.788 21.7111 119.95 21.8105C119.806 21.562 119.326 21.3446 119.32 21.0029C119.32 20.9346 119.357 20.742 119.251 20.7171C118.621 20.5743 118.079 20.5618 117.374 20.4252C117.486 20.5121 117.474 20.5618 117.58 20.5991Z" fill="black"/>
<path d="M113.377 17.549C112.666 17.7788 111.593 17.785 111.593 17.8223C112.622 18.0956 112.965 17.872 114.48 17.4558C114.2 17.2384 113.62 17.4682 113.377 17.549Z" fill="black"/>
<path d="M114.742 20.214C114.855 20.2699 114.979 20.3258 115.098 20.332C115.784 20.3693 116.389 20.537 117.15 20.5618C116.881 20.45 116.669 20.3071 116.432 20.2636C116.164 20.2202 115.877 20.2636 115.591 20.2512C115.322 20.2264 115.148 20.009 114.886 19.9717C114.823 19.9717 114.742 20.009 114.699 20.0586C114.674 20.0773 114.711 20.1953 114.749 20.214" fill="black"/>
<path d="M116.114 17.5738C116.489 17.6173 116.869 17.6359 117.249 17.6608C117.262 17.6297 117.262 17.5986 117.268 17.5614C116.439 17.4247 115.616 17.2942 114.78 17.1514C114.767 17.1638 114.755 17.1824 114.742 17.1949C114.861 17.2694 114.961 17.3874 115.085 17.4061C115.422 17.4806 115.771 17.5303 116.114 17.5676" fill="black"/>
<path d="M116.732 24.2704C116.719 24.4381 116.975 24.4754 116.432 24.6245C116.9 24.612 117.642 24.699 118.097 24.9475C118.041 24.7363 117.218 24.4443 116.738 24.2704" fill="black"/>
<path d="M115.977 26.8671H115.99C115.435 26.8919 114.593 26.631 114.113 26.2086C114.256 26.4819 115.26 27.1156 115.977 26.8733" fill="black"/>
<path d="M111.524 22.1273C112.291 22.146 113.595 22.9349 114.063 23.2703C112.728 22.1708 112.073 22.1273 111.524 22.1273Z" fill="black"/>
<path d="M107.302 17.9341C107.514 17.8099 107.658 17.6981 108.574 17.5552C107.795 17.5987 107.502 17.6732 107.227 17.7353C107.115 17.754 107.246 17.8658 107.302 17.9341Z" fill="black"/>
<path d="M113.358 15.9525C113.133 16.2693 112.447 16.0395 112.422 16.083C112.703 16.3066 114.424 16.4992 114.705 16.7228C114.73 16.6855 113.576 16.0022 113.358 15.9463" fill="black"/>
<path d="M113.458 19.8226C113.458 19.8226 114.699 20.8476 114.306 21.8291C114.343 21.8043 114.736 20.9346 114.069 20.2761C113.719 19.9345 113.458 19.8226 113.458 19.8226Z" fill="black"/>
<path d="M119.488 25.6992C119.95 25.6122 121.091 25.2085 121.029 25.0966C120.399 24.7922 119.526 24.2766 118.989 23.9536C119.158 24.2269 119.763 24.5313 120.336 25.0966C120.305 25.165 119.669 25.3824 119.632 25.401C119.139 25.6247 118.303 25.1153 118.285 25.1401C118.434 25.3203 118.584 25.4756 118.821 25.6309C118.921 25.6992 119.22 25.7303 119.488 25.6992Z" fill="black"/>
<path d="M93.8817 26.1278C93.8817 26.1278 93.8255 26.1713 93.7756 26.221C93.8879 26.2396 93.9752 26.252 94.075 26.2707C94.0189 26.3514 93.9877 26.4011 93.9565 26.4446C94.2247 26.426 94.4741 26.4011 94.761 26.3763C94.736 26.2686 94.445 26.1858 93.8879 26.1278" fill="black"/>
<path d="M118.278 22.1894C118.702 22.3447 119.476 22.6926 119.831 22.8169C119.744 22.7609 119.039 21.8726 118.278 22.1894Z" fill="black"/>
<path d="M114.699 18.7045C115.216 18.7914 115.659 18.866 116.108 18.9405C116.114 18.9219 116.127 18.897 116.133 18.8784C115.715 18.5926 115.291 18.3131 114.867 18.0273C114.848 18.0398 114.817 18.046 114.799 18.0584C114.886 18.2075 114.973 18.3566 115.079 18.5305C115.011 18.5429 114.954 18.5367 114.898 18.5554C114.855 18.574 114.811 18.6175 114.699 18.7045Z" fill="black"/>
<path d="M117.044 19.8413C116.838 19.5245 116.825 19.0151 116.202 18.9902C116.607 19.4002 116.807 19.6052 117.044 19.8413Z" fill="black"/>
<path d="M112.915 16.8781C112.26 16.8781 110.807 16.8098 109.953 16.1637C110.595 17.2446 112.086 16.9464 112.915 16.8781Z" fill="black"/>
<path d="M116.526 23.2455C116.906 23.2455 117.256 23.2455 117.599 23.2455C117.599 23.2455 118.172 23.2641 118.422 23.3138C118.621 23.3511 118.459 23.5375 118.659 23.581C119.002 23.6617 119.495 23.525 119.956 23.6182C120.162 23.6617 120.573 24.0034 120.742 24.1897C120.948 24.4134 121.297 24.5252 121.44 24.5935C121.334 24.4382 120.991 24.0158 120.885 23.8605C120.904 23.8294 120.923 23.7984 120.941 23.7735C120.848 23.786 120.792 23.7984 120.623 23.7611C120.318 23.699 119.819 23.5437 119.513 23.4816C119.376 23.4567 119.158 23.407 119.027 23.376C118.628 23.2952 116.401 22.8355 116.214 22.8044C116.121 22.792 116.002 22.6988 115.959 22.6181C115.884 22.4752 115.871 22.3945 115.834 22.2454C115.834 22.2454 115.834 22.2454 115.828 22.2454C115.728 22.966 116.426 23.0157 116.694 24.1835C116.732 24.2456 116.894 23.7114 116.526 23.2393" fill="black"/>
<path d="M111.1 18.4187C111.774 18.5367 112.641 18.7541 113.439 19.0834C114.231 19.4126 114.855 19.3878 114.855 19.3878C114.449 19.307 114.2 19.189 114.2 19.189C112.684 18.3379 111.1 18.4187 111.1 18.4187Z" fill="black"/>
<path d="M106.716 15.9524C106.716 15.9524 106.691 15.9648 106.672 15.9711C107.315 15.9711 108.649 16.0083 109.236 16.3376C108.231 15.7785 107.651 15.8965 106.716 15.9586" fill="black"/>
<path d="M112.36 21.0215C112.666 20.9345 112.803 20.8227 112.803 20.8227C112.99 20.7171 113.377 20.7233 113.377 20.7233C113.377 20.7233 112.99 20.3692 112.959 20.3009C112.522 19.3753 111.518 19.0833 111.425 19.0585C111.456 19.0709 111.481 19.0833 111.512 19.0957C111.593 19.133 111.574 19.1268 111.493 19.102C112.204 19.5182 112.435 19.7542 112.647 20.1021C112.697 20.1829 112.915 20.568 112.915 20.568C112.915 20.568 112.753 20.6985 112.616 20.7854C112.011 21.1706 110.583 20.9469 110.583 20.9469L111.3 21.0774C111.543 21.1085 111.924 21.1147 112.023 21.096C112.036 21.096 112.104 21.1147 112.192 21.1333C112.709 21.2824 113.052 21.6675 113.158 21.7856C113.096 21.8104 112.909 21.9222 112.809 22.0216C113.358 22.1397 113.639 22.1769 114.2 22.0278C113.433 22.1148 113.015 21.183 112.36 21.0215Z" fill="black"/>
<path d="M115.834 22.2516C116.227 22.2391 116.588 22.1708 116.769 21.9658C117.212 22.0093 117.661 22.0341 118.023 22.0838C118.029 22.059 116.719 21.0029 116.7 21.0154C116.794 21.1582 117.28 21.4875 117.318 21.7857C117.249 21.7981 116.794 21.6738 116.738 21.6987C116.694 21.7173 116.632 21.854 116.526 21.941C116.239 22.1335 115.802 22.2019 115.659 22.2267C115.304 22.1149 114.961 21.767 114.487 22.1522C114.73 22.1708 115.304 22.2578 115.821 22.2454C115.821 22.2391 115.821 22.2329 115.821 22.2205C115.821 22.2267 115.821 22.2329 115.821 22.2454" fill="black"/>
<path d="M100.455 20.2139C100.436 20.2636 100.417 20.3071 100.405 20.3443C100.592 20.1083 101.334 19.1703 101.82 18.5428C101.82 18.5428 100.91 19.3691 100.455 20.2139Z" fill="black"/>
<path d="M95.5405 20.9905C95.5405 20.9905 96.451 20.2823 96.8065 19.5431C96.8065 19.5431 96.1267 20.0463 95.5405 20.9905Z" fill="black"/>
<path d="M110.502 15.4617C110.502 15.4617 110.003 15.2505 109.728 15.0207C109.142 14.5982 108.899 14.7908 108.899 14.7535C108.687 14.8095 110.021 15.1946 109.866 15.3375C109.261 15.9028 107.826 15.1511 107.751 15.1511C107.751 15.1946 107.739 15.2381 107.733 15.2816C108.188 15.412 108.45 15.8034 109.167 15.8158C109.728 15.7723 109.878 15.6295 110.015 15.5798C110.102 15.5487 110.502 15.4617 110.502 15.4617Z" fill="black"/>
<path d="M109.08 17.2321C108.843 17.2508 108.649 17.3315 108.525 17.4496C109.242 17.3626 109.884 17.4744 110.47 17.4868C109.959 17.3315 109.522 17.2011 109.08 17.2321Z" fill="black"/>
<path d="M105.469 16.9029L104.864 17.4309C104.571 17.667 103.442 17.8906 103.442 17.8906C104.346 17.7726 104.664 17.7477 105.007 17.4993C105.02 17.4868 105.157 17.3999 105.157 17.3999C107.003 17.3564 107.814 17.1452 108.344 16.934C108.5 16.8718 108.949 16.6047 108.949 16.6047C108.949 16.6047 108.275 16.5178 108.213 16.5115C107.92 16.4867 106.885 16.4308 106.885 16.4308C106.885 16.4308 107.639 16.5364 107.901 16.6544C108.581 16.965 105.188 17.375 105.188 17.375C105.17 17.375 106.46 16.5488 106.46 16.5488C106.46 16.5488 104.789 16.6544 104.471 16.7973C104.34 16.8346 103.692 17.0582 103.08 17.7477C103.08 17.7477 103.074 17.7664 103.068 17.7788C103.236 17.6421 103.879 17.1452 104.452 16.9712C104.933 16.7973 105.481 16.9029 105.481 16.9029" fill="black"/>
<path d="M101.958 16.5862C101.178 17.2509 100.018 16.9651 99.3074 18.0522C99.4134 17.9218 100.081 17.5304 100.205 17.3813C100.205 17.8348 99.9373 17.9963 99.4196 18.1951C99.4009 18.3007 99.351 18.3752 99.2887 18.4436C99.2263 18.5057 99.1141 18.5492 99.0953 18.6175C99.0704 18.7231 99.1016 18.8411 99.1078 18.9467C98.927 19.0213 98.7087 19.0586 98.9207 19.3008C98.7024 19.6239 98.4904 19.9904 98.3906 20.3258C98.6027 20.009 99.0143 19.4251 99.2513 19.0896C99.27 19.1207 99.4134 19.2449 99.2949 19.5183C99.719 19.2574 100.386 18.3318 100.467 18.2199C99.7439 19.0213 99.3885 18.8971 99.2513 18.8908C99.3822 18.5616 99.3074 18.3131 100.087 18.0211C100.118 18.0087 100.149 17.9466 100.168 17.9031C100.199 17.8534 100.212 17.7975 100.237 17.7478C100.299 17.7851 100.368 17.8224 100.499 17.9031C100.499 17.723 100.386 17.7043 100.399 17.4931C102.07 17.0769 102.089 16.7725 102.32 16.524C102.475 16.2818 102.719 16.1265 102.719 16.1265C102.719 16.1265 101.846 16.1637 101.434 16.3315C101.821 16.2756 102.538 16.1451 101.952 16.5924" fill="black"/>
<path d="M100.798 18.0521C101.097 17.8844 101.596 17.7415 101.596 17.7415C101.484 18.0521 100.71 19.307 100.71 19.307C101.409 18.7417 102.107 17.3502 102.02 17.4993C101.453 17.549 100.798 18.0521 100.798 18.0521Z" fill="black"/>
<path d="M99.7501 22.9473C99.5131 22.7237 99.1764 22.705 98.9768 22.7423C99.3697 22.8106 99.6628 23.3697 99.7065 23.699C99.7938 23.7052 99.9247 23.7797 100.056 23.7922C100.056 23.7922 100.056 23.8108 100.056 23.8356C100.124 23.8232 100.18 23.8046 100.18 23.7611C100.212 23.4256 100.056 23.2517 99.7439 22.9535" fill="black"/>
<path d="M124.103 28.0225C124.103 28.0225 124.178 27.7119 123.972 27.3143C123.754 26.8795 123.642 26.5813 123.274 26.3452C123.486 26.1775 123.486 25.929 123.292 25.6309C123.161 25.4197 123.093 25.2333 122.993 25.0097C122.806 24.581 122.638 23.9909 122.569 23.9412C122.27 23.7362 122.132 23.4815 122.095 23.115C122.076 22.9472 121.889 22.705 121.733 22.6615C121.372 22.5559 121.347 22.2453 121.209 22.003C121.022 21.6551 120.848 21.3135 120.673 20.9656C120.604 21.0091 120.598 21.3756 120.58 21.3632C120.324 21.1271 120.112 20.7544 119.794 20.4376C120.261 20.568 120.311 20.655 120.598 20.8476C120.324 20.3444 120.099 19.8661 119.756 19.4126C119.307 18.81 118.758 18.2758 118.247 17.7105C118.023 17.462 117.823 17.0893 117.542 17.0085C116.9 16.8097 116.451 16.3314 116.058 15.9027C115.484 15.2753 114.68 15.0641 114.062 14.5237C113.626 14.1385 112.952 14.0143 112.372 13.8031C111.275 13.4055 110.158 13.0576 108.967 13.0328C108.406 13.0203 107.845 13.0576 107.29 13.0203C106.136 12.9396 104.989 12.8588 103.86 13.2564C102.999 13.5608 102.032 13.5856 101.297 14.2131C101.265 14.2379 101.203 14.2379 101.153 14.2565C100.929 14.3373 100.692 14.3932 100.492 14.5112C100.186 14.6852 99.9246 14.9275 99.6252 15.1076C99.1201 15.4182 98.565 15.6667 98.0973 16.027C97.2679 16.6606 96.4758 17.3564 95.6838 18.0335C95.584 18.1267 95.4905 18.4186 95.4967 18.4124C95.4967 18.4124 94.7421 19.015 94.4303 19.3629C94.0624 19.7853 93.763 20.2761 93.4325 20.7295C93.3514 20.8413 93.2703 20.9594 93.1768 21.0588C92.6405 21.6427 92.1041 22.2266 91.574 22.8106C91.3308 23.0839 91.0751 23.3572 90.8818 23.6616C90.5762 24.1524 90.3704 24.7053 90.0336 25.1712C89.647 25.6992 89.1481 26.1403 88.7365 26.6496C87.9756 27.5939 87.2522 28.5754 86.772 29.6936C85.5933 32.402 86.3355 35.2161 88.7427 37.1294C89.0233 37.3468 89.4225 37.7506 89.753 37.8811C90.0835 38.0115 90.202 37.8376 90.1771 37.4897C90.1521 37.1978 89.9526 36.7753 89.8465 36.502C89.647 35.9678 89.7218 35.5019 89.4973 34.9738C89.516 35.0297 89.5659 35.0794 89.6407 35.0111C89.7842 34.8496 90.0087 34.7129 90.0648 34.5266C90.4203 33.3835 91.2123 32.6505 92.2663 32.197C93.9439 31.4702 95.6713 30.8987 97.4737 30.5695C98.2532 30.4204 99.0452 30.3023 99.8373 30.2154C100.049 30.1905 100.293 30.3148 100.523 30.3893C100.617 30.4204 100.692 30.5198 100.785 30.5322C101.197 30.5757 101.565 30.6937 101.845 31.0354C102.051 31.2901 102.301 31.5261 102.556 31.7373C103.005 32.1038 103.255 32.6754 103.822 32.9052C103.866 32.9176 103.897 32.9797 103.916 33.0232C104.253 33.7749 104.596 34.5328 104.914 35.2969C104.964 35.4211 104.932 35.5764 104.957 35.7131C105.163 36.5952 105.388 37.4773 105.581 38.3718C105.724 39.0427 105.837 39.7074 105.93 40.3845C106.005 40.8877 106.018 41.3971 106.067 41.9003C106.086 42.0991 106.13 42.2979 106.161 42.4967C106.186 42.6644 106.217 42.8321 106.242 43.006C106.286 43.18 106.292 43.3291 106.298 43.4844C106.317 43.8944 106.099 44.3354 106.404 44.7082C106.728 45.0871 106.604 45.4784 106.516 45.8884C106.442 46.2425 106.323 46.6587 106.435 46.9569C106.548 47.2489 107.358 47.7086 107.527 47.6403C107.988 47.2799 110.021 44.733 110.439 44.0932C110.851 43.3229 116.981 34.8558 123.997 31.2031C124.253 31.0602 124.515 30.9173 124.752 30.7496C124.945 30.6067 124.614 28.1405 124.109 28.0163M109.154 13.5173C109.211 13.5173 109.535 13.5484 109.641 13.6105C109.179 13.5919 108.562 13.6788 108.175 13.7347C107.614 13.7658 106.891 13.8093 106.622 13.8279C106.822 13.7782 107.028 13.7161 107.221 13.6229C108.269 13.1197 108.437 13.5297 109.154 13.5173ZM104.34 13.8217C104.39 13.7844 104.496 13.4366 104.577 13.4179C105.313 13.244 105.843 13.3931 106.498 13.2813C106.747 13.2378 106.997 13.2502 107.271 13.2813C106.909 13.449 106.049 13.8652 105.487 13.9397C105.581 13.9459 106.061 13.9459 106.579 13.8341C107.084 13.8528 107.321 14.2255 106.841 14.4864C106.672 14.4305 106.03 14.2317 105.475 14.2628C105.369 14.269 104.951 14.2938 104.321 14.5299C104.234 14.4429 103.866 14.1572 102.999 14.3311C102.519 14.4367 101.845 14.7721 101.852 14.7659C101.914 14.7225 101.983 14.679 102.064 14.6168C102.874 14.0764 103.217 13.8403 104.34 13.8155M97.1993 17.4558C97.3614 16.9961 98.827 15.6977 98.8083 16.0829C99.1762 15.6543 100.411 15.0331 100.436 15.0579C100.399 15.12 99.5254 15.7288 99.2323 16.0829C99.0951 16.2444 98.1971 17.3439 98.8394 16.3127C98.8706 16.263 98.2345 16.9402 97.3115 17.903C97.3739 17.9527 98.4029 17.0768 98.4029 17.0768C98.4029 17.0768 97.9788 17.7664 97.5984 18.1826C97.1993 18.6236 96.6567 19.0895 96.613 19.102C96.5943 19.2138 97.7294 18.6795 97.667 18.7479C97.2554 19.2076 96.7315 20.5867 95.9769 21.0836C95.16 21.6179 94.4054 22.1707 94.1372 22.4192C94.661 21.7856 95.9021 20.158 96.0455 19.9033C96.1765 19.6859 96.3449 19.4995 96.5444 19.2821C96.2389 19.1827 95.952 19.3318 95.7275 19.3194C96.1515 18.4745 96.6442 18.0086 97.2055 17.462M95.5716 23.3883C95.5716 23.3883 95.372 23.2268 95.3283 22.8416C95.2597 22.2888 95.5404 22.0589 95.5404 22.0589C95.3658 22.6925 95.5778 23.3883 95.5778 23.3883M94.6922 22.9969C94.7484 22.208 95.6027 21.6986 95.6027 21.6986L94.6922 22.9969ZM88.9859 26.6496C89.2354 26.3825 89.8154 25.7551 89.8154 25.7551C89.8154 25.7551 89.9339 26.0968 89.6844 26.4322C89.41 26.8236 89.2666 26.8857 88.7677 27.2771C88.5681 27.4324 88.0941 27.8113 88.0941 27.8113C88.0941 27.8113 88.7365 26.9168 88.9859 26.6496ZM99.488 28.4884C99.6689 28.6499 99.8123 28.768 100.411 28.8922C99.7624 28.8736 99.594 28.8363 99.3259 28.7369C98.9018 29.1407 95.1537 30.1346 94.8232 30.2526C93.7879 30.6316 92.8463 31.0851 91.8235 31.7746C90.9816 32.4207 89.9027 33.7811 89.5659 34.6446C89.6096 34.5514 89.4661 34.0358 90.2207 32.8307C90.6822 32.0914 91.2435 31.4702 92.0605 30.9298C92.2975 30.7682 94.0125 29.6252 95.4905 29.3892C95.7774 29.3395 96.1827 29.2214 96.4696 29.1842C96.7565 29.1345 97.8104 28.886 97.8104 28.886C97.8104 28.886 97.0621 28.973 97.087 28.7928C97.0932 28.6127 98.59 28.3518 98.9018 28.3145C97.5173 28.2337 95.9894 28.7617 95.4219 28.7866C94.4802 28.8301 94.0748 28.7183 93.5821 28.7431C92.6716 28.7804 91.8983 28.0908 91.9794 28.1902C92.3162 28.6002 93.0396 28.8301 93.2766 28.9046C93.4699 28.9667 93.4262 29.0661 93.4013 29.3892C92.4222 29.7308 91.4555 30.147 90.5887 30.7869C90.2145 31.0602 89.3227 32.0293 89.1169 32.3834C88.7053 33.0978 88.6429 33.7811 88.8051 34.6073C88.9049 35.1478 89.5472 36.9431 89.8653 37.5021C89.2728 37.0797 88.6055 35.5888 88.5244 35.2969C88.4621 35.0546 88.0068 33.4643 89.0358 32.1163C89.2416 31.8429 89.7218 31.2776 89.9526 30.9919C89.8902 31.0167 89.4474 31.4454 89.3975 31.4951C89.0109 31.8678 88.7178 32.1163 88.3311 32.4828C88.2687 32.5387 88.1315 32.5201 87.9569 32.5387C87.5141 33.4829 88.1128 35.8062 88.0754 35.8125C85.1505 30.9857 88.5307 29.0351 88.9111 28.4636C89.3476 27.7927 89.7717 27.1963 90.308 26.5937C90.5762 26.2893 90.6448 26.103 90.4141 25.6992C90.227 25.37 90.4951 24.9724 90.9192 24.7922C90.9504 24.7798 91.0003 24.6121 91.019 24.5686C91.4493 23.5436 92.7652 22.2826 93.0209 21.9968C93.1518 21.8353 94.1247 20.8165 94.1808 20.5929C94.3617 20.2264 94.5301 20.0276 94.7172 19.7604C94.8856 19.5306 96.3511 17.99 96.613 17.7229C96.1017 18.3752 94.4927 20.7109 94.5114 20.7233C94.5675 20.6488 95.2098 19.9158 95.4032 19.7604C95.8584 19.4064 95.927 19.6548 96.0705 19.5865C96.0829 19.6859 94.7359 21.9719 93.0957 22.0341C93.1207 22.0465 93.2703 22.0589 93.2703 22.0589C93.2703 22.0589 93.0895 22.2142 92.9086 22.3447C92.5781 22.5932 92.0168 23.2268 91.5865 23.9163C91.599 23.8977 91.6114 23.8853 91.6239 23.8604C91.7486 23.643 91.9607 23.4939 92.048 23.4194C92.0729 23.3945 92.0917 23.3821 92.0917 23.3821L92.3162 23.1895L92.0979 23.4194L92.5594 23.0342L91.9108 23.6616C91.6613 23.9039 91.5865 24.0903 91.5865 24.0903C91.6177 23.9971 91.6114 24.0592 91.6489 23.8977C91.5366 24.0592 91.337 24.3822 91.337 24.3822C91.337 24.3822 91.337 24.3698 91.3558 24.345C91.3059 24.4381 91.2622 24.5251 91.2248 24.6183C90.6947 25.2768 90.5326 25.6246 90.994 26.2583C90.9254 25.898 90.7446 25.6992 91.1562 25.2022C91.2123 25.1339 91.2809 25.0469 91.3433 24.9724C91.3682 24.991 91.3932 25.0034 91.4244 25.0283C91.3994 25.078 91.3745 25.1401 91.3495 25.1898C91.1998 25.5128 91.1749 25.8234 91.337 26.2024C91.2872 26.2769 91.1188 26.2956 91.0814 26.3452C91.231 26.5068 91.3807 26.6621 91.5616 26.8546C91.3932 26.8546 90.6822 26.9789 90.651 27.1155C91.3869 27.0472 92.0355 27.4758 92.4409 27.4199C92.4908 27.0472 92.4035 26.7366 92.2476 26.4819C92.4409 26.4571 92.6342 26.4322 92.84 26.4136C92.7091 26.221 92.4658 26.0906 92.7589 25.8669C92.8026 25.8296 92.7589 25.6681 92.7402 25.4383C92.946 25.5439 93.0957 25.6184 93.3015 25.7303C93.3389 25.6557 93.4138 25.5004 93.4886 25.3513C94.1497 25.6557 94.7733 25.9477 95.3969 26.2334C95.4157 26.1962 95.4281 26.1589 95.4468 26.1216C95.2535 26.0409 95.0477 25.9849 94.8731 25.8669C94.6922 25.7489 94.6112 25.5253 94.4365 25.4072C94.237 25.2706 93.9501 25.2271 93.7006 25.1339C93.8815 25.0159 94.0748 24.8854 94.3243 24.7177C94.2619 24.668 94.1933 24.6059 94.1185 24.55C94.131 24.5251 94.1372 24.5065 94.1434 24.4878C94.2494 24.5251 94.3866 24.5313 94.4428 24.5997C94.5426 24.7363 94.5987 24.9103 94.686 25.0594C94.7983 25.2706 94.9292 25.4756 95.0914 25.7489C95.1974 25.5253 95.241 25.4321 95.3096 25.283C95.3471 25.4631 95.3782 25.6122 95.4157 25.7924C95.4281 25.7924 95.503 25.7986 95.584 25.8048C95.5716 25.7675 95.5591 25.7489 95.5591 25.7365C95.5154 25.4445 95.4531 25.1525 95.4344 24.8544C95.4344 24.8109 95.5778 24.755 95.7088 24.6556C95.7212 24.8854 95.7337 25.0221 95.7524 25.2271C95.7898 25.2457 95.9146 25.3016 96.0642 25.3824C95.9645 25.5066 95.8896 25.5998 95.8148 25.6992C96.1827 26.2024 95.4468 26.1837 95.4344 26.5378C95.6838 26.8609 95.0914 27.1963 95.1475 27.1777C95.8273 27.2646 96.7877 27.2025 98.7459 26.7118C98.9143 26.6683 99.039 26.5378 99.1637 26.4198C99.1263 26.3639 99.0951 26.308 99.1014 26.2707C98.8893 26.3142 98.8207 26.5254 98.5401 26.5813C98.6212 26.3639 98.7397 26.1527 98.7958 25.9787C98.6835 25.9166 98.5463 25.8483 98.328 25.7365H98.9766C98.9642 26.0222 99.0889 26.0657 99.5441 26.1527C99.8809 25.985 100.13 25.9228 100.056 26.1403C100.012 26.2645 99.7874 26.4136 99.6751 26.5068C98.9143 27.128 97.4986 27.5193 96.8001 27.6436C96.4946 27.7181 96.1827 27.7678 95.8397 27.8361C95.8397 27.8548 95.8148 27.9728 95.7961 28.0971C95.3471 27.9914 94.8918 28.1405 94.7983 28.4698C95.2535 28.2772 95.8335 28.4884 96.2077 27.948C96.875 28.0163 98.2657 27.5815 99.0328 28.1095C99.0889 27.9728 99.0827 27.7927 99.0827 27.7927L100.049 27.4945C100.049 27.4945 100.473 28.2275 101.839 28.4946C102.163 28.5567 103.093 28.563 103.093 28.563C103.093 28.563 102.569 28.7245 101.877 28.6748C101.147 28.6251 100.249 28.2213 99.9308 28.1095C100.112 28.2213 101.365 28.8487 101.34 28.8922C100.704 28.8052 99.6689 28.563 99.4943 28.476M91.705 26.0533C91.7923 26.0968 91.8921 26.1216 91.9919 26.1403C92.1415 26.1651 92.2975 26.1403 92.4596 26.1403C92.4596 26.1775 92.4596 26.2086 92.4658 26.2459C92.3286 26.2645 92.1977 26.2893 92.1228 26.3018C92.0979 26.3515 92.0792 26.3949 92.0605 26.4384C91.9545 26.3825 91.8048 26.3763 91.6801 26.4446C91.6801 26.3018 91.705 26.1589 91.705 26.0409M91.4742 25.9228C91.256 25.7303 91.5491 25.5501 91.6676 25.488C91.68 25.5936 91.705 25.7365 91.7112 25.9353C91.6364 25.9353 91.493 25.9477 91.468 25.929M92.0106 24.0157C92.0542 23.8791 92.048 23.9722 92.1041 23.7238C91.9295 23.966 91.6302 24.4568 91.6302 24.4568C91.6302 24.4568 91.7362 24.2331 91.9233 23.8977C91.9607 23.8356 92.0293 23.7672 92.0792 23.6803C92.2725 23.351 92.5906 23.1336 92.7153 23.0094C92.7527 22.9721 92.7777 22.9535 92.7777 22.9535L93.1144 22.6615L92.7839 23.0032L93.4824 22.4254L92.497 23.3697C92.1166 23.73 92.0043 24.0157 92.0043 24.0157M107.346 22.4379C107.658 22.4379 107.938 22.4254 108.175 22.3944C108.362 22.5559 108.718 22.705 109.048 22.8354C109.042 23.1212 109.105 24.2766 109.105 24.2766C109.105 24.2766 108.263 24.0468 108.182 24.0281C106.847 23.6927 106.404 22.4006 106.404 22.4006H106.392C106.498 22.4006 106.598 22.4006 106.679 22.3944C106.897 22.4192 107.096 22.4379 107.284 22.4379C107.595 22.7547 108.182 23.3386 108.481 23.643C108.15 23.1585 107.614 22.5372 107.346 22.4379ZM104.839 23.028C104.352 22.6739 104.147 22.5559 103.723 22.4689C103.723 22.4316 103.729 22.3944 103.735 22.3633C104.047 22.2888 104.352 22.2142 104.708 22.1272C105.013 22.2329 105.556 22.3322 106.03 22.3757C106.136 22.5869 106.884 23.9474 108.606 24.2642C108.712 24.2828 109.373 24.581 109.373 24.581C109.267 24.1337 109.267 23.8791 109.267 23.7362C109.404 23.8231 109.691 24.0157 110.14 24.1275C110.501 24.5003 111.35 24.8792 111.499 24.873C111.144 24.7301 110.67 24.3947 110.352 24.1648C110.714 24.2207 111.163 24.2207 111.718 24.0716C112.017 24.5686 112.828 25.0656 112.828 25.0656C112.597 25.283 111.98 25.6806 110.645 25.4259C108.618 25.0345 108.125 24.2394 108.125 24.2394L108.076 24.1275C106.872 25.2084 105.07 23.2081 104.839 23.028ZM107.115 25.3575C107.19 25.4197 106.685 25.5501 106.086 25.606C105.793 25.6309 105.356 25.5128 105.163 25.4631C104.702 25.3389 104.172 24.9724 104.172 24.9724C103.398 24.4692 103.741 23.8542 103.772 23.8169C104.14 23.8728 105.35 24.7674 105.799 24.8606C105.593 24.7798 103.997 23.8356 103.984 23.3883C104.134 23.4815 104.203 23.5188 104.303 23.5747C104.377 23.4256 104.44 23.2889 104.521 23.1336C105.5 23.3572 107.121 25.3575 107.121 25.3575M116.738 26.0222C117.075 26.1154 117.368 26.1899 117.642 26.2645C117.692 26.3515 117.761 26.5502 117.542 26.7987L117.729 27.1155C117.729 27.1155 117.305 27.0845 117.274 27.0969C117.037 27.1901 116.95 27.4137 116.283 27.4013C116.245 27.2708 116.17 27.1155 116.039 26.9354C116.071 27.1466 116.283 27.3889 116.139 27.5939C116.114 27.6249 116.177 27.7802 116.177 27.7802C116.177 27.7802 115.802 27.8734 115.628 27.8983C115.054 27.9355 114.861 27.9542 114.711 27.9355C114.636 27.9293 114.518 27.861 114.474 27.7989C114.393 27.6933 114.349 27.5628 114.293 27.4386C114.299 27.8858 114.599 28.3828 114.992 28.4636C114.618 29.5134 114.356 29.6501 114.349 29.6749C113.744 29.6004 113.009 29.3519 112.728 29.1283C112.609 29.0289 112.41 28.8798 112.335 28.799C112.135 28.5816 111.967 28.4698 111.861 28.3642C112.135 28.8363 112.36 29.2028 112.566 29.8116C112.659 30.1967 112.541 30.4887 112.453 30.6813C112.404 30.7869 112.335 31.1782 112.335 31.1782C112.335 31.1782 111.973 30.936 111.867 30.8987C111.406 30.7372 111.019 30.5073 110.888 30.3086C110.813 30.1967 110.445 29.7992 110.327 29.532C110.352 29.5445 110.67 29.6873 110.876 29.6625C110.963 29.6501 111.2 30.0414 111.2 30.0414C111.2 30.0414 111.163 29.6873 111.269 29.5569C111.474 29.3146 111.487 29.1717 111.512 29.1469L112.135 30.4887C112.135 30.4887 112.011 29.6314 111.649 29.0102C111.58 28.8922 111.955 28.184 111.312 27.4572C111.705 28.4139 111.337 29.2774 111.231 29.414C111.206 29.4513 111.094 29.7495 111.094 29.7495C111.094 29.7495 110.894 29.5072 110.795 29.5072C110.77 29.5072 110.745 29.5072 110.72 29.5072C109.672 28.7804 109.685 28.1654 109.747 28.0846C109.803 28.0101 110.707 27.9418 110.938 28.973C110.938 28.973 111.044 28.4139 110.477 28.0846C110.745 28.1219 111.25 28.2213 111.25 28.2213C111.25 28.2213 111.175 27.948 111.169 27.8921C111.113 27.4758 111.375 27.3578 111.368 27.364C111.774 27.4945 112.628 27.5752 112.884 27.6187C113.09 27.8734 113.42 28.3083 114.062 28.9357L112.971 27.6311C112.946 27.6125 113.252 27.6312 113.551 27.5939C113.788 27.5628 114.112 27.4758 114.112 27.4758C114.112 27.4758 114.094 26.7739 114.1 26.5813C114.106 26.2459 114.019 26.0657 113.888 25.7986C113.85 25.7862 113.776 25.7489 113.57 25.6992C113.938 26.2831 113.913 26.9354 113.813 27.2771C113.657 27.3516 112.591 27.2274 111.88 27.128C110.944 26.9975 109.734 26.1899 109.285 25.3016C109.285 25.196 109.217 26.0222 109.217 26.0222C109.217 26.0222 108.656 25.9601 108.55 25.9539C108.007 25.9166 107.477 25.7551 107.321 25.6681C107.315 25.6681 107.146 25.7551 107.134 25.7551C107.333 25.8607 107.57 25.8793 108.032 26.0036C108.163 26.1899 108.649 26.8112 109.466 27.0596C109.466 27.0596 108.705 26.6683 108.381 26.221L108.275 26.0533C108.475 26.0906 109.41 26.2086 109.41 26.2086C109.41 26.2086 109.354 25.7178 109.342 25.6309C109.516 26.2956 110.183 26.7739 110.183 26.7739C110.52 26.9851 110.826 27.1404 111.131 27.2584C111.1 27.3516 111.05 27.4945 111.038 27.6249C111.019 27.7554 111.088 28.0225 111.088 28.0225C111.088 28.0225 109.791 27.7865 109.628 27.7678C107.814 27.538 106.735 26.4322 106.566 25.7365C106.566 26.4136 104.409 25.3886 104.315 25.3513C104.346 25.3637 105.5 26.2334 106.211 26.2956C106.336 26.308 105.787 26.8236 105.375 26.7739C104.758 26.7056 104.041 26.0781 104.072 25.8421C104.072 25.8421 103.916 26.016 103.822 26.1216C103.966 26.1962 104.097 26.2459 104.203 26.3266C104.271 26.3887 104.652 26.7987 104.689 27.3516C104.221 26.7242 103.747 26.8609 103.567 26.7863C103.641 26.836 103.704 26.8919 103.772 26.9478C103.486 26.9478 103.398 26.9354 103.386 26.9665C103.86 27.2274 103.928 27.6498 104.402 27.9107C105.525 28.5692 105.793 28.0908 105.762 28.1405C105.837 28.1902 105.469 29.3954 102.893 27.2709C102.488 26.9354 102.07 26.954 101.559 27.0534C101.652 26.8049 101.721 26.4757 101.721 26.4757C101.721 26.4757 102.849 26.6621 103.274 26.6062C102.756 26.5751 102.126 26.3763 101.808 26.1278C101.621 25.7862 101.696 25.5998 101.677 25.3824L101.883 25.2581C102.288 25.488 103.111 25.9539 103.249 26.0471C102.862 25.7986 102.288 25.3016 102.344 25.1898C102.475 25.2519 102.575 25.314 102.706 25.3762C102.731 25.2519 102.756 25.1463 102.781 25.0345H103.167C103.012 24.9351 102.906 24.8668 102.8 24.8047C102.8 24.7798 102.812 24.7487 102.818 24.7239C102.899 24.7487 103.573 25.1028 104.097 25.3078C103.429 25.0469 103.392 24.7922 103.404 24.7487L105.344 25.6371C105.344 25.6371 105.88 25.7862 106.18 25.7303C106.398 25.693 107.464 25.4693 107.452 25.4383C107.439 25.4072 107.071 24.9786 106.872 24.8171L106.803 24.7177C107.284 24.7177 107.795 24.5065 107.795 24.5065C107.857 24.4754 107.907 24.4381 107.951 24.4071H107.945C108.275 24.6866 108.543 24.8419 109.423 25.2643C109.491 25.2954 110.146 25.5936 111.194 25.5936C111.318 25.5936 112.921 26.5502 112.921 26.5502L112.142 25.9415C112.142 25.9415 111.824 25.6433 111.705 25.575C112.273 25.5004 112.809 25.2395 113.058 25.109C113.058 25.109 113.794 25.2768 114.181 25.1898C114.206 25.1898 114.243 25.1898 114.281 25.1836C114.524 25.3762 115.347 25.9353 116.214 25.5998C116.214 25.5998 116.214 25.5998 116.227 25.606C116.501 25.7427 116.632 26.103 116.632 26.103C116.582 26.5068 116.214 26.7056 116.021 26.7801C116.757 26.5254 116.825 26.1962 116.75 25.9725M110.308 34.365C110.102 34.3153 109.978 34.3402 109.703 34.2222C109.441 34.0172 109.491 33.7935 109.491 33.7376C109.385 33.6941 109.298 33.6444 109.26 33.5823C108.406 32.7996 108.886 31.2528 108.924 31.0043C108.924 30.9608 109.485 33.0108 110.208 33.6569C110.477 33.8991 109.884 33.8929 109.51 33.75C110.034 34.3029 110.851 33.8619 110.358 33.0046C111.2 33.6941 110.676 34.4023 110.227 34.6197C110.358 34.5017 110.364 34.4023 110.308 34.3713M110.595 33.0232C110.246 32.899 110.096 32.7499 109.978 32.6319C109.366 31.8305 109.703 31.6876 109.098 30.8676C109.173 30.8925 109.223 30.9608 109.41 31.0167C109.441 31.0292 109.747 31.2963 109.747 31.2652C109.747 31.2404 109.722 30.8676 109.809 30.6192C110.439 31.2776 110.551 32.1784 110.551 32.1784C110.726 30.967 110.077 30.6875 109.872 30.0104C109.89 30.0725 109.878 30.147 109.853 30.2216V30.2029C109.834 30.2899 109.784 30.3769 109.66 30.5073C109.572 30.6005 109.591 30.9795 109.591 30.9795C109.591 30.9795 109.086 30.4887 108.936 30.3831C108.238 29.8923 108.344 28.9667 108.288 28.4698C108.144 27.2833 107.377 27.2708 107.396 27.2087C107.408 27.1528 108.643 27.5815 109.211 29.2339C109.329 29.5817 109.198 29.911 109.198 29.911C109.198 29.911 109.466 29.414 108.93 28.2586C108.581 27.6498 108.967 27.8299 109.154 27.8796C109.448 28.3642 109.834 28.9046 109.897 29.4823C109.953 29.9669 110.165 30.3334 110.495 30.7434C111.019 31.3957 111.231 31.6938 111.287 31.9672C111.35 32.2716 111.231 32.5076 111.138 32.7623C111.106 32.8493 111.075 33.3773 111.075 33.3773C111.075 33.3773 110.67 33.0543 110.601 33.0294M109.092 36.8561C107.639 36.62 108.749 34.949 108.718 34.5949C108.855 34.9987 108.5 35.9553 109.092 36.8561ZM105.169 31.0726C105.344 31.5013 105.837 31.7995 105.581 32.6754C105.431 32.4269 105.419 31.874 105.032 31.7932C105.026 31.5882 105.176 31.3211 105.169 31.0726ZM104.458 30.029C104.384 29.824 104.458 29.5196 104.371 29.2774C104.683 29.6501 105.275 29.793 105.288 30.7372C105.063 30.5384 104.87 29.998 104.458 30.029ZM106.092 26.9416C106.092 26.5192 106.261 26.4571 106.317 26.4198C106.442 26.3266 106.56 26.2956 106.566 26.2893C106.741 26.6434 106.791 26.6683 107.028 26.8422C106.947 26.9913 106.841 27.1528 106.816 27.4572C106.791 27.774 107.078 28.2027 107.078 28.2027C107.078 28.2027 106.529 27.9852 106.223 27.8983C105.487 27.6871 104.87 27.128 104.801 26.6621C104.801 26.6621 105.207 26.9106 105.55 26.8298C105.625 26.8112 105.905 26.7118 105.905 26.7118C105.905 26.7118 105.918 26.9727 106.011 27.1342C106.105 27.2895 106.51 27.7368 106.51 27.7368C106.51 27.7368 106.086 27.1466 106.086 26.9354M108.069 31.9113C108.069 31.9113 107.757 31.4019 107.72 31.3646C107.602 31.259 107.514 31.0229 107.52 31.0664C107.552 31.6566 107.365 32.1598 107.271 32.5511C107.096 32.4828 106.554 31.6504 106.435 31.2714C106.198 30.5198 106.248 29.7619 105.793 29.2587C106.491 29.5507 106.523 30.9732 107.053 31.6938C107.315 31.1534 107.577 29.4327 107.602 29.327C107.627 29.3457 107.552 29.6439 107.552 30.1284C107.564 31.3025 108.182 30.4639 108.213 30.0663C108.219 29.9607 108.244 30.3272 108.132 30.8055C107.982 31.4578 108.069 31.8988 108.069 31.8988M108.1 35.3838C107.234 36.3156 107.234 33.9488 107.121 33.2717C107.658 35.4832 108.144 35.3652 108.1 35.3838ZM108.001 29.4823C107.265 29.327 107.29 27.948 107.04 27.3454C107.383 27.2522 107.539 27.7802 107.751 28.1964C108.007 28.6996 108.213 28.9854 108.001 29.4823ZM106.298 29.1158C106.541 29.1593 106.778 29.1842 106.778 29.1842C106.778 29.1842 106.897 28.8425 106.891 28.7617C106.878 28.5754 106.934 28.5381 106.841 28.1716C106.872 28.2337 107.04 28.3642 107.015 29.1345C107.015 29.1904 107.047 29.9296 107.047 29.9296C107.047 29.9296 106.834 29.4016 106.454 29.3892C105.625 29.3581 105.375 28.6561 105.375 28.6561C105.469 28.6934 105.556 28.5878 105.65 28.7742C105.731 28.9295 105.893 29.0351 106.298 29.1158ZM105.562 33.2096C105.961 33.6941 106.336 34.8309 105.936 35.3962C105.83 34.8682 105.45 33.9861 105.562 33.2096ZM105.974 32.2281C105.961 32.166 106.005 32.0976 106.024 32.0355C106.18 32.0852 106.373 32.0976 106.473 32.2032C106.591 32.3088 106.753 32.6816 106.778 32.8431C106.791 32.8928 106.566 32.8555 106.491 32.9301C106.417 32.9984 106.385 33.3152 106.292 33.4208C106.217 33.1413 106.042 32.5263 105.974 32.2219M106.604 36.7691C106.585 36.4834 106.541 35.6137 106.516 35.3341C106.485 34.9676 106.467 34.3402 106.385 33.7811C106.679 33.8432 107.471 35.3838 106.604 36.7753M107.502 38.3035C106.672 38.6079 106.61 37.5394 106.579 37.0238C106.685 38.3035 107.545 38.2973 107.502 38.3035ZM107.446 36.5393C107.446 36.5393 107.552 37.3903 108.125 38.173C108.125 38.173 107.308 38.1358 107.446 36.5393ZM107.839 34.0296C107.938 33.5513 108.044 33.2407 107.658 32.9425C107.639 32.93 107.789 32.4828 107.789 32.3461C107.951 32.4207 107.963 32.5014 108.051 32.6008C108.431 33.0543 108.868 34.1538 108.244 34.8744C108.157 34.5514 107.795 34.2408 107.832 34.0358M110.857 30.4328C111.231 30.8179 111.911 31.346 112.772 31.2901L111.25 32.9052C111.861 31.7995 111.044 30.7372 110.857 30.4328ZM101.583 27.8051C101.926 27.9418 100.542 27.8424 100.268 27.3019C100.417 27.1901 100.742 26.9727 100.742 26.9727C100.742 26.9727 101.771 27.1528 102.138 27.0472C101.459 27.2646 101.34 27.2025 101.315 27.3392C101.265 27.5752 101.346 27.7119 101.577 27.8051M100.074 23.848C100.074 23.848 100.08 23.8045 100.074 23.7734C99.9308 23.7921 99.725 23.7362 99.725 23.7238C99.725 23.7113 99.725 23.6989 99.725 23.6803C99.6751 23.6803 99.6377 23.6741 99.6252 23.6741C99.4755 23.6616 99.3196 23.848 99.1637 23.6741C99.1201 23.7424 99.0577 23.8045 99.0203 23.8791C98.8956 24.0903 98.8457 24.3201 98.5775 24.1089C98.6711 23.966 98.7209 23.8169 98.8145 23.6803C98.3592 23.5995 98.0973 24.2828 98.0973 24.2828L97.9851 24.2083C97.9851 24.2083 97.9601 23.966 98.1659 23.6057C98.2532 23.4504 98.4902 23.233 98.4902 23.233L98.4403 23.0466C98.4403 23.0466 97.5984 23.3448 97.6296 24.2145C97.6358 24.376 97.773 24.6431 97.8478 24.7239C98.0848 24.991 98.4902 25.1153 98.7334 25.0097C99.4568 24.6928 99.4755 25.2022 99.4755 25.2022C99.4755 25.2022 98.0349 26.1092 97.218 24.873C96.9436 24.463 97.3302 24.3201 97.4175 23.9474C97.5984 23.1398 98.5775 22.6242 99.1949 22.5062C99.1949 22.5062 99.4444 22.4316 99.6127 22.4006C100.336 22.2639 100.997 22.2018 101.097 22.1956C101.396 22.0776 101.708 21.9782 102.014 21.8912C102.064 21.8788 102.588 21.7918 102.706 21.9471C102.026 21.8166 101.465 22.413 101.153 22.4565C101.153 22.4565 100.374 22.3571 100.031 22.6491C100.143 22.91 100.604 22.91 100.935 22.7919C101.259 22.6739 102.082 22.4875 102.301 22.4689C102.351 22.4627 102.962 22.326 102.993 22.3695C103.012 22.4006 102.475 22.6677 102.45 22.6863C102.363 22.7422 102.245 22.8354 102.163 22.8106C102.051 22.7795 101.951 22.7236 101.858 22.6739C101.727 22.7733 101.353 22.8541 101.334 22.8541C100.991 22.9224 101.01 23.1771 100.779 23.1647C100.305 23.1336 101.571 23.4069 101.951 23.5188C102.332 23.6306 102.962 23.9598 103.355 24.0592C102.987 24.4754 102.301 24.4071 101.683 24.2145C101.739 24.0965 101.795 23.9784 101.864 23.8231C101.384 23.8045 101.035 23.5498 100.561 23.5312C100.561 23.5312 100.367 24.668 101.646 24.5997C101.783 24.5934 102.22 24.7239 102.382 24.7922C101.933 24.7363 101.758 24.8047 101.602 24.8854L101.315 25.2954C101.184 25.0531 101.147 24.6866 100.742 24.7736C100.773 24.8419 100.823 24.9103 100.854 24.9786C100.785 25.0034 100.698 25.0656 100.66 25.0531C100.299 24.9537 100.505 24.5624 100.417 24.4381C100.374 24.4568 100.305 24.8295 100.168 24.8854C100.149 24.6431 100.137 24.4133 100.118 24.1897C99.9745 24.2021 99.8684 24.2145 99.7375 24.2207C99.7624 24.1151 100.062 24.0095 100.261 23.9101C100.186 23.8915 100.099 23.8666 100.074 23.8604M98.1534 25.6992C98.0349 25.8421 98.01 26.0781 97.8478 26.2769C97.7106 26.0781 97.561 26.0098 97.5048 25.8483C97.4861 25.7986 97.561 25.4631 97.6171 25.4756C97.7668 25.5936 97.8977 25.6557 98.1534 25.6992ZM102.444 23.4318C102.824 23.4442 103.33 23.2082 103.741 23.3883C103.741 23.4318 103.585 23.5809 103.585 23.6244C103.417 23.6865 103.249 23.7424 103.149 23.7797C102.881 23.6927 102.662 23.6181 102.444 23.5436V23.4318ZM101.895 23.1957C102.051 23.115 102.351 22.9286 102.475 22.8168C102.475 22.8168 102.612 23.115 102.743 22.9907C102.781 22.9348 103.124 23.1088 103.155 23.028C103.124 23.1336 102.831 23.1522 102.8 23.1895C102.669 23.3883 102.4 23.2827 101.895 23.1957ZM102.968 22.8913C103.286 22.5807 103.991 22.5497 104.278 23.1709C103.866 23.1336 103.448 22.9348 102.968 22.8913ZM100.293 25.2147C100.579 25.2395 101.521 25.401 101.571 25.7924C100.86 26.1465 100.361 25.9228 100.162 25.8172C100.068 25.7675 100.598 25.5812 100.293 25.2084M104.178 28.4263C103.392 28.5133 102.488 28.0101 101.827 27.6746C101.583 27.5504 101.983 27.1528 104.178 28.4263ZM102.357 22.2577C102.8 22.0651 104.041 21.7173 104.44 21.7421C104.178 22.1707 102.65 22.2701 102.357 22.2577ZM99.962 22.0713C99.0515 22.295 96.7627 23.2951 96.1391 23.5685C96.0829 23.5436 97.7169 22.3633 98.8831 22.003C99.7749 21.7235 102.344 21.4129 103.629 21.1023C103.567 21.1582 101.153 21.7669 99.9557 22.0651M96.5008 26.1527C96.6505 26.1589 96.8001 26.3142 96.9373 26.3949C96.7004 26.6186 96.164 26.4571 95.7961 26.8546C95.7462 26.7552 95.8023 26.3825 95.7399 26.2645C95.9457 26.2024 96.3075 26.1403 96.4945 26.1527M101.665 29.6625C102.22 29.6563 102.569 29.9172 102.563 30.3023C102.238 30.0725 101.951 29.8675 101.665 29.6625ZM103.51 31.9113C103.267 31.5945 102.681 30.8925 102.469 30.6129C103.486 30.7434 103.735 31.3584 103.51 31.9113ZM103.853 30.4266C103.504 30.4452 103.523 29.6998 102.999 29.998C103.024 29.8054 103.099 29.6936 103.13 29.4761C103.61 29.7308 103.966 30.0476 103.86 30.4266M103.885 31.5758C103.966 31.3957 104.053 31.1907 104.147 30.9919C104.583 31.2838 104.795 31.9051 104.577 32.2405C104.24 32.1535 104.477 31.4454 103.891 31.5758M104.433 33.0108C104.49 33.0108 104.957 33.1972 105.02 33.1972C105.02 33.5513 105.113 33.9675 105.325 34.6819C105.294 34.6819 105.07 34.6259 105.038 34.6259C105.007 34.539 104.808 33.7625 104.433 33.0108ZM105.5 36.589C105.157 36.2038 105.444 35.5205 105.194 35.1105C105.743 35.3217 105.65 35.5205 105.5 36.589ZM105.743 37.0984C106.018 37.5456 106.124 37.9929 106.167 38.3532C106.261 38.552 106.435 38.8129 106.728 38.8502C106.697 38.7073 106.666 38.5333 106.647 38.3408C106.941 39.3596 107.602 39.5086 107.602 39.5086C107.602 39.5086 107.022 40.1112 106.741 38.8936C106.622 38.9558 106.348 39.0365 106.186 38.583C106.198 38.9247 106.155 39.1421 106.155 39.1421C105.899 38.1233 105.749 37.0984 105.749 37.0984M106.167 39.3658C106.167 39.3658 106.348 40.4591 107.009 41.0803C107.009 41.0803 106.13 41.043 106.167 39.3658ZM106.735 42.1985C107.022 40.8256 109.198 36.5579 110.04 35.3776C109.89 35.39 109.797 35.3776 109.635 35.3776C109.323 35.3776 109.048 35.0919 109.048 34.7191C109.048 34.5266 108.668 33.6196 108.705 33.4146C108.855 33.5699 109.491 34.3961 109.685 34.6322C109.865 34.8496 109.859 35.2223 110.127 35.2596C111.156 33.7811 112.397 32.2095 113.869 30.7123C113.183 31.346 112.772 31.2901 112.522 30.8925C112.497 30.849 112.815 30.5384 112.803 30.0973C112.784 29.7495 112.609 29.414 112.578 29.209C112.747 29.327 112.903 29.4078 113.065 29.4699C113.401 29.824 113.495 30.3272 113.52 30.4949C113.482 29.9669 113.308 29.6625 113.152 29.501C113.526 29.588 114.636 29.8489 114.636 29.8489C114.636 29.8489 114.549 29.6128 114.674 29.4078C114.936 28.9792 115.042 28.5878 115.079 28.4325C115.173 28.4325 115.272 28.4139 115.372 28.3642C115.21 28.3331 115.067 28.3083 114.992 28.153C115.204 28.1157 115.584 28.0039 115.965 27.9107C116.27 27.8299 116.538 27.8237 116.538 27.8237C116.538 27.8237 116.283 27.7181 116.295 27.6746C116.32 27.6001 116.326 27.5193 116.308 27.4199C116.432 27.4883 116.725 27.5442 117.337 27.1963H118.023C118.023 27.1963 117.655 26.8546 117.717 26.7739C117.817 26.6434 117.823 26.6124 117.823 26.3887C117.823 26.3452 117.811 26.308 117.798 26.2769C117.991 26.426 118.309 26.6124 119.226 26.1403C118.989 26.016 118.727 25.9415 118.571 25.8669C118.621 26.5192 118.048 26.0595 117.736 26.1899C117.455 25.9974 117.193 25.7054 116.725 25.929C116.7 25.8669 116.676 25.8172 116.651 25.78C116.563 25.6495 116.482 25.5687 116.42 25.519C116.551 25.5066 116.757 25.4942 116.757 25.4942C116.757 25.4942 116.619 25.2271 116.582 25.1525C116.326 24.5997 116.233 24.2953 115.104 23.8791C115.067 23.8169 114.973 23.643 114.979 23.5809C115.042 22.91 114.168 22.5124 114.019 22.4379C114 22.4254 114.936 22.9845 114.873 23.4318C114.861 23.5125 114.923 23.7921 114.923 23.7921C114.923 23.7921 114.268 23.8542 114.087 23.8542C112.959 23.8231 111.163 22.3633 110.751 22.1956C110.751 22.1956 110.751 22.1956 110.745 22.1956C111.424 22.8044 111.73 23.0901 112.323 23.5001C113.115 23.9598 113.364 23.9784 114.655 23.9784C115.291 23.7735 116.301 24.5686 116.439 25.1587C116.451 25.2147 116.551 25.4072 116.551 25.4072C116.551 25.4072 116.227 25.4197 116.158 25.4631C115.721 25.5439 115.615 25.5936 115.048 25.4383C114.674 25.3389 114.512 25.2333 114.443 25.1587C114.667 25.1587 114.929 25.1587 114.929 25.1587C114.929 25.1587 114.674 23.9784 114.493 24.0468C114.449 24.0654 114.649 24.2331 114.699 24.6369C114.711 24.7239 114.755 24.9972 114.755 24.9972C114.755 24.9972 114.15 24.9972 113.975 25.0531C113.769 25.1153 113.539 25.078 113.264 24.9786C112.977 24.873 112.217 24.4692 111.98 23.9163C112.316 23.7797 112.16 23.7921 112.167 23.7486C110.707 24.345 109.279 23.3945 109.279 23.3945C109.279 23.3945 109.267 23.0404 109.304 22.8665C110.227 23.1957 111.3 23.4504 111.3 23.4504C111.3 23.4504 109.366 22.8789 108.587 22.2701C109.042 22.1769 109.292 22.0589 109.354 22.09C109.635 22.2142 110.202 22.3509 110.738 22.2018C110.738 22.2018 110.738 22.1956 110.732 22.1894C110.732 22.1894 110.745 22.1894 110.751 22.1956C110.988 22.1272 111.225 22.003 111.418 21.7918C110.059 22.6677 108.45 21.1954 108.269 21.1023C108.225 21.0774 107.82 20.9967 107.782 20.9656C107.957 21.1085 108.443 21.5682 108.986 21.8726C109.105 21.9409 104.932 22.7857 105.375 21.2824C105.494 21.0588 106.548 21.3321 108.013 21.7048C107.383 21.5247 105.013 20.7606 104.321 20.7979C105.088 20.3382 106.323 20.4065 106.635 20.4003C106.965 20.4003 107.315 20.363 107.664 20.3195C107.795 20.4065 108.194 20.6488 108.893 20.8103C109.167 20.8724 109.448 20.9221 109.766 20.8848C111.075 21.2824 110.919 21.8726 110.919 21.8726L111.057 21.7359C111.368 21.3073 110.545 20.9718 110.065 20.8227C110.233 20.773 110.42 20.6985 110.62 20.5804C110.689 20.5432 111.032 20.4065 111.032 20.4065C111.032 20.4065 110.265 19.8164 109.859 19.6611L110.695 20.3444C110.695 20.3444 110.339 20.5307 110.277 20.5494C109.803 20.7047 109.603 20.8289 109.192 20.742C108.35 20.5618 108.069 20.363 107.988 20.2823C108.543 20.2015 109.061 20.1145 109.416 20.0773C108.206 20.1021 107.053 20.4065 106.186 20.0773C106.604 20.04 106.891 19.9344 107.234 19.8412C109.653 19.1889 110.801 19.2386 110.801 19.2386C110.801 19.2386 110.14 19.0709 110.134 19.0336C110.134 18.9715 110.526 18.8224 110.994 18.8721C110.689 18.7914 110.302 18.7168 109.922 18.6982C109.809 18.6982 109.691 18.4745 109.672 18.4621C109.554 18.4 110.526 18.3503 110.489 18.3503C109.242 18.2199 108.512 18.3503 108.362 18.3627C108.5 18.3627 109.154 18.3938 109.429 18.5615C109.61 18.6733 110.077 19.1517 110.077 19.1517C110.077 19.1517 109.691 19.1703 109.198 19.2821C107.39 19.6859 106.404 19.6051 106.086 19.7294C106.922 19.0523 107.496 18.487 108.1 18.3752C107.87 18.4062 107.383 18.487 106.922 18.5926C106.573 18.6858 106.467 18.7479 106.329 18.8224C106.261 18.8597 106.198 18.9218 106.13 18.9653C106.186 18.9591 106.691 18.9902 106.778 18.9777C105.724 19.5306 103.966 20.3133 103.785 20.3817C103.772 20.3506 105.855 19.1082 105.905 19.0274C105.93 18.9777 105.724 18.9591 105.169 19.1455C104.496 19.3691 104.103 19.8288 101.976 20.2512C101.995 20.2201 103.66 18.9901 103.785 18.9094C103.747 19.0026 103.361 19.4747 103.286 19.6424C104.377 18.7727 106.972 17.9652 106.972 17.9652C106.972 17.9652 106.198 18.195 105.525 18.3689C105.157 18.4186 104.477 18.5491 104.689 18.4435C105.332 18.1205 105.781 17.5055 105.724 17.5552C105.288 17.9465 104.371 18.3876 104.278 18.4373C103.51 18.8038 102.818 19.5865 102.55 19.7045C102.319 19.5803 102.463 19.2821 102.781 18.8597C102.619 18.8348 102.432 19.2324 102.02 19.2511C102.114 19.133 102.943 17.9341 103.074 17.698C103.061 17.7042 103.055 17.7167 103.049 17.7167C102.687 18.2199 102.394 18.2695 101.926 18.8473C101.683 19.1517 101.783 19.3877 101.322 19.8412C101.047 20.0773 100.654 20.4189 100.367 20.45C100.367 20.4314 100.392 20.3568 100.43 20.2636C100.399 20.3009 100.386 20.3195 100.386 20.3195C100.417 20.2574 100.448 20.1953 100.48 20.1332C100.592 19.8412 100.748 19.4498 100.748 19.4312C100.118 19.5554 99.7437 20.3257 99.0951 20.7917C99.1263 20.2823 99.2011 19.9779 99.2947 19.7108C99.039 20.0151 98.7708 20.5432 98.1784 20.891C98.2844 20.6426 98.3468 20.3879 98.3655 20.3257C98.1285 20.8227 97.6919 21.2203 97.2055 21.7048C97.3614 21.1271 97.4986 20.5991 97.4425 20.6798C96.7128 21.6924 95.9769 21.9844 95.7836 22.2018C95.7524 22.1769 96.1079 21.388 96.6505 20.4686C97.1182 19.7232 97.8229 18.7479 98.3655 18.2509C98.4278 18.282 97.3676 19.9903 96.8438 20.86C96.8064 20.9283 97.8354 20.1145 98.0848 19.6176C98.353 19.1827 98.3966 18.9964 98.8581 18.5118C98.7085 18.4808 98.0599 19.2697 97.8915 19.3691C98.0474 18.9591 99.145 17.3315 99.2573 17.1638C99.4755 16.8346 99.8996 16.3376 100.293 16.1512C100.879 15.8779 100.972 15.9214 100.972 15.9214C100.904 16.1574 99.7188 17.0706 99.7188 17.0706C100.623 16.5612 100.86 16.4184 101.047 16.2444C101.122 16.1512 101.459 15.7847 101.459 15.7847C101.459 15.7847 100.255 15.5176 99.2947 16.9464C99.2947 16.9464 99.0639 17.1949 99.0702 17.1949C98.9953 17.2694 97.879 18.3441 97.5048 18.4435C97.5922 18.3317 98.6461 17.0396 99.2323 16.3376C99.9745 15.4493 100.573 15.1884 101.116 14.7411C101.864 14.1261 102.251 13.8838 102.98 13.7161C102.444 14.0515 101.795 14.7535 101.802 14.7473C101.471 14.9399 101.297 15.1076 101.297 15.1076C102.743 14.3746 103.729 14.4988 103.729 14.4988C103.729 14.4988 103.504 14.6541 103.348 14.7597C103.18 14.8529 103.043 14.9771 102.463 15.1573C102.357 15.1697 102.245 15.1946 102.126 15.2443C101.808 15.3374 101.134 15.7288 101.665 15.5052C101.665 15.5052 101.914 15.4182 102.151 15.3499C102.531 15.2815 102.5 15.4865 102.5 15.4865C102.413 15.7412 101.546 16.2134 101.546 16.2134C101.958 16.0394 102.17 15.9276 102.294 15.8344C102.276 15.8344 102.276 15.8406 102.294 15.8344C102.5 15.7599 102.856 15.6543 103.236 15.617C103.785 15.5611 104.234 15.617 104.234 15.617C104.041 15.8779 103.093 16.4867 103.093 16.4867C104.022 16.3438 104.521 15.6356 104.521 15.6356C104.521 15.6356 104.053 15.4679 103.891 15.4244C103.779 15.4182 103.23 15.2815 102.463 15.6853C102.5 15.6481 103.043 15.2505 103.043 15.2505C103.043 15.2505 102.887 15.1884 102.893 15.1884C103.143 15.1138 103.747 14.7473 103.81 14.7162C104.084 14.5609 104.733 14.3187 105.469 14.3311C105.737 14.3435 106.51 14.4118 106.51 14.4118C106.379 14.5796 104.44 15.0144 104.44 15.0144C104.92 14.9834 105.269 14.9771 105.519 14.9523C105.406 15.002 105.3 15.0641 105.194 15.1449C105.194 15.1449 105.487 14.9958 105.961 14.9585C106.791 14.8964 106.972 15.4928 106.972 15.4928C106.828 15.6853 105.431 16.0518 105.431 16.0518C106.099 16.0643 106.479 15.9711 106.728 15.8717C106.504 15.8717 106.367 15.8717 106.367 15.8717C106.51 15.8717 106.641 15.8593 106.772 15.8531C106.916 15.7909 107.009 15.735 107.103 15.6977C107.209 15.6356 107.645 15.3623 107.645 15.3623C106.997 15.0393 106.504 14.8467 106.067 14.8405C106.41 14.71 106.934 14.4181 106.934 14.4181C106.934 14.4181 107.327 14.3684 107.452 14.3622C107.851 14.3435 107.976 14.474 108.157 14.4615C108.25 14.4615 107.627 14.1944 107.62 14.182C107.471 13.9335 107.945 13.7906 108.356 13.7099C108.518 13.685 108.718 13.654 108.755 13.6478C109.385 13.6291 109.66 13.9522 110.626 13.7596C110.533 13.5359 109.722 13.3123 109.734 13.275C110.227 13.3061 111.618 13.685 112.397 13.9584C111.318 13.8341 109.928 13.977 109.922 14.0267C110.564 13.9894 111.743 14.0267 112.528 14.1882C113.302 14.3249 113.888 14.6976 113.875 14.7473C113.801 14.7473 113.27 14.7473 113.002 14.7038C112.678 14.6293 112.385 14.5237 112.023 14.4491C111.736 14.3932 110.975 14.3808 110.957 14.4243C111.555 14.5361 112.366 14.6914 112.99 14.7535C113.233 14.8032 113.339 14.884 113.451 14.9399C112.086 15.0765 110.158 14.4615 110.564 14.5858C111.693 14.9461 111.269 15.2505 110.676 15.3499C110.67 15.3623 111.038 15.4058 111.2 15.4555C111.587 15.5611 111.836 15.7723 111.836 15.7723C111.836 15.7723 111.418 15.3561 111.412 15.3374C111.387 15.1262 112.722 14.8778 114.125 15.2691C114.144 15.1324 114.181 15.0455 114.056 14.9275C115.291 15.1946 115.834 16.0829 115.827 16.1202C115.491 15.9027 114.867 15.7102 114.518 15.6543C114.923 15.9587 115.659 16.4991 115.659 16.4991C115.659 16.4991 116.251 16.4556 116.962 16.7414C117.33 16.8905 117.636 17.1514 117.804 17.4806C117.38 17.1638 117.218 17.1762 117.106 17.1638C117.455 17.5365 118.49 18.0397 118.815 18.5491C118.222 18.077 116.557 18.0149 116.389 18.0521C118.266 18.487 118.571 18.6485 119.014 20.2698C119.052 19.6921 118.765 18.8659 118.409 18.6423C119.519 19.0771 119.239 19.4995 119.239 19.4995C119.594 19.5679 120.118 20.1891 120.118 20.1891C120.118 20.1891 119.382 19.835 119.239 20.0524C119.526 20.2015 119.625 20.5121 119.744 20.742C119.775 20.7979 120.168 21.2638 120.954 21.7918C120.498 21.7545 120.436 21.6676 120.343 21.6924C120.224 21.7235 120.218 21.8229 120.187 21.8726C120.804 22.4627 121.465 22.5124 121.764 23.438C121.502 23.233 120.473 22.9472 120.18 22.8292C121.802 23.6057 121.347 24.0033 122.787 24.9227C122.75 24.9289 122.082 25.0469 121.87 25.1774C122.076 25.1525 123.242 26.0284 122.45 26.0906C118.228 28.5319 112.959 32.9797 107.633 41.8879C107.439 42.2109 107.246 42.565 107.078 42.8818C107.059 42.8197 106.697 42.478 106.778 42.1923M107.015 43.6769C107.028 43.6335 107.04 43.5962 107.047 43.5527C107.695 42.2979 109.08 39.9497 111.661 36.6449C111.661 36.6449 119.551 27.2833 122.937 26.6745C123.068 26.7304 123.143 26.8422 123.405 27.4137L123.43 27.4634C123.504 27.6125 123.567 27.8734 123.592 27.9293C123.592 27.9293 123.592 27.9355 123.585 27.9418C121.677 28.6251 118.316 31.4578 115.085 35.0981C110.994 39.7074 107.252 45.1678 107.252 45.1678C107.252 45.1678 107.003 44.82 106.916 44.1304C106.903 44.0248 106.965 43.826 107.009 43.6769M124.147 29.8923C124.034 29.9545 123.922 30.0166 123.81 30.0973C123.71 30.147 123.623 30.2029 123.523 30.2589C117.461 33.9302 112.903 40.2106 110.165 43.4657C109.366 44.4721 108.456 45.5344 107.577 46.7892C107.302 46.6587 107.128 46.5842 107.165 46.3854C107.184 46.3109 107.277 46.0748 107.346 45.9071L107.608 45.4909C116.788 32.0852 122.338 29.2214 123.698 28.6313C123.76 28.6748 123.879 28.7742 123.966 28.9233C124.178 29.5134 124.147 29.7246 124.14 29.8923" fill="black"/>
<path d="M113.495 30.5819C113.495 30.5819 113.501 30.6254 113.501 30.6502C113.501 30.6502 113.501 30.6254 113.495 30.5819Z" fill="black"/>
<path d="M56.6377 74.5013C56.7188 74.2031 56.9994 74.0416 57.2863 74.0416H63.2795C63.8969 74.0416 64.2149 74.3522 64.2212 74.9983V76.6258C64.2212 76.6258 64.2212 77.1663 63.6225 77.1663C63.0238 77.1663 63.1735 75.9301 62.0883 75.9301H60.6228C60.4482 75.9301 60.311 76.0668 60.3047 76.2345V79.2287C60.311 79.3902 60.4419 79.5207 60.6103 79.5331H61.5333C62.6184 79.5331 62.4687 78.3031 63.0674 78.3031C63.6661 78.3031 63.6661 78.8436 63.6661 78.8436V82.1173C63.6661 82.1173 63.6661 82.6578 63.0674 82.6578C62.4687 82.6578 62.6184 81.4216 61.5333 81.4216H60.5978C60.4419 81.434 60.311 81.5645 60.3047 81.7198V84.4096C60.311 84.5773 60.4544 84.714 60.6228 84.714H62.3066C63.292 84.7761 63.6225 83.6393 64.2898 83.9126C65.0631 84.2232 64.8136 84.6767 64.8136 84.6767L64.2025 85.8011L64.0715 86.0496C63.8719 86.3912 63.5851 86.559 63.1922 86.5528H58.7706H57.2801C56.9994 86.5528 56.7126 86.3912 56.6377 86.0993C56.5442 85.7576 56.6689 85.5029 57.2302 85.1923C57.6044 84.9873 57.9723 84.7202 57.9723 84.0803V76.5202C57.9723 75.8742 57.5919 75.6009 57.2239 75.4021C56.6627 75.0977 56.5379 74.843 56.6315 74.5013" fill="black"/>
<path d="M67.8633 74.5013C67.9444 74.2094 68.2188 74.0478 68.4995 74.0416H75.0851C75.7087 74.0416 76.0268 74.3522 76.033 74.9983V76.6258C76.033 76.6258 76.033 77.1663 75.4406 77.1663C74.8481 77.1663 74.9916 75.9301 73.9064 75.9301H71.8484C71.6738 75.9301 71.5304 76.0668 71.5241 76.2345V79.2349C71.5304 79.3964 71.6613 79.5269 71.8297 79.5393H72.7589C73.8441 79.5393 73.6944 78.3031 74.2931 78.3031C74.8918 78.3031 74.8918 78.8436 74.8918 78.8436V82.1235C74.8918 82.1235 74.8918 82.664 74.2931 82.664C73.6944 82.664 73.8441 81.4278 72.7589 81.4278H71.8297C71.6676 81.4402 71.5366 81.5645 71.5303 81.7322V84.1611C71.5553 84.6891 71.8484 84.95 72.1665 85.1364L72.2725 85.1985C72.8275 85.5091 72.9585 85.7638 72.8587 86.1055C72.7776 86.3974 72.497 86.559 72.2101 86.559H70.1022H69.99H68.4995C68.2126 86.559 67.9319 86.3974 67.8571 86.1055C67.7636 85.7638 67.8883 85.5091 68.4433 85.1985C68.8175 84.9935 69.1917 84.7264 69.1917 84.0866V79.0175V76.5265C69.1917 76.0046 68.9422 75.7313 68.6554 75.5387C68.5992 75.4952 68.5306 75.4518 68.4496 75.4083C67.8945 75.1039 67.7636 74.8492 67.8633 74.5075" fill="black"/>
<path d="M130.327 77.3278V77.7564C130.327 77.9365 130.477 78.0794 130.658 78.0794H131.219C131.462 78.0918 131.674 78.0794 131.855 78.0794C133.221 78.0794 134.83 77.5079 134.805 75.3461C134.786 73.3147 133.763 72.1593 131.986 72.1593C131.836 72.1593 131.169 72.1717 130.62 72.1841C130.452 72.2028 130.321 72.3395 130.321 72.5072V77.3278H130.327ZM132.797 70.364H133.302C134.187 70.364 134.905 70.5566 135.472 70.9107C136.663 71.6499 137.175 73.0787 137.175 74.8553C137.175 75.4455 137.05 75.9859 136.85 76.4643C136.214 78.0546 134.805 78.9926 134.468 79.1727C134.431 79.1976 134.418 79.2162 134.418 79.2349C134.418 79.5268 134.443 79.8188 134.499 80.1045C134.849 82.0924 136.445 84.7636 138.341 85.5588C138.859 85.801 139.164 85.888 139.214 86.2607C139.214 86.2918 139.202 86.3663 139.17 86.4471C139.083 86.6645 138.84 86.9875 138.341 86.9875C136.171 86.9875 134.362 85.1425 133.252 83.3597C132.541 82.2912 131.974 81.0798 131.593 79.912C131.568 79.8374 131.512 79.7815 131.431 79.7815C131.132 79.8064 130.969 79.8064 130.683 79.8064C130.477 79.8188 130.346 79.9492 130.34 80.1045V84.1424C130.365 84.6518 130.639 84.9127 130.945 85.0991C130.988 85.1239 131.032 85.155 131.082 85.1798C131.637 85.4904 131.768 85.7451 131.668 86.0868C131.587 86.3787 131.306 86.5403 131.019 86.5403H128.562H128.444H126.953C126.666 86.5403 126.386 86.3787 126.305 86.0868C126.211 85.7389 126.336 85.4904 126.897 85.1798C127.271 84.9748 127.645 84.7077 127.645 84.0616V72.8426C127.645 71.5816 126.192 71.7555 126.192 71.0598C126.192 70.364 126.822 70.364 126.822 70.364H132.784H132.797Z" fill="black"/>
<path d="M49.7093 84.1859C49.7467 84.7885 50.1521 85.0307 50.5138 85.2295C51.0189 85.5215 51.1312 85.77 51.0439 86.0992C50.9628 86.3912 50.6822 86.5527 50.3953 86.5527H46.5786C46.298 86.5527 46.0111 86.3912 45.9363 86.0992C45.849 85.7762 45.955 85.5277 46.4539 85.2357C46.8468 85.0245 47.2833 84.7698 47.2833 84.0803V79.6573V76.2407C47.2709 76.0729 47.1274 75.9363 46.9591 75.9363H45.3625C44.24 75.9425 44.1901 76.6444 43.5665 76.6444C42.949 76.6444 43.0987 76.1288 43.0987 76.1288L43.554 74.5385C43.6787 74.0913 44.2961 74.0416 44.4894 74.0416H52.1914H53.3327C53.3327 74.0416 54.081 74.0043 53.9937 74.5385L53.5883 76.1288C53.5883 76.1288 53.5135 76.6444 53.0146 76.6444C52.2912 76.6444 52.9834 75.9425 51.8609 75.9363H50.9316H50.0336C49.859 75.9363 49.7218 76.0667 49.7093 76.2344V84.1859Z" fill="black"/>
<path d="M143.966 74.0416H145.357C145.644 74.0416 145.924 74.2031 146.005 74.5013C146.099 74.843 145.968 75.0977 145.407 75.4021C145.326 75.4518 145.257 75.4952 145.195 75.5387C144.908 75.7313 144.671 76.0046 144.671 76.5202V84.186C144.708 84.6767 144.976 84.9252 145.276 85.1115C145.319 85.1364 145.363 85.1675 145.413 85.1923C145.974 85.5029 146.099 85.7576 146.005 86.0993C145.924 86.3912 145.644 86.5528 145.357 86.5528H143.604H143.218H141.727C141.44 86.5528 141.16 86.3912 141.079 86.0993C140.991 85.7576 141.116 85.5029 141.677 85.1923C142.045 84.9873 142.426 84.7202 142.426 84.0803V84.0182C142.426 78.9492 142.426 76.4146 142.426 76.4146C142.395 75.9177 142.114 75.663 141.808 75.4828L141.684 75.4021C141.122 75.0977 140.998 74.843 141.091 74.5013C141.172 74.2031 141.453 74.0416 141.74 74.0416H143.972H143.966Z" fill="black"/>
<path d="M157.848 74.9051C158.017 75.0045 158.16 75.1598 158.229 75.3896L158.852 77.2595C158.852 77.2595 159.058 77.9677 158.204 77.9614C157.356 77.9614 157.05 77.1415 155.909 76.483L155.435 76.2221C154.718 75.8804 153.975 75.7002 153.327 75.7002C151.656 75.7002 150.408 77.3651 150.408 79.2101C150.408 82.5646 153.464 84.5152 155.666 84.5152C156.744 84.5152 157.68 83.9375 158.154 82.8876C158.291 82.5087 158.809 82.7696 158.877 83.3908V84.8196C158.877 84.8817 158.852 84.9314 158.809 84.9687C157.674 85.9812 156.189 86.5714 154.58 86.5714C150.608 86.5714 148.344 83.5461 148.344 80.204C148.344 76.6693 151.225 74.0416 154.63 74.0416C155.815 74.0416 156.9 74.3584 157.842 74.8989L157.848 74.9051Z" fill="black"/>
<path d="M171.163 74.9051C171.331 75.0045 171.469 75.1598 171.537 75.3896L172.161 77.2595C172.161 77.2595 172.367 77.9677 171.519 77.9614C170.67 77.9614 170.352 77.1415 169.217 76.483L168.743 76.2221C168.026 75.8804 167.278 75.7002 166.629 75.7002C164.964 75.7002 163.711 77.3651 163.711 79.2101C163.711 82.5646 166.766 84.5152 168.974 84.5152C170.053 84.5152 170.982 83.9375 171.462 82.8876C171.593 82.5087 172.111 82.7696 172.18 83.3908V84.8196C172.18 84.8817 172.155 84.9314 172.111 84.9687C170.982 85.9812 169.492 86.5714 167.883 86.5714C163.916 86.5714 161.653 83.5461 161.653 80.204C161.653 76.6693 164.528 74.0416 167.945 74.0416C169.124 74.0416 170.215 74.3584 171.144 74.8989H171.157L171.163 74.9051Z" fill="black"/>
<path d="M40.2798 72.0537C40.3983 72.178 40.4731 72.3395 40.4731 72.5445V74.4827C40.4731 74.4827 40.4731 75.1163 39.7746 74.9113C39.0762 74.7125 39.0138 73.9608 38.2342 73.1533L37.9037 72.8302C37.3986 72.3768 36.8248 72.0537 36.2885 71.8984C35.933 71.799 35.5775 71.7742 35.2345 71.8301C34.1619 72.0475 33.3948 72.9545 33.5757 73.9857C34.2305 77.5763 41.2776 77.0917 41.2776 82.1484C41.2776 84.9873 38.5086 86.5527 36.1388 86.5527C34.7543 86.5527 30.9875 85.7514 30.9875 84.012C30.9875 83.9747 31.5488 81.8564 32.1538 81.3905C32.952 80.7879 33.7253 81.6079 33.7253 81.8626C33.7253 82.1173 33.4135 82.9497 33.4135 83.2106C33.4135 85.0121 35.8956 84.9811 36.2324 84.9811C37.4048 84.9811 38.9951 84.2108 38.9951 83.0243C38.9951 79.5393 31.686 79.9431 31.605 74.3211C31.5738 72.0786 32.9395 70.9853 34.7606 70.6063C35.2782 70.4945 35.8395 70.4386 36.382 70.4448H36.5629C36.9932 70.4634 37.4235 70.5256 37.8102 70.6374C38.7893 70.9045 39.6187 71.3828 40.2548 72.0475L40.2798 72.0537Z" fill="black"/>
<path d="M102.575 74.0416H103.966C104.253 74.0416 104.527 74.2031 104.608 74.5013C104.708 74.843 104.577 75.0977 104.016 75.4021C103.96 75.4331 103.903 75.4704 103.854 75.5015C103.548 75.694 103.274 75.9736 103.274 76.5202V85.7762C103.274 86.6646 101.883 86.7205 101.465 86.2918L101.359 86.1986L94.8108 78.5578C94.5925 78.3093 94.4241 78.6261 94.4241 78.8063V84.1859C94.474 84.7947 94.8731 85.037 95.2411 85.2358C95.74 85.5277 95.8585 85.7762 95.7649 86.0993C95.6776 86.3912 95.4032 86.5527 95.1164 86.5527H91.8422C91.5554 86.5527 91.281 86.3912 91.1937 86.0993C91.1063 85.7576 91.2311 85.5029 91.7924 85.1923C92.1229 85.0121 92.4659 84.7699 92.5282 84.2481V76.4084C92.4908 75.9239 92.2227 75.6692 91.9296 75.4828C91.8859 75.458 91.8422 75.4331 91.7861 75.3958C91.2311 75.0915 91.1001 74.8368 91.1937 74.4951C91.2747 74.1969 91.5554 74.0354 91.8422 74.0354H95.4095C95.4095 74.0354 95.9021 74.0354 95.9021 74.5759C95.9021 75.0852 95.3159 75.048 95.7836 75.6443L96.2451 76.1972L101.01 81.7819C101.222 82.0117 101.39 81.6949 101.384 81.521V76.4146C101.353 75.9301 101.091 75.6816 100.804 75.5015C100.754 75.4704 100.71 75.4393 100.648 75.4021C100.093 75.0977 99.962 74.843 100.062 74.5013C100.143 74.2031 100.424 74.0416 100.71 74.0416H102.581H102.575Z" fill="black"/>
<path d="M177.93 74.0416H179.314C179.601 74.0416 179.882 74.2031 179.963 74.5013C180.056 74.843 179.931 75.0977 179.37 75.4021C179.283 75.4518 179.221 75.4952 179.152 75.5387C178.871 75.7313 178.628 76.0046 178.628 76.5202V84.186C178.672 84.6767 178.94 84.9252 179.233 85.1115C179.277 85.1364 179.32 85.1675 179.37 85.1923C179.931 85.5029 180.056 85.7576 179.969 86.0993C179.882 86.3912 179.607 86.5528 179.32 86.5528H177.562H177.175H175.684C175.398 86.5528 175.117 86.3912 175.042 86.0993C174.949 85.7576 175.073 85.5029 175.635 85.1923C175.996 84.9873 176.383 84.7202 176.383 84.0803V76.4146C176.346 75.9177 176.071 75.663 175.766 75.4828L175.641 75.4021C175.08 75.0977 174.949 74.843 175.042 74.5013C175.123 74.2031 175.404 74.0416 175.691 74.0416H177.93Z" fill="black"/>
<path d="M81.1656 75.4704C81.1656 75.4704 81.1157 75.4331 81.0907 75.4145C81.0471 75.3834 80.9972 75.3586 80.9535 75.3337C80.492 75.0542 80.386 74.8119 80.4733 74.4951C80.5482 74.1969 80.835 74.0354 81.1157 74.0354H85.107C85.3938 74.0354 85.6745 74.1969 85.7556 74.4951C85.8429 74.8057 85.7368 75.048 85.2753 75.3337C85.2317 75.3524 85.1818 75.3834 85.1381 75.4145C85.1132 75.4331 85.0883 75.4518 85.0695 75.4704C84.9012 75.6133 84.8201 75.8307 84.9448 76.222L85.0883 76.6942L87.3957 84.0741C87.8198 85.5712 88.8426 85.1674 88.8426 85.857C88.8426 86.5465 88.2127 86.5527 88.2127 86.5527H86.5164H85.0259C84.739 86.5527 84.4584 86.3912 84.3773 86.0993C84.2838 85.7762 84.396 85.5277 84.8949 85.2358C84.9635 85.1985 85.0259 85.1674 85.082 85.1302C85.107 85.1115 85.1319 85.0805 85.1569 85.0618C85.2566 84.9624 85.2941 84.8258 85.2255 84.6146L84.3711 81.6452C84.3274 81.521 84.2089 81.434 84.0655 81.434H81.6333C81.4899 81.434 81.3651 81.5272 81.3277 81.6514L80.4733 84.6146C80.3923 84.8755 80.4733 85.0246 80.623 85.1302C80.6479 85.1488 80.6791 85.1737 80.729 85.1985C81.2841 85.5091 81.4088 85.7638 81.3152 86.1055C81.2279 86.3974 80.9535 86.5589 80.6667 86.5589H78.1471C77.8603 86.5589 77.5796 86.3974 77.4986 86.1055C77.4113 85.8073 77.4986 85.5712 77.9039 85.3103C77.9788 85.273 78.0536 85.2296 78.1347 85.1799C78.2033 85.1302 78.2781 85.0743 78.3529 84.9997C78.5463 84.8134 78.7271 84.5338 78.8581 84.0865L80.7976 77.8683L81.3028 76.2345C81.4337 75.8431 81.3402 75.6257 81.178 75.4828M83.7599 79.5331C83.7599 79.5331 83.7599 79.4896 83.7537 79.471L82.9367 76.4643C82.9242 76.4271 82.893 76.4084 82.8619 76.4084C82.8244 76.4084 82.7995 76.4271 82.787 76.4581L81.9576 79.4772C81.9576 79.4772 81.9513 79.5207 81.9513 79.5393C81.9513 79.6573 82.0387 79.7505 82.1509 79.7567H83.5603C83.6788 79.7567 83.7661 79.6573 83.7661 79.5393" fill="black"/>
<path d="M111.493 75.7002C109.822 75.7002 108.575 77.3651 108.575 79.2039C108.575 82.5584 111.63 84.509 113.832 84.509C115.403 84.509 116.669 83.279 116.669 81.1607C116.669 77.9117 113.595 75.7002 111.493 75.7002ZM112.803 74.0416C116.358 74.0416 119.089 76.8992 119.089 80.1543C119.089 83.8381 116.202 86.5776 112.747 86.5776C108.774 86.5776 106.504 83.5523 106.504 80.2102C106.504 76.6755 109.385 74.0478 112.797 74.0478" fill="black"/>
</g>
<defs>
<clipPath id="clip0_4191_41062">
<rect width="149" height="86" fill="white" transform="translate(31 1)"/>
</clipPath>
</defs>
</svg>
