<svg width="300" height="150" viewBox="0 0 300 150" fill="none" xmlns="http://www.w3.org/2000/svg">
<g clip-path="url(#clip0_11206_245)">
<path d="M150 89.5103C135.006 89.5103 122.807 77.2826 122.807 62.2522C122.807 47.2219 135.006 35 150 35C164.994 35 177.193 47.2277 177.193 62.2522C177.193 77.2768 164.994 89.5103 150 89.5103ZM150 35.5432C135.306 35.5432 123.35 47.5224 123.35 62.2522C123.35 76.9821 135.306 88.9613 150 88.9613C164.694 88.9613 176.65 76.9763 176.65 62.2522C176.65 47.5282 164.694 35.5432 150 35.5432ZM150 88.4643C135.577 88.4643 123.846 76.7047 123.846 62.2522C123.846 47.7998 135.577 36.0459 150 36.0459C164.423 36.0459 176.154 47.8055 176.154 62.258C176.154 76.7105 164.423 88.4701 150 88.4701M150 36.5891C135.878 36.5891 124.395 48.106 124.395 62.258C124.395 76.41 135.883 87.9269 150 87.9269C164.117 87.9269 175.611 76.41 175.611 62.258C175.611 48.106 164.122 36.5891 150 36.5891ZM150 87.4646C136.132 87.4646 124.851 76.1557 124.851 62.258C124.851 48.3603 136.132 37.0457 150 37.0457C163.868 37.0457 175.154 48.3545 175.154 62.2522C175.154 76.15 163.868 87.4588 150 87.4588M150 37.5888C136.432 37.5888 125.394 48.655 125.394 62.2522C125.394 75.8495 136.432 86.9156 150 86.9156C163.568 86.9156 174.606 75.8495 174.606 62.2522C174.606 48.655 163.568 37.5888 150 37.5888ZM150 86.2569C136.796 86.2569 126.053 75.4854 126.053 62.2522C126.053 49.0191 136.79 38.2476 150 38.2476C163.21 38.2476 173.947 49.0133 173.947 62.2522C173.947 75.4912 163.204 86.2569 150 86.2569ZM150 38.7908C137.096 38.7908 126.596 49.3138 126.596 62.2522C126.596 75.1907 137.096 85.7137 150 85.7137C162.904 85.7137 173.404 75.1907 173.404 62.2522C173.404 49.3138 162.904 38.7966 150 38.7966M150 82.9515C138.616 82.9515 129.351 73.6651 129.351 62.258C129.351 50.8509 138.616 41.5588 150 41.5588C161.384 41.5588 170.649 50.8451 170.649 62.2522C170.649 73.6593 161.384 82.9457 150 82.9457M150 42.102C138.916 42.102 129.894 51.1398 129.894 62.2522C129.894 73.3646 138.91 82.4025 150 82.4025C161.09 82.4025 170.106 73.3646 170.106 62.2522C170.106 51.1398 161.084 42.102 150 42.102Z" fill="black"/>
<path d="M128.606 62.2523C128.606 62.5932 128.329 62.8764 127.982 62.8764C127.635 62.8764 127.358 62.599 127.358 62.2523C127.358 61.9055 127.635 61.6282 127.982 61.6282C128.329 61.6282 128.606 61.9055 128.606 62.2523Z" fill="black"/>
<path d="M172.665 62.2523C172.665 62.5932 172.388 62.8764 172.041 62.8764C171.695 62.8764 171.417 62.599 171.417 62.2523C171.417 61.9055 171.695 61.6282 172.041 61.6282C172.388 61.6282 172.665 61.9055 172.665 62.2523Z" fill="black"/>
<path d="M131.476 72.9601C131.65 73.2606 131.546 73.642 131.245 73.8096C130.951 73.9829 130.57 73.8789 130.396 73.5842C130.223 73.2837 130.327 72.9023 130.622 72.7289C130.922 72.5556 131.303 72.6596 131.476 72.9601Z" fill="black"/>
<path d="M169.633 50.926C169.806 51.2265 169.702 51.6021 169.407 51.7755C169.113 51.9488 168.726 51.8448 168.558 51.5443C168.385 51.2438 168.489 50.8682 168.789 50.6949C169.09 50.5273 169.471 50.6255 169.638 50.926" fill="black"/>
<path d="M139.116 80.7369C139.416 80.9045 139.514 81.2916 139.347 81.5864C139.173 81.8811 138.792 81.9851 138.492 81.8117C138.197 81.6384 138.093 81.257 138.266 80.9623C138.44 80.6618 138.821 80.5635 139.116 80.7369Z" fill="black"/>
<path d="M161.338 42.6279C161.633 42.8012 161.737 43.1826 161.563 43.4831C161.396 43.7778 161.009 43.8818 160.714 43.7085C160.42 43.5351 160.316 43.1537 160.489 42.859C160.662 42.5585 161.044 42.4603 161.344 42.6279" fill="black"/>
<path d="M150.012 83.668C150.358 83.668 150.635 83.9453 150.635 84.2921C150.635 84.6388 150.358 84.9162 150.012 84.9162C149.665 84.9162 149.388 84.633 149.388 84.2921C149.388 83.9511 149.665 83.668 150.012 83.668Z" fill="black"/>
<path d="M150.012 39.594C150.358 39.594 150.635 39.8771 150.635 40.2181C150.635 40.559 150.358 40.8422 150.012 40.8422C149.665 40.8422 149.388 40.5648 149.388 40.2181C149.388 39.8714 149.665 39.594 150.012 39.594Z" fill="black"/>
<path d="M160.715 80.8018C161.015 80.6284 161.396 80.7324 161.564 81.0271C161.737 81.3276 161.633 81.709 161.338 81.8766C161.038 82.05 160.657 81.946 160.484 81.6455C160.31 81.345 160.414 80.9636 160.715 80.796" fill="black"/>
<path d="M138.691 42.6279C138.991 42.4545 139.372 42.5585 139.54 42.859C139.713 43.1537 139.609 43.5409 139.309 43.7085C139.008 43.8818 138.627 43.7778 138.46 43.4831C138.286 43.1826 138.39 42.8012 138.685 42.6279" fill="black"/>
<path d="M168.553 72.9602C168.726 72.6655 169.107 72.5615 169.402 72.729C169.702 72.9024 169.806 73.2838 169.627 73.5843C169.454 73.879 169.072 73.983 168.778 73.8096C168.483 73.6363 168.379 73.2549 168.553 72.9602Z" fill="black"/>
<path d="M130.396 50.9202C130.57 50.6255 130.951 50.5215 131.245 50.6948C131.546 50.8682 131.65 51.2496 131.477 51.5443C131.303 51.839 130.922 51.943 130.622 51.7755C130.321 51.6021 130.223 51.2207 130.396 50.9202Z" fill="black"/>
<path d="M159.554 61.137C159.554 61.137 160.247 60.5129 161.471 59.7327C161.714 59.5594 164.059 58.0685 164.925 57.6409C164.174 57.8142 160.761 59.8657 158.762 61.6628C158.601 61.8304 158.317 62.0962 158.202 62.2234C158.185 62.2465 158.173 62.2696 158.156 62.2927C158.167 62.2927 158.185 62.2754 158.214 62.258C158.566 61.894 159.045 61.5068 159.548 61.137" fill="black"/>
<path d="M161.188 53.2317C161.517 53.3415 161.737 53.3184 162.211 53.4513C162.338 53.486 162.696 53.4687 162.649 53.8558C162.649 53.8905 162.73 53.9599 162.788 53.9945C162.938 54.0928 163.233 54.2661 163.383 54.3586C163.25 54.1274 162.805 53.9252 162.8 53.6074C162.8 53.5438 162.834 53.3647 162.736 53.3415C162.153 53.2086 161.65 53.1971 160.998 53.0699C161.102 53.1508 161.09 53.1971 161.188 53.2317Z" fill="black"/>
<path d="M157.295 50.3944C156.637 50.6082 155.643 50.614 155.643 50.6487C156.596 50.9029 156.914 50.6949 158.317 50.3077C158.057 50.1055 157.52 50.3193 157.295 50.3944Z" fill="black"/>
<path d="M158.56 52.8734C158.664 52.9254 158.78 52.9775 158.889 52.9832C159.525 53.0179 160.085 53.1739 160.79 53.197C160.541 53.093 160.345 52.9601 160.125 52.9197C159.877 52.8792 159.611 52.9197 159.346 52.9081C159.097 52.885 158.936 52.6827 158.693 52.6481C158.635 52.6481 158.56 52.6827 158.52 52.729C158.497 52.7463 158.531 52.8561 158.566 52.8734" fill="black"/>
<path d="M159.831 50.4175C160.177 50.4579 160.53 50.4753 160.882 50.4984C160.894 50.4695 160.894 50.4406 160.899 50.4059C160.131 50.2788 159.369 50.1574 158.595 50.0245C158.583 50.0361 158.572 50.0534 158.56 50.065C158.67 50.1343 158.762 50.2441 158.878 50.2615C159.19 50.3308 159.513 50.377 159.831 50.4117" fill="black"/>
<path d="M160.402 56.647C160.391 56.803 160.628 56.8377 160.125 56.9764C160.558 56.9648 161.246 57.0457 161.667 57.2768C161.615 57.0804 160.853 56.8088 160.408 56.647" fill="black"/>
<path d="M159.704 59.0624H159.715C159.201 59.0855 158.421 58.8428 157.977 58.4498C158.109 58.7041 159.039 59.2935 159.704 59.0681" fill="black"/>
<path d="M155.58 54.6533C156.29 54.6707 157.497 55.4045 157.93 55.7166C156.694 54.6938 156.088 54.6533 155.58 54.6533Z" fill="black"/>
<path d="M151.669 50.7526C151.866 50.6371 151.998 50.5331 152.848 50.4001C152.126 50.4406 151.854 50.5099 151.6 50.5677C151.496 50.5851 151.617 50.6891 151.669 50.7526Z" fill="black"/>
<path d="M157.278 48.9092C157.07 49.2039 156.434 48.9901 156.411 49.0306C156.671 49.2386 158.265 49.4177 158.525 49.6258C158.548 49.5911 157.48 48.9555 157.278 48.9034" fill="black"/>
<path d="M157.37 52.5094C157.37 52.5094 158.52 53.4629 158.156 54.3759C158.19 54.3528 158.554 53.5438 157.936 52.9312C157.613 52.6134 157.37 52.5094 157.37 52.5094Z" fill="black"/>
<path d="M162.956 57.976C163.383 57.8951 164.44 57.5195 164.382 57.4154C163.799 57.1323 162.99 56.6527 162.494 56.3522C162.649 56.6064 163.21 56.8896 163.741 57.4154C163.712 57.479 163.123 57.6813 163.088 57.6986C162.632 57.9066 161.858 57.4328 161.841 57.4559C161.979 57.6235 162.118 57.7679 162.338 57.9124C162.43 57.976 162.707 58.0049 162.956 57.976Z" fill="black"/>
<path d="M139.239 58.3748C139.239 58.3748 139.187 58.4152 139.141 58.4614C139.245 58.4788 139.326 58.4903 139.418 58.5077C139.366 58.5828 139.337 58.629 139.309 58.6695C139.557 58.6521 139.788 58.629 140.054 58.6059C140.031 58.5057 139.761 58.4287 139.245 58.3748" fill="black"/>
<path d="M161.835 54.7111C162.228 54.8555 162.944 55.1791 163.273 55.2947C163.192 55.2427 162.54 54.4163 161.835 54.7111Z" fill="black"/>
<path d="M158.52 51.4692C158.999 51.5501 159.409 51.6195 159.825 51.6888C159.831 51.6715 159.842 51.6484 159.848 51.631C159.461 51.3652 159.068 51.1052 158.675 50.8394C158.658 50.8509 158.629 50.8567 158.612 50.8682C158.693 51.0069 158.774 51.1456 158.872 51.3074C158.808 51.319 158.756 51.3132 158.704 51.3305C158.664 51.3479 158.623 51.3883 158.52 51.4692Z" fill="black"/>
<path d="M160.691 52.5268C160.501 52.2321 160.489 51.7582 159.912 51.7351C160.287 52.1165 160.472 52.3072 160.691 52.5268Z" fill="black"/>
<path d="M156.868 49.7703C156.261 49.7703 154.915 49.7067 154.124 49.1057C154.719 50.1112 156.099 49.8338 156.868 49.7703Z" fill="black"/>
<path d="M160.212 55.6934C160.564 55.6934 160.888 55.6934 161.205 55.6934C161.205 55.6934 161.737 55.7108 161.968 55.757C162.153 55.7917 162.003 55.965 162.187 56.0055C162.505 56.0806 162.961 55.9535 163.389 56.0401C163.579 56.0806 163.961 56.3984 164.117 56.5718C164.307 56.7798 164.631 56.8838 164.764 56.9474C164.665 56.8029 164.348 56.41 164.249 56.2655C164.267 56.2366 164.284 56.2077 164.301 56.1846C164.215 56.1962 164.163 56.2077 164.007 56.1731C163.724 56.1153 163.262 55.9708 162.979 55.913C162.852 55.8899 162.649 55.8437 162.528 55.8148C162.159 55.7397 160.097 55.312 159.923 55.2831C159.837 55.2716 159.727 55.1849 159.686 55.1098C159.617 54.9769 159.606 54.9017 159.571 54.7631C159.571 54.7631 159.571 54.7631 159.565 54.7631C159.473 55.4334 160.12 55.4796 160.368 56.566C160.403 56.6238 160.553 56.1268 160.212 55.6876" fill="black"/>
<path d="M155.187 51.2034C155.811 51.3132 156.613 51.5155 157.353 51.8218C158.086 52.128 158.664 52.1049 158.664 52.1049C158.288 52.0298 158.057 51.92 158.057 51.92C156.654 51.1283 155.187 51.2034 155.187 51.2034Z" fill="black"/>
<path d="M151.126 48.9092C151.126 48.9092 151.103 48.9208 151.086 48.9266C151.681 48.9266 152.917 48.9612 153.46 49.2675C152.53 48.7474 151.993 48.8572 151.126 48.915" fill="black"/>
<path d="M156.354 53.6246C156.637 53.5437 156.764 53.4397 156.764 53.4397C156.937 53.3415 157.295 53.3473 157.295 53.3473C157.295 53.3473 156.937 53.0179 156.908 52.9543C156.504 52.0933 155.574 51.8217 155.487 51.7986C155.516 51.8101 155.539 51.8217 155.568 51.8333C155.643 51.8679 155.626 51.8621 155.551 51.839C156.209 52.2262 156.423 52.4458 156.619 52.7694C156.666 52.8445 156.868 53.2028 156.868 53.2028C156.868 53.2028 156.718 53.3242 156.59 53.4051C156.03 53.7633 154.708 53.5553 154.708 53.5553L155.372 53.6767C155.597 53.7055 155.949 53.7113 156.042 53.694C156.053 53.694 156.117 53.7113 156.198 53.7287C156.677 53.8674 156.995 54.2256 157.093 54.3354C157.035 54.3585 156.862 54.4626 156.77 54.555C157.278 54.6648 157.538 54.6995 158.058 54.5608C157.347 54.6417 156.96 53.7749 156.354 53.6246Z" fill="black"/>
<path d="M159.571 54.7688C159.935 54.7573 160.27 54.6937 160.437 54.503C160.847 54.5435 161.263 54.5666 161.598 54.6128C161.604 54.5897 160.391 53.6073 160.374 53.6189C160.46 53.7518 160.911 54.0581 160.946 54.3354C160.882 54.347 160.46 54.2314 160.408 54.2545C160.368 54.2719 160.31 54.399 160.212 54.4799C159.946 54.659 159.542 54.7226 159.409 54.7457C159.08 54.6417 158.762 54.3181 158.323 54.6764C158.549 54.6937 159.08 54.7746 159.559 54.7631C159.559 54.7573 159.559 54.7515 159.559 54.7399C159.559 54.7457 159.559 54.7515 159.559 54.7631" fill="black"/>
<path d="M145.327 52.8734C145.31 52.9197 145.293 52.9601 145.281 52.9948C145.454 52.7752 146.142 51.9026 146.592 51.319C146.592 51.319 145.749 52.0875 145.327 52.8734Z" fill="black"/>
<path d="M140.776 53.5958C140.776 53.5958 141.619 52.9371 141.948 52.2494C141.948 52.2494 141.319 52.7175 140.776 53.5958Z" fill="black"/>
<path d="M154.632 48.4527C154.632 48.4527 154.17 48.2562 153.916 48.0424C153.373 47.6495 153.148 47.8286 153.148 47.7939C152.952 47.846 154.188 48.2042 154.043 48.3371C153.483 48.863 152.155 48.1638 152.085 48.1638C152.085 48.2042 152.074 48.2447 152.068 48.2851C152.49 48.4065 152.732 48.7705 153.396 48.7821C153.916 48.7417 154.055 48.6087 154.182 48.5625C154.263 48.5336 154.632 48.4527 154.632 48.4527Z" fill="black"/>
<path d="M153.315 50.0996C153.096 50.117 152.917 50.1921 152.801 50.3019C153.466 50.221 154.06 50.325 154.603 50.3366C154.13 50.1921 153.725 50.0707 153.315 50.0996Z" fill="black"/>
<path d="M149.971 49.7934L149.411 50.2846C149.139 50.5042 148.094 50.7122 148.094 50.7122C148.931 50.6024 149.226 50.5793 149.544 50.3482C149.555 50.3366 149.682 50.2557 149.682 50.2557C151.392 50.2153 152.143 50.0188 152.634 49.8223C152.778 49.7645 153.194 49.5161 153.194 49.5161C153.194 49.5161 152.57 49.4351 152.513 49.4294C152.241 49.4063 151.282 49.3542 151.282 49.3542C151.282 49.3542 151.981 49.4525 152.224 49.5623C152.853 49.8512 149.711 50.2326 149.711 50.2326C149.694 50.2326 150.889 49.464 150.889 49.464C150.889 49.464 149.341 49.5623 149.047 49.6952C148.926 49.7299 148.325 49.9379 147.759 50.5793C147.759 50.5793 147.753 50.5967 147.747 50.6082C147.903 50.4811 148.498 50.0188 149.03 49.857C149.474 49.6952 149.983 49.7934 149.983 49.7934" fill="black"/>
<path d="M146.719 49.4987C145.997 50.117 144.923 49.8512 144.264 50.8624C144.363 50.7411 144.981 50.377 145.096 50.2383C145.096 50.6602 144.848 50.8104 144.368 50.9953C144.351 51.0936 144.305 51.1629 144.247 51.2265C144.189 51.2843 144.085 51.3247 144.068 51.3883C144.045 51.4865 144.074 51.5963 144.08 51.6946C143.912 51.7639 143.71 51.7986 143.906 52.0239C143.704 52.3244 143.508 52.6654 143.415 52.9774C143.612 52.6827 143.993 52.1395 144.212 51.8275C144.23 51.8564 144.363 51.9719 144.253 52.2262C144.646 51.9835 145.264 51.1225 145.339 51.0185C144.669 51.7639 144.339 51.6483 144.212 51.6426C144.334 51.3363 144.264 51.1051 144.986 50.8335C145.015 50.822 145.044 50.7642 145.061 50.7237C145.09 50.6775 145.102 50.6255 145.125 50.5793C145.183 50.614 145.246 50.6486 145.368 50.7237C145.368 50.5562 145.264 50.5388 145.275 50.3424C146.823 49.9552 146.84 49.672 147.054 49.4409C147.199 49.2155 147.424 49.071 147.424 49.071C147.424 49.071 146.615 49.1057 146.234 49.2617C146.592 49.2097 147.256 49.0884 146.713 49.5044" fill="black"/>
<path d="M145.645 50.8625C145.922 50.7065 146.384 50.5736 146.384 50.5736C146.28 50.8625 145.564 52.0298 145.564 52.0298C146.211 51.504 146.858 50.2095 146.777 50.3482C146.251 50.3945 145.645 50.8625 145.645 50.8625Z" fill="black"/>
<path d="M144.674 55.4161C144.455 55.2081 144.143 55.1907 143.958 55.2254C144.322 55.289 144.594 55.809 144.634 56.1153C144.715 56.1211 144.836 56.1904 144.958 56.202C144.958 56.202 144.958 56.2193 144.958 56.2424C145.021 56.2309 145.073 56.2135 145.073 56.1731C145.102 55.861 144.958 55.6992 144.669 55.4219" fill="black"/>
<path d="M167.23 60.1372C167.23 60.1372 167.299 59.8483 167.109 59.4785C166.906 59.074 166.802 58.7966 166.462 58.577C166.658 58.421 166.658 58.1898 166.479 57.9124C166.358 57.716 166.294 57.5426 166.202 57.3346C166.028 56.9358 165.872 56.3869 165.809 56.3406C165.532 56.1499 165.405 55.913 165.37 55.5721C165.353 55.4161 165.179 55.1907 165.035 55.1502C164.7 55.052 164.677 54.7631 164.55 54.5377C164.376 54.2141 164.215 53.8963 164.053 53.5727C163.989 53.6131 163.984 53.954 163.966 53.9425C163.73 53.7229 163.533 53.3762 163.239 53.0815C163.672 53.2028 163.718 53.2837 163.984 53.4629C163.73 52.9948 163.522 52.5498 163.204 52.128C162.788 51.5675 162.28 51.0705 161.806 50.5446C161.598 50.3135 161.413 49.9668 161.153 49.8916C160.559 49.7067 160.143 49.2618 159.779 48.863C159.247 48.2794 158.502 48.0829 157.93 47.5802C157.526 47.2219 156.902 47.1063 156.365 46.9098C155.349 46.54 154.315 46.2164 153.211 46.1933C152.692 46.1817 152.172 46.2164 151.658 46.1817C150.589 46.1066 149.526 46.0315 148.481 46.4013C147.684 46.6845 146.789 46.7076 146.107 47.2912C146.078 47.3144 146.02 47.3144 145.974 47.3317C145.766 47.4068 145.547 47.4588 145.362 47.5686C145.079 47.7304 144.836 47.9558 144.559 48.1234C144.091 48.4123 143.577 48.6434 143.144 48.9786C142.376 49.568 141.642 50.2152 140.909 50.8451C140.816 50.9318 140.73 51.2034 140.735 51.1976C140.735 51.1976 140.036 51.7582 139.748 52.0818C139.407 52.4747 139.13 52.9312 138.823 53.3531C138.748 53.4571 138.673 53.5669 138.587 53.6593C138.09 54.2025 137.593 54.7457 137.102 55.2889C136.877 55.5432 136.64 55.7974 136.461 56.0806C136.178 56.5371 135.987 57.0514 135.676 57.4848C135.317 57.976 134.855 58.3863 134.474 58.8601C133.77 59.7385 133.099 60.6515 132.655 61.6917C131.563 64.2112 132.25 66.8289 134.48 68.6088C134.74 68.811 135.11 69.1866 135.416 69.308C135.722 69.4293 135.832 69.2675 135.808 68.9439C135.785 68.6723 135.6 68.2794 135.502 68.0251C135.317 67.5282 135.387 67.0948 135.179 66.6036C135.196 66.6556 135.242 66.7018 135.312 66.6382C135.445 66.488 135.652 66.3609 135.704 66.1875C136.034 65.1242 136.767 64.4423 137.743 64.0205C139.297 63.3444 140.897 62.8128 142.566 62.5065C143.288 62.3678 144.022 62.258 144.755 62.1771C144.952 62.154 145.177 62.2696 145.391 62.3389C145.477 62.3678 145.547 62.4603 145.633 62.4718C146.015 62.5123 146.355 62.6221 146.615 62.9399C146.806 63.1768 147.037 63.3964 147.274 63.5929C147.69 63.9338 147.921 64.4655 148.446 64.6793C148.487 64.6908 148.516 64.7486 148.533 64.7891C148.845 65.4883 149.163 66.1933 149.457 66.9041C149.503 67.0196 149.474 67.1641 149.498 67.2912C149.688 68.1118 149.896 68.9324 150.075 69.7645C150.208 70.3886 150.312 71.0069 150.399 71.6368C150.468 72.1049 150.479 72.5787 150.526 73.0468C150.543 73.2317 150.583 73.4166 150.612 73.6016C150.635 73.7576 150.664 73.9136 150.687 74.0754C150.728 74.2372 150.734 74.3759 150.739 74.5204C150.757 74.9018 150.555 75.312 150.838 75.6588C151.138 76.0113 151.022 76.3753 150.942 76.7567C150.872 77.0861 150.762 77.4733 150.866 77.7506C150.97 78.0222 151.721 78.4499 151.877 78.3863C152.305 78.0511 154.188 75.6819 154.575 75.0867C154.956 74.3701 160.634 66.4938 167.132 63.0959C167.368 62.963 167.611 62.8301 167.831 62.6741C168.01 62.5412 167.703 60.247 167.236 60.1315M153.385 46.644C153.437 46.644 153.737 46.6729 153.835 46.7307C153.408 46.7134 152.836 46.7943 152.478 46.8463C151.958 46.8752 151.288 46.9156 151.04 46.933C151.225 46.8867 151.415 46.8289 151.594 46.7423C152.565 46.2742 152.721 46.6556 153.385 46.644ZM148.926 46.9272C148.972 46.8925 149.07 46.5689 149.145 46.5516C149.827 46.3898 150.318 46.5285 150.924 46.4244C151.155 46.384 151.386 46.3955 151.64 46.4244C151.305 46.5805 150.508 46.9676 149.988 47.037C150.075 47.0428 150.52 47.0428 150.999 46.9387C151.467 46.9561 151.687 47.3028 151.242 47.5455C151.086 47.4935 150.491 47.3086 149.977 47.3375C149.879 47.3432 149.492 47.3664 148.908 47.5859C148.828 47.505 148.487 47.2392 147.684 47.401C147.239 47.4993 146.615 47.8113 146.621 47.8055C146.679 47.7651 146.742 47.7246 146.817 47.6668C147.568 47.1641 147.886 46.9445 148.926 46.9214M142.312 50.3077C142.462 49.8801 143.82 48.6723 143.802 49.0306C144.143 48.6319 145.287 48.054 145.31 48.0771C145.275 48.1349 144.467 48.7012 144.195 49.0306C144.068 49.1809 143.236 50.2037 143.831 49.2444C143.86 49.1982 143.271 49.8281 142.416 50.7238C142.474 50.77 143.427 49.9552 143.427 49.9552C143.427 49.9552 143.034 50.5966 142.682 50.9838C142.312 51.3941 141.81 51.8275 141.769 51.8391C141.752 51.9431 142.803 51.4461 142.745 51.5097C142.364 51.9373 141.879 53.2202 141.18 53.6825C140.423 54.1794 139.725 54.6937 139.476 54.9249C139.961 54.3354 141.111 52.8214 141.244 52.5845C141.365 52.3822 141.521 52.2089 141.706 52.0066C141.423 51.9142 141.157 52.0529 140.949 52.0413C141.342 51.2554 141.798 50.822 142.318 50.3135M140.805 55.8263C140.805 55.8263 140.62 55.6761 140.579 55.3178C140.516 54.8035 140.776 54.5897 140.776 54.5897C140.614 55.1791 140.81 55.8263 140.81 55.8263M139.99 55.4623C140.042 54.7284 140.834 54.2545 140.834 54.2545L139.99 55.4623ZM134.705 58.8601C134.936 58.6117 135.473 58.028 135.473 58.028C135.473 58.028 135.583 58.3458 135.352 58.6579C135.098 59.0219 134.965 59.0797 134.503 59.4438C134.318 59.5883 133.879 59.9408 133.879 59.9408C133.879 59.9408 134.474 59.1086 134.705 58.8601ZM144.432 60.5706C144.599 60.7209 144.732 60.8307 145.287 60.9463C144.686 60.9289 144.53 60.8942 144.282 60.8018C143.889 61.1774 140.418 62.102 140.112 62.2118C139.153 62.5643 138.281 62.9861 137.333 63.6276C136.554 64.2285 135.554 65.4941 135.242 66.2973C135.283 66.2106 135.15 65.731 135.849 64.6099C136.276 63.9223 136.796 63.3444 137.553 62.8417C137.772 62.6914 139.361 61.6281 140.73 61.4085C140.995 61.3623 141.371 61.2525 141.636 61.2178C141.902 61.1716 142.878 60.9405 142.878 60.9405C142.878 60.9405 142.185 61.0214 142.208 60.8538C142.214 60.6862 143.6 60.4435 143.889 60.4088C142.607 60.3337 141.192 60.8249 140.666 60.848C139.794 60.8885 139.418 60.7844 138.962 60.8076C138.119 60.8422 137.403 60.2008 137.478 60.2933C137.79 60.6747 138.46 60.8885 138.679 60.9578C138.858 61.0156 138.818 61.1081 138.795 61.4085C137.888 61.7264 136.993 62.1135 136.19 62.7087C135.843 62.963 135.017 63.8645 134.827 64.1939C134.445 64.8584 134.388 65.4941 134.538 66.2626C134.63 66.7654 135.225 68.4354 135.52 68.9555C134.971 68.5625 134.353 67.1757 134.278 66.9041C134.22 66.6787 133.798 65.1994 134.751 63.9454C134.942 63.6911 135.387 63.1653 135.6 62.8994C135.543 62.9226 135.133 63.3213 135.086 63.3675C134.728 63.7142 134.457 63.9454 134.099 64.2863C134.041 64.3383 133.914 64.321 133.752 64.3383C133.342 65.2167 133.897 67.3779 133.862 67.3837C131.153 62.8937 134.284 61.0792 134.636 60.5475C135.04 59.9234 135.433 59.3687 135.93 58.8081C136.178 58.525 136.242 58.3516 136.028 57.976C135.855 57.6697 136.103 57.2999 136.496 57.1323C136.525 57.1208 136.571 56.9647 136.588 56.9243C136.987 55.9708 138.205 54.7977 138.442 54.5319C138.564 54.3817 139.465 53.434 139.517 53.2259C139.684 52.885 139.84 52.7001 140.013 52.4516C140.169 52.2378 141.527 50.8047 141.769 50.5562C141.296 51.1629 139.805 53.3357 139.823 53.3473C139.875 53.2779 140.47 52.5961 140.649 52.4516C141.07 52.1222 141.134 52.3534 141.267 52.2898C141.278 52.3822 140.031 54.5088 138.512 54.5666C138.535 54.5781 138.673 54.5897 138.673 54.5897C138.673 54.5897 138.506 54.7342 138.338 54.8555C138.032 55.0867 137.512 55.6761 137.114 56.3175C137.125 56.3002 137.137 56.2886 137.148 56.2655C137.264 56.0633 137.46 55.9246 137.541 55.8552C137.564 55.8321 137.582 55.8206 137.582 55.8206L137.79 55.6414L137.587 55.8552L138.015 55.497L137.414 56.0806C137.183 56.306 137.114 56.4793 137.114 56.4793C137.143 56.3927 137.137 56.4504 137.172 56.3002C137.068 56.4504 136.883 56.7509 136.883 56.7509C136.883 56.7509 136.883 56.7394 136.9 56.7163C136.854 56.8029 136.813 56.8838 136.779 56.9705C136.288 57.5831 136.138 57.9067 136.565 58.4961C136.502 58.1609 136.334 57.976 136.715 57.5137C136.767 57.4501 136.831 57.3692 136.889 57.2999C136.912 57.3172 136.935 57.3288 136.964 57.3519C136.941 57.3981 136.917 57.4559 136.894 57.5022C136.756 57.8026 136.733 58.0916 136.883 58.4441C136.837 58.5134 136.681 58.5308 136.646 58.577C136.785 58.7272 136.923 58.8717 137.091 59.0508C136.935 59.0508 136.276 59.1664 136.247 59.2935C136.929 59.23 137.53 59.6287 137.905 59.5767C137.951 59.23 137.87 58.941 137.726 58.7041C137.905 58.681 138.084 58.6579 138.275 58.6406C138.153 58.4614 137.928 58.3401 138.2 58.132C138.24 58.0974 138.2 57.9471 138.182 57.7333C138.373 57.8315 138.512 57.9009 138.702 58.0049C138.737 57.9356 138.806 57.7911 138.875 57.6524C139.488 57.9356 140.065 58.2072 140.643 58.473C140.66 58.4383 140.672 58.4036 140.689 58.369C140.51 58.2938 140.319 58.2418 140.158 58.132C139.99 58.0222 139.915 57.8142 139.753 57.7044C139.569 57.5773 139.303 57.5368 139.072 57.4501C139.239 57.3404 139.418 57.219 139.649 57.063C139.592 57.0167 139.528 56.959 139.459 56.907C139.47 56.8838 139.476 56.8665 139.482 56.8492C139.58 56.8838 139.707 56.8896 139.759 56.9532C139.852 57.0803 139.904 57.2421 139.984 57.3808C140.088 57.5773 140.21 57.768 140.36 58.0222C140.458 57.8142 140.499 57.7275 140.562 57.5888C140.597 57.7564 140.626 57.8951 140.66 58.0627C140.672 58.0627 140.741 58.0685 140.816 58.0742C140.805 58.0396 140.793 58.0222 140.793 58.0107C140.753 57.7391 140.695 57.4675 140.678 57.1901C140.678 57.1497 140.81 57.0977 140.932 57.0052C140.943 57.219 140.955 57.3461 140.972 57.5368C141.007 57.5542 141.122 57.6062 141.261 57.6813C141.169 57.7969 141.099 57.8835 141.03 57.976C141.371 58.4441 140.689 58.4267 140.678 58.7561C140.909 59.0566 140.36 59.3687 140.412 59.3513C141.041 59.4322 141.931 59.3744 143.745 58.9179C143.901 58.8775 144.016 58.7561 144.132 58.6463C144.097 58.5943 144.068 58.5423 144.074 58.5076C143.877 58.5481 143.814 58.7446 143.554 58.7966C143.629 58.5943 143.739 58.3979 143.791 58.236C143.687 58.1783 143.56 58.1147 143.358 58.0107H143.958C143.947 58.2765 144.062 58.317 144.484 58.3979C144.796 58.2418 145.027 58.184 144.958 58.3863C144.917 58.5019 144.709 58.6406 144.605 58.7272C143.901 59.3051 142.589 59.6692 141.943 59.7847C141.66 59.8541 141.371 59.9003 141.053 59.9639C141.053 59.9812 141.03 60.091 141.013 60.2066C140.597 60.1083 140.175 60.247 140.088 60.5533C140.51 60.3742 141.047 60.5706 141.394 60.0679C142.012 60.1315 143.3 59.7269 144.01 60.2181C144.062 60.091 144.057 59.9234 144.057 59.9234L144.952 59.646C144.952 59.646 145.345 60.3279 146.61 60.5764C146.91 60.6342 147.771 60.64 147.771 60.64C147.771 60.64 147.285 60.7902 146.644 60.744C145.968 60.6978 145.137 60.3222 144.842 60.2181C145.01 60.3222 146.171 60.9058 146.147 60.9463C145.558 60.8653 144.599 60.64 144.438 60.5591M137.224 58.3054C137.304 58.3458 137.397 58.369 137.489 58.3863C137.628 58.4094 137.772 58.3863 137.922 58.3863C137.922 58.421 137.922 58.4499 137.928 58.4845C137.801 58.5019 137.68 58.525 137.611 58.5365C137.587 58.5828 137.57 58.6232 137.553 58.6637C137.455 58.6117 137.316 58.6059 137.2 58.6695C137.2 58.5365 137.224 58.4036 137.224 58.2938M137.01 58.184C136.808 58.0049 137.079 57.8373 137.189 57.7795C137.2 57.8778 137.224 58.0107 137.229 58.1956C137.16 58.1956 137.027 58.2072 137.004 58.1898M137.507 56.41C137.547 56.2829 137.541 56.3695 137.593 56.1384C137.431 56.3638 137.154 56.8203 137.154 56.8203C137.154 56.8203 137.252 56.6122 137.426 56.3002C137.46 56.2424 137.524 56.1788 137.57 56.0979C137.749 55.7917 138.044 55.5894 138.159 55.4738C138.194 55.4392 138.217 55.4218 138.217 55.4218L138.529 55.1502L138.223 55.4681L138.87 54.9306L137.957 55.809C137.605 56.1442 137.501 56.41 137.501 56.41M151.71 54.9422C151.999 54.9422 152.258 54.9306 152.478 54.9018C152.651 55.052 152.98 55.1907 153.287 55.312C153.281 55.5779 153.339 56.6527 153.339 56.6527C153.339 56.6527 152.559 56.4389 152.484 56.4215C151.248 56.1095 150.838 54.9075 150.838 54.9075H150.826C150.924 54.9075 151.017 54.9075 151.092 54.9018C151.294 54.9249 151.479 54.9422 151.652 54.9422C151.941 55.2369 152.484 55.7801 152.761 56.0633C152.455 55.6125 151.958 55.0347 151.71 54.9422ZM149.388 55.4912C148.937 55.1618 148.747 55.052 148.354 54.9711C148.354 54.9364 148.36 54.9018 148.365 54.8729C148.654 54.8035 148.937 54.7342 149.266 54.6533C149.55 54.7515 150.052 54.844 150.491 54.8844C150.589 55.0809 151.282 56.3464 152.876 56.6411C152.975 56.6585 153.587 56.9358 153.587 56.9358C153.489 56.5198 153.489 56.2829 153.489 56.1499C153.616 56.2308 153.882 56.41 154.297 56.514C154.632 56.8607 155.418 57.2132 155.557 57.2074C155.227 57.0745 154.788 56.7625 154.494 56.5487C154.829 56.6007 155.245 56.6007 155.759 56.462C156.036 56.9243 156.787 57.3866 156.787 57.3866C156.573 57.5888 156.001 57.9587 154.765 57.7217C152.888 57.3577 152.432 56.618 152.432 56.618L152.386 56.514C151.271 57.5195 149.601 55.6588 149.388 55.4912ZM151.496 57.6582C151.565 57.716 151.097 57.8373 150.543 57.8893C150.272 57.9124 149.867 57.8026 149.688 57.7564C149.261 57.6408 148.77 57.2999 148.77 57.2999C148.054 56.8318 148.371 56.2597 148.4 56.2251C148.741 56.2771 149.861 57.1092 150.277 57.1959C150.087 57.1208 148.608 56.2424 148.596 55.8263C148.735 55.913 148.799 55.9477 148.891 55.9997C148.96 55.861 149.018 55.7339 149.093 55.5894C150 55.7974 151.502 57.6582 151.502 57.6582M160.408 58.2765C160.72 58.3632 160.992 58.4325 161.246 58.5019C161.292 58.5828 161.356 58.7677 161.153 58.9988L161.327 59.2935C161.327 59.2935 160.934 59.2647 160.905 59.2762C160.686 59.3629 160.605 59.5709 159.987 59.5594C159.952 59.438 159.883 59.2935 159.761 59.126C159.79 59.3224 159.987 59.5478 159.854 59.7385C159.831 59.7674 159.889 59.9119 159.889 59.9119C159.889 59.9119 159.542 59.9985 159.38 60.0217C158.849 60.0563 158.67 60.0737 158.531 60.0563C158.462 60.0506 158.352 59.987 158.312 59.9292C158.237 59.831 158.196 59.7096 158.144 59.594C158.15 60.0101 158.427 60.4724 158.791 60.5475C158.445 61.5241 158.202 61.6512 158.196 61.6744C157.636 61.605 156.954 61.3739 156.694 61.1658C156.585 61.0734 156.4 60.9347 156.331 60.8596C156.146 60.6573 155.99 60.5533 155.892 60.4551C156.146 60.8942 156.354 61.2352 156.544 61.8015C156.631 62.1598 156.521 62.4314 156.44 62.6105C156.394 62.7087 156.331 63.0728 156.331 63.0728C156.331 63.0728 155.996 62.8474 155.897 62.8128C155.47 62.6625 155.112 62.4487 154.991 62.2638C154.921 62.1598 154.58 61.7899 154.471 61.5415C154.494 61.553 154.788 61.6859 154.979 61.6628C155.06 61.6512 155.279 62.0153 155.279 62.0153C155.279 62.0153 155.245 61.6859 155.343 61.5646C155.533 61.3392 155.545 61.2063 155.568 61.1832L156.146 62.4314C156.146 62.4314 156.03 61.6339 155.695 61.056C155.632 60.9462 155.978 60.2875 155.383 59.6114C155.747 60.5013 155.406 61.3045 155.308 61.4317C155.285 61.4663 155.181 61.7437 155.181 61.7437C155.181 61.7437 154.996 61.5183 154.904 61.5183C154.881 61.5183 154.858 61.5183 154.835 61.5183C153.864 60.8422 153.876 60.2701 153.933 60.195C153.985 60.1257 154.823 60.0621 155.037 61.0214C155.037 61.0214 155.135 60.5013 154.609 60.195C154.858 60.2297 155.326 60.3222 155.326 60.3222C155.326 60.3222 155.256 60.0679 155.25 60.0159C155.198 59.6287 155.441 59.5189 155.435 59.5247C155.811 59.646 156.602 59.7212 156.839 59.7616C157.029 59.9985 157.336 60.4031 157.93 60.9867L156.92 59.7732C156.897 59.7558 157.18 59.7732 157.457 59.7385C157.676 59.7096 157.977 59.6287 157.977 59.6287C157.977 59.6287 157.959 58.9757 157.965 58.7966C157.971 58.4845 157.89 58.317 157.769 58.0685C157.734 58.0569 157.665 58.0222 157.474 57.976C157.815 58.5192 157.792 59.126 157.699 59.4438C157.555 59.5131 156.567 59.3976 155.909 59.3051C155.042 59.1838 153.922 58.4325 153.506 57.6062C153.506 57.5079 153.443 58.2765 153.443 58.2765C153.443 58.2765 152.923 58.2187 152.824 58.2129C152.322 58.1783 151.831 58.028 151.687 57.9471C151.681 57.9471 151.525 58.028 151.513 58.028C151.698 58.1263 151.918 58.1436 152.345 58.2592C152.466 58.4325 152.917 59.0104 153.674 59.2415C153.674 59.2415 152.969 58.8775 152.669 58.4614L152.57 58.3054C152.755 58.3401 153.622 58.4499 153.622 58.4499C153.622 58.4499 153.57 57.9933 153.558 57.9124C153.72 58.5308 154.338 58.9757 154.338 58.9757C154.65 59.1722 154.933 59.3167 155.216 59.4265C155.187 59.5131 155.141 59.646 155.129 59.7674C155.112 59.8888 155.175 60.1372 155.175 60.1372C155.175 60.1372 153.974 59.9176 153.824 59.9003C152.143 59.6865 151.144 58.6579 150.988 58.0107C150.988 58.6406 148.989 57.6871 148.903 57.6524C148.931 57.664 150 58.473 150.659 58.5308C150.774 58.5423 150.266 59.022 149.885 58.9757C149.313 58.9122 148.648 58.3285 148.677 58.1089C148.677 58.1089 148.533 58.2707 148.446 58.369C148.579 58.4383 148.7 58.4845 148.799 58.5597C148.862 58.6174 149.215 58.9988 149.249 59.5131C148.816 58.9295 148.377 59.0566 148.209 58.9873C148.279 59.0335 148.337 59.0855 148.4 59.1375C148.134 59.1375 148.054 59.126 148.042 59.1549C148.481 59.3976 148.544 59.7905 148.983 60.0332C150.023 60.6458 150.272 60.2008 150.243 60.247C150.312 60.2933 149.971 61.4143 147.586 59.438C147.21 59.126 146.823 59.1433 146.35 59.2358C146.436 59.0046 146.5 58.6983 146.5 58.6983C146.5 58.6983 147.545 58.8717 147.938 58.8197C147.459 58.7908 146.875 58.6059 146.581 58.3747C146.407 58.0569 146.477 57.8836 146.459 57.6813L146.65 57.5657C147.025 57.7795 147.788 58.2129 147.915 58.2996C147.557 58.0685 147.025 57.6062 147.077 57.5022C147.199 57.5599 147.291 57.6177 147.412 57.6755C147.436 57.5599 147.459 57.4617 147.482 57.3577H147.84C147.695 57.2652 147.597 57.2017 147.499 57.1439C147.499 57.1208 147.511 57.0919 147.516 57.0688C147.591 57.0919 148.215 57.4213 148.7 57.612C148.082 57.3692 148.048 57.1323 148.059 57.0919L149.856 57.9182C149.856 57.9182 150.352 58.0569 150.63 58.0049C150.832 57.9702 151.819 57.7622 151.808 57.7333C151.796 57.7044 151.456 57.3057 151.271 57.1554L151.207 57.063C151.652 57.063 152.126 56.8665 152.126 56.8665C152.183 56.8376 152.23 56.8029 152.27 56.774H152.264C152.57 57.0341 152.819 57.1786 153.633 57.5715C153.697 57.6004 154.303 57.8778 155.274 57.8778C155.389 57.8778 156.873 58.7677 156.873 58.7677L156.151 58.2014C156.151 58.2014 155.857 57.924 155.747 57.8604C156.273 57.7911 156.77 57.5484 157.001 57.427C157.001 57.427 157.682 57.5831 158.04 57.5022C158.063 57.5022 158.098 57.5022 158.133 57.4964C158.358 57.6755 159.12 58.1956 159.923 57.8835C159.923 57.8835 159.923 57.8836 159.935 57.8893C160.189 58.0165 160.31 58.3516 160.31 58.3516C160.264 58.7272 159.923 58.9122 159.744 58.9815C160.426 58.7446 160.489 58.4383 160.42 58.2303M154.453 66.0373C154.263 65.991 154.147 66.0141 153.893 65.9044C153.65 65.7137 153.697 65.5056 153.697 65.4536C153.598 65.4132 153.518 65.3669 153.483 65.3092C152.692 64.581 153.136 63.1421 153.171 62.911C153.171 62.8705 153.691 64.7775 154.361 65.3785C154.609 65.6039 154.061 65.5981 153.714 65.4652C154.199 65.9795 154.956 65.5692 154.5 64.7717C155.279 65.4132 154.794 66.0719 154.378 66.2742C154.5 66.1644 154.505 66.0719 154.453 66.043M154.719 64.7891C154.396 64.6735 154.257 64.5348 154.147 64.425C153.581 63.6796 153.893 63.5467 153.333 62.7839C153.402 62.807 153.448 62.8705 153.622 62.9226C153.65 62.9341 153.933 63.1826 153.933 63.1537C153.933 63.1306 153.91 62.7839 153.991 62.5527C154.575 63.1653 154.679 64.0032 154.679 64.0032C154.84 62.8763 154.24 62.6163 154.049 61.9864C154.066 62.0442 154.055 62.1135 154.032 62.1829V62.1655C154.014 62.2465 153.968 62.3274 153.853 62.4487C153.772 62.5354 153.789 62.8879 153.789 62.8879C153.789 62.8879 153.321 62.4314 153.183 62.3331C152.536 61.8766 152.634 61.0156 152.582 60.5533C152.449 59.4496 151.739 59.438 151.756 59.3802C151.767 59.3282 152.911 59.7269 153.437 61.2641C153.547 61.5877 153.425 61.894 153.425 61.894C153.425 61.894 153.674 61.4317 153.177 60.3568C152.853 59.7905 153.211 59.9581 153.385 60.0043C153.656 60.4551 154.014 60.9578 154.072 61.4952C154.124 61.946 154.32 62.2869 154.627 62.6683C155.112 63.2751 155.308 63.5524 155.36 63.8067C155.418 64.0898 155.308 64.3094 155.222 64.5464C155.193 64.6273 155.164 65.1185 155.164 65.1185C155.164 65.1185 154.788 64.818 154.725 64.7948M153.327 68.3545C151.981 68.1349 153.009 66.5805 152.98 66.2511C153.108 66.6267 152.778 67.5166 153.327 68.3545ZM149.694 62.9746C149.856 63.3733 150.312 63.6507 150.075 64.4655C149.937 64.2343 149.925 63.72 149.567 63.6449C149.561 63.4542 149.7 63.2057 149.694 62.9746ZM149.035 62.0037C148.966 61.8131 149.035 61.5299 148.955 61.3045C149.243 61.6512 149.792 61.7842 149.804 62.6625C149.596 62.4776 149.417 61.9749 149.035 62.0037ZM150.549 59.1317C150.549 58.7388 150.705 58.681 150.757 58.6463C150.872 58.5597 150.982 58.5308 150.988 58.525C151.149 58.8544 151.196 58.8775 151.415 59.0393C151.34 59.178 151.242 59.3282 151.219 59.6114C151.196 59.9061 151.461 60.3048 151.461 60.3048C151.461 60.3048 150.953 60.1026 150.67 60.0217C149.988 59.8252 149.417 59.3051 149.353 58.8717C149.353 58.8717 149.729 59.1029 150.046 59.0277C150.116 59.0104 150.375 58.9179 150.375 58.9179C150.375 58.9179 150.387 59.1606 150.474 59.3109C150.56 59.4554 150.936 59.8714 150.936 59.8714C150.936 59.8714 150.543 59.3224 150.543 59.126M152.38 63.7547C152.38 63.7547 152.091 63.2808 152.056 63.2462C151.947 63.1479 151.866 62.9283 151.871 62.9688C151.9 63.5178 151.727 63.9858 151.64 64.3499C151.479 64.2863 150.976 63.512 150.866 63.1595C150.647 62.4603 150.693 61.7553 150.272 61.2872C150.918 61.5588 150.947 62.8821 151.438 63.5524C151.681 63.0497 151.923 61.449 151.947 61.3508C151.97 61.3681 151.9 61.6455 151.9 62.0962C151.912 63.1884 152.484 62.4083 152.513 62.0384C152.518 61.9402 152.541 62.2811 152.438 62.7261C152.299 63.3328 152.38 63.7431 152.38 63.7431M152.409 66.985C151.606 67.8518 151.606 65.6501 151.502 65.0202C151.999 67.0774 152.449 66.9676 152.409 66.985ZM152.316 61.4952C151.635 61.3508 151.658 60.0679 151.427 59.5074C151.744 59.4207 151.889 59.9119 152.085 60.299C152.322 60.7671 152.513 61.0329 152.316 61.4952ZM150.739 61.1543C150.965 61.1947 151.184 61.2178 151.184 61.2178C151.184 61.2178 151.294 60.9 151.288 60.8249C151.277 60.6515 151.329 60.6169 151.242 60.2759C151.271 60.3337 151.427 60.4551 151.404 61.1716C151.404 61.2236 151.432 61.9113 151.432 61.9113C151.432 61.9113 151.236 61.4201 150.884 61.4085C150.116 61.3797 149.885 60.7267 149.885 60.7267C149.971 60.7613 150.052 60.6631 150.139 60.8365C150.214 60.9809 150.364 61.0792 150.739 61.1543ZM150.058 64.9624C150.427 65.4132 150.774 66.4707 150.404 66.9965C150.306 66.5053 149.954 65.6848 150.058 64.9624ZM150.439 64.0494C150.427 63.9916 150.468 63.928 150.485 63.8703C150.63 63.9165 150.809 63.928 150.901 64.0263C151.011 64.1245 151.161 64.4712 151.184 64.6215C151.196 64.6677 150.988 64.633 150.918 64.7024C150.849 64.766 150.82 65.0607 150.734 65.1589C150.664 64.8989 150.503 64.3268 150.439 64.0436M151.022 68.2736C151.005 68.0078 150.965 67.1988 150.942 66.9387C150.913 66.5978 150.895 66.0141 150.82 65.4941C151.092 65.5519 151.825 66.985 151.022 68.2794M151.854 69.7009C151.086 69.9841 151.028 68.9902 150.999 68.5105C151.097 69.7009 151.895 69.6952 151.854 69.7009ZM151.802 68.0598C151.802 68.0598 151.9 68.8515 152.432 69.5796C152.432 69.5796 151.675 69.5449 151.802 68.0598ZM152.166 65.7252C152.258 65.2803 152.357 64.9913 151.999 64.7139C151.981 64.7024 152.12 64.2863 152.12 64.1592C152.27 64.2285 152.282 64.3037 152.362 64.3961C152.715 64.818 153.119 65.8408 152.541 66.5111C152.461 66.2106 152.126 65.9217 152.16 65.731M154.962 62.3794C155.308 62.7376 155.938 63.2288 156.735 63.1768L155.326 64.6793C155.892 63.6507 155.135 62.6625 154.962 62.3794ZM146.373 59.935C146.69 60.0621 145.408 59.9697 145.154 59.4669C145.293 59.3629 145.593 59.1606 145.593 59.1606C145.593 59.1606 146.546 59.3282 146.887 59.23C146.257 59.4322 146.147 59.3745 146.124 59.5016C146.078 59.7212 146.153 59.8483 146.367 59.935M144.975 56.254C144.975 56.254 144.981 56.2135 144.975 56.1846C144.842 56.202 144.651 56.1499 144.651 56.1384C144.651 56.1268 144.651 56.1153 144.651 56.0979C144.605 56.0979 144.571 56.0922 144.559 56.0922C144.42 56.0806 144.276 56.254 144.132 56.0922C144.091 56.1557 144.033 56.2135 143.999 56.2829C143.883 56.4793 143.837 56.6931 143.589 56.4967C143.675 56.3638 143.722 56.2251 143.808 56.0979C143.387 56.0228 143.144 56.6585 143.144 56.6585L143.04 56.5891C143.04 56.5891 143.017 56.3638 143.207 56.0286C143.288 55.8841 143.508 55.6819 143.508 55.6819L143.462 55.5085C143.462 55.5085 142.682 55.7859 142.711 56.5949C142.717 56.7452 142.844 56.9936 142.913 57.0688C143.132 57.3172 143.508 57.4328 143.733 57.3346C144.403 57.0399 144.42 57.5137 144.42 57.5137C144.42 57.5137 143.086 58.3574 142.33 57.2074C142.075 56.8261 142.433 56.6931 142.514 56.3464C142.682 55.5952 143.589 55.1156 144.161 55.0058C144.161 55.0058 144.392 54.9364 144.548 54.9075C145.218 54.7804 145.83 54.7226 145.922 54.7168C146.199 54.607 146.488 54.5146 146.771 54.4337C146.817 54.4221 147.303 54.3412 147.412 54.4857C146.783 54.3643 146.263 54.9191 145.974 54.9595C145.974 54.9595 145.252 54.8671 144.934 55.1387C145.038 55.3814 145.466 55.3814 145.772 55.2716C146.072 55.1618 146.835 54.9884 147.037 54.9711C147.083 54.9653 147.649 54.8382 147.678 54.8786C147.695 54.9075 147.199 55.156 147.176 55.1734C147.095 55.2254 146.985 55.312 146.91 55.2889C146.806 55.26 146.714 55.208 146.627 55.1618C146.506 55.2543 146.159 55.3294 146.142 55.3294C145.824 55.3929 145.841 55.6299 145.628 55.6183C145.189 55.5894 146.361 55.8437 146.713 55.9477C147.066 56.0517 147.649 56.358 148.013 56.4504C147.672 56.8376 147.037 56.774 146.465 56.5949C146.517 56.4851 146.569 56.3753 146.633 56.2308C146.188 56.2135 145.864 55.9766 145.425 55.9593C145.425 55.9593 145.246 57.0168 146.43 56.9532C146.558 56.9474 146.962 57.0688 147.112 57.1323C146.696 57.0803 146.534 57.1439 146.39 57.219L146.124 57.6004C146.003 57.375 145.968 57.0341 145.593 57.115C145.622 57.1786 145.668 57.2421 145.697 57.3057C145.633 57.3288 145.553 57.3866 145.518 57.375C145.183 57.2826 145.373 56.9185 145.293 56.8029C145.252 56.8203 145.189 57.167 145.062 57.219C145.044 56.9936 145.033 56.7798 145.015 56.5718C144.883 56.5833 144.784 56.5949 144.663 56.6007C144.686 56.5024 144.963 56.4042 145.148 56.3118C145.079 56.2944 144.998 56.2713 144.975 56.2655M143.196 57.976C143.086 58.1089 143.063 58.3285 142.913 58.5134C142.786 58.3285 142.647 58.2649 142.595 58.1147C142.578 58.0685 142.647 57.7564 142.699 57.768C142.838 57.8778 142.959 57.9356 143.196 57.976ZM147.17 55.8668C147.522 55.8784 147.99 55.6588 148.371 55.8263C148.371 55.8668 148.227 56.0055 148.227 56.0459C148.071 56.1037 147.915 56.1557 147.822 56.1904C147.574 56.1095 147.372 56.0402 147.17 55.9708V55.8668ZM146.662 55.6472C146.806 55.5721 147.083 55.3987 147.199 55.2947C147.199 55.2947 147.326 55.5721 147.447 55.4565C147.482 55.4045 147.799 55.5663 147.828 55.4912C147.799 55.5894 147.528 55.6068 147.499 55.6414C147.378 55.8263 147.129 55.7281 146.662 55.6472ZM147.655 55.364C147.95 55.0751 148.602 55.0462 148.868 55.6241C148.487 55.5894 148.1 55.4045 147.655 55.364ZM145.177 57.5253C145.443 57.5484 146.315 57.6986 146.361 58.0627C145.703 58.3921 145.241 58.184 145.056 58.0858C144.969 58.0396 145.46 57.8662 145.177 57.5195M148.776 60.5128C148.048 60.5938 147.21 60.1257 146.598 59.8136C146.373 59.6981 146.742 59.3282 148.776 60.5128ZM147.089 54.7746C147.499 54.5955 148.648 54.2719 149.018 54.295C148.776 54.6937 147.36 54.7862 147.089 54.7746ZM144.871 54.6013C144.028 54.8093 141.908 55.7397 141.33 55.9939C141.278 55.9708 142.792 54.8729 143.872 54.5377C144.698 54.2777 147.077 53.9887 148.267 53.6998C148.209 53.7518 145.974 54.3181 144.865 54.5955M141.665 58.3979C141.804 58.4036 141.943 58.5481 142.07 58.6232C141.85 58.8313 141.353 58.681 141.013 59.0508C140.966 58.9584 141.018 58.6117 140.961 58.5019C141.151 58.4441 141.486 58.3863 141.66 58.3979M146.448 61.6628C146.962 61.657 147.285 61.8997 147.28 62.258C146.979 62.0442 146.713 61.8535 146.448 61.6628ZM148.157 63.7547C147.932 63.46 147.389 62.807 147.193 62.5469C148.134 62.6683 148.365 63.2404 148.157 63.7547ZM148.475 62.3736C148.152 62.3909 148.169 61.6975 147.684 61.9749C147.707 61.7957 147.776 61.6917 147.805 61.4894C148.25 61.7264 148.579 62.0211 148.481 62.3736M148.504 63.4426C148.579 63.2751 148.66 63.0844 148.747 62.8994C149.151 63.171 149.347 63.7489 149.145 64.061C148.833 63.9801 149.053 63.3213 148.51 63.4426M149.012 64.7775C149.064 64.7775 149.498 64.9509 149.555 64.9509C149.555 65.2803 149.642 65.6674 149.838 66.332C149.809 66.332 149.601 66.28 149.573 66.28C149.544 66.1991 149.359 65.4767 149.012 64.7775ZM150 68.106C149.682 67.7478 149.948 67.1121 149.717 66.7307C150.225 66.9272 150.139 67.1121 150 68.106ZM150.225 68.5799C150.479 68.9959 150.578 69.412 150.618 69.7472C150.705 69.9321 150.866 70.1748 151.138 70.2095C151.109 70.0766 151.08 69.9148 151.063 69.7356C151.334 70.6833 151.947 70.822 151.947 70.822C151.947 70.822 151.409 71.3825 151.149 70.2499C151.04 70.3077 150.786 70.3828 150.635 69.961C150.647 70.2788 150.607 70.4811 150.607 70.4811C150.37 69.5334 150.231 68.5799 150.231 68.5799M150.618 70.6891C150.618 70.6891 150.786 71.7061 151.398 72.284C151.398 72.284 150.583 72.2493 150.618 70.6891ZM151.144 73.3242C151.409 72.0471 153.425 68.0771 154.205 66.9792C154.066 66.9907 153.98 66.9792 153.83 66.9792C153.541 66.9792 153.287 66.7134 153.287 66.3666C153.287 66.1875 152.934 65.3438 152.969 65.1531C153.108 65.2976 153.697 66.0662 153.876 66.2857C154.043 66.488 154.037 66.8347 154.286 66.8694C155.239 65.4941 156.388 64.0321 157.751 62.6394C157.116 63.2288 156.735 63.1768 156.504 62.807C156.481 62.7665 156.775 62.4776 156.764 62.0673C156.746 61.7437 156.585 61.4317 156.556 61.241C156.712 61.3508 156.856 61.4259 157.006 61.4837C157.318 61.8131 157.405 62.2811 157.428 62.4371C157.393 61.946 157.232 61.6628 157.087 61.5126C157.434 61.5935 158.462 61.8362 158.462 61.8362C158.462 61.8362 158.381 61.6166 158.497 61.4259C158.739 61.0272 158.837 60.6631 158.872 60.5186C158.959 60.5186 159.051 60.5013 159.143 60.4551C158.993 60.4262 158.86 60.4031 158.791 60.2586C158.987 60.2239 159.34 60.1199 159.692 60.0332C159.975 59.9581 160.224 59.9523 160.224 59.9523C160.224 59.9523 159.987 59.8541 159.998 59.8136C160.021 59.7443 160.027 59.6692 160.01 59.5767C160.125 59.6403 160.397 59.6923 160.963 59.3687H161.598C161.598 59.3687 161.257 59.0508 161.315 58.9757C161.408 58.8544 161.413 58.8255 161.413 58.6174C161.413 58.577 161.402 58.5423 161.39 58.5134C161.569 58.6521 161.864 58.8255 162.713 58.3863C162.494 58.2707 162.251 58.2014 162.107 58.132C162.153 58.7388 161.621 58.3112 161.333 58.4325C161.073 58.2534 160.83 57.9818 160.397 58.1898C160.374 58.132 160.351 58.0858 160.328 58.0511C160.247 57.9298 160.172 57.8547 160.114 57.8084C160.235 57.7969 160.426 57.7853 160.426 57.7853C160.426 57.7853 160.299 57.5368 160.264 57.4675C160.027 56.9532 159.941 56.67 158.895 56.2829C158.86 56.2251 158.774 56.0633 158.78 56.0055C158.837 55.3814 158.029 55.0115 157.89 54.9422C157.873 54.9306 158.739 55.4507 158.681 55.8668C158.67 55.9419 158.728 56.202 158.728 56.202C158.728 56.202 158.121 56.2597 157.954 56.2597C156.908 56.2308 155.245 54.8729 154.863 54.7168C154.863 54.7168 154.863 54.7168 154.858 54.7168C155.487 55.2831 155.77 55.549 156.319 55.9304C157.053 56.358 157.284 56.3753 158.479 56.3753C159.068 56.1846 160.004 56.9243 160.131 57.4733C160.143 57.5253 160.235 57.7044 160.235 57.7044C160.235 57.7044 159.935 57.716 159.871 57.7564C159.467 57.8315 159.369 57.8778 158.843 57.7333C158.497 57.6408 158.346 57.5426 158.283 57.4733C158.491 57.4733 158.733 57.4733 158.733 57.4733C158.733 57.4733 158.497 56.3753 158.329 56.4389C158.289 56.4562 158.473 56.6122 158.52 56.9879C158.531 57.0688 158.572 57.323 158.572 57.323C158.572 57.323 158.011 57.323 157.85 57.375C157.659 57.4328 157.445 57.3981 157.191 57.3057C156.925 57.2074 156.221 56.8318 156.001 56.3175C156.313 56.1904 156.169 56.202 156.175 56.1615C154.823 56.7163 153.5 55.8321 153.5 55.8321C153.5 55.8321 153.489 55.5027 153.523 55.3409C154.378 55.6472 155.372 55.8841 155.372 55.8841C155.372 55.8841 153.581 55.3525 152.859 54.7862C153.281 54.6995 153.512 54.5897 153.57 54.6186C153.83 54.7342 154.355 54.8613 154.852 54.7226C154.852 54.7226 154.852 54.7168 154.846 54.7111C154.846 54.7111 154.858 54.7111 154.863 54.7168C155.083 54.6533 155.302 54.5377 155.481 54.3412C154.222 55.156 152.732 53.7865 152.565 53.6998C152.524 53.6767 152.149 53.6016 152.114 53.5727C152.276 53.7056 152.726 54.1332 153.229 54.4163C153.339 54.4799 149.474 55.2658 149.885 53.8674C149.994 53.6593 150.97 53.9136 152.328 54.2603C151.744 54.0927 149.55 53.382 148.908 53.4166C149.619 52.989 150.762 53.0526 151.051 53.0468C151.357 53.0468 151.681 53.0121 152.004 52.9717C152.126 53.0526 152.495 53.2779 153.142 53.4282C153.396 53.486 153.656 53.5322 153.951 53.4975C155.164 53.8674 155.019 54.4163 155.019 54.4163L155.146 54.2892C155.435 53.8905 154.673 53.5784 154.228 53.4397C154.384 53.3935 154.557 53.3242 154.742 53.2144C154.806 53.1797 155.123 53.0526 155.123 53.0526C155.123 53.0526 154.413 52.5036 154.037 52.3591L154.811 52.9948C154.811 52.9948 154.482 53.1681 154.424 53.1855C153.985 53.33 153.801 53.4455 153.419 53.3646C152.64 53.197 152.38 53.0121 152.305 52.937C152.819 52.8619 153.298 52.781 153.627 52.7463C152.507 52.7694 151.438 53.0526 150.635 52.7463C151.022 52.7116 151.288 52.6134 151.606 52.5267C153.847 51.92 154.91 51.9662 154.91 51.9662C154.91 51.9662 154.297 51.8102 154.292 51.7755C154.292 51.7177 154.655 51.579 155.089 51.6252C154.806 51.5501 154.448 51.4808 154.095 51.4634C153.991 51.4634 153.882 51.2554 153.864 51.2439C153.754 51.1861 154.655 51.1398 154.621 51.1398C153.466 51.0185 152.79 51.1398 152.651 51.1514C152.778 51.1514 153.385 51.1803 153.639 51.3363C153.806 51.4403 154.24 51.8853 154.24 51.8853C154.24 51.8853 153.882 51.9026 153.425 52.0066C151.75 52.3822 150.838 52.3071 150.543 52.4227C151.317 51.7928 151.848 51.267 152.409 51.1629C152.195 51.1918 151.744 51.267 151.317 51.3652C150.994 51.4519 150.895 51.5097 150.768 51.579C150.705 51.6137 150.647 51.6715 150.583 51.7119C150.635 51.7061 151.103 51.735 151.184 51.7235C150.208 52.2378 148.579 52.9659 148.412 53.0295C148.4 53.0006 150.329 51.8448 150.375 51.7697C150.399 51.7235 150.208 51.7061 149.694 51.8795C149.07 52.0875 148.706 52.5152 146.737 52.9081C146.754 52.8792 148.296 51.735 148.412 51.6599C148.377 51.7466 148.019 52.1858 147.95 52.3418C148.96 51.5328 151.363 50.7816 151.363 50.7816C151.363 50.7816 150.647 50.9954 150.023 51.1572C149.682 51.2034 149.053 51.3248 149.249 51.2265C149.844 50.926 150.26 50.3539 150.208 50.4002C149.804 50.7642 148.955 51.1745 148.868 51.2207C148.157 51.5617 147.516 52.2898 147.268 52.3996C147.054 52.284 147.187 52.0066 147.482 51.6137C147.332 51.5906 147.158 51.9604 146.777 51.9777C146.864 51.8679 147.632 50.7527 147.753 50.5331C147.742 50.5389 147.736 50.5504 147.73 50.5504C147.395 51.0185 147.124 51.0647 146.69 51.6021C146.465 51.8853 146.558 52.1049 146.13 52.5267C145.876 52.7463 145.512 53.0641 145.246 53.093C145.246 53.0757 145.27 53.0063 145.304 52.9197C145.275 52.9543 145.264 52.9717 145.264 52.9717C145.293 52.9139 145.321 52.8561 145.35 52.7983C145.454 52.5267 145.599 52.1627 145.599 52.1453C145.015 52.2609 144.669 52.9775 144.068 53.4109C144.097 52.937 144.166 52.6538 144.253 52.4054C144.016 52.6885 143.768 53.1797 143.219 53.5033C143.317 53.2722 143.375 53.0352 143.392 52.9775C143.173 53.4397 142.769 53.8096 142.318 54.2603C142.462 53.7229 142.589 53.2317 142.537 53.3068C141.862 54.2488 141.18 54.5204 141.001 54.7226C140.972 54.6995 141.301 53.9656 141.804 53.1104C142.237 52.4169 142.89 51.5097 143.392 51.0474C143.45 51.0763 142.468 52.6654 141.983 53.4744C141.948 53.538 142.901 52.781 143.132 52.3187C143.381 51.9142 143.421 51.7408 143.849 51.2901C143.71 51.2612 143.109 51.9951 142.953 52.0875C143.098 51.7061 144.114 50.1921 144.218 50.0361C144.42 49.7298 144.813 49.2675 145.177 49.0942C145.72 48.8399 145.807 48.8804 145.807 48.8804C145.743 49.1 144.646 49.9494 144.646 49.9494C145.483 49.4756 145.703 49.3427 145.876 49.1809C145.945 49.0942 146.257 48.7532 146.257 48.7532C146.257 48.7532 145.142 48.5048 144.253 49.8339C144.253 49.8339 144.039 50.065 144.045 50.065C143.976 50.1343 142.942 51.1341 142.595 51.2265C142.676 51.1225 143.652 49.9205 144.195 49.2675C144.883 48.4412 145.437 48.1985 145.94 47.7824C146.633 47.2103 146.991 46.985 147.667 46.8289C147.17 47.141 146.569 47.794 146.575 47.7882C146.269 47.9673 146.107 48.1234 146.107 48.1234C147.447 47.4415 148.36 47.5571 148.36 47.5571C148.36 47.5571 148.152 47.7015 148.007 47.7998C147.851 47.8864 147.724 48.002 147.187 48.1696C147.089 48.1812 146.985 48.2043 146.875 48.2505C146.581 48.3372 145.957 48.7012 146.448 48.4932C146.448 48.4932 146.679 48.4123 146.898 48.3487C147.251 48.2852 147.222 48.4759 147.222 48.4759C147.141 48.7128 146.338 49.152 146.338 49.152C146.719 48.9902 146.916 48.8861 147.031 48.7995C147.014 48.8052 147.014 48.7995 147.031 48.7995C147.222 48.7301 147.551 48.6319 147.903 48.5972C148.412 48.5452 148.828 48.5972 148.828 48.5972C148.648 48.8399 147.771 49.4062 147.771 49.4062C148.631 49.2733 149.093 48.6146 149.093 48.6146C149.093 48.6146 148.66 48.4585 148.51 48.4181C148.406 48.4123 147.898 48.2852 147.187 48.6608C147.222 48.6261 147.724 48.2563 147.724 48.2563C147.724 48.2563 147.58 48.1985 147.586 48.1985C147.817 48.1291 148.377 47.7882 148.435 47.7593C148.689 47.6148 149.29 47.3895 149.971 47.401C150.22 47.4126 150.936 47.4762 150.936 47.4762C150.814 47.6322 149.018 48.0367 149.018 48.0367C149.463 48.0078 149.786 48.002 150.017 47.9789C149.913 48.0251 149.815 48.0829 149.717 48.158C149.717 48.158 149.988 48.0193 150.427 47.9847C151.196 47.9269 151.363 48.4816 151.363 48.4816C151.23 48.6608 149.937 49.0017 149.937 49.0017C150.555 49.0133 150.907 48.9266 151.138 48.8341C150.93 48.8341 150.803 48.8341 150.803 48.8341C150.936 48.8341 151.057 48.8226 151.178 48.8168C151.311 48.759 151.398 48.707 151.484 48.6723C151.583 48.6146 151.987 48.3603 151.987 48.3603C151.386 48.0598 150.93 47.8807 150.526 47.8749C150.843 47.7535 151.329 47.4819 151.329 47.4819C151.329 47.4819 151.692 47.4357 151.808 47.4299C152.178 47.4126 152.293 47.5339 152.461 47.5224C152.547 47.5224 151.97 47.2739 151.964 47.2623C151.825 47.0312 152.264 46.8983 152.645 46.8232C152.796 46.8 152.98 46.7712 153.015 46.7654C153.598 46.748 153.853 47.0485 154.748 46.8694C154.661 46.6614 153.91 46.4533 153.922 46.4187C154.378 46.4475 155.666 46.8 156.388 47.0543C155.389 46.9387 154.101 47.0716 154.095 47.1179C154.69 47.0832 155.782 47.1179 156.51 47.2681C157.226 47.3953 157.769 47.742 157.757 47.7882C157.688 47.7882 157.197 47.7882 156.949 47.7478C156.648 47.6784 156.377 47.5802 156.042 47.5108C155.776 47.4588 155.071 47.4473 155.054 47.4877C155.609 47.5917 156.359 47.7362 156.937 47.794C157.162 47.8402 157.26 47.9153 157.364 47.9673C156.099 48.0945 154.315 47.5224 154.69 47.638C155.736 47.9731 155.343 48.2563 154.794 48.3487C154.788 48.3603 155.129 48.4007 155.279 48.447C155.637 48.5452 155.868 48.7417 155.868 48.7417C155.868 48.7417 155.481 48.3545 155.476 48.3372C155.453 48.1407 156.689 47.9096 157.988 48.2736C158.006 48.1465 158.04 48.0656 157.925 47.9558C159.068 48.2043 159.571 49.0306 159.565 49.0653C159.253 48.863 158.676 48.6839 158.352 48.6319C158.728 48.915 159.409 49.4178 159.409 49.4178C159.409 49.4178 159.958 49.3773 160.616 49.6432C160.957 49.7818 161.24 50.0246 161.396 50.3308C161.003 50.0361 160.853 50.0477 160.749 50.0361C161.073 50.3828 162.031 50.8509 162.332 51.3248C161.783 50.8856 160.241 50.8278 160.085 50.8625C161.823 51.267 162.107 51.4172 162.517 52.9254C162.551 52.388 162.286 51.6195 161.956 51.4114C162.984 51.8159 162.725 52.2089 162.725 52.2089C163.054 52.2725 163.539 52.8503 163.539 52.8503C163.539 52.8503 162.857 52.5209 162.725 52.7232C162.99 52.8619 163.083 53.1508 163.192 53.3646C163.221 53.4166 163.585 53.85 164.313 54.3412C163.891 54.3065 163.834 54.2256 163.747 54.2488C163.637 54.2777 163.631 54.3701 163.602 54.4163C164.174 54.9653 164.787 55.0115 165.064 55.8726C164.821 55.6819 163.868 55.4161 163.597 55.3063C165.098 56.0286 164.677 56.3984 166.011 57.2537C165.976 57.2595 165.358 57.3692 165.162 57.4906C165.353 57.4675 166.433 58.2823 165.699 58.3401C161.789 60.6111 156.908 64.7486 151.975 73.0352C151.796 73.3357 151.617 73.6651 151.461 73.9598C151.444 73.902 151.109 73.5842 151.184 73.3184M151.404 74.6995C151.415 74.659 151.427 74.6244 151.432 74.5839C152.033 73.4166 153.315 71.2323 155.707 68.158C155.707 68.158 163.013 59.4496 166.15 58.8833C166.271 58.9353 166.34 59.0393 166.583 59.5709L166.606 59.6172C166.675 59.7558 166.733 59.9985 166.756 60.0506C166.756 60.0506 166.756 60.0563 166.75 60.0621C164.983 60.6978 161.87 63.3328 158.878 66.7191C155.089 71.0069 151.623 76.0864 151.623 76.0864C151.623 76.0864 151.392 75.7628 151.311 75.1213C151.3 75.0231 151.357 74.8382 151.398 74.6995M167.27 61.8766C167.166 61.9344 167.062 61.9922 166.958 62.0673C166.866 62.1135 166.785 62.1655 166.693 62.2176C161.078 65.6328 156.856 71.475 154.32 74.503C153.581 75.4392 152.738 76.4273 151.923 77.5946C151.669 77.4733 151.508 77.4039 151.542 77.219C151.56 77.1497 151.646 76.9301 151.71 76.774L151.952 76.3869C160.455 63.9165 165.595 61.2525 166.854 60.7035C166.912 60.744 167.022 60.8365 167.103 60.9751C167.299 61.5241 167.27 61.7206 167.264 61.8766" fill="black"/>
<path d="M157.405 62.5181C157.405 62.5181 157.411 62.5585 157.411 62.5816C157.411 62.5816 157.411 62.5585 157.405 62.5181Z" fill="black"/>
<path d="M104.745 103.373C104.82 103.096 105.08 102.946 105.346 102.946H110.896C111.468 102.946 111.763 103.235 111.769 103.836V105.35C111.769 105.35 111.769 105.852 111.214 105.852C110.66 105.852 110.798 104.702 109.793 104.702H108.436C108.274 104.702 108.147 104.83 108.141 104.986V107.771C108.147 107.921 108.268 108.042 108.424 108.054H109.279C110.284 108.054 110.146 106.91 110.7 106.91C111.255 106.91 111.255 107.413 111.255 107.413V110.458C111.255 110.458 111.255 110.961 110.7 110.961C110.146 110.961 110.284 109.811 109.279 109.811H108.413C108.268 109.822 108.147 109.944 108.141 110.088V112.59C108.147 112.746 108.28 112.873 108.436 112.873H109.995C110.908 112.931 111.214 111.874 111.832 112.128C112.548 112.417 112.317 112.839 112.317 112.839L111.751 113.885L111.63 114.116C111.445 114.434 111.179 114.59 110.816 114.584H106.72H105.34C105.08 114.584 104.814 114.434 104.745 114.162C104.658 113.844 104.774 113.607 105.294 113.318C105.64 113.128 105.981 112.879 105.981 112.284V105.251C105.981 104.65 105.629 104.396 105.288 104.211C104.768 103.928 104.653 103.691 104.739 103.373" fill="black"/>
<path d="M115.142 103.373C115.217 103.102 115.471 102.951 115.731 102.946H121.83C122.408 102.946 122.703 103.235 122.708 103.836V105.35C122.708 105.35 122.708 105.852 122.16 105.852C121.611 105.852 121.744 104.702 120.739 104.702H118.833C118.671 104.702 118.538 104.83 118.532 104.986V107.777C118.538 107.927 118.659 108.048 118.815 108.06H119.676C120.681 108.06 120.542 106.91 121.097 106.91C121.651 106.91 121.651 107.413 121.651 107.413V110.464C121.651 110.464 121.651 110.966 121.097 110.966C120.542 110.966 120.681 109.817 119.676 109.817H118.815C118.665 109.828 118.544 109.944 118.538 110.1V112.359C118.561 112.85 118.833 113.093 119.127 113.266L119.225 113.324C119.739 113.613 119.861 113.85 119.768 114.168C119.693 114.439 119.433 114.59 119.168 114.59H117.215H117.111H115.731C115.465 114.59 115.205 114.439 115.136 114.168C115.049 113.85 115.165 113.613 115.679 113.324C116.026 113.133 116.372 112.885 116.372 112.29V107.574V105.257C116.372 104.772 116.141 104.517 115.875 104.338C115.823 104.298 115.76 104.257 115.685 104.217C115.171 103.934 115.049 103.697 115.142 103.379" fill="black"/>
<path d="M172.994 106.003V106.401C172.994 106.569 173.133 106.702 173.3 106.702H173.82C174.046 106.713 174.242 106.702 174.409 106.702C175.674 106.702 177.165 106.17 177.141 104.159C177.124 102.27 176.177 101.195 174.531 101.195C174.392 101.195 173.774 101.206 173.266 101.218C173.11 101.235 172.988 101.362 172.988 101.518V106.003H172.994ZM175.282 99.5247H175.749C176.57 99.5247 177.234 99.7038 177.759 100.033C178.863 100.721 179.336 102.05 179.336 103.703C179.336 104.252 179.221 104.754 179.036 105.199C178.447 106.679 177.141 107.551 176.83 107.719C176.795 107.742 176.783 107.759 176.783 107.777C176.783 108.048 176.806 108.32 176.858 108.586C177.182 110.435 178.661 112.92 180.416 113.659C180.896 113.885 181.179 113.966 181.225 114.312C181.225 114.341 181.214 114.411 181.185 114.486C181.104 114.688 180.879 114.988 180.416 114.988C178.406 114.988 176.731 113.272 175.703 111.614C175.045 110.62 174.519 109.493 174.167 108.406C174.144 108.337 174.092 108.285 174.017 108.285C173.739 108.308 173.589 108.308 173.324 108.308C173.133 108.32 173.012 108.441 173.006 108.586V112.342C173.029 112.816 173.283 113.058 173.566 113.232C173.607 113.255 173.647 113.284 173.693 113.307C174.207 113.596 174.329 113.833 174.236 114.15C174.161 114.422 173.901 114.572 173.635 114.572H171.36H171.25H169.869C169.604 114.572 169.344 114.422 169.269 114.15C169.182 113.827 169.298 113.596 169.817 113.307C170.164 113.116 170.511 112.868 170.511 112.267V101.83C170.511 100.657 169.165 100.819 169.165 100.172C169.165 99.5247 169.748 99.5247 169.748 99.5247H175.27H175.282Z" fill="black"/>
<path d="M98.328 112.382C98.3627 112.943 98.7381 113.168 99.0731 113.353C99.541 113.625 99.6449 113.856 99.5641 114.162C99.489 114.434 99.2291 114.584 98.9634 114.584H95.4285C95.1685 114.584 94.9028 114.434 94.8335 114.162C94.7527 113.862 94.8509 113.63 95.3129 113.359C95.6768 113.162 96.0811 112.925 96.0811 112.284V108.17V104.991C96.0696 104.835 95.9367 104.708 95.7808 104.708H94.3021C93.2625 104.714 93.2163 105.367 92.6387 105.367C92.0668 105.367 92.2055 104.887 92.2055 104.887L92.6271 103.408C92.7426 102.992 93.3144 102.946 93.4935 102.946H100.627H101.684C101.684 102.946 102.377 102.911 102.296 103.408L101.921 104.887C101.921 104.887 101.851 105.367 101.389 105.367C100.719 105.367 101.36 104.714 100.321 104.708H99.4601H98.6284C98.4666 104.708 98.3396 104.83 98.328 104.986V112.382Z" fill="black"/>
<path d="M185.626 102.946H186.914C187.18 102.946 187.44 103.096 187.515 103.373C187.602 103.691 187.48 103.928 186.961 104.211C186.886 104.257 186.822 104.298 186.764 104.338C186.499 104.517 186.279 104.772 186.279 105.251V112.382C186.314 112.839 186.562 113.07 186.839 113.243C186.88 113.266 186.92 113.295 186.966 113.318C187.486 113.607 187.602 113.844 187.515 114.162C187.44 114.434 187.18 114.584 186.914 114.584H185.291H184.933H183.553C183.287 114.584 183.027 114.434 182.952 114.162C182.871 113.844 182.987 113.607 183.507 113.318C183.847 113.128 184.2 112.879 184.2 112.284V112.226C184.2 107.511 184.2 105.153 184.2 105.153C184.171 104.691 183.911 104.454 183.628 104.286L183.512 104.211C182.993 103.928 182.877 103.691 182.964 103.373C183.039 103.096 183.299 102.946 183.564 102.946H185.632H185.626Z" fill="black"/>
<path d="M198.484 103.749C198.64 103.841 198.773 103.986 198.836 104.2L199.414 105.939C199.414 105.939 199.604 106.598 198.813 106.592C198.027 106.592 197.744 105.829 196.687 105.217L196.248 104.974C195.584 104.656 194.897 104.489 194.296 104.489C192.748 104.489 191.593 106.037 191.593 107.754C191.593 110.874 194.423 112.689 196.462 112.689C197.461 112.689 198.328 112.151 198.767 111.175C198.894 110.822 199.373 111.065 199.437 111.643V112.972C199.437 113.029 199.414 113.076 199.373 113.11C198.322 114.052 196.947 114.601 195.457 114.601C191.778 114.601 189.681 111.787 189.681 108.678C189.681 105.39 192.35 102.946 195.503 102.946C196.601 102.946 197.606 103.24 198.478 103.743L198.484 103.749Z" fill="black"/>
<path d="M210.815 103.749C210.971 103.841 211.098 103.986 211.162 104.2L211.74 105.939C211.74 105.939 211.93 106.598 211.145 106.592C210.359 106.592 210.065 105.829 209.013 105.217L208.574 104.974C207.91 104.656 207.217 104.489 206.616 104.489C205.074 104.489 203.913 106.037 203.913 107.754C203.913 110.874 206.743 112.689 208.788 112.689C209.787 112.689 210.648 112.151 211.093 111.175C211.214 110.822 211.693 111.065 211.757 111.643V112.972C211.757 113.029 211.734 113.076 211.693 113.11C210.648 114.052 209.268 114.601 207.777 114.601C204.104 114.601 202.007 111.787 202.007 108.678C202.007 105.39 204.67 102.946 207.835 102.946C208.927 102.946 209.938 103.24 210.798 103.743H210.81L210.815 103.749Z" fill="black"/>
<path d="M89.5948 101.096C89.7045 101.212 89.7738 101.362 89.7738 101.553V103.356C89.7738 103.356 89.7738 103.945 89.1269 103.755C88.48 103.57 88.4222 102.871 87.7002 102.119L87.3941 101.819C86.9262 101.397 86.3949 101.096 85.8981 100.952C85.5689 100.86 85.2397 100.836 84.922 100.888C83.9285 101.091 83.2181 101.934 83.3856 102.894C83.992 106.234 90.5189 105.783 90.5189 110.487C90.5189 113.128 87.9544 114.584 85.7595 114.584C84.4772 114.584 80.9885 113.838 80.9885 112.22C80.9885 112.186 81.5084 110.215 82.0686 109.782C82.808 109.221 83.5242 109.984 83.5242 110.221C83.5242 110.458 83.2354 111.232 83.2354 111.475C83.2354 113.151 85.5342 113.122 85.8461 113.122C86.932 113.122 88.4049 112.405 88.4049 111.302C88.4049 108.06 81.6354 108.435 81.5603 103.206C81.5315 101.12 82.7964 100.103 84.483 99.75C84.9624 99.646 85.4822 99.594 85.9848 99.5998H86.1523C86.5508 99.6171 86.9493 99.6749 87.3075 99.7789C88.2143 100.027 88.9825 100.472 89.5717 101.091L89.5948 101.096Z" fill="black"/>
<path d="M147.291 102.946H148.579C148.845 102.946 149.099 103.096 149.174 103.373C149.267 103.691 149.145 103.928 148.625 104.211C148.573 104.24 148.521 104.275 148.475 104.304C148.192 104.483 147.938 104.743 147.938 105.251V113.862C147.938 114.688 146.65 114.74 146.263 114.341L146.165 114.255L140.1 107.147C139.898 106.916 139.742 107.21 139.742 107.378V112.382C139.788 112.949 140.158 113.174 140.499 113.359C140.961 113.63 141.07 113.862 140.984 114.162C140.903 114.434 140.649 114.584 140.383 114.584H137.351C137.085 114.584 136.831 114.434 136.75 114.162C136.669 113.844 136.785 113.607 137.304 113.318C137.611 113.151 137.928 112.925 137.986 112.44V105.147C137.951 104.697 137.703 104.46 137.432 104.286C137.391 104.263 137.351 104.24 137.299 104.205C136.785 103.922 136.663 103.685 136.75 103.368C136.825 103.09 137.085 102.94 137.351 102.94H140.655C140.655 102.94 141.111 102.94 141.111 103.443C141.111 103.917 140.568 103.882 141.001 104.437L141.429 104.951L145.841 110.146C146.038 110.36 146.194 110.065 146.188 109.903V105.153C146.159 104.702 145.916 104.471 145.651 104.304C145.605 104.275 145.564 104.246 145.506 104.211C144.992 103.928 144.871 103.691 144.963 103.373C145.039 103.096 145.298 102.946 145.564 102.946H147.297H147.291Z" fill="black"/>
<path d="M217.082 102.946H218.365C218.63 102.946 218.89 103.096 218.965 103.373C219.052 103.691 218.936 103.928 218.417 104.211C218.336 104.257 218.278 104.298 218.214 104.338C217.954 104.517 217.729 104.772 217.729 105.251V112.382C217.77 112.839 218.018 113.07 218.289 113.243C218.33 113.266 218.37 113.295 218.417 113.318C218.936 113.607 219.052 113.844 218.971 114.162C218.89 114.434 218.636 114.584 218.37 114.584H216.741H216.383H215.003C214.737 114.584 214.477 114.434 214.408 114.162C214.321 113.844 214.437 113.607 214.957 113.318C215.292 113.128 215.65 112.879 215.65 112.284V105.153C215.615 104.691 215.361 104.454 215.078 104.286L214.962 104.211C214.443 103.928 214.321 103.691 214.408 103.373C214.483 103.096 214.743 102.946 215.009 102.946H217.082Z" fill="black"/>
<path d="M127.462 104.275C127.462 104.275 127.416 104.24 127.393 104.223C127.352 104.194 127.306 104.171 127.266 104.148C126.838 103.888 126.74 103.662 126.821 103.368C126.89 103.09 127.156 102.94 127.416 102.94H131.113C131.378 102.94 131.638 103.09 131.713 103.368C131.794 103.656 131.696 103.882 131.269 104.148C131.228 104.165 131.182 104.194 131.141 104.223C131.118 104.24 131.095 104.257 131.078 104.275C130.922 104.408 130.847 104.61 130.962 104.974L131.095 105.413L133.232 112.278C133.625 113.671 134.572 113.295 134.572 113.937C134.572 114.578 133.989 114.584 133.989 114.584H132.418H131.037C130.772 114.584 130.512 114.434 130.437 114.162C130.35 113.862 130.454 113.63 130.916 113.359C130.98 113.324 131.037 113.295 131.089 113.261C131.113 113.243 131.136 113.214 131.159 113.197C131.251 113.105 131.286 112.978 131.222 112.781L130.431 110.019C130.391 109.903 130.281 109.822 130.148 109.822H127.895C127.763 109.822 127.647 109.909 127.612 110.025L126.821 112.781C126.746 113.024 126.821 113.162 126.96 113.261C126.983 113.278 127.012 113.301 127.058 113.324C127.572 113.613 127.687 113.85 127.601 114.168C127.52 114.44 127.266 114.59 127 114.59H124.667C124.401 114.59 124.141 114.44 124.066 114.168C123.985 113.891 124.066 113.671 124.441 113.428C124.511 113.394 124.58 113.353 124.655 113.307C124.719 113.261 124.788 113.209 124.857 113.139C125.036 112.966 125.204 112.706 125.325 112.29L127.121 106.505L127.589 104.986C127.711 104.622 127.624 104.419 127.474 104.286M129.865 108.054C129.865 108.054 129.865 108.014 129.859 107.996L129.103 105.199C129.091 105.165 129.062 105.147 129.033 105.147C128.999 105.147 128.975 105.165 128.964 105.194L128.196 108.002C128.196 108.002 128.19 108.043 128.19 108.06C128.19 108.17 128.271 108.256 128.375 108.262H129.68C129.79 108.262 129.871 108.17 129.871 108.06" fill="black"/>
<path d="M155.551 104.489C154.003 104.489 152.848 106.037 152.848 107.748C152.848 110.868 155.678 112.683 157.717 112.683C159.172 112.683 160.345 111.539 160.345 109.568C160.345 106.546 157.497 104.489 155.551 104.489ZM156.764 102.946C160.056 102.946 162.586 105.604 162.586 108.632C162.586 112.059 159.912 114.607 156.712 114.607C153.032 114.607 150.93 111.793 150.93 108.684C150.93 105.396 153.598 102.951 156.758 102.951" fill="black"/>
</g>
<defs>
<clipPath id="clip0_11206_245">
<rect width="138" height="80" fill="white" transform="translate(81 35)"/>
</clipPath>
</defs>
</svg>
