<svg width="300" height="150" viewBox="0 0 300 150" fill="none" xmlns="http://www.w3.org/2000/svg">
<g clip-path="url(#clip0_11206_286)">
<path d="M212.893 76.2508C212.893 76.2508 212.586 77.94 212.465 78.535C211.247 84.5275 209.692 85.3783 203.983 85.3783H199.024L213.893 63.1892L213.55 62.3558H197.46L196.459 71.2142L197.569 71.345C197.609 71.0983 197.648 70.8658 197.673 70.7283C198.639 65.2792 199.804 63.6408 205.156 63.6408H209.757L194.925 85.83L195.266 86.6633H212.796L214 76.385L212.893 76.2517V76.2508Z" fill="black"/>
<path d="M87.5744 77.8417C88.7106 83.2333 91.0275 85.7417 95.0877 85.7417C98.0486 85.7417 100.224 83.5942 100.26 80.985C100.26 78.8108 98.7262 77.5567 94.5881 75.7442C89.4876 73.4992 86.6334 71.3842 86.6334 67.8333C86.6334 64.5 89.5942 62 93.839 62C96.6399 62 97.4046 62.9492 100.556 62.9492L102.322 71.6958L101.375 71.8958L101.049 70.88C99.2759 65.3533 97.2643 63.2575 93.7677 63.2575C90.8068 63.2575 89.4515 65.405 89.4868 67.0725C89.522 68.9567 90.9848 70.2842 95.2296 72.1683C101.579 74.9942 103.27 77.145 103.27 80.1883C103.27 83.8842 100.152 87 94.8014 87C91.8167 87 90.605 86.0358 87.2831 86.0358L86 75.5525L87.0616 75.4108L87.5744 77.8425V77.8417Z" fill="black"/>
<path d="M126.924 62.3558H119.566V63.3975C122.578 63.5142 122.579 64.9817 122.579 68.1175V77.6283C122.579 82.9042 120.494 85.4725 116.428 85.4725C110.858 85.4725 110.414 81.9667 110.414 77.6975V66.8683C110.414 64.2775 110.414 63.5408 113.094 63.4092V62.3558H104.35V63.4092C107.064 63.54 107.065 64.2758 107.065 66.8683V77.6283C107.065 84.0842 109.56 87 115.471 87C121.382 87 123.877 83.7025 123.877 77.6283V68.1175C123.877 64.98 123.877 63.5133 126.923 63.3967V62.3558H126.924Z" fill="black"/>
<path d="M144.595 81.5525L137.553 62.3558H135.843L134.886 65.2208L129.314 80.5508C127.81 84.6583 127.279 85.575 123.91 85.6267V86.6625H132.866V85.6267C129.019 85.3975 129.372 84.4183 130.749 80.5858L131.228 79.2392H140.219L141.039 81.5525C142.014 84.3708 142.426 85.3967 138.57 85.6267V86.6625H148.087V85.6208C145.961 85.5475 145.502 84.0808 144.594 81.5525H144.595ZM131.707 77.9275L135.741 66.6367H135.877L137.005 70.0892L139.774 77.9267H131.706L131.707 77.9275Z" fill="black"/>
<path d="M168.68 83.5383L162.701 75.3125C166.243 74.7183 169.214 72.7375 169.214 68.745C169.214 63.8492 165.18 62.3558 160.223 62.3558H149.728V63.3975C153.044 63.4667 153.044 64.1267 153.044 66.87V82.1483C153.044 84.8567 153.044 85.5517 149.728 85.6208V86.6625H159.847V85.6208C156.394 85.5517 156.394 84.8917 156.394 82.1483V75.655H159.258L166.941 86.6558H171.745V85.6208C170.133 85.515 169.537 84.6983 168.68 83.5375V83.5383ZM156.393 74.3358V65.9325C156.393 64.3 156.667 63.6408 158.547 63.6408H160.222C164.256 63.6408 165.555 65.1683 165.555 68.745C165.555 72.3217 164.256 74.3358 160.187 74.3358H156.393Z" fill="black"/>
<path d="M185.418 85.3783H182.394C179.728 85.3783 179.728 84.7883 179.728 82.1142V74.51H182.029C185.531 74.51 186.239 75.3367 186.496 78.1425H187.523V69.55H186.496C186.239 72.3625 185.533 73.1908 182.028 73.1908H179.728V66.9742C179.728 64.2308 179.762 63.6408 182.394 63.6408H186.462C189.573 63.6408 190.804 65.3075 191.077 70.3083C191.078 70.3292 191.079 70.3517 191.08 70.375H192.275L192.137 62.3558H173.382V63.3975C176.377 63.5025 176.377 64.2533 176.377 66.9042V82.1483C176.377 84.8 176.377 85.5142 173.382 85.6208V86.6625H192.082L192.233 78.9667H191.079C190.737 83.2733 189.648 85.3775 185.416 85.3775L185.418 85.3783Z" fill="black"/>
</g>
<defs>
<clipPath id="clip0_11206_286">
<rect width="128" height="25" fill="white" transform="translate(86 62)"/>
</clipPath>
</defs>
</svg>
