<svg width="226" height="44" viewBox="0 0 226 44" fill="none" xmlns="http://www.w3.org/2000/svg">
<g clip-path="url(#clip0_7101_388)">
<path d="M224.046 25.0814C224.046 25.0814 223.504 28.0544 223.29 29.1016C221.139 39.6484 218.394 41.1458 208.313 41.1458H199.558L225.81 2.09289L225.206 0.626221H196.796L195.029 16.2169L196.988 16.4472C197.059 16.013 197.129 15.6038 197.172 15.3618C198.877 5.77129 200.934 2.88782 210.385 2.88782H218.508L192.32 41.9408L192.922 43.4074H223.875L226 25.3176L224.046 25.0829V25.0814Z" fill="black"/>
<path d="M2.77975 27.8813C4.78598 37.3707 8.87666 41.7853 16.0455 41.7853C21.2733 41.7853 25.1148 38.0057 25.1785 33.4136C25.1785 29.5871 22.4698 27.3797 15.1633 24.1897C6.15775 20.2385 1.11827 16.5161 1.11827 10.2667C1.11827 4.4 6.34606 0 13.8408 0C18.7861 0 20.1362 1.67053 25.7 1.67053L28.8187 17.0647L27.1457 17.4167L26.5706 15.6288C23.4403 5.90187 19.8885 2.2132 13.7148 2.2132C8.487 2.2132 6.09401 5.9928 6.1563 8.9276C6.21859 12.2437 8.80134 14.5801 16.2961 17.8963C27.5064 22.8697 30.4918 26.6552 30.4918 32.0115C30.4918 38.5161 24.9873 44 15.54 44C10.2702 44 8.13066 42.3031 2.26552 42.3031L0 23.8524L1.87441 23.6031L2.77975 27.8828V27.8813Z" fill="black"/>
<path d="M72.256 0.626221H59.2655V2.45955C64.5831 2.66489 64.5846 5.24769 64.5846 10.7668V27.5058C64.5846 36.7913 60.9038 41.3116 53.7248 41.3116C43.8907 41.3116 43.1056 35.1413 43.1056 27.6276V8.56822C43.1056 4.00835 43.1056 2.71182 47.838 2.48009V0.626221H32.3994V2.48009C37.1912 2.71035 37.1926 4.00542 37.1926 8.56822V27.5058C37.1926 38.8681 41.5977 44 52.0344 44C62.4711 44 66.8762 38.1964 66.8762 27.5058V10.7668C66.8762 5.24476 66.8762 2.66342 72.2546 2.45809V0.626221H72.256Z" fill="black"/>
<path d="M103.456 34.4124L91.0233 0.626221H88.0046L86.3141 5.66862L76.4756 32.6494C73.8205 39.8786 72.8833 41.492 66.9355 41.5829V43.406H82.7478V41.5829C75.9556 41.1796 76.5785 39.4562 79.0106 32.711L79.8551 30.3409H95.7297L97.1782 34.4124C98.9005 39.3726 99.6277 41.1781 92.8181 41.5829V43.406H109.623V41.5726C105.869 41.4436 105.058 38.8622 103.455 34.4124H103.456ZM80.701 28.0324L87.8235 8.16049H88.064L90.0557 14.2369L94.9445 28.0309H80.6996L80.701 28.0324Z" fill="black"/>
<path d="M145.981 37.9074L135.426 23.43C141.679 22.3842 146.924 18.898 146.924 11.8712C146.924 3.25449 139.802 0.626221 131.05 0.626221H112.52V2.45955C118.375 2.58129 118.375 3.74289 118.375 8.57115V35.461C118.375 40.2277 118.375 41.4509 112.52 41.5726V43.406H130.386V41.5726C124.289 41.4509 124.289 40.2893 124.289 35.461V24.0328H129.346L142.912 43.3942H151.393V41.5726C148.548 41.3864 147.495 39.949 145.981 37.906V37.9074ZM124.288 21.711V6.92115C124.288 4.04795 124.772 2.88782 128.09 2.88782H131.048C138.171 2.88782 140.464 5.57622 140.464 11.8712C140.464 18.1661 138.171 21.711 130.987 21.711H124.288Z" fill="black"/>
<path d="M175.534 41.1458H170.196C165.489 41.1458 165.489 40.1074 165.489 35.4009V22.0176H169.552C175.734 22.0176 176.984 23.4725 177.439 28.4108H179.251V13.288H177.439C176.984 18.238 175.739 19.6958 169.55 19.6958H165.489V8.75449C165.489 3.92622 165.549 2.88782 170.196 2.88782H177.378C182.871 2.88782 185.044 5.82115 185.526 14.6226C185.528 14.6593 185.531 14.6989 185.532 14.74H187.641L187.398 0.626221H154.284V2.45955C159.571 2.64435 159.571 3.96582 159.571 8.63129V35.461C159.571 40.128 159.571 41.3849 154.284 41.5726V43.406H187.301L187.567 29.8613H185.531C184.927 37.441 183.004 41.1444 175.531 41.1444L175.534 41.1458Z" fill="black"/>
</g>
<defs>
<clipPath id="clip0_7101_388">
<rect width="226" height="44" fill="white"/>
</clipPath>
</defs>
</svg>
