<svg width="300" height="150" viewBox="0 0 300 150" fill="none" xmlns="http://www.w3.org/2000/svg">
<g clip-path="url(#clip0_11206_286)">
<path d="M290.527 78.9219C290.527 78.9219 289.842 82.7057 289.57 84.0385C286.848 97.4617 283.374 99.3675 270.618 99.3675H259.538L292.76 49.6638L291.996 47.7971H256.043L253.806 67.6398L256.287 67.9329C256.376 67.3803 256.464 66.8595 256.519 66.5515C258.677 54.3454 261.28 50.6755 273.239 50.6755H283.519L250.378 100.379L251.141 102.246H290.311L293 79.2225L290.527 78.9238V78.9219Z" fill="black"/>
<path d="M10.5177 82.4853C13.0566 94.5627 18.2333 100.181 27.3054 100.181C33.9211 100.181 38.7825 95.3709 38.8631 89.5264C38.8631 84.6563 35.4352 81.8469 26.189 77.7869C14.7926 72.7581 8.41516 68.0205 8.41516 60.0667C8.41516 52.6 15.0309 47 24.5154 47C30.7736 47 32.4821 49.1261 39.523 49.1261L43.4697 68.7187L41.3525 69.1667L40.6247 66.8912C36.6634 54.5115 32.1686 49.8168 24.3559 49.8168C17.7402 49.8168 14.7119 54.6272 14.7907 58.3624C14.8695 62.5829 18.138 65.5565 27.6225 69.7771C41.8089 76.1069 45.587 80.9248 45.587 87.7419C45.587 96.0205 38.6212 103 26.6656 103C19.9968 103 17.2892 100.84 9.86698 100.84L7 77.3576L9.37204 77.0403L10.5177 82.4872V82.4853Z" fill="black"/>
<path d="M98.4393 47.7971H81.9999V50.1305C88.7293 50.3918 88.7311 53.679 88.7311 60.7033V82.0075C88.7311 93.8254 84.0732 99.5785 74.9883 99.5785C62.5433 99.5785 61.5497 91.7254 61.5497 82.1625V57.9051C61.5497 52.1017 61.5497 50.4515 67.5385 50.1566V47.7971H48.0012V50.1566C54.0651 50.4497 54.067 52.0979 54.067 57.9051V82.0075C54.067 96.4686 59.6415 103 72.849 103C86.0566 103 91.6311 95.6137 91.6311 82.0075V60.7033C91.6311 53.6753 91.6311 50.3899 98.4374 50.1286V47.7971H98.4393Z" fill="black"/>
<path d="M137.923 90.7976L122.189 47.7971H118.369L116.23 54.2147L103.779 88.5539C100.419 97.7547 99.233 99.808 91.7063 99.9238V102.244H111.717V99.9238C103.121 99.4104 103.909 97.2171 106.987 88.6323L108.056 85.6158H128.145L129.978 90.7976C132.158 97.1107 133.078 99.4086 124.46 99.9238V102.244H145.726V99.9107C140.977 99.7465 139.95 96.4611 137.921 90.7976H137.923ZM109.126 82.6776L118.14 57.3862H118.444L120.965 65.1198L127.151 82.6758H109.125L109.126 82.6776Z" fill="black"/>
<path d="M191.737 95.2459L178.379 76.82C186.293 75.4891 192.931 71.0521 192.931 62.1089C192.931 51.1422 183.917 47.7971 172.841 47.7971H149.392V50.1305C156.802 50.2854 156.802 51.7638 156.802 57.9089V92.1323C156.802 98.199 156.802 99.7558 149.392 99.9107V102.244H172.002V99.9107C164.286 99.7558 164.286 98.2774 164.286 92.1323V77.5872H170.686L187.853 102.229H198.586V99.9107C194.985 99.6737 193.653 97.8443 191.737 95.2441V95.2459ZM164.285 74.6323V55.8089C164.285 52.1521 164.897 50.6755 169.096 50.6755H172.84C181.853 50.6755 184.755 54.0971 184.755 62.1089C184.755 70.1206 181.853 74.6323 172.763 74.6323H164.285Z" fill="black"/>
<path d="M229.136 99.3675H222.381C216.424 99.3675 216.424 98.0459 216.424 92.0558V75.0224H221.566C229.389 75.0224 230.971 76.8742 231.547 83.1593H233.84V63.9121H231.547C230.971 70.2121 229.395 72.0675 221.564 72.0675H216.424V58.1422C216.424 51.9971 216.501 50.6755 222.381 50.6755H231.47C238.421 50.6755 241.171 54.4089 241.781 65.6107C241.783 65.6574 241.787 65.7078 241.788 65.7601H244.457L244.15 47.7971H202.245V50.1305C208.935 50.3657 208.935 52.0475 208.935 57.9854V92.1323C208.935 98.072 208.935 99.6718 202.245 99.9107V102.244H244.027L244.364 85.0054H241.787C241.022 94.6523 238.59 99.3657 229.133 99.3657L229.136 99.3675Z" fill="black"/>
</g>
<defs>
<clipPath id="clip0_11206_286">
<rect width="286" height="56" fill="white" transform="translate(7 47)"/>
</clipPath>
</defs>
</svg>
