<svg width="300" height="150" viewBox="0 0 300 150" fill="none" xmlns="http://www.w3.org/2000/svg">
<path d="M148.527 57.1482L142.979 48.1116H145.858L150.129 55.0702L152.493 51.1047C153.122 50.0752 153.656 49.122 154.037 48.1116H156.268L150.834 56.2522L156.839 66.0705H153.98L149.195 58.2349L146.182 63.0774C145.591 64.0306 145.038 64.9838 144.543 66.0705H142.388L148.527 57.1482Z" fill="#030402"/>
<path d="M129.901 90.2442H130.016L137.527 75.3357H138.347V93.2946H135.85L135.983 81.5698H135.907L129.901 93.4281H129.082L122.981 81.5698H122.905L123.019 90.3014C123.019 91.3881 123.095 92.3604 123.324 93.2946H121.494V75.2022H122.314L129.901 90.2442Z" fill="#030402"/>
<path d="M152.34 79.1486L149.652 85.5353H155.143L152.397 79.1486H152.34ZM153.293 75.2022L161.11 93.2946H158.422L155.581 86.622H149.233L147.555 90.5493C147.174 91.4453 146.926 92.3414 146.735 93.2946H144.771L152.55 75.2022H153.293Z" fill="#030402"/>
<path d="M167.02 89.0243C168.431 91.1405 170.452 92.3797 172.568 92.3797C174.722 92.3797 176.209 91.1215 176.209 89.0815C176.209 86.7938 174.341 85.8787 172.397 85.383C169.842 84.7538 167.192 83.2096 167.192 80.0449C167.192 77.128 169.594 75.069 173.007 75.069C174.78 75.069 176.381 75.6218 177.868 76.6513V79.4539C176.705 77.5283 175.066 76.251 173.026 76.251C171.1 76.251 169.651 77.4139 169.651 79.2441C169.651 81.4938 171.767 82.447 173.712 82.9427C176.305 83.629 178.726 85.0589 178.726 88.1474C178.726 91.4456 176.305 93.5808 172.435 93.5808C170.338 93.5808 168.488 92.9898 167.001 91.865V89.0243H167.02Z" fill="#030402"/>
<path d="M119.187 120.5H116.537V103.628H114.001C112.914 103.628 111.904 103.704 111.008 103.895V102.541H124.696V103.895C123.8 103.704 122.79 103.628 121.703 103.628H119.187V120.5Z" fill="#030402"/>
<path d="M138.633 103.628H136.46V111.483H138.614C142.236 111.483 143.59 109.462 143.59 107.346C143.59 105.401 142.465 103.628 138.633 103.628ZM139.948 102.541C143.628 102.541 146.335 104.314 146.335 107.25C146.335 110.034 143.78 112.36 140.234 112.36H139.948L147.67 120.5H144.467L136.46 111.845V120.5H133.829V102.541H139.948Z" fill="#030402"/>
<path d="M156.592 120.5V102.541H166.773V103.895C165.877 103.704 164.866 103.628 163.779 103.628H159.242V110.51H166.048V111.597H159.242V119.413H163.913C165 119.413 166.01 119.337 166.906 119.147V120.5H156.592V120.5Z" fill="#030402"/>
<path d="M176.705 120.5V102.541H186.886V103.895C185.99 103.704 184.979 103.628 183.893 103.628H179.355V110.51H186.161V111.597H179.355V119.413H184.026C185.113 119.413 186.123 119.337 187.019 119.147V120.5H176.705V120.5Z" fill="#030402"/>
<path d="M104.793 54.1738C106.013 54.5551 107.176 54.4407 107.862 53.7735C108.453 53.2015 108.472 52.5152 107.977 52.0005C107.424 51.4285 106.699 51.562 105.956 52.0005C104.869 52.6677 103.554 52.7821 102.62 51.8098C101.666 50.8184 101.838 49.4267 102.963 48.34C103.554 47.7681 104.24 47.4249 105.136 47.3105L106.318 48.5307C105.117 48.1113 104.126 48.2066 103.535 48.7595C103.039 49.2361 102.944 49.9224 103.439 50.4181C103.973 50.971 104.717 50.8375 105.479 50.3418C106.566 49.6746 107.805 49.503 108.758 50.4943C109.788 51.562 109.616 53.0681 108.358 54.2882C107.672 54.9364 106.89 55.2987 106.013 55.394L104.793 54.1738Z" fill="#030402"/>
<path d="M116.937 42.6397C115.851 40.962 114.516 40.2756 113.22 41.1145C111.942 41.9533 112.038 43.4404 113.124 45.1181C114.23 46.8148 115.527 47.5012 116.823 46.6623C118.119 45.8235 118.024 44.3364 116.937 42.6397ZM118.463 41.6483C119.74 43.631 119.301 45.8997 117.223 47.2533C115.126 48.6069 112.877 48.0922 111.599 46.1094C110.322 44.1267 110.76 41.8771 112.857 40.5235C114.936 39.1699 117.185 39.6846 118.463 41.6483Z" fill="#030402"/>
<path d="M122.142 35.5664L123.781 34.8992L126.469 41.4765L127.709 40.9808C128.319 40.733 128.852 40.4661 129.158 40.2564L129.463 41.0189L125.078 42.811L122.142 35.5664Z" fill="#030402"/>
<path d="M133.872 31.5996L132.154 32.0354L134.066 39.575L135.784 39.1392L133.872 31.5996Z" fill="#030402"/>
<path d="M142.827 37.2255L143.361 37.1874C145.61 36.9968 146.259 35.4907 146.106 33.7176C145.935 31.9256 145.058 30.572 142.808 30.7626L142.274 30.8007L142.827 37.2255ZM143.361 30.0381C145.916 29.8284 147.708 31.2583 147.917 33.5461C148.108 35.8338 146.583 37.5687 144.028 37.7784L141.111 38.0263L140.444 30.2669L143.361 30.0381Z" fill="#030402"/>
<path d="M155.867 31.8874L154.514 34.5374L156.725 34.7662L155.887 31.8874H155.867ZM156.973 30.0953L159.433 38.2169L157.66 38.0453L156.916 35.4525L154.19 35.1856L153.599 36.3104C153.389 36.7298 153.237 37.1302 153.122 37.5878L151.997 37.4734L156.02 30L156.973 30.0953Z" fill="#030402"/>
<path d="M168.088 33.0123L167.458 32.8216L166.562 35.872L167.096 36.0245C168.259 36.3676 169.041 35.8529 169.308 34.9569C169.556 34.099 169.193 33.3364 168.088 33.0123ZM168.965 32.5738C170.566 33.0504 171.424 34.1752 171.062 35.4144C170.719 36.5964 169.517 37.0921 168.431 36.8252L168.355 36.8061L169.918 40.9622L167.992 40.3903L166.524 35.9864L165.457 39.6468L163.741 39.1511L165.933 31.6777L168.965 32.5738Z" fill="#030402"/>
<path d="M177.435 35.7481L174.129 42.7891L175.734 43.5426L179.04 36.5016L177.435 35.7481Z" fill="#030402"/>
<path d="M183.244 47.902L181.757 46.9106L185.684 40.9815L185.093 40.6002C184.655 40.3142 184.159 40.0473 183.797 39.9139L184.254 39.2275L189.326 42.602L188.868 43.2883C188.601 43.0023 188.163 42.6592 187.724 42.3732L187.152 41.9919L183.244 47.902Z" fill="#030402"/>
<path d="M194.931 47.2341L193.882 51.2377L193.902 51.2568L196.227 50.4751C196.685 50.3226 197.276 50.0557 197.657 49.8079L198.477 50.5895L193.711 52.0003L191.328 54.5169L190.031 53.2967L192.414 50.7802L193.577 45.9377L194.931 47.2341Z" fill="#030402"/>
</svg>
