<svg width="108" height="100" viewBox="0 0 108 100" fill="none" xmlns="http://www.w3.org/2000/svg">
<path d="M52.1092 29.9985L45.979 20.0132H49.1599L53.8787 27.7023L56.4909 23.3205C57.1861 22.183 57.7759 21.1297 58.1972 20.0132H60.662L54.6582 29.0084L61.2939 39.8573H58.134L52.8465 31.1992L49.5181 36.55C48.865 37.6033 48.2541 38.6566 47.7064 39.8573H45.3259L52.1092 29.9985Z" fill="#2F004D"/>
<path d="M31.5279 66.5685H31.6543L39.9543 50.095H40.8601V69.9391H38.1005L38.2479 56.9835H38.1637L31.5279 70.0866H30.622L23.8809 56.9835H23.7967L23.9231 66.6317C23.9231 67.8325 24.0073 68.9069 24.2601 69.9391H22.2378V49.9475H23.1436L31.5279 66.5685Z" fill="#2F004D"/>
<path d="M56.3224 54.3082L53.3521 61.3653H59.4191L56.3856 54.3082H56.3224ZM57.3757 49.9475L66.0128 69.9391H63.0425L59.9036 62.566H52.8887L51.0349 66.9056C50.6135 67.8957 50.3397 68.8858 50.129 69.9391H47.9592L56.5541 49.9475H57.3757Z" fill="#2F004D"/>
<path d="M72.5434 65.2203C74.1023 67.5587 76.3353 68.9279 78.6736 68.9279C81.0541 68.9279 82.6972 67.5376 82.6972 65.2835C82.6972 62.7556 80.6327 61.7445 78.484 61.1967C75.6612 60.5016 72.733 58.7952 72.733 55.2983C72.733 52.0752 75.3873 49.8 79.1581 49.8C81.1173 49.8 82.8868 50.411 84.5299 51.5485V54.6452C83.2449 52.5176 81.4332 51.1061 79.1792 51.1061C77.0515 51.1061 75.4505 52.3912 75.4505 54.4135C75.4505 56.8993 77.7888 57.9526 79.9376 58.5003C82.8025 59.2587 85.4779 60.8386 85.4779 64.2513C85.4779 67.8957 82.8025 70.2551 78.5261 70.2551C76.2089 70.2551 74.1655 69.6021 72.5223 68.3592V65.2203H72.5434Z" fill="#2F004D"/>
<path d="M19.6882 99.9999H16.76V81.3565H13.9582C12.7575 81.3565 11.641 81.4408 10.6509 81.6514V80.1558H25.7762V81.6514C24.7861 81.4408 23.6696 81.3565 22.4689 81.3565H19.6882V99.9999Z" fill="#2F004D"/>
<path d="M41.1759 81.3565H38.7744V90.0357H41.1549C45.1574 90.0357 46.6531 87.8027 46.6531 85.4644C46.6531 83.3157 45.4102 81.3565 41.1759 81.3565ZM42.6295 80.1558C46.6952 80.1558 49.6866 82.1149 49.6866 85.3591C49.6866 88.4347 46.8637 91.0047 42.9455 91.0047H42.6295L51.1612 99.9999H47.6221L38.7744 90.4359V99.9999H35.8673V80.1558H42.6295Z" fill="#2F004D"/>
<path d="M61.0208 99.9999V80.1558H72.27V81.6514C71.2799 81.4408 70.1634 81.3565 68.9626 81.3565H63.9489V88.9613H71.4695V90.1621H63.9489V98.7991H69.1101C70.3108 98.7991 71.4273 98.7149 72.4174 98.5042V99.9999H61.0208Z" fill="#2F004D"/>
<path d="M83.245 99.9999V80.1558H94.4942V81.6514C93.5041 81.4408 92.3876 81.3565 91.1869 81.3565H86.1732V88.9613H93.6937V90.1621H86.1732V98.7991H91.3343C92.5351 98.7991 93.6516 98.7149 94.6417 98.5042V99.9999H83.245Z" fill="#2F004D"/>
<path d="M3.78392 26.7109C5.13214 27.1323 6.41716 27.0059 7.17554 26.2686C7.82858 25.6366 7.84965 24.8782 7.30193 24.3094C6.69102 23.6774 5.89051 23.8249 5.06894 24.3094C3.86818 25.0467 2.41463 25.1731 1.3824 24.0988C0.329097 23.0033 0.518691 21.4655 1.76158 20.2648C2.41463 19.6328 3.173 19.2536 4.1631 19.1272L5.46919 20.4754C4.14204 20.012 3.04661 20.1173 2.39356 20.7282C1.84585 21.2549 1.74052 22.0132 2.28823 22.5609C2.87808 23.1719 3.69965 23.0244 4.54229 22.4767C5.74305 21.7394 7.11234 21.5498 8.16564 22.6452C9.3032 23.8249 9.1136 25.4891 7.72325 26.8373C6.96488 27.5536 6.10117 27.9538 5.13214 28.0592L3.78392 26.7109Z" fill="#2F004D"/>
<path d="M17.2031 13.9668C16.0023 12.113 14.5277 11.3546 13.0952 12.2815C11.6838 13.2084 11.7892 14.8515 12.9899 16.7053C14.2117 18.5802 15.6442 19.3386 17.0767 18.4117C18.5092 17.4848 18.4039 15.8416 17.2031 13.9668ZM18.8884 12.8713C20.2998 15.0622 19.8153 17.569 17.5191 19.0647C15.2018 20.5604 12.7161 19.9916 11.3046 17.8008C9.89322 15.6099 10.3777 13.1241 12.695 11.6284C14.9912 10.1328 17.477 10.7015 18.8884 12.8713Z" fill="#2F004D"/>
<path d="M22.9539 6.15113L24.7655 5.41382L27.7358 12.6816L29.1051 12.1339C29.7792 11.86 30.3691 11.5651 30.7061 11.3334L31.0432 12.176L26.198 14.1562L22.9539 6.15113Z" fill="#2F004D"/>
<path d="M35.9157 1.76796L34.0167 2.24951L36.1294 10.5806L38.0284 10.099L35.9157 1.76796Z" fill="#2F004D"/>
<path d="M45.8104 7.9841L46.4002 7.94197C48.886 7.73131 49.6022 6.0671 49.4337 4.10797C49.2441 2.12777 48.2751 0.632083 45.7893 0.842743L45.1995 0.884874L45.8104 7.9841ZM46.4002 0.0422361C49.223 -0.189489 51.2033 1.39046 51.435 3.91837C51.6456 6.44629 49.9604 8.36329 47.1375 8.59501L43.9144 8.86887L43.1771 0.295028L46.4002 0.0422361Z" fill="#2F004D"/>
<path d="M60.2196 2.08553L58.7239 5.0137L61.1676 5.26649L60.2407 2.08553H60.2196ZM61.4414 0.10533L64.159 9.07943L62.1998 8.88984L61.3782 6.02487L58.3658 5.72994L57.7128 6.97283C57.481 7.43629 57.3125 7.87867 57.1861 8.38425L55.9432 8.25786L60.3881 0L61.4414 0.10533Z" fill="#2F004D"/>
<path d="M73.7227 3.32887L73.0275 3.11821L72.0374 6.48876L72.6273 6.65729C73.9123 7.03647 74.776 6.46769 75.0709 5.47759C75.3448 4.52962 74.9445 3.68699 73.7227 3.32887ZM74.6918 2.84435C76.4613 3.371 77.4093 4.61389 77.009 5.98318C76.6298 7.28926 75.3027 7.83698 74.1019 7.54206L74.0176 7.52099L75.7451 12.1134L73.6174 11.4814L71.9953 6.61515L70.8156 10.6598L68.9197 10.1121L71.3423 1.85425L74.6918 2.84435Z" fill="#2F004D"/>
<path d="M84.0514 6.35197L80.3986 14.1321L82.172 14.9647L85.8248 7.1846L84.0514 6.35197Z" fill="#2F004D"/>
<path d="M90.4701 19.7815L88.8269 18.6861L93.1665 12.1346L92.5134 11.7133C92.0289 11.3973 91.4812 11.1024 91.081 10.9549L91.5865 10.1965L97.1901 13.9252L96.6845 14.6836C96.3896 14.3676 95.9051 13.9884 95.4205 13.6724L94.7886 13.2511L90.4701 19.7815Z" fill="#2F004D"/>
<path d="M103.384 19.0436L102.225 23.4674L102.246 23.4885L104.816 22.6248C105.322 22.4563 105.975 22.1613 106.396 21.8875L107.302 22.7512L102.036 24.3101L99.4025 27.0908L97.97 25.7425L100.603 22.9618L101.888 17.6111L103.384 19.0436Z" fill="#2F004D"/>
</svg>
