<svg width="77" height="73" viewBox="0 0 77 73" fill="none" xmlns="http://www.w3.org/2000/svg">
<path d="M37.1344 21.6676L32.7066 14.4553H35.0042L38.4125 20.0091L40.2993 16.8442C40.8014 16.0226 41.2274 15.2618 41.5318 14.4553H43.312L38.9755 20.9525L43.7685 28.7887H41.4861L37.6669 22.535L35.2628 26.3998C34.7911 27.1606 34.3499 27.9214 33.9543 28.7887H32.2349L37.1344 21.6676Z" fill="white"/>
<path d="M22.2686 48.082H22.3598L28.3549 36.1832H29.0092V50.5165H27.0159L27.1224 41.1588H27.0616L22.2686 50.623H21.6143L16.7452 41.1588H16.6843L16.7756 48.1276C16.7756 48.9949 16.8365 49.7709 17.0191 50.5165H15.5583V36.0767H16.2126L22.2686 48.082Z" fill="white"/>
<path d="M40.1772 39.2263L38.0317 44.3237H42.4139L40.2228 39.2263H40.1772ZM40.938 36.0767L47.1765 50.5165H45.031L42.7639 45.191H37.697L36.358 48.3254C36.0537 49.0406 35.8559 49.7557 35.7037 50.5165H34.1365L40.3446 36.0767H40.938Z" fill="white"/>
<path d="M51.8939 47.1085C53.0199 48.7974 54.6327 49.7865 56.3217 49.7865C58.0411 49.7865 59.2279 48.7822 59.2279 47.1541C59.2279 45.3282 57.7368 44.5979 56.1848 44.2022C54.1458 43.7001 52.0308 42.4676 52.0308 39.9418C52.0308 37.6138 53.948 35.9705 56.6717 35.9705C58.0867 35.9705 59.3649 36.4117 60.5517 37.2334V39.4701C59.6235 37.9333 58.315 36.9138 56.6869 36.9138C55.1501 36.9138 53.9937 37.842 53.9937 39.3027C53.9937 41.0982 55.6826 41.859 57.2347 42.2546C59.304 42.8024 61.2364 43.9436 61.2364 46.4086C61.2364 49.0409 59.304 50.7451 56.2152 50.7451C54.5414 50.7451 53.0655 50.2734 51.8787 49.3756V47.1085H51.8939Z" fill="white"/>
<path d="M13.7168 72.2298H11.6018V58.7638H9.5781C8.7108 58.7638 7.90435 58.8247 7.18921 58.9768V57.8965H18.1142V58.9768C17.3991 58.8247 16.5926 58.7638 15.7253 58.7638H13.7168V72.2298Z" fill="white"/>
<path d="M29.2372 58.7638H27.5026V65.0327H29.222C32.113 65.0327 33.1934 63.4198 33.1934 61.7309C33.1934 60.1789 32.2956 58.7638 29.2372 58.7638ZM30.2871 57.8965C33.2238 57.8965 35.3844 59.3116 35.3844 61.6548C35.3844 63.8763 33.3455 65.7327 30.5154 65.7327H30.2871L36.4496 72.2298H33.8933L27.5026 65.3218V72.2298H25.4028V57.8965H30.2871Z" fill="white"/>
<path d="M43.5708 72.2298V57.8965H51.6961V58.9768C50.9809 58.8247 50.1745 58.7638 49.3072 58.7638H45.6858V64.2567H51.1179V65.124H45.6858V71.3625H49.4137C50.281 71.3625 51.0874 71.3017 51.8026 71.1495V72.2298H43.5708Z" fill="white"/>
<path d="M59.6235 72.2298V57.8965H67.7488V58.9768C67.0337 58.8247 66.2272 58.7638 65.3599 58.7638H61.7385V64.2567H67.1706V65.124H61.7385V71.3625H65.4664C66.3337 71.3625 67.1402 71.3017 67.8553 71.1495V72.2298H59.6235Z" fill="white"/>
<path d="M2.22912 19.2936C3.20294 19.5979 4.13111 19.5067 4.67888 18.9741C5.15057 18.5176 5.16579 17.9698 4.77017 17.559C4.32891 17.1025 3.75071 17.2091 3.15729 17.559C2.28999 18.0916 1.24009 18.1829 0.494514 17.4069C-0.26628 16.6156 -0.129337 15.5049 0.7684 14.6376C1.24009 14.1811 1.78786 13.9072 2.50301 13.8159L3.44639 14.7897C2.48779 14.455 1.69657 14.5311 1.22488 14.9723C0.829263 15.3527 0.753184 15.9005 1.1488 16.2961C1.57484 16.7374 2.16826 16.6309 2.7769 16.2352C3.6442 15.7027 4.63323 15.5657 5.39403 16.357C6.21568 17.2091 6.07874 18.4111 5.07449 19.3849C4.52672 19.9023 3.90287 20.1914 3.20294 20.2674L2.22912 19.2936Z" fill="white"/>
<path d="M11.9216 10.0879C11.0543 8.74887 9.9892 8.2011 8.95452 8.8706C7.93506 9.5401 8.01114 10.7269 8.87845 12.0659C9.76097 13.4201 10.7956 13.9679 11.8303 13.2984C12.865 12.6289 12.7889 11.4421 11.9216 10.0879ZM13.1389 9.29664C14.1584 10.8791 13.8084 12.6898 12.1499 13.7701C10.4761 14.8504 8.68064 14.4396 7.66118 12.8572C6.64171 11.2747 6.99168 9.47923 8.66542 8.39891C10.324 7.31858 12.1194 7.72941 13.1389 9.29664Z" fill="white"/>
<path d="M16.0754 4.44271L17.384 3.91016L19.5294 9.15963L20.5185 8.76402C21.0054 8.56621 21.4314 8.35319 21.6749 8.18582L21.9183 8.79445L18.4187 10.2247L16.0754 4.44271Z" fill="white"/>
<path d="M25.4378 1.27669L24.0662 1.62451L25.5921 7.642L26.9637 7.29417L25.4378 1.27669Z" fill="white"/>
<path d="M32.5848 5.76677L33.0109 5.73633C34.8064 5.58418 35.3237 4.38212 35.202 2.96705C35.065 1.53675 34.3651 0.456428 32.5696 0.608586L32.1436 0.639018L32.5848 5.76677ZM33.0109 0.0303835C35.0498 -0.136991 36.4801 1.0042 36.6475 2.8301C36.7996 4.65601 35.5824 6.04065 33.5434 6.20803L31.2154 6.40583L30.6829 0.212974L33.0109 0.0303835Z" fill="white"/>
<path d="M42.9926 1.50637L41.9123 3.62138L43.6773 3.80397L43.0078 1.50637H42.9926ZM43.8751 0.0760794L45.838 6.55804L44.4229 6.4211L43.8295 4.35174L41.6536 4.13872L41.1819 5.03645C41.0146 5.3712 40.8928 5.69074 40.8015 6.05592L39.9038 5.96462L43.1144 0L43.8751 0.0760794Z" fill="white"/>
<path d="M52.7456 2.40398L52.2435 2.25182L51.5283 4.68636L51.9544 4.80809C52.8825 5.08197 53.5064 4.67114 53.7194 3.956C53.9172 3.27128 53.6281 2.66265 52.7456 2.40398ZM53.4455 2.05401C54.7237 2.43441 55.4084 3.33215 55.1193 4.32118C54.8454 5.26456 53.8868 5.66017 53.0195 5.44715L52.9586 5.43194L54.2063 8.749L52.6695 8.29252L51.4979 4.77765L50.6458 7.6991L49.2764 7.30349L51.0262 1.33887L53.4455 2.05401Z" fill="white"/>
<path d="M60.2063 4.58772L57.5679 10.2073L58.8488 10.8087L61.4872 5.18913L60.2063 4.58772Z" fill="white"/>
<path d="M64.8421 14.2877L63.6553 13.4965L66.7897 8.76436L66.318 8.46004C65.9681 8.23181 65.5725 8.01878 65.2834 7.91227L65.6486 7.3645L69.696 10.0577L69.3308 10.6055C69.1178 10.3772 68.7678 10.1034 68.4178 9.87512L67.9614 9.5708L64.8421 14.2877Z" fill="white"/>
<path d="M74.1698 13.7546L73.3329 16.95L73.3481 16.9652L75.2044 16.3413C75.5696 16.2196 76.0413 16.0066 76.3456 15.8088L76.9999 16.4326L73.1959 17.5586L71.294 19.5671L70.2593 18.5933L72.1613 16.5848L73.0894 12.72L74.1698 13.7546Z" fill="white"/>
</svg>
