<svg width="300" height="150" viewBox="0 0 300 150" fill="none" xmlns="http://www.w3.org/2000/svg">
<mask id="mask0_11018_276" style="mask-type:luminance" maskUnits="userSpaceOnUse" x="101" y="52" width="98" height="45">
<path d="M198.527 52H101V97H198.527V52Z" fill="white"/>
</mask>
<g mask="url(#mask0_11018_276)">
<path d="M115.856 65.0635C118.117 65.0635 120.276 65.0832 121.911 65.2352L121.877 65.2295C122.246 65.2971 122.882 65.6292 123.214 65.9276L123.794 66.4483L123.845 65.6715C123.881 65.1141 124.318 63.5913 124.613 63.1072L124.965 62.5302H124.287L104.369 62.5527H103.955L103.992 62.9664C104.02 63.2845 103.843 64.5765 103.474 65.6489L103.038 66.9212L104.074 66.0655C104.516 65.7024 105.095 65.3928 105.394 65.3618C107.212 65.1789 108.62 65.0635 111.916 65.0635H111.918V86.377C111.918 87.1455 111.257 87.6578 111.251 87.6634L110.241 88.4346L111.508 88.3446C112.037 88.3052 113.377 88.2348 113.892 88.2348C114.331 88.2348 115.417 88.2939 116.214 88.3446L117.219 88.4065L116.507 87.6972C116.329 87.517 115.865 86.9372 115.865 86.4192V65.0635H115.854H115.856Z" fill="black"/>
<path d="M128.821 67.3659C130.496 65.2408 133.198 63.9713 136.053 63.9713C138.701 63.9713 140.987 64.858 142.665 66.5356C144.77 68.641 145.882 71.8612 145.882 75.8525C145.882 82.4729 142.152 86.7486 136.379 86.7486C133.787 86.7486 131.588 85.8084 129.849 83.9563C127.414 81.3639 126.468 77.5893 126.62 75.1826C126.62 72.1961 126.995 69.736 128.821 67.3659ZM136.016 88.7105C140.145 88.7105 143.821 87.3087 146.369 84.7613C148.868 82.2618 150.188 78.8418 150.188 74.8674C150.188 71.225 149.043 68.2329 146.783 65.9698C144.263 63.4506 140.368 62.0066 136.089 62.0066C127.98 62.0066 122.316 67.5208 122.316 75.4134C122.316 79.2641 123.575 82.5574 125.953 84.9358C128.422 87.4044 131.904 88.7105 136.019 88.7105" fill="black"/>
<path d="M156.46 64.7454C157.099 64.7314 157.369 64.7286 157.985 64.7032C158.903 64.6638 159.77 64.6272 160.64 64.6272C164.834 64.6272 167.558 65.3985 169.216 67.0564C170.787 68.627 171.519 71.0843 171.519 74.7942C171.519 79.844 169.836 83.2555 166.514 84.9275C163.927 86.2476 160.063 86.0083 156.958 85.8141L156.457 85.7803V64.7454H156.46ZM151.987 88.1645H159.956C163.483 88.1645 167.871 88.1645 171.139 85.2962C174.294 82.4955 175.828 78.8813 175.828 74.2453C175.828 70.33 174.404 66.986 171.82 64.8299C169.011 62.4711 165.785 62.5049 162.368 62.5443L161.115 62.5527H151.157L151.703 63.1804C152.018 63.5435 152.519 64.2754 152.519 64.6835V85.9098C152.519 86.5319 151.939 87.2834 151.714 87.5227L151.112 88.1617H151.99" fill="black"/>
<path d="M177.143 66.9212C176.878 66.0346 175.896 65.9445 175.409 65.4716C174.742 64.827 174.897 63.186 176.22 62.5865C177.106 62.184 178.564 62.5442 178.933 63.4112C179.268 64.2022 179.198 65.1029 178.975 65.7362C178.753 66.3695 177.695 69.1421 177.36 69.584C177.196 69.7979 176.867 69.9443 176.867 69.9443C176.867 69.9443 177.422 67.8501 177.143 66.9184" fill="black"/>
<path d="M181.036 82.9176C180.9 83.945 180.723 85.0428 180.366 86.0927L180.292 86.3066L180.444 86.4727C181.838 88.0011 184.957 88.7133 186.626 88.7133C189.393 88.7133 191.858 87.7731 193.567 86.0646C195.124 84.508 195.948 82.4138 195.948 80.0128C195.948 75.7259 192.627 74.4085 189.694 73.246C186.93 72.1511 184.546 71.2025 184.546 68.2273C184.546 67.1717 184.917 66.2428 185.618 65.542C186.395 64.7651 187.498 64.3372 188.726 64.3372C190.662 64.3372 192.131 65.3787 192.861 67.2702L192.953 67.5123H193.863L193.939 67.2365L194.071 66.7664C194.313 65.8966 194.541 65.0747 194.896 64.2978L195.011 64.0445L194.803 63.8587C193.286 62.4964 191.003 62.0094 189.373 62.0094C184.261 62.0094 180.957 64.9086 180.957 69.3954C180.957 73.8822 184.312 75.3065 187.276 76.4802C189.964 77.547 192.289 78.4675 192.289 81.4371C192.289 84.2124 190.246 86.3855 187.636 86.3855C185.252 86.3855 183.648 85.3384 182.097 82.7741L181.987 82.5911H181.078L181.036 82.9205V82.9176Z" fill="black"/>
</g>
</svg>
