<svg width="300" height="150" viewBox="0 0 300 150" fill="none" xmlns="http://www.w3.org/2000/svg">
<mask id="mask0_11018_276" style="mask-type:luminance" maskUnits="userSpaceOnUse" x="90" y="47" width="120" height="55">
<path d="M209.199 47H90V102H209.199V47Z" fill="white"/>
</mask>
<g mask="url(#mask0_11018_276)">
<path d="M108.158 62.9664C110.92 62.9664 113.559 62.9905 115.558 63.1762L115.517 63.1694C115.967 63.2519 116.745 63.6579 117.151 64.0226L117.859 64.659L117.921 63.7095C117.966 63.0283 118.499 61.1671 118.861 60.5754L119.291 59.8701H118.462L94.118 59.8976H93.6123L93.657 60.4034C93.6914 60.7921 93.4746 62.3712 93.024 63.682L92.4907 65.237L93.7568 64.1911C94.2969 63.7473 95.0056 63.3689 95.3702 63.3311C97.5927 63.1074 99.3128 62.9664 103.341 62.9664H103.345V89.0163C103.345 89.9555 102.536 90.5816 102.53 90.5885L101.294 91.5312L102.843 91.4211C103.489 91.3729 105.127 91.2869 105.757 91.2869C106.293 91.2869 107.621 91.3591 108.595 91.4211L109.823 91.4967L108.953 90.6298C108.736 90.4096 108.168 89.7009 108.168 89.0679V62.9664H108.154H108.158Z" fill="#2B2021"/>
<path d="M124.004 65.7807C126.051 63.1832 129.354 61.6317 132.842 61.6317C136.079 61.6317 138.873 62.7154 140.923 64.7658C143.497 67.3391 144.855 71.2748 144.855 76.1532C144.855 84.2447 140.297 89.4705 133.241 89.4705C130.073 89.4705 127.386 88.3215 125.26 86.0578C122.284 82.8893 121.128 78.2758 121.314 75.3344C121.314 71.6842 121.771 68.6774 124.004 65.7807ZM132.797 91.8684C137.844 91.8684 142.337 90.1552 145.451 87.0417C148.506 83.9867 150.119 79.8068 150.119 74.9491C150.119 70.4973 148.719 66.8403 145.956 64.0743C142.877 60.9952 138.116 59.2303 132.887 59.2303C122.975 59.2303 116.053 65.9699 116.053 75.6165C116.053 80.3228 117.591 84.3479 120.498 87.255C123.515 90.2721 127.771 91.8684 132.801 91.8684" fill="#2B2021"/>
<path d="M157.784 62.5777C158.565 62.5605 158.895 62.5571 159.649 62.5261C160.77 62.478 161.83 62.4332 162.893 62.4332C168.019 62.4332 171.349 63.3759 173.376 65.4022C175.295 67.3219 176.19 70.3253 176.19 74.8596C176.19 81.0315 174.132 85.2011 170.073 87.2446C166.911 88.8581 162.188 88.5657 158.393 88.3283L157.781 88.287V62.5777H157.784ZM152.317 91.201H162.057C166.368 91.201 171.731 91.201 175.725 87.6953C179.582 84.2722 181.457 79.8549 181.457 74.1887C181.457 69.4033 179.716 65.3162 176.558 62.6809C173.124 59.798 169.182 59.8392 165.005 59.8874L163.474 59.8977H151.303L151.97 60.6649C152.355 61.1087 152.968 62.0032 152.968 62.502V88.4453C152.968 89.2056 152.259 90.1242 151.984 90.4166L151.248 91.1975H152.321" fill="#2B2021"/>
<path d="M183.063 65.2371C182.74 64.1534 181.539 64.0433 180.944 63.4653C180.129 62.6775 180.318 60.6718 181.935 59.939C183.019 59.4471 184.801 59.8874 185.251 60.947C185.661 61.9138 185.575 63.0146 185.303 63.7887C185.031 64.5628 183.738 67.9515 183.328 68.4916C183.129 68.7531 182.726 68.932 182.726 68.932C182.726 68.932 183.404 66.3724 183.063 65.2336" fill="#2B2021"/>
<path d="M187.821 84.7883C187.656 86.044 187.439 87.3857 187.003 88.6689L186.913 88.9304L187.099 89.1334C188.802 91.0015 192.614 91.8718 194.654 91.8718C198.036 91.8718 201.049 90.7228 203.138 88.6345C205.04 86.732 206.048 84.1725 206.048 81.2379C206.048 75.9983 201.988 74.3883 198.404 72.9674C195.025 71.6291 192.111 70.4698 192.111 66.8334C192.111 65.5433 192.565 64.408 193.422 63.5513C194.372 62.6018 195.72 62.0789 197.22 62.0789C199.587 62.0789 201.383 63.3518 202.274 65.6637L202.388 65.9595H203.499L203.592 65.6224L203.753 65.0479C204.049 63.9848 204.328 62.9802 204.761 62.0307L204.902 61.7211L204.648 61.494C202.793 59.8289 200.003 59.2338 198.011 59.2338C191.764 59.2338 187.725 62.7773 187.725 68.2611C187.725 73.7449 191.826 75.4857 195.448 76.9203C198.734 78.2242 201.576 79.3492 201.576 82.9787C201.576 86.3708 199.078 89.0267 195.889 89.0267C192.975 89.0267 191.014 87.7469 189.118 84.6128L188.984 84.3892H187.873L187.821 84.7917V84.7883Z" fill="#2B2021"/>
</g>
</svg>
