<svg width="300" height="150" viewBox="0 0 300 150" fill="none" xmlns="http://www.w3.org/2000/svg">
<g clip-path="url(#clip0_2934_2662)">
<path d="M139.76 65.0517C138.749 65.0517 137.332 65.6948 135.55 66.9623C133.772 68.2258 132.161 70.0289 130.761 72.318C129.597 72.5827 128.472 72.715 127.417 72.715C126.044 72.715 125.041 72.4648 124.435 71.9686C123.832 71.4743 123.526 70.8954 123.526 70.2419C123.526 69.3465 123.923 68.4264 124.704 67.5062C125.488 66.5839 126.631 65.8767 128.102 65.4053C129.576 64.9317 131.036 64.6919 132.438 64.6919C132.887 64.6919 133.315 64.7126 133.71 64.7498L133.747 64.7539L133.763 64.5802L133.726 64.5761C133.263 64.5368 132.82 64.5161 132.407 64.5161C129.952 64.5161 127.792 65.0248 125.984 66.0277C124.171 67.0347 123.251 68.3643 123.251 69.9814C123.251 70.7609 123.567 71.4475 124.189 72.0202C124.812 72.593 125.879 72.8846 127.359 72.8846C128.451 72.8846 129.547 72.7564 130.614 72.5021C128.751 75.3949 126.867 77.1443 125.014 77.6985C123.588 77.227 122.128 76.9892 120.676 76.9892C119.336 76.9892 118.687 77.2518 118.687 77.7915C118.687 77.9983 118.854 78.1638 119.183 78.2837C119.5 78.3995 120.198 78.4574 121.257 78.4574C122.415 78.4574 123.519 78.3064 124.535 78.0087C125.583 78.3519 126.681 78.5277 127.794 78.5277C129.954 78.5277 131.725 77.9797 133.069 76.9024C132.976 77.1174 132.928 77.3366 132.928 77.5599C132.928 77.835 132.988 78.0604 133.106 78.2341C133.228 78.4119 133.397 78.5008 133.612 78.5008C134.103 78.5008 134.979 77.9777 136.294 76.9024C136.052 77.2891 135.93 77.6199 135.93 77.8846C135.93 78.05 135.978 78.1948 136.071 78.3147C136.166 78.4388 136.299 78.5008 136.468 78.5008C136.652 78.5008 136.913 78.3954 137.266 78.1762C137.607 77.9652 138.313 77.4069 139.361 76.5198L139.392 76.493L139.27 76.3709L139.243 76.3937C138.261 77.2291 137.589 77.7688 137.244 77.9983C136.904 78.2237 136.658 78.3395 136.509 78.3395C136.439 78.3395 136.369 78.3147 136.301 78.263C136.234 78.2154 136.203 78.1431 136.203 78.0459C136.203 77.8887 136.336 77.6716 136.6 77.4007L139.415 74.4623H138.443L137.779 75.1551C137.783 75.0889 137.785 75.0289 137.785 74.9793C137.785 74.6422 137.585 74.4706 137.19 74.4706C136.468 74.4706 135.571 74.7973 134.52 75.4425C133.999 75.763 133.606 76.098 133.342 76.4475C132.45 77.2208 131.578 77.7233 130.746 77.9322C129.892 78.1493 129.088 78.2589 128.356 78.2589C127.55 78.2589 126.543 78.0955 125.364 77.7709C125.99 77.5951 126.54 77.3821 127.004 77.136C127.498 76.8755 128.025 76.5157 128.575 76.069C129.123 75.6224 129.599 75.1592 129.988 74.6919C130.376 74.2266 130.986 73.3995 131.801 72.2353C133.937 71.7514 136.015 70.8437 137.982 69.5389C139.959 68.2258 140.961 67.074 140.961 66.1166C140.961 65.8064 140.848 65.548 140.624 65.3474C140.403 65.1489 140.11 65.0475 139.756 65.0475L139.76 65.0517ZM134.347 68.7262C135.374 67.5558 136.377 66.6687 137.328 66.0918C138.277 65.5169 139.094 65.2254 139.758 65.2254C140.043 65.2254 140.289 65.306 140.49 65.4673C140.689 65.6265 140.79 65.823 140.79 66.0504C140.79 66.8776 139.909 67.9425 138.174 69.2204C136.452 70.488 134.353 71.4433 131.938 72.0595C132.533 70.9925 133.342 69.8697 134.347 68.7262ZM121.27 78.292C120.219 78.292 119.551 78.2403 119.287 78.1369C119.032 78.0376 118.904 77.9239 118.904 77.7957C118.904 77.4255 119.462 77.2394 120.564 77.2394C121.526 77.2394 122.748 77.471 124.194 77.9301C123.453 78.172 122.471 78.294 121.27 78.294V78.292ZM137.169 74.6464C137.446 74.6464 137.583 74.7498 137.583 74.9607C137.583 75.1716 137.5 75.3929 137.335 75.6286C137.167 75.8705 136.764 76.2634 136.137 76.8011C135.509 77.3387 134.971 77.7316 134.543 77.9715C134.117 78.2093 133.809 78.3292 133.627 78.3292C133.505 78.3292 133.416 78.2961 133.35 78.2279C133.284 78.1596 133.253 78.0893 133.253 78.0128C133.253 77.6406 133.778 76.9789 134.812 76.0484C135.848 75.1158 136.642 74.6443 137.171 74.6443L137.169 74.6464Z" fill="black"/>
<path d="M169.355 73.1141C169.493 73.1141 169.624 73.0624 169.748 72.959C169.872 72.8535 169.936 72.7212 169.936 72.5682C169.936 72.4606 169.901 72.3676 169.828 72.289C169.756 72.2084 169.665 72.1691 169.557 72.1691C169.413 72.1691 169.278 72.229 169.162 72.3469C169.047 72.4648 168.987 72.593 168.987 72.7253C168.987 72.8328 169.022 72.9259 169.094 73.0003C169.167 73.0768 169.253 73.1141 169.355 73.1141Z" fill="black"/>
<path d="M183.856 76.373L183.193 76.9354C182.667 77.3821 182.188 77.7171 181.768 77.9259C181.35 78.1348 181.038 78.2402 180.842 78.2402C180.771 78.2402 180.709 78.2175 180.655 78.1699C180.602 78.1244 180.575 78.0727 180.575 78.0107C180.575 77.928 180.629 77.8267 180.738 77.7067C180.85 77.5806 181.148 77.3118 181.623 76.9086C182.101 76.5012 182.436 76.1579 182.616 75.8871C182.8 75.612 182.893 75.3411 182.893 75.0785C182.893 74.6815 182.655 74.4809 182.188 74.4809C181.6 74.4809 180.591 75.1075 179.105 76.3978C179.586 75.8602 179.83 75.3804 179.83 74.971C179.83 74.8139 179.779 74.6857 179.675 74.5926C179.574 74.4995 179.452 74.452 179.311 74.452C178.745 74.452 177.715 75.0806 176.164 76.373L176.139 76.3957L176.131 76.404C175.92 76.6005 175.707 76.7018 175.498 76.7018C175.323 76.7018 175.184 76.6439 175.076 76.5239C175.662 75.8354 175.947 75.3184 175.947 74.9441C175.947 74.5699 175.746 74.3775 175.352 74.3775C174.957 74.3775 174.446 74.5223 173.801 74.8077C173.155 75.093 172.574 75.4983 172.076 76.0132C171.929 76.1662 171.805 76.3213 171.7 76.4785L171.154 76.9416C171.371 76.6005 171.483 76.2345 171.483 75.8498C171.483 75.6141 171.46 75.3494 171.414 75.062C171.369 74.7808 171.346 74.5699 171.346 74.4334C171.346 74.2721 171.383 74.1377 171.458 74.0322C171.534 73.9247 171.71 73.7572 171.981 73.538L172.006 73.5173L171.909 73.354L168.3 76.373L168.273 76.3957C168.269 76.3978 168.267 76.3999 168.265 76.404L168.244 76.4226C167.312 77.2332 166.648 77.7502 166.274 77.9569C165.897 78.1658 165.606 78.2713 165.403 78.2713C165.314 78.2713 165.242 78.2423 165.184 78.1844C165.126 78.1265 165.097 78.0603 165.097 77.9859V77.9239C165.134 77.8143 165.211 77.7026 165.323 77.5909L168.501 74.4644H167.446L167.436 74.4727C166.175 75.4528 165.368 76.0918 165.033 76.3751L165.014 76.3895C165.012 76.3895 165.008 76.3937 165.006 76.3957L164.996 76.4061C164.02 77.2353 163.35 77.7729 163.009 78.0004C162.67 78.2258 162.421 78.3416 162.275 78.3416C162.204 78.3416 162.134 78.3167 162.066 78.2651C162 78.2175 161.969 78.1451 161.969 78.0479C161.969 77.8908 162.101 77.6737 162.366 77.4028L165.18 74.4644H164.208L163.544 75.1571C163.548 75.0889 163.55 75.031 163.55 74.9813C163.55 74.6443 163.35 74.4727 162.955 74.4727C162.233 74.4727 161.336 74.7994 160.285 75.4445C159.756 75.7692 159.357 76.1124 159.092 76.466C157.583 77.7129 156.487 78.3478 155.837 78.3478C155.695 78.3478 155.575 78.3043 155.469 78.2154C155.366 78.1265 155.316 78.0231 155.316 77.8949C155.316 77.2477 156.691 75.2605 159.4 71.9913C162.115 68.7158 164.347 66.3006 166.03 64.8118L166.139 64.7146L165.997 64.7477C164.609 65.0682 163.036 65.976 161.315 67.4483C159.597 68.9185 157.827 70.7278 156.055 72.8308L153.435 75.9388C152.543 76.9975 151.923 77.6737 151.59 77.9487C151.261 78.2196 151.024 78.356 150.883 78.356C150.715 78.356 150.695 78.2713 150.695 78.1968C150.695 78.1968 150.695 78.1803 150.713 78.1182C150.726 78.0748 150.74 78.0397 150.759 78.0086C151.195 77.2022 152.146 75.856 153.588 74.0074C155.029 72.1588 156.478 70.4032 157.895 68.7923C159.311 67.1815 160.573 65.8622 161.646 64.8676L161.758 64.7642L161.611 64.8056C160.258 65.1778 158.759 66.0277 157.161 67.3283C155.564 68.6269 153.643 70.641 151.454 73.3105C150.575 74.3713 149.882 75.1633 149.394 75.6679C148.906 76.1703 148.325 76.6604 147.661 77.1236C147 77.5868 146.408 77.9156 145.904 78.0996C145.399 78.2837 144.905 78.3767 144.435 78.3767C144.012 78.3767 143.635 78.2919 143.319 78.1265C143.011 77.9632 142.854 77.7708 142.854 77.5517C142.854 77.5062 142.862 77.4421 142.88 77.3635C143.007 77.4338 143.131 77.471 143.249 77.471C143.414 77.471 143.561 77.4152 143.685 77.3056C143.811 77.1939 143.875 77.0554 143.875 76.8941C143.875 76.7328 143.811 76.5922 143.687 76.4702C143.563 76.3502 143.412 76.2882 143.238 76.2882C143.019 76.2882 142.827 76.373 142.667 76.5405C142.508 76.708 142.426 76.9168 142.426 77.1629C142.426 77.562 142.612 77.897 142.976 78.1596C143.337 78.4201 143.801 78.5504 144.357 78.5504C144.876 78.5504 145.409 78.4532 145.945 78.2588C146.478 78.0665 147.074 77.7419 147.715 77.2973C148.354 76.8527 148.954 76.3461 149.497 75.7919C150.039 75.2378 150.794 74.3672 151.741 73.203C152.686 72.043 153.528 71.067 154.243 70.3039C154.957 69.5409 155.777 68.7489 156.683 67.9507C157.591 67.1505 158.389 66.5343 159.053 66.1187C159.704 65.7113 160.405 65.3722 161.137 65.1075C159.725 66.2696 158.768 67.0864 158.288 67.5372C157.804 67.9921 156.981 68.8502 155.842 70.0909C154.702 71.3316 153.728 72.4524 152.951 73.4201C152.171 74.3879 151.58 75.1985 151.191 75.8292C150.802 76.4598 150.562 76.921 150.476 77.2022C150.391 77.4834 150.347 77.7295 150.347 77.9342C150.347 78.0934 150.395 78.234 150.488 78.354C150.583 78.478 150.713 78.5401 150.877 78.5401C151.11 78.5401 151.421 78.3498 151.82 77.9611C152.208 77.5827 153.11 76.5529 154.502 74.9007C155.889 73.2526 157.074 71.8879 158.023 70.8436C158.97 69.8014 159.957 68.8254 160.955 67.9425C161.952 67.0595 162.82 66.3937 163.536 65.9636C164.237 65.5438 164.88 65.246 165.451 65.0827V65.0868C163.141 66.8507 160.8 69.1005 158.493 71.7762C156.175 74.4665 155 76.4268 155 77.6013C155 77.8784 155.083 78.1058 155.246 78.2795C155.409 78.4532 155.61 78.5421 155.842 78.5421C156.512 78.5421 157.519 77.9921 158.838 76.9106C158.747 77.1236 158.699 77.3407 158.699 77.5641C158.699 77.8391 158.759 78.0645 158.877 78.2382C158.999 78.416 159.169 78.5049 159.384 78.5049C159.874 78.5049 160.751 77.9818 162.066 76.9065C161.824 77.2932 161.702 77.624 161.702 77.8887C161.702 78.0541 161.749 78.1989 161.842 78.3188C161.938 78.4429 162.072 78.5049 162.239 78.5049C162.423 78.5049 162.684 78.3995 163.038 78.1803C163.379 77.9694 164.082 77.4131 165.124 76.5281L166.102 75.7196L166.838 75.1612C165.84 76.1269 165.25 76.7535 165.089 77.0202C164.919 77.3035 164.832 77.5744 164.832 77.8287C164.832 78.0148 164.886 78.1658 164.996 78.2775C165.103 78.3891 165.246 78.445 165.42 78.445C165.945 78.445 166.919 77.8163 168.397 76.5219L171.199 74.2038C171.15 74.3941 171.115 74.6009 171.092 74.8242C171.028 75.6451 170.67 76.4392 170.027 77.1836C169.386 77.9259 168.807 78.3023 168.304 78.3023C167.982 78.3023 167.814 78.1865 167.794 77.9466C167.841 77.959 167.878 77.9632 167.911 77.9632C168.019 77.9632 168.122 77.9156 168.218 77.8205C168.313 77.7254 168.36 77.6158 168.36 77.4958C168.36 77.4069 168.325 77.3283 168.255 77.2622C168.186 77.196 168.104 77.1629 168.009 77.1629C167.862 77.1629 167.732 77.2208 167.624 77.3366C167.517 77.4503 167.461 77.5909 167.461 77.7502C167.461 77.9632 167.545 78.141 167.715 78.2754C167.88 78.4077 168.083 78.4739 168.313 78.4739C169.142 78.4739 170.207 77.9404 171.485 76.89C171.381 77.136 171.328 77.3883 171.328 77.6426C171.328 77.897 171.398 78.0934 171.534 78.2382C171.673 78.3829 171.842 78.4553 172.043 78.4553C172.415 78.4553 172.885 78.2775 173.437 77.9301C173.976 77.5889 174.491 77.165 174.969 76.6666C175.114 76.8052 175.292 76.8755 175.498 76.8755C175.753 76.8755 176.003 76.7617 176.241 76.5446L176.257 76.5301C176.261 76.526 176.265 76.5239 176.27 76.5198H176.272C177.785 75.2502 178.811 74.6071 179.316 74.6071C179.529 74.6071 179.553 74.7084 179.553 74.787C179.553 74.8697 179.444 75.0785 178.927 75.5976L176.154 78.3581H177.233L177.244 78.3478C178.383 77.258 179.394 76.3606 180.252 75.6782C181.104 75.002 181.776 74.6588 182.25 74.6588C182.605 74.6588 182.605 74.8304 182.605 74.8862C182.605 74.9958 182.475 75.2357 181.853 75.763L181.402 76.1476C181.015 76.4743 180.769 76.7018 180.666 76.8217C180.562 76.9416 180.469 77.0905 180.387 77.2622C180.302 77.4379 180.261 77.6116 180.261 77.7791C180.261 77.959 180.316 78.112 180.428 78.232C180.54 78.354 180.674 78.416 180.829 78.416C181.503 78.416 182.558 77.7791 183.966 76.5219L183.995 76.495L183.875 76.3751L183.856 76.373ZM162.922 74.6443C163.199 74.6443 163.335 74.7477 163.335 74.9586C163.335 75.1695 163.253 75.3908 163.087 75.6265C162.92 75.8684 162.517 76.2613 161.89 76.799C161.261 77.3366 160.724 77.7295 160.296 77.9694C159.87 78.2072 159.562 78.3271 159.38 78.3271C159.258 78.3271 159.169 78.294 159.103 78.2258C159.036 78.1575 159.005 78.0872 159.005 78.0107C159.005 77.6385 159.531 76.9768 160.564 76.0463C161.6 75.1137 162.395 74.6422 162.924 74.6422L162.922 74.6443ZM172.047 78.2795C171.938 78.2795 171.842 78.2444 171.758 78.1761C171.675 78.1079 171.634 78.0355 171.634 77.9549C171.634 77.6468 172.136 76.9913 173.127 76.0091C174.117 75.0268 174.864 74.5285 175.347 74.5285C175.457 74.5285 175.552 74.5636 175.641 74.6381C175.728 74.7105 175.769 74.7994 175.769 74.9131C175.769 75.1406 175.662 75.4156 175.453 75.732C175.24 76.0525 174.936 76.4206 174.551 76.8258C174.167 77.2291 173.716 77.5785 173.209 77.8598C172.705 78.1389 172.314 78.2816 172.047 78.2816V78.2795Z" fill="black"/>
<path d="M155.312 49.4334C155.411 49.1935 155.56 49.0115 155.751 48.8544C156.032 48.6807 156.321 48.6807 156.561 48.6807C156.71 48.6807 156.727 48.5483 156.727 48.4822H152.523C152.49 48.5483 152.539 48.6807 152.605 48.6807C152.994 48.6807 153.267 48.6807 153.548 48.8709C153.921 49.177 154.127 49.6898 153.854 50.2109L150.577 58.3767C150.511 58.4925 150.403 58.5091 150.354 58.4098L146.745 49.6898C146.563 49.1108 147.275 48.6807 147.589 48.6807H147.978C148.102 48.6807 148.102 48.4822 148.102 48.4822H142.591C142.558 48.5814 142.607 48.6807 142.69 48.6807C143.302 48.6807 143.84 49.0446 144.229 49.5657C146.222 53.844 147.978 58.294 149.979 62.5641L155.308 49.4334H155.312Z" fill="black"/>
<path d="M149.669 44.7415L149.694 44.7167L150.579 45.5273H151.927V45.9408H154.251L154.4 45.5273L154.69 45.9408L154.169 47.5372H145.24L144.71 45.9408L145.008 45.5273L145.157 45.9408H147.465V45.5273H148.821L149.665 44.7415H149.669ZM149.669 45.3205L148.999 45.9408H147.825V46.3544H145.244L145.542 47.1236H153.873L154.105 46.3544H151.582V45.9408H150.407L149.704 45.2874L149.671 45.3205H149.669Z" fill="black"/>
<path d="M200 125H100V25H200V125ZM103.97 121.03H196.03V28.9702H103.97V121.03Z" fill="black"/>
<path d="M114.789 83.596C115.42 83.6125 116.226 83.6373 116.966 83.6373C117.707 83.6373 119.117 83.6063 119.764 83.5898V83.7635L119.549 83.8007C118.859 83.8917 118.428 84.1667 118.428 84.4976C118.428 84.7809 118.464 84.9918 118.701 85.5749L121.813 92.8433L124.87 85.4839C125.06 85.0269 125.083 84.7643 125.008 84.4583C124.917 84.0799 124.477 83.7676 124.115 83.7676H123.854V83.5774C124.342 83.5939 125.374 83.6249 125.941 83.6249C126.507 83.6249 127.144 83.5877 127.694 83.5732L127.707 83.7697L127.312 83.8172C126.658 83.9392 126.416 84.0964 125.908 85.3536L121.441 96.7639H121.284L116.512 85.0414C116.154 84.1812 115.573 83.8607 114.994 83.7904L114.791 83.7718V83.5981" fill="black"/>
<path fill-rule="evenodd" clip-rule="evenodd" d="M172.94 85.8333C172.955 85.7196 172.953 85.5211 172.953 85.5211L185.103 85.5107C185.103 85.5107 185.136 87.1381 185.136 87.9859C184.961 87.9859 185.039 87.9901 184.917 87.9859C184.81 87.0058 184.16 86.3275 183.402 86.2841C182.851 86.2531 182.184 86.2469 181.458 86.2655V94.6443C181.458 94.9917 181.381 95.7796 181.807 96.1993C182.202 96.4185 182.57 96.3792 182.963 96.433C182.963 96.5054 182.967 96.6025 182.967 96.6729C181.406 96.6729 179.899 96.6687 178.337 96.6687C178.34 96.5901 178.337 96.524 178.337 96.4227C178.838 96.4164 179.411 96.3234 179.619 96.0277C179.837 95.7196 179.795 95.06 179.795 94.8594V86.28C177.359 86.2324 176.733 86.2076 176.487 88.0169C176.45 88.0169 176.414 88.0107 176.34 88.0066C176.34 87.3035 176.334 86.617 176.334 85.914C175.924 85.9222 175.72 86.0215 175.523 86.2117C175.329 86.404 175.304 87.2746 175.304 87.5558V96.8507H175.128C172.74 93.9392 168.075 88.1824 167.68 87.6985C167.661 87.6778 167.643 87.7254 167.643 87.7254C167.643 87.7254 167.647 92.5455 167.647 94.6402C167.647 95.4652 167.703 95.8912 167.992 96.1621C168.399 96.282 168.732 96.3296 169.218 96.3337V96.6356H165.409V96.3337C166.005 96.3544 166.305 96.2448 166.636 96.0318C166.801 95.3102 166.811 94.7787 166.811 93.9371V86.7783C166.237 86.3255 165.99 85.7796 164.957 85.7444C164.971 85.6576 164.963 85.5231 164.963 85.5231C164.963 85.5231 167.103 85.5294 168.153 85.5294C170.271 88.1948 172.361 90.8519 174.479 93.5174C174.491 93.5339 174.504 93.5174 174.516 93.5339C174.531 92.4607 174.531 89.3176 174.526 87.438C174.526 86.6398 174.309 86.0732 173.991 86.0008C173.745 85.8602 173.313 85.8292 172.94 85.8292" fill="black"/>
<path d="M159.992 96.2718C156.911 96.2718 156.024 93.4451 156.024 90.8913C156.024 87.5704 157.763 85.8582 159.93 85.8582C162.641 85.8582 163.875 88.6477 163.875 91.1829C163.875 94.082 162.483 96.2697 159.992 96.2697V96.2718ZM159.977 85.1986C156.607 85.1986 154.119 87.496 154.119 91.185C154.119 94.3032 156.292 96.826 159.93 96.826C163.567 96.826 165.753 94.0923 165.753 91.0133C165.753 87.7358 163.058 85.2007 159.977 85.2007" fill="black"/>
<path d="M126.834 92.2022L128.412 88.5008C128.412 88.5008 128.499 88.4078 128.517 88.4533C128.726 88.9723 129.971 92.2002 129.971 92.2002H126.834V92.2022ZM154.322 96.4206C153.945 96.3503 153.569 96.3069 153.315 96.1187C152.99 95.9264 153.009 95.2771 153.009 94.6691V87.2229C153.009 86.9975 152.907 86.4888 153.271 86.1332C153.464 85.945 153.976 85.8933 154.322 85.8747V85.5728H151.214C150.105 88.1968 148.995 90.823 147.887 93.4491C146.689 90.823 145.604 88.1989 144.407 85.5728H141.253C141.239 85.5873 141.224 85.6017 141.21 85.6162V85.7878C141.499 85.8416 142.364 86.005 142.56 86.3399C142.624 86.4495 142.699 86.6274 142.699 87.2229C142.699 88.3002 142.717 94.0964 142.717 94.5471C142.717 95.091 142.639 95.5066 142.523 95.732C142.33 96.1042 141.847 96.3089 141.342 96.3772C141.547 95.488 141.716 94.5533 141.921 93.6621C141.84 93.6621 141.851 93.6621 141.708 93.6621C141.414 94.4355 140.751 95.8395 139.146 95.8623C138.447 95.8726 138.034 95.8478 137.424 95.8685C136.902 95.8685 136.774 95.3184 136.774 94.7663C136.774 94.5513 136.776 88.1576 136.776 87.287C136.776 86.7866 136.78 86.4495 136.995 86.1766C137.211 85.9036 137.514 85.8664 138.005 85.8747C138.005 85.7734 138.002 85.5728 138.002 85.5728H133.668V85.8313C134.177 85.9574 134.613 85.914 134.895 86.2614C135.079 86.4888 135.006 87.1526 135.006 87.318V95.0765C135.006 95.6824 134.814 96.1394 134.282 96.2469C133.809 96.2179 133.478 95.6121 133.393 95.3949C132.475 93.3581 131.073 89.9752 130.155 87.9384C129.806 87.1071 129.082 85.4425 129.082 85.4425L128.832 85.4859C128.832 85.4859 127.874 87.7316 127.674 88.201C126.71 90.4239 125.709 92.6323 124.785 94.8718C124.092 96.342 123.47 96.3358 123.253 96.3772C123.24 96.4619 123.253 96.6356 123.253 96.6356L126.58 96.6439V96.3772C126.15 96.3813 125.848 96.3296 125.662 96.1911C125.403 95.9988 125.362 95.6658 125.503 95.306C125.738 94.7043 126.257 93.6352 126.58 92.9322H130.403C130.904 94.1026 131.158 94.7457 131.342 95.1964C131.826 96.3834 130.558 96.3751 130.389 96.371C130.378 96.4764 130.393 96.4888 130.389 96.677H144.975C144.975 96.677 144.983 96.5054 144.983 96.3751C144.46 96.3627 143.972 96.2572 143.757 95.945C143.503 95.6638 143.538 94.7477 143.538 94.481V87.7233L147.258 96.6687L147.455 96.6749L151.344 87.7585C151.344 87.7585 151.292 91.8259 151.307 93.8337C151.307 94.4479 151.452 95.4404 151.22 95.8995C151.042 96.2531 150.492 96.3751 149.994 96.4165V96.6749C151.452 96.6605 152.88 96.6749 154.338 96.6584C154.324 96.586 154.342 96.4888 154.328 96.4165" fill="black"/>
</g>
<defs>
<clipPath id="clip0_2934_2662">
<rect width="100" height="100" fill="white" transform="translate(100 25)"/>
</clipPath>
</defs>
</svg>
