<svg width="300" height="150" viewBox="0 0 300 150" fill="none" xmlns="http://www.w3.org/2000/svg">
<g clip-path="url(#clip0_2934_2662)">
<path d="M135.664 61.0724C134.249 61.0724 132.266 61.9728 129.77 63.7474C127.28 65.5162 125.025 68.0406 123.065 71.2453C121.436 71.6158 119.861 71.8011 118.384 71.8011C116.462 71.8011 115.058 71.4508 114.21 70.756C113.364 70.0642 112.936 69.2536 112.936 68.3388C112.936 67.0852 113.492 65.797 114.586 64.5087C115.683 63.2176 117.284 62.2275 119.342 61.5675C121.407 60.9045 123.45 60.5687 125.413 60.5687C126.041 60.5687 126.641 60.5976 127.194 60.6498L127.246 60.6555L127.269 60.4124L127.217 60.4066C126.568 60.3516 125.949 60.3226 125.37 60.3226C121.933 60.3226 118.908 61.0348 116.378 62.4388C113.839 63.8487 112.551 65.7101 112.551 67.974C112.551 69.0654 112.994 70.0265 113.865 70.8284C114.737 71.6303 116.23 72.0385 118.303 72.0385C119.832 72.0385 121.366 71.859 122.86 71.5029C120.251 75.553 117.614 78.0021 115.02 78.778C113.023 78.1179 110.979 77.785 108.947 77.785C107.071 77.785 106.162 78.1527 106.162 78.9082C106.162 79.1977 106.396 79.4293 106.857 79.5972C107.299 79.7594 108.278 79.8404 109.76 79.8404C111.381 79.8404 112.927 79.6291 114.349 79.2122C115.816 79.6928 117.354 79.9388 118.911 79.9388C121.936 79.9388 124.414 79.1717 126.296 77.6634C126.166 77.9645 126.099 78.2713 126.099 78.584C126.099 78.969 126.183 79.2846 126.348 79.5278C126.519 79.7767 126.756 79.9012 127.058 79.9012C127.744 79.9012 128.971 79.1688 130.812 77.6634C130.474 78.2048 130.303 78.668 130.303 79.0385C130.303 79.2701 130.369 79.4728 130.5 79.6407C130.633 79.8144 130.818 79.9012 131.055 79.9012C131.313 79.9012 131.678 79.7536 132.173 79.4467C132.651 79.1514 133.638 78.3698 135.106 77.1278L135.149 77.0902L134.978 76.9194L134.94 76.9512C133.565 78.1208 132.625 78.8764 132.141 79.1977C131.666 79.5133 131.322 79.6754 131.113 79.6754C131.015 79.6754 130.917 79.6407 130.821 79.5683C130.728 79.5017 130.685 79.4004 130.685 79.2643C130.685 79.0443 130.87 78.7403 131.241 78.3611L135.181 74.2474H133.82L132.891 75.2172C132.897 75.1245 132.9 75.0406 132.9 74.9711C132.9 74.4992 132.619 74.2589 132.066 74.2589C131.055 74.2589 129.799 74.7163 128.328 75.6196C127.599 76.0683 127.049 76.5373 126.678 77.0265C125.431 78.1092 124.209 78.8127 123.045 79.1051C121.85 79.4091 120.723 79.5625 119.699 79.5625C118.57 79.5625 117.16 79.3338 115.51 78.8793C116.387 78.6332 117.157 78.335 117.805 77.9905C118.497 77.6258 119.235 77.1221 120.005 76.4967C120.773 75.8714 121.438 75.223 121.983 74.5687C122.527 73.9173 123.381 72.7594 124.522 71.1295C127.512 70.4521 130.421 69.1812 133.175 67.3545C135.942 65.5162 137.346 63.9037 137.346 62.5633C137.346 62.1291 137.187 61.7672 136.874 61.4864C136.565 61.2085 136.153 61.0666 135.658 61.0666L135.664 61.0724ZM128.085 66.2168C129.524 64.5782 130.928 63.3363 132.26 62.5286C133.589 61.7238 134.732 61.3156 135.661 61.3156C136.061 61.3156 136.405 61.4285 136.686 61.6543C136.964 61.8772 137.106 62.1522 137.106 62.4707C137.106 63.6287 135.873 65.1196 133.444 66.9087C131.032 68.6833 128.094 70.0207 124.713 70.8834C125.546 69.3896 126.678 67.8177 128.085 66.2168ZM109.778 79.6088C108.307 79.6088 107.372 79.5364 107.001 79.3917C106.645 79.2527 106.466 79.0935 106.466 78.914C106.466 78.3958 107.247 78.1353 108.79 78.1353C110.137 78.1353 111.847 78.4595 113.871 79.1022C112.835 79.4409 111.46 79.6117 109.778 79.6117V79.6088ZM132.037 74.505C132.425 74.505 132.616 74.6498 132.616 74.945C132.616 75.2403 132.5 75.5501 132.268 75.8801C132.034 76.2188 131.469 76.7689 130.592 77.5216C129.712 78.2742 128.96 78.8243 128.36 79.1601C127.764 79.493 127.333 79.6609 127.078 79.6609C126.907 79.6609 126.783 79.6146 126.69 79.5191C126.597 79.4235 126.554 79.3251 126.554 79.218C126.554 78.6969 127.289 77.7705 128.737 76.4678C130.187 75.1622 131.299 74.5021 132.04 74.5021L132.037 74.505Z" fill="black"/>
<path d="M177.097 72.3599C177.291 72.3599 177.473 72.2875 177.647 72.1427C177.821 71.9951 177.91 71.8098 177.91 71.5956C177.91 71.4451 177.861 71.3148 177.76 71.2048C177.658 71.0919 177.531 71.0369 177.381 71.0369C177.178 71.0369 176.99 71.1208 176.828 71.2858C176.665 71.4508 176.582 71.6303 176.582 71.8156C176.582 71.9661 176.631 72.0964 176.732 72.2006C176.833 72.3078 176.955 72.3599 177.097 72.3599Z" fill="black"/>
<path d="M197.399 76.9223L196.47 77.7098C195.735 78.3351 195.063 78.8041 194.475 79.0964C193.89 79.3888 193.453 79.5365 193.178 79.5365C193.08 79.5365 192.993 79.5046 192.918 79.4381C192.843 79.3744 192.805 79.302 192.805 79.2151C192.805 79.0993 192.88 78.9575 193.034 78.7896C193.19 78.613 193.607 78.2366 194.273 77.6721C194.941 77.1018 195.41 76.6213 195.662 76.242C195.92 75.857 196.05 75.4778 196.05 75.1101C196.05 74.5543 195.717 74.2735 195.063 74.2735C194.241 74.2735 192.828 75.1506 190.747 76.9571C191.421 76.2044 191.763 75.5328 191.763 74.9596C191.763 74.7395 191.69 74.5601 191.546 74.4298C191.404 74.2995 191.233 74.2329 191.036 74.2329C190.243 74.2329 188.801 75.113 186.63 76.9223L186.595 76.9542L186.584 76.9658C186.288 77.2408 185.99 77.3826 185.698 77.3826C185.452 77.3826 185.258 77.3016 185.107 77.1337C185.926 76.1697 186.326 75.4459 186.326 74.9219C186.326 74.3979 186.045 74.1287 185.492 74.1287C184.939 74.1287 184.224 74.3314 183.321 74.7309C182.418 75.1304 181.604 75.6978 180.907 76.4186C180.701 76.6328 180.527 76.85 180.38 77.07L179.615 77.7185C179.919 77.2408 180.076 76.7284 180.076 76.1899C180.076 75.8599 180.044 75.4893 179.98 75.0869C179.917 74.6932 179.885 74.3979 179.885 74.2069C179.885 73.9811 179.937 73.7929 180.041 73.6452C180.148 73.4947 180.394 73.2602 180.773 72.9534L180.808 72.9244L180.672 72.6957L175.62 76.9223L175.583 76.9542C175.577 76.9571 175.574 76.96 175.571 76.9658L175.542 76.9918C174.237 78.1266 173.307 78.8504 172.783 79.1399C172.257 79.4323 171.848 79.5799 171.565 79.5799C171.44 79.5799 171.339 79.5394 171.258 79.4583C171.177 79.3773 171.136 79.2846 171.136 79.1804V79.0936C171.188 78.9401 171.295 78.7838 171.452 78.6275L175.901 74.2503H174.425L174.41 74.2619C172.644 75.6341 171.515 76.5286 171.046 76.9252L171.02 76.9455C171.017 76.9455 171.012 76.9513 171.009 76.9542L170.994 76.9687C169.628 78.1295 168.69 78.8822 168.212 79.2007C167.737 79.5162 167.39 79.6783 167.185 79.6783C167.086 79.6783 166.988 79.6436 166.892 79.5712C166.8 79.5046 166.756 79.4033 166.756 79.2673C166.756 79.0472 166.941 78.7433 167.312 78.364L171.252 74.2503H169.891L168.962 75.2201C168.968 75.1246 168.971 75.0435 168.971 74.974C168.971 74.5022 168.69 74.2619 168.137 74.2619C167.127 74.2619 165.87 74.7193 164.4 75.6225C163.658 76.077 163.1 76.5576 162.729 77.0526C160.616 78.7983 159.082 79.687 158.173 79.687C157.973 79.687 157.805 79.6262 157.657 79.5017C157.512 79.3773 157.443 79.2325 157.443 79.053C157.443 78.1469 159.368 75.3649 163.161 70.7879C166.962 66.2023 170.085 62.821 172.442 60.7366L172.595 60.6006L172.395 60.6469C170.453 61.0956 168.25 62.3665 165.841 64.4277C163.436 66.486 160.957 69.0191 158.477 71.9633L154.809 76.3144C153.561 77.7966 152.692 78.7433 152.226 79.1283C151.766 79.5075 151.433 79.6986 151.236 79.6986C151.002 79.6986 150.973 79.5799 150.973 79.4757C150.973 79.4757 150.973 79.4525 150.999 79.3657C151.016 79.3049 151.036 79.2557 151.063 79.2123C151.673 78.0832 153.005 76.1986 155.023 73.6105C157.041 71.0224 159.07 68.5646 161.053 66.3094C163.036 64.0543 164.802 62.2073 166.304 60.8148L166.461 60.6701L166.255 60.728C164.362 61.2491 162.263 62.4389 160.025 64.2598C157.79 66.0778 155.101 68.8975 152.035 72.6349C150.805 74.12 149.835 75.2288 149.152 75.9352C148.469 76.6386 147.655 77.3247 146.726 77.9732C145.8 78.6217 144.972 79.082 144.265 79.3396C143.559 79.5973 142.867 79.7276 142.21 79.7276C141.616 79.7276 141.089 79.6089 140.646 79.3773C140.215 79.1486 139.995 78.8793 139.995 78.5725C139.995 78.5088 140.007 78.419 140.033 78.309C140.209 78.4074 140.383 78.4596 140.548 78.4596C140.78 78.4596 140.985 78.3814 141.159 78.228C141.335 78.0716 141.425 77.8777 141.425 77.6519C141.425 77.4261 141.335 77.2292 141.162 77.0584C140.988 76.8905 140.777 76.8036 140.534 76.8036C140.227 76.8036 139.957 76.9223 139.735 77.1568C139.512 77.3913 139.396 77.6837 139.396 78.0282C139.396 78.5869 139.656 79.0559 140.166 79.4236C140.673 79.7883 141.321 79.9707 142.1 79.9707C142.826 79.9707 143.573 79.8347 144.323 79.5625C145.07 79.2933 145.904 78.8388 146.801 78.2164C147.696 77.594 148.535 76.8847 149.297 76.1089C150.055 75.333 151.112 74.1142 152.438 72.4844C153.761 70.8603 154.939 69.4939 155.941 68.4256C156.939 67.3574 158.089 66.2486 159.357 65.1312C160.627 64.0108 161.745 63.1481 162.674 62.5663C163.586 61.996 164.568 61.5212 165.592 61.1506C163.615 62.7776 162.275 63.9211 161.603 64.5522C160.926 65.1891 159.773 66.3905 158.178 68.1275C156.583 69.8644 155.22 71.4335 154.131 72.7883C153.04 74.1432 152.212 75.278 151.668 76.161C151.123 77.0439 150.788 77.6895 150.666 78.0832C150.547 78.4769 150.486 78.8214 150.486 79.108C150.486 79.3309 150.553 79.5278 150.683 79.6957C150.816 79.8694 150.999 79.9563 151.228 79.9563C151.555 79.9563 151.989 79.6899 152.548 79.1457C153.092 78.6159 154.354 77.1742 156.302 74.8611C158.245 72.5539 159.904 70.6432 161.233 69.1812C162.558 67.7222 163.939 66.3558 165.338 65.1196C166.733 63.8835 167.949 62.9513 168.95 62.3491C169.932 61.7615 170.832 61.3446 171.631 61.1159V61.1217C168.398 63.5911 165.12 66.7408 161.89 70.4869C158.644 74.2532 157 76.9976 157 78.6419C157 79.0299 157.116 79.3483 157.345 79.5915C157.573 79.8347 157.854 79.9591 158.178 79.9591C159.116 79.9591 160.526 79.1891 162.373 77.675C162.246 77.9732 162.179 78.2772 162.179 78.5898C162.179 78.9749 162.263 79.2904 162.428 79.5336C162.599 79.7826 162.836 79.907 163.137 79.907C163.823 79.907 165.051 79.1746 166.892 77.6692C166.553 78.2106 166.383 78.6738 166.383 79.0443C166.383 79.2759 166.449 79.4786 166.579 79.6465C166.713 79.8202 166.901 79.907 167.135 79.907C167.393 79.907 167.758 79.7594 168.253 79.4525C168.73 79.1572 169.715 78.3785 171.174 77.1395L172.543 76.0075L173.574 75.2259C172.175 76.5778 171.35 77.455 171.125 77.8285C170.887 78.2251 170.766 78.6043 170.766 78.9604C170.766 79.2209 170.841 79.4323 170.994 79.5886C171.145 79.7449 171.345 79.8231 171.588 79.8231C172.323 79.8231 173.687 78.943 175.756 77.1308L179.679 73.8855C179.61 74.1519 179.56 74.4414 179.529 74.754C179.439 75.9033 178.938 77.015 178.038 78.0572C177.14 79.0965 176.33 79.6233 175.626 79.6233C175.175 79.6233 174.94 79.4612 174.911 79.1254C174.978 79.1428 175.03 79.1486 175.076 79.1486C175.227 79.1486 175.371 79.082 175.505 78.9488C175.638 78.8156 175.704 78.6622 175.704 78.4943C175.704 78.3698 175.655 78.2598 175.557 78.1672C175.461 78.0745 175.345 78.0282 175.212 78.0282C175.007 78.0282 174.824 78.1093 174.674 78.2714C174.523 78.4306 174.445 78.6275 174.445 78.8504C174.445 79.1486 174.564 79.3975 174.801 79.5857C175.033 79.771 175.316 79.8636 175.638 79.8636C176.799 79.8636 178.29 79.1167 180.079 77.6461C179.934 77.9906 179.859 78.3438 179.859 78.6998C179.859 79.0559 179.957 79.3309 180.148 79.5336C180.342 79.7362 180.579 79.8376 180.86 79.8376C181.381 79.8376 182.039 79.5886 182.812 79.1022C183.567 78.6246 184.288 78.0311 184.957 77.3334C185.159 77.5274 185.408 77.6258 185.698 77.6258C186.054 77.6258 186.404 77.4666 186.737 77.1626L186.76 77.1424C186.766 77.1366 186.772 77.1337 186.778 77.1279H186.78C188.9 75.3504 190.335 74.45 191.042 74.45C191.34 74.45 191.375 74.5919 191.375 74.7019C191.375 74.8177 191.221 75.1101 190.498 75.8367L186.615 79.7015H188.127L188.141 79.687C189.736 78.1614 191.152 76.905 192.353 75.9496C193.546 75.003 194.487 74.5224 195.15 74.5224C195.648 74.5224 195.648 74.7627 195.648 74.8409C195.648 74.9943 195.465 75.3301 194.594 76.0683L193.963 76.6068C193.422 77.0642 193.077 77.3826 192.932 77.5505C192.788 77.7185 192.657 77.9269 192.541 78.1672C192.423 78.4132 192.365 78.6564 192.365 78.8909C192.365 79.1428 192.443 79.357 192.599 79.5249C192.756 79.6957 192.944 79.7826 193.161 79.7826C194.105 79.7826 195.581 78.8909 197.553 77.1308L197.593 77.0931L197.425 76.9252L197.399 76.9223ZM168.091 74.5022C168.479 74.5022 168.67 74.6469 168.67 74.9422C168.67 75.2375 168.554 75.5472 168.322 75.8773C168.088 76.216 167.523 76.766 166.646 77.5187C165.766 78.2714 165.013 78.8214 164.414 79.1572C163.818 79.4902 163.386 79.6581 163.132 79.6581C162.961 79.6581 162.836 79.6118 162.744 79.5162C162.651 79.4207 162.608 79.3223 162.608 79.2151C162.608 78.694 163.343 77.7677 164.79 76.4649C166.241 75.1593 167.352 74.4993 168.094 74.4993L168.091 74.5022ZM180.866 79.5915C180.713 79.5915 180.579 79.5423 180.461 79.4467C180.345 79.3512 180.287 79.2499 180.287 79.137C180.287 78.7056 180.991 77.7879 182.377 76.4128C183.764 75.0377 184.809 74.34 185.486 74.34C185.64 74.34 185.773 74.3893 185.898 74.4935C186.019 74.5948 186.077 74.7193 186.077 74.8785C186.077 75.1969 185.926 75.582 185.634 76.0249C185.336 76.4736 184.91 76.9889 184.372 77.5563C183.833 78.1209 183.202 78.6101 182.493 79.0038C181.787 79.3946 181.24 79.5944 180.866 79.5944V79.5915Z" fill="black"/>
<path d="M157.437 39.2068C157.576 38.871 157.785 38.6162 158.051 38.3962C158.445 38.153 158.85 38.153 159.186 38.153C159.394 38.153 159.417 37.9678 159.417 37.8751H153.532C153.486 37.9678 153.555 38.153 153.648 38.153C154.192 38.153 154.574 38.153 154.968 38.4194C155.489 38.8478 155.778 39.5658 155.396 40.2953L150.808 51.7275C150.715 51.8896 150.565 51.9128 150.495 51.7738L145.443 39.5658C145.189 38.7552 146.184 38.153 146.625 38.153H147.169C147.342 38.153 147.342 37.8751 147.342 37.8751H139.627C139.581 38.0141 139.651 38.153 139.766 38.153C140.623 38.153 141.376 38.6626 141.92 39.3921C144.711 45.3817 147.169 51.6117 149.971 57.5898L157.431 39.2068H157.437Z" fill="black"/>
<path d="M149.537 32.6381L149.572 32.6034L150.811 33.7382H152.698V34.3172H155.952L156.16 33.7382L156.566 34.3172L155.836 36.5521H143.336L142.595 34.3172L143.012 33.7382L143.22 34.3172H146.451V33.7382H148.35L149.531 32.6381H149.537ZM149.537 33.4487L148.599 34.3172H146.955V34.8962H143.342L143.758 35.9731H155.422L155.747 34.8962H152.215V34.3172H150.57L149.586 33.4024L149.54 33.4487H149.537Z" fill="black"/>
<path d="M220 145H80V5H220V145ZM85.5583 139.442H214.442V10.5583H85.5583V139.442Z" fill="black"/>
<path d="M100.705 87.0343C101.588 87.0574 102.717 87.0922 103.753 87.0922C104.789 87.0922 106.764 87.0488 107.67 87.0256V87.2688L107.369 87.3209C106.402 87.4483 105.8 87.8333 105.8 88.2965C105.8 88.6931 105.849 88.9884 106.182 89.8048L110.539 99.9805L114.818 89.6774C115.084 89.0376 115.116 88.6699 115.012 88.2415C114.884 87.7117 114.268 87.2746 113.761 87.2746H113.396V87.0082C114.079 87.0314 115.524 87.0748 116.317 87.0748C117.11 87.0748 118.002 87.0227 118.772 87.0024L118.789 87.2775L118.237 87.344C117.322 87.5148 116.983 87.7349 116.271 89.495L110.018 105.469H109.798L103.116 89.0579C102.615 87.8536 101.802 87.4048 100.991 87.3064L100.708 87.2804V87.0372" fill="black"/>
<path fill-rule="evenodd" clip-rule="evenodd" d="M182.117 90.1666C182.137 90.0074 182.134 89.7294 182.134 89.7294L199.145 89.715C199.145 89.715 199.191 91.9933 199.191 93.1802C198.945 93.1802 199.055 93.186 198.884 93.1802C198.734 91.808 197.825 90.8585 196.762 90.7977C195.992 90.7543 195.057 90.7456 194.041 90.7716V102.502C194.041 102.988 193.934 104.091 194.53 104.679C195.083 104.986 195.598 104.931 196.148 105.006C196.148 105.107 196.154 105.243 196.154 105.342C193.969 105.342 191.858 105.336 189.672 105.336C189.675 105.226 189.672 105.133 189.672 104.992C190.373 104.983 191.175 104.853 191.467 104.439C191.771 104.007 191.713 103.084 191.713 102.803V90.7919C188.303 90.7253 187.426 90.6906 187.081 93.2236C187.029 93.2236 186.98 93.215 186.876 93.2092C186.876 92.2249 186.867 91.2638 186.867 90.2795C186.294 90.2911 186.007 90.43 185.732 90.6964C185.46 90.9656 185.426 92.1844 185.426 92.5781V105.591H185.179C181.836 101.515 175.305 93.4552 174.752 92.7778C174.726 92.7489 174.7 92.8155 174.7 92.8155C174.7 92.8155 174.706 99.5636 174.706 102.496C174.706 103.651 174.784 104.248 175.189 104.627C175.759 104.795 176.225 104.861 176.906 104.867V105.29H171.573V104.867C172.407 104.896 172.827 104.743 173.29 104.444C173.522 103.434 173.536 102.69 173.536 101.512V91.4896C172.731 90.8556 172.387 90.0913 170.939 90.0421C170.959 89.9205 170.948 89.7323 170.948 89.7323C170.948 89.7323 173.944 89.741 175.415 89.741C178.379 93.4726 181.306 97.1926 184.27 100.924C184.288 100.947 184.305 100.924 184.323 100.947C184.343 99.4449 184.343 95.0446 184.337 92.4131C184.337 91.2956 184.033 90.5024 183.587 90.4011C183.243 90.2042 182.638 90.1608 182.117 90.1608" fill="black"/>
<path d="M163.988 104.78C159.675 104.78 158.433 100.823 158.433 97.2476C158.433 92.5983 160.868 90.2013 163.902 90.2013C167.697 90.2013 169.425 94.1066 169.425 97.6558C169.425 101.715 167.477 104.777 163.988 104.777V104.78ZM163.968 89.2778C159.249 89.2778 155.767 92.4941 155.767 97.6587C155.767 102.024 158.809 105.556 163.902 105.556C168.994 105.556 172.054 101.729 172.054 97.4184C172.054 92.8299 168.282 89.2807 163.968 89.2807" fill="black"/>
<path d="M117.568 99.0831L119.777 93.9011C119.777 93.9011 119.898 93.7709 119.924 93.8346C120.217 94.5612 121.959 99.0802 121.959 99.0802H117.568V99.0831ZM156.05 104.989C155.524 104.89 154.997 104.83 154.641 104.566C154.186 104.297 154.212 103.388 154.212 102.537V92.1121C154.212 91.7965 154.07 91.0844 154.58 90.5864C154.849 90.323 155.567 90.2506 156.05 90.2246V89.8019H151.699C150.148 93.4756 148.593 97.1522 147.041 100.829C145.365 97.1522 143.845 93.4785 142.169 89.8019H137.754C137.734 89.8222 137.714 89.8424 137.694 89.8627V90.103C138.099 90.1782 139.309 90.4069 139.584 90.8759C139.674 91.0294 139.778 91.2783 139.778 92.1121C139.778 93.6203 139.804 101.735 139.804 102.366C139.804 103.127 139.694 103.709 139.532 104.025C139.263 104.546 138.585 104.832 137.879 104.928C138.165 103.683 138.403 102.375 138.689 101.127C138.576 101.127 138.591 101.127 138.391 101.127C137.98 102.21 137.051 104.175 134.804 104.207C133.826 104.222 133.247 104.187 132.393 104.216C131.663 104.216 131.484 103.446 131.484 102.673C131.484 102.372 131.487 93.4206 131.487 92.2018C131.487 91.5012 131.493 91.0294 131.794 90.6472C132.095 90.2651 132.52 90.213 133.206 90.2246C133.206 90.0827 133.203 89.8019 133.203 89.8019H127.136V90.1638C127.848 90.3404 128.459 90.2796 128.852 90.7659C129.11 91.0844 129.009 92.0136 129.009 92.2452V103.107C129.009 103.955 128.739 104.595 127.995 104.746C127.332 104.705 126.869 103.857 126.751 103.553C125.465 100.701 123.502 95.9652 122.217 93.1137C121.728 91.9499 120.715 89.6195 120.715 89.6195L120.364 89.6803C120.364 89.6803 119.024 92.8242 118.743 93.4814C117.394 96.5935 115.993 99.6853 114.699 102.821C113.729 104.879 112.858 104.87 112.554 104.928C112.536 105.047 112.554 105.29 112.554 105.29L117.212 105.301V104.928C116.61 104.934 116.187 104.861 115.926 104.667C115.564 104.398 115.507 103.932 115.703 103.428C116.033 102.586 116.76 101.089 117.212 100.105H122.564C123.265 101.744 123.621 102.644 123.879 103.275C124.556 104.937 122.782 104.925 122.544 104.919C122.53 105.067 122.55 105.084 122.544 105.348H142.965C142.965 105.348 142.977 105.108 142.977 104.925C142.244 104.908 141.561 104.76 141.26 104.323C140.904 103.929 140.953 102.647 140.953 102.273V92.8126L146.161 105.336L146.436 105.345L151.882 92.8619C151.882 92.8619 151.809 98.5562 151.83 101.367C151.83 102.227 152.032 103.617 151.708 104.259C151.459 104.754 150.689 104.925 149.991 104.983V105.345C152.032 105.325 154.033 105.345 156.074 105.322C156.053 105.22 156.079 105.084 156.059 104.983" fill="black"/>
</g>
<defs>
<clipPath id="clip0_2934_2662">
<rect width="140" height="140" fill="white" transform="translate(80 5)"/>
</clipPath>
</defs>
</svg>
