<svg width="212" height="70" viewBox="0 0 212 88" fill="none" xmlns="http://www.w3.org/2000/svg">
<g clip-path="url(#clip0_4191_41210)">
<path fill-rule="evenodd" clip-rule="evenodd" d="M119.632 0C119.623 0.671362 119.602 1.34497 119.609 2.01633C119.612 2.27455 119.539 2.47214 119.379 2.67646C115.279 7.94856 111.418 13.3891 107.646 18.8924C99.5256 30.7344 91.8036 42.8279 84.2477 55.0269C83.0867 56.9018 81.9393 58.7879 80.7874 60.6673C80.7282 60.7638 80.6759 60.8649 80.6076 60.9884H103.942C104.213 59.7579 104.625 58.5724 105.149 57.4272C106.239 55.0449 107.525 52.7838 109.337 50.8461C112.613 47.3411 116.636 45.2058 121.405 44.4513C124.7 43.9304 127.966 44.0472 131.204 44.8757C135.793 46.0478 139.137 48.7781 141.423 52.8198C142.734 55.137 143.458 57.6473 143.782 60.2721C143.868 60.9839 143.898 61.7024 143.957 62.4187C143.961 62.4703 143.986 62.5175 144 62.5691V63.3774C143.866 63.3864 143.729 63.4021 143.593 63.4044C133.25 63.4044 122.91 63.4044 112.568 63.4044H112.16C112.154 63.483 112.147 63.5256 112.147 63.5705C112.124 65.9416 112.192 68.3082 112.461 70.6658C112.695 72.7136 113.098 74.7232 113.843 76.6565C114.596 78.6099 115.573 80.4332 117.075 81.9375C119.049 83.9135 121.494 84.9081 124.242 85.2584C126.147 85.5009 128.042 85.3684 129.913 84.9822C132.916 84.3648 135.49 82.9592 137.628 80.7857C139.31 79.077 140.544 77.0786 141.528 74.9208C141.853 74.2045 142.129 73.4636 142.432 72.7203C142.948 72.909 143.472 73.1021 143.996 73.2952V73.3491C143.975 73.3872 143.952 73.4254 143.939 73.4658C143.31 75.2935 142.591 77.0831 141.598 78.7514C139.267 82.665 136.021 85.4897 131.593 86.8998C129.403 87.5981 127.151 87.9057 124.859 87.9641C124.754 87.9663 124.652 87.9933 124.547 88.0067H124.11C124.023 87.991 123.937 87.9618 123.85 87.9641C121.847 87.9865 119.878 87.7216 117.925 87.3017C114.56 86.5787 111.635 85.0429 109.18 82.6583C107.366 80.8957 106.048 78.803 105.087 76.4836C103.68 73.0908 103.296 69.5319 103.348 65.9079C103.359 65.0861 103.432 64.2643 103.48 63.4066H103.173C91.5554 63.4066 79.9383 63.4066 68.3211 63.4066C68.2141 63.4066 68.1048 63.4246 67.9978 63.4336V60.9547C68.0547 60.8873 68.1162 60.8245 68.1663 60.7526C81.2541 41.3864 94.3419 22.0247 107.427 2.66524C107.48 2.58665 107.532 2.50582 107.616 2.37334H71.8793V0H119.632ZM112.176 61.0018C112.34 61.0018 112.447 61.0018 112.554 61.0018C118.161 60.9861 123.771 60.9794 129.378 60.9524C131.124 60.9435 132.87 60.8828 134.616 60.8379C135.26 60.82 135.561 60.5573 135.65 59.9196C135.807 58.7834 135.764 57.645 135.641 56.5089C135.413 54.405 134.819 52.4178 133.731 50.5811C132.515 48.5289 130.803 47.0604 128.485 46.3666C126.015 45.6279 123.591 45.9243 121.228 46.8718C118.61 47.9204 116.684 49.7706 115.149 52.0541C113.67 54.2568 112.777 56.6863 112.374 59.2931C112.288 59.8477 112.242 60.4091 112.176 61.0018Z" fill="black"/>
</g>
<defs>
<clipPath id="clip0_4191_41210">
<rect width="76" height="88" fill="white" transform="translate(68)"/>
</clipPath>
</defs>
</svg>
