<svg width="300" height="150" viewBox="0 0 300 150" fill="none" xmlns="http://www.w3.org/2000/svg">
<g clip-path="url(#clip0_11250_43)">
<mask id="mask0_11250_43" style="mask-type:luminance" maskUnits="userSpaceOnUse" x="124" y="45" width="52" height="60">
<path d="M176 45H124V105H176V45Z" fill="white"/>
</mask>
<g mask="url(#mask0_11250_43)">
<path fill-rule="evenodd" clip-rule="evenodd" d="M159.327 45C159.321 45.4577 159.307 45.917 159.312 46.3748C159.313 46.5508 159.263 46.6855 159.154 46.8249C156.349 50.4195 153.707 54.1289 151.126 57.8812C145.57 65.9553 140.287 74.2009 135.117 82.5184C134.323 83.7967 133.538 85.0827 132.749 86.364C132.709 86.4299 132.673 86.4988 132.626 86.583H148.592C148.777 85.744 149.059 84.9357 149.418 84.1549C150.164 82.5306 151.044 80.989 152.284 79.6678C154.525 77.278 157.277 75.8221 160.541 75.3077C162.795 74.9525 165.03 75.0322 167.245 75.5971C170.385 76.3962 172.673 78.2578 174.237 81.0135C175.134 82.5934 175.63 84.305 175.851 86.0946C175.91 86.5799 175.93 87.0698 175.971 87.5582C175.974 87.5934 175.991 87.6255 176 87.6608V88.2119C175.908 88.218 175.815 88.2287 175.721 88.2303C168.645 88.2303 161.57 88.2303 154.494 88.2303H154.215C154.21 88.2838 154.206 88.3129 154.206 88.3436C154.19 89.9602 154.237 91.574 154.421 93.1814C154.581 94.5776 154.857 95.9477 155.366 97.2659C155.882 98.5976 156.55 99.8409 157.578 100.866C158.929 102.214 160.601 102.892 162.482 103.131C163.785 103.296 165.081 103.206 166.362 102.942C168.416 102.522 170.178 101.563 171.641 100.081C172.791 98.9161 173.636 97.5537 174.309 96.0826C174.531 95.594 174.72 95.0887 174.927 94.5821C175.281 94.7107 175.639 94.8424 175.997 94.9741V95.0107C175.983 95.0368 175.967 95.0626 175.958 95.0905C175.528 96.3365 175.036 97.5568 174.357 98.6941C172.762 101.363 170.541 103.288 167.511 104.25C166.013 104.726 164.472 104.935 162.904 104.976C162.832 104.977 162.762 104.995 162.69 105.005H162.391C162.332 104.994 162.273 104.974 162.214 104.976C160.843 104.991 159.496 104.81 158.159 104.524C155.857 104.031 153.855 102.984 152.176 101.358C150.935 100.156 150.033 98.7293 149.376 97.1477C148.413 94.8347 148.15 92.4081 148.186 89.9372C148.193 89.3769 148.243 88.8166 148.276 88.2318H148.066C140.117 88.2318 132.168 88.2318 124.22 88.2318C124.147 88.2318 124.072 88.244 123.999 88.2502V86.56C124.038 86.5141 124.08 86.4712 124.114 86.4222C133.069 73.218 142.024 60.0168 150.977 46.8172C151.013 46.7636 151.048 46.7085 151.106 46.6182H126.654V45H159.327ZM154.226 86.5922C154.338 86.5922 154.411 86.5922 154.485 86.5922C158.321 86.5814 162.159 86.5768 165.996 86.5585C167.19 86.5523 168.385 86.511 169.58 86.4804C170.02 86.4682 170.226 86.289 170.287 85.8543C170.394 85.0796 170.365 84.3034 170.28 83.5288C170.125 82.0943 169.718 80.7394 168.974 79.4871C168.142 78.0879 166.971 77.0866 165.385 76.6136C163.695 76.1099 162.036 76.312 160.419 76.958C158.628 77.673 157.31 78.9345 156.26 80.4914C155.248 81.9932 154.637 83.6497 154.362 85.4271C154.302 85.8053 154.271 86.188 154.226 86.5922Z" fill="black"/>
</g>
</g>
<defs>
<clipPath id="clip0_11250_43">
<rect width="52" height="60" fill="white" transform="translate(124 45)"/>
</clipPath>
</defs>
</svg>
