<svg width="300" height="150" viewBox="0 0 300 150" fill="none" xmlns="http://www.w3.org/2000/svg">
<path d="M53.9445 61.8707H36.53V63.438H51.0213L35 88.1293H53.4967V86.562H37.9231L53.9445 61.8707Z" fill="#010202"/>
<path d="M57.1412 88.1293H55.4681V61.8707H57.1412V88.1293Z" fill="#010202"/>
<path d="M83.5303 66.3985H83.4618L74.3006 89L65.1704 66.3985H65.102L60.6116 88.1293H59.007L64.648 61L74.2944 84.8951L83.9781 61L89.6191 88.1293H88.0145L83.5303 66.3985Z" fill="#010202"/>
<path d="M115.492 66.3985H115.424L106.263 89L97.1386 66.3985H97.0702L92.5797 88.1293H90.9751L96.6161 61L106.263 84.8951L115.946 61L121.587 88.1293H119.983L115.492 66.3985Z" fill="#010202"/>
<path d="M125.126 63.438V73.9738H138.697V75.5411H125.126V86.562H138.977V88.1293H123.453V61.8707H138.977V63.438H125.126Z" fill="#010202"/>
<path d="M157.592 88.1293H155.676L144.711 75.6966H143.287V88.1293H141.614V61.8707H147.871C149.998 61.8707 152.585 61.908 154.358 63.1955C156.236 64.5202 157.007 66.61 157.007 68.8365C157.007 73.3518 153.412 75.7215 149.115 75.6966C149.071 75.6966 146.633 75.6966 146.589 75.6966L157.592 88.1293ZM148.399 74.1293C150.035 74.1293 152.168 74.0609 153.493 72.9103C154.749 71.9027 155.34 70.3354 155.34 68.7681C155.34 66.8152 154.432 64.8685 152.554 64.0289C151.161 63.3696 148.884 63.438 147.354 63.438H143.287V74.1293H148.399Z" fill="#010202"/>
<path d="M183.552 66.3985H183.483L174.322 89L165.198 66.3985H165.13L160.633 88.1293H159.028L164.676 61L174.322 84.8951L184.006 61L189.647 88.1293H188.042L183.552 66.3985Z" fill="#010202"/>
<path d="M196.283 79.4967L192.763 88.1355H191.058L202.067 61L213.038 88.1293H211.334L207.814 79.4904H196.283V79.4967ZM202.067 65.2479L196.911 77.9231H207.186L202.067 65.2479Z" fill="#010202"/>
<path d="M238.277 89L216.229 65.5651V88.1355H214.556V61.5225L236.604 84.7894V61.8708H238.277V89Z" fill="#010202"/>
<path d="M264.461 89L242.413 65.5651V88.1355H240.74V61.5225L262.787 84.7894V61.8708H264.461V89Z" fill="#010202"/>
</svg>
