<svg width="300" height="150" viewBox="0 0 300 150" fill="none" xmlns="http://www.w3.org/2000/svg">
<path d="M40.6309 59.9467H20.747V61.7362H37.2933L19 89.9289H40.1196V88.1393H22.3377L40.6309 59.9467Z" fill="#010202"/>
<path d="M44.281 89.9289H42.3707V59.9467H44.281V89.9289Z" fill="#010202"/>
<path d="M74.4123 65.1164H74.3342L63.8738 90.923L53.4489 65.1164H53.3708L48.2435 89.9288H46.4114L52.8524 58.9524L63.8667 86.2361L74.9236 58.9524L81.3646 89.9288H79.5324L74.4123 65.1164Z" fill="#010202"/>
<path d="M110.907 65.1164H110.829L100.368 90.923L89.9504 65.1164H89.8722L84.745 89.9288H82.9128L89.3538 58.9524L100.368 86.2361L111.425 58.9524L117.866 89.9288H116.034L110.907 65.1164Z" fill="#010202"/>
<path d="M121.907 61.7362V73.766H137.402V75.5556H121.907V88.1393H137.722V89.9289H119.996V59.9467H137.722V61.7362H121.907Z" fill="#010202"/>
<path d="M158.976 89.9289H156.789L144.269 75.7331H142.643V89.9289H140.733V59.9467H147.877C150.305 59.9467 153.26 59.9893 155.283 61.4593C157.428 62.9719 158.309 65.3579 158.309 67.9003C158.309 73.0559 154.204 75.7615 149.297 75.7331C149.247 75.7331 146.464 75.7331 146.414 75.7331L158.976 89.9289ZM148.48 73.9436C150.348 73.9436 152.784 73.8654 154.296 72.5517C155.731 71.4013 156.406 69.6117 156.406 67.8221C156.406 65.5923 155.369 63.3695 153.224 62.4108C151.633 61.6581 149.034 61.7362 147.287 61.7362H142.643V73.9436H148.48Z" fill="#010202"/>
<path d="M188.618 65.1164H188.54L178.079 90.923L167.661 65.1164H167.583L162.449 89.9288H160.617L167.065 58.9524L178.079 86.2361L189.136 58.9524L195.577 89.9288H193.745L188.618 65.1164Z" fill="#010202"/>
<path d="M203.154 80.072L199.135 89.9359H197.189L209.758 58.9524L222.285 89.9288H220.34L216.32 80.0649H203.154V80.072ZM209.758 63.8027L203.871 78.2754H215.603L209.758 63.8027Z" fill="#010202"/>
<path d="M251.103 90.9231L225.928 64.1649V89.936H224.018V59.549L249.193 86.1154V59.9466H251.103V90.9231Z" fill="#010202"/>
<path d="M281 90.9231L255.825 64.1649V89.936H253.915V59.549L279.09 86.1154V59.9466H281V90.9231Z" fill="#010202"/>
</svg>
