<svg width="110" height="133" viewBox="0 0 110 133" fill="none" xmlns="http://www.w3.org/2000/svg">
<path d="M52.6128 36.472L48.5269 29.8654H50.6461L53.7896 34.9612L55.5329 32.0586C55.9905 31.3004 56.3937 30.6073 56.6715 29.8708H58.3113L54.3071 35.8168L58.7308 42.9975H56.6279L53.1031 37.2681L50.8804 40.8097C50.4391 41.5083 50.0414 42.2014 49.6818 42.9975H48.1019L52.6074 36.472H52.6128Z" fill="#094752"/>
<path d="M38.9114 60.6676H38.9931L44.5173 49.7666H45.1165V62.8987H43.2751L43.3732 54.3263H43.3133L38.8896 63.0016H38.3066L33.823 54.3263H33.7631L33.8448 60.7109C33.8448 61.507 33.9047 62.2218 34.0627 62.8987H32.7225V49.6691H33.3218L38.9059 60.673L38.9114 60.6676Z" fill="#094752"/>
<path d="M55.424 52.5501L53.4409 57.2235H57.4833L55.4621 52.5501H55.424ZM56.1268 49.6638L61.8689 62.8934H59.8858L57.8047 58.0196H53.1413L51.8992 60.8843C51.6213 61.5395 51.4415 62.1948 51.2999 62.8934H49.8562L55.582 49.6638H56.1213H56.1268Z" fill="#094752"/>
<path d="M66.2163 59.7741C67.2569 61.3283 68.7387 62.2218 70.2968 62.2218C71.8549 62.2218 72.9772 61.3066 72.9772 59.812C72.9772 58.1387 71.5989 57.4617 70.177 57.1043C68.2974 56.644 66.3525 55.5122 66.3525 53.2053C66.3525 51.0771 68.1122 49.5662 70.6346 49.5662C71.9367 49.5662 73.1188 49.9615 74.2193 50.7197V52.7667C73.3586 51.3533 72.16 50.4164 70.6564 50.4164C69.2345 50.4164 68.1721 51.272 68.1721 52.6042C68.1721 54.2559 69.7357 54.9545 71.1521 55.3119C73.0535 55.8101 74.8349 56.8661 74.8349 59.1134C74.8349 61.5232 73.0535 63.0937 70.2097 63.0937C68.6679 63.0937 67.3059 62.655 66.2054 61.8427V59.7741H66.2163Z" fill="#094752"/>
<path d="M31.0283 82.7892H29.0888V70.4531H27.2256C26.4248 70.4531 25.6839 70.5127 25.0247 70.6535V69.657H35.0924V70.6535C34.4332 70.5127 33.6923 70.4531 32.8914 70.4531H31.0283V82.7892Z" fill="#094752"/>
<path d="M45.3398 70.4585H43.7381V76.2096H45.318C47.982 76.2096 48.979 74.7366 48.979 73.1878C48.979 71.7528 48.1564 70.4639 45.3344 70.4639M46.2986 69.6625C49.0008 69.6625 51.0002 70.9567 51.0002 73.1066C51.0002 75.1374 49.1207 76.8486 46.5166 76.8486H46.2986L51.9808 82.7946H49.6164L43.7327 76.4695V82.7946H41.7932V69.6625H46.2986Z" fill="#094752"/>
<path d="M58.551 82.7892V69.657H66.0365V70.6535C65.3773 70.5127 64.6363 70.4531 63.8355 70.4531H60.4905V75.4839H65.4917V76.28H60.4905V81.9877H63.9336C64.7344 81.9877 65.4753 81.9281 66.1345 81.7873V82.7838H58.551V82.7892Z" fill="#094752"/>
<path d="M73.3422 82.7892V69.657H80.8276V70.6535C80.1684 70.5127 79.4275 70.4531 78.6266 70.4531H75.2816V75.4839H80.2828V76.28H75.2816V81.9877H78.7247C79.5255 81.9877 80.2665 81.9281 80.9257 81.7873V82.7838H73.3422V82.7892Z" fill="#094752"/>
<path d="M19.5168 100.459H19.5985L25.1227 89.5584H25.7219V102.69H23.8805L23.9786 94.118H23.9187L19.495 102.793H18.9175L14.4339 94.118H14.3739L14.4556 100.503C14.4556 101.299 14.5156 102.014 14.6736 102.69H13.3334V89.4609H13.9326L19.5168 100.465V100.459Z" fill="#094752"/>
<path d="M35.2284 92.3417L33.2454 97.0152H37.2877L35.2665 92.3417H35.2284ZM35.9312 89.4554L41.6733 102.685H39.6903L37.6092 97.8112H32.9457L31.7036 100.676C31.4258 101.331 31.246 101.986 31.1043 102.685H29.6606L35.3864 89.4554H35.9257H35.9312Z" fill="#094752"/>
<path d="M47.6606 101.894H49.0444C53.528 101.894 55.2278 99.5496 55.2278 96.1054C55.2278 92.6613 53.5062 90.3544 49.0444 90.3544H47.6606V101.894ZM49.9814 89.5583C54.367 89.5583 57.2489 92.1848 57.2489 96.1217C57.2489 100.059 54.367 102.685 49.9814 102.685H45.7157V89.5529H49.9814V89.5583Z" fill="#094752"/>
<path d="M65.9166 90.3544H64.3149V96.1055H65.8948C68.5588 96.1055 69.5558 94.6325 69.5558 93.0837C69.5558 91.6487 68.7332 90.3598 65.9111 90.3598M66.8754 89.5583C69.5776 89.5583 71.577 90.8526 71.577 93.0025C71.577 95.0332 69.6974 96.7445 67.0933 96.7445H66.8754L72.5576 102.69H70.1932L64.3095 96.3654V102.69H62.37V89.5583H66.8754Z" fill="#094752"/>
<path d="M78.7629 89.5583H76.8235V102.69H78.7629V89.5583Z" fill="#094752"/>
<path d="M86.4117 101.894H87.7955C92.2791 101.894 93.9789 99.5496 93.9789 96.1054C93.9789 92.6613 92.2573 90.3544 87.7955 90.3544H86.4117V101.894ZM88.7325 89.5583C93.1181 89.5583 96 92.1848 96 96.1217C96 100.059 93.1181 102.685 88.7325 102.685H84.4668V89.5529H88.7325V89.5583Z" fill="#094752"/>
<path d="M20.4484 34.295C21.3528 34.5712 22.1972 34.49 22.7093 34.0026C23.1397 33.5911 23.1506 33.0766 22.791 32.7029C22.3825 32.2805 21.8486 32.3834 21.3092 32.7029C20.5138 33.1849 19.5441 33.277 18.8522 32.5621C18.1494 31.8311 18.2747 30.8184 19.1083 30.0224C19.5441 29.6054 20.0562 29.3617 20.7045 29.2642L21.5707 30.1577C20.6773 29.8545 19.9527 29.9249 19.5168 30.3365C19.1464 30.6884 19.0865 31.1867 19.4406 31.5549C19.8328 31.961 20.3776 31.8527 20.9388 31.5007C21.7396 31.0134 22.6439 30.8888 23.3467 31.6199C24.0985 32.3997 23.9841 33.499 23.0471 34.3871C22.5459 34.8637 21.963 35.1182 21.3201 35.1994L20.443 34.2896L20.4484 34.295Z" fill="#094752"/>
<path d="M29.3776 25.858C28.5713 24.6287 27.6016 24.1251 26.6482 24.7424C25.7003 25.3544 25.7711 26.4428 26.5774 27.6721C27.3891 28.9068 28.3479 29.4159 29.3013 28.8039C30.2547 28.1866 30.1839 27.1035 29.3776 25.8634M30.4944 25.1378C31.4424 26.5836 31.1155 28.2407 29.5846 29.2371C28.0429 30.2336 26.3921 29.8491 25.4497 28.4032C24.5017 26.9573 24.834 25.311 26.3704 24.32C27.9067 23.329 29.5574 23.7027 30.4999 25.1378" fill="#094752"/>
<path d="M33.2129 20.6865L34.4278 20.1937L36.4054 24.997L37.3097 24.6288C37.7619 24.4447 38.1487 24.2497 38.3721 24.0927L38.6009 24.645L35.3812 25.9556L33.2129 20.6919V20.6865Z" fill="#094752"/>
<path d="M41.8365 17.7954L40.5691 18.1149L41.9766 23.6318L43.244 23.3123L41.8365 17.7954Z" fill="#094752"/>
<path d="M48.418 21.8994L48.8048 21.8669C50.4556 21.7261 50.935 20.6214 50.826 19.3217C50.7171 18.0221 50.0633 17.0419 48.4071 17.1827L48.0203 17.2152L48.4235 21.8994H48.418ZM48.8103 16.652C50.6953 16.4895 52.0137 17.5509 52.1553 19.2243C52.297 20.8976 51.1801 22.1648 49.2952 22.3218L47.1487 22.5059L46.6638 16.8361L48.8048 16.652H48.8103Z" fill="#094752"/>
<path d="M58.0117 17.995L57.0148 19.9391L58.6437 20.1016L58.0281 17.995H58.0117ZM58.8235 16.6899L60.6267 22.6305L59.3247 22.5005L58.7853 20.6106L56.786 20.4102L56.3447 21.2334C56.1921 21.5475 56.0723 21.8291 55.9906 22.1702L55.1625 22.089L58.1316 16.6249L58.8289 16.6953L58.8235 16.6899Z" fill="#094752"/>
<path d="M67.0009 18.8236L66.5324 18.6883L65.8732 20.9194L66.2654 21.0331C67.1153 21.2822 67.6982 20.9031 67.8889 20.2479C68.0741 19.6089 67.8126 19.0565 67.0009 18.8182M67.6492 18.5041C68.8205 18.8453 69.4525 19.6793 69.1855 20.589C68.9295 21.4501 68.0524 21.8237 67.2461 21.6234L67.1861 21.6071L68.3411 24.6397L66.9246 24.2281L65.8514 21.0114L65.0614 23.6812L63.803 23.3129L65.4156 17.8543L67.6438 18.5041H67.6492Z" fill="#094752"/>
<path d="M73.8835 20.8165L71.4501 25.9684L72.6336 26.5208L75.067 21.3689L73.8835 20.8165Z" fill="#094752"/>
<path d="M78.1472 29.7083L77.0576 28.988L79.945 24.6504L79.5092 24.3633C79.1932 24.1521 78.8173 23.9626 78.5558 23.8597L78.8881 23.3615L82.6363 25.8255L82.304 26.3237C82.1078 26.1233 81.781 25.858 81.465 25.6468L81.04 25.3652L78.1526 29.7028L78.1472 29.7083Z" fill="#094752"/>
<path d="M86.7548 29.2155L85.9812 32.1451L85.9921 32.156L87.7082 31.5874C88.0514 31.4791 88.4709 31.2733 88.7597 31.1054L89.3644 31.674L85.8505 32.7083L84.0963 34.5495L83.1483 33.656L84.9025 31.8148L85.7579 28.2732L86.7603 29.2155H86.7548Z" fill="#094752"/>
<path d="M43.1008 111.1C43.5965 110.689 44.283 110.461 44.9149 110.461C46.1026 110.461 46.849 111.193 46.849 112.249C46.849 113.445 45.901 114.155 44.6916 115.043L44.1468 115.438V115.492H46.7999V116.245H42.9047V116.045L43.858 115.021C44.806 114.03 45.5469 113.158 45.5469 112.135C45.5469 111.382 45.2364 110.981 44.6698 110.981C44.1032 110.981 43.602 111.415 43.1008 112.319V111.111V111.1Z" fill="#094752"/>
<path d="M50.2376 113.386C50.2376 114.902 50.5481 115.806 51.1583 115.806C51.7685 115.806 52.079 114.918 52.079 113.386C52.079 111.853 51.7739 110.971 51.1583 110.971C50.5427 110.971 50.2376 111.859 50.2376 113.386ZM53.2558 113.386C53.2558 115.216 52.4658 116.315 51.1202 116.315C49.7745 116.315 49.0554 115.211 49.0554 113.386C49.0554 111.561 49.8127 110.461 51.1202 110.461C52.4277 110.461 53.2558 111.566 53.2558 113.386Z" fill="#094752"/>
<path d="M55.5384 111.1C56.0342 110.689 56.7152 110.461 57.3526 110.461C58.5402 110.461 59.2866 111.193 59.2866 112.249C59.2866 113.445 58.3386 114.155 57.1292 115.043L56.5844 115.438V115.492H59.2375V116.245H55.3423V116.045L56.2957 115.021C57.2436 114.03 57.9845 113.158 57.9845 112.135C57.9845 111.382 57.674 110.981 57.1074 110.981C56.5408 110.981 56.0396 111.415 55.5384 112.319V111.111V111.1Z" fill="#094752"/>
<path d="M64.8324 114.425C64.8324 115.579 63.9226 116.375 62.6315 116.375C61.9832 116.375 61.4384 116.245 60.9426 115.888L61.2532 115.384C61.6291 115.682 62.0486 115.839 62.577 115.839C63.3288 115.839 63.7864 115.324 63.7864 114.496C63.7864 113.667 63.3288 113.191 62.4898 113.191C62.103 113.191 61.7108 113.245 61.3567 113.413V110.456H64.6309V111.23H61.9396V112.72C62.2501 112.617 62.5988 112.579 62.8657 112.579C64.2059 112.579 64.8379 113.391 64.8379 114.415L64.8324 114.425Z" fill="#094752"/>
</svg>
