<svg width="165" height="200" viewBox="0 0 165 200" fill="none" xmlns="http://www.w3.org/2000/svg">
<path d="M78.9191 54.8453L72.7902 44.9104H75.9691L80.6843 52.5733L83.2993 48.2084C83.9857 47.0684 84.5904 46.026 85.0072 44.9185H87.4669L81.4606 53.8599L88.0962 64.658H84.9418L79.6546 56.0423L76.3205 61.3681C75.6586 62.4185 75.062 63.4609 74.5227 64.658H72.1528L78.911 54.8453H78.9191Z" fill="white"/>
<path d="M58.367 91.2295H58.4896L66.7758 74.837H67.6748V94.5846H64.9127L65.0598 81.6937H64.9699L58.3343 94.7393H57.4599L50.7345 81.6937H50.6446L50.7671 91.2947C50.7671 92.4917 50.857 93.5667 51.094 94.5846H49.0837V74.6904H49.9826L58.3588 91.2377L58.367 91.2295Z" fill="white"/>
<path d="M83.1358 79.0227L80.1613 86.0504H86.2248L83.193 79.0227H83.1358ZM84.19 74.6823L92.8032 94.5764H89.8286L86.7069 87.2475H79.7118L77.8486 91.5553C77.4319 92.5406 77.1622 93.526 76.9497 94.5764H74.7842L83.3728 74.6823H84.1818H84.19Z" fill="white"/>
<path d="M99.3244 89.8859C100.885 92.223 103.108 93.5667 105.445 93.5667C107.782 93.5667 109.466 92.1904 109.466 89.9429C109.466 87.4266 107.398 86.4087 105.265 85.8712C102.446 85.179 99.5287 83.4771 99.5287 80.008C99.5287 76.8077 102.168 74.5357 105.952 74.5357C107.905 74.5357 109.678 75.1302 111.329 76.2702V79.3484C110.038 77.223 108.24 75.8142 105.985 75.8142C103.852 75.8142 102.258 77.1008 102.258 79.1041C102.258 81.5878 104.603 82.6383 106.728 83.1758C109.58 83.925 112.252 85.5129 112.252 88.8924C112.252 92.5162 109.58 94.8777 105.314 94.8777C103.002 94.8777 100.959 94.2181 99.3081 92.9966V89.8859H99.3244Z" fill="white"/>
<path d="M46.5423 124.495H43.6331V105.945H40.8383C39.637 105.945 38.5257 106.034 37.5369 106.246V104.747H52.6385V106.246C51.6497 106.034 50.5383 105.945 49.3371 105.945H46.5423V124.495Z" fill="white"/>
<path d="M68.0096 105.953H65.6071V114.601H67.9769C71.9729 114.601 73.4684 112.386 73.4684 110.057C73.4684 107.899 72.2344 105.961 68.0014 105.961M69.4478 104.756C73.5011 104.756 76.5002 106.702 76.5002 109.935C76.5002 112.989 73.6809 115.562 69.7747 115.562H69.4478L77.9711 124.503H74.4245L65.5989 114.992V124.503H62.6897V104.756H69.4478Z" fill="white"/>
<path d="M87.8264 124.495V104.747H99.0546V106.246C98.0658 106.034 96.9544 105.945 95.7531 105.945H90.7356V113.51H98.2374V114.707H90.7356V123.29H95.9002C97.1015 123.29 98.2129 123.2 99.2017 122.989V124.487H87.8264V124.495Z" fill="white"/>
<path d="M110.013 124.495V104.747H121.241V106.246C120.253 106.034 119.141 105.945 117.94 105.945H112.922V113.51H120.424V114.707H112.922V123.29H118.087C119.288 123.29 120.4 123.2 121.388 122.989V124.487H110.013V124.495Z" fill="white"/>
<path d="M29.2751 151.067H29.3977L37.6839 134.674H38.5828V154.422H35.8207L35.9678 141.531H35.8779L29.2424 154.577H28.3762L21.6507 141.531H21.5608L21.6834 151.132C21.6834 152.329 21.7733 153.404 22.0103 154.422H20V134.528H20.8989L29.2751 151.075V151.067Z" fill="white"/>
<path d="M52.8426 138.86L49.8681 145.888H55.9316L52.8998 138.86H52.8426ZM53.8968 134.519L62.5099 154.414H59.5354L56.4137 147.085H49.4186L47.5554 151.392C47.1387 152.378 46.869 153.363 46.6565 154.414H44.491L53.0796 134.519H53.8886H53.8968Z" fill="white"/>
<path d="M71.4908 153.225H73.5665C80.292 153.225 82.8416 149.699 82.8416 144.52C82.8416 139.34 80.2593 135.871 73.5665 135.871H71.4908V153.225ZM74.9721 134.674C81.5504 134.674 85.8733 138.624 85.8733 144.544C85.8733 150.464 81.5504 154.414 74.9721 154.414H68.5735V134.666H74.9721V134.674Z" fill="white"/>
<path d="M98.8748 135.871H96.4723V144.52H98.8421C102.838 144.52 104.334 142.305 104.334 139.976C104.334 137.818 103.1 135.879 98.8666 135.879M100.313 134.674C104.366 134.674 107.365 136.621 107.365 139.853C107.365 142.907 104.546 145.48 100.64 145.48H100.313L108.836 154.422H105.29L96.4641 144.91V154.422H93.5549V134.674H100.313Z" fill="white"/>
<path d="M118.144 134.674H115.235V154.422H118.144V134.674Z" fill="white"/>
<path d="M129.618 153.225H131.693C138.419 153.225 140.968 149.699 140.968 144.52C140.968 139.34 138.386 135.871 131.693 135.871H129.618V153.225ZM133.099 134.674C139.677 134.674 144 138.624 144 144.544C144 150.464 139.677 154.414 133.099 154.414H126.7V134.666H133.099V134.674Z" fill="white"/>
<path d="M30.6725 51.5715C32.0291 51.9868 33.2957 51.8647 34.0639 51.1318C34.7094 50.5129 34.7258 49.7392 34.1864 49.1774C33.5736 48.5422 32.7727 48.6969 31.9637 49.1774C30.7706 49.9021 29.316 50.0406 28.2782 48.9656C27.224 47.8663 27.412 46.3435 28.6623 45.1464C29.316 44.5194 30.0842 44.1529 31.0566 44.0063L32.3559 45.35C31.0158 44.894 29.9289 44.9998 29.2751 45.6187C28.7195 46.148 28.6296 46.8972 29.1607 47.451C29.7491 48.0617 30.5663 47.8989 31.408 47.3695C32.6093 46.6366 33.9658 46.4493 35.02 47.5487C36.1477 48.7213 35.9761 50.3744 34.5705 51.7099C33.8187 52.4265 32.9443 52.8093 31.98 52.9314L30.6644 51.5634L30.6725 51.5715Z" fill="white"/>
<path d="M44.0663 38.8842C42.8569 37.0357 41.4023 36.2783 39.9722 37.2067C38.5503 38.1269 38.6566 39.7637 39.866 41.6122C41.0836 43.4689 42.5219 44.2344 43.9519 43.3142C45.382 42.3858 45.2758 40.7572 44.0663 38.8923M45.7416 37.8011C47.1635 39.9754 46.6732 42.4672 44.3769 43.9656C42.0642 45.464 39.5882 44.8858 38.1744 42.7115C36.7525 40.5373 37.251 38.0617 39.5555 36.5715C41.8599 35.0813 44.336 35.6431 45.7497 37.8011" fill="white"/>
<path d="M49.8193 31.1074L51.6417 30.3664L54.6081 37.5895L55.9646 37.0358C56.6428 36.7589 57.2231 36.4657 57.5581 36.2296L57.9013 37.0602L53.0717 39.0309L49.8193 31.1156V31.1074Z" fill="white"/>
<path d="M62.7546 26.7601L60.8535 27.2405L62.9647 35.5365L64.8658 35.0561L62.7546 26.7601Z" fill="white"/>
<path d="M72.6269 32.9315L73.2072 32.8826C75.6832 32.6709 76.4024 31.0096 76.2389 29.0552C76.0755 27.1008 75.0949 25.6269 72.6106 25.8386L72.0304 25.8875L72.6351 32.9315H72.6269ZM73.2153 25.0406C76.0428 24.7963 78.0204 26.3924 78.2329 28.9087C78.4453 31.425 76.7701 33.3305 73.9426 33.5666L70.7229 33.8435L69.9956 25.3175L73.2072 25.0406H73.2153Z" fill="white"/>
<path d="M87.0175 27.0602L85.5221 29.9837L87.9655 30.228L87.0421 27.0602H87.0175ZM88.2352 25.0977L90.94 34.0309L88.987 33.8354L88.1779 30.9934L85.1789 30.6921L84.5169 31.9299C84.2881 32.4022 84.1084 32.8257 83.9858 33.3387L82.7437 33.2166L87.1973 24.9999L88.2433 25.1058L88.2352 25.0977Z" fill="white"/>
<path d="M100.501 28.3062L99.7985 28.1026L98.8097 31.4577L99.398 31.6287C100.673 32.0033 101.547 31.4333 101.833 30.4479C102.111 29.487 101.719 28.6564 100.501 28.2981M101.474 27.8258C103.231 28.3388 104.179 29.5929 103.778 30.9609C103.394 32.2557 102.078 32.8176 100.869 32.5163L100.779 32.4919L102.512 37.0522L100.387 36.4333L98.777 31.5961L97.592 35.6108L95.7043 35.057L98.1232 26.8486L101.466 27.8258H101.474Z" fill="white"/>
<path d="M110.825 31.3031L107.175 39.0504L108.95 39.881L112.6 32.1337L110.825 31.3031Z" fill="white"/>
<path d="M117.221 44.6741L115.586 43.591L119.918 37.0682L119.264 36.6366C118.79 36.3191 118.226 36.034 117.834 35.8793L118.332 35.1301L123.954 38.8353L123.456 39.5845C123.162 39.2832 122.671 38.8842 122.197 38.5666L121.56 38.1432L117.229 44.666L117.221 44.6741Z" fill="white"/>
<path d="M130.132 43.9331L128.972 48.3386L128.988 48.3549L131.562 47.4998C132.077 47.337 132.706 47.0275 133.139 46.7751L134.047 47.6301L128.776 49.1855L126.144 51.9542L124.722 50.6106L127.354 47.8418L128.637 42.5161L130.14 43.9331H130.132Z" fill="white"/>
<path d="M64.6511 167.068C65.3948 166.45 66.4244 166.108 67.3724 166.108C69.1538 166.108 70.2734 167.207 70.2734 168.795C70.2734 170.595 68.8515 171.661 67.0373 172.997L66.2201 173.591V173.673H70.1998V174.805H64.3569V174.503L65.787 172.964C67.2089 171.474 68.3203 170.163 68.3203 168.624C68.3203 167.492 67.8545 166.889 67.0046 166.889C66.1547 166.889 65.4029 167.541 64.6511 168.901V167.085V167.068Z" fill="white"/>
<path d="M75.3563 170.505C75.3563 172.785 75.8221 174.145 76.7374 174.145C77.6526 174.145 78.1184 172.81 78.1184 170.505C78.1184 168.2 77.6608 166.873 76.7374 166.873C75.8139 166.873 75.3563 168.209 75.3563 170.505ZM79.8835 170.505C79.8835 173.257 78.6986 174.91 76.6801 174.91C74.6617 174.91 73.583 173.249 73.583 170.505C73.583 167.761 74.7189 166.108 76.6801 166.108C78.6414 166.108 79.8835 167.769 79.8835 170.505Z" fill="white"/>
<path d="M83.3076 167.068C84.0513 166.45 85.0727 166.108 86.0289 166.108C87.8103 166.108 88.9299 167.207 88.9299 168.795C88.9299 170.595 87.508 171.661 85.6938 172.997L84.8766 173.591V173.673H88.8563V174.805H83.0134V174.503L84.4435 172.964C85.8654 171.474 86.9768 170.163 86.9768 168.624C86.9768 167.492 86.511 166.889 85.6611 166.889C84.8112 166.889 84.0594 167.541 83.3076 168.901V167.085V167.068Z" fill="white"/>
<path d="M97.2485 172.068C97.2485 173.803 95.8838 175 93.9471 175C92.9746 175 92.1575 174.804 91.4138 174.267L91.8796 173.51C92.4435 173.958 93.0727 174.194 93.8654 174.194C94.9931 174.194 95.6795 173.42 95.6795 172.174C95.6795 170.928 94.9931 170.212 93.7346 170.212C93.1544 170.212 92.5661 170.293 92.0349 170.546V166.099H96.9462V167.264H92.9093V169.503C93.3751 169.348 93.8981 169.291 94.2985 169.291C96.3088 169.291 97.2567 170.513 97.2567 172.052L97.2485 172.068Z" fill="white"/>
</svg>
