<svg width="165" height="200" viewBox="0 0 165 200" fill="none" xmlns="http://www.w3.org/2000/svg">
<g clip-path="url(#clip0_7019_25270)">
<path d="M78.304 39.8262L70.1586 26.5725H74.3834L80.6499 36.7952L84.1252 30.9723C85.0375 29.4514 85.8412 28.0608 86.3951 26.5834H89.6641L81.6816 38.5117L90.5003 52.9169H86.3082L79.2814 41.4231L74.8504 48.528C73.9707 49.9294 73.1779 51.3199 72.4611 52.9169H69.3115L78.2931 39.8262H78.304Z" fill="#612346"/>
<path d="M50.99 88.3651H51.1529L62.1654 66.4966H63.3601V92.8409H59.6892L59.8847 75.6438H59.7652L50.9465 93.0474H49.7845L40.8463 75.6438H40.7268L40.8897 88.452C40.8897 90.049 41.0092 91.483 41.3241 92.8409H38.6525V66.301H39.8471L50.9791 88.376L50.99 88.3651Z" fill="#612346"/>
<path d="M83.908 72.0804L79.9548 81.4557H88.0133L83.984 72.0804H83.908ZM85.309 66.29L96.7559 92.83H92.8027L88.654 83.0527H79.3575L76.8813 88.7995C76.3274 90.114 75.969 91.4285 75.6866 92.83H72.8086L84.223 66.29H85.2981H85.309Z" fill="#612346"/>
<path d="M105.423 86.5725C107.497 89.6904 110.451 91.4829 113.557 91.4829C116.663 91.4829 118.901 89.6469 118.901 86.6485C118.901 83.2917 116.153 81.9337 113.318 81.2167C109.571 80.2933 105.694 78.0228 105.694 73.3949C105.694 69.1254 109.202 66.0945 114.231 66.0945C116.826 66.0945 119.183 66.8875 121.377 68.4084V72.5149C119.661 69.6795 117.272 67.8001 114.274 67.8001C111.439 67.8001 109.322 69.5165 109.322 72.189C109.322 75.5024 112.439 76.9038 115.262 77.6208C119.053 78.6203 122.604 80.7387 122.604 85.2471C122.604 90.0814 119.053 93.2319 113.383 93.2319C110.31 93.2319 107.595 92.352 105.401 90.7224V86.5725H105.423Z" fill="#612346"/>
<path d="M35.2749 132.743H31.4086V107.996H27.6943C26.0978 107.996 24.6208 108.115 23.3066 108.398V106.399H43.3768V108.398C42.0627 108.115 40.5857 107.996 38.9892 107.996H35.2749V132.743Z" fill="#612346"/>
<path d="M63.8053 108.007H60.6123V119.544H63.7618C69.0726 119.544 71.0601 116.589 71.0601 113.482C71.0601 110.603 69.4201 108.017 63.7944 108.017M65.7167 106.41C71.1035 106.41 75.0893 109.006 75.0893 113.319C75.0893 117.393 71.3425 120.826 66.1511 120.826H65.7167L77.0442 132.754H72.3308L60.6014 120.065V132.754H56.7351V106.41H65.7167Z" fill="#612346"/>
<path d="M90.142 132.743V106.399H105.064V108.398C103.75 108.115 102.273 107.996 100.677 107.996H94.0083V118.088H103.978V119.685H94.0083V131.135H100.872C102.469 131.135 103.946 131.016 105.26 130.733V132.732H90.142V132.743Z" fill="#612346"/>
<path d="M119.628 132.743V106.399H134.55V108.398C133.236 108.115 131.759 107.996 130.163 107.996H123.495V118.088H133.464V119.685H123.495V131.135H130.358C131.955 131.135 133.432 131.016 134.746 130.733V132.732H119.628V132.743Z" fill="#612346"/>
<path d="M12.3266 168.191H12.4895L23.5021 146.323H24.6967V172.667H21.0259L21.2214 155.47H21.1019L12.2832 172.874H11.132L2.19382 155.47H2.07435L2.23726 168.278C2.23726 169.875 2.35672 171.309 2.67168 172.667H0V146.127H1.19465L12.3266 168.202V168.191Z" fill="#612346"/>
<path d="M43.6482 151.907L39.695 161.282H47.7535L43.7243 151.907H43.6482ZM45.0492 146.116L56.4962 172.656H52.543L48.3943 162.879H39.0977L36.6215 168.626C36.0676 169.94 35.7092 171.255 35.4269 172.656H32.5488L43.9632 146.116H45.0384H45.0492Z" fill="#612346"/>
<path d="M68.4319 171.07H71.1904C80.1286 171.07 83.5171 166.366 83.5171 159.457C83.5171 152.548 80.0852 147.92 71.1904 147.92H68.4319V171.07ZM73.0584 146.323C81.8011 146.323 87.5463 151.592 87.5463 159.489C87.5463 167.387 81.8011 172.656 73.0584 172.656H64.5547V146.312H73.0584V146.323Z" fill="#612346"/>
<path d="M104.825 147.92H101.632V159.457H104.782C110.093 159.457 112.08 156.502 112.08 153.395C112.08 150.516 110.44 147.931 104.814 147.931M106.737 146.323C112.124 146.323 116.109 148.919 116.109 153.232C116.109 157.306 112.362 160.739 107.171 160.739H106.737L118.064 172.667H113.351L101.621 159.978V172.667H97.7551V146.323H106.737Z" fill="#612346"/>
<path d="M130.434 146.323H126.568V172.667H130.434V146.323Z" fill="#612346"/>
<path d="M145.682 171.07H148.441C157.379 171.07 160.768 166.366 160.768 159.457C160.768 152.548 157.336 147.92 148.441 147.92H145.682V171.07ZM150.309 146.323C159.052 146.323 164.797 151.592 164.797 159.489C164.797 167.387 159.052 172.656 150.309 172.656H141.805V146.312H150.309V146.323Z" fill="#612346"/>
<path d="M14.1837 35.459C15.9866 36.0131 17.6699 35.8501 18.6908 34.8724C19.5488 34.0468 19.5705 33.0147 18.8537 32.2651C18.0392 31.4178 16.9749 31.6242 15.8997 32.2651C14.3141 33.232 12.3809 33.4167 11.0016 31.9827C9.60061 30.5161 9.8504 28.4846 11.5121 26.8876C12.3809 26.0511 13.4018 25.5622 14.6942 25.3667L16.421 27.1592C14.6399 26.5508 13.1954 26.6921 12.3266 27.5177C11.5881 28.2238 11.4686 29.2233 12.1745 29.962C12.9565 30.7768 14.0425 30.5595 15.1612 29.8534C16.7577 28.8757 18.5605 28.6258 19.9615 30.0924C21.4602 31.6568 21.2322 33.8621 19.3642 35.6437C18.365 36.5997 17.2029 37.1103 15.9214 37.2733L14.1729 35.4482L14.1837 35.459Z" fill="#612346"/>
<path d="M31.9841 18.5333C30.3767 16.0673 28.4436 15.057 26.543 16.2954C24.6533 17.523 24.7944 19.7066 26.4018 22.1727C28.02 24.6496 29.9315 25.6708 31.832 24.4432C33.7326 23.2047 33.5914 21.032 31.9841 18.5442M34.2105 17.0885C36.1002 19.9891 35.4486 23.3133 32.3968 25.3123C29.3233 27.3112 26.0325 26.5398 24.1537 23.6392C22.264 20.7387 22.9264 17.4361 25.9891 15.448C29.0518 13.46 32.3425 14.2096 34.2213 17.0885" fill="#612346"/>
<path d="M39.6299 8.15852L42.0518 7.16992L45.9941 16.806L47.797 16.0673C48.6984 15.6979 49.4695 15.3068 49.9148 14.9918L50.3709 16.0998L43.9524 18.7289L39.6299 8.16938V8.15852Z" fill="#612346"/>
<path d="M56.8212 2.35909L54.2947 3L57.1005 14.0674L59.627 13.4265L56.8212 2.35909Z" fill="#612346"/>
<path d="M69.9415 10.5922L70.7126 10.527C74.0034 10.2445 74.9591 8.02835 74.7419 5.42107C74.5247 2.81379 73.2214 0.847469 69.9198 1.12992L69.1487 1.19511L69.9524 10.5922H69.9415ZM70.7235 0.0652856C74.4812 -0.260624 77.1094 1.86865 77.3918 5.22552C77.6742 8.5824 75.4478 11.1245 71.6901 11.4395L67.411 11.8089L66.4445 0.43465L70.7126 0.0652856H70.7235Z" fill="#612346"/>
<path d="M89.0668 2.75925L87.0793 6.6593L90.3266 6.98521L89.0993 2.75925H89.0668ZM90.685 0.141106L94.2798 12.0585L91.6841 11.7978L90.6089 8.0064L86.6231 7.60444L85.7434 9.25572C85.4393 9.88581 85.2004 10.4507 85.0375 11.1351L83.3867 10.9722L89.3057 0.0107422L90.6958 0.15197L90.685 0.141106Z" fill="#612346"/>
<path d="M106.987 4.4214L106.053 4.14981L104.738 8.62564L105.52 8.85378C107.215 9.3535 108.377 8.59305 108.757 7.27855C109.126 5.99663 108.605 4.88854 106.987 4.41054M108.279 3.78045C110.614 4.46486 111.874 6.13786 111.342 7.96296C110.831 9.69028 109.083 10.4399 107.475 10.0379L107.356 10.0053L109.658 16.089L106.835 15.2633L104.695 8.81032L103.12 14.1661L100.611 13.4274L103.826 2.47681L108.268 3.78045H108.279Z" fill="#612346"/>
<path d="M120.707 8.41959L115.856 18.7549L118.216 19.8629L123.067 9.52766L120.707 8.41959Z" fill="#612346"/>
<path d="M129.207 26.2574L127.035 24.8125L132.791 16.1107L131.922 15.5349C131.292 15.1112 130.543 14.731 130.022 14.5246L130.684 13.5251L138.156 18.4681L137.494 19.4676C137.103 19.0656 136.451 18.5333 135.821 18.1096L134.974 17.5447L129.218 26.2465L129.207 26.2574Z" fill="#612346"/>
<path d="M146.367 25.2689L144.824 31.1462L144.846 31.1679L148.267 30.0272C148.951 29.8099 149.788 29.3971 150.363 29.0604L151.569 30.201L144.564 32.276L141.067 35.9696L139.177 34.1771L142.674 30.4835L144.379 23.3787L146.378 25.2689H146.367Z" fill="#612346"/>
<path d="M59.3417 189.538C60.33 188.713 61.6984 188.256 62.9582 188.256C65.3258 188.256 66.8137 189.723 66.8137 191.841C66.8137 194.242 64.9239 195.665 62.5129 197.447L61.4269 198.24V198.349H66.7159V199.859H58.9507V199.457L60.8513 197.404C62.741 195.416 64.218 193.666 64.218 191.613C64.218 190.103 63.599 189.299 62.4695 189.299C61.34 189.299 60.3408 190.168 59.3417 191.983V189.56V189.538Z" fill="#612346"/>
<path d="M73.5689 194.123C73.5689 197.165 74.1879 198.979 75.4043 198.979C76.6207 198.979 77.2397 197.197 77.2397 194.123C77.2397 191.048 76.6315 189.278 75.4043 189.278C74.1771 189.278 73.5689 191.059 73.5689 194.123ZM79.5856 194.123C79.5856 197.795 78.0108 200 75.3283 200C72.6457 200 71.2122 197.784 71.2122 194.123C71.2122 190.462 72.7218 188.256 75.3283 188.256C77.9348 188.256 79.5856 190.473 79.5856 194.123Z" fill="#612346"/>
<path d="M84.1361 189.538C85.1244 188.713 86.482 188.256 87.7526 188.256C90.1202 188.256 91.6081 189.723 91.6081 191.841C91.6081 194.242 89.7184 195.665 87.3074 197.447L86.2213 198.24V198.349H91.5104V199.859H83.7451V199.457L85.6457 197.404C87.5354 195.416 89.0124 193.666 89.0124 191.613C89.0124 190.103 88.3934 189.299 87.2639 189.299C86.1344 189.299 85.1353 190.168 84.1361 191.983V189.56V189.538Z" fill="#612346"/>
<path d="M59.3417 189.538C60.33 188.713 61.6984 188.256 62.9582 188.256C65.3258 188.256 66.8137 189.723 66.8137 191.841C66.8137 194.242 64.9239 195.665 62.5129 197.447L61.4269 198.24V198.349H66.7159V199.859H58.9507V199.457L60.8513 197.404C62.741 195.416 64.218 193.666 64.218 191.613C64.218 190.103 63.599 189.299 62.4695 189.299C61.34 189.299 60.3408 190.168 59.3417 191.983V189.56V189.538Z" fill="#612346"/>
<path d="M73.5689 194.123C73.5689 197.165 74.1879 198.979 75.4043 198.979C76.6207 198.979 77.2397 197.197 77.2397 194.123C77.2397 191.048 76.6315 189.278 75.4043 189.278C74.1771 189.278 73.5689 191.059 73.5689 194.123ZM79.5856 194.123C79.5856 197.795 78.0108 200 75.3283 200C72.6457 200 71.2122 197.784 71.2122 194.123C71.2122 190.462 72.7218 188.256 75.3283 188.256C77.9348 188.256 79.5856 190.473 79.5856 194.123Z" fill="#612346"/>
<path d="M84.1361 189.538C85.1244 188.713 86.482 188.256 87.7526 188.256C90.1202 188.256 91.6081 189.723 91.6081 191.841C91.6081 194.242 89.7184 195.665 87.3074 197.447L86.2213 198.24V198.349H91.5104V199.859H83.7451V199.457L85.6457 197.404C87.5354 195.416 89.0124 193.666 89.0124 191.613C89.0124 190.103 88.3934 189.299 87.2639 189.299C86.1344 189.299 85.1353 190.168 84.1361 191.983V189.56V189.538Z" fill="#612346"/>
<path d="M103.24 197.382H102.056V199.848H100.188V197.382H94.345V196.089C96.6365 193.927 98.1244 191.244 98.6023 188.387H100.97C100.318 190.733 98.1787 194.155 95.8111 196.035H100.199V193.069H102.067V196.035H103.251V197.382H103.24Z" fill="#612346"/>
</g>
<defs>
<clipPath id="clip0_7019_25270">
<rect width="164.797" height="200" fill="white"/>
</clipPath>
</defs>
</svg>
