<svg width="77" height="73" viewBox="0 0 77 73" fill="none" xmlns="http://www.w3.org/2000/svg">
<path d="M37.1344 21.6675L32.7066 14.4552H35.0042L38.4125 20.009L40.2993 16.8441C40.8014 16.0224 41.2274 15.2616 41.5318 14.4552H43.312L38.9755 20.9524L43.7685 28.7886H41.4861L37.6669 22.5348L35.2628 26.3997C34.7911 27.1605 34.3499 27.9212 33.9543 28.7886H32.2349L37.1344 21.6675Z" fill="#F5D0C6"/>
<path d="M22.2686 48.0819H22.3598L28.3549 36.1831H29.0092V50.5165H27.0159L27.1224 41.1587H27.0616L22.2686 50.623H21.6143L16.7452 41.1587H16.6843L16.7756 48.1276C16.7756 48.9949 16.8365 49.7709 17.0191 50.5165H15.5583V36.0766H16.2126L22.2686 48.0819Z" fill="#F5D0C6"/>
<path d="M40.1772 39.2263L38.0317 44.3236H42.4139L40.2228 39.2263H40.1772ZM40.938 36.0766L47.1765 50.5165H45.031L42.7639 45.1909H37.697L36.358 48.3254C36.0537 49.0405 35.8559 49.7557 35.7037 50.5165H34.1365L40.3446 36.0766H40.938Z" fill="#F5D0C6"/>
<path d="M51.8939 47.1084C53.0199 48.7973 54.6327 49.7864 56.3217 49.7864C58.0411 49.7864 59.2279 48.7821 59.2279 47.154C59.2279 45.3281 57.7368 44.5977 56.1848 44.2021C54.1458 43.7 52.0308 42.4675 52.0308 39.9417C52.0308 37.6137 53.948 35.9703 56.6717 35.9703C58.0867 35.9703 59.3649 36.4116 60.5517 37.2333V39.47C59.6235 37.9332 58.315 36.9137 56.6869 36.9137C55.1501 36.9137 53.9937 37.8419 53.9937 39.3026C53.9937 41.0981 55.6826 41.8589 57.2347 42.2545C59.304 42.8023 61.2364 43.9435 61.2364 46.4084C61.2364 49.0408 59.304 50.745 56.2152 50.745C54.5414 50.745 53.0655 50.2733 51.8787 49.3755V47.1084H51.8939Z" fill="#F5D0C6"/>
<path d="M13.7168 72.2297H11.6018V58.7637H9.5781C8.7108 58.7637 7.90435 58.8245 7.18921 58.9767V57.8964H18.1142V58.9767C17.3991 58.8245 16.5926 58.7637 15.7253 58.7637H13.7168V72.2297Z" fill="#F5D0C6"/>
<path d="M29.2372 58.7637H27.5026V65.0326H29.222C32.113 65.0326 33.1934 63.4197 33.1934 61.7308C33.1934 60.1787 32.2956 58.7637 29.2372 58.7637ZM30.2871 57.8964C33.2238 57.8964 35.3844 59.3114 35.3844 61.6547C35.3844 63.8762 33.3455 65.7325 30.5154 65.7325H30.2871L36.4496 72.2297H33.8933L27.5026 65.3217V72.2297H25.4028V57.8964H30.2871Z" fill="#F5D0C6"/>
<path d="M43.5708 72.2297V57.8964H51.6961V58.9767C50.9809 58.8245 50.1745 58.7637 49.3072 58.7637H45.6858V64.2566H51.1179V65.1239H45.6858V71.3624H49.4137C50.281 71.3624 51.0874 71.3015 51.8026 71.1494V72.2297H43.5708Z" fill="#F5D0C6"/>
<path d="M59.6235 72.2297V57.8964H67.7488V58.9767C67.0337 58.8245 66.2272 58.7637 65.3599 58.7637H61.7385V64.2566H67.1706V65.1239H61.7385V71.3624H65.4664C66.3337 71.3624 67.1402 71.3015 67.8553 71.1494V72.2297H59.6235Z" fill="#F5D0C6"/>
<path d="M2.22912 19.2937C3.20294 19.598 4.13111 19.5067 4.67888 18.9742C5.15057 18.5177 5.16579 17.9699 4.77017 17.5591C4.32891 17.1026 3.75071 17.2091 3.15729 17.5591C2.28999 18.0916 1.24009 18.1829 0.494514 17.4069C-0.26628 16.6157 -0.129337 15.5049 0.7684 14.6376C1.24009 14.1812 1.78786 13.9073 2.50301 13.816L3.44639 14.7898C2.48779 14.455 1.69657 14.5311 1.22488 14.9724C0.829263 15.3528 0.753184 15.9006 1.1488 16.2962C1.57484 16.7374 2.16826 16.6309 2.7769 16.2353C3.6442 15.7027 4.63323 15.5658 5.39403 16.357C6.21568 17.2091 6.07874 18.4112 5.07449 19.385C4.52672 19.9023 3.90287 20.1914 3.20294 20.2675L2.22912 19.2937Z" fill="#F5D0C6"/>
<path d="M11.9216 10.0879C11.0543 8.74887 9.9892 8.2011 8.95452 8.8706C7.93506 9.5401 8.01114 10.7269 8.87845 12.0659C9.76097 13.4201 10.7956 13.9679 11.8303 13.2984C12.865 12.6289 12.7889 11.4421 11.9216 10.0879ZM13.1389 9.29664C14.1584 10.8791 13.8084 12.6898 12.1499 13.7701C10.4761 14.8504 8.68064 14.4396 7.66118 12.8572C6.64171 11.2747 6.99168 9.47923 8.66542 8.39891C10.324 7.31858 12.1194 7.72941 13.1389 9.29664Z" fill="#F5D0C6"/>
<path d="M16.0754 4.44265L17.384 3.9101L19.5294 9.15957L20.5185 8.76396C21.0054 8.56615 21.4314 8.35313 21.6749 8.18576L21.9183 8.79439L18.4187 10.2247L16.0754 4.44265Z" fill="#F5D0C6"/>
<path d="M25.4378 1.27662L24.0662 1.62445L25.5921 7.64194L26.9637 7.29411L25.4378 1.27662Z" fill="#F5D0C6"/>
<path d="M32.5848 5.76677L33.0109 5.73633C34.8064 5.58418 35.3237 4.38212 35.202 2.96705C35.065 1.53675 34.3651 0.456428 32.5696 0.608586L32.1436 0.639018L32.5848 5.76677ZM33.0109 0.0303835C35.0498 -0.136991 36.4801 1.0042 36.6475 2.8301C36.7996 4.65601 35.5824 6.04065 33.5434 6.20803L31.2154 6.40583L30.6829 0.212974L33.0109 0.0303835Z" fill="#F5D0C6"/>
<path d="M42.9926 1.50637L41.9123 3.62138L43.6773 3.80397L43.0078 1.50637H42.9926ZM43.8751 0.0760794L45.838 6.55804L44.4229 6.4211L43.8295 4.35174L41.6536 4.13872L41.1819 5.03645C41.0146 5.3712 40.8928 5.69074 40.8015 6.05592L39.9038 5.96462L43.1144 0L43.8751 0.0760794Z" fill="#F5D0C6"/>
<path d="M52.7456 2.4041L52.2435 2.25194L51.5283 4.68648L51.9544 4.80821C52.8825 5.08209 53.5064 4.67126 53.7194 3.95612C53.9172 3.2714 53.6281 2.66277 52.7456 2.4041ZM53.4455 2.05414C54.7237 2.43453 55.4084 3.33227 55.1193 4.3213C54.8454 5.26468 53.8868 5.6603 53.0195 5.44727L52.9586 5.43206L54.2063 8.74912L52.6695 8.29264L51.4979 4.77778L50.6458 7.69922L49.2764 7.30361L51.0262 1.33899L53.4455 2.05414Z" fill="#F5D0C6"/>
<path d="M60.2063 4.58766L57.5679 10.2072L58.8488 10.8086L61.4872 5.18907L60.2063 4.58766Z" fill="#F5D0C6"/>
<path d="M64.8421 14.2878L63.6553 13.4966L66.7897 8.76442L66.318 8.46011C65.9681 8.23187 65.5725 8.01885 65.2834 7.91233L65.6486 7.36456L69.696 10.0578L69.3308 10.6055C69.1178 10.3773 68.7678 10.1034 68.4178 9.87518L67.9614 9.57086L64.8421 14.2878Z" fill="#F5D0C6"/>
<path d="M74.1698 13.7548L73.3329 16.9501L73.3481 16.9653L75.2044 16.3415C75.5696 16.2197 76.0413 16.0067 76.3456 15.8089L76.9999 16.4328L73.1959 17.5587L71.294 19.5672L70.2593 18.5934L72.1613 16.5849L73.0894 12.7201L74.1698 13.7548Z" fill="#F5D0C6"/>
</svg>
