<svg width="124" height="150" viewBox="0 0 124 150" fill="none" xmlns="http://www.w3.org/2000/svg">
<g clip-path="url(#clip0_7086_10861)">
<path d="M58.9292 29.8696L52.8202 19.9294H55.9887L60.6886 27.5964L63.2951 23.2292C63.9793 22.0885 64.5821 21.0456 64.9975 19.9375H67.4492L61.4624 28.8838L68.0764 39.6877H64.9323L59.6623 31.0674L56.3389 36.396C55.6792 37.447 55.0846 38.4899 54.547 39.6877H52.1848L58.921 29.8696H58.9292Z" fill="#F6D1C8"/>
<path d="M38.4437 66.2738H38.5659L46.8253 49.8724H47.7212V69.6306H44.9681L45.1147 56.7328H45.0251L38.4111 69.7855H37.5395L30.8359 56.7328H30.7463L30.8685 66.339C30.8685 67.5367 30.9581 68.6122 31.1943 69.6306H29.1906V49.7257H30.0865L38.4355 66.2819L38.4437 66.2738Z" fill="#F6D1C8"/>
<path d="M63.1322 54.0603L60.1673 61.0918H66.2111L63.1892 54.0603H63.1322ZM64.1829 49.7175L72.7681 69.6225H69.8032L66.6917 62.2895H59.7193L57.8621 66.5997C57.4467 67.5855 57.1779 68.5714 56.9661 69.6225H54.8076L63.3684 49.7175H64.1748H64.1829Z" fill="#F6D1C8"/>
<path d="M79.2681 64.9294C80.8239 67.2678 83.0394 68.6121 85.369 68.6121C87.6986 68.6121 89.3765 67.2352 89.3765 64.9864C89.3765 62.4687 87.3157 61.4503 85.1898 60.9125C82.3796 60.22 79.4718 58.5171 79.4718 55.0461C79.4718 51.8441 82.1027 49.5709 85.874 49.5709C87.8207 49.5709 89.5883 50.1656 91.2337 51.3063V54.3862C89.9467 52.2596 88.1547 50.8501 85.9066 50.8501C83.7806 50.8501 82.1923 52.1374 82.1923 54.1417C82.1923 56.6268 84.53 57.6779 86.6478 58.2156C89.4905 58.9652 92.1541 60.554 92.1541 63.9353C92.1541 67.5611 89.4905 69.9239 85.2387 69.9239C82.9335 69.9239 80.8972 69.264 79.2518 68.0418V64.9294H79.2681Z" fill="#F6D1C8"/>
<path d="M26.6573 99.5573H23.7576V80.9967H20.9719C19.7745 80.9967 18.6667 81.0864 17.6812 81.2982V79.799H32.7338V81.2982C31.7482 81.0864 30.6404 80.9967 29.4431 80.9967H26.6573V99.5573Z" fill="#F6D1C8"/>
<path d="M48.0552 81.0049H45.6605V89.6578H48.0226C52.0057 89.6578 53.4963 87.4416 53.4963 85.1114C53.4963 82.9522 52.2663 81.0131 48.047 81.0131M49.4888 79.8072C53.5289 79.8072 56.5182 81.7545 56.5182 84.9892C56.5182 88.0446 53.7081 90.6193 49.8146 90.6193H49.4888L57.9844 99.5655H54.4493L45.6523 90.0489V99.5655H42.7526V79.8072H49.4888Z" fill="#F6D1C8"/>
<path d="M67.8076 99.5573V79.799H78.9993V81.2982C78.0138 81.0864 76.906 80.9967 75.7086 80.9967H70.7074V88.566H78.1848V89.7637H70.7074V98.3514H75.8552C77.0526 98.3514 78.1604 98.2618 79.146 98.05V99.5491H67.8076V99.5573Z" fill="#F6D1C8"/>
<path d="M89.9224 99.5573V79.799H101.114V81.2982C100.128 81.0864 99.0207 80.9967 97.8234 80.9967H92.8221V88.566H100.3V89.7637H92.8221V98.3514H97.97C99.1673 98.3514 100.275 98.2618 101.261 98.05V99.5491H89.9224V99.5573Z" fill="#F6D1C8"/>
<path d="M9.44615 126.143H9.56833L17.8277 109.742H18.7237V129.5H15.9706L16.1172 116.602H16.0276L9.41357 129.655H8.55016L1.84653 116.602H1.75694L1.87912 126.209C1.87912 127.406 1.96871 128.482 2.20493 129.5H0.201172V109.595H1.09716L9.44615 126.152V126.143Z" fill="#F6D1C8"/>
<path d="M32.9373 113.93L29.9724 120.961H36.0163L32.9944 113.93H32.9373ZM33.9881 109.587L42.5733 129.492H39.6084L36.4969 122.159H29.5244L27.6673 126.469C27.2519 127.455 26.9831 128.441 26.7713 129.492H24.6128L33.1736 109.587H33.98H33.9881Z" fill="#F6D1C8"/>
<path d="M51.5251 128.303H53.594C60.2976 128.303 62.839 124.775 62.839 119.593C62.839 114.411 60.2651 110.94 53.594 110.94H51.5251V128.303ZM54.995 109.742C61.552 109.742 65.8609 113.694 65.8609 119.617C65.8609 125.54 61.552 129.492 54.995 129.492H48.6172V109.734H54.995V109.742Z" fill="#F6D1C8"/>
<path d="M78.8202 110.94H76.4255V119.593H78.7876C82.7707 119.593 84.2613 117.376 84.2613 115.046C84.2613 112.887 83.0314 110.948 78.8121 110.948M80.2538 109.742C84.2939 109.742 87.2832 111.689 87.2832 114.924C87.2832 117.979 84.4731 120.554 80.5796 120.554H80.2538L88.7494 129.5H85.2143L76.4173 119.984V129.5H73.5176V109.742H80.2538Z" fill="#F6D1C8"/>
<path d="M98.0269 109.742H95.1272V129.5H98.0269V109.742Z" fill="#F6D1C8"/>
<path d="M109.463 128.303H111.532C118.236 128.303 120.777 124.775 120.777 119.593C120.777 114.411 118.203 110.94 111.532 110.94H109.463V128.303ZM112.933 109.742C119.49 109.742 123.799 113.694 123.799 119.617C123.799 125.54 119.49 129.492 112.933 129.492H106.555V109.734H112.933V109.742Z" fill="#F6D1C8"/>
<path d="M10.8391 26.5942C12.1912 27.0098 13.4537 26.8875 14.2194 26.1542C14.8629 25.535 14.8792 24.761 14.3416 24.1988C13.7307 23.5633 12.9324 23.7181 12.126 24.1988C10.9368 24.9239 9.48693 25.0624 8.45247 23.9869C7.40172 22.887 7.58906 21.3634 8.8353 20.1656C9.48693 19.5383 10.2526 19.1716 11.2219 19.025L12.517 20.3693C11.1812 19.9131 10.0978 20.019 9.4462 20.6382C8.89232 21.1678 8.80272 21.9174 9.33217 22.4715C9.91863 23.0825 10.7332 22.9196 11.5721 22.39C12.7695 21.6567 14.1216 21.4693 15.1724 22.5692C16.2964 23.7425 16.1254 25.3965 14.7244 26.7327C13.975 27.4497 13.1035 27.8327 12.1423 27.9549L10.8309 26.5861L10.8391 26.5942Z" fill="#F6D1C8"/>
<path d="M24.1893 13.9001C22.9838 12.0505 21.5339 11.2928 20.1085 12.2216C18.6912 13.1423 18.7971 14.78 20.0026 16.6296C21.2162 18.4872 22.6498 19.2531 24.0753 18.3324C25.5007 17.4036 25.3948 15.774 24.1893 13.9082M25.8591 12.8164C27.2764 14.9919 26.7877 17.4851 24.4988 18.9842C22.1937 20.4834 19.7256 19.9049 18.3165 17.7295C16.8992 15.554 17.3961 13.0771 19.6931 11.5861C21.9901 10.0951 24.4581 10.6573 25.8672 12.8164" fill="#F6D1C8"/>
<path d="M29.9236 6.11895L31.74 5.3775L34.6968 12.6046L36.0489 12.0505C36.725 11.7735 37.3033 11.4802 37.6372 11.2439L37.9793 12.0749L33.1654 14.0467L29.9236 6.1271V6.11895Z" fill="#F6D1C8"/>
<path d="M42.817 1.76926L40.9221 2.24994L43.0265 10.5505L44.9214 10.0698L42.817 1.76926Z" fill="#F6D1C8"/>
<path d="M52.6572 7.94407L53.2355 7.89518C55.7036 7.68334 56.4204 6.0212 56.2575 4.06574C56.0946 2.11028 55.1171 0.635541 52.6409 0.847382L52.0626 0.896269L52.6654 7.94407H52.6572ZM53.2437 0.0489032C56.062 -0.195529 58.0332 1.40143 58.2449 3.91908C58.4567 6.43674 56.7869 8.34331 53.9686 8.57959L50.7594 8.85662L50.0344 0.325927L53.2355 0.0489032H53.2437Z" fill="#F6D1C8"/>
<path d="M67.0012 2.0695L65.5106 4.99454L67.9461 5.23897L67.0257 2.0695H67.0012ZM68.2149 0.105891L70.911 9.04397L68.9643 8.84842L68.1579 6.00486L65.1685 5.70339L64.5088 6.94185C64.2807 7.41442 64.1015 7.8381 63.9793 8.35141L62.7412 8.22919L67.1804 0.00811768L68.223 0.114038L68.2149 0.105891Z" fill="#F6D1C8"/>
<path d="M80.4411 3.31611L79.7406 3.11242L78.755 6.46929L79.3415 6.64039C80.6122 7.01519 81.4837 6.44485 81.7688 5.45897C82.0458 4.49754 81.6548 3.66647 80.4411 3.30796M81.4104 2.8354C83.1617 3.3487 84.1065 4.60346 83.7074 5.97228C83.3246 7.26777 82.0132 7.82996 80.8077 7.5285L80.7181 7.50405L82.4449 12.0668L80.3271 11.4476L78.7224 6.6078L77.5414 10.6246L75.6598 10.0706L78.0708 1.85767L81.4023 2.8354H81.4104Z" fill="#F6D1C8"/>
<path d="M90.7317 6.31469L87.0935 14.0662L88.8631 14.8972L92.5013 7.14574L90.7317 6.31469Z" fill="#F6D1C8"/>
<path d="M97.1065 19.6931L95.4774 18.6094L99.7945 12.0831L99.1428 11.6513C98.6704 11.3335 98.1084 11.0483 97.7174 10.8935L98.2143 10.1439L103.818 13.8511L103.321 14.6007C103.028 14.2993 102.539 13.9 102.067 13.5823L101.432 13.1586L97.1146 19.6849L97.1065 19.6931Z" fill="#F6D1C8"/>
<path d="M109.976 18.9516L108.82 23.3596L108.836 23.3759L111.402 22.5204C111.915 22.3574 112.542 22.0478 112.974 21.7952L113.878 22.6507L108.624 24.2069L106.001 26.9772L104.584 25.6328L107.207 22.8626L108.486 17.5339L109.984 18.9516H109.976Z" fill="#F6D1C8"/>
<path d="M44.7074 142.154C45.4486 141.534 46.475 141.192 47.4198 141.192C49.1955 141.192 50.3114 142.292 50.3114 143.881C50.3114 145.682 48.8941 146.749 47.0859 148.085L46.2713 148.68V148.762H50.2381V149.894H44.4142V149.593L45.8396 148.053C47.2569 146.562 48.3647 145.25 48.3647 143.71C48.3647 142.577 47.9004 141.974 47.0533 141.974C46.2062 141.974 45.4568 142.626 44.7074 143.987V142.17V142.154Z" fill="#F6D1C8"/>
<path d="M55.3779 145.592C55.3779 147.873 55.8422 149.234 56.7545 149.234C57.6667 149.234 58.131 147.898 58.131 145.592C58.131 143.286 57.6749 141.958 56.7545 141.958C55.834 141.958 55.3779 143.294 55.3779 145.592ZM59.8904 145.592C59.8904 148.346 58.7093 150 56.6974 150C54.6855 150 53.6104 148.338 53.6104 145.592C53.6104 142.846 54.7426 141.192 56.6974 141.192C58.6523 141.192 59.8904 142.854 59.8904 145.592Z" fill="#F6D1C8"/>
<path d="M63.3032 142.154C64.0445 141.534 65.0626 141.192 66.0156 141.192C67.7913 141.192 68.9072 142.292 68.9072 143.881C68.9072 145.682 67.49 146.749 65.6817 148.085L64.8672 148.68V148.762H68.8339V149.894H63.01V149.593L64.4354 148.053C65.8527 146.562 66.9605 145.25 66.9605 143.71C66.9605 142.577 66.4962 141.974 65.6491 141.974C64.802 141.974 64.0526 142.626 63.3032 143.987V142.17V142.154Z" fill="#F6D1C8"/>
<path d="M44.7074 142.154C45.4486 141.534 46.475 141.192 47.4198 141.192C49.1955 141.192 50.3114 142.292 50.3114 143.881C50.3114 145.682 48.8941 146.749 47.0859 148.085L46.2713 148.68V148.762H50.2381V149.894H44.4142V149.593L45.8396 148.053C47.2569 146.562 48.3647 145.25 48.3647 143.71C48.3647 142.577 47.9004 141.974 47.0533 141.974C46.2062 141.974 45.4568 142.626 44.7074 143.987V142.17V142.154Z" fill="#F6D1C8"/>
<path d="M55.3779 145.592C55.3779 147.873 55.8422 149.234 56.7545 149.234C57.6667 149.234 58.131 147.898 58.131 145.592C58.131 143.286 57.6749 141.958 56.7545 141.958C55.834 141.958 55.3779 143.294 55.3779 145.592ZM59.8904 145.592C59.8904 148.346 58.7093 150 56.6974 150C54.6855 150 53.6104 148.338 53.6104 145.592C53.6104 142.846 54.7426 141.192 56.6974 141.192C58.6523 141.192 59.8904 142.854 59.8904 145.592Z" fill="#F6D1C8"/>
<path d="M63.3032 142.154C64.0445 141.534 65.0626 141.192 66.0156 141.192C67.7913 141.192 68.9072 142.292 68.9072 143.881C68.9072 145.682 67.49 146.749 65.6817 148.085L64.8672 148.68V148.762H68.8339V149.894H63.01V149.593L64.4354 148.053C65.8527 146.562 66.9605 145.25 66.9605 143.71C66.9605 142.577 66.4962 141.974 65.6491 141.974C64.802 141.974 64.0526 142.626 63.3032 143.987V142.17V142.154Z" fill="#F6D1C8"/>
<path d="M77.631 148.036H76.7432V149.886H75.3422V148.036H70.96V147.067C72.6786 145.445 73.7945 143.433 74.1529 141.29H75.9286C75.4399 143.05 73.8353 145.616 72.0596 147.026H75.3503V144.802H76.7513V147.026H77.6392V148.036H77.631Z" fill="#F6D1C8"/>
</g>
<defs>
<clipPath id="clip0_7086_10861">
<rect width="123.598" height="150" fill="white" transform="translate(0.201172)"/>
</clipPath>
</defs>
</svg>
