<svg width="72" height="88" viewBox="0 0 72 88" fill="none" xmlns="http://www.w3.org/2000/svg">
<g clip-path="url(#clip0_7022_35754)">
<path d="M34.2111 17.4001L30.6524 11.6096H32.4982L35.2361 16.0759L36.7544 13.5318C37.153 12.8674 37.5041 12.2598 37.7461 11.6143H39.1744L35.6868 16.8258L39.5397 23.1195H37.7082L34.6382 18.0978L32.7023 21.2019C32.3179 21.8142 31.9715 22.4218 31.6584 23.1195H30.2823L34.2064 17.4001H34.2111Z" fill="#F5D0C6"/>
<path d="M22.2776 38.6068H22.3488L27.1601 29.0524H27.6821V40.5623H26.0783L26.1637 33.0488H26.1115L22.2586 40.6525H21.7509L17.8458 33.0488H17.7936L17.8648 38.6448C17.8648 39.3425 17.917 39.969 18.0546 40.5623H16.8873V28.967H17.4093L22.2728 38.6115L22.2776 38.6068Z" fill="#F5D0C6"/>
<path d="M36.6595 31.492L34.9324 35.5881H38.4531L36.6928 31.492H36.6595ZM37.2716 28.9622L42.2728 40.5575H40.5457L38.7331 36.2858H34.6714L33.5896 38.7967C33.3476 39.371 33.191 39.9453 33.0676 40.5575H31.8102L36.7972 28.9622H37.2669H37.2716Z" fill="#F5D0C6"/>
<path d="M46.0593 37.8237C46.9656 39.1859 48.2562 39.969 49.6133 39.969C50.9703 39.969 51.9478 39.1669 51.9478 37.8569C51.9478 36.3903 50.7473 35.797 49.5089 35.4837C47.8719 35.0803 46.1779 34.0883 46.1779 32.0663C46.1779 30.201 47.7106 28.8768 49.9075 28.8768C51.0415 28.8768 52.0712 29.2233 53.0297 29.8878V31.6819C52.28 30.4431 51.2361 29.622 49.9265 29.622C48.688 29.622 47.7628 30.3719 47.7628 31.5395C47.7628 32.9871 49.1246 33.5994 50.3582 33.9127C52.0142 34.3493 53.5658 35.2749 53.5658 37.2446C53.5658 39.3567 52.0142 40.7332 49.5374 40.7332C48.1945 40.7332 47.0083 40.3487 46.0498 39.6368V37.8237H46.0593Z" fill="#F5D0C6"/>
<path d="M15.4116 57.9956H13.7224V47.1834H12.0996C11.4021 47.1834 10.7568 47.2357 10.1827 47.3591V46.4857H18.9514V47.3591C18.3772 47.2357 17.7319 47.1834 17.0344 47.1834H15.4116V57.9956Z" fill="#F5D0C6"/>
<path d="M27.8766 47.1882H26.4816V52.2288H27.8576C30.1779 52.2288 31.0463 50.9378 31.0463 49.5804C31.0463 48.3226 30.3298 47.1929 27.8719 47.1929M28.7117 46.4905C31.0652 46.4905 32.8066 47.6249 32.8066 49.5092C32.8066 51.289 31.1696 52.7889 28.9015 52.7889H28.7117L33.6607 58.0004H31.6014L26.4769 52.4566V58.0004H24.7877V46.4905H28.7117Z" fill="#F5D0C6"/>
<path d="M39.3832 57.9956V46.4857H45.9027V47.3591C45.3286 47.2357 44.6833 47.1834 43.9858 47.1834H41.0724V51.5928H45.4282V52.2905H41.0724V57.2932H44.0712C44.7687 57.2932 45.414 57.241 45.9881 57.1175V57.9909H39.3832V57.9956Z" fill="#F5D0C6"/>
<path d="M52.2657 57.9956V46.4857H58.7853V47.3591C58.2111 47.2357 57.5658 47.1834 56.8683 47.1834H53.9549V51.5928H58.3108V52.2905H53.9549V57.2932H56.9537C57.6512 57.2932 58.2966 57.241 58.8707 57.1175V57.9909H52.2657V57.9956Z" fill="#F5D0C6"/>
<path d="M5.38553 73.483H5.4567L10.2681 63.9286H10.79V75.4385H9.18624L9.27165 67.925H9.21945L5.36655 75.5286H4.86358L0.958481 67.925H0.906287L0.977461 73.5209C0.977461 74.2186 1.02966 74.8452 1.16726 75.4385H0V63.8431H0.521945L5.38553 73.4877V73.483Z" fill="#F5D0C6"/>
<path d="M19.07 66.3682L17.3428 70.4643H20.8636L19.1032 66.3682H19.07ZM19.6821 63.8384L24.6833 75.4337H22.9561L21.1435 71.162H17.0819L16 73.6728C15.758 74.2471 15.6014 74.8214 15.4781 75.4337H14.2206L19.2076 63.8384H19.6773H19.6821Z" fill="#F5D0C6"/>
<path d="M29.898 74.7408H31.1032C35.0083 74.7408 36.4887 72.6856 36.4887 69.6669C36.4887 66.6482 34.9893 64.6263 31.1032 64.6263H29.898V74.7408ZM31.9193 63.9286C35.739 63.9286 38.2491 66.2306 38.2491 69.6812C38.2491 73.1317 35.739 75.4337 31.9193 75.4337H28.204V63.9238H31.9193V63.9286Z" fill="#F5D0C6"/>
<path d="M45.7983 64.6263H44.4033V69.6669H45.7794C48.0996 69.6669 48.968 68.3759 48.968 67.0184C48.968 65.7607 48.2515 64.631 45.7936 64.631M46.6334 63.9286C48.9869 63.9286 50.7283 65.063 50.7283 66.9473C50.7283 68.7271 49.0913 70.227 46.8232 70.227H46.6334L51.5824 75.4385H49.5231L44.3986 69.8947V75.4385H42.7094V63.9286H46.6334Z" fill="#F5D0C6"/>
<path d="M56.9869 63.9286H55.2977V75.4385H56.9869V63.9286Z" fill="#F5D0C6"/>
<path d="M63.6489 74.7408H64.8541C68.7592 74.7408 70.2396 72.6856 70.2396 69.6669C70.2396 66.6482 68.7402 64.6263 64.8541 64.6263H63.6489V74.7408ZM65.6702 63.9286C69.4899 63.9286 72 66.2306 72 69.6812C72 73.1317 69.4899 75.4337 65.6702 75.4337H61.9549V63.9238H65.6702V63.9286Z" fill="#F5D0C6"/>
<path d="M6.19692 15.4921C6.98458 15.7341 7.72005 15.6629 8.16607 15.2358C8.54092 14.875 8.55042 14.4241 8.23725 14.0966C7.88138 13.7264 7.41637 13.8166 6.94662 14.0966C6.25386 14.5191 5.40925 14.5998 4.80664 13.9732C4.19454 13.3325 4.30368 12.4449 5.02966 11.7472C5.40925 11.3817 5.85528 11.1682 6.41993 11.0827L7.17438 11.8659C6.3962 11.6001 5.76512 11.6618 5.38553 12.0225C5.06287 12.331 5.01068 12.7677 5.3191 13.0904C5.66074 13.4464 6.13523 13.3515 6.62396 13.043C7.32147 12.6158 8.10913 12.5066 8.72123 13.1474C9.37604 13.8309 9.27639 14.7944 8.46026 15.5728C8.02372 15.9904 7.51601 16.2135 6.95611 16.2847L6.19217 15.4873L6.19692 15.4921Z" fill="#F5D0C6"/>
<path d="M13.9739 8.09727C13.2716 7.01985 12.427 6.57844 11.5967 7.11952C10.7711 7.65586 10.8327 8.60988 11.535 9.6873C12.242 10.7695 13.0771 11.2156 13.9075 10.6793C14.7378 10.1382 14.6762 9.18893 13.9739 8.10202M14.9466 7.46601C15.7722 8.73328 15.4875 10.1857 14.1542 11.059C12.8114 11.9323 11.3737 11.5953 10.5528 10.3281C9.72716 9.06078 10.0166 7.61789 11.3547 6.74931C12.6928 5.88073 14.1305 6.20823 14.9514 7.46601" fill="#F5D0C6"/>
<path d="M17.3144 3.5645L18.3725 3.13258L20.0949 7.3426L20.8826 7.01984C21.2764 6.85847 21.6133 6.6876 21.8078 6.54995L22.0071 7.03408L19.2028 8.1827L17.3144 3.56925V3.5645Z" fill="#F5D0C6"/>
<path d="M24.8253 1.03066L23.7214 1.31067L24.9473 6.14602L26.0511 5.86601L24.8253 1.03066Z" fill="#F5D0C6"/>
<path d="M30.5575 4.62769L30.8944 4.59922C32.3321 4.47581 32.7497 3.50756 32.6548 2.36843C32.5599 1.22931 31.9905 0.370219 30.548 0.493624L30.2111 0.522102L30.5623 4.62769H30.5575ZM30.8992 0.0284818C32.5409 -0.113909 33.6892 0.816376 33.8126 2.283C33.9359 3.74962 32.9632 4.86026 31.3215 4.99791L29.452 5.15928L29.0297 0.189858L30.8944 0.0284818H30.8992Z" fill="#F5D0C6"/>
<path d="M38.9134 1.20557L38.0451 2.90951L39.4638 3.0519L38.9276 1.20557H38.9134ZM39.6204 0.0617017L41.191 5.26845L40.0569 5.15453L39.5872 3.49806L37.8458 3.32244L37.4614 4.04389C37.3286 4.31918 37.2242 4.56599 37.153 4.86501L36.4318 4.79381L39.0178 0.00474548L39.6251 0.066448L39.6204 0.0617017Z" fill="#F5D0C6"/>
<path d="M46.7426 1.93177L46.3345 1.81311L45.7604 3.7686L46.102 3.86828C46.8422 4.08661 47.3499 3.75436 47.516 3.18005C47.6773 2.61999 47.4496 2.13586 46.7426 1.92702M47.3072 1.65173C48.3274 1.95075 48.8778 2.68169 48.6453 3.47907C48.4223 4.23374 47.6584 4.56124 46.9561 4.38563L46.9039 4.37139L47.9098 7.02934L46.6762 6.66862L45.7414 3.84929L45.0534 6.18924L43.9573 5.86649L45.3618 1.08217L47.3025 1.65173H47.3072Z" fill="#F5D0C6"/>
<path d="M52.7372 3.67853L50.6178 8.19403L51.6487 8.67815L53.7681 4.16264L52.7372 3.67853Z" fill="#F5D0C6"/>
<path d="M56.4508 11.4719L55.5018 10.8407L58.0166 7.03884L57.637 6.78728C57.3618 6.60218 57.0344 6.43605 56.8066 6.34587L57.0961 5.90921L60.3606 8.0688L60.0712 8.50546C59.9003 8.32985 59.6157 8.09728 59.3404 7.91217L58.9703 7.66536L56.4555 11.4672L56.4508 11.4719Z" fill="#F5D0C6"/>
<path d="M63.9478 11.04L63.274 13.6078L63.2835 13.6173L64.7782 13.1189C65.0771 13.024 65.4425 12.8436 65.6939 12.6965L66.2206 13.1948L63.1601 14.1014L61.6323 15.7152L60.8066 14.932L62.3345 13.3183L63.0795 10.2141L63.9526 11.04H63.9478Z" fill="#F5D0C6"/>
<path d="M25.9265 82.8095C26.3582 82.4488 26.9561 82.2495 27.5065 82.2495C28.5409 82.2495 29.191 82.8902 29.191 83.8158C29.191 84.8647 28.3654 85.4865 27.312 86.2649L26.8375 86.6114V86.6588H29.1483V87.3186H25.7556V87.143L26.586 86.2459C27.4116 85.3773 28.0569 84.6132 28.0569 83.7161C28.0569 83.0564 27.7865 82.7051 27.293 82.7051C26.7995 82.7051 26.363 83.0848 25.9265 83.8775V82.819V82.8095Z" fill="#F5D0C6"/>
<path d="M32.1423 84.8125C32.1423 86.1415 32.4128 86.9341 32.9442 86.9341C33.4757 86.9341 33.7461 86.1557 33.7461 84.8125C33.7461 83.4693 33.4804 82.6956 32.9442 82.6956C32.4081 82.6956 32.1423 83.474 32.1423 84.8125ZM34.7711 84.8125C34.7711 86.4168 34.083 87.3803 32.911 87.3803C31.739 87.3803 31.1127 86.412 31.1127 84.8125C31.1127 83.213 31.7722 82.2495 32.911 82.2495C34.0498 82.2495 34.7711 83.2177 34.7711 84.8125Z" fill="#F5D0C6"/>
<path d="M36.7592 82.8095C37.191 82.4488 37.7841 82.2495 38.3393 82.2495C39.3737 82.2495 40.0237 82.8902 40.0237 83.8158C40.0237 84.8647 39.1981 85.4865 38.1447 86.2649L37.6702 86.6114V86.6588H39.981V87.3186H36.5884V87.143L37.4187 86.2459C38.2444 85.3773 38.8897 84.6132 38.8897 83.7161C38.8897 83.0564 38.6192 82.7051 38.1257 82.7051C37.6323 82.7051 37.1957 83.0848 36.7592 83.8775V82.819V82.8095Z" fill="#F5D0C6"/>
<path d="M25.9265 82.8095C26.3582 82.4488 26.9561 82.2495 27.5065 82.2495C28.5409 82.2495 29.191 82.8902 29.191 83.8158C29.191 84.8647 28.3654 85.4865 27.312 86.2649L26.8375 86.6114V86.6588H29.1483V87.3186H25.7556V87.143L26.586 86.2459C27.4116 85.3773 28.0569 84.6132 28.0569 83.7161C28.0569 83.0564 27.7865 82.7051 27.293 82.7051C26.7995 82.7051 26.363 83.0848 25.9265 83.8775V82.819V82.8095Z" fill="#F5D0C6"/>
<path d="M32.1423 84.8125C32.1423 86.1415 32.4128 86.9341 32.9442 86.9341C33.4757 86.9341 33.7461 86.1557 33.7461 84.8125C33.7461 83.4693 33.4804 82.6956 32.9442 82.6956C32.4081 82.6956 32.1423 83.474 32.1423 84.8125ZM34.7711 84.8125C34.7711 86.4168 34.083 87.3803 32.911 87.3803C31.739 87.3803 31.1127 86.412 31.1127 84.8125C31.1127 83.213 31.7722 82.2495 32.911 82.2495C34.0498 82.2495 34.7711 83.2177 34.7711 84.8125Z" fill="#F5D0C6"/>
<path d="M36.7592 82.8095C37.191 82.4488 37.7841 82.2495 38.3393 82.2495C39.3737 82.2495 40.0237 82.8902 40.0237 83.8158C40.0237 84.8647 39.1981 85.4865 38.1447 86.2649L37.6702 86.6114V86.6588H39.981V87.3186H36.5884V87.143L37.4187 86.2459C38.2444 85.3773 38.8897 84.6132 38.8897 83.7161C38.8897 83.0564 38.6192 82.7051 38.1257 82.7051C37.6323 82.7051 37.1957 83.0848 36.7592 83.8775V82.819V82.8095Z" fill="#F5D0C6"/>
<path d="M45.1056 86.2364H44.5884V87.3138H43.7722V86.2364H41.2195V85.6716C42.2206 84.7271 42.8707 83.5547 43.0795 82.3064H44.1139C43.8292 83.3317 42.8944 84.8268 41.86 85.6479H43.777V84.3521H44.5931V85.6479H45.1103V86.2364H45.1056Z" fill="#F5D0C6"/>
</g>
<defs>
<clipPath id="clip0_7022_35754">
<rect width="72" height="87.3803" fill="white"/>
</clipPath>
</defs>
</svg>
