<svg width="48" height="73" viewBox="0 0 48 73" fill="none" xmlns="http://www.w3.org/2000/svg">
<g id="Capa 1">
<g id="Group">
<g id="Group_2">
<path id="Vector" d="M12.102 11.4401C14.8678 10.3624 16.4501 7.76546 15.636 5.63966C14.822 3.51385 11.9199 2.66416 9.15403 3.74183C6.38817 4.81949 4.80591 7.41642 5.61996 9.54223C6.43401 11.668 9.33609 12.5177 12.102 11.4401Z" fill="#F9C69D"/>
<path id="Vector_2" d="M13.3307 10.4856H9.30273V16.5801H13.3307V10.4856Z" fill="#F9C69D"/>
<path id="Vector_3" d="M14.9594 1.03303C13.8098 -0.092061 8.05606 0.471923 8.05606 0.471923L4.60437 2.15812L5.75398 6.09162C5.75398 6.09162 9.20567 6.09162 10.3553 6.65272C11.5049 7.21383 13.807 7.77781 13.807 7.77781L16.6824 6.09162C16.6824 6.09162 16.6824 4.40542 16.1062 3.28033C15.53 2.15524 14.9566 1.03303 14.9566 1.03303H14.9594Z" fill="#35220F"/>
<path id="Vector_4" d="M7.81935 68.268C8.29288 68.1328 8.60667 67.6781 8.57244 67.1832L7.32014 49.4782C7.30302 49.2192 7.38004 48.9631 7.53694 48.7588L10.1271 45.4008C10.7347 44.6124 11.9899 45.0469 11.9899 46.0453V50.8306C11.9899 51.0147 12.0384 51.1931 12.1268 51.3514L17.1275 60.1795C17.2758 60.4384 17.3044 60.7492 17.2102 61.0341L16.1947 64.1043C16.0834 64.4439 15.8039 64.7028 15.4587 64.792L14.118 65.1316C13.6558 65.2496 13.3306 65.6697 13.3306 66.1502C13.3306 66.789 13.8926 67.2811 14.5202 67.189L17.5697 66.7487C17.8635 66.7056 18.1231 66.5415 18.2885 66.2912L21.7031 61.1233C21.9199 60.7952 21.937 60.3694 21.7431 60.027L16.2204 50.1256C16.0891 49.8896 16.052 49.6105 16.1205 49.3487L19.1814 37.3899C19.6178 35.0822 17.9148 32.9385 15.6156 32.8378C15.5015 32.832 15.3874 32.8493 15.279 32.8809L6.5271 35.3757C6.16767 35.4793 5.89097 35.767 5.79968 36.1325L5.28336 38.2215C5.27765 38.2416 5.27194 38.2618 5.26624 38.2791L1.99427 48.8394C1.94577 48.9976 1.93436 49.1674 1.96289 49.3314L4.49032 63.995C4.55879 64.395 4.39333 64.8007 4.06243 65.0366L0.958763 67.9716C0.408204 68.3601 0.339741 69.1543 0.813278 69.6319" fill="#35220F"/>
<path id="Vector_5" d="M16.015 25.3821L16.9107 26.7373C16.9107 26.7373 16.1747 32.7023 16.1747 32.8318C16.1747 34.1871 19.3697 35.5395 19.3697 35.5395L22.054 25.3849L13.9668 16.5828H9.55662L7.28878 19.9667L6.61841 35.5395H16.015L14.6714 25.3849H16.015V25.3821Z" fill="#AA4D36"/>
</g>
<g id="Group_3">
<path id="Vector_6" d="M37.5698 14.2811C40.3298 13.2058 41.9091 10.6155 41.0973 8.49561C40.2855 6.37573 37.3901 5.529 34.6301 6.60437C31.8701 7.67975 30.2908 10.27 31.1025 12.3899C31.9143 14.5098 34.8098 15.3565 37.5698 14.2811Z" fill="#F9C69D"/>
<path id="Vector_7" d="M38.7932 13.3284H34.7767V19.4085H38.7932V13.3284Z" fill="#F9C69D"/>
<path id="Vector_8" d="M40.422 3.89889C39.2753 2.77668 33.5358 3.33779 33.5358 3.33779L30.0927 5.0211L31.2394 8.94597C31.2394 8.94597 34.6825 8.94597 35.8322 9.50708C36.9789 10.0682 42.145 8.94597 42.145 8.94597C42.145 8.94597 42.145 7.26265 41.5717 6.14332C40.9983 5.02111 40.4249 3.90177 40.4249 3.90177L40.422 3.89889Z" fill="#7F5F41"/>
<path id="Vector_9" d="M33.2962 70.9726C33.7697 70.8373 34.0806 70.3856 34.0464 69.8906L32.797 52.2287C32.7798 51.9698 32.8569 51.7137 33.0138 51.5094L35.5983 48.1571C36.2059 47.3687 37.4582 47.8032 37.4582 48.8017V53.5754C37.4582 53.7567 37.5067 53.938 37.5951 54.0962L42.5844 62.9041C42.7298 63.1631 42.7612 63.4739 42.6671 63.7559L41.6544 66.8175C41.5431 67.157 41.2664 67.416 40.9213 67.5023L39.5834 67.839C39.1213 67.957 38.7961 68.3742 38.7961 68.8547C38.7961 69.4935 39.3552 69.9827 39.9827 69.8906L43.0237 69.4533C43.3175 69.4101 43.5771 69.2461 43.7397 68.9986L47.1457 63.8451C47.3625 63.517 47.3796 63.0941 47.1857 62.7488L41.6772 52.8704C41.546 52.6345 41.5089 52.3553 41.5774 52.0935L44.6325 40.1635C45.0661 37.8615 43.3688 35.7236 41.0753 35.62C40.9612 35.6142 40.8471 35.6315 40.7387 35.6632L32.0096 38.1522C31.6502 38.2558 31.3735 38.5406 31.2851 38.9061L30.7687 40.9893C30.763 41.0095 30.7573 41.0296 30.7516 41.0469L27.4882 51.5813C27.4397 51.7396 27.4283 51.9093 27.4568 52.0734L29.9786 66.7024C30.047 67.1024 29.8816 67.5081 29.5507 67.7412L26.4556 70.6704C25.9079 71.0589 25.8394 71.8502 26.3129 72.3279" fill="#F9C69D"/>
<path id="Vector_10" d="M41.4748 28.1876L42.3676 29.5371C42.3676 29.5371 41.6345 35.4877 41.6345 35.6172C41.6345 36.9668 44.8237 38.3192 44.8237 38.3192L47.5024 28.1876L39.4351 19.4084H35.0335L32.7685 22.7866L32.0981 38.322H41.4719L40.134 28.1905H41.4719L41.4748 28.1876Z" fill="#EA9DD8"/>
<path id="Vector_11" d="M38.7961 13.3283L43.483 9.95016L41.4747 5.89868L37.444 6.51158L38.7961 13.3283Z" fill="#7F5F41"/>
<path id="Vector_12" d="M38.334 16.6891L44.1534 17.3797L46.1616 14.0045H42.1451L40.8044 8.60059L38.6307 15.4921" fill="#7F5F41"/>
<path id="Vector_13" d="M32.8483 10.1055L33.4388 16.7064L29.4223 17.3797L28.0815 13.3283L30.7602 12.6521V10.6263L32.5516 5.61377L32.8483 10.1055Z" fill="#7F5F41"/>
<path id="Vector_14" d="M32.101 38.3193C32.101 38.3193 23.3976 49.8004 24.0651 49.8004C24.7326 49.8004 45.4912 54.5281 45.4912 54.5281L41.4747 38.3164H32.101V38.3193Z" fill="#D84EBE"/>
</g>
</g>
</g>
</svg>
