<svg width="287" height="103" viewBox="0 0 287 103" fill="none" xmlns="http://www.w3.org/2000/svg">
<g clip-path="url(#clip0_7410_352)">
<mask id="mask0_7410_352" style="mask-type:luminance" maskUnits="userSpaceOnUse" x="0" y="0" width="287" height="103">
<path d="M287 0H0V103H287V0Z" fill="white"/>
</mask>
<g mask="url(#mask0_7410_352)">
<path d="M226.268 52.741C217.732 52.741 210.963 45.3328 210.963 36.1949C210.963 26.4176 217.582 20.4008 226.005 20.4008C230.104 20.4008 235.745 21.9802 235.745 25.4023V28.7115H243.604V22.8075C243.604 14.7977 231.834 12.3158 225.779 12.3158C212.129 12.3158 201.938 22.6195 201.938 36.1573C201.938 49.695 211.753 60.7884 226.118 60.7884C232.924 60.7884 238.039 58.2689 241.235 56.0502L237.098 49.3942C234.616 51.0112 230.931 52.741 226.268 52.741Z" fill="#F6D1C8"/>
<path d="M85.0997 52.6658H91.831C96.0803 52.6658 98.4494 49.8455 98.4494 45.8594C98.4494 41.8732 96.0051 39.1281 91.831 39.1281H83.6331V51.1992C83.6331 52.1394 84.1596 52.6658 85.0997 52.6658ZM91.0789 32.284C94.7265 32.284 96.7572 29.6517 96.7572 26.2673C96.7572 22.8828 94.7641 20.4761 90.9284 20.4761H83.6331V32.284H91.0789ZM74.9464 20.4385H70.6595V13.1056H91.0037C99.4647 13.1056 105.557 17.4678 105.557 25.1767C105.557 30.4038 102.699 33.7506 99.8784 35.2172V35.3676C104.993 36.8718 107.437 41.6476 107.437 46.3858C107.437 55.7494 99.9536 59.9988 91.1917 59.9988H79.4966C76.3754 59.9988 74.984 58.6826 74.984 55.5238V20.4385H74.9464Z" fill="#F6D1C8"/>
<path d="M13.4624 59.9988H19.6672L36.7398 13.1056H30.5726L13.4624 59.9988Z" fill="#F6D1C8"/>
<path d="M0 59.9988H6.2048L23.2774 13.1056H17.1102L0 59.9988Z" fill="#F6D1C8"/>
<path d="M42.5686 40.8579L46.63 29.1252C47.4949 26.5681 48.4726 22.1307 48.4726 22.1307H48.5854C48.5854 22.1307 49.5631 26.5681 50.4281 29.1252L54.4894 40.8579H42.5686ZM69.0424 52.6658C67.9143 52.6658 67.3878 52.4026 66.9742 51.1992L53.098 13.1056H44.0352L26.9626 59.9988H32.1897C35.4989 59.9988 36.6271 59.1339 37.68 56.1631L40.6132 47.9652H56.52L59.4532 56.1631C60.5062 59.1339 61.7095 59.9988 65.0187 59.9988H71.4492V52.6658H69.0424Z" fill="#F6D1C8"/>
<path d="M190.92 13.1056C187.723 13.1056 186.407 14.497 186.407 17.6182V39.0529C186.407 41.7604 186.858 45.6337 186.858 45.6337H186.708C186.708 45.6337 184.64 41.7604 182.797 39.0529L164.972 13.1056H157.151V59.9988H161.325C164.484 59.9988 165.837 58.6826 165.837 55.5238V34.1266C165.837 31.4191 165.386 27.5082 165.386 27.5082H165.536C165.536 27.5082 167.605 31.4567 169.447 34.1266L187.31 59.9988H195.056V21.9051C195.056 20.965 195.583 20.4385 196.523 20.4385H199.381V13.1056H190.92Z" fill="#F6D1C8"/>
<path d="M123.795 40.8579L127.819 29.1252C128.684 26.5681 129.661 22.1307 129.661 22.1307H129.812C129.812 22.1307 130.79 26.5681 131.654 29.1252L135.678 40.8579H123.795ZM150.269 52.6658C149.141 52.6658 148.614 52.4026 148.201 51.1992L134.287 13.1056H125.224L108.189 59.9988H113.416C116.725 59.9988 117.854 59.1339 118.906 56.1631L121.802 47.9652H137.709L140.604 56.1631C141.657 59.1339 142.861 59.9988 146.17 59.9988H152.6V52.6658H150.269Z" fill="#F6D1C8"/>
<path d="M258.195 40.8579L262.218 29.1252C263.083 26.5681 264.061 22.1307 264.061 22.1307H264.211C264.211 22.1307 265.227 26.5681 266.054 29.1252L270.078 40.8579H258.195ZM284.668 52.6658C283.54 52.6658 283.014 52.4026 282.6 51.1992L268.686 13.1056H259.624L242.551 59.9988H247.778C251.087 59.9988 252.216 59.1339 253.268 56.1631L256.202 47.9652H272.108L275.004 56.1631C276.057 59.1339 277.26 59.9988 280.57 59.9988H287V52.6658H284.668Z" fill="#F6D1C8"/>
<path d="M199.569 79.5531C202.577 79.5531 204.533 77.7481 204.533 74.6645C204.533 71.5809 202.577 69.8887 199.606 69.8887H194.304V79.5531H199.569ZM192.123 67.9332H199.87C203.893 67.9332 206.789 70.528 206.789 74.6645C206.789 78.801 203.893 81.5086 199.87 81.5086H194.304V90.3081H192.085V67.9332H192.123Z" fill="#F6D1C8"/>
<path d="M209.76 74.2885H211.903V77.1088C211.903 77.7857 211.828 78.3874 211.828 78.3874H211.903C212.655 75.9807 214.46 74.1381 216.98 74.1381C217.431 74.1381 217.845 74.2509 217.845 74.2509V76.3944C217.845 76.3944 217.469 76.3191 217.055 76.3191C214.799 76.3191 213.107 78.0866 212.392 80.4557C212.054 81.471 211.941 82.5615 211.941 83.5769V90.3081H209.76V74.2885Z" fill="#F6D1C8"/>
<path d="M220.327 90.3081H222.508V74.2884H220.327V90.3081ZM220.251 70.6408H222.508V67.9332H220.251V70.6408Z" fill="#F6D1C8"/>
<path d="M224.726 74.2886H227.02L231.495 86.0213C231.796 86.811 232.022 87.9391 232.022 87.9391H232.097C232.097 87.9391 232.36 86.8486 232.661 86.0213L237.098 74.2886H239.355L233.225 90.3082H230.856L224.726 74.2886Z" fill="#F6D1C8"/>
<path d="M246.124 88.8416C249.17 88.8416 251.05 85.6452 251.05 82.9V82.1855H250.11C247.59 82.1855 242.551 82.2983 242.551 85.8332C242.551 87.2998 243.717 88.8416 246.124 88.8416ZM250.147 80.4181H251.05V80.0045C251.05 76.9209 249.358 75.8679 247.064 75.8679C244.431 75.8679 242.551 77.4097 242.551 77.4097L241.536 75.7551C241.536 75.7551 243.642 73.9501 247.252 73.9501C251.125 73.9501 253.268 76.0935 253.268 80.0797V90.3458H251.2V88.5784C251.2 87.7887 251.275 87.2246 251.275 87.2246H251.2C251.2 87.2246 249.846 90.6842 245.823 90.6842C243.153 90.6842 240.37 89.1424 240.37 85.946C240.332 80.5309 247.365 80.4181 250.147 80.4181Z" fill="#F6D1C8"/>
<path d="M263.685 88.7663C266.355 88.7663 268.874 86.8485 268.874 82.2983C268.874 79.0643 267.22 75.8678 263.76 75.8678C260.94 75.8678 258.608 78.2746 258.608 82.2983C258.608 86.322 260.677 88.7663 263.685 88.7663ZM263.572 73.9124C267.445 73.9124 268.799 76.9208 268.799 76.9208H268.874C268.874 76.9208 268.799 76.3943 268.799 75.7174V67.9332H270.98V90.3081H268.874V88.6159C268.874 87.9014 268.95 87.4501 268.95 87.4501H268.874C268.874 87.4501 267.558 90.6841 263.347 90.6841C259.135 90.6841 256.352 87.2621 256.352 82.2607C256.39 77.2216 259.36 73.9124 263.572 73.9124Z" fill="#F6D1C8"/>
<path d="M279.93 88.8416C282.976 88.8416 284.857 85.6452 284.857 82.9V82.1855H283.916C281.397 82.1855 276.358 82.2983 276.358 85.8332C276.358 87.2998 277.524 88.8416 279.93 88.8416ZM283.954 80.4181H284.857V80.0045C284.857 76.9209 283.164 75.8679 280.87 75.8679C278.2 75.8679 276.32 77.4097 276.32 77.4097L275.305 75.7551C275.305 75.7551 277.411 73.9501 281.021 73.9501C284.894 73.9501 287 76.0935 287 80.0797V90.3458H284.932V88.5784C284.932 87.7887 285.007 87.2246 285.007 87.2246H284.932C284.932 87.2246 283.578 90.6842 279.554 90.6842C276.884 90.6842 274.102 89.1424 274.102 85.946C274.139 80.5309 281.171 80.4181 283.954 80.4181Z" fill="#F6D1C8"/>
</g>
</g>
<defs>
<clipPath id="clip0_7410_352">
<rect width="287" height="103" fill="white"/>
</clipPath>
</defs>
</svg>
