<svg width="287" height="103" viewBox="0 0 287 103" fill="none" xmlns="http://www.w3.org/2000/svg">
<mask id="mask0_11216_574" style="mask-type:luminance" maskUnits="userSpaceOnUse" x="60" y="21" width="168" height="60">
<path d="M227.184 21H60V81H227.184V21Z" fill="white"/>
</mask>
<g mask="url(#mask0_11216_574)">
<mask id="mask1_11216_574" style="mask-type:luminance" maskUnits="userSpaceOnUse" x="60" y="21" width="168" height="60">
<path d="M227.184 21H60V81H227.184V21Z" fill="white"/>
</mask>
<g mask="url(#mask1_11216_574)">
<mask id="mask2_11216_574" style="mask-type:luminance" maskUnits="userSpaceOnUse" x="60" y="21" width="168" height="60">
<path d="M227.184 21H60V81H227.184V21Z" fill="white"/>
</mask>
<g mask="url(#mask2_11216_574)">
<path d="M191.807 51.7229C186.834 51.7229 182.891 47.4074 182.891 42.0844C182.891 36.3888 186.747 32.8839 191.653 32.8839C194.041 32.8839 197.327 33.8039 197.327 35.7974V37.7251H201.905V34.2859C201.905 29.62 195.049 28.1742 191.522 28.1742C183.57 28.1742 177.634 34.1763 177.634 42.0624C177.634 49.9485 183.351 56.4107 191.719 56.4107C195.684 56.4107 198.663 54.943 200.525 53.6505L198.115 49.7733C196.67 50.7152 194.523 51.7229 191.807 51.7229Z" fill="#094752"/>
<path d="M109.573 51.6791H113.494C115.969 51.6791 117.349 50.0362 117.349 47.7142C117.349 45.3922 115.925 43.7931 113.494 43.7931H108.718V50.8248C108.718 51.3725 109.025 51.6791 109.573 51.6791ZM113.056 39.8062C115.181 39.8062 116.363 38.2728 116.363 36.3013C116.363 34.3298 115.202 32.9278 112.968 32.9278H108.718V39.8062H113.056ZM103.658 32.9059H101.161V28.6343H113.012C117.941 28.6343 121.49 31.1754 121.49 35.666C121.49 38.711 119.825 40.6606 118.182 41.5149V41.6025C121.161 42.4787 122.585 45.2607 122.585 48.0209C122.585 53.4754 118.225 55.9508 113.121 55.9508H106.309C104.491 55.9508 103.68 55.184 103.68 53.344V32.9059H103.658Z" fill="#094752"/>
<path d="M67.8423 55.9508H71.4567L81.4019 28.6343H77.8094L67.8423 55.9508Z" fill="#094752"/>
<path d="M60 55.9508H63.6144L73.5596 28.6343H69.9671L60 55.9508Z" fill="#094752"/>
<path d="M84.7972 44.8007L87.163 37.9661C87.6669 36.4766 88.2364 33.8917 88.2364 33.8917H88.3021C88.3021 33.8917 88.8716 36.4766 89.3755 37.9661L91.7413 44.8007H84.7972ZM100.219 51.6791C99.5617 51.6791 99.255 51.5258 99.014 50.8248L90.9308 28.6343H85.6515L75.7063 55.9508H78.7512C80.6789 55.9508 81.3361 55.4469 81.9494 53.7164L83.6581 48.9409H92.9242L94.6329 53.7164C95.2463 55.4469 95.9472 55.9508 97.8749 55.9508H101.621V51.6791H100.219Z" fill="#094752"/>
<path d="M171.215 28.6343C169.353 28.6343 168.587 29.4449 168.587 31.263V43.7493C168.587 45.3265 168.849 47.5827 168.849 47.5827H168.762C168.762 47.5827 167.557 45.3265 166.484 43.7493L156.1 28.6343H151.544V55.9508H153.976C155.816 55.9508 156.604 55.184 156.604 53.344V40.8796C156.604 39.3024 156.341 37.0242 156.341 37.0242H156.429C156.429 37.0242 157.634 39.3243 158.707 40.8796L169.113 55.9508H173.625V33.7603C173.625 33.2126 173.932 32.9059 174.479 32.9059H176.144V28.6343H171.215Z" fill="#094752"/>
<path d="M132.114 44.8007L134.458 37.9661C134.962 36.4766 135.531 33.8917 135.531 33.8917H135.619C135.619 33.8917 136.188 36.4766 136.692 37.9661L139.036 44.8007H132.114ZM147.535 51.6791C146.878 51.6791 146.571 51.5258 146.331 50.8248L138.226 28.6343H132.946L123.023 55.9508H126.068C127.995 55.9508 128.653 55.4469 129.266 53.7164L130.953 48.9409H140.219L141.905 53.7164C142.519 55.4469 143.22 55.9508 145.148 55.9508H148.893V51.6791H147.535Z" fill="#094752"/>
<path d="M210.405 44.8007L212.748 37.9661C213.252 36.4766 213.822 33.8917 213.822 33.8917H213.909C213.909 33.8917 214.501 36.4766 214.983 37.9661L217.327 44.8007H210.405ZM225.826 51.6791C225.169 51.6791 224.862 51.5258 224.621 50.8248L216.516 28.6343H211.237L201.292 55.9508H204.337C206.264 55.9508 206.922 55.4469 207.535 53.7164L209.244 48.9409H218.509L220.196 53.7164C220.81 55.4469 221.511 55.9508 223.439 55.9508H227.184V51.6791H225.826Z" fill="#094752"/>
<path d="M176.254 67.3416C178.006 67.3416 179.145 66.2901 179.145 64.4938C179.145 62.6976 178.006 61.7118 176.275 61.7118H173.187V67.3416H176.254ZM171.916 60.5727H176.429C178.772 60.5727 180.459 62.0842 180.459 64.4938C180.459 66.9035 178.772 68.4807 176.429 68.4807H173.187V73.6066H171.894V60.5727H171.916Z" fill="#094752"/>
<path d="M182.19 64.2749H183.439V65.9178C183.439 66.3121 183.395 66.6626 183.395 66.6626H183.439C183.877 65.2606 184.928 64.1873 186.396 64.1873C186.659 64.1873 186.9 64.253 186.9 64.253V65.5016C186.9 65.5016 186.681 65.4577 186.44 65.4577C185.126 65.4577 184.14 66.4874 183.723 67.8674C183.526 68.4589 183.461 69.0941 183.461 69.6856V73.6067H182.19V64.2749Z" fill="#094752"/>
<path d="M188.346 73.6066H189.616V64.2748H188.346V73.6066ZM188.302 62.1499H189.616V60.5727H188.302V62.1499Z" fill="#094752"/>
<path d="M190.909 64.2749H192.245L194.852 71.1095C195.027 71.5695 195.159 72.2267 195.159 72.2267H195.202C195.202 72.2267 195.356 71.5914 195.531 71.1095L198.116 64.2749H199.43L195.859 73.6067H194.479L190.909 64.2749Z" fill="#094752"/>
<path d="M203.373 72.7524C205.148 72.7524 206.243 70.8904 206.243 69.2912V68.875H205.695C204.227 68.875 201.292 68.9407 201.292 70.9999C201.292 71.8542 201.971 72.7524 203.373 72.7524ZM205.717 67.8455H206.243V67.6045C206.243 65.8083 205.257 65.1949 203.921 65.1949C202.387 65.1949 201.292 66.093 201.292 66.093L200.701 65.1291C200.701 65.1291 201.927 64.0777 204.03 64.0777C206.287 64.0777 207.535 65.3263 207.535 67.6483V73.6286H206.33V72.599C206.33 72.139 206.374 71.8104 206.374 71.8104H206.33C206.33 71.8104 205.541 73.8257 203.198 73.8257C201.643 73.8257 200.021 72.9276 200.021 71.0656C199.999 67.9112 204.096 67.8455 205.717 67.8455Z" fill="#094752"/>
<path d="M213.603 72.7085C215.158 72.7085 216.626 71.5913 216.626 68.9407C216.626 67.0568 215.662 65.1948 213.647 65.1948C212.004 65.1948 210.645 66.5968 210.645 68.9407C210.645 71.2846 211.851 72.7085 213.603 72.7085ZM213.537 64.0557C215.793 64.0557 216.582 65.8082 216.582 65.8082H216.626C216.626 65.8082 216.582 65.5015 216.582 65.1072V60.5727H217.852V73.6066H216.626V72.6209C216.626 72.2047 216.67 71.9418 216.67 71.9418H216.626C216.626 71.9418 215.859 73.8256 213.406 73.8256C210.952 73.8256 209.331 71.8322 209.331 68.9188C209.353 65.9834 211.084 64.0557 213.537 64.0557Z" fill="#094752"/>
<path d="M223.066 72.7524C224.84 72.7524 225.936 70.8904 225.936 69.2912V68.875H225.388C223.921 68.875 220.985 68.9407 220.985 70.9999C220.985 71.8542 221.665 72.7524 223.066 72.7524ZM225.41 67.8455H225.936V67.6045C225.936 65.8083 224.95 65.1949 223.614 65.1949C222.058 65.1949 220.963 66.093 220.963 66.093L220.372 65.1291C220.372 65.1291 221.599 64.0777 223.702 64.0777C225.958 64.0777 227.185 65.3263 227.185 67.6483V73.6286H225.98V72.599C225.98 72.139 226.024 71.8104 226.024 71.8104H225.98C225.98 71.8104 225.191 73.8257 222.847 73.8257C221.292 73.8257 219.671 72.9276 219.671 71.0656C219.693 67.9112 223.789 67.8455 225.41 67.8455Z" fill="#094752"/>
</g>
</g>
</g>
</svg>
