<svg width="287" height="103" viewBox="0 0 287 103" fill="none" xmlns="http://www.w3.org/2000/svg">
<path d="M146.143 30.0946C149.154 29.8932 151.668 30.1047 154.267 31.8871C159.684 35.6026 160.27 44.5638 156.726 49.7159C155.043 52.1635 152.585 53.3477 149.715 53.8237C141.501 54.8498 136.338 49.4186 136.682 41.3582C136.941 35.2578 140.072 31.1371 146.143 30.0946ZM148.784 50.9539C149.511 50.8132 150.222 50.6677 150.899 50.3578C156.699 47.711 156.862 37.4015 151.693 34.058C150.245 33.1217 148.668 32.8984 146.986 32.983C139.107 34.3358 138.023 45.3994 143.795 49.8456C145.147 50.8875 147.112 51.0251 148.784 50.9539Z" fill="#094752"/>
<path d="M0 30.3926C3.60526 30.3754 12.4178 29.4478 13.9481 33.877C15.3782 38.0157 13.6397 40.3523 9.78157 41.765C13.8613 42.5747 15.4246 44.911 14.8154 48.9871C13.0197 54.7993 4.89925 53.5645 0 53.5408V30.3926ZM3.34453 50.7801C5.69218 50.7975 8.50814 51.0489 10.4629 49.6117C11.8947 47.7175 12.0649 45.3901 9.87122 44.0362C7.94384 42.8462 5.51809 43.0116 3.34453 43.0506V50.7801ZM3.34453 40.2309C5.68664 40.2498 7.81182 40.4764 9.91866 39.3522C11.2495 37.8367 11.5919 35.5805 9.96925 34.1197C8.57186 32.8614 5.31982 33.1553 3.46438 33.1819C3.21741 33.8849 3.33473 39.1488 3.34453 40.2309Z" fill="#094752"/>
<path d="M28.2568 30.3928H31.7551L41.5302 53.541H37.8625L35.537 47.7351H31.6631H24.2538L21.9285 53.541H18.4124C19.1492 51.4143 20.8318 47.7762 21.771 45.5832L28.2568 30.3928ZM25.3239 44.9665H30.0543H34.4781C33.4346 42.4894 32.4236 39.9993 31.4454 37.4963C31.0957 36.6194 30.2725 34.4241 29.8636 33.6936C28.3831 37.3959 26.8826 41.3132 25.3239 44.9665Z" fill="#094752"/>
<path d="M112.722 30.0941C112.86 30.0823 112.999 30.0715 113.138 30.0619C115.269 29.9134 116.383 30.3398 117.988 31.7391L115.617 34.1085C112.985 31.9861 109.992 34.985 112.199 37.4802C114.553 40.143 117.247 42.6898 119.768 45.2162L122.094 42.8888L124.476 45.2715L122.151 47.591L125.398 50.856L123.659 52.6253L123.244 53.0143C122.414 52.9305 120.486 50.6663 119.796 49.9532C117.808 51.9913 115.994 54.0531 112.873 54.0325C109.306 54.0088 106.364 50.8529 106.414 47.3143C106.459 44.1469 108.376 42.6138 110.421 40.5957C109.391 39.5709 108.713 38.7881 108.299 37.3308C107.88 35.8493 108.071 34.2618 108.829 32.9215C109.728 31.3282 111.015 30.564 112.722 30.0941ZM114.235 50.4149C115.416 49.7572 116.473 48.5666 117.433 47.5879C116.574 46.7277 113.61 43.6554 112.747 43.0306C111.457 44.2975 109.719 45.6178 109.75 47.5088C109.763 48.3436 110.125 49.1342 110.749 49.6892C111.888 50.7074 112.837 50.7422 114.235 50.4149Z" fill="#094752"/>
<path d="M46.5132 30.3928H51.0469L61.2639 49.0695L61.2619 30.3928H64.6509L64.6471 53.541H60.327L49.8842 34.5235L49.8848 53.541H46.5132V30.3928Z" fill="#094752"/>
<path d="M268.923 30.3928H273.48L280.038 42.4222C280.963 44.113 282.647 47.3761 283.683 48.8893V30.3928H287L286.995 53.541H282.753L272.299 34.5159L272.297 53.541H268.923V30.3928Z" fill="#094752"/>
<path d="M81.2513 30.103C84.6969 29.8271 86.61 30.0795 89.8501 31.1744C89.7342 32.3116 89.672 33.4506 89.6004 34.5914C87.1973 33.1194 84.3291 32.6426 81.5286 33.0768C73.6518 34.2981 71.8786 45.3158 78.1941 49.5691C80.7379 51.2814 83.8157 51.2103 86.7158 50.5857V43.622H81.8765V41.2678L81.9029 41.0027C82.5425 40.6899 88.8528 40.8314 90.0464 40.8363V52.9321C89.1057 53.242 88.1423 53.4808 87.1648 53.6436C83.2064 54.3251 78.8224 54.1401 75.41 51.713C70.1876 47.999 69.3536 39.6394 73.0913 34.6062C75.1139 31.8828 77.9414 30.607 81.2513 30.103Z" fill="#094752"/>
<path d="M182.779 30.3928H186.095L186.077 39.5014C186.066 43.8226 185.398 50.8009 191.455 51.0127C198.018 51.2436 197.365 44.2994 197.36 39.8959L197.337 30.3928H200.726V33.344L200.742 40.2394C200.749 44.1171 201.111 48.5066 198.224 51.5566C195.2 54.7489 188.531 54.7853 185.423 51.7069C182.17 48.4861 182.759 43.1411 182.765 38.9564L182.779 30.3928Z" fill="#094752"/>
<path d="M248.375 30.3928H261.35V33.3955H251.705V40.0401H260.493L260.489 43.0445H251.703L251.705 44.9286V50.5716L261.35 50.5653V53.541H248.375V30.3928Z" fill="#094752"/>
<path d="M233.403 30.0899C235.876 29.8747 237.472 30.1236 239.824 30.8221C239.693 31.842 239.511 32.9098 239.353 33.93C237.672 33.2901 235.952 32.7611 234.126 32.9883C232.33 33.2117 230.578 34.5934 231.087 36.5573C231.697 38.9156 235.454 39.8535 237.367 41.12C240.093 42.811 241.483 45.1925 240.808 48.4464C240.077 51.9739 237.75 53.2973 234.346 53.8349L234.164 53.8523L233.862 53.8776C231.378 54.0974 230.091 53.7369 227.708 52.9906C227.841 51.9771 227.937 50.8766 228.046 49.8521C230.578 50.8055 234.897 52.0546 236.758 49.1564C239.468 44.6755 233.231 43.3363 230.696 41.6302C225.076 37.8442 226.884 31.3387 233.403 30.0899Z" fill="#094752"/>
<path d="M208.683 30.3928H220.965V33.3955H212.001V40.0401H220.587C220.571 40.8883 220.845 42.2807 220.424 42.8965C220.291 43.0926 219.863 43.0311 219.543 43.0445H212.001V53.541H208.683V30.3928Z" fill="#094752"/>
<path d="M165.456 30.3928H168.827V50.5716H178.472V53.541H165.456V30.3928Z" fill="#094752"/>
<path d="M148.398 63.5273C153.435 63.5558 152.218 68.1442 149.939 70.6946C148.852 71.9136 148.912 72.5476 147.269 72.7421C147.078 72.6536 147.171 72.7263 147.038 72.4718C147.569 71.5057 148.33 70.7847 148.981 69.8234L148.928 69.5688C145.269 69.3538 144.485 64.8555 148.398 63.5273ZM149.272 68.3339C150.226 68.1537 150.871 67.2604 150.743 66.3006C150.613 65.3393 149.756 64.6468 148.79 64.7242C148.116 64.778 147.53 65.1986 147.261 65.8168C146.992 66.4366 147.089 67.1528 147.511 67.6809C147.931 68.2075 148.61 68.4589 149.272 68.3339Z" fill="#094752"/>
<path d="M121.183 63.3059C122.164 63.3123 125.522 63.0925 126.152 63.4988C126.139 64.1613 126.252 63.8909 125.862 64.3605C124.982 64.6704 123.469 64.5155 122.459 64.4949V67.0548C123.157 67.0453 125.637 66.9077 126.054 67.2129C126.257 67.8358 126.242 67.5275 126.093 68.1726C125.395 68.4304 123.694 68.1568 122.59 68.3544L122.459 68.6327V71.3997C123.46 71.4013 125.299 71.1578 126.073 71.6369C126.251 72.0543 126.19 72.1001 126.118 72.5666C125.028 72.7753 122.425 72.6693 121.183 72.6551V63.3059Z" fill="#094752"/>
<path d="M161.896 63.6521C163.376 63.6158 164.367 63.4593 165.698 64.0996L165.651 64.5629C164.906 64.974 163.678 64.8807 162.824 64.8617C162.584 65.6665 162.15 66.4175 163.167 66.6215C167.785 67.548 166.41 73.784 161.374 72.5523C160.712 72.0969 159.259 71.006 160.081 70.1379C161.41 70.1648 161.178 70.9838 162.184 71.6416C163.145 71.8281 164.296 71.251 164.566 70.2723C165.117 68.2927 162.952 67.0832 161.327 68.054C161.051 68.2185 161.127 68.2153 160.813 68.2121C160.808 67.5955 161.676 64.4917 161.896 63.6521Z" fill="#094752"/>
<path d="M155.274 63.5272C158.235 63.4655 159.492 65.2159 158.152 67.8959C157.56 69.0785 156.368 70.3988 155.522 71.4423C156.363 71.4344 158.039 71.3348 158.734 71.6162C158.779 72.0542 158.851 72.2076 158.647 72.5855C157.594 72.761 154.872 72.6661 153.658 72.655C153.388 72.6471 153.514 72.6882 153.285 72.5222C154.215 70.5695 157.655 67.9876 157.363 65.7123C155.383 62.1738 154.88 67.3915 153.282 66.321C152.762 64.9565 154.243 63.9921 155.274 63.5272Z" fill="#094752"/>
<path d="M128.609 66.6038C129.47 66.5089 130.612 66.6196 131.069 67.4829C130.448 68.6829 129.713 67.4987 128.919 67.7722L128.852 68.1422C129.395 69.445 131.783 69.4703 131.581 71.4863C131.164 72.1978 130.342 72.6231 129.568 72.8397C128.644 72.6848 127.849 72.3796 127.319 71.54L127.386 71.3092C127.872 71.0752 127.84 71.0515 128.367 71.11C128.812 71.4183 128.81 71.4325 129.314 71.6096C129.812 71.5385 129.91 71.5717 130.307 71.2649C129.952 69.9652 125.519 69.0197 128.609 66.6038Z" fill="#094752"/>
<path d="M133.202 64.4237C135.384 64.3399 133.952 65.3218 134.466 66.5598C134.932 66.8476 134.826 66.7464 135.504 66.6879L135.668 66.9092C135.696 67.548 135.814 67.3677 135.543 67.7425C135.08 67.7361 134.96 67.7045 134.514 67.8437C134.304 68.7718 134.405 71.5324 134.419 72.6455C133.933 72.6693 133.928 72.6819 133.459 72.576C132.22 70.8288 134.658 68.7149 132.2 67.6176C132.138 67.0326 132.085 67.2176 132.251 66.7084C132.6 66.6942 132.754 66.6815 133.098 66.6246C133.295 66.1787 133.21 64.9755 133.202 64.4237Z" fill="#094752"/>
<path d="M141.797 63.6521H144.118V72.6645C143.621 72.6756 143.447 72.7088 142.97 72.5443C142.649 70.6391 143.13 67.0942 142.793 65.0229C141.775 64.5771 141.939 64.6435 141.797 63.6521Z" fill="#094752"/>
<path d="M136.554 71.1624C136.819 70.979 137.162 70.9553 137.45 71.0976C137.74 71.2399 137.928 71.5277 137.944 71.8486C137.959 72.1696 137.801 72.4748 137.528 72.6455C137.118 72.9001 136.581 72.7831 136.316 72.3799C136.052 71.9767 136.157 71.436 136.554 71.1624Z" fill="#094752"/>
</svg>
