<svg width="287" height="103" viewBox="0 0 287 103" fill="none" xmlns="http://www.w3.org/2000/svg">
<path d="M145.399 34.0773C147.859 33.9128 149.913 34.0856 152.036 35.5418C156.462 38.5774 156.94 45.8986 154.045 50.1079C152.67 52.1076 150.662 53.0751 148.317 53.464C141.606 54.3023 137.388 49.865 137.669 43.2797C137.881 38.2957 140.439 34.929 145.399 34.0773ZM147.556 51.1193C148.15 51.0044 148.731 50.8855 149.284 50.6323C154.023 48.4699 154.156 40.047 149.933 37.3154C148.75 36.5505 147.462 36.368 146.087 36.4371C139.65 37.5424 138.765 46.5813 143.48 50.2139C144.585 51.0651 146.19 51.1775 147.556 51.1193Z" fill="#094752"/>
<path d="M26 34.3208C28.9455 34.3068 36.1453 33.5489 37.3956 37.1676C38.564 40.5489 37.1436 42.4579 33.9915 43.6121C37.3247 44.2736 38.6019 46.1823 38.1042 49.5125C36.6371 54.2611 30.0027 53.2522 26 53.2329V34.3208ZM28.7325 50.9774C30.6505 50.9916 32.9511 51.197 34.5482 50.0228C35.718 48.4752 35.857 46.5738 34.0648 45.4676C32.4901 44.4954 30.5083 44.6305 28.7325 44.6624V50.9774ZM28.7325 42.3587C30.646 42.3741 32.3822 42.5593 34.1035 41.6408C35.1908 40.4026 35.4706 38.5593 34.1449 37.3659C33.0032 36.3378 30.3463 36.578 28.8304 36.5997C28.6286 37.174 28.7245 41.4746 28.7325 42.3587Z" fill="#094752"/>
<path d="M49.0857 34.321H51.9438L59.9301 53.233H56.9335L55.0336 48.4896H51.8686H45.8153L43.9155 53.233H41.0428C41.6448 51.4955 43.0195 48.5232 43.7868 46.7315L49.0857 34.321ZM46.6895 46.2277H50.5543H54.1685C53.316 44.2039 52.49 42.1695 51.6908 40.1245C51.4051 39.4081 50.7325 37.6145 50.3985 37.0177C49.1889 40.0425 47.963 43.2429 46.6895 46.2277Z" fill="#094752"/>
<path d="M118.094 34.0769C118.206 34.0673 118.32 34.0585 118.434 34.0506C120.175 33.9293 121.085 34.2777 122.396 35.4209L120.459 37.3567C118.309 35.6227 115.863 38.0728 117.666 40.1114C119.59 42.2869 121.791 44.3676 123.85 46.4317L125.751 44.5302L127.697 46.4768L125.797 48.3719L128.45 51.0394L127.029 52.4849L126.69 52.8027C126.012 52.7342 124.437 50.8844 123.873 50.3018C122.249 51.9669 120.767 53.6514 118.217 53.6346C115.303 53.6152 112.899 51.0368 112.94 48.1458C112.977 45.558 114.543 44.3055 116.214 42.6567C115.372 41.8195 114.818 41.1799 114.48 39.9893C114.138 38.7789 114.294 37.4819 114.913 36.3869C115.648 35.0852 116.699 34.4608 118.094 34.0769ZM119.33 50.679C120.295 50.1416 121.158 49.1689 121.943 48.3693C121.241 47.6665 118.819 45.1565 118.114 44.646C117.06 45.6811 115.64 46.7598 115.666 48.3047C115.676 48.9867 115.972 49.6327 116.482 50.0861C117.412 50.918 118.188 50.9464 119.33 50.679Z" fill="#094752"/>
<path d="M64.0012 34.321H67.7052L76.0525 49.5798L76.0509 34.321H78.8197L78.8166 53.233H75.2871L66.7553 37.6958L66.7558 53.233H64.0012V34.321Z" fill="#094752"/>
<path d="M245.71 34.321H249.433L254.791 44.149C255.546 45.5304 256.922 48.1963 257.769 49.4326V34.321H260.479L260.475 53.233H257.009L248.468 37.6896L248.466 53.233H245.71V34.321Z" fill="#094752"/>
<path d="M92.3822 34.0842C95.1972 33.8588 96.7602 34.065 99.4074 34.9595C99.3127 35.8886 99.2619 36.8192 99.2034 37.7512C97.24 36.5486 94.8967 36.159 92.6087 36.5138C86.1734 37.5116 84.7247 46.513 89.8844 49.988C91.9627 51.3869 94.4773 51.3288 96.8467 50.8185V45.1292H92.893V43.2058L92.9145 42.9892C93.4371 42.7337 98.5926 42.8493 99.5678 42.8533V52.7355C98.7992 52.9887 98.0121 53.1838 97.2135 53.3168C93.9795 53.8736 90.3978 53.7225 87.6098 51.7395C83.3431 48.7052 82.6618 41.8754 85.7155 37.7633C87.3679 35.5383 89.678 34.4959 92.3822 34.0842Z" fill="#094752"/>
<path d="M175.33 34.321H178.039L178.025 41.7627C178.016 45.2931 177.47 50.9944 182.418 51.1674C187.78 51.3561 187.247 45.6827 187.243 42.085L187.224 34.321H189.993V36.7321L190.006 42.3656C190.012 45.5337 190.307 49.1199 187.949 51.6118C185.478 54.2199 180.03 54.2496 177.49 51.7346C174.833 49.1032 175.314 44.7363 175.319 41.3174L175.33 34.321Z" fill="#094752"/>
<path d="M228.922 34.321H239.523V36.7742H231.643V42.2028H238.822L238.819 44.6574H231.641L231.643 46.1967V50.807L239.523 50.8019V53.233H228.922V34.321Z" fill="#094752"/>
<path d="M216.69 34.0735C218.71 33.8977 220.014 34.101 221.936 34.6717C221.829 35.505 221.68 36.3774 221.551 37.2109C220.178 36.6881 218.772 36.2559 217.281 36.4415C215.813 36.624 214.382 37.7529 214.798 39.3574C215.296 41.2841 218.365 42.0503 219.928 43.0851C222.156 44.4666 223.291 46.4123 222.74 49.0707C222.142 51.9527 220.241 53.0339 217.46 53.4731L217.312 53.4873L217.065 53.508C215.035 53.6876 213.984 53.3931 212.037 52.7833C212.146 51.9553 212.224 51.0562 212.313 50.2192C214.382 50.9981 217.91 52.0186 219.431 49.6508C221.645 45.9899 216.549 44.8958 214.478 43.5019C209.887 40.4088 211.364 35.0938 216.69 34.0735Z" fill="#094752"/>
<path d="M196.494 34.321H206.528V36.7742H199.204V42.2028H206.219C206.206 42.8958 206.43 44.0334 206.086 44.5365C205.977 44.6967 205.628 44.6465 205.366 44.6574H199.204V53.233H196.494V34.321Z" fill="#094752"/>
<path d="M161.177 34.321H163.931V50.807H171.811V53.233H161.177V34.321Z" fill="#094752"/>
<path d="M147.241 61.3918C151.356 61.4151 150.362 65.1638 148.5 67.2475C147.612 68.2434 147.661 68.7614 146.319 68.9203C146.163 68.848 146.238 68.9074 146.13 68.6994C146.564 67.9101 147.185 67.3211 147.717 66.5357L147.674 66.3277C144.685 66.152 144.044 62.4769 147.241 61.3918ZM147.955 65.3188C148.734 65.1715 149.261 64.4417 149.157 63.6576C149.051 62.8722 148.35 62.3064 147.561 62.3696C147.011 62.4136 146.532 62.7572 146.312 63.2623C146.092 63.7687 146.172 64.3538 146.516 64.7853C146.859 65.2155 147.414 65.4209 147.955 65.3188Z" fill="#094752"/>
<path d="M125.006 61.2109C125.808 61.2161 128.551 61.0366 129.066 61.3685C129.055 61.9098 129.148 61.6888 128.829 62.0725C128.11 62.3257 126.874 62.1992 126.049 62.1823V64.2738C126.619 64.266 128.645 64.1536 128.986 64.4029C129.152 64.9118 129.14 64.6599 129.018 65.187C128.448 65.3976 127.058 65.1741 126.156 65.3355L126.049 65.5629V67.8235C126.867 67.8248 128.369 67.6259 129.001 68.0173C129.147 68.3583 129.097 68.3958 129.038 68.7769C128.148 68.9474 126.021 68.8608 125.006 68.8492V61.2109Z" fill="#094752"/>
<path d="M158.269 61.4937C159.478 61.4641 160.287 61.3362 161.375 61.8593L161.337 62.2379C160.728 62.5737 159.725 62.4975 159.027 62.482C158.831 63.1395 158.476 63.7531 159.307 63.9197C163.08 64.6767 161.957 69.7715 157.842 68.7652C157.301 68.3931 156.114 67.5019 156.786 66.7926C157.872 66.8146 157.682 67.4837 158.504 68.0211C159.289 68.1735 160.229 67.702 160.45 66.9024C160.9 65.2851 159.131 64.2969 157.804 65.0901C157.578 65.2245 157.64 65.2219 157.384 65.2192C157.38 64.7155 158.089 62.1797 158.269 61.4937Z" fill="#094752"/>
<path d="M152.859 61.3917C155.278 61.3413 156.305 62.7714 155.21 64.961C154.726 65.9271 153.752 67.0058 153.061 67.8584C153.748 67.8519 155.118 67.7705 155.685 68.0004C155.722 68.3583 155.781 68.4836 155.614 68.7924C154.754 68.9357 152.53 68.8582 151.538 68.8491C151.318 68.8427 151.421 68.8763 151.234 68.7406C151.993 67.1453 154.804 65.0359 154.565 63.177C152.948 60.286 152.537 64.5489 151.231 63.6743C150.806 62.5595 152.016 61.7716 152.859 61.3917Z" fill="#094752"/>
<path d="M131.073 63.9053C131.777 63.8277 132.71 63.9182 133.083 64.6235C132.576 65.6039 131.975 64.6364 131.327 64.8599L131.272 65.1621C131.716 66.2265 133.666 66.2472 133.501 67.8943C133.161 68.4756 132.489 68.823 131.857 69C131.102 68.8734 130.452 68.6241 130.019 67.9381L130.074 67.7496C130.471 67.5584 130.445 67.539 130.876 67.5868C131.239 67.8387 131.238 67.8503 131.649 67.995C132.056 67.9369 132.136 67.964 132.461 67.7134C132.171 66.6515 128.549 65.8791 131.073 63.9053Z" fill="#094752"/>
<path d="M134.826 62.1241C136.608 62.0557 135.439 62.8579 135.858 63.8693C136.239 64.1045 136.153 64.0218 136.707 63.974L136.84 64.1548C136.863 64.6767 136.96 64.5294 136.738 64.8356C136.36 64.8304 136.262 64.8045 135.898 64.9183C135.726 65.6765 135.809 67.9319 135.82 68.8413C135.423 68.8608 135.419 68.8711 135.036 68.7845C134.023 67.3571 136.015 65.63 134.007 64.7335C133.956 64.2556 133.913 64.4067 134.049 63.9907C134.334 63.9791 134.46 63.9688 134.741 63.9223C134.902 63.558 134.832 62.575 134.826 62.1241Z" fill="#094752"/>
<path d="M141.848 61.4938H143.744V68.8569C143.338 68.866 143.196 68.8931 142.806 68.7587C142.544 67.2021 142.937 64.306 142.662 62.6137C141.83 62.2495 141.964 62.3037 141.848 61.4938Z" fill="#094752"/>
<path d="M137.564 67.6297C137.781 67.4798 138.061 67.4605 138.296 67.5767C138.533 67.693 138.687 67.9281 138.7 68.1903C138.712 68.4526 138.583 68.7019 138.36 68.8414C138.025 69.0494 137.587 68.9538 137.37 68.6244C137.154 68.295 137.24 67.8532 137.564 67.6297Z" fill="#094752"/>
</svg>
