<svg width="287" height="103" viewBox="0 0 287 103" fill="none" xmlns="http://www.w3.org/2000/svg">
<path d="M143.5 3.10999C116.76 3.10999 95.11 24.76 95.11 51.5C95.11 78.24 116.76 99.89 143.5 99.89C170.24 99.89 191.89 78.21 191.89 51.5C191.89 24.79 170.21 3.10999 143.5 3.10999ZM188.73 51.5C188.73 76.48 168.48 96.73 143.5 96.73C118.52 96.73 98.27 76.48 98.27 51.5C98.27 26.52 118.52 6.26999 143.5 6.26999C168.48 6.26999 188.73 26.52 188.73 51.5Z" fill="#F6D1C8"/>
<path d="M143.5 22.8V24.36C158.46 24.36 170.61 36.54 170.61 51.47H172.17C172.17 35.65 159.34 22.79 143.49 22.79M143.5 78.61C128.54 78.61 116.39 66.43 116.39 51.5H114.83C114.83 67.35 127.69 80.2 143.53 80.2" fill="#F6D1C8"/>
<path d="M166.94 30.96C167.59 31.67 168.53 32.81 169.07 33.49L178.88 27.29C178.4 26.64 177.6 25.67 177.03 24.99L170.83 29.09L170.4 29.46L170.71 29L173.44 23.54L171.51 21.61L166.05 24.34L165.59 24.65L165.96 24.22L170.06 18.02C169.35 17.39 168.64 16.85 167.76 16.17L161.53 25.96C162.33 26.56 163.35 27.47 164 28.07L169.86 25.03L170.23 24.75L169.95 25.12L166.93 30.98L166.94 30.96Z" fill="#F6D1C8"/>
<path d="M144.72 18.5601L147.39 12.5601L147.56 12.0201L147.5 12.5901L147.78 20.6101C148.72 20.7001 149.69 20.8401 150.65 20.9801L150.22 9.12006C148.88 8.98006 147.55 8.86006 146.21 8.81006L143.56 15.3501L143.47 15.8301L143.38 15.3501L140.73 8.81006C139.39 8.87006 138.06 8.98006 136.72 9.12006L136.29 20.9801C137.26 20.8101 138.22 20.7001 139.16 20.6101L139.44 12.5901L139.38 12.0201L139.55 12.5601L142.22 18.5601H144.67H144.72Z" fill="#F6D1C8"/>
<path d="M123.05 28.0301C124.59 26.4101 125.47 24.5001 123.93 22.7101C123.08 21.7401 121.68 21.5201 120.49 22.0001L120.38 22.0601L120.41 21.9501C120.58 21.4901 120.69 20.0201 119.44 18.9901C118.81 18.5101 118.05 18.3101 117.28 18.3901C115.83 18.5301 114.72 19.5301 111.68 22.9101C110.77 23.9301 109.43 25.5601 108.61 26.6101L116.97 34.5501C119.76 31.4801 120.9 30.3101 123.06 28.0401L123.05 28.0301ZM112.15 26.0701C113.83 24.0201 115.62 22.1401 116.45 21.4001C116.71 21.1701 116.99 20.9401 117.33 20.8301C117.87 20.6901 118.44 21.0601 118.58 21.6301C118.72 22.2001 118.35 22.7401 117.95 23.1701C117.07 24.1701 113.8 27.5801 113.8 27.5801L112.15 26.0701ZM115.42 29.2001C115.42 29.2001 118.61 25.8401 119.63 24.7601C120.03 24.3301 120.31 24.0801 120.6 23.9401C120.97 23.7701 121.37 23.7101 121.74 23.9701C122.08 24.2001 122.25 24.6201 122.17 25.0201C122.06 25.5001 121.69 25.9601 121.35 26.3001C120.92 26.7801 117.14 30.7901 117.14 30.8201L115.43 29.2001H115.42Z" fill="#F6D1C8"/>
<path d="M143.5 22.8V51.5H114.8C114.8 35.63 127.63 22.8 143.5 22.8Z" fill="#F6D1C8"/>
<path d="M172.18 51.5C172.18 67.35 159.35 80.2 143.48 80.2V51.5H172.18Z" fill="#F6D1C8"/>
</svg>
