<svg width="287" height="103" viewBox="0 0 287 103" fill="none" xmlns="http://www.w3.org/2000/svg">
<path d="M144 21C127.422 21 114 34.4222 114 51C114 67.5778 127.422 81 144 81C160.578 81 174 67.5592 174 51C174 34.4408 160.559 21 144 21ZM172.041 51C172.041 66.4867 159.487 79.0409 144 79.0409C128.513 79.0409 115.959 66.4867 115.959 51C115.959 35.5133 128.513 22.9591 144 22.9591C159.487 22.9591 172.041 35.5133 172.041 51Z" fill="#094752"/>
<path d="M144 33.2071V34.1742C153.275 34.1742 160.807 41.7254 160.807 50.9814H161.774C161.774 41.1736 153.82 33.2009 143.994 33.2009M144 67.8072C134.725 67.8072 127.193 60.256 127.193 51H126.226C126.226 60.8264 134.198 68.7929 144.019 68.7929" fill="#094752"/>
<path d="M158.532 38.266C158.935 38.7062 159.518 39.4129 159.852 39.8345L165.934 35.9907C165.637 35.5878 165.141 34.9864 164.787 34.5648L160.944 37.1067L160.677 37.336L160.869 37.0509L162.562 33.6659L161.365 32.4693L157.98 34.1618L157.695 34.354L157.924 34.0874L160.466 30.2437C160.026 29.8531 159.586 29.5183 159.04 29.0967L155.178 35.1662C155.674 35.5382 156.306 36.1023 156.709 36.4743L160.342 34.5896L160.572 34.416L160.398 34.6454L158.526 38.2784L158.532 38.266Z" fill="#094752"/>
<path d="M144.756 30.5785L146.412 26.8587L146.517 26.5239L146.48 26.8773L146.653 31.8494C147.236 31.9052 147.838 31.992 148.433 32.0788L148.166 24.726C147.335 24.6392 146.511 24.5648 145.68 24.5338L144.037 28.5884L143.981 28.886L143.926 28.5884L142.283 24.5338C141.452 24.571 140.627 24.6392 139.797 24.726L139.53 32.0788C140.131 31.9734 140.727 31.9052 141.309 31.8494L141.483 26.8773L141.446 26.5239L141.551 26.8587L143.206 30.5785H144.725H144.756Z" fill="#094752"/>
<path d="M131.322 36.4495C132.276 35.4452 132.822 34.2611 131.867 33.1513C131.34 32.55 130.472 32.4136 129.735 32.7112L129.666 32.7484L129.685 32.6802C129.79 32.395 129.859 31.4836 129.084 30.8451C128.693 30.5475 128.222 30.4235 127.744 30.4731C126.846 30.5599 126.157 31.1798 124.273 33.2753C123.709 33.9077 122.878 34.9182 122.369 35.5692L127.552 40.4917C129.282 38.5884 129.989 37.863 131.328 36.4557L131.322 36.4495ZM124.564 35.2344C125.606 33.9635 126.715 32.798 127.23 32.3392C127.391 32.1966 127.565 32.054 127.775 31.9858C128.11 31.899 128.464 32.1284 128.55 32.4818C128.637 32.8351 128.408 33.1699 128.16 33.4365C127.614 34.0565 125.587 36.1705 125.587 36.1705L124.564 35.2344ZM126.591 37.1749C126.591 37.1749 128.569 35.0918 129.201 34.4223C129.449 34.1557 129.623 34.0007 129.803 33.9139C130.032 33.8085 130.28 33.7713 130.509 33.9325C130.72 34.0751 130.826 34.3355 130.776 34.5834C130.708 34.881 130.478 35.1662 130.268 35.377C130.001 35.6746 127.658 38.1606 127.658 38.1792L126.598 37.1749H126.591Z" fill="#094752"/>
<path d="M144 33.2071V51H126.207C126.207 41.1612 134.161 33.2071 144 33.2071Z" fill="#094752"/>
<path d="M161.78 51C161.78 60.8264 153.826 68.7929 143.988 68.7929V51H161.78Z" fill="#094752"/>
</svg>
