<svg width="287" height="103" viewBox="0 0 287 103" fill="none" xmlns="http://www.w3.org/2000/svg">
<path d="M33.0575 51.0405C33.8125 51.2617 37.6583 61.1878 38.2268 60.7543L42.3658 51.0405H47.3929C46.789 52.6153 45.5544 51.9429 45.6077 54.1192C45.6521 55.747 47.4196 67.1152 47.9792 67.9734C48.3611 68.5572 49.1871 68.9023 49.4624 69.5923H42.6589C42.8187 68.9996 43.778 68.5926 43.9823 68.1149C44.9149 65.9386 42.2858 57.9941 42.6589 55.1631L42.0016 55.5436L37.3386 66.0624L31.5742 55.1631C31.2278 56.7467 31.0235 58.4099 30.837 60.0289C30.6505 61.6479 29.9044 67.2125 30.5261 68.2918C30.8814 68.9111 31.7785 69.035 32.0183 69.6012H27L28.7675 67.3895L30.2241 53.5353L28.4744 51.0582H33.0575V51.0405Z" fill="#F6D1C8"/>
<path d="M154.74 51.0405C155.184 51.4563 152.964 53.0222 152.964 53.2522V59.5866H160.06V53.2522C160.06 52.9691 158.026 51.7129 158.284 51.0405H165.381C165.443 52.0048 164.057 52.4118 163.764 53.1107C163.489 53.7654 163.4 66.2394 163.613 67.3806C163.791 68.3095 165.025 68.7607 165.381 69.5923H158.284C158.382 69.0969 160.06 67.876 160.06 67.6814V61.0551H152.964V67.6814C152.964 67.876 154.642 69.1057 154.74 69.5923H147.937C148.292 68.7607 149.526 68.3007 149.704 67.3806C150.05 65.5936 149.988 55.8001 149.722 53.8273C149.544 52.5179 148.23 52.1287 147.635 51.0405H154.731H154.74Z" fill="#F6D1C8"/>
<path d="M205.296 69.6011C205.651 68.7695 206.886 68.3095 207.064 67.3894C207.41 65.5935 207.348 55.8089 207.081 53.8361C206.904 52.5267 205.589 52.1375 204.994 51.0493H212.535C220.484 51.0493 224.099 60.365 219.605 66.3366C218.637 67.6283 215.91 69.6011 214.311 69.6011H205.296ZM210.323 68.4156C220.413 69.7869 220.307 51.297 210.323 52.509V68.4156Z" fill="#F6D1C8"/>
<path d="M256.456 63.4082V53.2432C256.456 52.9601 254.422 51.7039 254.68 51.0315H260C259.902 51.5269 258.224 52.7478 258.224 52.9424V69.5833L256.509 69.5214C252.957 64.8591 249.484 60.0199 245.505 55.7469V67.6724C245.505 67.867 247.183 69.0967 247.281 69.5833H242.254C242.609 68.7517 243.844 68.2917 244.021 67.3716C244.377 65.5137 244.279 56.49 244.03 54.411C243.835 52.8186 242.796 52.6416 241.739 51.7039C241.543 51.5269 241.17 51.7304 241.357 51.0315H246.233C247.041 51.0315 254.786 62.3466 256.438 63.3994L256.456 63.4082Z" fill="#F6D1C8"/>
<path d="M189.184 51.0405C190.303 51.3501 197.667 62.3025 199.39 63.7003V53.2433C199.39 52.9602 197.356 51.704 197.613 51.0316H202.934C202.836 51.527 201.157 52.7479 201.157 52.9425V69.5834L199.443 69.5215C195.855 64.8946 192.382 60.0465 188.438 55.747V67.6725C188.438 67.8671 190.117 69.0968 190.215 69.5834H185.187C185.543 68.7518 186.777 68.2918 186.955 67.3717C187.31 65.505 187.212 56.499 186.964 54.4111C186.919 54.0042 186.875 53.6149 186.626 53.2787L184.592 51.0316C185.827 51.2528 188.101 50.7308 189.175 51.0316L189.184 51.0405Z" fill="#F6D1C8"/>
<path d="M124.284 59.5866C123.289 60.4978 121.717 62.736 121.984 64.1161C122.108 64.7619 124.293 66.089 124.515 66.8675C124.808 67.8672 124.435 69.4065 124.568 70.4858C123.023 69.8135 122.143 68.2741 120.838 67.2656C119.017 68.5926 118.289 69.8666 115.819 70.1585C107.701 71.1228 105.472 63.0811 112.453 59.4273C110.544 57.1891 108.9 53.3407 112.062 51.3855C117.392 48.0945 122.25 55.2516 115.713 58.2595L120.882 63.1164C122.037 61.4355 120.82 60.7986 119.843 59.5866H124.275H124.284ZM114.443 51.3855C111.512 51.8367 112.906 56.5079 114.967 57.5164C117.063 56.5432 117.045 50.9874 114.443 51.3855ZM119.159 66.8586C119.31 66.6817 119.505 66.3721 119.497 66.1686C119.47 65.0981 114.425 61.5417 113.634 60.3031C112.684 59.8166 111.254 62.5591 111.103 63.3995C110.206 68.168 116.423 70.0789 119.168 66.8586H119.159Z" fill="#F6D1C8"/>
<path d="M144.979 20.4126L144.686 22.4739L146.453 22.182C146.347 22.9074 146.897 25.1191 145.725 25.128C145.245 25.128 143.469 23.5621 143.798 24.6768C144.126 25.7915 145.743 26.8265 146.764 25.8534C147.208 25.4376 146.258 23.5178 147.777 23.9425C148.851 24.2433 147.723 25.3845 147.679 25.6234C147.43 26.9858 151.099 27.5962 150.885 25.4111C148.016 26.4461 148.443 24.9776 149.562 23.049L150.885 23.6417C150.885 23.0224 150.725 22.2793 151.338 21.8723L153.541 22.9251C153.79 23.969 152.635 23.8806 152.369 24.5264H154.145L153.532 26.8708C152.546 27.1185 152.227 26.0569 151.48 25.7118C151.374 26.6231 151.489 27.5078 152.449 27.8528C154.625 28.6401 153.257 25.5526 154.873 26.0126C155.85 26.6938 154.98 27.1185 154.802 27.7112C154.411 29.0383 155.433 28.9763 156.499 28.6578C156.499 28.1359 155.033 28.0916 155.024 27.6316C155.024 27.5431 155.859 26.0746 155.93 26.0215C156.152 25.8711 156.676 26.2338 156.943 26.1896C157.529 26.0923 158.701 24.2787 159.741 26.2957C157.68 26.2692 157.085 28.5605 156.481 30.1264C154.065 29.171 151.267 28.7817 148.665 28.6401C142.954 28.3305 135.999 28.2863 130.608 30.091C129.347 28.8348 129.48 26.225 127.215 26.2957C127.819 25.0129 129.729 24.9599 129.586 26.5965C130.812 24.9776 132.917 28.4013 130.475 28.3659C130.714 29.339 132.029 28.9498 132.215 28.1536C132.393 27.4104 130.972 26.7204 132.1 26.0038C133.272 26.0392 132.731 27.2247 133.113 27.6139C134.267 28.7905 135.893 27.092 135.2 25.703C134.729 25.6588 134.827 26.34 134.489 26.6054C133.299 27.552 132.997 25.7826 132.544 24.9687L134.321 24.5175L133.139 22.757L135.36 21.9166C136.15 22.4651 136.035 23.1286 135.804 23.9336C137.909 22.1377 137.998 23.6682 138.166 25.703L135.804 25.4111C136.124 27.2689 139.081 27.5343 139.046 25.5968C139.028 24.4733 137.927 23.6948 139.943 23.9336C139.374 27.0831 142.767 27.0123 142.9 24.2344C142.465 24.4379 142.137 24.7829 141.666 24.9245C140.147 25.3757 140.263 22.6155 140.369 22.4651C140.822 21.8369 141.719 22.3589 142.305 22.3324L142.012 20.4126H144.97H144.979Z" fill="#F6D1C8"/>
<path d="M230.947 50.8193C240.477 49.3331 244.288 62.9306 237.076 68.4068C231.729 72.4675 225.245 68.6191 224.01 62.5945C223.016 57.7552 225.636 51.6421 230.947 50.8193ZM231.231 52.2879C225.822 53.5265 226.035 69.1942 232.644 68.7341C235.628 68.5307 237.005 64.5496 237.227 62.0813C237.564 58.3745 236.481 51.0759 231.231 52.2791V52.2879Z" fill="#F6D1C8"/>
<path d="M57.6782 50.8281C70.4771 49.1561 70.6903 72.1224 57.0831 69.8223C48.1035 68.3095 48.0147 52.0932 57.6782 50.8281ZM57.9713 52.2879C52.1981 53.3406 52.58 69.1764 59.0816 68.7253C65.2101 68.3006 65.2279 53.8714 60.1385 52.3498C59.4191 52.1375 58.7085 52.1552 57.9802 52.2879H57.9713Z" fill="#F6D1C8"/>
<path d="M81.2598 51.0405C81.7483 51.1998 82.1213 54.1635 82.2901 54.8712C81.7305 54.7208 79.9897 52.5179 79.7765 52.5179H74.3052V59.2946C75.078 59.2238 76.0195 59.445 76.7567 59.2327C77.4939 59.0204 77.787 57.773 78.7373 57.8172V61.9398C77.3251 60.4182 76.3925 60.2589 74.3052 60.4712V68.4245H79.7765C79.9986 68.4245 82.4944 65.6555 83.1783 65.4785L82.2901 69.6012H68.985C69.7754 68.398 70.6192 68.4069 70.7791 66.8233C71.2054 62.5679 70.4327 57.6049 70.7525 53.2611L68.985 51.0405H81.2598Z" fill="#F6D1C8"/>
<path d="M184.015 69.601H176.918L178.588 67.6901L176.652 62.7093C176.403 62.3909 172.122 62.3555 171.74 62.8244C171.483 63.134 170.07 67.2743 170.115 67.6813C170.195 68.4775 171.332 68.8933 171.598 69.601H166.571C167.068 68.6987 168.045 68.5836 168.569 67.6193C170.905 63.3286 172.211 56.1273 174.422 51.35C174.884 50.3592 175.266 50.5096 175.799 51.4296C178.313 55.7646 179.503 62.5413 181.981 67.062C182.567 68.1236 183.322 68.6721 184.015 69.601ZM176.03 61.6477L175.746 60.3119L173.961 56.3485L172.184 61.6477H176.03Z" fill="#F6D1C8"/>
<path d="M144.393 51.0405L144.686 56.0478C140.804 50.9078 134.969 50.8282 134.347 58.2595C133.725 65.6909 138.229 70.6362 145.281 66.0624C143.718 70.5124 137.642 70.9901 134.196 68.4157C128.094 63.8596 130.519 51.0405 138.335 51.0405H144.393Z" fill="#F6D1C8"/>
<path d="M87.1752 52.5178C86.7133 52.6505 85.3899 54.6498 84.6616 54.871L85.7452 51.0315H101.031C101.404 51.12 102.097 54.296 101.964 54.871C101.555 54.5879 99.7609 52.5178 99.601 52.5178H95.0179V67.6812C95.0179 67.8758 96.6966 69.1056 96.7943 69.5921H89.6977C89.822 69.0613 91.7671 67.5839 91.7671 67.3804V52.5089C90.5326 52.7301 88.2499 52.2081 87.1841 52.5089L87.1752 52.5178Z" fill="#F6D1C8"/>
<path d="M131.079 31.6038C135.6 30.8342 140.529 30.3299 145.139 30.4095C147.377 30.4538 150.832 30.7015 153.026 31.0907C155.628 31.5508 156.232 31.3207 155.619 34.249C147.901 32.5593 139.232 32.4708 131.532 34.249C131.079 34.249 131.159 31.7365 131.079 31.595C131.052 31.5508 130.137 31.7808 130.51 30.8784C130.803 30.1707 133.681 29.6929 134.516 29.5691C138.371 29.0029 152.395 28.7552 155.531 30.3564C155.921 30.5511 156.223 30.8165 156.499 31.1527L149.553 30.1264C144.464 30.1884 139.294 29.6487 134.214 30.4538C133.255 30.6042 131.612 30.7457 131.07 31.595L131.079 31.6038ZM140.245 32.1966C140.769 31.5331 138.557 30.6218 139.063 32.0462C139.232 32.5239 140.094 32.3824 140.245 32.1966ZM142.021 31.3031V32.1966H144.686V31.3031H142.021ZM147.901 31.8339C147.901 31.4888 147.626 31.2146 147.279 31.2146C146.933 31.2146 146.658 31.4888 146.658 31.8339C146.658 32.1789 146.933 32.4531 147.279 32.4531C147.626 32.4531 147.901 32.1789 147.901 31.8339ZM137.287 31.9046C135.644 31.02 134.454 32.922 136.71 32.347C136.976 32.2762 137.376 32.2585 137.287 31.9046ZM150.157 31.6038C149.349 31.8427 149.979 32.7893 151.036 32.4797C151.845 32.2408 151.214 31.2942 150.157 31.6038ZM132.269 32.1966V33.0813H133.45V32.1966H132.269ZM154.74 32.1966H153.266C153.177 33.0724 153.976 33.1609 154.74 33.0813V32.1966Z" fill="#F6D1C8"/>
<path d="M131.079 90.2141C131.834 88.9667 133.566 84.7821 134.489 84.0301C134.942 83.6586 135.271 83.6851 135.813 83.7294L136.115 93.452H134.631L134.338 87.2681C133.015 88.1616 132.322 92.01 130.643 92.01C130.11 92.01 130.288 91.9038 130.119 91.6119C129.302 90.2229 128.672 88.3916 127.544 87.2681L127.251 93.452C126.833 93.4166 126.345 93.5139 125.945 93.452C125.465 93.3812 126.478 84.6494 126.069 83.7294C126.593 83.7028 126.966 83.6409 127.401 84.0213C127.801 84.3752 130.741 90.4706 131.088 90.2052L131.079 90.2141Z" fill="#F6D1C8"/>
<path d="M155.033 36.0274C155.486 36.4963 154.722 36.6555 154.447 36.7528C153.186 37.1686 150.663 37.4341 149.278 37.5137C147.022 37.6464 132.66 37.6198 131.674 36.6113C131.23 36.1601 131.771 36.107 132.082 35.992C133.583 35.4612 136.656 35.2135 138.317 35.125C140.431 35.0189 154.136 35.0985 155.033 36.0274Z" fill="#F6D1C8"/>
<path d="M188.74 90.5061V83.7294H190.215V93.4521L189.095 93.3813C187.417 91.4792 185.738 88.9137 183.953 87.1708C183.695 86.9143 183.704 86.525 183.118 86.6754V93.4521H181.644V83.8798C181.644 83.6852 182.079 83.349 182.532 83.579C184.255 84.4726 186.822 89.2852 188.74 90.5061Z" fill="#F6D1C8"/>
<path d="M99.148 83.7295V87.8521H104.77V83.7295H106.245V93.4522H104.761C104.664 92.7356 105.081 89.0376 104.317 89.0376H99.1391V93.4522H97.6647V83.7295H99.1391H99.148Z" fill="#F6D1C8"/>
<path d="M174.831 85.49C174.582 85.6758 172.753 84.8884 172.033 84.8884C166.722 84.8707 167.246 92.4525 172.282 92.2578C174.902 92.1605 174.209 90.7981 174.245 88.7456H175.728L175.675 92.5321C170.426 96.1858 163.32 89.9842 168.019 85.0565C169.44 83.5702 173.286 82.7652 174.849 84.1807C175.195 84.4903 174.991 85.3662 174.822 85.4989L174.831 85.49Z" fill="#F6D1C8"/>
<path d="M147.199 83.7294C147.883 83.8621 149.162 84.9945 149.34 85.7199C150.37 89.7187 147.102 90.8068 143.798 90.506V93.452H142.323V83.7294C143.771 83.924 145.849 83.464 147.199 83.7294ZM143.798 89.0375C149.553 89.9841 149.304 84.1806 143.798 84.9148V89.0375Z" fill="#F6D1C8"/>
<path d="M203.227 83.7295V84.915H198.208V87.861H202.64V89.0376H198.208V91.9836H203.227V93.4522H196.725V83.7295H203.227Z" fill="#F6D1C8"/>
<path d="M116.859 83.7737L120.74 93.4521C118.671 94.1599 118.955 91.6916 118.191 91.435C117.694 91.2669 113.785 91.3289 113.617 91.5677C112.853 92.6647 113.848 93.9387 111.281 93.4521L115.393 83.9152L116.868 83.7737H116.859ZM117.773 90.2142L116.148 86.0916C115.58 86.5516 114.185 89.8691 114.523 90.2142H117.773Z" fill="#F6D1C8"/>
<path d="M158.55 83.7736C159.003 84.0567 161.943 92.3373 162.725 93.452C160.158 93.9386 161.153 92.6647 160.389 91.5677C160.211 91.32 156.321 91.2669 155.824 91.4438C154.882 91.7623 155.389 94.1244 153.266 93.452L157.138 84.2071C157.325 83.7471 158.177 83.5436 158.55 83.7736ZM159.465 90.2141C159.803 89.8691 158.053 85.8261 157.698 86.0915L156.215 90.2141H159.465Z" fill="#F6D1C8"/>
<path d="M91.7227 91.7181C91.7938 91.7623 92.1224 92.7709 92.0513 92.8593C87.5837 94.496 83.2938 93.0628 83.7556 87.6928C84.0487 84.3044 87.9479 82.6501 90.9322 83.809C91.6161 84.0744 92.4333 84.2514 91.7583 85.0653C91.0832 85.8792 90.0263 84.8883 88.9427 84.8795C83.8 84.8529 84.102 92.2489 88.9427 92.2135C89.6355 92.2135 91.2431 91.4084 91.7138 91.7092L91.7227 91.7181Z" fill="#F6D1C8"/>
<path d="M145.512 13.4414C146.977 14.1668 147.714 13.9368 149.251 14.2553C150.13 14.4411 152.129 15.1754 152.706 15.8212C153.079 16.237 152.662 16.7235 152.724 16.8297C152.795 16.9536 153.745 17.1659 153.843 17.6436C153.923 18.0594 153.141 18.4752 153.257 18.6345C153.319 18.7229 154.154 18.6345 154.145 19.3776C154.136 20.1207 153.39 19.988 153.292 20.1473C153.239 20.2357 153.905 21.6424 152.804 21.8812C151.64 22.129 152.386 20.1738 152.378 19.6872C152.271 15.1665 144.313 15.8743 144.384 13.7864C144.393 13.4768 145.059 13.2291 145.503 13.4414H145.512Z" fill="#F6D1C8"/>
<path d="M142.314 13.344C142.483 13.521 142.217 14.1314 142.039 14.388C140.955 15.9539 135.271 15.423 134.64 18.8025C134.525 19.4307 135.342 22.9252 133.725 21.7485C133.281 21.4212 133.566 20.6958 133.423 20.333C133.299 20.0322 132.784 20.2092 132.811 19.6872C132.837 19.1387 133.219 18.8645 133.29 18.5017C133.343 18.2098 133.041 17.7586 133.166 17.3693C133.281 17.0066 133.832 16.9978 133.947 16.812C134.125 16.5289 133.965 16.0069 134.17 15.715C134.232 15.6265 135.884 14.6268 135.99 14.6003C136.266 14.5472 136.594 14.8303 136.807 14.8215C137.021 14.8126 136.967 14.2641 137.172 14.2199C137.705 14.1137 138.246 14.5649 138.593 14.5384C138.753 14.5295 139.863 13.9279 141.284 13.8837C141.346 13.8837 141.799 12.8221 142.305 13.344H142.314Z" fill="#F6D1C8"/>
<path d="M131.087 35.7266C130.51 35.2223 132.233 34.6296 132.429 34.5677C136.319 33.2937 151.045 33.2141 154.802 34.6296C156.25 35.1781 156.055 36.107 155.335 35.877C154.953 35.7531 154.607 35.3639 153.914 35.2223C148.922 34.1607 139.907 34.2138 134.809 34.8862C134.161 34.9746 131.221 35.8593 131.079 35.7355L131.087 35.7266Z" fill="#F6D1C8"/>
<path d="M158.826 18.9972C158.995 19.2007 158.755 19.7492 158.941 20.05C159.057 20.2446 159.581 20.2092 159.696 20.5808C159.785 20.8639 159.838 22.7748 159.19 22.5979C159.936 23.1287 158.701 25.3581 157.831 25.1192C156.961 24.8803 157.929 23.5622 157.991 22.9163C158.337 19.298 154.198 19.2892 154.136 18.201C154.074 17.1128 158.524 18.6256 158.817 18.9884L158.826 18.9972Z" fill="#F6D1C8"/>
<path d="M132.562 17.7676C132.793 19.1654 130.972 19.2361 130.093 19.8731C127.552 21.7132 129.702 24.7477 129.311 25.1281C129.267 25.1723 128.174 25.1723 128.139 25.1281C128.05 25.0308 128.272 24.3407 128.068 24.0134C127.952 23.8365 127.339 23.8188 127.277 23.4915C127.224 23.226 127.544 22.881 127.544 22.651C127.544 22.4475 126.949 22.4829 126.931 22.3237C126.86 21.7929 127.33 21.5186 127.401 21.1559C127.535 20.4747 126.611 19.9616 128.139 20.1208C127.57 18.5992 128.618 19.0592 128.956 18.8469C129.666 18.4045 128.574 18.2541 130.368 18.3072C130.537 18.3072 130.448 17.7941 130.679 17.7676C131.016 17.7233 131.993 18.1037 132.571 17.7676H132.562Z" fill="#F6D1C8"/>
<path d="M102.994 31.02C103.722 30.2769 105.792 34.0103 106.538 34.258V31.02H107.719V36.3193C106.36 36.6909 104.957 33.099 104.024 33.0725L103.873 36.3193H102.985V31.02H102.994Z" fill="#F6D1C8"/>
<path d="M90.577 31.0201C92.1402 30.8697 94.7426 30.9935 94.3696 33.1698C94.1741 34.3376 92.8596 34.2934 94.4228 36.1689C92.6998 36.682 91.3763 31.9313 91.4652 36.3193H90.577V31.0201ZM91.4652 33.9661C93.7478 34.1784 94.0498 31.4624 91.4652 31.9047V33.9661Z" fill="#F6D1C8"/>
<path d="M116.006 31.02H119.559V31.9047H117.187V33.0813H119.257V33.966H117.187C117.223 34.3818 117.125 34.8684 117.187 35.2665C117.285 35.9212 119.834 34.6384 119.559 36.1689C119.514 36.4254 116.006 36.5227 116.006 35.8769V31.02Z" fill="#F6D1C8"/>
<path d="M194.362 30.7193C194.656 31.4182 193.51 32.241 193.545 32.6391C193.572 32.9398 194.442 33.3468 194.602 33.8776C195.348 36.3105 192.551 36.6644 190.819 36.0185C190.801 34.2315 193.412 36.3105 193.714 34.6473C193.998 33.1079 191.893 33.8422 191.707 33.6564C191.494 32.6568 192.524 32.3471 192.888 31.5951H190.819V30.7104H194.371L194.362 30.7193Z" fill="#F6D1C8"/>
<path d="M183.42 34.2581H184.894V32.1968H186.076C186.156 32.7807 185.942 33.5326 186.076 34.0634C186.235 34.665 186.955 33.5149 186.156 35.3816C185.978 35.7974 186.209 37.0183 185.17 36.1867C184.885 35.9567 185.036 35.2135 184.717 35.1251L182.239 35.1428C182.283 34.4173 183.367 30.5689 184.157 30.7282C185.321 30.9582 183.109 33.9838 183.42 34.2581Z" fill="#F6D1C8"/>
<path d="M100.924 36.3192C100.134 37.0888 99.7786 35.231 99.6987 35.1868C99.4855 35.0541 97.8956 35.0806 97.567 35.1868C96.9808 35.3814 97.0341 36.4696 96.1903 36.3192C95.9239 36.0095 98.0022 31.1172 98.4108 31.0199C99.0858 30.8607 101.138 36.1068 100.916 36.3192H100.924ZM98.846 32.7804C97.9933 32.5681 98.0111 33.6828 97.9667 34.249H99.148L98.846 32.7804Z" fill="#F6D1C8"/>
<path d="M113.936 31.312C113.936 31.312 113.661 32.1613 113.626 32.1878C113.519 32.2763 112.657 31.887 112.293 31.8782C110.339 31.8074 109.593 34.1961 111.156 35.0984C112.427 35.8327 113.048 34.7799 113.928 35.5762C111.299 37.9737 107.826 34.2757 110.082 31.7366C110.819 30.9139 113.501 30.7193 113.936 31.3031V31.312Z" fill="#F6D1C8"/>
<path d="M84.6616 31.0201C85.2123 31.1086 88.1522 30.8344 88.2144 31.1705C88.4542 32.5329 86.66 31.6925 85.8429 31.9048V33.6742C86.1005 33.9307 88.2499 33.0991 87.9124 34.2581H85.8429C86.589 35.6293 84.6616 37.036 84.6616 35.877V31.0201Z" fill="#F6D1C8"/>
<path d="M72.7509 49.324C73.6829 49.324 74.4385 48.5714 74.4385 47.6431C74.4385 46.7147 73.6829 45.9622 72.7509 45.9622C71.8189 45.9622 71.0633 46.7147 71.0633 47.6431C71.0633 48.5714 71.8189 49.324 72.7509 49.324Z" fill="#F6D1C8"/>
<path d="M78.6041 49.28C79.5263 49.28 80.2739 48.5354 80.2739 47.6168C80.2739 46.6983 79.5263 45.9536 78.6041 45.9536C77.6819 45.9536 76.9343 46.6983 76.9343 47.6168C76.9343 48.5354 77.6819 49.28 78.6041 49.28Z" fill="#F6D1C8"/>
<path d="M178.393 30.7193C178.668 31.0024 176.732 35.6381 176.341 36.1336C176.119 36.4078 175.497 36.3813 175.435 36.3105C175.24 36.1247 175.764 34.8685 175.888 34.55C176.758 32.2763 178.597 31.3563 174.547 31.5951V30.7104H178.393V30.7193Z" fill="#F6D1C8"/>
<path d="M143.469 13.1672C144.347 13.1672 145.059 12.4582 145.059 11.5836C145.059 10.709 144.347 10 143.469 10C142.591 10 141.879 10.709 141.879 11.5836C141.879 12.4582 142.591 13.1672 143.469 13.1672Z" fill="#F6D1C8"/>
<path d="M143.353 13.9368C144.268 13.9633 144.641 19.3157 143.647 19.528C142.039 19.8642 142.67 13.9191 143.353 13.9368Z" fill="#F6D1C8"/>
<path d="M169.822 30.7192V36.3193H168.933V31.9047L167.459 32.1967C166.695 31.4093 169.102 30.7458 169.822 30.7281V30.7192Z" fill="#F6D1C8"/>
</svg>
