<svg width="287" height="103" viewBox="0 0 287 103" fill="none" xmlns="http://www.w3.org/2000/svg">
<path d="M40.0325 50.8605C40.8154 41.7044 51.3914 38.7419 59.1123 40.2462C60.2099 40.4611 62.7426 41.4434 63.6252 41.3053C63.9399 41.2593 64.2699 40.9753 64.6613 41.1288L65.0757 46.4859C64.0243 46.7161 64.055 45.8949 63.6175 45.2042C59.3886 38.4349 47.4465 39.7089 44.6375 47.261C40.0095 59.702 56.2419 68.72 64.3697 58.9652C64.9222 58.3052 65.1525 57.2844 66.1656 57.53C65.59 59.4564 64.6766 61.2831 63.5715 62.9562C61.5146 62.7797 59.5421 63.5165 57.5236 63.7851C56.9404 63.8618 56.2573 63.9616 55.6893 64H52.9955L50.102 63.5548C45.9269 62.6031 42.028 59.9937 40.5928 55.8262C40.3395 55.0894 40.2091 54.3143 40.0249 53.5621C40.0786 52.6872 39.9481 51.7355 40.0249 50.8759L40.0325 50.8605Z" fill="#094752"/>
<path d="M148.21 63.9847C146.76 63.954 144.918 63.0714 143.567 62.987C142.776 62.9409 142.631 63.5626 141.825 63.3861L141.027 57.7143L141.809 57.7297C142.823 61.8281 147.42 63.9233 151.326 62.4651C153.951 61.4904 155.379 58.7121 153.445 56.3252C150.367 52.5108 139.499 50.1929 141.418 43.8458C142.469 40.3614 147.197 39.5248 150.336 39.9316C151.28 40.0544 153.775 40.9754 154.419 40.6914C154.772 40.5379 154.926 40.2616 155.486 40.4228L156.192 45.0891C156 45.0508 155.54 45.1582 155.409 45.0738C155.356 45.0431 154.972 44.1988 154.834 44.007C153.936 42.7022 152.762 41.7352 151.25 41.2133C146.192 39.4558 141.441 43.5772 146.361 47.5758C149.922 50.4692 158.433 52.7487 157.359 58.643C156.76 61.9355 153.176 63.7315 150.098 63.9924H148.203L148.21 63.9847Z" fill="#094752"/>
<path d="M238.72 63.9847C237.27 63.954 235.428 63.0714 234.077 62.987C233.286 62.9409 233.141 63.5626 232.335 63.3861L231.537 57.7143L232.319 57.7297C233.356 61.8204 237.914 63.9464 241.836 62.4651C244.461 61.475 245.889 58.7197 243.955 56.3252C240.877 52.5108 230.009 50.1929 231.928 43.8458C232.98 40.3614 237.707 39.5248 240.846 39.9316C241.79 40.0544 244.285 40.9754 244.929 40.6914C245.282 40.5379 245.436 40.2616 245.996 40.4228L246.702 45.0891C246.51 45.0508 246.05 45.1582 245.919 45.0738C245.866 45.0431 245.482 44.1988 245.344 44.007C244.154 42.2724 242.212 40.9831 240.063 40.8142C235.282 40.4381 232.803 44.2756 236.871 47.5758C239.925 50.0548 247.454 52.4647 247.892 56.8778C248.322 61.1987 244.507 63.6624 240.608 63.9847H238.713H238.72Z" fill="#094752"/>
<path d="M78.2535 40.4151V41.1136C77.1714 41.2057 75.6287 41.1443 75.1375 42.3339C75.0684 42.5104 74.8612 43.3009 74.8612 43.4467V51.0526H90.825V43.0476C90.825 42.9786 90.5717 42.2725 90.5103 42.165C89.858 41.0445 87.9699 41.1366 86.8341 41.1059V40.4075H97.4101V41.0905C95.9442 41.2364 94.509 41.3975 94.3171 43.1397V60.4389C94.4476 61.1527 94.6164 61.8665 95.3071 62.2349C95.4453 62.3039 96.1667 62.5802 96.2588 62.5802H97.9089V63.3784H86.3352V62.5802H88.8833C89.1442 62.5802 89.9654 62.1888 90.188 61.9893C90.472 61.7283 90.8327 61.0146 90.8327 60.6462V52.4417H74.8689V60.4466C74.8689 60.5694 75.1222 61.3523 75.1989 61.5134C75.7285 62.634 77.1944 62.6109 78.2689 62.5879V63.3861H67.9922V62.5879H69.5425C69.5809 62.5879 70.1949 62.3807 70.2947 62.3423C70.9931 62.0277 71.277 61.4827 71.3922 60.7536V43.1474C71.2463 41.4666 70.0414 41.2824 68.5908 41.1673L68.4987 40.4151H78.2766H78.2535Z" fill="#094752"/>
<path d="M99.912 41.1135V40.415C101.623 40.2846 103.335 40.2769 105.054 40.2232C108.746 40.1081 113.082 39.6629 116.574 41.0674C122.699 43.5387 121.686 50.9297 115.876 52.9021C117.787 55.2276 119.376 57.9215 121.31 60.2163C122.346 61.4443 123.558 62.9025 125.247 63.102V63.8926C121.54 64.1535 119.099 62.2118 116.874 59.5639C115.3 57.6912 114.164 55.4809 112.476 53.7003C110.741 53.5698 109.007 53.7617 107.288 53.447V60.3621C107.288 60.5924 107.533 61.3522 107.664 61.5747C108.477 62.9485 110.48 62.5264 111.808 62.6108L111.962 62.7567L111.977 63.386H100.603V62.5878H102.452C102.506 62.5878 103.013 62.396 103.105 62.3422C103.726 62.0122 103.842 61.3982 103.895 60.7458C104.379 55.0818 103.535 48.773 103.895 43.0399C103.849 42.3952 103.749 41.6507 103.097 41.3514C102.982 41.2977 102.322 41.1058 102.245 41.1058H99.8966L99.912 41.1135ZM107.303 52.6412C112.253 53.8768 117.242 51.1829 116.774 45.6417C116.689 44.6055 116.168 43.2548 115.431 42.5026C113.543 40.5839 109.813 40.6223 107.341 41.006L107.311 52.6412H107.303Z" fill="#094752"/>
<path d="M161.933 41.8118C160.429 42.0574 159.945 44.6131 159.7 45.8334H158.886L159.646 39.8163C160.421 39.6091 160.329 40.0465 160.713 40.2384C160.966 40.3689 161.342 40.3996 161.626 40.4226C168.004 40.8908 174.957 40.0619 181.396 40.4226C181.65 40.3996 182.072 40.3382 182.279 40.2077C182.624 40.0005 182.479 39.6398 183.269 39.8163L184.037 45.7336C184.06 46.033 183.492 45.8257 183.292 45.8871C182.878 44.7513 182.847 43.1625 181.88 42.303C181.75 42.1878 181.112 41.8041 180.982 41.8041H173.146V60.3543C173.146 60.4311 173.276 61.0604 173.315 61.1832C173.461 61.6744 173.737 62.0581 174.205 62.2807C174.374 62.3575 175.057 62.5877 175.187 62.5877H177.935V63.3859H164.965L164.98 62.7566L165.133 62.6107C166.392 62.4956 168.61 62.9715 169.378 61.6744C169.485 61.4902 169.754 60.7304 169.754 60.5615V41.8194H161.918L161.933 41.8118Z" fill="#094752"/>
<path d="M137.435 40.4151V41.1135C135.286 41.2286 134.096 41.3207 133.935 43.746C133.582 49.1722 134.196 54.9821 133.95 60.4466C134.165 62.4881 135.669 62.6493 137.435 62.5956V63.3937H127.457V62.5956C128.885 62.6263 130.22 62.3653 130.443 60.7459C130.397 55.2967 130.873 49.4715 130.558 44.0453C130.535 43.6079 130.458 42.8787 130.328 42.4873C129.913 41.267 128.532 41.3207 127.473 41.1058L127.457 40.4228H137.435V40.4151Z" fill="#094752"/>
<path d="M224.153 46.7852C225.427 46.3094 227.407 44.6286 227.338 43.1627C227.285 41.9654 226.21 42.6101 225.404 42.5026C223.324 42.2186 223.562 39.4557 225.443 39.0719C227.661 38.6268 229.203 40.3076 229.042 42.4566C228.858 44.9049 226.655 46.7392 224.506 47.5757L224.161 46.7852H224.153Z" fill="#094752"/>
<path d="M219.41 40.4151L219.863 45.588L219.08 45.5726C218.796 44.5212 218.589 42.9708 217.66 42.2648C217.507 42.1496 216.854 41.8119 216.724 41.8119H207.491V50.7609H215.527C215.565 50.7609 215.995 50.5613 216.072 50.5076C216.801 50.0317 217.023 48.8882 217.077 48.0746H217.875V55.1356H217.077C216.962 54.0841 216.793 52.7256 215.65 52.3265C215.55 52.2882 214.982 52.15 214.928 52.15H207.491V60.8534C207.491 60.8534 207.698 61.3292 207.744 61.3983C208.013 61.7743 208.596 61.9509 209.041 61.9969C210.653 62.1581 216.041 62.1965 217.492 61.8741C218.942 61.5518 219.487 60.6845 220.047 59.4488C220.185 59.1495 220.508 58.0367 220.608 57.9215C220.769 57.7297 221.222 57.8525 221.459 57.8218L220.761 63.3937H199.003V62.5956H201.651C201.727 62.5956 202.326 62.4421 202.456 62.4037C203.423 62.0967 203.869 61.4366 203.984 60.4466V43.4544C203.769 40.9447 201.796 41.1903 199.801 41.1135V40.4151H219.41Z" fill="#094752"/>
<path d="M197.107 40.4151V41.1135C194.866 41.221 193.768 41.3821 193.607 43.8458C193.247 49.3871 193.784 55.4579 193.738 61.0299C194.083 62.5418 195.81 62.6646 197.107 62.5956V63.3937H187.13V62.5956C188.672 62.5879 189.801 62.4497 190.115 60.7459C190.054 55.2507 190.576 49.318 190.23 43.8458C190.192 43.2471 190.1 42.3645 189.678 41.904C189.079 41.244 187.943 41.29 187.145 41.0982L187.13 40.4151H197.107Z" fill="#094752"/>
</svg>
