<svg width="287" height="103" viewBox="0 0 287 103" fill="none" xmlns="http://www.w3.org/2000/svg">
<path d="M8.06998 50.68C9.08998 38.75 22.87 34.89 32.93 36.85C34.36 37.13 37.66 38.41 38.81 38.23C39.22 38.17 39.65 37.8 40.16 38L40.7 44.98C39.33 45.28 39.37 44.21 38.8 43.31C33.29 34.49 17.73 36.15 14.07 45.99C8.03998 62.2 29.19 73.95 39.78 61.24C40.5 60.38 40.8 59.05 42.12 59.37C41.37 61.88 40.18 64.26 38.74 66.44C36.06 66.21 33.49 67.17 30.86 67.52C30.1 67.62 29.21 67.75 28.47 67.8H24.96L21.19 67.22C15.75 65.98 10.67 62.58 8.79998 57.15C8.46998 56.19 8.29998 55.18 8.05998 54.2C8.12998 53.06 7.95998 51.82 8.05998 50.7L8.06998 50.68Z" fill="#F6D1C8"/>
<path d="M149.02 67.7801C147.13 67.7401 144.73 66.5901 142.97 66.4801C141.94 66.4201 141.75 67.2301 140.7 67.0001L139.66 59.6101L140.68 59.6301C142 64.9701 147.99 67.7001 153.08 65.8001C156.5 64.5301 158.36 60.9101 155.84 57.8001C151.83 52.8301 137.67 49.8101 140.17 41.5401C141.54 37.0001 147.7 35.9101 151.79 36.4401C153.02 36.6001 156.27 37.8001 157.11 37.4301C157.57 37.2301 157.77 36.8701 158.5 37.0801L159.42 43.1601C159.17 43.1101 158.57 43.2501 158.4 43.1401C158.33 43.1001 157.83 42.0001 157.65 41.7501C156.48 40.0501 154.95 38.7901 152.98 38.1101C146.39 35.8201 140.2 41.1901 146.61 46.4001C151.25 50.1701 162.34 53.1401 160.94 60.8201C160.16 65.1101 155.49 67.4501 151.48 67.7901H149.01L149.02 67.7801Z" fill="#F6D1C8"/>
<path d="M266.95 67.7801C265.06 67.7401 262.66 66.5901 260.9 66.4801C259.87 66.4201 259.68 67.2301 258.63 67.0001L257.59 59.6101L258.61 59.6301C259.96 64.9601 265.9 67.7301 271.01 65.8001C274.43 64.5101 276.29 60.9201 273.77 57.8001C269.76 52.8301 255.6 49.8101 258.1 41.5401C259.47 37.0001 265.63 35.9101 269.72 36.4401C270.95 36.6001 274.2 37.8001 275.04 37.4301C275.5 37.2301 275.7 36.8701 276.43 37.0801L277.35 43.1601C277.1 43.1101 276.5 43.2501 276.33 43.1401C276.26 43.1001 275.76 42.0001 275.58 41.7501C274.03 39.4901 271.5 37.8101 268.7 37.5901C262.47 37.1001 259.24 42.1001 264.54 46.4001C268.52 49.6301 278.33 52.7701 278.9 58.5201C279.46 64.1501 274.49 67.3601 269.41 67.7801H266.94H266.95Z" fill="#F6D1C8"/>
<path d="M57.87 37.0701V37.9801C56.46 38.1001 54.45 38.0201 53.81 39.5701C53.72 39.8001 53.45 40.8301 53.45 41.0201V50.9301H74.25V40.5001C74.25 40.4101 73.92 39.4901 73.84 39.3501C72.99 37.8901 70.53 38.0101 69.05 37.9701V37.0601H82.83V37.9501C80.92 38.1401 79.05 38.3501 78.8 40.6201V63.1601C78.97 64.0901 79.19 65.0201 80.09 65.5001C80.27 65.5901 81.21 65.9501 81.33 65.9501H83.48V66.9901H68.4V65.9501H71.72C72.06 65.9501 73.13 65.4401 73.42 65.1801C73.79 64.8401 74.26 63.9101 74.26 63.4301V52.7401H53.46V63.1701C53.46 63.3301 53.79 64.3501 53.89 64.5601C54.58 66.0201 56.49 65.9901 57.89 65.9601V67.0001H44.5V65.9601H46.52C46.57 65.9601 47.37 65.6901 47.5 65.6401C48.41 65.2301 48.78 64.5201 48.93 63.5701V40.6301C48.74 38.4401 47.17 38.2001 45.28 38.0501L45.16 37.0701H57.9H57.87Z" fill="#F6D1C8"/>
<path d="M86.0899 37.98V37.07C88.3199 36.9 90.5499 36.89 92.7899 36.82C97.5999 36.67 103.25 36.09 107.8 37.92C115.78 41.14 114.46 50.77 106.89 53.34C109.38 56.37 111.45 59.88 113.97 62.87C115.32 64.47 116.9 66.37 119.1 66.63V67.66C114.27 68 111.09 65.47 108.19 62.02C106.14 59.58 104.66 56.7 102.46 54.38C100.2 54.21 97.9399 54.46 95.6999 54.05V63.06C95.6999 63.36 96.0199 64.35 96.1899 64.64C97.2499 66.43 99.8599 65.88 101.59 65.99L101.79 66.18L101.81 67H86.9899V65.96H89.3999C89.4699 65.96 90.1299 65.71 90.2499 65.64C91.0599 65.21 91.2099 64.41 91.2799 63.56C91.9099 56.18 90.8099 47.96 91.2799 40.49C91.2199 39.65 91.0899 38.68 90.2399 38.29C90.0899 38.22 89.2299 37.97 89.1299 37.97H86.0699L86.0899 37.98ZM95.7199 53C102.17 54.61 108.67 51.1 108.06 43.88C107.95 42.53 107.27 40.77 106.31 39.79C103.85 37.29 98.9899 37.34 95.7699 37.84L95.7299 53H95.7199Z" fill="#F6D1C8"/>
<path d="M166.9 38.8899C164.94 39.2099 164.31 42.5399 163.99 44.1299H162.93L163.92 36.2899C164.93 36.0199 164.81 36.5899 165.31 36.8399C165.64 37.0099 166.13 37.0499 166.5 37.0799C174.81 37.6899 183.87 36.6099 192.26 37.0799C192.59 37.0499 193.14 36.9699 193.41 36.7999C193.86 36.5299 193.67 36.0599 194.7 36.2899L195.7 43.9999C195.73 44.3899 194.99 44.1199 194.73 44.1999C194.19 42.7199 194.15 40.6499 192.89 39.5299C192.72 39.3799 191.89 38.8799 191.72 38.8799H181.51V63.0499C181.51 63.1499 181.68 63.9699 181.73 64.1299C181.92 64.7699 182.28 65.2699 182.89 65.5599C183.11 65.6599 184 65.9599 184.17 65.9599H187.75V66.9999H170.85L170.87 66.1799L171.07 65.9899C172.71 65.8399 175.6 66.4599 176.6 64.7699C176.74 64.5299 177.09 63.5399 177.09 63.3199V38.8999H166.88L166.9 38.8899Z" fill="#F6D1C8"/>
<path d="M134.98 37.0701V37.9801C132.18 38.1301 130.63 38.2501 130.42 41.4101C129.96 48.4801 130.76 56.0501 130.44 63.1701C130.72 65.8301 132.68 66.0401 134.98 65.9701V67.0101H121.98V65.9701C123.84 66.0101 125.58 65.6701 125.87 63.5601C125.81 56.4601 126.43 48.8701 126.02 41.8001C125.99 41.2301 125.89 40.2801 125.72 39.7701C125.18 38.1801 123.38 38.2501 122 37.9701L121.98 37.0801H134.98V37.0701Z" fill="#F6D1C8"/>
<path d="M247.97 45.37C249.63 44.75 252.21 42.56 252.12 40.65C252.05 39.09 250.65 39.93 249.6 39.79C246.89 39.42 247.2 35.82 249.65 35.32C252.54 34.74 254.55 36.93 254.34 39.73C254.1 42.92 251.23 45.31 248.43 46.4L247.98 45.37H247.97Z" fill="#F6D1C8"/>
<path d="M241.79 37.0701L242.38 43.8101L241.36 43.7901C240.99 42.4201 240.72 40.4001 239.51 39.4801C239.31 39.3301 238.46 38.8901 238.29 38.8901H226.26V50.5501H236.73C236.78 50.5501 237.34 50.2901 237.44 50.2201C238.39 49.6001 238.68 48.1101 238.75 47.0501H239.79V56.2501H238.75C238.6 54.8801 238.38 53.1101 236.89 52.5901C236.76 52.5401 236.02 52.3601 235.95 52.3601H226.26V63.7001C226.26 63.7001 226.53 64.3201 226.59 64.4101C226.94 64.9001 227.7 65.1301 228.28 65.1901C230.38 65.4001 237.4 65.4501 239.29 65.0301C241.18 64.6101 241.89 63.4801 242.62 61.8701C242.8 61.4801 243.22 60.0301 243.35 59.8801C243.56 59.6301 244.15 59.7901 244.46 59.7501L243.55 67.0101H215.2V65.9701H218.65C218.75 65.9701 219.53 65.7701 219.7 65.7201C220.96 65.3201 221.54 64.4601 221.69 63.1701V41.0301C221.41 37.7601 218.84 38.0801 216.24 37.9801V37.0701H241.79Z" fill="#F6D1C8"/>
<path d="M212.73 37.0701V37.9801C209.81 38.1201 208.38 38.3301 208.17 41.5401C207.7 48.7601 208.4 56.6701 208.34 63.9301C208.79 65.9001 211.04 66.0601 212.73 65.9701V67.0101H199.73V65.9701C201.74 65.9601 203.21 65.7801 203.62 63.5601C203.54 56.4001 204.22 48.6701 203.77 41.5401C203.72 40.7601 203.6 39.6101 203.05 39.0101C202.27 38.1501 200.79 38.2101 199.75 37.9601L199.73 37.0701H212.73Z" fill="#F6D1C8"/>
</svg>
