<svg width="287" height="104" viewBox="0 0 287 104" fill="none" xmlns="http://www.w3.org/2000/svg">
<path d="M121.235 27.1178L119.381 30.0972L117.527 27.1178H115.851V34.1654H117.374V29.5915L119.343 32.5738H119.384L121.37 29.5656V34.1654H122.913V27.1178H121.237H121.235ZM161.172 34.1654H162.986L161.264 31.6486C162.159 31.3182 162.773 30.6 162.773 29.4622V29.4421C162.773 28.7784 162.565 28.2268 162.168 27.8332C161.705 27.3706 161.011 27.1178 160.113 27.1178H156.883V34.1654H158.434V31.9101H159.658L161.172 34.1654ZM158.434 30.5396V28.517H159.98C160.737 28.517 161.201 28.856 161.201 29.5226V29.5427C161.201 30.1374 160.766 30.5396 160.009 30.5396H158.434ZM149.095 27.1178V28.5457H151.243V34.1626H152.798V28.5457H154.948V27.1178H149.095ZM135.807 32.7864V31.3067H139.135V29.9305H135.807V28.4997H139.59V27.1207H134.264V34.1683H139.639V32.7892H135.807V32.7864ZM100.378 51.605C100.378 45.8042 95.8294 41.5147 88.7044 41.5147H79V61.5889H88.7044C96.0165 61.5889 100.378 57.3626 100.378 51.605ZM83.4304 57.7734V45.333H88.7015C93.2471 45.333 95.8668 47.9246 95.8668 51.5705C95.8668 55.2164 93.44 57.7706 88.7015 57.7706H83.4304V57.7734ZM127.87 27.069L124.842 34.1654H126.428L127.073 32.5824H130.058L130.706 34.1654H132.329L129.304 27.069H127.873H127.87ZM129.505 31.2148H127.628L128.567 28.9278L129.505 31.2148ZM149.76 61.5917C154.499 61.5917 157.608 59.1037 157.608 55.2193C157.608 53.1736 156.698 52.1393 154.913 50.8781C155.748 50.0248 156.166 48.1975 156.166 46.9362C156.166 43.3564 153.589 41.5176 149.116 41.5176H136.083V61.5917H149.763H149.76ZM140.514 49.4502V45.333H149.343C151.162 45.333 151.692 45.9134 151.692 47.0713C151.692 48.1285 151.125 49.4502 149.343 49.4502H140.514ZM140.514 57.7734V53.2656H150.253C152.069 53.2656 153.057 53.5816 153.057 55.1848C153.057 56.788 152.072 57.7734 150.253 57.7734H140.514ZM122.801 70.346V68.9841H115.851V70.346H118.615V76.141H120.037V70.346H122.801ZM147.161 32.0796V32.0595C147.161 30.8327 146.355 30.3184 144.921 29.9478C143.701 29.6346 143.398 29.4823 143.398 29.0198V29.0025C143.398 28.6606 143.709 28.3848 144.308 28.3848C144.907 28.3848 145.52 28.6491 146.139 29.0801L146.948 27.9136C146.231 27.3419 145.356 27.0201 144.328 27.0201C142.886 27.0201 141.855 27.8677 141.855 29.1433V29.1605C141.855 30.5597 142.774 30.9533 144.196 31.3182C145.373 31.6199 145.615 31.821 145.615 32.2117V32.2319C145.615 32.6427 145.235 32.8984 144.602 32.8984C143.793 32.8984 143.128 32.5651 142.492 32.0451L141.576 33.1397C142.422 33.8954 143.502 34.2689 144.57 34.2689C146.09 34.2689 147.161 33.4816 147.161 32.0825M133.038 72.5812C133.038 74.7303 134.641 76.3105 136.662 76.3105C136.774 76.3105 136.884 76.3105 136.99 76.2961L137.33 77H138.925L138.409 75.9456C139.702 75.3049 140.445 74.0752 140.445 72.5812C140.445 70.4178 138.864 68.8405 136.734 68.8405C134.604 68.8405 133.035 70.4178 133.035 72.5812M138.988 72.5812C138.988 73.5293 138.548 74.2821 137.808 74.6843L137.526 74.0867H135.934L136.322 74.9027C135.24 74.7188 134.483 73.8195 134.483 72.5812C134.483 71.1849 135.459 70.2138 136.737 70.2138C138.015 70.2138 138.988 71.1964 138.988 72.5812ZM209 61.5917V57.7734H195.66V41.5176H191.226V61.5917H209ZM152.202 76.1639H153.638V68.9497H152.202V76.1639ZM105.871 51.605C105.871 57.6671 110.762 62.0658 117.394 62.0658C124.027 62.0658 128.953 57.6671 128.953 51.605C128.953 45.5428 124.024 41.1096 117.394 41.1096C110.764 41.1096 105.871 45.5399 105.871 51.605ZM124.404 51.605C124.404 55.4865 121.41 58.2159 117.394 58.2159C113.378 58.2159 110.382 55.5209 110.382 51.605C110.382 47.689 113.41 44.9567 117.394 44.9567C121.379 44.9567 124.404 47.6803 124.404 51.605ZM184.185 61.5917V57.7734H169.82L170.079 53.3029H182.486V49.4846H170.079L169.82 45.333H183.353V41.5176H165.384V61.5917H184.188H184.185ZM165.867 76.141L166.731 74.3769H169.981L170.871 76.141H172.431L168.884 68.9841H167.813L164.307 76.141H165.867ZM167.402 73.0064L168.352 71.0844L169.313 73.0064H167.402ZM144.204 73.5293V68.9841H142.779V73.7448C142.779 75.5692 143.729 76.3105 145.788 76.3105C147.846 76.3105 148.793 75.5692 148.793 73.7448V68.9841H147.371V73.5293C147.371 74.6958 147.138 74.9371 145.788 74.9371C144.438 74.9371 144.204 74.6958 144.204 73.5293ZM164.92 30.643V30.6632C164.92 32.6657 166.486 34.2861 168.665 34.2861C170.845 34.2861 172.434 32.6456 172.434 30.643V30.6229C172.434 28.6175 170.868 27 168.686 27C166.503 27 164.92 28.6405 164.92 30.643ZM170.804 30.643V30.6632C170.804 31.8727 169.938 32.8582 168.686 32.8582C167.433 32.8582 166.544 31.8497 166.544 30.643V30.6229C166.544 29.4134 167.413 28.4279 168.665 28.4279C169.918 28.4279 170.804 29.4335 170.804 30.643ZM162.905 76.141V74.7791H158.616V68.9841H157.193V76.141H162.905ZM126.644 74.7791V73.0179H129.272V71.6561H126.644V70.346H130.988V68.9841H125.219V76.141H131.256V74.7791H126.644Z" fill="#094752"/>
</svg>
