<svg width="287" height="104" viewBox="0 0 287 104" fill="none" xmlns="http://www.w3.org/2000/svg">
<path d="M62.1734 32L52 42.1435V72H83.2942L92.114 63.2024V32H62.1734Z" stroke="#094752" stroke-width="1.06" stroke-miterlimit="10"/>
<path d="M117.338 32.8288C118.932 32.8288 119.946 33.2128 120.815 33.9846C121.635 34.7069 122.119 35.7677 122.119 37.1136V67.0727C122.119 68.4224 121.635 69.4337 120.815 70.2055C119.946 70.9773 118.932 71.3613 117.338 71.3613H113.036V32.825H117.338V32.8288ZM117.338 69.293C118.013 69.293 118.691 69.0991 119.076 68.6657C119.416 68.2323 119.656 67.7 119.656 67.0765V37.1174C119.656 36.4444 119.412 35.9122 119.076 35.5282C118.691 35.0947 118.013 34.9046 117.338 34.8552H115.454V69.2968H117.338V69.293Z" fill="#094752"/>
<path d="M150.523 49.2037C150.523 50.5534 150.039 51.6103 149.219 52.3327C149.17 52.3821 149.124 52.4315 149.074 52.4771C149.124 52.5265 149.17 52.5722 149.219 52.6216C150.039 53.344 150.523 54.4047 150.523 55.7506V71.3575H148.06V56.0851C148.06 55.4616 147.816 54.9294 147.48 54.5454C147.095 54.1119 146.516 53.9181 145.837 53.8724H143.854V71.3575H141.44V32.8212H145.742C147.336 32.8212 148.35 33.2052 149.219 33.977C150.039 34.6993 150.523 35.7601 150.523 37.106V49.1961V49.2037ZM143.858 34.8514V51.4696H145.742C146.417 51.4202 147.095 51.2263 147.48 50.7967C147.82 50.4127 148.06 49.8804 148.06 49.2075V37.1174C148.06 36.4444 147.816 35.9122 147.48 35.5282C147.095 35.0947 146.417 34.9046 145.742 34.8552H143.858V34.8514Z" fill="#094752"/>
<path d="M176.609 71.3651L176.029 64.7649H172.841L172.262 71.3651H169.848L173.23 32.7794H175.644L179.026 71.3651H176.613H176.609ZM173.082 62.3583H175.835L174.435 46.702L173.082 62.3583Z" fill="#094752"/>
<path d="M204.959 47.7133V36.779C204.959 36.1517 204.814 35.6232 204.429 35.2392C204.04 34.8058 203.56 34.5663 202.835 34.5663C202.111 34.5663 201.676 34.8058 201.337 35.2392C200.948 35.6232 200.853 36.1517 200.853 36.779V67.0765C200.853 67.7038 200.948 68.2323 201.337 68.6657C201.676 69.0991 202.111 69.293 202.835 69.293C203.56 69.293 204.044 69.0991 204.429 68.6657C204.814 68.2323 204.959 67.7 204.959 67.0765V55.4692H203.415V53.0094H207.423V67.1259C207.423 68.4756 206.843 69.4869 206.023 70.2093C205.154 70.9811 204.429 71.3651 202.885 71.3651C202.111 71.3651 201.486 71.27 200.856 71.0761C200.277 70.886 199.842 70.5971 199.407 70.2093C198.973 69.8253 198.733 69.3881 198.538 68.909C198.298 68.3768 198.344 67.8027 198.344 67.1259V36.779C198.344 36.1061 198.294 35.4787 198.538 34.9959C198.733 34.4636 198.973 34.0302 199.407 33.6462C199.842 33.3078 200.277 33.0189 200.856 32.8288C201.486 32.6349 202.111 32.4904 202.885 32.4904C204.429 32.4904 205.154 32.8744 206.023 33.6462C206.843 34.418 207.423 35.4293 207.423 36.7752V47.7095H204.959V47.7133Z" fill="#094752"/>
<path d="M226.744 36.9197C226.744 36.2467 226.694 35.6194 226.938 35.1366C227.133 34.6081 227.373 34.1709 227.807 33.7869C228.242 33.4485 228.677 33.1596 229.256 32.9695C229.886 32.7262 230.511 32.6311 231.285 32.6311C232.829 32.6311 233.554 33.0151 234.423 33.7869C235.243 34.5587 235.823 35.57 235.823 36.9159V67.2628C235.823 68.6125 235.243 69.6238 234.423 70.3462C233.554 71.118 232.829 71.5019 231.285 71.5019C230.511 71.5019 229.886 71.4069 229.256 71.2168C228.677 71.0229 228.242 70.734 227.807 70.35C227.373 69.966 227.133 69.5326 226.938 69.0497C226.698 68.5213 226.744 67.9434 226.744 67.2666V36.9197ZM233.363 36.9197C233.363 36.2962 233.218 35.7639 232.833 35.3799C232.444 34.9465 231.964 34.707 231.239 34.707C230.515 34.707 230.08 34.9503 229.741 35.3799C229.352 35.7639 229.256 36.2962 229.256 36.9197V67.221C229.256 67.8483 229.352 68.3768 229.741 68.8102C230.08 69.2436 230.515 69.4337 231.239 69.4337C231.964 69.4337 232.448 69.2436 232.833 68.8102C233.218 68.3768 233.363 67.8445 233.363 67.221V36.9197Z" fill="#094752"/>
</svg>
