<svg width="287" height="103" viewBox="0 0 287 103" fill="none" xmlns="http://www.w3.org/2000/svg">
<path d="M34.0036 39.5168L35.6156 38.028C35.1735 37.5463 34.4889 36.9245 33.5268 36.3991C32.0188 35.5846 30.6061 35.4533 29.8261 35.4445C29.1328 35.4795 26.7754 35.6722 24.704 37.5551C22.2773 39.7619 22.0347 42.6607 22 43.2562C22 43.7992 22.052 46.7504 24.418 49.0975C26.6974 51.3656 29.4968 51.4445 30.0601 51.4445C30.9268 51.4007 32.1488 51.2343 33.5182 50.7263C34.6708 50.2973 35.5722 49.7543 36.2222 49.2902V43.8167H30.4848V45.8922H33.6135V47.9503C33.2755 48.2042 32.7815 48.5195 32.1402 48.7647C31.4035 49.0449 30.7448 49.1238 30.2941 49.15C29.9561 49.1763 27.7721 49.2902 26.03 47.5736C24.3574 45.9184 24.366 43.808 24.3747 43.4576C24.3747 43.0635 24.4354 40.8567 26.2207 39.1489C27.7894 37.6514 29.6355 37.5376 30.1035 37.52C30.5282 37.52 31.2215 37.5638 32.0015 37.9054C33.1021 38.3783 33.7262 39.1576 33.9948 39.5343L34.0036 39.5168Z" fill="#094752"/>
<path d="M83.1497 51.4445V35.2829H89.2103C90.4519 35.2829 91.4936 35.4985 92.3353 35.93C93.1823 36.3614 93.8215 36.9663 94.2529 37.745C94.6896 38.5183 94.9079 39.4206 94.9079 40.4518C94.9079 41.4881 94.6869 42.3878 94.245 43.1506C93.8083 43.9082 93.1639 44.4948 92.3116 44.9103C91.4594 45.3207 90.4124 45.5259 89.1708 45.5259H84.8542V43.0953H88.7762C89.5023 43.0953 90.0968 42.9954 90.5597 42.7955C91.0227 42.5903 91.3647 42.2931 91.5856 41.9038C91.8118 41.5092 91.9249 41.0252 91.9249 40.4518C91.9249 39.8782 91.8118 39.389 91.5856 38.9839C91.3593 38.5735 91.0148 38.2631 90.5518 38.0527C90.0889 37.837 89.4917 37.7292 88.7605 37.7292H86.0774V51.4445H83.1497ZM91.4988 44.1213L95.4997 51.4445H92.2327L88.3028 44.1213H91.4988Z" fill="#094752"/>
<path d="M148.29 71V61.303H151.926C152.671 61.303 153.296 61.4324 153.801 61.6913C154.309 61.9501 154.692 62.3131 154.952 62.7803C155.213 63.2443 155.345 63.7857 155.345 64.4043C155.345 65.0262 155.212 65.5659 154.947 66.0236C154.685 66.4782 154.299 66.8301 153.787 67.0795C153.276 67.3258 152.647 67.4489 151.902 67.4489H149.313V65.9905H151.666C152.101 65.9905 152.458 65.9306 152.736 65.8106C153.013 65.6875 153.219 65.5091 153.351 65.2755C153.487 65.0388 153.555 64.7484 153.555 64.4043C153.555 64.0603 153.487 63.7667 153.351 63.5236C153.216 63.2774 153.009 63.0912 152.731 62.965C152.453 62.8355 152.095 62.7708 151.656 62.7708H150.046V71H148.29ZM153.3 66.606L155.7 71H153.74L151.381 66.606H153.3Z" fill="#094752"/>
<path d="M55.7777 35.4445H58.188V49.6817H63.7777V51.4445H55.7777V35.4445Z" fill="#094752"/>
<path d="M200.667 35.4445H202.951V49.6311H208.249V51.4H200.667V35.4445Z" fill="#094752"/>
<path d="M67.3333 35.4445H77.9999V37.7919H70.02L69.9664 44.1505H77.0717L77.0448 45.9403H69.9933V49.6547H77.9999V51.4445H67.3333V35.4445Z" fill="#094752"/>
<path d="M213.111 35.4445H223.778V37.7927H215.798L215.744 44.1498H222.85L222.823 45.9445H215.771V49.6498H223.778V51.4445H213.111V35.4445Z" fill="#094752"/>
<path d="M100.222 35.4445H97.5555V51.4445H100.222V35.4445Z" fill="#094752" stroke="#094752" stroke-width="0.25" stroke-miterlimit="10"/>
<path d="M165.111 35.4445V51.4445H167.404V39.6845L176.124 44.2534V51.5778H178.356V35.4445H176.187V41.7289L165.111 35.4445Z" fill="#094752"/>
<path d="M229.111 35.4445V37.6845H231.769V50.8756C231.68 51.1245 231.467 51.64 230.951 52.0756C230.204 52.7067 229.351 52.7245 229.111 52.7245V54.4134H231.769C231.982 54.3867 232.622 54.2889 233.182 53.7556C233.804 53.1689 233.911 52.44 233.938 52.2445V35.4623H229.111V35.4445Z" fill="#094752"/>
<path d="M262.043 39.197L263.449 37.6838C263.183 37.3055 262.686 36.7086 261.871 36.2126C261.485 35.9856 260.5 35.3971 259.102 35.4475C257.516 35.498 256.452 36.3386 256.144 36.5993C255.878 36.8263 254.609 37.9107 254.515 39.6762C254.454 40.8363 254.934 41.6938 255.14 42.0385C255.921 43.3836 257.181 43.9889 257.652 44.1822C259.282 44.8632 259.985 44.2159 261.168 45.0397C261.426 45.2162 262.36 45.872 262.42 46.9565C262.48 48.0578 261.597 48.7891 261.511 48.8564C260.551 49.6214 259.402 49.344 259.273 49.3188C258.802 49.2179 258.15 49.0329 257.447 48.6462C256.624 48.1922 256.067 47.6542 255.724 47.2675C255.149 47.6879 254.574 48.1166 254 48.537C254.36 49.033 255.098 49.9073 256.332 50.5714C257.516 51.2103 258.613 51.37 259.222 51.4121C259.462 51.4457 261.768 51.6979 263.397 49.9997C263.612 49.7728 264.676 48.6378 264.667 46.906C264.667 46.6706 264.641 45.5442 263.852 44.426C263.08 43.3331 262.026 42.8707 261.623 42.7194C260.328 42.2319 259.856 42.711 258.63 42.0805C258.193 41.8536 257.567 41.5341 257.259 40.8279C256.916 40.0629 257.139 39.3147 257.224 39.0625C257.37 38.785 257.781 38.1041 258.588 37.8183C259.71 37.4147 261.151 37.9444 262.026 39.197H262.043Z" fill="#094752"/>
<path d="M142.447 39.9149L144.258 38.7552C143.875 38.1966 143.126 37.2739 141.881 36.5375C140.262 35.581 138.704 35.4624 137.981 35.4455C137.46 35.4371 134.195 35.4201 131.749 37.968C129.721 40.0842 129.573 42.5813 129.556 43.2247C129.556 43.7071 129.652 47.4062 132.794 49.7763C134.944 51.3931 137.285 51.4524 138.052 51.4438C138.817 51.427 140.132 51.3085 141.594 50.6566C143.161 49.9625 144.153 48.9891 144.667 48.4135L142.743 46.8391C142.316 47.2538 141.594 47.8463 140.549 48.295C139.427 48.786 138.408 48.896 137.79 48.9214C137.268 48.8875 135.579 48.7098 134.1 47.3977C132.306 45.7979 132.167 43.6986 132.149 43.2754C132.158 42.8691 132.254 41.0407 133.769 39.551C135.484 37.858 137.694 37.9173 138.052 37.9342C138.6 37.968 139.452 38.0865 140.41 38.5098C141.403 38.9499 142.073 39.534 142.456 39.9234L142.447 39.9149Z" fill="#094752"/>
<path d="M115.796 71H117.111V64.4311L120.222 67L123.333 64.4311V71H124.622V61.2222C123.085 62.3956 121.76 63.6044 120.222 64.7778C118.818 63.6044 117.2 62.3956 115.796 61.2222V71Z" fill="#094752" stroke="#094752" stroke-width="0.25" stroke-miterlimit="10"/>
<path d="M158 61.2222H159.778L159.676 71H158V61.2222Z" fill="#094752" stroke="#094752" stroke-width="0.25" stroke-miterlimit="10"/>
<path d="M97.7688 33.2844L99.4932 31H102.507L99.9821 33.2844H97.7688Z" fill="#094752" stroke="#094752" stroke-width="0.25" stroke-miterlimit="10"/>
<path d="M41.6695 51.4445H38.5446L44.2342 35.2829H47.8485L53.5461 51.4445H50.4211L46.1045 38.5973H45.9782L41.6695 51.4445ZM41.7721 45.1077H50.2949V47.4593H41.7721V45.1077Z" fill="#094752"/>
<path d="M105.669 51.4445H102.545L108.234 35.2829H111.849L117.546 51.4445H114.421L110.105 38.5973H109.978L105.669 51.4445ZM105.773 45.1077H114.295V47.4593H105.773V45.1077Z" fill="#094752"/>
<path d="M150.114 51.4445H146.989L152.678 35.2829H156.293L161.99 51.4445H158.866L154.549 38.5973H154.422L150.114 51.4445ZM150.217 45.1077H158.74V47.4593H150.217V45.1077Z" fill="#094752"/>
<path d="M185.669 51.4445H182.545L188.234 35.2829H191.849L197.546 51.4445H194.421L190.105 38.5973H189.978L185.669 51.4445ZM185.772 45.1077H194.295V47.4593H185.772V45.1077Z" fill="#094752"/>
<path d="M239.891 51.4445H236.767L242.456 35.2829H246.071L251.768 51.4445H248.643L244.327 38.5973H244.2L239.891 51.4445ZM239.995 45.1077H248.517V47.4593H239.995V45.1077Z" fill="#094752"/>
<path d="M140.909 71H137.623V61.303H140.975C141.938 61.303 142.765 61.4971 143.456 61.8854C144.151 62.2705 144.684 62.8245 145.057 63.5474C145.429 64.2702 145.615 65.1351 145.615 66.142C145.615 67.1522 145.428 68.0202 145.053 68.7462C144.68 69.4722 144.141 70.0293 143.437 70.4176C142.737 70.8059 141.894 71 140.909 71ZM139.38 69.4801H140.824C141.5 69.4801 142.063 69.357 142.514 69.1107C142.965 68.8614 143.305 68.4905 143.532 67.9981C143.759 67.5025 143.873 66.8838 143.873 66.142C143.873 65.4002 143.759 64.7847 143.532 64.2954C143.305 63.803 142.969 63.4353 142.524 63.1923C142.082 62.946 141.532 62.8229 140.876 62.8229H139.38V69.4801Z" fill="#094752"/>
<path d="M165.798 71H162.512V61.303H165.864C166.827 61.303 167.654 61.4971 168.345 61.8854C169.04 62.2705 169.573 62.8245 169.946 63.5474C170.318 64.2702 170.504 65.1351 170.504 66.142C170.504 67.1522 170.316 68.0202 169.941 68.7462C169.569 69.4722 169.03 70.0293 168.326 70.4176C167.626 70.8059 166.783 71 165.798 71ZM164.268 69.4801H165.713C166.388 69.4801 166.952 69.357 167.403 69.1107C167.854 68.8614 168.194 68.4905 168.421 67.9981C168.648 67.5025 168.762 66.8838 168.762 66.142C168.762 65.4002 168.648 64.7847 168.421 64.2954C168.194 63.803 167.858 63.4353 167.412 63.1923C166.971 62.946 166.421 62.8229 165.764 62.8229H164.268V69.4801Z" fill="#094752"/>
<path d="M128.202 71H126.327L129.74 61.303H131.909L135.328 71H133.452L130.863 63.2916H130.787L128.202 71ZM128.263 67.1979H133.377V68.6089H128.263V67.1979Z" fill="#094752"/>
</svg>
