<svg width="287" height="104" viewBox="0 0 287 104" fill="none" xmlns="http://www.w3.org/2000/svg">
<line x1="138" y1="21.9846" x2="138.923" y2="81.9775" stroke="#094752" stroke-width="2"/>
<path d="M0 72.9817H2.05455V77.3526H7.62061V72.9817H9.67516V83.8008H7.62061V79.3047H2.05455V83.8008H0V72.9817Z" fill="#094752"/>
<path d="M12.225 78.3884C12.225 75.207 14.6495 72.7768 17.9276 72.7768C21.2058 72.7768 23.6303 75.2354 23.6303 78.3884C23.6303 81.5414 21.1887 84 17.9106 84C14.6324 84 12.225 81.604 12.225 78.3884ZM21.479 78.3884C21.479 76.3168 19.9936 74.7403 17.9219 74.7403C15.8503 74.7403 14.3535 76.3168 14.3535 78.3884C14.3535 80.46 15.8389 82.0365 17.9219 82.0365C20.0049 82.0365 21.479 80.4885 21.479 78.3884Z" fill="#094752"/>
<path d="M25.6222 78.3884C25.6222 75.207 27.9727 72.7768 31.2793 72.7768C33.9371 72.7768 35.8892 74.1996 36.4754 76.3794H34.2217C33.7892 75.298 32.7135 74.7403 31.285 74.7403C29.1679 74.7403 27.7621 76.2997 27.7621 78.3884C27.7621 80.4771 29.1849 82.082 31.3021 82.082C33.0664 82.082 34.3867 81.0519 34.5347 79.8283H31.1029V78.1266H36.8226C36.8966 81.8088 34.5518 84 31.3078 84C28.0637 84 25.6336 81.604 25.6336 78.3884H25.6222Z" fill="#094752"/>
<path d="M51.6197 72.9817H57.2142C59.4224 72.9817 60.9363 74.3874 60.9363 76.4306C60.9363 77.9274 60.0542 79.0713 58.9102 79.5836L61.2892 83.8008H58.9842L56.9581 79.9364H53.6686V83.8008H51.614V72.9817H51.6197ZM57.0549 78.1778C58.0736 78.1778 58.8305 77.5745 58.8305 76.4306C58.8305 75.4574 58.1647 74.746 57.0207 74.746H53.6686V78.1778H57.0549Z" fill="#094752"/>
<path d="M66.4797 74.7915H62.6836V72.9817H72.3588V74.7915H68.5342V83.8008H66.4797V74.7915Z" fill="#094752"/>
<path d="M74.5044 72.9817H76.5589V77.3526H82.125V72.9817H84.1796V83.8008H82.125V79.3047H76.5589V83.8008H74.5044V72.9817Z" fill="#094752"/>
<path d="M45.0919 72.9817H42.4967L37.8754 83.8008H39.9925L40.9259 81.6666H46.657L47.5904 83.8008H49.7075L45.0862 72.9817H45.0919ZM41.717 79.8283L43.7032 75.2696H43.8853L45.8716 79.8283H41.7113H41.717Z" fill="#094752"/>
<path fill-rule="evenodd" clip-rule="evenodd" d="M24.1765 19H36.1168V21.5155H24.1765V19Z" fill="#094752"/>
<path fill-rule="evenodd" clip-rule="evenodd" d="M24.1765 28.9597H36.1168V31.4753H24.1765V28.9597Z" fill="#094752"/>
<path fill-rule="evenodd" clip-rule="evenodd" d="M24.1765 33.9396H60.0031V36.4551H24.1765V33.9396Z" fill="#094752"/>
<path fill-rule="evenodd" clip-rule="evenodd" d="M24.1765 23.9799H36.1168V26.4954H24.1765V23.9799Z" fill="#094752"/>
<path fill-rule="evenodd" clip-rule="evenodd" d="M24.1765 38.9194H36.1168V41.4407H24.1765V38.9194Z" fill="#094752"/>
<path fill-rule="evenodd" clip-rule="evenodd" d="M24.1765 48.8849H36.1168V51.4004H24.1765V48.8849Z" fill="#094752"/>
<path fill-rule="evenodd" clip-rule="evenodd" d="M24.1765 43.905H36.1168V46.4205H24.1765V43.905Z" fill="#094752"/>
<path fill-rule="evenodd" clip-rule="evenodd" d="M48.0627 19H60.003V21.5155H48.0627V19Z" fill="#094752"/>
<path fill-rule="evenodd" clip-rule="evenodd" d="M48.0627 28.9597H60.003V31.4753H48.0627V28.9597Z" fill="#094752"/>
<path fill-rule="evenodd" clip-rule="evenodd" d="M48.0627 23.9799H60.003V26.4954H48.0627V23.9799Z" fill="#094752"/>
<path fill-rule="evenodd" clip-rule="evenodd" d="M48.0627 38.9194H60.003V41.4407H48.0627V38.9194Z" fill="#094752"/>
<path fill-rule="evenodd" clip-rule="evenodd" d="M48.0627 48.8849H60.003V51.4004H48.0627V48.8849Z" fill="#094752"/>
<path fill-rule="evenodd" clip-rule="evenodd" d="M48.0627 43.905H60.003V46.4205H48.0627V43.905Z" fill="#094752"/>
<path d="M195.714 32H195.919L196.265 32.2966C197.839 32.0453 215.07 31.9713 215.765 32.2571L216.372 32.1901C216.683 32.0932 216.559 32.0995 216.881 32.1726C217.272 32.8105 217.143 48.2365 217.098 50.2559C217.666 50.2497 218.234 50.2531 218.802 50.2661C218.661 46.6916 218.806 42.758 218.757 39.155C218.737 37.6906 218.697 33.182 218.935 32H219.117L219.459 32.4461C220.872 31.5901 236.678 32.5157 239.793 32.1787L240.105 32.1582C240.397 32.4462 240.373 33.0403 240.374 33.4484C240.389 39.0496 240.385 44.6551 240.386 50.2563C240.897 50.2521 241.5 50.2325 242.002 50.2598L242.009 38.6556C242.01 37.4889 242.096 34.2132 241.986 33.1712C242.403 32.8092 242.223 32.8878 242.746 32.7963L242.881 33.071C243.086 35.7384 242.96 40.2641 242.961 43.0356L242.967 62.8096C244.196 61.365 246.623 57.0747 247.741 55.2902C248.585 53.9432 250.152 51.6099 250.905 50.3056C253.307 50.2453 257.259 50.4025 259.439 50.2417C259.042 52.5642 257.684 60.6113 256.867 62.4141L256.937 63.2347C256.907 63.2477 256.919 63.241 256.885 63.2642C256.411 63.5888 255.248 70.5586 255.08 71.4228C253.496 71.494 251.384 71.4234 249.759 71.4102C250.064 70.4289 251.452 63.9533 251.372 63.2215C250.749 63.3095 249.372 63.3161 248.775 63.1399C248.641 63.1757 248.477 63.2191 248.285 63.2701C246.492 65.3845 244.731 69.3049 243.115 71.4085C241.618 71.451 240.12 71.4541 238.622 71.4179C238.611 68.8156 238.419 65.6922 238.493 63.2084C237.716 63.2311 236.977 63.2618 236.199 63.2133C235.601 65.8342 234.662 68.834 233.901 71.4236C232.111 71.4414 230.322 71.4365 228.532 71.4086C229.245 69.0121 230.111 65.3664 230.885 63.2139C229.302 63.3761 226.031 63.2827 224.349 63.2665C222.634 63.2499 219.611 63.3407 217.995 63.1886C217.605 64.8155 216.2 70.0142 215.624 71.4808C213.833 71.5178 212.041 71.508 210.251 71.4514C210.866 69.3545 212.004 65.0662 212.792 63.1991C211.481 63.2917 205.156 63.3537 203.968 63.202C205.465 65.8193 206.639 69.1129 208.011 71.494C206.098 71.5106 203.864 71.579 201.987 71.4681C200.708 69.0453 199.088 64.8904 197.661 62.7752C196.702 64.8877 195.608 69.1435 194.951 71.5025C194.07 71.506 190.643 71.5596 190 71.3574V71.2025C190.423 70.8781 195.219 54.1872 195.477 52.0234C195.547 51.4405 195.535 47.5751 195.534 46.6987L195.52 37.2481C195.518 36.0124 195.43 33.0264 195.714 32ZM196.311 32.9213C196.325 38.6378 196.413 44.5809 196.329 50.282C197.576 50.2627 200.168 50.3452 201.214 50.2513C200.601 52.3694 199.393 56.9472 198.625 58.7725C199.029 58.4201 199.391 58.0312 199.752 57.6343C201.971 55.1964 204.06 52.6353 206.445 50.3576C208.704 50.1073 211.028 50.3805 213.207 50.2111C209.683 53.4444 206.541 57.2665 202.852 60.7439L203.595 62.4341C206.706 62.4129 209.945 62.366 213.047 62.4348C213.533 60.4973 216.109 52.2228 216.194 51.1175C216.307 49.6683 216.294 32.9943 216.244 32.9206L198.547 32.9327C197.867 32.9371 196.972 32.9685 196.311 32.9213ZM248.867 62.4132L251.469 62.4267C251.744 62.1828 252.929 56.3566 253.239 55.3155C252.642 56.0281 248.931 61.9756 248.867 62.4132ZM231.092 62.4402C231.987 58.8137 233.355 53.8537 234.451 50.258L239.592 50.2352C239.409 46.1671 239.648 41.777 239.569 37.6859C239.546 36.4672 239.663 34.046 239.556 32.9333C234.944 32.9023 230.332 32.8991 225.72 32.9239C224.355 32.9282 220.534 33.0418 219.455 32.8544C219.606 38.3524 219.589 44.7199 219.522 50.2156C221.444 50.2843 223.37 50.2147 225.315 50.2092C227.516 50.203 230.209 50.5663 230.768 53.1968C231.319 55.7955 230.457 59.061 228.523 60.8703C227.682 61.6678 226.865 62.026 225.979 62.6145C227.672 62.3209 229.378 62.388 231.092 62.4402ZM238.282 55.6642C237.735 57.801 237.027 60.0934 236.534 62.2106L236.649 62.4035L238.502 62.4422C238.497 61.4215 238.643 56.1287 238.282 55.6642ZM220.946 53.5692C220.774 53.7201 219.433 58.6561 219.121 59.5136C220.701 59.5072 222.227 59.5162 223.754 59.0305C224.909 58.3431 225.369 57.3315 225.727 56.0567C226.654 52.7626 222.771 53.7788 220.946 53.5692Z" fill="#094752"/>
<path d="M219.459 32.4461C220.872 31.5901 236.678 32.5157 239.793 32.1787L239.556 32.9333C234.944 32.9023 230.332 32.8991 225.72 32.9239C224.355 32.9282 220.534 33.0418 219.455 32.8544C219.686 32.7334 220.109 32.6847 220.38 32.6399C220.049 32.6209 219.776 32.5344 219.459 32.4461Z" fill="#094752"/>
<path d="M215.765 32.2571L216.372 32.1901C216.311 32.4241 216.223 32.6834 216.244 32.9206L198.547 32.9327C200.008 32.5222 202.247 32.7898 202.948 32.5471C201.965 32.367 201.543 32.4866 200.737 32.3772C201.607 32.2398 203.218 32.2863 204.145 32.2848C206.475 32.2757 208.804 32.28 211.133 32.2977C212.376 32.3114 214.617 32.4124 215.765 32.2571Z" fill="#094752"/>
<path d="M248.867 62.4132L251.469 62.4267C251.442 62.6139 251.368 63.0551 251.372 63.2215C250.75 63.3095 249.372 63.3161 248.775 63.1399C248.764 62.8402 248.738 62.6845 248.867 62.4132Z" fill="#094752"/>
<path d="M265.479 32H266.451H266.652H287V63.2113C285.378 63.2567 282.532 63.3346 280.943 63.2076C280.346 65.9404 279.763 67.9778 279.043 70.6483C277.232 71.2519 272.909 71.618 272.02 72H267.236C266.898 71.7727 266.362 71.7472 265.957 71.6239C264.565 71.2014 263.042 70.7586 261.961 69.7356C259.946 67.8295 259.851 65.9924 259.71 63.3865L259.516 63.2494L259.384 62.4863C259.932 62.3405 259.83 61.9194 259.957 61.2564C260.445 58.7169 261.369 56.9011 262.748 54.7683C262.65 49.727 262.785 44.6087 262.747 39.5587C262.731 37.4482 262.826 35.0252 262.718 32.9382L262.847 32.2124L263.222 32.1336C263.527 32.4275 263.551 32.6035 263.549 33.0893C263.531 37.036 263.621 41.0741 263.56 45.01C263.521 47.5787 263.683 50.9718 263.521 53.463C264.028 53.0515 265.07 52.2591 265.438 51.7807C265.405 50.9074 265.403 49.9959 265.415 49.1201C265.492 43.4346 265.306 37.6793 265.479 32ZM266.16 32.8619C266.437 36.2119 266.112 40.7997 266.245 44.2615C266.276 45.0611 266.279 50.4833 266.177 51.0706C266.424 51.1506 270.101 49.6401 270.836 49.462C273.05 48.9147 275.348 48.8157 277.6 49.1704C281.855 49.8833 283.504 51.7896 282.776 56.1809C280.786 56.179 278.622 56.2145 276.652 56.1186C276.543 50.2063 266.778 53.1986 266.19 62.4042L270.929 62.4244C271.159 61.2905 271.466 60.1102 271.742 58.9813L282.001 58.9481C281.73 60.1329 281.483 61.2329 281.13 62.395C282.776 62.3974 284.422 62.4119 286.067 62.4383C285.893 52.7238 286.132 42.6625 286.06 32.8941C285.395 32.9021 284.678 32.8613 284.009 32.8357C283.122 33.0114 267.048 33.0441 266.16 32.8619ZM275.293 63.2106C273.319 63.3113 267.994 63.3677 266.096 63.2106C266.406 66.4273 267.98 67.716 271.226 67.7557C272.135 67.7667 273.345 67.6467 274.215 67.3856C274.26 67.2843 274.332 67.1427 274.337 67.0391L275.293 63.2106Z" fill="#094752"/>
<path d="M266.451 32H266.652C267.669 32.8183 282.483 31.8947 282.805 32.4213L282.981 32.3678L281.109 32.5356L281.114 32.5939C281.634 32.6256 283.763 32.6515 284.009 32.8357C283.122 33.0114 267.048 33.0441 266.16 32.8619L266.076 32.7526L266.075 32.8667L265.87 32.7881L265.96 32.7357L265.812 32.7114C265.969 32.4559 266.1 32.6541 266.451 32Z" fill="#094752"/>
<path d="M242.222 32H242.372C242.453 32.0612 242.555 32.1385 242.678 32.2319C247.703 32.0923 252.975 32.0793 257.978 32.1036C259.244 32.1097 261.671 32.0339 262.26 32.2634L262.847 32.2124L262.718 32.9382C256.827 32.898 250.935 32.8951 245.043 32.9294C244.601 32.9351 243.189 32.8976 242.881 33.071L242.746 32.7963C242.223 32.8878 242.403 32.8092 241.987 33.1712C241.987 32.8319 242.134 32.3413 242.222 32Z" fill="#094752"/>
<path d="M242.222 32H242.372C242.453 32.0612 242.555 32.1385 242.678 32.2319C247.703 32.0923 252.975 32.0793 257.978 32.1036C259.244 32.1097 261.671 32.0339 262.26 32.2634C260.949 32.4072 258.8 32.3328 257.43 32.3251C254.727 32.3052 252.023 32.2994 249.32 32.3075C248.09 32.3124 245.675 32.2407 244.574 32.619L244.97 32.702L245.043 32.9294C244.601 32.9351 243.189 32.8976 242.881 33.071L242.746 32.7963C242.223 32.8878 242.403 32.8092 241.987 33.1712C241.987 32.8319 242.134 32.3413 242.222 32Z" fill="#094752"/>
<path d="M256.867 62.4141C257.538 62.4156 258.763 62.3836 259.384 62.4863L259.516 63.2494C258.79 63.2831 257.689 63.2402 256.937 63.2347L256.867 62.4141Z" fill="#094752"/>
</svg>
