<svg width="287" height="104" viewBox="0 0 287 104" fill="none" xmlns="http://www.w3.org/2000/svg">
<line x1="150" y1="21.9846" x2="150.923" y2="81.9775" stroke="#094752" stroke-width="2"/>
<path d="M203 72.9817H205.05V77.3526H210.604V72.9817H212.655V83.8008H210.604V79.3047H205.05V83.8008H203V72.9817Z" fill="#094752"/>
<path d="M215.199 78.3884C215.199 75.207 217.618 72.7768 220.889 72.7768C224.161 72.7768 226.58 75.2354 226.58 78.3884C226.58 81.5414 224.143 84 220.872 84C217.601 84 215.199 81.604 215.199 78.3884ZM224.433 78.3884C224.433 76.3168 222.951 74.7403 220.884 74.7403C218.816 74.7403 217.323 76.3168 217.323 78.3884C217.323 80.46 218.805 82.0365 220.884 82.0365C222.962 82.0365 224.433 80.4885 224.433 78.3884Z" fill="#094752"/>
<path d="M228.568 78.3884C228.568 75.207 230.913 72.7768 234.213 72.7768C236.865 72.7768 238.813 74.1996 239.398 76.3794H237.149C236.717 75.298 235.644 74.7403 234.218 74.7403C232.106 74.7403 230.703 76.2997 230.703 78.3884C230.703 80.4771 232.123 82.082 234.235 82.082C235.996 82.082 237.313 81.0519 237.461 79.8283H234.037V78.1266H239.744C239.818 81.8088 237.478 84 234.241 84C231.004 84 228.579 81.604 228.579 78.3884H228.568Z" fill="#094752"/>
<path d="M254.51 72.9817H260.092C262.296 72.9817 263.806 74.3874 263.806 76.4306C263.806 77.9274 262.926 79.0713 261.785 79.5836L264.158 83.8008H261.858L259.837 79.9364H256.554V83.8008H254.504V72.9817H254.51ZM259.933 78.1778C260.95 78.1778 261.705 77.5745 261.705 76.4306C261.705 75.4574 261.041 74.746 259.899 74.746H256.554V78.1778H259.933Z" fill="#094752"/>
<path d="M269.338 74.7915H265.55V72.9817H275.204V74.7915H271.388V83.8008H269.338V74.7915Z" fill="#094752"/>
<path d="M277.345 72.9817H279.396V77.3526H284.95V72.9817H287V83.8008H284.95V79.3047H279.396V83.8008H277.345V72.9817Z" fill="#094752"/>
<path d="M247.996 72.9817H245.406L240.795 83.8008H242.907L243.839 81.6666H249.557L250.489 83.8008H252.601L247.99 72.9817H247.996ZM244.628 79.8283L246.61 75.2696H246.792L248.774 79.8283H244.622H244.628Z" fill="#094752"/>
<path fill-rule="evenodd" clip-rule="evenodd" d="M227.125 19H239.04V21.5155H227.125V19Z" fill="#094752"/>
<path fill-rule="evenodd" clip-rule="evenodd" d="M227.125 28.9597H239.04V31.4753H227.125V28.9597Z" fill="#094752"/>
<path fill-rule="evenodd" clip-rule="evenodd" d="M227.125 33.9396H262.875V36.4551H227.125V33.9396Z" fill="#094752"/>
<path fill-rule="evenodd" clip-rule="evenodd" d="M227.125 23.9799H239.04V26.4954H227.125V23.9799Z" fill="#094752"/>
<path fill-rule="evenodd" clip-rule="evenodd" d="M227.125 38.9194H239.04V41.4407H227.125V38.9194Z" fill="#094752"/>
<path fill-rule="evenodd" clip-rule="evenodd" d="M227.125 48.8849H239.04V51.4004H227.125V48.8849Z" fill="#094752"/>
<path fill-rule="evenodd" clip-rule="evenodd" d="M227.125 43.905H239.04V46.4205H227.125V43.905Z" fill="#094752"/>
<path fill-rule="evenodd" clip-rule="evenodd" d="M250.96 19H262.875V21.5155H250.96V19Z" fill="#094752"/>
<path fill-rule="evenodd" clip-rule="evenodd" d="M250.96 28.9597H262.875V31.4753H250.96V28.9597Z" fill="#094752"/>
<path fill-rule="evenodd" clip-rule="evenodd" d="M250.96 23.9799H262.875V26.4954H250.96V23.9799Z" fill="#094752"/>
<path fill-rule="evenodd" clip-rule="evenodd" d="M250.96 38.9194H262.875V41.4407H250.96V38.9194Z" fill="#094752"/>
<path fill-rule="evenodd" clip-rule="evenodd" d="M250.96 48.8849H262.875V51.4004H250.96V48.8849Z" fill="#094752"/>
<path fill-rule="evenodd" clip-rule="evenodd" d="M250.96 43.905H262.875V46.4205H250.96V43.905Z" fill="#094752"/>
<path d="M6.2857 30H6.51137L6.89187 30.3262C8.6226 30.0498 27.5767 29.9684 28.3414 30.2828L29.0095 30.2091C29.3516 30.1026 29.2151 30.1095 29.5695 30.1898C29.9997 30.8916 29.8569 47.8602 29.8076 50.0815C30.4326 50.0747 31.0576 50.0784 31.6825 50.0927C31.5275 46.1608 31.6869 41.8338 31.6326 37.8705C31.6105 36.2596 31.5672 31.3003 31.8285 30H32.0286L32.405 30.4907C33.9588 29.5491 51.3462 30.5673 54.7727 30.1966L55.116 30.174C55.4363 30.4908 55.4098 31.1443 55.411 31.5932C55.4276 37.7546 55.4232 43.9206 55.4244 50.0819C55.9863 50.0773 56.6502 50.0557 57.2022 50.0858L57.2103 37.3212C57.2109 36.0378 57.3057 32.4345 57.1852 31.2884C57.6429 30.8901 57.4454 30.9766 58.0208 30.8759L58.1687 31.1781C58.3947 34.1122 58.2565 39.0905 58.2576 42.1392L58.2639 63.8906C59.6157 62.3015 62.2855 57.5822 63.5155 55.6192C64.4432 54.1375 66.167 51.5709 66.9957 50.1361C69.6372 50.0698 73.9852 50.2428 76.3824 50.0659C75.9467 52.6206 74.4523 61.4725 73.5536 63.4555L73.6307 64.3582C73.5975 64.3724 73.6105 64.3651 73.5732 64.3906C73.0516 64.7477 71.7729 72.4145 71.588 73.3651C69.8452 73.4434 67.5227 73.3657 65.7349 73.3512C66.0704 72.2718 67.5968 65.1486 67.5091 64.3437C66.8244 64.4405 65.3093 64.4477 64.6525 64.2539C64.5049 64.2932 64.3247 64.341 64.1131 64.3971C62.1415 66.7229 60.2037 71.0354 58.4267 73.3493C56.7796 73.3961 55.1315 73.3995 53.4841 73.3597C53.4726 70.4971 53.2614 67.0614 53.3418 64.3292C52.4879 64.3542 51.6746 64.388 50.8194 64.3346C50.1614 67.2176 49.1278 70.5174 48.2906 73.3659C46.3223 73.3856 44.3538 73.3801 42.3856 73.3495C43.169 70.7133 44.1216 66.7031 44.973 64.3352C43.2318 64.5137 39.634 64.411 37.7834 64.3931C35.8979 64.3748 32.5721 64.4747 30.7944 64.3075C30.3659 66.097 28.8201 71.8157 28.186 73.4288C26.2161 73.4695 24.2455 73.4588 22.2761 73.3965C22.9527 71.09 24.2048 66.3729 25.0716 64.319C23.6292 64.4209 16.6719 64.4891 15.3649 64.3222C17.0112 67.2013 18.3028 70.8242 19.8118 73.4434C17.7082 73.4617 15.2499 73.5369 13.1858 73.4149C11.7783 70.7498 9.99714 66.1794 8.4274 63.8528C7.37226 66.1764 6.16922 70.8578 5.44628 73.4528C4.47739 73.4566 0.70767 73.5155 0 73.2931V73.1227C0.464829 72.7659 5.74143 54.406 6.02482 52.0257C6.10116 51.3846 6.08848 47.1326 6.08729 46.1686L6.07153 35.7729C6.06963 34.4137 5.97312 31.1291 6.2857 30ZM6.94196 31.0135C6.95803 37.3015 7.05411 43.839 6.96164 50.1102C8.33327 50.089 11.1849 50.1797 12.3352 50.0765C11.6614 52.4063 10.3328 57.442 9.48699 59.4498C9.93187 59.0621 10.3299 58.6344 10.7273 58.1977C13.1677 55.5161 15.4665 52.6988 18.089 50.1933C20.5747 49.9181 23.1313 50.2186 25.528 50.0322C21.6517 53.5888 18.1954 57.7931 14.1375 61.6183L14.955 63.4775C18.3771 63.4542 21.9391 63.4026 25.3516 63.4783C25.8858 61.347 28.7197 52.2451 28.8139 51.0293C28.9375 49.4352 28.9232 31.0937 28.8686 31.0126L9.40116 31.026C8.65349 31.0308 7.6696 31.0654 6.94196 31.0135ZM64.7539 63.4545L67.6158 63.4694C67.9181 63.2011 69.2216 56.7923 69.5625 55.647C68.9057 56.4309 64.8244 62.9732 64.7539 63.4545ZM45.2017 63.4842C46.1859 59.4951 47.691 54.0391 48.8958 50.0838L54.5512 50.0587C54.3497 45.5838 54.6123 40.7547 54.5264 36.2544C54.5008 34.914 54.6296 32.2507 54.5111 31.0266C49.4381 30.9925 44.365 30.9891 39.292 31.0163C37.7901 31.021 33.5875 31.146 32.4 30.9398C32.567 36.9876 32.5474 43.9919 32.4744 50.0371C34.5882 50.1127 36.7071 50.0362 38.8463 50.0301C41.2671 50.0233 44.2303 50.4229 44.8444 53.3164C45.4511 56.175 44.5025 59.7671 42.3758 61.7573C41.4502 62.6346 40.552 63.0286 39.5766 63.6759C41.4392 63.353 43.3153 63.4268 45.2017 63.4842ZM53.1099 56.0306C52.5081 58.3811 51.7302 60.9027 51.1878 63.2316L51.3136 63.4439L53.3527 63.4864C53.3468 62.3636 53.5068 56.5416 53.1099 56.0306ZM34.041 53.7261C33.8512 53.8921 32.3758 59.3217 32.0337 60.265C33.771 60.258 35.4496 60.2678 37.1294 59.7335C38.3994 58.9774 38.9055 57.8647 39.3 56.4623C40.3193 52.8389 36.0478 53.9567 34.041 53.7261Z" fill="#094752"/>
<path d="M32.4049 30.4907C33.9588 29.5491 51.3462 30.5673 54.7726 30.1965L54.5111 31.0266C49.4381 30.9925 44.365 30.9891 39.292 31.0163C37.79 31.021 33.5875 31.146 32.4 30.9398C32.6544 30.8068 33.1202 30.7531 33.4184 30.7039C33.0534 30.683 32.7541 30.5878 32.4049 30.4907Z" fill="#094752"/>
<path d="M28.3414 30.2828L29.0095 30.2091C28.9419 30.4665 28.8452 30.7517 28.8686 31.0126L9.40112 31.026C11.0083 30.5745 13.4719 30.8688 14.2432 30.6018C13.1617 30.4037 12.6977 30.5353 11.8106 30.415C12.7676 30.2637 14.54 30.315 15.56 30.3133C18.122 30.3032 20.6839 30.308 23.2459 30.3275C24.6136 30.3426 27.0786 30.4537 28.3414 30.2828Z" fill="#094752"/>
<path d="M64.7539 63.4545L67.6158 63.4694C67.5862 63.6753 67.5044 64.1606 67.5091 64.3437C66.8245 64.4405 65.3093 64.4477 64.6525 64.2539C64.6401 63.9242 64.6122 63.753 64.7539 63.4545Z" fill="#094752"/>
<path d="M83.0274 30H84.0956H84.3167H106.7V64.3325C104.916 64.3823 101.785 64.4681 100.038 64.3283C99.3804 67.3344 98.7396 69.5755 97.9476 72.5131C95.9547 73.1771 91.1994 73.5798 90.2219 74H84.9599C84.5882 73.7499 83.9984 73.7219 83.5526 73.5863C82.022 73.1216 80.3463 72.6344 79.1566 71.5091C76.9408 69.4125 76.8364 67.3916 76.6811 64.5252L76.4671 64.3744L76.3219 63.5349C76.9253 63.3746 76.8127 62.9113 76.9526 62.1821C77.4897 59.3886 78.5063 57.3912 80.0226 55.0451C79.9153 49.4997 80.0635 43.8695 80.022 38.3146C80.0042 35.993 80.1086 33.3277 79.99 31.032L80.1317 30.2336L80.5437 30.1469C80.8798 30.4702 80.9064 30.6638 80.9041 31.1982C80.8845 35.5396 80.9829 39.9816 80.9165 44.311C80.8732 47.1366 81.0517 50.869 80.8732 53.6093C81.431 53.1566 82.5775 52.285 82.9818 51.7587C82.945 50.7981 82.9432 49.7955 82.9563 48.8321C83.0416 42.5781 82.8371 36.2473 83.0274 30ZM83.7761 30.9481C84.0802 34.633 83.7227 39.6797 83.8697 43.4877C83.9035 44.3672 83.9065 50.3317 83.7944 50.9777C84.0659 51.0657 88.1111 49.4041 88.9196 49.2082C91.3547 48.6062 93.8829 48.4972 96.3602 48.8875C101.041 49.6717 102.854 51.7685 102.054 56.599C99.8647 56.5969 97.4847 56.6359 95.3175 56.5304C95.1971 50.0269 84.456 53.3185 83.8087 63.4446L89.0216 63.4668C89.2753 62.2195 89.6126 60.9213 89.9167 59.6794L101.201 59.6429C100.903 60.9462 100.631 62.1562 100.243 63.4345C102.054 63.4372 103.864 63.4531 105.674 63.4821C105.482 52.7962 105.746 41.7288 105.666 30.9835C104.934 30.9923 104.146 30.9475 103.409 30.9193C102.434 31.1125 84.7524 31.1486 83.7761 30.9481ZM93.8225 64.3317C91.6505 64.4424 85.7933 64.5045 83.7055 64.3316C84.0464 67.8701 85.7779 69.2876 89.3482 69.3312C90.3488 69.3434 91.6796 69.2114 92.6369 68.9242C92.6855 68.8128 92.765 68.657 92.7703 68.543L93.8225 64.3317Z" fill="#094752"/>
<path d="M84.0957 30H84.3168C85.4354 30.9001 101.731 29.8842 102.085 30.4634L102.279 30.4046L100.22 30.5892L100.225 30.6532C100.798 30.6882 103.139 30.7167 103.41 30.9193C102.435 31.1125 84.7525 31.1486 83.7762 30.9481L83.6838 30.8279L83.6826 30.9534L83.4573 30.8669L83.5557 30.8092L83.3927 30.7825C83.5664 30.5015 83.7104 30.7195 84.0957 30Z" fill="#094752"/>
<path d="M57.4437 30H57.6097C57.6984 30.0673 57.8106 30.1523 57.9461 30.2551C63.4729 30.1015 69.272 30.0872 74.776 30.114C76.1678 30.1207 78.8383 30.0373 79.4862 30.2897L80.1317 30.2336L79.99 31.032C73.5092 30.9878 67.0284 30.9846 60.5469 31.0223C60.0609 31.0286 58.5078 30.9874 58.1687 31.1781L58.0209 30.8759C57.4455 30.9766 57.6429 30.8901 57.1852 31.2884C57.186 30.9151 57.3477 30.3754 57.4437 30Z" fill="#094752"/>
<path d="M57.4437 30H57.6097C57.6984 30.0673 57.8106 30.1523 57.9461 30.2551C63.4729 30.1015 69.272 30.0872 74.776 30.114C76.1678 30.1207 78.8383 30.0373 79.4862 30.2897C78.0434 30.448 75.68 30.3661 74.1725 30.3576C71.1992 30.3357 68.2258 30.3293 65.2518 30.3383C63.8985 30.3436 61.2423 30.2648 60.0312 30.6809L60.4669 30.7722L60.5469 31.0223C60.0609 31.0286 58.5078 30.9874 58.1687 31.1781L58.0209 30.8759C57.4455 30.9766 57.6429 30.8901 57.1852 31.2884C57.186 30.9151 57.3477 30.3754 57.4437 30Z" fill="#094752"/>
<path d="M73.5536 63.4555C74.2922 63.4572 75.639 63.422 76.3219 63.5349L76.4671 64.3744C75.6692 64.4114 74.4582 64.3642 73.6306 64.3582L73.5536 63.4555Z" fill="#094752"/>
</svg>
