<svg width="287" height="104" viewBox="0 0 287 104" fill="none" xmlns="http://www.w3.org/2000/svg">
<path d="M102.232 22.2279C143.62 17.7594 147.337 80.4675 107.358 82.1736C68.3733 83.8324 64.6834 26.2834 102.232 22.2279ZM130.702 50.955H113.113V53.2366H128.407C127.493 75.8703 95.8479 83.0944 85.6854 62.6476C77.7437 46.6693 88.9217 28.626 106.992 29.6212V27.3464C83.4579 26.8792 71.4336 56.9401 90.6753 71.3815C108.075 84.4417 130.282 71.6658 130.695 50.9482L130.702 50.955ZM95.2995 39.6348C91.6908 40.6368 93.0449 46.6828 97.2697 45.5115C100.878 44.5095 99.5242 38.4635 95.2995 39.6348ZM106.992 39.5264H104.697V64.6584H112.341C112.977 61.8284 108.617 63.5684 106.992 63.1351V39.5264Z" fill="#F6D1C8"/>
<path d="M211 68.091C199.382 75.1661 179.145 74.2656 176.782 57.9894C175.475 49.005 176.66 37.3057 186.301 33.5954C193.878 30.6774 207.31 30.9347 210.993 39.5196L205.157 44.049C202.869 43.1621 202.32 41.2799 199.578 40.6232C179.26 35.762 181.603 70.894 201.738 63.0605L201.826 57.0416H194.934V49.4316H210.993V68.091H211Z" fill="#F6D1C8"/>
<path d="M157.466 32.6748V63.1419H175.821V71.517H148.292V32.6748H157.466Z" fill="#F6D1C8"/>
</svg>
