<svg width="281" height="60" viewBox="0 0 281 60" fill="none" xmlns="http://www.w3.org/2000/svg">
<path d="M16.4501 3.05984V31.3998C16.3801 33.0698 16.8801 34.6098 18.3801 35.6398C19.3501 36.3098 20.2101 36.4298 21.2801 36.4298H30.5701C31.5501 36.5498 32.5501 37.2998 32.9901 38.2098C33.4301 37.2998 34.3901 36.5398 35.3701 36.4298H44.6601C45.7301 36.4298 46.6001 36.3098 47.5701 35.6398C49.0701 34.6198 49.5701 33.0698 49.5001 31.3998V3.05984C49.5901 2.30984 50.1401 1.31984 51.1101 0.969843C51.3001 0.899843 51.6201 0.839844 51.6201 0.839844H14.3201C14.3201 0.839844 14.6401 0.899843 14.8301 0.969843C15.8001 1.31984 16.3301 2.30984 16.4401 3.05984M33.6601 28.4498C33.7601 27.4798 34.1201 26.5898 34.2701 25.6398C33.6901 25.0298 34.0601 24.0598 34.3401 23.4098C34.8801 22.2298 35.4701 21.0598 35.9501 19.8598C36.3301 19.4198 37.0301 19.4198 37.5601 19.5898C38.0601 19.7798 38.2601 20.2498 38.3001 20.7498C38.4301 21.6098 37.7901 22.2198 38.0701 23.0498C37.8301 22.9798 37.3701 23.0398 37.2101 22.6798C36.9101 22.4798 36.4501 22.6498 36.1801 22.3898C34.8101 22.4498 34.8101 23.9598 34.4001 24.8598C34.2901 24.9998 34.3301 25.2498 34.3601 25.4198C34.8601 25.5898 34.4301 26.0898 34.5001 26.4498C34.2001 27.1498 34.1601 27.9498 33.7401 28.5998C33.6101 28.6598 33.7301 28.4898 33.6401 28.4598M38.7301 25.0898C38.5701 25.0998 38.3901 25.0898 38.3201 24.9498C38.4601 24.6898 38.2101 24.3098 38.4301 24.1698C38.5001 23.9298 38.5001 23.3998 38.9401 23.6598C39.1101 23.8598 39.0301 24.1998 39.0001 24.4398C38.9201 24.6698 38.9301 24.9298 38.7301 25.0998M38.7001 26.4898L38.5301 26.4598C38.6001 26.1198 38.4901 25.6498 38.8001 25.4598C38.9701 25.7998 38.7901 26.1698 38.7001 26.4898ZM38.1901 25.9498C38.0801 26.1798 38.1301 26.4898 37.9201 26.6598L37.7501 26.6298C37.7901 26.1998 37.6601 25.6298 38.0501 25.3998C38.3801 25.3898 38.1501 25.7598 38.1901 25.9398M35.2001 24.8898C35.0401 24.6498 35.2001 24.3598 35.2001 24.0898L35.5701 23.0298C35.7101 22.9298 35.8301 22.7998 36.0301 22.8598C36.1501 22.9898 36.1001 23.2198 36.0601 23.3698L35.6201 24.8398C35.5101 24.9098 35.3201 25.0098 35.2101 24.8798M35.3801 26.0898C35.2201 26.7598 35.1801 27.4698 34.7701 28.0298C34.7001 28.0398 34.6401 28.0298 34.6001 27.9698C34.6101 27.0998 34.9701 26.3598 35.1901 25.5698C35.2301 25.4598 35.3501 25.5098 35.4201 25.4998C35.5901 25.6698 35.4201 25.8898 35.3901 26.0898M35.5801 27.0798L35.9701 25.6098C36.0601 25.4698 36.2401 25.4398 36.3801 25.5098C36.3501 26.1998 36.0401 26.8498 35.8701 27.5198C35.7801 27.5598 35.7301 27.6198 35.6301 27.5898C35.5201 27.4598 35.5601 27.2298 35.5901 27.0798M36.2601 24.8898C36.2901 24.2198 36.4601 23.6098 36.6501 23.0098C36.8101 22.9798 36.9801 23.0098 37.0201 23.1798C36.9501 23.7898 36.9201 24.4498 36.6501 24.9898C36.5201 25.0498 36.2801 25.0498 36.2601 24.8898ZM36.9201 25.5398L37.0601 25.4098C37.1801 25.3798 37.3001 25.4198 37.3301 25.5398C37.2201 26.1098 37.1601 26.6998 36.8401 27.1798C36.7801 27.2098 36.7401 27.2398 36.6701 27.2198C36.4301 26.6498 36.8701 26.1098 36.9101 25.5398M37.2601 24.9498C37.1701 24.6098 37.2901 24.2598 37.2901 23.9198L37.4301 23.4498C37.6201 23.3798 37.8401 23.4098 37.9701 23.5498C38.0001 24.0498 37.8101 24.4598 37.7401 24.9198C37.6101 25.0298 37.4001 25.0498 37.2501 24.9498M36.5001 30.9898H36.3701C36.5701 30.4898 36.8601 29.9198 37.3301 29.6198C37.3001 30.1298 36.9401 30.6298 36.5001 30.9898ZM37.9201 30.2998C37.8601 30.4098 37.7601 30.5398 37.6301 30.5998H37.5001C37.5101 30.1998 37.7401 29.8398 38.0401 29.5698C38.2401 29.7598 37.9701 30.0698 37.9101 30.2998M38.1201 29.1998C38.0201 29.2698 37.8601 29.3398 37.7501 29.2698C37.7501 28.8298 38.1201 28.5398 38.4901 28.3098C38.7301 28.2398 39.0801 28.0198 39.2901 28.3098C39.3301 28.3198 39.3501 28.2498 39.3901 28.2398C39.3801 28.0798 39.2601 27.9698 39.1501 27.8498C38.3501 27.7198 37.7501 28.3498 37.2401 28.9498L35.3101 31.7598C35.2101 32.1698 35.6801 32.0298 35.8201 32.2698C35.4101 32.1798 34.9301 32.2398 34.6901 32.6098C34.6101 32.4098 34.4901 32.0698 34.2001 32.0698C34.3701 31.9298 34.6401 32.0398 34.8301 31.9598C35.8901 30.5298 36.8301 29.0598 37.8401 27.6198C38.2001 27.2898 38.6201 27.0498 39.1401 27.2098C39.3701 27.2798 39.6301 27.4498 39.7301 27.6798C40.0901 28.5698 39.5601 29.3198 39.2401 30.0498C39.3101 29.8698 39.2701 29.6398 39.2801 29.4398C39.1801 29.2098 38.9401 29.1398 38.7201 29.2298C38.5501 29.2598 38.3201 29.0898 38.1101 29.1998M40.0001 21.1798C40.2701 21.0898 40.6601 21.2498 40.8901 21.0498C41.1601 21.1598 41.4601 21.2598 41.7501 21.2198C41.6801 21.5298 41.2501 21.4098 41.1801 21.7298V22.5398C41.0701 22.5398 40.9701 22.4298 40.8701 22.5098C40.7701 22.5698 40.8001 22.6698 40.7001 22.7098C40.5401 22.6498 40.4101 22.4098 40.2101 22.5398C40.1501 22.5698 40.1201 22.6398 40.0401 22.6098C40.0001 22.4498 40.1501 22.2498 40.0401 22.0698C39.8401 21.7698 39.5101 21.7798 39.1801 21.7998C39.5201 21.7298 39.8401 21.4898 40.0101 21.1698M39.8301 19.6398C40.0001 19.6798 40.1401 19.8698 40.3101 19.7798C40.6201 19.6398 40.3401 19.0698 40.8201 19.1698C40.9901 19.3598 40.8601 19.7298 41.1901 19.7798C41.4001 19.7898 41.6601 19.3898 41.7801 19.7098C41.7701 19.9398 41.6701 20.1198 41.5101 20.2898C40.9801 20.2298 40.3701 20.2498 39.9001 20.2898C39.8001 20.0998 39.6101 19.7998 39.8301 19.6298M38.8701 29.5498C38.9701 29.7898 38.8301 30.0098 38.7301 30.2098C38.6601 30.2398 38.5701 30.3198 38.4901 30.2398C38.5901 29.9998 38.5601 29.6098 38.8801 29.5498M43.4301 32.1198C42.8201 32.1598 42.5901 31.4598 42.1601 31.1198C42.0601 31.0298 41.9301 31.1598 41.8901 31.2598C42.1501 31.9698 42.8001 32.5298 43.2301 33.1698C42.8201 33.1798 42.4301 32.7398 42.1301 32.3898C41.8401 32.0798 41.8901 31.4998 41.4001 31.4098L41.3001 31.5098C41.3901 32.1198 41.4601 32.9198 41.2301 33.4898C41.0301 33.6198 40.9001 33.3798 40.8601 33.2198C40.7701 32.6398 40.7501 31.9898 40.7601 31.4098C40.7201 31.2898 40.6001 31.3498 40.5201 31.3398C40.1501 32.1098 39.8501 33.2698 38.8801 33.4698C39.2601 32.7998 39.7601 32.1798 40.0401 31.4698C40.0501 31.3598 40.0501 31.1998 39.9101 31.1698C39.5501 31.2998 39.5101 31.7398 39.1501 31.9498C38.9501 32.0498 38.7901 32.2498 38.5401 32.2198C38.6401 31.7798 39.0101 31.4398 39.1801 31.0198C39.6801 29.9198 40.8401 28.7898 40.1101 27.4898C39.2701 26.5298 39.2401 24.9298 39.6401 23.7498C39.8401 23.4598 39.9401 22.8698 40.4501 22.9698C40.5801 23.0698 40.7101 23.3298 40.8601 23.1398C40.9201 23.0098 41.0501 22.9398 41.2001 22.9698C41.3001 23.0698 41.3301 23.2798 41.5101 23.2398C41.5501 23.1498 41.6401 23.1798 41.7101 23.1798C42.3401 23.8898 42.2401 25.0198 42.2001 26.0198C42.1001 26.6798 41.8901 27.2898 41.5701 27.8598C41.3401 28.6598 41.8101 29.2398 42.1301 29.8598L43.4301 31.9698V32.1098V32.1198ZM42.6401 29.3798C42.8301 29.3798 42.8401 29.6398 42.8801 29.7898V30.0598C42.6701 30.1298 42.6401 29.8898 42.5701 29.7898C42.5701 29.6498 42.5601 29.4898 42.6401 29.3798ZM43.5701 30.3998C43.2901 30.1098 43.2101 29.7298 43.2901 29.3398C43.3901 29.3298 43.4801 29.4398 43.5001 29.5098C43.4901 29.8098 43.8401 30.1398 43.5701 30.3898M44.8001 30.8198C44.4701 30.9898 44.3101 30.5298 44.1901 30.3298C44.1001 30.0498 43.6901 29.6198 44.0501 29.3998C44.4301 29.6998 44.5301 30.1698 44.8301 30.5398L44.8001 30.8098V30.8198ZM46.3101 32.2598C46.1201 31.9698 45.8101 31.7298 45.4501 31.7498C45.6601 31.6298 45.6801 31.3298 45.6201 31.1198L43.7601 28.3498C43.3901 28.0798 43.0001 27.5698 42.5301 27.8598C42.4401 27.9298 42.4001 27.9998 42.4201 28.0998C42.5901 28.2798 42.7901 28.0398 42.9801 28.1698C43.3201 28.2798 43.5101 28.6598 43.5601 28.9998C43.3301 28.8998 43.0701 28.8598 42.8801 29.0298C42.6101 28.9298 42.2501 29.2398 42.1201 28.8898C42.0801 28.4598 41.8801 27.9198 42.1501 27.5198C42.5101 27.2298 42.9901 27.1598 43.4501 27.2498C43.7601 27.3698 43.9501 27.6898 44.1401 27.9398L46.0701 31.2398C46.2701 31.4698 46.5801 31.4498 46.8301 31.6398C46.6401 31.7098 46.3901 31.9998 46.3201 32.2698M45.8201 26.0198C46.0101 26.5198 46.2301 26.9898 46.2301 27.5598C46.1901 27.6498 46.0701 27.6498 46.0201 27.5898C45.6101 26.9298 45.4501 26.1598 45.1101 25.4598C45.1001 25.3298 45.1001 25.1598 45.2401 25.1198C45.6001 25.2598 45.6801 25.6998 45.8201 26.0198ZM45.4501 22.9398L45.6201 22.7998C46.2301 22.9898 46.2201 23.7298 46.4801 24.2098C46.5401 24.4098 46.3801 24.5698 46.2401 24.6498C46.1101 24.6898 46.0401 24.5798 45.9701 24.5098C45.8601 23.9698 45.4401 23.4998 45.4601 22.9398M45.3101 24.7198C45.2401 24.7798 45.1201 24.7398 45.0401 24.7498C44.8001 24.3398 44.7301 23.8498 44.5301 23.4098C44.5401 23.2798 44.6001 23.2098 44.7301 23.1398C45.2301 23.1698 45.1701 23.7798 45.4201 24.0998C45.4501 24.2998 45.5301 24.6298 45.3201 24.7298M44.9401 25.9798C45.0201 26.3498 45.1701 26.6998 45.2101 27.0798C44.9801 27.1098 44.9501 26.7798 44.8201 26.6398C44.7801 26.1798 44.3601 25.7998 44.5201 25.3398C44.7101 25.4698 44.8301 25.7498 44.9301 25.9798M44.2801 24.9198C43.5201 25.1098 43.7801 24.2098 43.5001 23.8598C43.4401 23.6598 43.6101 23.4898 43.7701 23.4498C44.3701 23.4398 44.2601 24.1498 44.4801 24.5098C44.5201 24.6498 44.4901 24.9098 44.2801 24.9198ZM44.3801 26.5598C44.3101 26.6598 44.2401 26.5498 44.1801 26.4898C44.0801 26.1598 43.9401 25.8498 43.9101 25.4998L43.9701 25.4298C44.2101 25.7298 44.3601 26.1498 44.3801 26.5598ZM43.6701 25.8098C43.7301 26.0398 43.8401 26.3098 43.7001 26.5398H43.6301C43.5201 26.1998 43.3601 25.8798 43.3301 25.5098C43.5401 25.4098 43.6001 25.6698 43.6701 25.8098ZM43.1601 25.1598C42.4701 25.1698 42.7601 24.3598 42.5701 23.9598C42.5401 23.8498 42.6101 23.7498 42.7101 23.7198C42.9401 23.5798 43.1101 23.8098 43.1801 23.9898C43.1701 24.3798 43.6801 24.9198 43.1501 25.1598M43.0801 26.5598C42.8201 26.6998 42.8801 26.3298 42.7701 26.2198C42.8001 25.9298 42.5701 25.6898 42.7101 25.4098C43.0001 25.3398 42.9801 25.7098 43.0801 25.8798C43.0901 26.1098 43.2101 26.3798 43.0801 26.5698M46.8801 27.7598C46.3201 27.0598 46.3101 26.1498 45.8501 25.3998C45.9301 25.3298 45.8201 25.1998 45.9601 25.1598C46.1301 25.0998 46.2601 25.2998 46.3001 25.4298C46.5301 26.1998 46.9301 26.8998 47.0101 27.7298C46.9801 27.7898 46.9201 27.7398 46.8701 27.7598M46.7501 25.4598C46.5801 24.9998 47.2101 24.8498 46.9901 24.3998C46.7301 23.6898 46.5601 22.8998 45.9201 22.4198C45.3601 22.1598 45.1201 22.8798 44.5501 22.7198C44.2101 23.2298 43.4901 22.8598 43.1101 23.2998C43.0401 23.0598 43.1101 22.7998 43.1801 22.5898C43.1201 21.6498 42.6901 20.6098 43.1501 19.7098L43.5201 19.4398C44.0801 19.1998 44.8601 19.2498 45.3101 19.7098C45.9101 20.6898 46.3101 21.7698 46.8201 22.7898C47.0801 23.4598 47.3801 24.2498 47.1601 24.9898C46.9301 25.4298 47.3001 25.7998 47.4301 26.1898C47.6301 26.8498 47.8701 27.4898 47.9401 28.1998C47.4701 27.3198 47.0601 26.4198 46.7401 25.4598M32.9901 1.44984H49.4701C48.8101 2.16984 48.7301 3.07984 48.7201 4.05984V18.4398H32.9801V1.44984H32.9901ZM18.7601 7.37984C18.6601 7.03984 18.8901 6.78984 19.1301 6.61984C19.3401 6.55984 19.5901 6.61984 19.7601 6.44984C19.6801 6.05984 19.5601 5.48984 19.9901 5.21984C20.1201 5.18984 20.2901 5.27984 20.3801 5.14984C20.2801 4.85984 20.3901 4.57984 20.5501 4.35984C20.8601 4.14984 21.4401 4.14984 21.4101 3.59984C21.5001 3.42984 21.6701 3.33984 21.8501 3.32984C22.2201 3.21984 22.7101 3.75984 22.7301 3.08984C23.2301 2.38984 24.1301 3.01984 24.8301 2.81984C25.2901 2.94984 25.2901 3.47984 25.5401 3.74984C25.9001 3.38984 26.3201 3.13984 26.8401 3.30984C27.1101 3.40984 27.4801 3.50984 27.5701 3.84984C27.6101 3.93984 27.5801 4.05984 27.7001 4.11984C27.9401 4.01984 28.1601 3.77984 28.4601 3.91984C28.9001 4.10984 28.9701 4.54984 28.9701 4.97984C29.2001 5.01984 29.4701 4.86984 29.6601 5.11984C29.8201 5.31984 29.3501 5.67984 29.8001 5.72984C29.9301 5.76984 29.9701 5.95984 29.9001 6.06984C30.0401 6.20984 30.3401 6.22984 30.3401 6.47984C30.5301 6.93984 29.9801 7.27984 30.3401 7.63984C30.4101 7.80984 30.2101 7.96984 30.3801 8.09984C30.5901 8.02984 30.7201 8.19984 30.8901 8.26984C31.0201 8.45984 31.0601 8.73984 30.9901 8.97984C31.0801 9.53984 29.9301 9.41984 30.5501 9.97984C30.5801 10.2398 30.3901 10.4598 30.1601 10.5498C29.9901 10.6398 29.8601 10.4098 29.7501 10.5498C29.7601 10.9798 29.5401 11.3898 29.1401 11.5498C28.8401 11.5798 28.4701 11.6898 28.1801 11.5498L27.7401 11.0398C27.4401 11.3598 27.0301 11.4498 26.6101 11.3598C25.8401 11.0698 26.5701 10.0298 25.8501 9.69984C25.2101 9.53984 24.7201 10.1998 24.3801 10.6298L24.2101 10.5998C23.6701 9.92984 23.4501 9.12984 23.0701 8.39984C22.9901 8.38984 22.8901 8.39984 22.8701 8.48984C22.9901 9.40984 23.5501 10.1598 24.0701 10.8998C24.1801 10.9998 24.2801 11.1998 24.4401 11.0698C24.8001 10.6798 25.0501 10.2298 25.5801 10.1098C25.7801 10.3798 25.7701 10.7798 25.7101 11.1098C24.8201 11.9498 25.2701 13.3898 25.2001 14.5398C25.3601 15.7498 25.2401 17.0798 25.9601 18.0598C25.5201 18.2898 24.9601 18.1198 24.5901 17.8598C24.2201 17.8198 23.9501 18.1998 23.5301 18.1598C23.4001 18.0698 23.2001 18.1998 23.1201 18.0598C24.1301 17.1798 23.7501 15.6498 23.8301 14.4598C23.5001 13.2298 24.1601 11.6098 23.0201 10.7198C22.7101 10.1198 22.3801 9.48984 22.2101 8.81984C22.1501 8.73984 22.0601 8.73984 21.9501 8.73984C21.7401 8.94984 21.8201 9.31984 21.5101 9.46984C21.0401 9.75984 20.7401 8.89984 20.3401 9.39984C20.1401 9.40984 19.9501 9.29984 19.8701 9.12984C19.8301 9.06984 19.8401 8.99984 19.7701 8.95984C19.6701 8.91984 19.6601 9.01984 19.6001 9.05984C19.5701 9.34984 19.7301 9.59984 19.9701 9.74984C20.1801 9.78984 20.3601 9.81984 20.5601 9.70984C20.7001 9.33984 20.9701 9.69984 21.1701 9.67984L22.0301 9.64984C22.3301 10.3798 22.6701 11.1098 23.1601 11.7598C23.1901 11.9498 23.1601 12.1598 22.9601 12.1698C22.5901 11.7698 22.5701 12.4598 22.2301 12.4398C22.0001 12.4798 21.8201 12.3998 21.6601 12.2698L21.3501 11.8698C21.1201 11.8998 20.7801 11.9598 20.6601 11.7298C20.6001 11.6198 20.6301 11.4698 20.5901 11.3598C20.3601 11.3498 20.0601 11.4298 19.8301 11.2498C19.4701 11.0498 19.8901 10.3098 19.2601 10.4398C18.9001 10.2998 18.6601 9.92984 18.6801 9.53984C18.7101 9.24984 18.8101 8.80984 18.4101 8.72984C18.1701 8.25984 18.3501 7.63984 18.7801 7.38984M17.1501 18.6898H33.0001V37.0998C32.3601 36.1698 31.0401 35.6398 29.8001 35.7798H20.4001C18.9001 35.5298 17.5701 34.2398 17.2501 32.8598L17.1501 31.8798V18.6798V18.6898Z" fill="#F6D1C8"/>
<path d="M21.9101 31.2897L25.0101 29.1397L28.0901 31.2897C27.7701 30.0797 27.3301 28.9197 27.1001 27.6697C28.0101 26.9297 29.9001 25.4697 29.9001 25.4697H26.3501C25.8701 24.3597 25.5001 23.0897 24.9901 21.9897C24.4801 23.0897 24.1301 24.3697 23.6501 25.4797H20.1001C20.1001 25.4797 21.9801 26.9297 22.9001 27.6697C22.6701 28.9297 22.2501 30.0497 21.9201 31.2897" fill="#F6D1C8"/>
<path d="M64.9101 28.5498C64.5801 27.9198 63.9301 27.3798 63.1501 27.4698C63.4901 26.4998 63.5801 25.1398 63.0901 24.2398C62.4001 24.8198 62.7901 25.9698 61.9501 26.3998C61.5901 26.4998 61.2401 26.3998 60.9901 26.0998C60.8601 25.7998 60.8201 25.4298 60.8901 25.0998C61.3801 23.2598 62.3701 20.6998 60.9601 18.9998L60.7901 19.7598C60.6501 20.1598 60.5601 20.6898 60.1301 20.8898C60.0901 20.8298 60.0201 20.7798 60.0001 20.7198C60.0701 19.6398 59.9401 18.6398 59.4101 17.8098C59.3201 17.5798 59.4401 17.2798 59.3101 17.0798C59.0501 17.2898 58.6701 17.4798 58.7301 17.8798C58.6701 18.2198 58.7701 18.6198 58.5901 18.9098C58.2901 18.6698 58.2301 18.3198 58.1201 18.0098C57.8501 16.8998 58.1901 15.8398 59.0301 15.1398C58.5601 14.9998 58.0201 15.0998 57.6001 15.2698C57.2601 15.3998 56.9401 15.6798 56.6001 15.7098C56.5901 14.8398 56.2601 14.0698 55.6701 13.4598C55.7601 14.1698 55.5001 14.7898 54.9601 15.1998C54.3901 14.9398 54.1301 14.3098 54.0001 13.7698C53.8601 13.2298 54.0901 12.6898 54.2001 12.2898C53.7301 12.3798 53.5701 12.8898 53.4201 13.2598C53.3301 13.3998 53.4501 13.6498 53.3201 13.7698C53.1901 13.7698 53.1501 13.6098 53.0401 13.5998C53.1401 15.2398 53.4401 16.8098 54.1101 18.2298C54.3001 18.8698 55.1101 19.1698 55.3801 19.7998C55.4801 19.9598 55.3501 20.1398 55.2101 20.2098C54.3401 20.0498 53.4501 20.2698 52.7401 20.6798C52.7801 20.7798 55.2501 22.0198 56.0901 23.0798C57.3301 24.1898 58.2501 25.6798 57.6001 27.2998C57.3901 27.6298 57.0601 27.9398 56.6301 27.8698C56.2501 27.8798 55.9201 27.5098 55.7401 27.1798C55.6801 26.9198 55.6501 26.5698 55.9401 26.4398C56.3401 26.2398 56.5701 26.6498 56.9101 26.7098C56.8501 26.2098 56.5201 25.7498 56.0801 25.4698C55.5401 25.0898 54.7701 25.2398 54.1701 25.2998C53.7701 24.7998 53.7701 24.0398 53.8901 23.4198H53.7901C52.8101 23.6198 52.7801 24.6798 52.5901 25.4498C52.4301 25.8498 52.0601 25.4198 51.7301 25.5498C51.1901 25.7098 50.6601 26.1998 50.3601 26.6798C51.6701 26.7498 52.8301 27.1798 53.7901 28.0898C54.8001 29.2698 56.0001 30.7298 55.2601 32.2998C55.0501 32.6298 54.7301 32.8598 54.3501 32.8398C54.0501 32.8398 53.8601 32.5698 53.7601 32.3298C53.5301 31.8698 53.8601 31.4698 54.0001 31.0698L53.5401 31.0298C52.7801 31.2698 52.4801 32.1198 52.3401 32.8098C51.6001 32.8198 50.9401 32.4198 50.2801 32.1298C50.6701 32.9398 51.1701 33.6998 51.7601 34.4298C51.8501 34.5998 51.6301 34.7398 51.5201 34.8698C51.1501 35.4798 50.7901 36.2698 51.1101 36.9998C51.3101 36.9298 51.3501 36.6598 51.5201 36.5098C51.7201 36.2498 52.0901 36.2998 52.3801 36.3398C52.6401 36.5098 52.8401 36.7698 52.7901 37.0998C52.7601 37.4398 52.4901 37.7898 52.1601 37.9298C51.6001 38.0698 50.8201 38.1298 50.4201 37.5898C50.0501 37.1898 50.2101 36.5798 50.3201 36.1098C49.4901 36.3698 48.8501 37.1898 48.5101 37.9398C48.0101 37.6498 47.5101 37.2998 46.9701 37.2598L47.2001 37.5298C47.9701 38.8698 48.0101 40.9598 47.0301 42.1798C46.7901 41.4398 46.0001 40.7098 45.1901 40.6798C44.5201 40.6698 43.8501 40.8798 43.5001 41.4698C43.8201 41.3698 44.2001 41.2598 44.5301 41.3998C44.7701 41.5598 45.0101 41.7398 45.1101 42.0098C45.2801 42.4998 45.0001 42.8698 44.6701 43.1798C44.0401 43.6798 43.3701 43.1098 42.7401 43.0098C42.3801 42.9698 41.9701 42.7798 41.6501 42.9098L42.0501 43.3498C42.3201 43.7898 42.3601 44.4298 42.0901 44.8898C41.8301 45.2498 41.5501 45.7298 41.0201 45.6498C40.5301 45.2398 40.3601 44.6498 40.3101 44.0398C39.3701 44.9198 39.6001 46.3998 39.0901 47.5198C37.6301 49.2298 35.9301 51.1698 34.1201 52.4298C33.9101 52.1598 34.0801 51.7998 34.1901 51.5298C34.4901 51.0898 34.9301 50.8298 35.4601 50.8498C35.3701 50.5898 35.0601 50.4898 34.8001 50.4498H34.1901C34.1201 50.1798 34.4301 49.9598 34.6301 49.7898C34.8901 49.6298 35.2301 49.6598 35.4901 49.5198C35.1501 49.1198 34.5501 48.9598 34.0201 49.1298C33.9101 49.1998 33.7601 49.2898 33.6401 49.2398C33.7801 48.8598 34.0201 48.5098 34.2701 48.1698C34.6401 47.6398 35.0701 47.0998 35.6001 46.6698C35.8001 46.6998 35.9301 46.8698 36.0101 47.0398C36.1101 47.2698 35.8201 47.4198 35.9801 47.5798C36.1701 47.6098 36.3401 47.4398 36.3801 47.2798L36.5201 46.7698C38.0301 46.6298 38.9001 45.1098 39.8001 44.0298C40.1701 43.4398 40.5401 42.7898 40.2901 42.0498C40.1301 41.5798 39.6301 41.2198 39.1901 41.0798C37.6501 40.8198 36.6501 42.5798 35.8101 43.5898C35.4501 44.1798 35.0201 44.7498 35.1501 45.5298C34.8501 45.5698 34.5701 45.6898 34.3901 45.9898C34.4201 46.0798 34.3201 46.0998 34.3601 46.1898C34.5701 46.1798 34.8701 46.0498 35.0701 46.2898C34.6001 46.8998 33.9801 47.5498 33.4301 48.0398C33.3901 47.0498 33.2301 46.1098 33.2901 45.0898C33.5001 44.9898 33.6901 45.2498 33.8001 45.3998C33.8701 45.4398 33.7901 45.5698 33.9101 45.5698C34.1401 45.5798 34.1201 45.3298 34.2101 45.1798C34.2501 44.8698 34.0801 44.6398 34.0101 44.3698C34.9501 43.2098 35.1201 41.4398 34.5201 40.0898C34.1701 39.5098 33.5801 39.1198 32.9201 39.1098C32.2601 39.1298 31.6701 39.5098 31.3201 40.0898C30.7201 41.4498 30.8901 43.2198 31.8301 44.3698C31.7601 44.6398 31.5901 44.8698 31.6301 45.1798C31.7201 45.3198 31.7001 45.5798 31.9301 45.5698C32.0601 45.5698 31.9701 45.4398 32.0401 45.3998C32.1501 45.2398 32.3401 44.9898 32.5501 45.0898C32.6101 46.1198 32.4501 47.0598 32.4101 48.0398C31.8501 47.5398 31.2401 46.8998 30.7701 46.2898C30.9701 46.0498 31.2701 46.1798 31.4801 46.1898C31.5201 46.0998 31.4201 46.0798 31.4501 45.9898C31.2801 45.6898 30.9901 45.5798 30.6901 45.5298C30.8201 44.7498 30.3901 44.1698 30.0301 43.5898C29.1901 42.5798 28.1901 40.8198 26.6501 41.0798C26.2101 41.2198 25.7101 41.5798 25.5501 42.0498C25.2901 42.7898 25.6601 43.4498 26.0401 44.0298C26.9401 45.1098 27.8101 46.6298 29.3201 46.7698L29.4601 47.2798C29.5001 47.4398 29.6701 47.6098 29.8601 47.5798C30.0201 47.4198 29.7301 47.2698 29.8301 47.0398C29.9201 46.8698 30.0401 46.6998 30.2401 46.6698C30.7701 47.0998 31.2001 47.6398 31.5701 48.1698C31.8101 48.5098 32.0601 48.8598 32.2001 49.2398C32.0701 49.2798 31.9301 49.1998 31.8101 49.1298C31.2801 48.9598 30.6801 49.1198 30.3401 49.5198C30.6001 49.6598 30.9401 49.6298 31.2001 49.7898C31.4001 49.9598 31.7101 50.1698 31.6401 50.4498H31.0301C30.7701 50.4898 30.4601 50.5898 30.3701 50.8498C30.9001 50.8398 31.3401 51.0898 31.6401 51.5298C31.7501 51.7998 31.9301 52.1598 31.7101 52.4298C29.9001 51.1698 28.2301 49.3498 26.7701 47.6298C26.3001 46.4998 26.3801 45.1398 25.6401 44.1298C25.5701 44.1398 25.5401 43.9898 25.4701 44.0998C25.4101 44.7298 25.2801 45.4698 24.6601 45.6998C24.1001 45.6598 23.7601 45.0398 23.5901 44.6098C23.4201 43.9398 23.6901 43.3798 24.2001 42.9498C23.3001 42.8598 22.5601 43.3798 21.6701 43.4398C21.2401 43.3798 20.9001 43.0698 20.7101 42.6798C20.5701 42.2698 20.7701 41.9098 21.0501 41.6198C21.3901 41.3498 21.8901 41.4098 22.2801 41.5498V41.4098C21.8701 40.8998 21.2501 40.7198 20.5701 40.7698C19.7601 40.8598 19.0101 41.5098 18.7601 42.2698C17.7501 41.0598 17.8801 39.0698 18.5201 37.7198C18.6101 37.5898 18.7301 37.4598 18.7901 37.3098C18.5901 37.2498 17.5901 37.9398 17.2201 37.9998C16.8601 37.2698 16.2201 36.3898 15.3601 36.2298C15.3601 36.3898 15.4901 36.4898 15.5001 36.6298C15.6101 37.1398 15.4901 37.6098 15.0601 37.9398C14.7501 38.1998 14.2601 38.1498 13.8601 38.1098C13.4701 38.0998 13.0901 37.7798 12.9601 37.4298C12.8701 37.1298 12.9501 36.8198 13.1701 36.5998C13.3101 36.4898 13.5001 36.4698 13.6801 36.4298C13.9701 36.4198 14.1701 36.6298 14.3701 36.8398C14.4401 36.9398 14.4701 37.1298 14.6001 37.1398C14.6601 37.1098 14.6601 37.0598 14.7101 37.0098C14.8701 36.1198 14.5101 35.2998 13.9101 34.6398C14.4401 33.9098 15.3901 32.2398 15.3901 32.2398C14.8901 32.5398 14.3601 32.7398 13.8101 32.8998C12.9801 33.2398 13.3801 32.1598 13.0001 31.8698C12.7001 31.4598 12.3001 31.0298 11.7301 31.1398C11.4901 31.3098 11.8901 31.5098 11.9001 31.7198C11.9901 32.1498 11.9301 32.6298 11.5601 32.8898C11.3901 32.9998 11.1201 32.9798 10.9501 32.8898C10.3101 32.5798 10.1201 31.8898 10.1501 31.2098C10.4401 30.2498 10.8301 29.3298 11.5601 28.5398C12.5901 27.4298 13.9701 26.7398 15.3601 26.8998C15.1601 26.6098 14.9201 26.3398 14.6801 26.0698C14.2801 25.6998 13.6801 25.4798 13.1401 25.7298C12.9501 24.9898 12.9001 24.1598 12.2101 23.6498C12.0201 23.4798 11.7701 23.5198 11.5701 23.5798L11.7401 23.9198C11.8701 24.4498 11.8401 25.0798 11.5001 25.4898C10.8901 25.3198 10.1201 25.2298 9.54012 25.5598C9.11012 25.8698 8.66012 26.3198 8.66012 26.8598C8.85012 26.8598 8.99012 26.7498 9.13012 26.6298C9.36012 26.5398 9.62012 26.4598 9.79012 26.6898C9.99012 26.9798 9.88012 27.2498 9.76012 27.5198C9.50012 27.8898 9.20012 28.0898 8.73012 27.9998C8.19012 27.8998 7.97012 27.2998 7.83012 26.8598C7.66012 25.6298 8.14012 24.5898 9.00012 23.7498C10.0301 22.4598 12.8801 20.9898 12.8701 20.7698C12.1601 20.2998 10.2301 20.1898 10.2301 20.1898C10.1901 19.5598 10.9301 19.2598 11.2601 18.7598C12.0901 17.2298 12.5001 15.4798 12.5001 13.6798L12.1901 13.7898C12.1601 13.2598 12.0001 12.6598 11.4301 12.4798C11.7601 13.5098 11.5201 14.6498 10.6701 15.3298C10.0901 14.9698 9.74012 14.2198 9.86012 13.5498C9.53012 13.9198 9.25012 14.3098 9.10012 14.7498C8.91012 15.0598 9.04012 15.4898 8.86012 15.8098C8.10012 15.4798 7.35012 14.9798 6.43012 15.2198C6.77012 15.5898 7.17012 15.9998 7.32012 16.4898C7.66012 17.2998 7.48012 18.3298 6.95012 18.9898C6.74012 18.3898 7.02012 17.5498 6.29012 17.1798C6.29012 17.1798 6.15012 17.5898 6.12012 17.7898C5.61012 18.6898 5.41012 19.6998 5.51012 20.8398C5.48012 20.9098 5.41012 21.0298 5.31012 20.9798C4.80012 20.4698 4.75012 19.7098 4.55012 19.0498C3.49012 20.4198 3.78012 22.5698 4.31012 24.0898C4.51012 24.7798 4.97012 25.6598 4.45012 26.3498C2.81012 27.3098 3.28012 24.9498 2.49012 24.3398C2.01012 25.3098 2.08012 26.5698 2.42012 27.5998C2.29012 27.7298 2.08012 27.6398 1.91012 27.6698C0.970117 27.8598 0.550117 28.8698 0.370117 29.6798C0.710117 29.6698 0.930117 29.3198 1.26012 29.3098C2.89012 28.8698 4.77012 29.2098 5.79012 30.6098C6.15012 31.1498 6.16012 32.0098 5.83012 32.5598C5.64012 32.8598 5.33012 32.9998 5.00012 33.0298C4.16012 33.0598 3.53012 31.6598 3.53012 31.6598C3.50012 32.0498 3.57012 32.3998 3.60012 32.7598C3.79012 34.1298 4.74012 35.5998 6.13012 36.0598C6.73012 36.4998 7.31012 37.0998 7.16012 37.8698C7.03012 38.0398 6.83012 38.1798 6.62012 38.0698C6.15012 37.9298 5.79012 37.0098 5.79012 37.0098C5.32012 37.6798 5.22012 38.8098 5.62012 39.5398C5.15012 40.4298 4.93012 41.6198 5.28012 42.6198C5.37012 42.7498 5.39012 42.9798 5.55012 42.9598C5.78012 41.9998 6.39012 40.9298 7.41012 40.5598C8.55012 39.9798 10.2201 40.1498 11.2101 40.9498C11.4801 41.2098 11.5701 41.6398 11.4201 41.9798C10.9901 42.7098 9.89012 42.5798 9.15012 42.4898C9.24012 42.9898 9.61012 43.3898 9.95012 43.7898C9.48012 44.4198 9.27012 45.2298 9.47012 46.0498L10.3501 45.2598C11.3101 44.6298 12.4601 44.1998 13.6501 44.4498C13.9901 44.6398 14.2601 44.9798 14.1901 45.4098C14.2201 45.9798 13.5601 46.0498 13.2601 46.4398C13.0701 46.6698 12.9701 47.0098 13.0301 47.2498C13.9001 46.9798 14.7601 46.6898 15.7001 46.5598C17.0701 46.4698 18.9001 46.1398 19.7401 47.4198C19.8501 47.8798 19.6001 48.2598 19.3001 48.5898C19.0301 48.8798 18.6701 48.9298 18.3701 49.1298C18.3801 49.2398 18.4401 49.3298 18.5401 49.4198C19.2001 49.9598 20.2901 49.8498 21.0101 49.5198C21.2501 49.9798 20.8401 50.4498 20.8401 50.8898C21.6101 50.9298 22.2701 50.6198 22.7201 49.9898C23.5501 50.7998 24.4901 51.2998 25.6301 51.3598C25.7701 51.0698 25.5001 50.7498 25.5901 50.4498C25.6901 50.4198 25.7501 50.4798 25.8301 50.4798C27.4301 51.5398 29.0101 53.1198 29.7701 54.8298C29.3801 54.9398 28.9801 55.0198 28.7101 55.3698C28.6001 55.5798 28.4101 55.8298 28.5401 56.0998C28.7501 56.0898 28.9001 55.8998 29.0801 55.8198C29.7701 55.7498 30.2101 56.5498 30.5901 57.0198C31.0001 57.6598 29.9301 57.3098 29.9001 57.8198C30.3701 58.1298 30.7901 58.6498 30.9601 59.1898C31.0001 59.3598 31.0001 59.5498 31.1001 59.7098H34.7701C34.9101 59.3498 35.0101 58.9698 35.2101 58.6398C35.3801 58.2698 35.7701 58.0398 35.9901 57.7098C35.7801 57.4498 35.4301 57.4798 35.1601 57.3398C35.3901 56.7698 35.8301 56.1798 36.4001 55.8298C36.7001 55.6398 37.0601 56.0298 37.3601 56.0398C37.4001 55.8098 37.3001 55.6398 37.2201 55.4498C36.9801 55.0098 36.5301 54.9098 36.0901 54.8598C36.6201 53.6998 37.4201 52.6298 38.4201 51.7098C39.0201 51.2398 39.5501 50.6098 40.2501 50.3798C40.3901 50.6698 40.1101 50.9798 40.1801 51.2698C41.3201 51.2098 42.2901 50.7298 43.1201 49.8998C43.6101 50.4798 44.2901 50.9098 45.0501 50.7298C44.9401 50.3398 44.6801 50.0198 44.7401 49.5598C44.7801 49.4298 44.9301 49.5198 45.0101 49.4898C45.7501 49.7498 46.8501 49.8298 47.4101 49.1498C47.4501 48.8798 47.0001 48.8598 46.8001 48.7098C46.3701 48.3798 46.0101 47.9698 46.0101 47.4398C46.5501 46.3098 48.1101 46.3298 49.1601 46.3798C50.4301 46.4498 51.6201 46.7098 52.7601 47.1398C52.9501 46.0698 51.4501 46.1598 51.5601 45.1098C51.5601 44.7498 51.9201 44.4098 52.2501 44.2998C53.8601 44.0998 55.1901 44.8698 56.2901 45.9698C56.3701 45.3598 56.3001 44.7298 56.0801 44.1898C55.9901 43.9998 55.7701 43.8198 55.8101 43.6198C56.1901 43.2598 56.4701 42.8198 56.5401 42.3798C56.4101 42.4198 56.2701 42.3898 56.1501 42.4498C55.4801 42.4398 54.5401 42.5798 54.2701 41.7898C54.1301 41.3798 54.3401 41.0198 54.6101 40.7398C55.4801 40.2498 56.5401 39.9398 57.5901 40.2198C58.8501 40.4498 59.8701 41.6298 60.1601 42.8198H60.2301C60.5301 42.3198 60.5201 41.6398 60.5001 41.0498C60.4401 40.4398 60.2301 39.9098 60.0101 39.3698C60.4801 38.6298 60.1801 37.6098 59.8101 36.9398C59.6501 37.2998 59.5401 37.8298 59.0501 37.9998C58.8201 38.1098 58.5801 37.9698 58.4701 37.7598C58.3301 36.9998 58.9101 36.3898 59.5001 35.9498C60.8001 35.4898 61.7701 34.1198 61.9701 32.8398C61.9601 32.3998 62.1601 31.9298 61.9401 31.5298C61.6001 31.8998 61.5801 32.3898 61.2101 32.7298C60.9401 32.9698 60.4401 33.0198 60.1301 32.8398C59.8201 32.6398 59.6401 32.3298 59.5701 32.0098C59.4401 31.3098 59.5801 30.5498 60.1601 30.0498C61.3001 29.0398 63.0401 28.6398 64.5101 29.2398C64.7201 29.2998 64.9201 29.5298 65.1501 29.4398L64.8501 28.6098L64.9101 28.5498Z" fill="#F6D1C8"/>
<path d="M42.3501 7.97975C41.8701 6.86975 41.5001 5.58975 40.9901 4.48975C40.4801 5.58975 40.1301 6.86975 39.6501 7.97975H36.1001C36.1001 7.97975 37.9901 9.42975 38.9001 10.1697C38.6701 11.4297 38.2501 12.5497 37.9201 13.7897L41.0201 11.6397L44.1001 13.7897C43.7801 12.5797 43.3401 11.4197 43.1201 10.1697C44.0301 9.42975 45.9201 7.96975 45.9201 7.96975H42.3701L42.3501 7.97975Z" fill="#F6D1C8"/>
<path d="M22.8701 8.48995C22.6001 8.46995 22.4201 8.70995 22.2001 8.81995C22.4301 8.69995 22.5901 8.47995 22.8701 8.48995Z" fill="#F6D1C8"/>
<path d="M21.3001 7.12987C21.6101 7.16987 22.0401 7.25987 22.2601 6.92987C22.5601 6.61987 22.7501 7.19987 23.0701 7.09987C23.6301 7.15987 23.3701 6.31987 23.9701 6.51987C24.2701 6.48987 24.5701 6.21987 24.6801 5.92987C24.4801 5.41987 25.0401 5.22987 24.9901 4.72987C24.9501 4.56987 24.8001 4.32987 24.6001 4.42987C24.6001 4.45987 24.6001 4.51987 24.6401 4.52987C24.7701 4.68987 24.7001 4.93987 24.5701 5.06987C24.1701 5.16987 24.4801 5.67987 24.3001 5.92987C24.1601 6.62987 23.3301 5.98987 23.2701 6.55987C23.1801 6.75987 22.9701 6.94987 22.7101 6.85987C22.3301 6.27987 22.0501 7.18987 21.5501 6.92987C21.3801 6.86987 21.1901 6.76987 21.1101 6.61987C20.9701 6.48987 21.1201 6.10987 20.8201 6.14987C20.7301 6.22987 20.7101 6.34987 20.7201 6.48987C20.7601 6.75987 21.0101 7.04987 21.2801 7.12987" fill="#F6D1C8"/>
<path d="M25.6101 9.01983C25.6201 8.23983 26.5501 8.67983 26.8401 8.05983C27.0401 7.91983 26.9701 7.61983 26.9801 7.44983C26.8701 7.03983 27.1401 6.68983 27.1501 6.27983C27.1401 6.07983 26.9401 6.03983 26.7801 6.10983C26.7901 6.30983 26.8701 6.47983 26.8401 6.68983C26.4401 7.08983 26.9301 7.71983 26.5701 8.12983C26.2601 8.42983 25.5701 8.19983 25.5101 8.73983C25.4201 8.86983 25.3501 9.12983 25.1201 9.07983C25.2601 9.10983 25.5101 9.18983 25.6101 9.00983" fill="#F6D1C8"/>
<path d="M27.4201 5.28982C27.5501 5.12982 27.5801 4.94982 27.5601 4.72982C27.5001 4.62982 27.4601 4.42982 27.2901 4.45982C27.1301 4.65982 27.3801 4.83982 27.3201 5.06982C27.2201 5.30982 26.9901 5.29982 26.8401 5.44982C27.0301 5.64982 27.2201 5.30982 27.4201 5.27982" fill="#F6D1C8"/>
<path d="M28.3801 8.15993C28.8801 8.74993 29.3501 7.92993 29.9201 8.19993C29.8801 8.06993 29.7301 8.10993 29.6201 8.08993C29.3201 7.72993 29.0801 8.21993 28.7201 8.15993C28.5601 8.12993 28.5201 7.95993 28.4201 7.85993C28.2801 7.74993 28.2101 7.96993 28.1101 8.02993C27.9501 8.18993 27.6401 8.12993 27.5701 8.32993C27.8601 8.51993 28.1301 8.25993 28.3801 8.15993Z" fill="#F6D1C8"/>
<path d="M26.6701 5.48991C26.6101 5.47991 26.5601 5.38991 26.4701 5.41991C26.3301 5.54991 26.3401 5.82991 26.4401 5.97991C26.6101 5.91991 26.5101 5.61991 26.6701 5.48991Z" fill="#F6D1C8"/>
<path d="M40.4101 21.81C40.4801 21.78 40.5801 21.7 40.5801 21.64C40.4901 21.55 40.3901 21.5099 40.2701 21.5299C40.1701 21.5399 40.0701 21.64 40.0701 21.74C40.1101 21.87 40.3001 21.78 40.4101 21.81Z" fill="#F6D1C8"/>
<path fill-rule="evenodd" clip-rule="evenodd" d="M209.89 49.5598C209.89 49.3698 209.9 49.2398 209.91 49.0698C209.85 48.9598 209.72 49.0498 209.65 49.0698C206.91 51.0098 204.1 52.9198 200.52 52.7198C199.99 52.5398 199.44 52.2598 199.15 51.7098C198.47 50.3798 199.28 48.2098 199.26 48.1698C196.54 49.8698 193.83 51.5998 190.86 52.6598C190.55 52.5898 189.76 53.0798 189.91 52.4598C195.93 49.3798 201.91 44.9098 207.01 39.6898C208.33 39.6898 211.27 39.7098 211.21 39.6898C208.54 42.3598 204.22 46.7098 201.62 49.4398C201.23 49.8598 200.63 50.3698 200.87 51.0198C201.79 51.9698 203.38 51.3898 204.3 50.9798C207.4 49.2898 210.66 46.9198 212.91 44.1198C215.5 41.4998 218.93 39.7298 222.46 39.1998C223.62 39.1098 224.73 39.4398 225.36 40.4298C225.4 40.5198 225.4 40.6298 225.51 40.6898C225.95 40.6498 226.56 40.0198 226.88 39.6798C228.22 39.6798 229.5 39.6798 230.75 39.6798C229.97 40.7798 223.81 47.7198 221.56 50.2698C221.34 50.4798 221.39 50.7598 221.52 50.9698C221.98 51.2298 222.32 51.2798 222.83 51.1898C225.31 50.9198 227.06 48.9398 228.94 47.2698C231.69 44.3498 234.63 41.0098 238.06 39.2898C239.17 38.8698 240.77 38.7098 241.75 39.4398C242.58 40.1498 242.54 41.2198 242.81 42.1498C243.73 41.9498 244.47 40.9998 245.19 40.4998C245.78 40.0798 246.35 39.8098 246.84 39.6198C248.03 39.1598 249.7 38.8498 250.84 39.6598C251.77 40.6498 251.81 42.1298 251.37 43.3598C251.19 43.7298 251.03 44.1298 250.73 44.4098C248.85 46.4198 246.93 48.4098 245.04 50.4298C244.8 50.6898 244.53 50.9598 244.62 51.3798C245.26 51.9498 246.09 51.4198 246.73 51.2198C248.82 50.3598 250.68 48.8198 252.42 47.1898C254.99 42.7998 259.61 39.8898 264.4 39.1698C265.57 39.0798 266.66 39.4098 267.3 40.3998C267.35 40.4898 267.35 40.5998 267.45 40.6598C267.89 40.6198 268.5 39.9898 268.82 39.6498C270.15 39.6498 271.44 39.6498 272.69 39.6498C271.92 40.7498 265.75 47.6898 263.5 50.2398C263.28 50.4498 263.32 50.7298 263.46 50.9398C263.92 51.1998 264.63 51.0698 265.13 50.9798C270.82 49.0698 275.37 43.8598 279.7 39.2198C279.92 38.9798 280.25 38.8198 280.53 38.8898C280.66 39.2598 280.35 39.5898 280.16 39.8998C275.93 45.1798 270.71 50.5598 264.6 52.7198C263.39 53.0098 261.87 52.9898 261.08 51.9298C260.69 51.5998 260.88 50.9798 260.44 50.9398C258.68 52.2198 256.59 52.8598 254.26 52.6098C253.23 52.3898 252.11 51.4498 251.93 50.3398C251.95 50.0098 251.91 49.6998 251.77 49.4398C249.18 51.2398 246.56 53.1398 243.13 52.7198C242.68 52.6998 242.1 51.8798 242.01 51.2898C241.77 49.7898 243.06 48.7998 243.92 47.6998C245.88 45.7298 247.77 43.7298 249.62 41.7098C249.86 41.4098 249.73 41.0298 249.66 40.7398C249.46 40.2998 249 40.2498 248.6 40.1698C247.08 40.1498 245.98 41.1798 244.87 42.1298C241.51 45.6698 238.14 48.8998 234.84 52.4598C233.52 52.4598 230.45 52.4998 230.41 52.4598C233.23 49.4898 236.65 46.3898 239.33 43.2998C239.95 42.5998 240.85 41.7698 240.7 40.4398C240.35 39.8498 239.62 40.0498 239.07 40.0698C235.79 41.2798 233.08 44.5398 230.63 47.0398C228.99 48.8898 227.15 50.6498 225.12 51.6898C224.31 52.1698 223.5 52.4498 222.66 52.7398C221.45 53.0298 219.93 53.0098 219.14 51.9498C218.75 51.6198 218.94 50.9998 218.5 50.9598C216.75 52.2398 214.66 52.8798 212.33 52.6298C211.3 52.4098 210.17 51.4698 210 50.3598C210 50.3598 209.88 49.8598 209.88 49.5298M215.36 45.4498C217.21 43.3398 219.29 41.6198 221.62 40.6298C222.32 40.4098 223.36 40.3198 223.91 40.9598C224.14 41.3098 224.39 41.7298 224.22 42.2098C223.74 43.4198 222.68 44.3598 221.73 45.3798C219.07 47.9198 216.7 52.0798 212.61 51.5598C212.3 51.4898 212.1 51.2498 211.97 50.9898C211.71 49.2898 213.96 47.0298 215.36 45.4498ZM257.29 45.4498C259.13 43.3398 261.22 41.6198 263.55 40.6298C264.26 40.4098 265.29 40.3198 265.84 40.9598C266.06 41.3098 266.32 41.7298 266.15 42.2098C265.67 43.4198 264.61 44.3598 263.66 45.3798C261 47.9198 258.62 52.0798 254.54 51.5598C254.23 51.4898 254.04 51.2498 253.91 50.9898C253.65 49.2898 255.9 47.0298 257.3 45.4498M212.23 33.4098C212.89 33.0998 213.64 32.6998 214.45 32.9898C214.93 33.1698 215.26 33.5498 215.4 33.8898C215.62 35.0998 215.18 36.2398 214.15 36.9498C213.45 37.5398 212.22 37.5898 211.45 37.1698C211.14 36.8798 210.96 36.8498 210.81 36.1598C210.74 35.0198 211.36 34.0298 212.24 33.4098M173.25 42.1798C173.69 42.0498 174.18 42.1598 174.5 42.4398C175.29 43.4098 175.05 44.9298 174.5 45.9198C174.15 46.6498 173.46 47.1898 172.76 47.5598C173.6 49.7598 175.95 50.7298 178.19 50.7298C191.1 50.5498 198.28 36.5098 205.47 27.7198C209.27 22.2298 213.41 16.8598 218.13 11.7398C211.78 7.84984 202.77 9.58984 196.73 12.9198C190.91 15.8498 185.28 20.5198 181.1 26.0998C179.89 27.8998 178.84 30.2998 179.89 32.5398C181.23 34.8698 183.94 35.2498 186.48 35.0698C196.27 33.5098 205.29 24.7798 209.27 15.7398C209.73 14.4698 210.13 13.1798 210.48 11.8598H210.52C210.52 16.2098 208.35 19.8198 206.15 23.3498C201.73 29.8598 195.25 35.7298 187.53 36.5798C184.15 36.9098 180.95 35.9898 178.98 33.2098C177.66 30.3398 178.58 26.8198 180.04 24.2898C186.02 15.2598 195.51 10.2698 205.47 8.61984C210.26 7.91984 215.1 8.47984 219.03 10.7898C219.07 10.7898 227.42 2.44984 233.39 1.33984C233.48 1.35984 233.62 1.29984 233.68 1.40984V1.44984C229.03 3.42984 224.7 6.43984 220.99 10.4198C220.72 10.8298 220.04 11.1398 220.24 11.6898C223.52 14.6098 225.44 18.8598 223.93 23.1798C222.9 26.2898 219.98 29.2998 216.66 29.7898C215.12 29.9398 213.53 29.5198 212.81 28.0498C211.82 25.6798 213.22 23.3698 214.85 21.6198C216.41 20.1698 218.19 19.1998 220.35 19.1698C220.57 19.2398 220.88 19.2598 220.92 19.4998C220.25 19.4898 219.29 19.7598 218.61 20.2298C216.15 21.6098 213.62 24.2298 213.75 27.1898C213.88 27.8498 214.59 28.4498 215.23 28.5798C216.53 28.7098 217.42 27.9798 218.35 27.1498C221.85 24.0398 223.47 19.9398 221.78 15.6498C221.25 14.4898 220.38 13.2598 219.23 12.5798C215.06 17.0998 209.93 27.1098 209.84 27.0798C207.69 30.7698 205.51 34.4698 202.52 37.8098C197.35 44.1798 190.79 48.4398 183.8 51.0398C180.48 52.0298 175.93 52.5098 173.07 50.1398C171.4 48.5798 170.52 46.2998 171.4 44.0798C171.69 43.2198 172.41 42.5398 173.24 42.1898M143.14 46.8898C145.6 43.9798 148.7 41.4098 152.15 40.4198C152.76 40.2198 153.51 40.3298 154.1 40.5298C154.61 40.8198 154.78 41.3398 154.85 41.8498C154.83 42.2198 154.89 42.6398 154.63 42.8598C153.64 42.9898 152.75 43.7198 152.21 44.5998C151.88 45.2198 151.73 45.8998 151.73 46.6798C149.88 48.6398 147.62 50.1198 145.29 51.1998C144.23 51.6398 142.7 51.7698 141.71 51.0898C141.25 50.7398 141.07 50.1598 141.23 49.6098C141.62 48.5998 142.41 47.7398 143.14 46.8898ZM109.64 49.1198C111.57 46.7298 113.77 44.3098 116.13 42.2198C117.78 40.7498 119.93 39.5798 122.09 40.2598C122.55 40.5198 122.73 40.9598 122.77 41.4298C122.68 41.8298 122.77 42.2898 122.57 42.6398C121.34 43.0098 120.06 44.2198 119.78 45.4998C119.67 45.8098 119.74 46.2698 119.71 46.5598C117.34 48.6998 114.94 50.7998 111.95 51.4998C110.96 51.6098 109.8 51.5398 109.23 50.6698C109.12 50.1198 109.34 49.5898 109.64 49.1298M118.92 13.8598C122.55 10.0398 126.46 6.56984 131.8 6.91984C132.7 7.15984 133.82 7.57984 134.11 8.60984C134.66 10.9598 132.97 12.6598 131.7 14.3598C125.39 21.3998 117.63 25.4198 109.69 28.7698C109.1 28.9498 108.44 29.1898 107.85 29.2598C111 23.8698 114.73 18.7698 118.93 13.8598M67.5501 50.1298C71.1801 48.6998 75.5001 49.5598 78.9301 50.8098C77.7901 51.3998 76.3801 51.6198 74.9701 51.6698C72.7701 51.9298 70.2001 52.0698 68.0001 51.5598C67.6501 51.3798 67.2101 51.2898 67.0101 50.8798C66.8301 50.4798 67.3001 50.2598 67.5401 50.1298M65.9701 49.7198C69.6901 47.4098 74.9201 48.2898 79.2001 48.7698C80.2801 48.9498 81.3801 49.0398 82.4101 49.2998C83.6801 48.9498 84.7801 48.1298 85.9501 47.5398C87.9701 46.2698 89.9101 44.7498 91.8201 43.1698C91.9101 43.2098 94.6601 40.2498 94.7201 40.1498C96.5901 37.8498 98.3701 35.4698 100.08 33.0998V32.9398C97.9001 33.0298 95.8201 33.1698 93.3501 32.8298C90.3001 32.4198 87.7501 31.1198 85.2201 28.7198C81.9101 25.5498 82.4501 20.2798 84.1001 17.6898C87.2201 12.8798 91.1801 10.1098 97.1101 7.74984C99.5901 6.75984 102.43 6.23984 103.72 5.96984C107.57 5.43984 112.01 4.90984 115.85 5.80984C115.94 5.85984 115.89 5.93984 115.89 6.02984C115.85 6.13984 115.71 6.08984 115.63 6.17984C104.55 5.40984 94.1801 8.23984 87.3601 17.2498C85.5401 19.8698 84.1301 23.7098 85.9301 26.7898C89.4001 31.7098 96.0401 32.3498 101.56 30.9598C102.62 29.8798 103.41 28.5698 104.35 27.3898C109.89 20.3098 116.33 12.4998 123.98 7.68984C126.82 6.14984 130.64 4.61984 133.89 6.36984C135.3 7.35984 135.78 8.95984 135.41 10.5898C133.34 16.6598 126.88 20.8998 121.8 24.2598C116.86 27.2998 111.58 29.6098 106.13 31.4198C100.81 39.1298 92.8801 44.9498 85.2501 49.4698C85.2501 49.6298 85.4301 49.6298 85.5101 49.6898C89.4201 50.0198 93.6601 50.1698 97.5301 49.9498C101.73 49.3998 105.66 48.2098 108.94 45.4698C111.73 41.6398 115.69 38.5898 120.48 38.6198C121.82 38.7198 123.34 39.1598 123.8 40.6098C124.15 41.7598 123.63 42.9398 123.65 44.1498C123.63 44.2998 123.5 44.4298 123.54 44.6098C123.71 44.8498 123.98 44.6298 124.18 44.6098C126.36 43.2398 128.38 41.4898 130.36 39.6598C130.42 38.2198 130.65 36.6798 132.05 35.9098C132.34 35.8698 132.62 35.6498 132.95 35.8198C133.26 35.8598 133.5 36.1698 133.57 36.4998C133.64 37.8198 132.58 38.6798 131.83 39.6598C133.13 40.3698 135.39 39.5698 135.79 41.5598C136.03 43.9798 133.96 45.4998 132.47 47.1998C131.22 48.4498 129.75 49.7098 128.63 51.0498C128.45 51.3498 128.66 51.7698 128.94 51.7898C131.16 52.2898 133.82 50.9098 135.91 49.7198C138.28 48.0498 140.24 45.6998 142.28 43.5398C145.39 40.2698 149.45 38.2098 154.06 39.1598C154.88 39.4498 155.73 40.2398 155.95 41.1198C156.41 42.5098 155.53 43.6498 155.68 44.9698C155.97 45.2098 156.25 45.0298 156.52 44.9298C159.99 41.8498 163.07 38.2098 165.98 34.7498C166.24 34.6598 166.33 34.8798 166.4 35.0598C165.81 36.3998 164.79 37.5698 163.91 38.7898C161.12 41.8998 158.44 45.9898 154.53 47.4098C153.83 47.7398 153.39 47.4298 152.84 47.5598C150.01 50.1698 147.02 52.4398 143.26 52.8798C141.77 53.0298 140.52 52.4598 139.72 51.1398C139.21 50.2998 139.3 48.6498 139.24 48.6498C136.67 50.8498 133.81 52.3498 130.53 52.8798C129.15 53.0798 127.63 52.8398 126.9 51.6298C126 47.7098 130.35 45.4298 132.74 42.9698C133.12 42.3798 134.15 42.1098 133.91 41.3398C132.99 40.9898 131.95 40.9198 130.94 40.8098C129.71 41.4698 128.74 42.8098 127.58 43.6498C125.82 45.0798 124.02 46.3398 121.97 47.0698C120.52 46.7798 119.95 48.5698 118.87 49.1398C115.92 51.3398 112.38 54.0498 108.58 52.2498C107.17 51.4298 107.22 49.6998 107.41 48.2398C107.37 48.1998 107.34 48.1698 107.3 48.1298C105.15 49.1198 103.08 50.3298 100.78 50.9298C94.8401 52.5998 87.6101 52.9998 81.5301 51.4098C77.5501 52.9498 72.8001 53.4098 68.2701 52.7698C67.2201 52.4798 65.7501 52.3298 65.4401 51.0298C65.4201 50.4998 65.6001 50.0398 65.9701 49.6598" fill="#F6D1C8"/>
</svg>
