<svg width="287" height="103" viewBox="0 0 287 103" fill="none" xmlns="http://www.w3.org/2000/svg">
<g clip-path="url(#clip0_11216_606)">
<mask id="mask0_11216_606" style="mask-type:luminance" maskUnits="userSpaceOnUse" x="27" y="26" width="234" height="50">
<path d="M261 26H27V76H261V26Z" fill="white"/>
</mask>
<g mask="url(#mask0_11216_606)">
<path d="M40.6985 28.5499V52.1665C40.6402 53.5582 41.0566 54.8415 42.3057 55.6999C43.1135 56.2582 43.8296 56.3582 44.7207 56.3582H52.4568C53.2729 56.4582 54.1057 57.0832 54.4721 57.8415C54.8385 57.0832 55.6379 56.4499 56.454 56.3582H64.1901C65.0812 56.3582 65.8057 56.2582 66.6134 55.6999C67.8625 54.8499 68.2789 53.5582 68.2206 52.1665V28.5499C68.2956 27.9249 68.7536 27.0999 69.5613 26.8082C69.7195 26.7499 69.986 26.6999 69.986 26.6999H38.9248C38.9248 26.6999 39.1913 26.7499 39.3495 26.8082C40.1573 27.0999 40.5986 27.9249 40.6902 28.5499M55.03 49.7082C55.1133 48.8999 55.4131 48.1582 55.538 47.3665C55.055 46.8582 55.3631 46.0499 55.5963 45.5082C56.0459 44.5249 56.5373 43.5499 56.937 42.5499C57.2534 42.1832 57.8363 42.1832 58.2777 42.3249C58.6941 42.4832 58.8606 42.8749 58.8939 43.2915C59.0022 44.0082 58.4692 44.5165 58.7024 45.2082C58.5025 45.1499 58.1195 45.1999 57.9862 44.8999C57.7364 44.7332 57.3533 44.8749 57.1285 44.6582C55.9877 44.7082 55.9877 45.9665 55.6462 46.7165C55.5546 46.8332 55.5879 47.0415 55.6129 47.1832C56.0293 47.3249 55.6712 47.7415 55.7295 48.0415C55.4797 48.6249 55.4464 49.2915 55.0966 49.8332C54.9884 49.8832 55.0883 49.7415 55.0133 49.7165M59.252 46.9082C59.1188 46.9165 58.9689 46.9082 58.9106 46.7915C59.0272 46.5749 58.819 46.2582 59.0022 46.1415C59.0605 45.9415 59.0605 45.4999 59.4269 45.7165C59.5684 45.8832 59.5018 46.1665 59.4768 46.3665C59.4102 46.5582 59.4185 46.7749 59.252 46.9165M59.227 48.0749L59.0854 48.0499C59.1437 47.7665 59.0521 47.3749 59.3103 47.2165C59.4518 47.4999 59.302 47.8082 59.227 48.0749ZM58.8023 47.6249C58.7107 47.8165 58.7524 48.0749 58.5775 48.2165L58.4359 48.1915C58.4692 47.8332 58.361 47.3582 58.6857 47.1665C58.9605 47.1582 58.769 47.4665 58.8023 47.6165M56.3124 46.7415C56.1792 46.5415 56.3124 46.2999 56.3124 46.0749L56.6205 45.1915C56.7371 45.1082 56.837 44.9999 57.0036 45.0499C57.1035 45.1582 57.0619 45.3499 57.0286 45.4749L56.6622 46.6999C56.5706 46.7582 56.4123 46.8415 56.3207 46.7332M56.4623 47.7415C56.3291 48.2999 56.2958 48.8915 55.9543 49.3582C55.8961 49.3665 55.8461 49.3582 55.8128 49.3082C55.8211 48.5832 56.1209 47.9665 56.3041 47.3082C56.3374 47.2165 56.4373 47.2582 56.4956 47.2499C56.6372 47.3915 56.4956 47.5749 56.4706 47.7415M56.6289 48.5665L56.9536 47.3415C57.0286 47.2249 57.1785 47.1999 57.2951 47.2582C57.2701 47.8332 57.0119 48.3749 56.8704 48.9332C56.7954 48.9665 56.7538 49.0165 56.6705 48.9915C56.5789 48.8832 56.6122 48.6915 56.6372 48.5665M57.1951 46.7415C57.2201 46.1832 57.3617 45.6749 57.5199 45.1749C57.6531 45.1499 57.7947 45.1749 57.828 45.3165C57.7697 45.8249 57.7447 46.3749 57.5199 46.8249C57.4116 46.8749 57.2118 46.8749 57.1951 46.7415ZM57.7447 47.2832L57.8613 47.1749C57.9612 47.1499 58.0612 47.1832 58.0862 47.2832C57.9946 47.7582 57.9446 48.2499 57.6781 48.6499C57.6281 48.6749 57.5948 48.6999 57.5365 48.6832C57.3367 48.2082 57.7031 47.7582 57.7364 47.2832M58.0279 46.7915C57.9529 46.5082 58.0528 46.2165 58.0528 45.9332L58.1694 45.5415C58.3277 45.4832 58.5109 45.5082 58.6191 45.6249C58.6441 46.0415 58.4859 46.3832 58.4276 46.7665C58.3193 46.8582 58.1444 46.8749 58.0195 46.7915M57.395 51.8249H57.2867C57.4533 51.4082 57.6948 50.9332 58.0862 50.6832C58.0612 51.1082 57.7614 51.5249 57.395 51.8249ZM58.5775 51.2499C58.5275 51.3415 58.4442 51.4499 58.336 51.4999H58.2277C58.236 51.1665 58.4276 50.8665 58.6774 50.6415C58.844 50.7999 58.6191 51.0582 58.5691 51.2499M58.744 50.3332C58.6607 50.3915 58.5275 50.4499 58.4359 50.3915C58.4359 50.0249 58.744 49.7832 59.0521 49.5915C59.252 49.5332 59.5435 49.3499 59.7183 49.5915C59.7516 49.5999 59.7683 49.5415 59.8016 49.5332C59.7933 49.3999 59.6933 49.3082 59.6017 49.2082C58.9356 49.0999 58.4359 49.6249 58.0112 50.1249L56.404 52.4665C56.3207 52.8082 56.7121 52.6915 56.8287 52.8915C56.4873 52.8165 56.0876 52.8665 55.8877 53.1749C55.8211 53.0082 55.7212 52.7249 55.4797 52.7249C55.6212 52.6082 55.8461 52.6999 56.0043 52.6332C56.887 51.4415 57.6698 50.2165 58.5109 49.0165C58.8106 48.7415 59.1604 48.5415 59.5934 48.6749C59.7849 48.7332 60.0015 48.8749 60.0847 49.0665C60.3845 49.8082 59.9432 50.4332 59.6767 51.0415C59.735 50.8915 59.7017 50.6999 59.71 50.5332C59.6267 50.3415 59.4269 50.2832 59.2437 50.3582C59.1021 50.3832 58.9106 50.2415 58.7357 50.3332M60.3096 43.6499C60.5344 43.5749 60.8592 43.7082 61.0507 43.5415C61.2756 43.6332 61.5254 43.7165 61.7669 43.6832C61.7086 43.9415 61.3505 43.8415 61.2922 44.1082V44.7832C61.2006 44.7832 61.1173 44.6915 61.0341 44.7582C60.9508 44.8082 60.9758 44.8915 60.8925 44.9249C60.7593 44.8749 60.651 44.6749 60.4844 44.7832C60.4345 44.8082 60.4095 44.8665 60.3429 44.8415C60.3096 44.7082 60.4345 44.5415 60.3429 44.3915C60.1763 44.1415 59.9015 44.1499 59.6267 44.1665C59.9099 44.1082 60.1763 43.9082 60.3179 43.6415M60.168 42.3665C60.3096 42.3999 60.4262 42.5582 60.5677 42.4832C60.8259 42.3665 60.5927 41.8915 60.9924 41.9749C61.134 42.1332 61.0257 42.4415 61.3005 42.4832C61.4754 42.4915 61.6919 42.1582 61.7919 42.4249C61.7835 42.6165 61.7003 42.7665 61.567 42.9082C61.1257 42.8582 60.6177 42.8749 60.2263 42.9082C60.143 42.7499 59.9848 42.4999 60.168 42.3582M59.3686 50.6249C59.4518 50.8249 59.3353 51.0082 59.252 51.1749C59.1937 51.1999 59.1188 51.2665 59.0521 51.1999C59.1354 50.9999 59.1104 50.6749 59.3769 50.6249M63.1659 52.7665C62.6579 52.7999 62.4664 52.2165 62.1083 51.9332C62.025 51.8582 61.9168 51.9665 61.8835 52.0499C62.1 52.6415 62.6412 53.1082 62.9993 53.6415C62.6579 53.6499 62.3331 53.2832 62.0833 52.9915C61.8418 52.7332 61.8835 52.2499 61.4754 52.1749L61.3921 52.2582C61.4671 52.7665 61.5254 53.4332 61.3338 53.9082C61.1673 54.0165 61.059 53.8165 61.0257 53.6832C60.9508 53.1999 60.9341 52.6582 60.9425 52.1749C60.9091 52.0749 60.8092 52.1249 60.7426 52.1165C60.4345 52.7582 60.1847 53.7249 59.3769 53.8915C59.6933 53.3332 60.1097 52.8165 60.3429 52.2249C60.3512 52.1332 60.3512 51.9999 60.2346 51.9749C59.9348 52.0832 59.9015 52.4499 59.6017 52.6249C59.4352 52.7082 59.302 52.8749 59.0938 52.8499C59.177 52.4832 59.4852 52.1999 59.6267 51.8499C60.0431 50.9332 61.0091 49.9915 60.4012 48.9082C59.7017 48.1082 59.6767 46.7749 60.0098 45.7915C60.1763 45.5499 60.2596 45.0582 60.6843 45.1415C60.7926 45.2249 60.9008 45.4415 61.0257 45.2832C61.0757 45.1749 61.184 45.1165 61.3089 45.1415C61.3921 45.2249 61.4171 45.3999 61.567 45.3665C61.6003 45.2915 61.6753 45.3165 61.7336 45.3165C62.2582 45.9082 62.1749 46.8499 62.1416 47.6832C62.0583 48.2332 61.8835 48.7415 61.617 49.2165C61.4254 49.8832 61.8168 50.3665 62.0833 50.8832L63.1659 52.6415V52.7582V52.7665ZM62.508 50.4832C62.6662 50.4832 62.6746 50.6999 62.7079 50.8249V51.0499C62.533 51.1082 62.508 50.9082 62.4497 50.8249C62.4497 50.7082 62.4414 50.5749 62.508 50.4832ZM63.2825 51.3332C63.0493 51.0915 62.9827 50.7749 63.0493 50.4499C63.1326 50.4415 63.2075 50.5332 63.2242 50.5915C63.2158 50.8415 63.5073 51.1165 63.2825 51.3249M64.3067 51.6832C64.0319 51.8249 63.8987 51.4415 63.7988 51.2749C63.7238 51.0415 63.3824 50.6832 63.6822 50.4999C63.9986 50.7499 64.0819 51.1415 64.3317 51.4499L64.3067 51.6749V51.6832ZM65.5642 52.8832C65.4059 52.6415 65.1478 52.4415 64.848 52.4582C65.0229 52.3582 65.0395 52.1082 64.9896 51.9332L63.4407 49.6249C63.1326 49.3999 62.8078 48.9749 62.4164 49.2165C62.3415 49.2749 62.3082 49.3332 62.3248 49.4165C62.4664 49.5665 62.6329 49.3665 62.7911 49.4749C63.0743 49.5665 63.2325 49.8832 63.2741 50.1665C63.0826 50.0832 62.8661 50.0499 62.7079 50.1915C62.483 50.1082 62.1832 50.3665 62.075 50.0749C62.0417 49.7165 61.8751 49.2665 62.1 48.9332C62.3998 48.6915 62.7995 48.6332 63.1825 48.7082C63.4407 48.8082 63.5989 49.0749 63.7571 49.2832L65.3643 52.0332C65.5309 52.2249 65.789 52.2082 65.9972 52.3665C65.839 52.4249 65.6308 52.6665 65.5725 52.8915M65.1561 47.6832C65.3143 48.0999 65.4975 48.4915 65.4975 48.9665C65.4642 49.0415 65.3643 49.0415 65.3227 48.9915C64.9812 48.4415 64.848 47.7999 64.5649 47.2165C64.5565 47.1082 64.5565 46.9665 64.6731 46.9332C64.9729 47.0499 65.0395 47.4165 65.1561 47.6832ZM64.848 45.1165L64.9896 44.9999C65.4975 45.1582 65.4892 45.7749 65.7057 46.1749C65.7557 46.3415 65.6225 46.4749 65.5059 46.5415C65.3976 46.5749 65.3393 46.4832 65.281 46.4249C65.1894 45.9749 64.8397 45.5832 64.8563 45.1165M64.7314 46.5999C64.6731 46.6499 64.5732 46.6165 64.5066 46.6249C64.3067 46.2832 64.2484 45.8749 64.0819 45.5082C64.0902 45.3999 64.1402 45.3415 64.2484 45.2832C64.6648 45.3082 64.6148 45.8165 64.823 46.0832C64.848 46.2499 64.9146 46.5249 64.7398 46.6082M64.4233 47.6499C64.4899 47.9582 64.6148 48.2499 64.6481 48.5665C64.4566 48.5915 64.4316 48.3165 64.3234 48.1999C64.2901 47.8165 63.9403 47.4999 64.0736 47.1165C64.2318 47.2249 64.3317 47.4582 64.415 47.6499M63.8737 46.7665C63.2408 46.9249 63.4573 46.1749 63.2242 45.8832C63.1742 45.7165 63.3158 45.5749 63.449 45.5415C63.9486 45.5332 63.857 46.1249 64.0402 46.4249C64.0736 46.5415 64.0486 46.7582 63.8737 46.7665ZM63.957 48.1332C63.8987 48.2165 63.8404 48.1249 63.7904 48.0749C63.7072 47.7999 63.5906 47.5415 63.5656 47.2499L63.6156 47.1915C63.8154 47.4415 63.9403 47.7915 63.957 48.1332ZM63.3657 47.5082C63.4157 47.6999 63.5073 47.9249 63.3907 48.1165H63.3324C63.2408 47.8332 63.1076 47.5665 63.0826 47.2582C63.2575 47.1749 63.3074 47.3915 63.3657 47.5082ZM62.941 46.9665C62.3664 46.9749 62.6079 46.2999 62.4497 45.9665C62.4247 45.8749 62.483 45.7915 62.5663 45.7665C62.7578 45.6499 62.8994 45.8415 62.9577 45.9915C62.9494 46.3165 63.3741 46.7665 62.9327 46.9665M62.8744 48.1332C62.6579 48.2499 62.7079 47.9415 62.6163 47.8499C62.6412 47.6082 62.4497 47.4082 62.5663 47.1749C62.8078 47.1165 62.7911 47.4249 62.8744 47.5665C62.8827 47.7582 62.9827 47.9832 62.8744 48.1415M66.0388 49.1332C65.5725 48.5499 65.5642 47.7915 65.1811 47.1665C65.2477 47.1082 65.1561 46.9999 65.2727 46.9665C65.4143 46.9165 65.5225 47.0832 65.5558 47.1915C65.7474 47.8332 66.0805 48.4165 66.1471 49.1082C66.1221 49.1582 66.0721 49.1165 66.0305 49.1332M65.9306 47.2165C65.789 46.8332 66.3136 46.7082 66.1304 46.3332C65.9139 45.7415 65.7724 45.0832 65.2394 44.6832C64.7731 44.4665 64.5732 45.0665 64.0985 44.9332C63.8154 45.3582 63.2158 45.0499 62.8994 45.4165C62.8411 45.2165 62.8994 44.9999 62.9577 44.8249C62.9077 44.0415 62.5496 43.1749 62.9327 42.4249L63.2408 42.1999C63.7072 41.9999 64.3567 42.0415 64.7314 42.4249C65.2311 43.2415 65.5642 44.1415 65.9889 44.9915C66.2054 45.5499 66.4552 46.2082 66.272 46.8249C66.0805 47.1915 66.3886 47.4999 66.4968 47.8249C66.6634 48.3749 66.8632 48.9082 66.9215 49.4999C66.5301 48.7665 66.1887 48.0165 65.9222 47.2165M54.4721 27.2082H68.1956C67.646 27.8082 67.5794 28.5666 67.5711 29.3832V41.3665H54.4637V27.2082H54.4721ZM42.6222 32.1499C42.5389 31.8666 42.7304 31.6582 42.9303 31.5166C43.1052 31.4666 43.3133 31.5166 43.4549 31.3749C43.3883 31.0499 43.2884 30.5749 43.6464 30.3499C43.7547 30.3249 43.8963 30.3999 43.9712 30.2916C43.8879 30.0499 43.9795 29.8166 44.1128 29.6332C44.3709 29.4582 44.8539 29.4582 44.8289 28.9999C44.9039 28.8582 45.0454 28.7832 45.1953 28.7749C45.5035 28.6832 45.9115 29.1332 45.9282 28.5749C46.3445 27.9916 47.094 28.5166 47.6769 28.3499C48.06 28.4582 48.06 28.8999 48.2681 29.1249C48.5679 28.8249 48.9177 28.6166 49.3507 28.7582C49.5756 28.8416 49.8837 28.9249 49.9586 29.2082C49.9919 29.2832 49.9669 29.3832 50.0669 29.4332C50.2667 29.3499 50.4499 29.1499 50.6998 29.2666C51.0662 29.4249 51.1244 29.7916 51.1244 30.1499C51.316 30.1832 51.5408 30.0582 51.699 30.2666C51.8323 30.4332 51.4409 30.7332 51.8156 30.7749C51.9239 30.8082 51.9572 30.9666 51.8989 31.0582C52.0155 31.1749 52.2653 31.1916 52.2653 31.3999C52.4235 31.7832 51.9655 32.0666 52.2653 32.3666C52.3236 32.5082 52.157 32.6416 52.2986 32.7499C52.4735 32.6916 52.5817 32.8332 52.7233 32.8916C52.8316 33.0499 52.8649 33.2832 52.8066 33.4832C52.8815 33.9499 51.9239 33.8499 52.4402 34.3166C52.4652 34.5332 52.3069 34.7165 52.1154 34.7915C51.9738 34.8665 51.8656 34.6749 51.774 34.7915C51.7823 35.1499 51.5991 35.4915 51.266 35.6249C51.0162 35.6499 50.7081 35.7415 50.4666 35.6249L50.1002 35.1999C49.8504 35.4665 49.5089 35.5415 49.1592 35.4665C48.518 35.2249 49.1259 34.3582 48.5263 34.0832C47.9933 33.9499 47.5853 34.4999 47.3022 34.8582L47.1606 34.8332C46.7109 34.2749 46.5277 33.6082 46.2113 32.9999C46.1447 32.9916 46.0614 32.9999 46.0447 33.0749C46.1447 33.8416 46.611 34.4665 47.044 35.0832C47.1356 35.1665 47.2189 35.3332 47.3521 35.2249C47.6519 34.8999 47.8601 34.5249 48.3015 34.4249C48.468 34.6499 48.4597 34.9832 48.4097 35.2582C47.6686 35.9582 48.0433 37.1582 47.985 38.1165C48.1183 39.1249 48.0183 40.2332 48.6179 41.0499C48.2515 41.2415 47.7852 41.0999 47.477 40.8832C47.1689 40.8499 46.9441 41.1665 46.5943 41.1332C46.4861 41.0582 46.3195 41.1665 46.2529 41.0499C47.094 40.3165 46.7775 39.0415 46.8442 38.0499C46.5694 37.0249 47.119 35.6749 46.1696 34.9332C45.9115 34.4332 45.6367 33.9082 45.4951 33.3499C45.4452 33.2832 45.3702 33.2832 45.2786 33.2832C45.1037 33.4582 45.1704 33.7666 44.9122 33.8916C44.5208 34.1332 44.271 33.4166 43.9379 33.8332C43.7714 33.8416 43.6131 33.7499 43.5465 33.6082C43.5132 33.5582 43.5215 33.4999 43.4632 33.4666C43.38 33.4332 43.3716 33.5166 43.3217 33.5499C43.2967 33.7916 43.4299 33.9999 43.6298 34.1249C43.8047 34.1582 43.9546 34.1832 44.1211 34.0916C44.2377 33.7832 44.4625 34.0832 44.6291 34.0666L45.3452 34.0416C45.5951 34.6499 45.8782 35.2582 46.2862 35.7999C46.3112 35.9582 46.2862 36.1332 46.1197 36.1415C45.8116 35.8082 45.7949 36.3832 45.5118 36.3665C45.3202 36.3999 45.1704 36.3332 45.0371 36.2249L44.779 35.8915C44.5874 35.9165 44.3043 35.9665 44.2044 35.7749C44.1544 35.6832 44.1794 35.5582 44.1461 35.4665C43.9546 35.4582 43.7047 35.5249 43.5132 35.3749C43.2134 35.2082 43.5632 34.5915 43.0385 34.6999C42.7388 34.5832 42.5389 34.2749 42.5556 33.9499C42.5805 33.7082 42.6638 33.3416 42.3307 33.2749C42.1309 32.8832 42.2807 32.3666 42.6388 32.1582M41.2815 41.5749H54.4804V56.9165C53.9474 56.1415 52.8482 55.6999 51.8156 55.8165H43.9879C42.7388 55.6082 41.6312 54.5332 41.3647 53.3832L41.2815 52.5665V41.5665V41.5749Z" fill="#094752"/>
<path d="M45.2453 52.0748L47.8268 50.2831L50.3916 52.0748C50.1252 51.0664 49.7587 50.0998 49.5672 49.0581C50.325 48.4414 51.8989 47.2248 51.8989 47.2248H48.9427C48.5429 46.2998 48.2348 45.2414 47.8101 44.3248C47.3854 45.2414 47.094 46.3081 46.6943 47.2331H43.738C43.738 47.2331 45.3036 48.4414 46.0697 49.0581C45.8782 50.1081 45.5284 51.0414 45.2536 52.0748" fill="#094752"/>
<path d="M81.0531 49.7915C80.7783 49.2665 80.2371 48.8165 79.5875 48.8915C79.8707 48.0832 79.9456 46.9498 79.5376 46.1998C78.963 46.6832 79.2877 47.6415 78.5882 47.9998C78.2884 48.0832 77.997 47.9999 77.7888 47.7499C77.6805 47.4999 77.6472 47.1915 77.7055 46.9165C78.1136 45.3832 78.938 43.2498 77.7638 41.8332L77.6223 42.4665C77.5057 42.7998 77.4307 43.2415 77.0726 43.4082C77.0393 43.3582 76.981 43.3165 76.9644 43.2665C77.0227 42.3665 76.9144 41.5332 76.4731 40.8415C76.3981 40.6498 76.4981 40.3998 76.3898 40.2332C76.1733 40.4082 75.8568 40.5665 75.9068 40.8999C75.8568 41.1832 75.9401 41.5165 75.7902 41.7582C75.5404 41.5582 75.4904 41.2665 75.3988 41.0082C75.174 40.0832 75.4571 39.1998 76.1566 38.6165C75.7652 38.4998 75.3156 38.5832 74.9658 38.7248C74.6827 38.8332 74.4162 39.0665 74.1331 39.0915C74.1247 38.3665 73.8499 37.7248 73.3586 37.2165C73.4336 37.8082 73.2171 38.3248 72.7674 38.6665C72.2927 38.4498 72.0762 37.9248 71.9679 37.4748C71.8514 37.0248 72.0429 36.5748 72.1345 36.2415C71.7431 36.3165 71.6099 36.7415 71.485 37.0498C71.41 37.1665 71.5099 37.3748 71.4017 37.4748C71.2934 37.4748 71.2601 37.3415 71.1685 37.3332C71.2518 38.6998 71.5016 40.0082 72.0595 41.1915C72.2178 41.7248 72.8923 41.9749 73.1171 42.4999C73.2004 42.6332 73.0921 42.7832 72.9756 42.8415C72.2511 42.7082 71.5099 42.8915 70.9187 43.2332C70.952 43.3165 73.0089 44.3498 73.7084 45.2332C74.741 46.1582 75.5071 47.3999 74.9658 48.7499C74.7909 49.0249 74.5161 49.2832 74.1581 49.2249C73.8416 49.2332 73.5668 48.9249 73.4169 48.6499C73.367 48.4332 73.342 48.1415 73.5835 48.0332C73.9166 47.8665 74.1081 48.2082 74.3912 48.2582C74.3413 47.8415 74.0665 47.4582 73.7 47.2249C73.2504 46.9082 72.6092 47.0332 72.1095 47.0832C71.7764 46.6665 71.7764 46.0332 71.8763 45.5165H71.7931C70.977 45.6832 70.952 46.5665 70.7938 47.2082C70.6605 47.5415 70.3524 47.1832 70.0776 47.2915C69.6279 47.4249 69.1866 47.8332 68.9368 48.2332C70.0277 48.2915 70.9936 48.6499 71.7931 49.4082C72.6341 50.3915 73.6334 51.6082 73.0172 52.9165C72.8423 53.1915 72.5758 53.3832 72.2594 53.3665C72.0096 53.3665 71.8514 53.1415 71.7681 52.9415C71.5766 52.5582 71.8514 52.2248 71.9679 51.8915L71.5849 51.8582C70.952 52.0582 70.7022 52.7665 70.5856 53.3415C69.9694 53.3499 69.4198 53.0165 68.8702 52.7749C69.1949 53.4499 69.6113 54.0832 70.1026 54.6915C70.1776 54.8332 69.9944 54.9499 69.9028 55.0582C69.5946 55.5665 69.2949 56.2249 69.5613 56.8332C69.7279 56.7749 69.7612 56.5499 69.9028 56.4249C70.0693 56.2082 70.3774 56.2499 70.6189 56.2832C70.8354 56.4249 71.002 56.6415 70.9603 56.9165C70.9353 57.1999 70.7105 57.4915 70.4357 57.6082C69.9694 57.7248 69.3198 57.7749 68.9867 57.3249C68.6786 56.9915 68.8119 56.4832 68.9035 56.0915C68.2123 56.3082 67.6793 56.9915 67.3962 57.6165C66.9798 57.3749 66.5635 57.0832 66.1138 57.0499L66.3053 57.2749C66.9465 58.3915 66.9798 60.1332 66.1637 61.1499C65.9639 60.5332 65.306 59.9249 64.6315 59.8999C64.0736 59.8915 63.5156 60.0665 63.2242 60.5582C63.4907 60.4749 63.8071 60.3832 64.0819 60.4999C64.2818 60.6332 64.4816 60.7832 64.5649 61.0082C64.7065 61.4165 64.4733 61.7249 64.1985 61.9832C63.6739 62.3999 63.1159 61.9249 62.5913 61.8415C62.2915 61.8082 61.9501 61.6499 61.6836 61.7582L62.0167 62.1249C62.2415 62.4915 62.2749 63.0249 62.05 63.4082C61.8335 63.7082 61.6003 64.1082 61.159 64.0415C60.7509 63.6999 60.6094 63.2082 60.5677 62.6999C59.785 63.4332 59.9765 64.6665 59.5518 65.5999C58.336 67.0249 56.9203 68.6415 55.4131 69.6915C55.2382 69.4665 55.3798 69.1665 55.4714 68.9415C55.7212 68.5749 56.0876 68.3582 56.5289 68.3749C56.454 68.1582 56.1958 68.0749 55.9793 68.0415H55.4714C55.4131 67.8165 55.6712 67.6332 55.8378 67.4915C56.0543 67.3582 56.3374 67.3832 56.5539 67.2665C56.2708 66.9332 55.7712 66.7999 55.3298 66.9415C55.2382 66.9999 55.1133 67.0749 55.0134 67.0332C55.1299 66.7165 55.3298 66.4249 55.538 66.1415C55.8461 65.6999 56.2042 65.2499 56.6455 64.8915C56.8121 64.9165 56.9203 65.0582 56.987 65.1999C57.0702 65.3915 56.8287 65.5165 56.962 65.6499C57.1202 65.6749 57.2618 65.5332 57.2951 65.3999L57.4116 64.9749C58.6691 64.8582 59.3936 63.5915 60.143 62.6915C60.4511 62.1999 60.7593 61.6582 60.5511 61.0415C60.4178 60.6499 60.0015 60.3499 59.6351 60.2332C58.3526 60.0165 57.5199 61.4832 56.8204 62.3249C56.5206 62.8165 56.1625 63.2915 56.2708 63.9415C56.021 63.9749 55.7878 64.0749 55.6379 64.3249C55.6629 64.3999 55.5796 64.4165 55.6129 64.4915C55.7878 64.4832 56.0376 64.3749 56.2042 64.5749C55.8128 65.0832 55.2965 65.6249 54.8385 66.0332C54.8052 65.2082 54.6719 64.4249 54.7219 63.5749C54.8968 63.4915 55.055 63.7082 55.1466 63.8332C55.2049 63.8665 55.1383 63.9749 55.2382 63.9749C55.4297 63.9832 55.4131 63.7749 55.488 63.6499C55.5213 63.3915 55.3798 63.1999 55.3215 62.9749C56.1042 62.0082 56.2458 60.5332 55.7462 59.4082C55.4547 58.9249 54.9634 58.5999 54.4138 58.5915C53.8642 58.6082 53.3729 58.9249 53.0814 59.4082C52.5818 60.5415 52.7233 62.0165 53.5061 62.9749C53.4478 63.1999 53.3062 63.3915 53.3395 63.6499C53.4145 63.7665 53.3978 63.9832 53.5894 63.9749C53.6976 63.9749 53.6227 63.8665 53.681 63.8332C53.7726 63.6999 53.9308 63.4915 54.1057 63.5749C54.1556 64.4332 54.0224 65.2165 53.9891 66.0332C53.5228 65.6165 53.0148 65.0832 52.6234 64.5749C52.7899 64.3749 53.0398 64.4832 53.2146 64.4915C53.2479 64.4165 53.1647 64.3999 53.1897 64.3249C53.0481 64.0749 52.8066 63.9832 52.5568 63.9415C52.665 63.2915 52.307 62.8082 52.0072 62.3249C51.3077 61.4832 50.4749 60.0165 49.1925 60.2332C48.8261 60.3499 48.4097 60.6499 48.2765 61.0415C48.06 61.6582 48.3681 62.2082 48.6845 62.6915C49.434 63.5915 50.1585 64.8582 51.4159 64.9749L51.5325 65.3999C51.5658 65.5332 51.7074 65.6749 51.8656 65.6499C51.9988 65.5165 51.7573 65.3915 51.8406 65.1999C51.9156 65.0582 52.0155 64.9165 52.182 64.8915C52.6234 65.2499 52.9815 65.6999 53.2896 66.1415C53.4894 66.4249 53.6976 66.7165 53.8142 67.0332C53.706 67.0665 53.5894 66.9999 53.4894 66.9415C53.0481 66.7999 52.5484 66.9332 52.2653 67.2665C52.4818 67.3832 52.765 67.3582 52.9815 67.4915C53.148 67.6332 53.4062 67.8082 53.3479 68.0415H52.8399C52.6234 68.0749 52.3652 68.1582 52.2903 68.3749C52.7316 68.3665 53.0981 68.5749 53.3479 68.9415C53.4395 69.1665 53.5894 69.4665 53.4062 69.6915C51.8989 68.6415 50.5082 67.1249 49.2924 65.6915C48.901 64.7499 48.9677 63.6165 48.3514 62.7749C48.2931 62.7832 48.2682 62.6582 48.2099 62.7499C48.1599 63.2749 48.0517 63.8915 47.5354 64.0832C47.069 64.0499 46.7859 63.5332 46.6443 63.1749C46.5028 62.6165 46.7276 62.1499 47.1523 61.7915C46.4028 61.7165 45.7866 62.1499 45.0455 62.1999C44.6874 62.1499 44.4042 61.8915 44.246 61.5665C44.1294 61.2249 44.296 60.9249 44.5292 60.6832C44.8123 60.4582 45.2287 60.5082 45.5534 60.6249V60.5082C45.212 60.0832 44.6957 59.9332 44.1294 59.9749C43.4549 60.0499 42.8304 60.5915 42.6222 61.2249C41.7811 60.2165 41.8894 58.5582 42.4223 57.4332C42.4973 57.3249 42.5972 57.2165 42.6472 57.0915C42.4806 57.0415 41.6479 57.6165 41.3398 57.6665C41.04 57.0582 40.507 56.3249 39.7909 56.1915C39.7909 56.3249 39.8991 56.4082 39.9075 56.5249C39.9991 56.9499 39.8991 57.3415 39.541 57.6165C39.2829 57.8332 38.8749 57.7915 38.5418 57.7582C38.217 57.7499 37.9005 57.4832 37.7923 57.1915C37.7173 56.9415 37.784 56.6832 37.9672 56.4999C38.0837 56.4082 38.242 56.3915 38.3919 56.3582C38.6334 56.3498 38.7999 56.5249 38.9665 56.6999C39.0247 56.7832 39.0497 56.9415 39.158 56.9499C39.2079 56.9249 39.2079 56.8832 39.2496 56.8415C39.3828 56.0999 39.083 55.4165 38.5834 54.8665C39.0247 54.2582 39.8158 52.8665 39.8158 52.8665C39.3995 53.1165 38.9581 53.2832 38.5001 53.4165C37.8089 53.6999 38.142 52.7999 37.8256 52.5582C37.5758 52.2165 37.2427 51.8582 36.768 51.9498C36.5682 52.0915 36.9013 52.2582 36.9096 52.4332C36.9845 52.7915 36.9346 53.1915 36.6265 53.4082C36.4849 53.4999 36.26 53.4832 36.1185 53.4082C35.5855 53.1499 35.4273 52.5749 35.4523 52.0082C35.6938 51.2082 36.0186 50.4415 36.6265 49.7832C37.4842 48.8582 38.6334 48.2832 39.7909 48.4165C39.6243 48.1748 39.4245 47.9498 39.2246 47.7248C38.8915 47.4165 38.3919 47.2332 37.9422 47.4415C37.784 46.8248 37.7423 46.1332 37.1677 45.7082C37.0095 45.5665 36.8013 45.5998 36.6348 45.6498L36.7763 45.9332C36.8846 46.3749 36.8596 46.8998 36.5765 47.2415C36.0685 47.0998 35.4273 47.0248 34.9443 47.2998C34.5863 47.5582 34.2115 47.9332 34.2115 48.3832C34.3697 48.3832 34.4863 48.2915 34.6029 48.1915C34.7944 48.1165 35.011 48.0499 35.1525 48.2415C35.3191 48.4832 35.2275 48.7082 35.1275 48.9332C34.911 49.2415 34.6612 49.4082 34.2698 49.3332C33.8201 49.2499 33.6369 48.7499 33.5203 48.3832C33.3788 47.3582 33.7785 46.4915 34.4947 45.7915C35.3524 44.7165 37.7257 43.4915 37.7173 43.3082C37.1261 42.9165 35.5189 42.8249 35.5189 42.8249C35.4856 42.2999 36.1018 42.0498 36.3766 41.6332C37.0678 40.3582 37.4092 38.8998 37.4092 37.3998L37.1511 37.4915C37.1261 37.0498 36.9929 36.5498 36.5182 36.3998C36.793 37.2582 36.5931 38.2082 35.8853 38.7748C35.4023 38.4748 35.1109 37.8498 35.2108 37.2915C34.936 37.5998 34.7028 37.9248 34.5779 38.2915C34.4197 38.5498 34.528 38.9082 34.3781 39.1748C33.7452 38.8998 33.1206 38.4832 32.3545 38.6832C32.6376 38.9915 32.9707 39.3332 33.0957 39.7415C33.3788 40.4165 33.2289 41.2748 32.7875 41.8248C32.6127 41.3248 32.8458 40.6248 32.2379 40.3165C32.2379 40.3165 32.1213 40.6582 32.0964 40.8249C31.6717 41.5749 31.5051 42.4165 31.5884 43.3665C31.5634 43.4248 31.5051 43.5248 31.4218 43.4832C30.9971 43.0582 30.9555 42.4249 30.789 41.8749C29.9063 43.0165 30.1478 44.8082 30.5891 46.0749C30.7557 46.6499 31.1387 47.3832 30.7057 47.9582C29.34 48.7582 29.7314 46.7915 29.0735 46.2832C28.6738 47.0915 28.7321 48.1415 29.0152 48.9999C28.907 49.1082 28.7321 49.0332 28.5905 49.0582C27.8077 49.2165 27.458 50.0582 27.3081 50.7332C27.5912 50.7248 27.7744 50.4332 28.0492 50.4249C29.4066 50.0582 30.9722 50.3415 31.8216 51.5082C32.1213 51.9582 32.1297 52.6749 31.8549 53.1332C31.6966 53.3832 31.4385 53.4999 31.1637 53.5249C30.4642 53.5499 29.9396 52.3832 29.9396 52.3832C29.9146 52.7082 29.9729 52.9999 29.9979 53.2999C30.1561 54.4415 30.9472 55.6665 32.1047 56.0499C32.6043 56.4165 33.0873 56.9165 32.9624 57.5582C32.8542 57.6999 32.6876 57.8165 32.5127 57.7249C32.1213 57.6082 31.8216 56.8415 31.8216 56.8415C31.4302 57.3999 31.3469 58.3415 31.68 58.9499C31.2886 59.6915 31.1054 60.6832 31.3969 61.5165C31.4718 61.6249 31.4885 61.8165 31.6217 61.7999C31.8132 60.9999 32.3212 60.1082 33.1706 59.7999C34.1199 59.3165 35.5106 59.4582 36.335 60.1249C36.5598 60.3415 36.6348 60.6999 36.5099 60.9832C36.1518 61.5915 35.2358 61.4832 34.6196 61.4082C34.6945 61.8249 35.0026 62.1582 35.2858 62.4915C34.8944 63.0165 34.7195 63.6915 34.886 64.3749L35.6188 63.7165C36.4183 63.1915 37.3759 62.8332 38.3669 63.0415C38.65 63.1999 38.8749 63.4832 38.8166 63.8415C38.8415 64.3165 38.2919 64.3749 38.0421 64.6999C37.8839 64.8915 37.8006 65.1749 37.8506 65.3749C38.5751 65.1499 39.2912 64.9082 40.074 64.7999C41.2149 64.7249 42.7388 64.4499 43.4383 65.5165C43.5299 65.8999 43.3217 66.2165 43.0719 66.4915C42.847 66.7332 42.5472 66.7749 42.2974 66.9415C42.3057 67.0332 42.3557 67.1082 42.439 67.1832C42.9886 67.6332 43.8963 67.5415 44.4958 67.2665C44.6957 67.6499 44.3543 68.0415 44.3543 68.4082C44.9955 68.4415 45.5451 68.1832 45.9198 67.6582C46.611 68.3332 47.3938 68.7499 48.3431 68.7999C48.4597 68.5582 48.2349 68.2915 48.3098 68.0415C48.3931 68.0165 48.443 68.0665 48.5097 68.0665C49.842 68.9499 51.1578 70.2665 51.7907 71.6915C51.4659 71.7832 51.1328 71.8499 50.9079 72.1415C50.8163 72.3165 50.6581 72.5249 50.7664 72.7499C50.9413 72.7415 51.0662 72.5832 51.2161 72.5165C51.7907 72.4582 52.1571 73.1249 52.4735 73.5165C52.8149 74.0499 51.9239 73.7582 51.8989 74.1832C52.2903 74.4415 52.64 74.8749 52.7816 75.3249C52.8149 75.4665 52.8149 75.6249 52.8982 75.7582H55.9544C56.0709 75.4582 56.1542 75.1415 56.3208 74.8665C56.4623 74.5582 56.7871 74.3665 56.9703 74.0915C56.7954 73.8749 56.504 73.8999 56.2791 73.7832C56.4707 73.3082 56.8371 72.8165 57.3117 72.5249C57.5615 72.3665 57.8613 72.6915 58.1112 72.6999C58.1445 72.5082 58.0612 72.3665 57.9946 72.2082C57.7947 71.8415 57.42 71.7582 57.0536 71.7165C57.4949 70.7499 58.1611 69.8582 58.9939 69.0915C59.4935 68.6999 59.9349 68.1749 60.5178 67.9832C60.6344 68.2249 60.4012 68.4832 60.4595 68.7249C61.4088 68.6749 62.2166 68.2749 62.9077 67.5832C63.3158 68.0665 63.882 68.4249 64.5149 68.2749C64.4233 67.9499 64.2068 67.6832 64.2568 67.2999C64.2901 67.1915 64.415 67.2665 64.4816 67.2415C65.0978 67.4582 66.0139 67.5249 66.4802 66.9582C66.5135 66.7332 66.1388 66.7165 65.9722 66.5915C65.6141 66.3165 65.3144 65.9749 65.3144 65.5332C65.764 64.5915 67.0631 64.6082 67.9375 64.6499C68.9951 64.7082 69.986 64.9249 70.9354 65.2832C71.0936 64.3915 69.8445 64.4665 69.9361 63.5915C69.9361 63.2915 70.2358 63.0082 70.5107 62.9165C71.8514 62.7499 72.9589 63.3915 73.8749 64.3082C73.9415 63.7999 73.8833 63.2749 73.7 62.8249C73.6251 62.6665 73.4419 62.5165 73.4752 62.3499C73.7916 62.0499 74.0248 61.6832 74.0831 61.3165C73.9749 61.3499 73.8583 61.3249 73.7583 61.3749C73.2004 61.3665 72.4176 61.4832 72.1928 60.8249C72.0762 60.4832 72.2511 60.1832 72.4759 59.9499C73.2004 59.5415 74.0831 59.2832 74.9575 59.5165C76.0067 59.7082 76.8561 60.6915 77.0976 61.6832H77.1559C77.4057 61.2665 77.3974 60.6999 77.3808 60.2082C77.3308 59.6999 77.1559 59.2582 76.9727 58.8082C77.3641 58.1915 77.1143 57.3415 76.8062 56.7832C76.6729 57.0832 76.5813 57.5249 76.1733 57.6665C75.9818 57.7582 75.7819 57.6415 75.6903 57.4665C75.5737 56.8332 76.0567 56.3249 76.548 55.9582C77.6306 55.5749 78.4383 54.4332 78.6049 53.3665C78.5966 52.9999 78.7631 52.6082 78.5799 52.2749C78.2968 52.5832 78.2801 52.9915 77.972 53.2749C77.7472 53.4749 77.3308 53.5165 77.0726 53.3665C76.8145 53.1999 76.6646 52.9415 76.6063 52.6749C76.4981 52.0915 76.6146 51.4582 77.0976 51.0415C78.0469 50.1999 79.4959 49.8665 80.72 50.3665C80.8949 50.4165 81.0615 50.6082 81.253 50.5332L81.0032 49.8415L81.0531 49.7915Z" fill="#094752"/>
<path d="M62.2666 32.6498C61.8669 31.7248 61.5588 30.6581 61.1341 29.7415C60.7094 30.6581 60.418 31.7248 60.0182 32.6498H57.062C57.062 32.6498 58.6359 33.8581 59.3937 34.4747C59.2022 35.5247 58.8524 36.4581 58.5776 37.4914L61.1591 35.6997L63.7239 37.4914C63.4575 36.4831 63.091 35.5164 62.9078 34.4747C63.6656 33.8581 65.2395 32.6415 65.2395 32.6415H62.2833L62.2666 32.6498Z" fill="#094752"/>
<path d="M46.0448 33.075C45.8199 33.0583 45.67 33.2583 45.4868 33.35C45.6783 33.25 45.8116 33.0666 46.0448 33.075Z" fill="#094752"/>
<path d="M44.7374 31.9416C44.9955 31.9749 45.3536 32.0499 45.5368 31.7749C45.7866 31.5166 45.9449 31.9999 46.2113 31.9166C46.6777 31.9666 46.4612 31.2666 46.9608 31.4332C47.2106 31.4082 47.4604 31.1832 47.552 30.9416C47.3855 30.5166 47.8518 30.3582 47.8102 29.9416C47.7769 29.8082 47.652 29.6082 47.4854 29.6916C47.4854 29.7166 47.4854 29.7666 47.5187 29.7749C47.627 29.9082 47.5687 30.1166 47.4604 30.2249C47.1273 30.3082 47.3855 30.7332 47.2356 30.9416C47.119 31.5249 46.4278 30.9916 46.3779 31.4666C46.3029 31.6332 46.1281 31.7916 45.9115 31.7166C45.5951 31.2332 45.3619 31.9916 44.9456 31.7749C44.804 31.7249 44.6458 31.6416 44.5792 31.5166C44.4626 31.4082 44.5875 31.0916 44.3377 31.1249C44.2627 31.1916 44.2461 31.2916 44.2544 31.4082C44.2877 31.6332 44.4959 31.8749 44.7207 31.9416" fill="#094752"/>
<path d="M48.3265 33.5166C48.3348 32.8666 49.1093 33.2332 49.3508 32.7166C49.5173 32.5999 49.459 32.3499 49.4674 32.2082C49.3758 31.8666 49.6006 31.5749 49.6089 31.2332C49.6006 31.0666 49.434 31.0332 49.3008 31.0916C49.3091 31.2582 49.3758 31.3999 49.3508 31.5749C49.0177 31.9082 49.4257 32.4332 49.1259 32.7749C48.8678 33.0249 48.2932 32.8332 48.2432 33.2832C48.1683 33.3916 48.11 33.6082 47.9185 33.5666C48.035 33.5916 48.2432 33.6582 48.3265 33.5082" fill="#094752"/>
<path d="M49.8338 30.4082C49.9421 30.2749 49.9671 30.1249 49.9504 29.9415C49.9004 29.8582 49.8671 29.6915 49.7256 29.7165C49.5923 29.8832 49.8005 30.0332 49.7505 30.2249C49.6673 30.4249 49.4757 30.4165 49.3508 30.5415C49.5091 30.7082 49.6673 30.4249 49.8338 30.3999" fill="#094752"/>
<path d="M50.6333 32.7999C51.0496 33.2916 51.441 32.6083 51.9157 32.8333C51.8824 32.7249 51.7575 32.7583 51.6659 32.7416C51.416 32.4416 51.2162 32.8499 50.9164 32.7999C50.7832 32.7749 50.7498 32.6333 50.6666 32.5499C50.55 32.4583 50.4917 32.6416 50.4084 32.6916C50.2752 32.8249 50.017 32.7749 49.9587 32.9416C50.2002 33.0999 50.4251 32.8833 50.6333 32.7999Z" fill="#094752"/>
<path d="M49.2092 30.5749C49.1592 30.5666 49.1176 30.4916 49.0426 30.5166C48.9261 30.6249 48.9344 30.8583 49.0177 30.9833C49.1592 30.9333 49.076 30.6833 49.2092 30.5749Z" fill="#094752"/>
<path d="M60.6511 44.175C60.7093 44.15 60.7926 44.0833 60.7926 44.0333C60.7177 43.9583 60.6344 43.9249 60.5345 43.9416C60.4512 43.9499 60.3679 44.0333 60.3679 44.1167C60.4012 44.225 60.5595 44.15 60.6511 44.175Z" fill="#094752"/>
<path fill-rule="evenodd" clip-rule="evenodd" d="M201.784 67.2999C201.784 67.1415 201.792 67.0332 201.8 66.8915C201.75 66.7999 201.642 66.8749 201.584 66.8915C199.302 68.5082 196.962 70.0999 193.981 69.9332C193.54 69.7832 193.082 69.5499 192.84 69.0915C192.274 67.9832 192.948 66.1749 192.932 66.1415C190.667 67.5582 188.41 68.9999 185.937 69.8832C185.679 69.8249 185.021 70.2332 185.146 69.7165C190.159 67.1499 195.138 63.4249 199.385 59.0749C200.485 59.0749 202.933 59.0915 202.883 59.0749C200.66 61.2999 197.062 64.9249 194.897 67.1999C194.572 67.5499 194.073 67.9749 194.272 68.5165C195.039 69.3082 196.363 68.8249 197.129 68.4832C199.71 67.0749 202.425 65.0999 204.299 62.7665C206.455 60.5832 209.312 59.1082 212.251 58.6665C213.217 58.5915 214.142 58.8665 214.666 59.6915C214.7 59.7665 214.7 59.8582 214.791 59.9082C215.158 59.8749 215.666 59.3499 215.932 59.0665C217.048 59.0665 218.114 59.0665 219.155 59.0665C218.505 59.9832 213.375 65.7665 211.502 67.8915C211.319 68.0665 211.36 68.2999 211.469 68.4749C211.852 68.6915 212.135 68.7332 212.559 68.6582C214.625 68.4332 216.082 66.7832 217.647 65.3915C219.937 62.9582 222.386 60.1749 225.242 58.7415C226.166 58.3915 227.499 58.2582 228.315 58.8665C229.006 59.4582 228.973 60.3499 229.198 61.1249C229.964 60.9582 230.58 60.1665 231.179 59.7499C231.671 59.3999 232.145 59.1749 232.553 59.0165C233.544 58.6332 234.935 58.3749 235.884 59.0499C236.659 59.8749 236.692 61.1082 236.326 62.1332C236.176 62.4415 236.043 62.7749 235.793 63.0082C234.227 64.6832 232.628 66.3415 231.055 68.0249C230.855 68.2415 230.63 68.4665 230.705 68.8165C231.238 69.2915 231.929 68.8499 232.462 68.6832C234.202 67.9665 235.751 66.6832 237.2 65.3249C239.34 61.6665 243.188 59.2415 247.176 58.6415C248.151 58.5665 249.058 58.8415 249.591 59.6665C249.633 59.7415 249.633 59.8332 249.716 59.8832C250.083 59.8499 250.591 59.3249 250.857 59.0415C251.965 59.0415 253.039 59.0415 254.08 59.0415C253.439 59.9582 248.301 65.7415 246.427 67.8665C246.244 68.0415 246.277 68.2749 246.394 68.4499C246.777 68.6665 247.368 68.5582 247.784 68.4832C252.523 66.8915 256.312 62.5499 259.917 58.6832C260.101 58.4832 260.375 58.3499 260.609 58.4082C260.717 58.7165 260.459 58.9915 260.3 59.2499C256.778 63.6499 252.431 68.1332 247.343 69.9332C246.335 70.1749 245.07 70.1582 244.412 69.2749C244.087 68.9999 244.245 68.4832 243.879 68.4499C242.413 69.5165 240.673 70.0499 238.732 69.8415C237.875 69.6582 236.942 68.8749 236.792 67.9499C236.809 67.6749 236.775 67.4165 236.659 67.1999C234.502 68.6999 232.32 70.2832 229.464 69.9332C229.089 69.9165 228.606 69.2332 228.531 68.7415C228.331 67.4915 229.406 66.6665 230.122 65.7499C231.754 64.1082 233.328 62.4415 234.869 60.7582C235.068 60.5082 234.96 60.1915 234.902 59.9499C234.735 59.5832 234.352 59.5415 234.019 59.4749C232.753 59.4582 231.837 60.3165 230.913 61.1082C228.115 64.0582 225.309 66.7499 222.561 69.7165C221.461 69.7165 218.905 69.7499 218.872 69.7165C221.22 67.2415 224.068 64.6582 226.3 62.0832C226.816 61.4999 227.565 60.8082 227.44 59.6999C227.149 59.2082 226.541 59.3749 226.083 59.3915C223.352 60.3999 221.095 63.1165 219.055 65.1999C217.689 66.7415 216.157 68.2082 214.466 69.0749C213.792 69.4749 213.117 69.7082 212.418 69.9499C211.41 70.1915 210.144 70.1749 209.487 69.2915C209.162 69.0165 209.32 68.4999 208.954 68.4665C207.496 69.5332 205.756 70.0665 203.816 69.8582C202.958 69.6749 202.017 68.8915 201.875 67.9665C201.875 67.9665 201.775 67.5499 201.775 67.2749M206.339 63.8749C207.879 62.1165 209.611 60.6832 211.552 59.8582C212.135 59.6749 213.001 59.5999 213.459 60.1332C213.65 60.4249 213.858 60.7749 213.717 61.1749C213.317 62.1832 212.434 62.9665 211.643 63.8165C209.428 65.9332 207.455 69.3999 204.049 68.9665C203.791 68.9082 203.624 68.7082 203.516 68.4915C203.299 67.0749 205.173 65.1915 206.339 63.8749ZM241.256 63.8749C242.788 62.1165 244.528 60.6832 246.469 59.8582C247.06 59.6749 247.918 59.5999 248.376 60.1332C248.559 60.4249 248.775 60.7749 248.634 61.1749C248.234 62.1832 247.351 62.9665 246.56 63.8165C244.345 65.9332 242.363 69.3999 238.966 68.9665C238.707 68.9082 238.549 68.7082 238.441 68.4915C238.224 67.0749 240.098 65.1915 241.264 63.8749M203.732 53.8415C204.282 53.5832 204.907 53.2499 205.581 53.4915C205.981 53.6415 206.256 53.9582 206.372 54.2415C206.555 55.2499 206.189 56.1999 205.331 56.7915C204.748 57.2832 203.724 57.3249 203.083 56.9749C202.825 56.7332 202.675 56.7082 202.55 56.1332C202.492 55.1832 203.008 54.3582 203.741 53.8415M171.272 61.1499C171.639 61.0415 172.047 61.1332 172.313 61.3665C172.971 62.1749 172.771 63.4415 172.313 64.2665C172.022 64.8749 171.447 65.3249 170.864 65.6332C171.564 67.4665 173.521 68.2749 175.386 68.2749C186.137 68.1249 192.116 56.4249 198.103 49.0999C201.267 44.5249 204.715 40.0499 208.646 35.7832C203.358 32.5416 195.855 33.9916 190.825 36.7665C185.978 39.2082 181.29 43.0999 177.809 47.7499C176.802 49.2499 175.927 51.2499 176.802 53.1165C177.917 55.0582 180.174 55.3749 182.289 55.2249C190.442 53.9249 197.953 46.6499 201.267 39.1165C201.651 38.0582 201.984 36.9832 202.275 35.8832H202.308C202.308 39.5082 200.501 42.5165 198.669 45.4582C194.989 50.8832 189.592 55.7749 183.164 56.4832C180.349 56.7582 177.684 55.9915 176.044 53.6749C174.945 51.2832 175.711 48.3499 176.926 46.2415C181.906 38.7165 189.809 34.5582 198.103 33.1832C202.092 32.5999 206.122 33.0666 209.395 34.9915C209.428 34.9915 216.382 28.0416 221.353 27.1166C221.428 27.1332 221.545 27.0832 221.595 27.1749V27.2082C217.722 28.8582 214.117 31.3666 211.027 34.6832C210.802 35.0249 210.236 35.2832 210.403 35.7415C213.134 38.1749 214.733 41.7165 213.475 45.3165C212.618 47.9082 210.186 50.4165 207.421 50.8249C206.139 50.9499 204.815 50.5999 204.215 49.3749C203.391 47.3999 204.557 45.4749 205.914 44.0165C207.213 42.8082 208.695 41.9999 210.494 41.9749C210.677 42.0332 210.936 42.0499 210.969 42.2499C210.411 42.2415 209.611 42.4665 209.045 42.8582C206.997 44.0082 204.89 46.1915 204.998 48.6582C205.106 49.2082 205.698 49.7082 206.231 49.8165C207.313 49.9249 208.054 49.3165 208.829 48.6249C211.743 46.0332 213.092 42.6165 211.685 39.0415C211.244 38.0749 210.519 37.0499 209.562 36.4832C206.089 40.2499 201.817 48.5915 201.742 48.5665C199.952 51.6415 198.136 54.7249 195.646 57.5082C191.341 62.8165 185.878 66.3665 180.058 68.5332C177.293 69.3582 173.504 69.7582 171.122 67.7832C169.732 66.4832 168.999 64.5832 169.732 62.7332C169.973 62.0165 170.573 61.4499 171.264 61.1582M146.198 65.0749C148.247 62.6499 150.828 60.5082 153.701 59.6832C154.209 59.5165 154.834 59.6082 155.325 59.7749C155.75 60.0165 155.891 60.4499 155.95 60.8749C155.933 61.1832 155.983 61.5332 155.767 61.7165C154.942 61.8249 154.201 62.4332 153.751 63.1665C153.476 63.6832 153.352 64.2499 153.352 64.8999C151.811 66.5332 149.929 67.7665 147.989 68.6665C147.106 69.0332 145.832 69.1415 145.008 68.5749C144.624 68.2832 144.475 67.7999 144.608 67.3415C144.933 66.4999 145.59 65.7832 146.198 65.0749ZM118.302 66.9332C119.909 64.9415 121.741 62.9249 123.706 61.1832C125.08 59.9582 126.87 58.9832 128.669 59.5499C129.052 59.7665 129.202 60.1332 129.235 60.5249C129.16 60.8582 129.235 61.2415 129.069 61.5332C128.045 61.8415 126.979 62.8499 126.746 63.9165C126.654 64.1749 126.712 64.5582 126.687 64.7999C124.714 66.5832 122.715 68.3332 120.225 68.9165C119.401 69.0082 118.435 68.9499 117.96 68.2249C117.869 67.7665 118.052 67.3249 118.302 66.9415M126.029 37.5499C129.052 34.3665 132.308 31.4749 136.755 31.7666C137.505 31.9666 138.437 32.3166 138.679 33.1749C139.137 35.1332 137.729 36.5499 136.672 37.9665C131.417 43.8332 124.955 47.1832 118.343 49.9749C117.852 50.1249 117.302 50.3249 116.811 50.3832C119.434 45.8915 122.54 41.6415 126.038 37.5499M83.2515 67.7749C86.2743 66.5832 89.8718 67.2999 92.7281 68.3415C91.7788 68.8332 90.6046 69.0165 89.4304 69.0582C87.5984 69.2749 85.4583 69.3915 83.6262 68.9665C83.3348 68.8165 82.9684 68.7415 82.8018 68.3999C82.6519 68.0665 83.0433 67.8832 83.2432 67.7749M81.9358 67.4332C85.0336 65.5082 89.3888 66.2415 92.9529 66.6415C93.8523 66.7915 94.7683 66.8665 95.626 67.0832C96.6836 66.7915 97.5996 66.1082 98.5739 65.6165C100.256 64.5582 101.872 63.2915 103.462 61.9749C103.537 62.0082 105.827 59.5415 105.877 59.4582C107.434 57.5415 108.917 55.5582 110.341 53.5832V53.4499C108.525 53.5249 106.793 53.6415 104.736 53.3582C102.196 53.0165 100.073 51.9332 97.966 49.9332C95.2096 47.2915 95.6593 42.8999 97.0333 40.7415C99.6315 36.7332 102.929 34.4249 107.867 32.4582C109.932 31.6332 112.297 31.1999 113.372 30.9749C116.578 30.5332 120.275 30.0916 123.473 30.8416C123.548 30.8832 123.506 30.9499 123.506 31.0249C123.473 31.1166 123.356 31.0749 123.29 31.1499C114.063 30.5082 105.427 32.8666 99.7481 40.3749C98.2325 42.5582 97.0583 45.7582 98.5573 48.3249C101.447 52.4249 106.976 52.9582 111.573 51.7999C112.456 50.8999 113.114 49.8082 113.896 48.8249C118.51 42.9249 123.873 36.4165 130.243 32.4082C132.608 31.1249 135.789 29.8499 138.495 31.3082C139.67 32.1332 140.069 33.4666 139.761 34.8249C138.037 39.8832 132.658 43.4165 128.428 46.2165C124.314 48.7499 119.917 50.6749 115.379 52.1832C110.948 58.6082 104.345 63.4582 97.991 67.2249C97.991 67.3582 98.1409 67.3582 98.2075 67.4082C101.464 67.6832 104.994 67.8082 108.217 67.6249C111.715 67.1665 114.987 66.1749 117.719 63.8915C120.042 60.6999 123.34 58.1582 127.328 58.1832C128.444 58.2665 129.71 58.6332 130.093 59.8415C130.385 60.7999 129.952 61.7832 129.968 62.7915C129.952 62.9165 129.843 63.0249 129.877 63.1749C130.018 63.3749 130.243 63.1915 130.41 63.1749C132.225 62.0332 133.907 60.5749 135.556 59.0499C135.606 57.8499 135.797 56.5665 136.963 55.9249C137.205 55.8915 137.438 55.7082 137.713 55.8499C137.971 55.8832 138.171 56.1415 138.229 56.4165C138.287 57.5165 137.405 58.2332 136.78 59.0499C137.863 59.6415 139.745 58.9749 140.078 60.6332C140.278 62.6499 138.554 63.9165 137.313 65.3332C136.272 66.3749 135.048 67.4249 134.115 68.5415C133.965 68.7915 134.14 69.1415 134.373 69.1582C136.222 69.5749 138.437 68.4249 140.178 67.4332C142.151 66.0415 143.783 64.0832 145.482 62.2832C148.072 59.5582 151.453 57.8415 155.292 58.6332C155.975 58.8749 156.683 59.5332 156.866 60.2665C157.249 61.4249 156.516 62.3749 156.641 63.4749C156.882 63.6749 157.116 63.5249 157.34 63.4415C160.23 60.8749 162.795 57.8415 165.218 54.9582C165.435 54.8832 165.51 55.0665 165.568 55.2165C165.077 56.3332 164.227 57.3082 163.494 58.3249C161.171 60.9165 158.939 64.3249 155.683 65.5082C155.1 65.7832 154.734 65.5249 154.276 65.6332C151.919 67.8082 149.429 69.6999 146.298 70.0665C145.057 70.1915 144.017 69.7165 143.35 68.6165C142.926 67.9165 143.001 66.5415 142.951 66.5415C140.811 68.3749 138.429 69.6249 135.697 70.0665C134.548 70.2332 133.283 70.0332 132.675 69.0249C131.925 65.7582 135.548 63.8582 137.538 61.8082C137.854 61.3165 138.712 61.0915 138.512 60.4499C137.746 60.1582 136.88 60.0999 136.039 60.0082C135.015 60.5582 134.207 61.6749 133.241 62.3749C131.775 63.5665 130.276 64.6165 128.569 65.2249C127.362 64.9832 126.887 66.4749 125.988 66.9499C123.531 68.7832 120.583 71.0415 117.419 69.5415C116.245 68.8582 116.286 67.4165 116.445 66.1999C116.411 66.1665 116.386 66.1415 116.353 66.1082C114.563 66.9332 112.839 67.9415 110.923 68.4415C105.977 69.8332 99.9563 70.1665 94.8932 68.8415C91.5789 70.1249 87.6234 70.5082 83.8511 69.9749C82.9767 69.7332 81.7526 69.6082 81.4944 68.5249C81.4778 68.0832 81.6277 67.6999 81.9358 67.3832" fill="#094752"/>
</g>
</g>
<defs>
<clipPath id="clip0_11216_606">
<rect width="234" height="50" fill="white" transform="translate(27 26)"/>
</clipPath>
</defs>
</svg>
