<svg width="287" height="104" viewBox="0 0 287 104" fill="none" xmlns="http://www.w3.org/2000/svg">
<line x1="155" y1="21.9846" x2="155.923" y2="81.9775" stroke="#094752" stroke-width="2"/>
<path d="M187.648 49.2084L188.572 48.3256C188.184 48.3256 186.933 48.3256 186.24 48.3256C185.45 50.0777 184.398 52.3406 184.176 52.8111L182.011 48.3211H179.646L180.575 49.2218C180.575 49.2218 179.91 55.3607 179.863 55.8447L179 56.6557H181.392L180.491 55.8088L181.129 49.9567L183.793 55.0695C183.978 54.6662 186.12 50.0418 186.235 49.7774C186.263 50.0149 187.099 55.6475 187.113 55.8581L186.3 56.6557H189.509L188.623 55.8043C188.609 55.6206 187.685 49.5982 187.648 49.2084Z" fill="#094752"/>
<path d="M193.822 48.1553C191.647 48.1553 189.888 50.0642 189.888 52.4705C189.888 54.8768 191.652 56.826 193.822 56.826C195.992 56.826 197.76 54.8768 197.76 52.4705C197.76 50.0642 195.996 48.1553 193.822 48.1553ZM193.831 56.2569C192.436 56.2569 191.508 54.6258 191.508 52.4795C191.508 50.3331 192.436 48.7423 193.831 48.7423C195.225 48.7423 196.153 50.3331 196.153 52.4795C196.153 54.6258 195.225 56.2569 193.831 56.2569Z" fill="#094752"/>
<path d="M206.201 48.3211L205.808 49.997L206.967 48.8902H209.05V55.7416L208.089 56.6557H211.488L210.592 55.8088V48.8902H212.684L213.833 49.997L213.441 48.3211H206.201Z" fill="#094752"/>
<path d="M200.942 56.0911V52.5153H202.262L203.029 53.2591L203.024 51.2338L202.262 51.9642H200.942V48.8902H203.537L204.686 49.997L204.289 48.3211H198.467L199.395 49.2084V55.8088L198.513 56.6557H204.603L205.097 54.6931L203.606 56.0911H200.942Z" fill="#094752"/>
<path d="M200.267 47.4429C200.688 47.4429 201.029 47.1202 201.029 46.7214C201.029 46.3226 200.688 46 200.267 46C199.847 46 199.506 46.3226 199.506 46.7214C199.506 47.1202 199.847 47.4429 200.267 47.4429Z" fill="#094752"/>
<path d="M202.973 47.4429C203.393 47.4429 203.735 47.1202 203.735 46.7214C203.735 46.3226 203.393 46 202.973 46C202.553 46 202.211 46.3226 202.211 46.7214C202.211 47.1202 202.553 47.4429 202.973 47.4429Z" fill="#094752"/>
<path d="M264.481 48.3211H261.475L262.408 49.2084L262.422 55.8043L261.54 56.6557H264.874C267.589 56.6423 269.108 54.8051 269.099 52.3495C269.094 49.7326 267.113 48.3167 264.477 48.3211H264.481ZM264.721 56.109C264.01 56.109 263.973 56.0777 263.973 56.0777L263.959 48.8813C263.959 48.8813 263.969 48.8678 264.213 48.8678C266.125 48.8678 267.427 50.1673 267.432 52.4347C267.436 54.5721 266.453 56.1135 264.726 56.1135L264.721 56.109Z" fill="#094752"/>
<path d="M257.984 48.3211L258.913 49.2084L258.926 54.0971L254.267 48.3211H251.991C251.991 48.3211 252.721 48.9754 253.099 49.3786L253.113 55.8043L252.227 56.6557H254.729L253.843 55.8043L253.829 50.1942L259.037 56.6557H259.647L259.628 49.2084L260.556 48.3211H257.984Z" fill="#094752"/>
<path d="M243.223 48.3211H239.806L240.729 49.2084V52.1344H237.41V49.2084L238.347 48.3211H234.921L235.849 49.2084V55.8178L234.967 56.6557H238.296L237.41 55.8088V52.717H240.729V55.8178L239.843 56.6557H243.172L242.29 55.8088V49.2084L243.223 48.3211Z" fill="#094752"/>
<path d="M274.141 48.1553C271.966 48.1553 270.207 50.0642 270.207 52.4705C270.207 54.8768 271.97 56.826 274.141 56.826C276.311 56.826 278.079 54.8768 278.079 52.4705C278.079 50.0642 276.315 48.1553 274.141 48.1553ZM274.15 56.2569C272.755 56.2569 271.827 54.6258 271.827 52.4795C271.827 50.3331 272.755 48.7423 274.15 48.7423C275.544 48.7423 276.472 50.3331 276.472 52.4795C276.472 54.6258 275.544 56.2569 274.15 56.2569Z" fill="#094752"/>
<path d="M287 48.3211H284.428L285.356 49.2084L285.37 54.0971L280.711 48.3211H278.236C278.236 48.3211 279.164 48.9754 279.543 49.3786L279.557 55.8043L278.67 56.6557H281.173L280.286 55.8043L280.273 50.1942L285.481 56.6557H286.09L286.072 49.2084L287 48.3211Z" fill="#094752"/>
<path d="M228.794 52.7349C228.632 50.6064 229.218 49.0919 230.461 48.8857C230.567 48.8678 230.664 48.8499 230.853 48.8499C232.146 48.8633 233.162 49.9881 233.485 50.5347L233.466 48.3256H230.973C228.826 48.3256 227.085 50.0687 227.09 52.4615C227.09 54.8544 228.632 56.7946 230.913 56.7946C232.631 56.7946 233.416 55.9343 233.942 54.9754C233.942 54.9754 233.06 55.7102 231.809 55.8223C230.294 55.9567 228.965 55.047 228.789 52.7394L228.794 52.7349Z" fill="#094752"/>
<path d="M223.299 52.9007L224.112 52.1299H222.117L222.814 52.8872C222.763 53.2278 222.694 53.537 222.611 53.8193L220.127 51.5026C220.861 51.0366 221.609 50.5437 221.604 49.6385C221.604 48.7468 220.796 48.0971 219.684 48.1016C218.525 48.1016 217.652 48.8409 217.652 49.8133C217.652 50.3913 217.721 51.0232 218.765 52.0045C217.827 52.596 216.705 53.3398 216.71 54.6617C216.71 55.9208 217.901 56.817 219.346 56.8932C220.963 56.9783 221.872 56.2704 222.44 55.4369L224.195 57.0769V55.3069L223.017 54.2046C223.151 53.761 223.234 53.3129 223.294 52.9007H223.299ZM218.755 49.2666C218.852 48.711 219.259 48.4376 219.628 48.4197C220.196 48.3883 220.524 48.9081 220.529 49.7326C220.529 50.3869 220.344 50.8081 219.85 51.2472C218.709 50.3062 218.672 49.7506 218.755 49.2666ZM219.679 56.0956C218.686 55.9791 217.984 55.3697 217.984 54.2315C217.984 53.4742 218.266 52.9455 219.023 52.3047L219.06 52.2778L222.029 55.0515C221.42 55.894 220.565 56.2031 219.679 56.0956Z" fill="#094752"/>
<path d="M247.826 48.1598H247.438L244.603 55.8043L243.708 56.6557H246.146L245.254 55.8043L246.127 53.4115L248.353 53.4205L249.308 55.7998L248.422 56.6512H251.83L250.938 55.7998L247.826 48.1553V48.1598ZM246.266 53.0082L247.175 50.5347L248.182 53.0082H246.266Z" fill="#094752"/>
<g opacity="0.54">
<path d="M76.3468 75.8105C80.2568 74.2145 82.989 70.6459 82.989 66.492C82.989 64.171 82.1526 61.9756 80.5704 60.1564C80.5704 60.1564 80.215 59.7452 79.6156 59.0622C83.3235 54.964 86.3484 51.6394 86.4669 51.507C86.3484 51.3745 83.3235 48.05 79.6156 43.9378C80.215 43.2548 80.5704 42.8505 80.5704 42.8505C82.1595 41.0314 82.989 38.8359 82.989 36.515C82.989 32.361 80.2568 28.7855 76.3468 27.1964C75.3222 22.5337 70.7988 19 65.3833 19C59.9678 19 55.4445 22.5267 54.4199 27.1964C50.5099 28.7786 47.7707 32.361 47.7707 36.515C47.7707 38.8359 48.6141 41.0314 50.1893 42.8505C50.1893 42.8505 50.5447 43.2548 51.1511 43.9378C47.4362 48.043 44.4183 51.3676 44.2998 51.507C44.4183 51.6394 47.4362 54.964 51.1511 59.0622C50.5447 59.7452 50.1893 60.1564 50.1893 60.1564C48.6071 61.9756 47.7707 64.1641 47.7707 66.492C47.7707 70.6459 50.5029 74.2145 54.4199 75.8105C55.4375 80.4733 59.9678 84 65.3833 84C70.7988 84 75.3222 80.4733 76.3468 75.8105ZM71.8164 75.0648C70.1785 75.0648 68.5615 74.6675 67.1467 73.9217C66.9167 73.8032 66.7076 73.6778 66.4985 73.5384C67.6694 72.256 69.6419 70.0674 71.914 67.5653L72.7016 68.4714C74.0328 70.0047 74.7368 71.8517 74.7368 73.8172C74.7368 74.096 74.7298 74.3748 74.6949 74.6535C73.7889 74.9254 72.8201 75.0787 71.8234 75.0787L71.8164 75.0648ZM56.2948 55.8561V62.1149L55.2911 61.0137V56.9991C55.6187 56.6297 55.9463 56.2464 56.2948 55.8561ZM56.8245 55.2567C57.159 54.8873 57.4866 54.497 57.8281 54.1206V63.8016L56.8245 62.7004V55.2567ZM58.3578 53.5143C58.5599 53.2773 58.7621 53.0543 58.9642 52.8173C59.8075 53.7791 60.63 54.7131 61.3897 55.5773C61.2294 55.3961 61.0621 55.2079 60.8948 55.0197V62.5959C60.5533 62.9792 60.2187 63.3625 59.8912 63.7389V53.8767C59.7169 53.6815 59.5427 53.4794 59.3615 53.2773V64.3453C59.1942 64.5404 59.0199 64.7356 58.8596 64.9168L58.3578 64.3801V53.5143ZM61.7939 49.5973C62.1424 49.193 62.4839 48.8166 62.7906 48.4542V54.5388C62.4839 54.1834 62.1424 53.807 61.7939 53.4027V49.5973ZM61.2642 52.8033C60.8948 52.3852 60.5045 51.9461 60.1142 51.507C60.5045 51.0609 60.8948 50.6288 61.2642 50.2036V52.8033ZM56.8245 40.2926L57.8281 39.2053V48.8863C57.4866 48.503 57.159 48.1336 56.8245 47.7503V40.2926ZM56.2948 47.1439C55.9532 46.7606 55.6187 46.3703 55.2911 46.0009V41.9863L56.2948 40.8851V47.1439ZM58.3578 38.6129L58.8596 38.0693C59.0199 38.2505 59.1942 38.4526 59.3615 38.6408V49.7157C59.229 49.8621 59.0966 50.0154 58.9642 50.1688C58.7621 49.9388 58.5599 49.7227 58.3578 49.4857V38.6059V38.6129ZM75.4755 41.9793V46.0009L74.4789 47.1369V40.8781L75.4755 41.9723V41.9793ZM73.9492 40.2996V47.7433L72.9455 48.8863V39.1914L73.9492 40.2926V40.2996ZM72.4158 38.6199V49.4927L71.8164 50.1757C71.677 50.0294 71.5446 49.876 71.4122 49.7297V38.6478C71.5864 38.4526 71.7537 38.2575 71.914 38.0762L72.4089 38.6199H72.4158ZM75.4755 56.9991V61.0207L75.8449 60.6164L74.458 62.1359L74.4719 62.1219V55.8631L75.4686 57.0061L75.4755 56.9991ZM73.9492 55.2567V62.7004L72.9455 63.8016V54.1137L72.4158 53.5073V64.3801L71.921 64.9238C71.7537 64.7356 71.5864 64.5474 71.4191 64.3453V53.2773C71.5446 53.124 71.684 52.9706 71.8234 52.8173L73.9561 55.2497L73.9492 55.2567ZM61.4245 47.3739V40.9966C61.766 41.3869 62.1006 41.7632 62.4282 42.1396V46.2378C61.6685 47.1091 60.8042 48.0848 59.8912 49.1163V39.2472C60.3303 39.749 60.7833 40.2647 61.2363 40.7805C61.1178 40.6481 61.0063 40.5226 60.8948 40.3902V47.9663C61.0691 47.7642 61.2503 47.5621 61.4245 47.36V47.3739ZM65.1812 57.264C65.1812 57.264 65.0697 57.1246 64.8606 56.8946V46.1054C65.0697 45.8684 65.1812 45.736 65.1812 45.736L65.3833 45.513L65.9897 46.203L65.8573 46.0566V56.9504L65.3833 57.494L65.1812 57.264ZM66.394 56.344V46.663L67.3976 47.806V55.2079L67.8646 54.6782L65.9967 56.804L66.4009 56.344H66.394ZM69.8788 40.3972C70.2134 40.0069 70.5619 39.6235 70.8825 39.2541V49.1233C70.541 48.733 70.2064 48.3566 69.8788 47.9803V40.4041V40.3972ZM69.3422 47.3739C68.9937 46.9836 68.6591 46.6003 68.3525 46.2378V42.1396C68.6661 41.7702 69.0076 41.3869 69.3422 41.0035V47.3739ZM67.8158 45.6315C67.3349 45.0739 66.9097 44.593 66.5473 44.1887C66.9167 43.7636 67.3488 43.2687 67.8158 42.739V45.6315ZM62.5188 46.1333C62.6651 45.959 62.8115 45.7918 62.9579 45.6315V42.746C63.4248 43.2757 63.857 43.7705 64.2264 44.1887C63.7594 44.7184 63.1809 45.3805 62.5188 46.1333ZM64.3309 46.7118V56.2952C64.0451 55.9746 63.7176 55.5843 63.3273 55.1522V47.8478C63.7106 47.4087 64.0451 47.0254 64.3309 46.7048V46.7118ZM62.4491 56.797C62.4491 56.797 62.4351 56.7761 62.4212 56.7691V60.8604C62.0936 61.2298 61.7591 61.6131 61.4175 61.9965V55.6261C61.773 56.0373 62.1215 56.4276 62.4491 56.797ZM62.9579 60.254V57.3755C63.4388 57.9192 63.8639 58.414 64.2264 58.8183C63.7873 59.3201 63.2506 59.9264 62.6721 60.5816C62.7697 60.4701 62.8673 60.3586 62.9579 60.254ZM67.8158 57.3755V60.254C67.3488 59.7313 66.9167 59.2364 66.5473 58.8183C66.9097 58.414 67.3349 57.9261 67.8158 57.3755ZM68.3525 56.7691C68.6661 56.4067 69.0006 56.0303 69.3422 55.6261V62.0034C69.0076 61.6201 68.6661 61.2368 68.3525 60.8674V56.7691ZM69.8788 55.0267C70.2064 54.6573 70.541 54.274 70.8825 53.8837V63.7459C70.5619 63.3695 70.2203 63.0001 69.8788 62.6098V55.0267ZM67.9273 54.6015V48.4054L67.76 48.2103L70.6525 51.5L67.9273 54.6015ZM65.3833 42.8575L65.1812 42.6345C65.1812 42.6345 62.1424 39.1705 60.0375 36.7729L65.3833 30.8974L70.7361 36.7729L65.3833 42.8505V42.8575ZM65.1812 60.3655L65.3833 60.1355L70.7361 66.2271L65.3833 72.0887L60.0375 66.2271C62.1424 63.8225 65.1812 60.3655 65.1812 60.3655ZM79.1207 61.1531C80.4589 62.6795 81.1629 64.5335 81.1629 66.492C81.1629 69.6283 79.3089 72.3744 76.5628 73.8729V73.7963C76.5628 71.4753 75.7265 69.2799 74.1443 67.4608C74.1443 67.4608 73.7331 67.0008 73.0919 66.255C74.8274 64.3383 76.6813 62.2892 78.4307 60.3586L79.1207 61.1531ZM76.0122 60.4352V57.6055L77.2737 59.0483L76.0122 60.4352ZM84.1529 51.507L78.4586 57.7519C77.0089 56.1 74.9877 53.807 72.9734 51.507C74.9877 49.2069 77.0089 46.9139 78.4586 45.2621L84.1529 51.507ZM77.2737 43.9587L75.9913 45.4224L76.0122 45.4015V42.5717L77.2737 43.9587ZM81.1629 36.508C81.1629 38.4665 80.4589 40.3135 79.1207 41.8538L78.4307 42.6414C76.6813 40.7038 74.8274 38.6617 73.0919 36.745C73.7401 36.0062 74.1443 35.5323 74.1443 35.5323C75.7265 33.7132 76.5628 31.5247 76.5628 29.2037V29.1271C79.3089 30.6186 81.1629 33.3716 81.1629 36.5011V36.508ZM74.688 28.3534C74.7228 28.6322 74.7298 28.911 74.7298 29.1968C74.7298 31.1553 74.0258 33.0092 72.6946 34.5356L71.907 35.4417C69.6349 32.9395 67.6555 30.758 66.4915 29.4686C66.7006 29.3292 66.9097 29.2037 67.1397 29.0783C68.5615 28.3325 70.1785 27.9283 71.8095 27.9283C72.8131 27.9283 73.7819 28.0746 74.681 28.3465L74.688 28.3534ZM56.4899 26.5692C57.6957 23.1191 61.2294 20.624 65.3833 20.624C69.5373 20.624 73.064 23.1191 74.2837 26.5692C73.4822 26.4019 72.6598 26.3182 71.8095 26.3182C69.5513 26.3182 67.3767 26.9176 65.5158 28.0746L65.3764 28.1652L65.237 28.0746C63.383 26.9176 61.2084 26.3182 58.9502 26.3182C58.1069 26.3182 57.2775 26.4019 56.4829 26.5692H56.4899ZM58.9572 27.9352C60.5951 27.9352 62.2121 28.3325 63.627 29.0852C63.85 29.2107 64.0661 29.3362 64.2821 29.4756C63.1112 30.758 61.1387 32.9395 58.8666 35.4486C58.3857 34.8911 58.079 34.5426 58.079 34.5426C56.7478 33.0162 56.0369 31.1622 56.0369 29.2037C56.0369 28.918 56.0508 28.6322 56.0857 28.3604C56.9917 28.0886 57.9536 27.9422 58.9572 27.9422V27.9352ZM51.6459 41.8538C50.3147 40.3205 49.6108 38.4735 49.6108 36.508C49.6108 33.3716 51.4577 30.6256 54.2038 29.134C54.2038 29.1619 54.2038 29.1828 54.2038 29.2107C54.2038 31.5316 55.0472 33.7201 56.6223 35.5392C56.6223 35.5392 57.0336 36.0132 57.6817 36.752C55.9463 38.6687 54.0993 40.7108 52.3359 42.6484C51.9038 42.1466 51.6459 41.8608 51.6459 41.8608V41.8538ZM54.7614 42.5578V45.4015C54.3014 44.8787 53.8763 44.3978 53.4929 43.9517L54.7614 42.5578ZM46.6207 51.507L46.781 51.3327L52.315 45.2621C53.7647 46.9139 55.779 49.2069 57.8002 51.507C55.779 53.807 53.7647 56.1 52.315 57.7519L46.6207 51.507ZM53.4929 59.0483C53.939 58.5395 54.4617 57.947 55.0123 57.3198C54.9287 57.4173 54.8451 57.5149 54.7614 57.6055V60.4352L53.4929 59.0483ZM49.6108 66.492C49.6108 64.5265 50.3077 62.6795 51.6459 61.1531C51.6459 61.1531 51.8968 60.8534 52.3359 60.3586C54.0923 62.2962 55.9463 64.3383 57.6817 66.255C57.0405 66.9938 56.6223 67.4608 56.6223 67.4608C55.0472 69.2799 54.2038 71.4753 54.2038 73.7963C54.2038 73.8311 54.2038 73.8451 54.2038 73.8729C51.4577 72.3744 49.6108 69.6283 49.6108 66.492ZM56.0787 74.6396C56.0439 74.3608 56.0299 74.082 56.0299 73.8032C56.0299 71.8378 56.7339 69.9908 58.0721 68.4574C58.0721 68.4574 58.3787 68.1089 58.8596 67.5514C61.1318 70.0535 63.1042 72.242 64.2751 73.5244C64.0591 73.6638 63.843 73.7893 63.62 73.9078C62.2051 74.6535 60.5881 75.0508 58.9502 75.0508C57.9466 75.0508 56.9778 74.8975 56.0787 74.6257V74.6396ZM56.4899 76.4308C57.2845 76.5911 58.1069 76.6887 58.9572 76.6887C61.2224 76.6887 63.39 76.0754 65.2439 74.9254L65.3833 74.8417L65.5227 74.9254C67.3837 76.0823 69.5513 76.6887 71.8164 76.6887C72.6667 76.6887 73.4892 76.5981 74.2907 76.4308C73.071 79.8739 69.5443 82.3691 65.3903 82.3691C61.2363 82.3691 57.7027 79.8739 56.4969 76.4308H56.4899Z" fill="#0E4954"/>
<path d="M69.1958 49.5485V53.4585L69.7255 52.8521V50.1479L69.1958 49.5485Z" fill="#0E4954"/>
</g>
<path d="M70.1367 58.3373C70.534 58.3373 70.6595 58.0307 70.6595 57.731V53.7791C70.6595 53.2912 70.4225 53.1658 70.1367 53.1658V53.0403H72.0116C73.7749 53.0403 74.2837 54.4343 74.2837 55.6749C74.2837 57.1525 73.6774 58.4001 72.0883 58.4628H70.1437V58.3443L70.1367 58.3373ZM71.5586 57.717C71.5586 58.0376 71.6701 58.2537 71.9767 58.2537C72.7783 58.2537 73.3498 57.5776 73.3498 55.654C73.3498 54.9291 73.1128 53.2355 72.0186 53.2355C71.7955 53.2355 71.6631 53.2355 71.5586 53.2564V57.717Z" fill="#0E4954"/>
<path d="M75.2456 53.0403H78.5632V54.2043C78.5632 54.2043 78.5075 54.2043 78.4447 54.2043C78.3611 53.4237 77.9499 53.2146 77.225 53.2146C77.0508 53.2146 76.8905 53.2146 76.7093 53.2146V55.5773C77.4202 55.5773 77.7547 55.4379 77.8314 54.964H77.9499V56.4485C77.9499 56.4485 77.922 56.4485 77.8314 56.4485C77.7687 55.7655 77.3784 55.7516 76.7093 55.7516V57.7519C76.7093 58.1492 76.7929 58.2746 77.2738 58.2746C78.0475 58.2746 78.4726 58.0725 78.6259 57.1595H78.7305V58.4419H75.2456V58.3234C75.608 58.2816 75.8032 58.1701 75.8032 57.6752V53.7931C75.8032 53.2634 75.5383 53.1797 75.2456 53.1518V53.0264V53.0403Z" fill="#0E4954"/>
<path d="M11.061 62.3728H7.36704V62.2334C8.08492 62.1428 8.41947 61.8222 8.41947 60.7489V48.0569H8.32886L5.26914 62.3728H4.94853L1.63789 48.0151H1.5682V60.3516C1.5682 61.4877 1.78426 62.1498 2.76003 62.2265V62.3659H0V62.2265C0.926978 62.115 1.08031 61.6062 1.08031 60.6583V48.1545C1.08031 47.3112 0.87122 46.8442 0.0209093 46.7675V46.5933H3.02488L5.68733 57.9122L8.21038 46.5933H11.054V46.7675C10.3919 46.8303 10.0086 47.1021 10.0086 48.496V60.4561C10.0086 61.7595 10.2734 62.0731 11.054 62.2195V62.3589L11.061 62.3728Z" fill="#0E4954"/>
<path d="M19.2017 59.7104L16.6647 50.7682H16.5253L13.8628 59.9613C13.2704 61.5992 13.361 62.1637 12.455 62.2683V62.3728H15.0547V62.2683C14.4204 62.2334 14.051 61.9895 14.051 61.4807C14.051 61.188 14.3647 60.031 14.6713 58.9437H17.3965C17.6823 60.017 17.9262 61.1113 17.9262 61.3901C17.9262 61.9268 17.6753 62.1568 17.0132 62.2334V62.3728H20.742V62.2334C19.815 62.1637 19.6896 61.4458 19.2087 59.7104M14.755 58.5325C15.1871 57.034 15.7865 54.9919 16.0374 54.0718C16.2465 54.8385 16.8459 56.9504 17.278 58.5325H14.755Z" fill="#0E4954"/>
<path d="M121.831 59.7104L119.294 50.7682H119.155L116.492 59.9613C115.893 61.5992 115.991 62.1637 115.078 62.2683V62.3728H117.677V62.2683C117.05 62.2334 116.688 61.9895 116.688 61.4807C116.688 61.188 116.987 60.031 117.301 58.9437H120.033C120.326 60.017 120.563 61.1113 120.563 61.3901C120.563 61.9268 120.319 62.1568 119.643 62.2334V62.3728H123.379V62.2334C122.445 62.1637 122.319 61.4458 121.838 59.7104M117.385 58.5325C117.81 57.034 118.423 54.9919 118.667 54.0718C118.876 54.8385 119.476 56.9504 119.908 58.5325H117.385Z" fill="#0E4954"/>
<path d="M30.653 62.108C30.423 62.2265 29.9351 62.4216 29.259 62.4216C28.583 62.4216 28.1927 62.1986 27.8302 61.8919C27.2796 61.4319 27.0217 60.4074 26.8405 59.5431C26.5478 58.177 26.3666 57.5079 25.8508 57.2292C25.4187 56.9852 24.4429 57.0758 24.4429 57.0758V60.4701C24.4429 61.7734 24.5614 62.1637 25.3838 62.2334V62.3728H22.0175V62.2334C22.8259 62.1428 22.9584 61.7874 22.9584 60.4701V53.2843C22.9584 51.8833 22.7075 51.5139 22.0175 51.5139V51.3746H25.3281C26.0808 51.3746 28.8827 51.3815 28.8827 54.1137C28.8827 56.0722 27.2308 56.6088 26.6733 56.797C26.6733 56.797 26.5687 56.8876 26.6733 56.9364C27.8093 57.494 28.0184 58.2886 28.4436 59.6616C28.8269 60.9022 29.1545 62.0592 29.97 62.0592C30.2 62.0592 30.3812 62.0383 30.5694 61.9407C30.5694 61.9407 30.646 62.0522 30.646 62.108M24.4499 56.6855C26.2342 56.6855 27.2936 56.4207 27.2936 54.3088C27.2936 52.3503 26.3805 51.737 25.2305 51.737H24.4499V56.6855Z" fill="#0E4954"/>
<path d="M39.8322 56.9085C39.8322 60.3307 38.02 62.6934 35.8524 62.6865C33.5524 62.6795 31.8727 60.3307 31.8727 56.9085C31.8727 53.4864 33.6848 51.1306 35.8524 51.1306C38.02 51.1306 39.8322 53.3609 39.8322 56.9085ZM33.5663 56.9085C33.5663 59.0413 33.9288 62.3031 35.8524 62.3031C37.7761 62.3031 38.1385 59.0134 38.1385 56.9085C38.1385 54.0231 37.4206 51.5558 35.8524 51.5558C34.2842 51.5558 33.5663 54.0579 33.5663 56.9085Z" fill="#0E4954"/>
<path d="M49.7014 51.5139C49.081 51.5139 48.865 52.0924 48.865 53.1727V58.3583C48.865 60.3307 48.9347 60.7698 48.4607 61.4807C47.8404 62.4077 46.5092 62.4913 45.861 62.4913C45.394 62.4913 44.0698 62.5471 43.4495 61.6898C42.9964 61.0695 42.9407 60.4701 42.9407 58.7207V53.2843C42.9407 51.9182 42.7874 51.5139 42.0625 51.5139V51.3746H45.4847V51.5139C44.6204 51.5139 44.4462 51.8485 44.4462 53.2843V58.7207C44.4462 59.7871 44.4043 60.6165 44.6413 61.1183C44.8713 61.5922 45.4568 61.878 46.2025 61.878C46.9483 61.878 47.6174 61.6619 47.945 61.2786C48.3841 60.7698 48.3632 59.9892 48.3632 58.3583V53.3958C48.3632 52.3991 48.2586 51.4303 47.3107 51.5139V51.3746H49.6944V51.5139H49.7014Z" fill="#0E4954"/>
<path d="M51.9944 51.3815H58.2044V53.7931C58.2044 53.7931 58.2044 53.7861 58.079 53.7861C57.7096 52.1203 57.2287 51.6603 55.2981 51.6603C55.0611 51.6603 54.622 51.6743 54.4129 51.6882V56.1697C54.629 56.1697 55.2423 56.1628 55.4235 56.1628C56.7129 56.1837 57.0196 55.9119 57.145 55.1382H57.2635V58.0376H57.1172C57.0893 56.9782 56.4899 56.581 55.5768 56.581H54.4199V61.1043C54.4199 61.9128 54.622 62.0731 55.4235 62.0731C56.9569 62.0731 57.7166 61.7525 58.1626 59.8986H58.2881V62.3728H52.0014V62.2195C52.7402 62.1219 52.9423 61.8292 52.9423 60.8186V52.9427C52.9423 51.8624 52.6217 51.5139 52.0014 51.5139V51.3746L51.9944 51.3815Z" fill="#0E4954"/>
<path d="M65.8991 54.0091C65.5646 52.0785 64.8049 51.5906 63.62 51.5906C63.0624 51.5906 62.2957 51.8903 62.2957 52.9288C62.2957 54.2321 63.3551 55.0128 64.5958 56.114C65.9131 57.2779 66.6588 57.9958 66.6588 59.5152C66.6588 60.951 65.6203 62.568 63.6548 62.568C62.6373 62.568 62.3585 62.2892 62.0309 62.2892C61.773 62.2892 61.55 62.3449 61.4385 62.5192H61.3269V59.4595H61.4524C61.7103 61.0346 62.5048 62.1637 63.6479 62.1637C64.9303 62.1637 65.6064 61.3274 65.6064 60.3028C65.6064 59.2086 64.8536 58.5743 63.613 57.4661C62.3724 56.3719 61.2294 55.3403 61.2294 53.7303C61.2294 52.4409 62.0448 51.2351 63.7594 51.2351C64.6167 51.2351 65.0488 51.5558 65.3624 51.5558C65.5506 51.5558 65.8224 51.4791 65.934 51.3676H66.0455V54.0161H65.9061L65.8991 54.0091Z" fill="#0E4954"/>
<path d="M105.153 54.0091C104.811 52.0785 104.052 51.5906 102.867 51.5906C102.309 51.5906 101.556 51.8903 101.556 52.9288C101.556 54.2321 102.595 55.0128 103.843 56.114C105.153 57.2779 105.899 57.9958 105.899 59.5152C105.899 60.951 104.867 62.568 102.895 62.568C101.87 62.568 101.591 62.2892 101.264 62.2892C101.013 62.2892 100.797 62.3449 100.671 62.5192H100.56V59.4595H100.685C100.929 61.0346 101.731 62.1637 102.867 62.1637C104.163 62.1637 104.832 61.3274 104.832 60.3028C104.832 59.2086 104.079 58.5743 102.832 57.4661C101.584 56.3719 100.448 55.3403 100.448 53.7303C100.448 52.4409 101.264 51.2351 102.971 51.2351C103.829 51.2351 104.268 51.5558 104.581 51.5558C104.776 51.5558 105.041 51.4791 105.16 51.3676H105.271V54.0161H105.132L105.153 54.0091Z" fill="#0E4954"/>
<path d="M97.9321 62.3728H94.4751V62.2265C95.1512 62.1707 95.4718 61.8222 95.4718 60.8186V52.9427C95.4718 51.8624 95.0048 51.5279 94.4751 51.5139V51.3746H97.9321V51.5139C97.3048 51.5209 96.9215 51.8346 96.9215 52.9427V60.8186C96.9215 61.864 97.2281 62.1777 97.9321 62.2265V62.3728Z" fill="#0E4954"/>
<path d="M114.207 58.8461C114.241 60.6931 113.266 62.4843 111.656 62.4843C109.356 62.4843 108.282 60.017 108.282 56.9713C108.282 53.6676 109.76 51.1794 112.011 51.1794C112.631 51.1794 112.98 51.5139 113.259 51.5139C113.489 51.5139 113.767 51.4651 113.83 51.27H113.983V54.1834C113.983 54.1834 113.9 54.1834 113.837 54.1834C113.67 52.8452 113.133 51.5488 112.13 51.5488C110.568 51.5488 109.941 54.1415 109.941 56.8876C109.941 60.8743 110.666 61.9895 111.879 61.9895C113.182 61.9895 113.844 60.254 113.879 58.8531L114.2 58.8392L114.207 58.8461Z" fill="#0E4954"/>
<path d="M130.774 59.9125L130.718 62.3728H124.633V62.2265C125.261 62.2265 125.553 61.8083 125.553 60.8186V52.9427C125.553 51.8624 125.219 51.5139 124.633 51.5139V51.3746H128.09V51.5139C127.324 51.5209 127.003 51.8485 127.003 53.2843V61.0486C127.003 61.885 127.254 62.0662 128.097 62.0662C129.526 62.0662 130.355 61.3831 130.634 59.9125H130.767H130.774Z" fill="#0E4954"/>
<path d="M32.6533 63.5856C33.0785 63.2998 33.873 62.9653 34.9743 62.9653C36.9885 62.9653 37.8319 63.6204 39.4767 64.3731C40.8358 65.0074 41.8325 65.321 42.9965 65.321C43.9443 65.321 44.6204 65.0283 44.9759 64.7635C45.1362 64.638 45.2128 64.6798 45.0874 64.8541C44.6344 65.4744 43.6447 66.1992 42.1322 66.1992C40.8916 66.1992 39.8322 65.8089 38.1455 64.9725C36.0197 63.9341 35.3855 63.495 33.5664 63.495C33.3294 63.495 32.7858 63.6134 32.6185 63.718C32.493 63.8016 32.5627 63.6413 32.6533 63.5856Z" fill="#0E4954"/>
<path d="M54.9775 49.3882C55.9044 48.6982 57.3193 47.7851 58.4623 47.0881C58.6854 47.4575 58.7342 47.4854 58.9224 47.9036C57.9605 48.2869 55.4514 49.3882 55.1378 49.5206C54.8869 49.6321 54.8172 49.4997 54.9775 49.3882Z" fill="#0E4954"/>
<path d="M93.4436 61.871C93.1718 62.1777 92.6769 62.4356 91.8754 62.4356C91.0739 62.4356 90.4187 62.1428 90.0075 61.7177C89.3523 61.0695 89.3105 59.5292 89.0875 58.3095C88.8505 57.0967 88.7738 56.0164 87.6866 55.0964C87.0384 54.5528 85.2402 54.7967 85.2402 54.7967V59.6755C85.2402 61.5156 85.3029 62.2125 86.3553 62.2125V62.3659H82.5289V62.2125C83.5814 62.0871 83.6371 61.5434 83.6371 59.6755V49.2906C83.6371 47.3112 83.3305 46.7606 82.5289 46.7815V46.6003H86.432C88.2372 46.6003 91.1505 46.9627 91.1505 50.6497C91.1505 53.347 89.0108 54.26 88.3556 54.5179C88.3556 54.5179 88.1675 54.6155 88.3069 54.6573C90.3629 55.2149 90.5581 56.5252 90.9205 58.5116C91.2969 60.5816 91.6663 61.9337 92.6072 61.9337C92.9766 61.9337 93.2136 61.871 93.3599 61.7595C93.4505 61.864 93.3599 61.7734 93.4505 61.864M85.2332 54.3925C86.2856 54.3925 86.6899 54.3994 87.0523 54.3088C88.4393 53.9673 89.4638 52.7894 89.4638 50.8797C89.4638 47.8827 88.1675 47.1091 86.3065 47.1091C85.972 47.1091 85.512 47.13 85.2332 47.1439V54.3925Z" fill="#0E4954"/>
<path d="M33.7057 39.735H37.4484V40.7805C37.4484 40.7805 37.4136 40.7805 37.3578 40.7805C37.1278 40.1184 36.863 39.9093 35.8524 39.9093C35.4621 39.9093 35.469 39.9232 35.3366 39.9302V41.9793C36.2427 41.9793 36.4866 41.8957 36.5912 41.4148C36.6469 41.4148 36.6818 41.4148 36.6818 41.4148V42.8087H36.5912C36.4518 42.1954 36.2706 42.1466 35.3366 42.1466V43.9866C35.3366 44.356 35.4551 44.4118 35.929 44.4118C36.9327 44.4118 37.323 44.1399 37.4972 43.5545C37.56 43.5545 37.5669 43.5545 37.5669 43.5545V44.5581H33.7057V44.4675C34.1169 44.4187 34.333 44.3142 34.333 43.8751V40.4111C34.333 39.9372 34.0333 39.8466 33.7057 39.8256V39.7211V39.735Z" fill="#0E4954"/>
<path d="M44.9828 44.579C44.9828 44.579 44.7877 44.5999 44.5437 44.5999C43.9025 44.5999 43.4983 44.3769 43.1637 43.6311C42.8779 42.9899 42.6828 42.2511 42.3064 42.2511H41.7349V43.7427C41.7349 44.3142 41.8952 44.4257 42.3622 44.4884V44.5721H40.1179V44.4884C40.6058 44.4257 40.7452 44.3142 40.7452 43.7427V40.5784C40.7452 39.9581 40.5222 39.8605 40.1179 39.8326V39.735H42.3552C43.0104 39.735 44.0907 39.8884 44.0907 40.9966C44.0907 41.6726 43.4495 41.9932 42.9546 42.1466C42.9128 42.1675 42.8919 42.1954 42.9546 42.1954C43.6586 42.3417 43.8258 43.0108 44.3834 44.0075C44.5158 44.2375 44.6761 44.5093 44.9828 44.5024V44.579ZM41.7349 42.0769C41.9788 42.0769 42.2716 42.0908 42.4319 42.056C42.9686 41.9514 43.1358 41.6169 43.1358 40.9896C43.1358 40.4041 42.857 39.9163 42.2785 39.9163C42.1322 39.9163 41.9301 39.9163 41.7279 39.9441V42.0769H41.7349Z" fill="#0E4954"/>
<path d="M60.4766 39.735H64.2193V40.7805C64.2193 40.7805 64.1775 40.7805 64.1287 40.7805C63.8987 40.1184 63.6339 39.9093 62.6233 39.9093C62.2329 39.9093 62.2329 39.9232 62.1005 39.9302V41.9793C63.0136 41.9793 63.2505 41.8957 63.362 41.4148C63.4178 41.4148 63.4527 41.4148 63.4527 41.4148V42.8087H63.362C63.2227 42.1954 63.0414 42.1466 62.1005 42.1466V43.9866C62.1005 44.356 62.2329 44.4118 62.6929 44.4118C63.7036 44.4118 64.1008 44.1399 64.2681 43.5545C64.3308 43.5545 64.3378 43.5545 64.3378 43.5545V44.5581H60.4766V44.4675C60.8808 44.4187 61.1038 44.3142 61.1038 43.8751V40.4111C61.1038 39.9372 60.8041 39.8466 60.4766 39.8256V39.7211V39.735Z" fill="#0E4954"/>
<path d="M72.1857 44.579C72.1857 44.579 71.9905 44.5999 71.7466 44.5999C71.1124 44.5999 70.7081 44.3769 70.3736 43.6311C70.0878 42.9899 69.8926 42.2511 69.5163 42.2511H68.9378V43.7427C68.9378 44.3142 69.0981 44.4257 69.572 44.4884V44.5721H67.3208V44.4884C67.8087 44.4257 67.9481 44.3142 67.9481 43.7427V40.5784C67.9481 39.9581 67.725 39.8605 67.3208 39.8326V39.735H69.5581C70.2133 39.735 71.2936 39.8884 71.2936 40.9966C71.2936 41.6726 70.6523 41.9932 70.1645 42.1466C70.1226 42.1675 70.0948 42.1954 70.1645 42.1954C70.8684 42.3417 71.0357 43.0108 71.5933 44.0075C71.7187 44.2375 71.879 44.5093 72.1927 44.5024V44.579H72.1857ZM68.9378 42.0769C69.1817 42.0769 69.4745 42.0908 69.6348 42.056C70.1714 41.9514 70.3387 41.6169 70.3387 40.9896C70.3387 40.4041 70.0599 39.9163 69.4884 39.9163C69.342 39.9163 69.1329 39.9163 68.9378 39.9441V42.0769Z" fill="#0E4954"/>
<path d="M46.9692 39.735H50.705V40.7805C50.705 40.7805 50.6632 40.7805 50.6144 40.7805C50.3635 40.0487 50.1196 39.9093 49.1159 39.9093C48.7256 39.9093 48.7256 39.9232 48.5932 39.9302V41.9793C49.5062 41.9793 49.7502 41.8957 49.8547 41.4148C49.9732 41.4148 49.9384 41.4148 49.9384 41.4148V42.8087H49.8477C49.7084 42.1954 49.5271 42.1466 48.5932 42.1466V43.9866C48.5932 44.356 48.7186 44.4118 49.1856 44.4118C50.1962 44.4118 50.5796 44.1748 50.7538 43.5545C50.8165 43.5545 50.8305 43.5545 50.8305 43.5545V44.5581H46.9692V44.4675C47.3735 44.4187 47.5895 44.3142 47.5895 43.8751V40.4111C47.5895 39.9372 47.2829 39.8466 46.9692 39.8256V39.7211V39.735Z" fill="#0E4954"/>
<path d="M53.4999 44.4814C53.9529 44.4814 54.0993 44.1817 54.0993 43.9239V40.3972C54.0993 39.9581 53.7787 39.8535 53.4999 39.8256V39.735H55.5211C57.4448 39.735 58.0302 40.9269 58.0302 42.0351C58.0302 43.3523 57.403 44.5163 55.5978 44.5721H53.4929V44.4814H53.4999ZM55.089 43.9657C55.089 44.2863 55.1517 44.4118 55.4932 44.4118C56.3017 44.4118 56.922 43.8193 56.922 42.0699C56.922 41.2963 56.7617 39.9232 55.5351 39.9232C55.3538 39.9232 55.2284 39.9093 55.089 39.9163V43.9657Z" fill="#0E4954"/>
<path d="M79.2183 42.1605C79.2183 43.666 78.2216 44.7045 76.751 44.7045C75.2804 44.7045 74.2767 43.666 74.2767 42.1605C74.2767 40.6551 75.371 39.6166 76.751 39.6166C78.131 39.6166 79.2183 40.5993 79.2183 42.1605ZM75.3919 42.1605C75.3919 42.9272 75.5313 44.5302 76.751 44.5302C77.9707 44.5302 78.1031 42.7948 78.1031 42.0839C78.1031 40.9826 77.7546 39.7769 76.751 39.7769C75.7474 39.7769 75.3919 41.0593 75.3919 42.1536" fill="#0E4954"/>
<path d="M85.1147 40.7666C84.8777 40.0069 84.132 39.8117 83.4977 39.8117C83.1283 39.8117 82.745 40.0626 82.745 40.5296C82.745 40.7944 82.8774 41.0732 83.4629 41.3729L84.5292 41.9166C84.8498 42.0839 85.4144 42.4323 85.4144 43.213C85.4144 43.8472 84.8498 44.7115 83.5256 44.7115C82.8565 44.7115 82.5568 44.5163 82.3268 44.5163C82.1735 44.5163 82.0062 44.5999 81.9713 44.7115H81.8877V43.5196H81.9853C82.1874 44.2514 82.8635 44.5093 83.5256 44.5093C84.2923 44.5093 84.5571 44.0284 84.5571 43.673C84.5571 43.0875 84.1738 42.8923 83.7068 42.6693L83.191 42.4184C81.9783 41.8329 81.9574 41.4217 81.9574 40.9199C81.9574 40.3135 82.501 39.6305 83.5256 39.6305C84.0971 39.6305 84.5362 39.8256 84.7523 39.8256C84.9126 39.8256 85.0589 39.756 85.1008 39.6235H85.2053V40.7735H85.1147V40.7666Z" fill="#0E4954"/>
<path d="M31.4615 37.2608V37.1562H29.043V37.2608C29.4542 37.2608 29.6842 37.3723 29.6842 37.8462V40.432H26.5827V37.8462C26.5827 37.3723 26.8197 37.2608 27.2309 37.2608V37.1562H24.8193V37.2608C25.1818 37.2608 25.4466 37.3862 25.4466 37.8462V43.889C25.4466 44.3211 25.2863 44.4048 24.8193 44.4745V44.579H27.2309V44.4745C26.7987 44.4536 26.5827 44.3281 26.5827 43.889V40.892H29.6842V43.889C29.6842 44.3211 29.4751 44.4536 29.043 44.4745V44.579H31.4615V44.4745C30.9806 44.4118 30.8203 44.3211 30.8203 43.889V37.8462C30.8203 37.3862 31.0921 37.2608 31.4615 37.2608Z" fill="#0E4954"/>
<path d="M99.0682 39.735H102.811V40.7805C102.811 40.7805 102.769 40.7805 102.72 40.7805C102.49 40.1184 102.226 39.9093 101.222 39.9093C100.818 39.9093 100.818 39.9232 100.699 39.9302V41.9793C101.605 41.9793 101.849 41.8957 101.947 41.4148C102.009 41.4148 102.044 41.4148 102.044 41.4148V42.8087H101.947C101.814 42.1954 101.633 42.1466 100.699 42.1466V43.9866C100.699 44.356 100.818 44.4118 101.292 44.4118C102.295 44.4118 102.693 44.1399 102.86 43.5545C102.923 43.5545 102.936 43.5545 102.936 43.5545V44.5581H99.0752V44.4675C99.4794 44.4187 99.7095 44.3142 99.7095 43.8751V40.4111C99.7095 39.9372 99.4098 39.8466 99.0752 39.8256V39.7211L99.0682 39.735Z" fill="#0E4954"/>
<path d="M92.4469 44.4814C92.886 44.4814 93.0324 44.1817 93.0324 43.9239V40.3972C93.0324 39.9581 92.7187 39.8535 92.4469 39.8256V39.735H94.4542C96.3918 39.735 96.9703 40.9269 96.9703 42.0351C96.9703 43.3523 96.336 44.5163 94.5309 44.5721H92.4469V44.4814ZM94.0151 43.9657C94.0151 44.2863 94.0778 44.4118 94.4263 44.4118C95.2348 44.4118 95.8621 43.8193 95.8621 42.0699C95.8621 41.2963 95.6948 39.9232 94.4612 39.9232C94.2869 39.9232 94.1545 39.9093 94.0151 39.9163V43.9657Z" fill="#0E4954"/>
<path d="M109.021 43.5475V44.5721H105.425V44.4954C105.822 44.4396 106.038 44.3211 106.038 43.889V40.425C106.038 39.9511 105.745 39.8466 105.425 39.8256V39.735H107.745V39.8256C107.258 39.8535 107.028 39.9441 107.028 40.5714V44.1051C107.028 44.363 107.244 44.4118 107.55 44.4118C108.345 44.4118 108.819 44.1469 108.958 43.5545H109.021V43.5475Z" fill="#0E4954"/>
</svg>
