<svg width="287" height="104" viewBox="0 0 287 104" fill="none" xmlns="http://www.w3.org/2000/svg">
<line x1="162" y1="21.9846" x2="162.923" y2="81.9775" stroke="#094752" stroke-width="2"/>
<path d="M10.9705 49.055L12.142 47.9393C11.65 47.9393 10.0627 47.9393 9.1841 47.9393C8.18251 50.1537 6.84707 53.0138 6.56593 53.6084L3.8189 47.9337H0.820009L1.99731 49.072C1.99731 49.072 1.15387 56.8309 1.0953 57.4426L0 58.4676H3.03403L1.89188 57.3972L2.70017 50.0008L6.07978 56.4628C6.31407 55.9531 9.03181 50.1084 9.17824 49.7743C9.21338 50.0744 10.2735 57.1934 10.2911 57.4595L9.26024 58.4676H13.331L12.2064 57.3916C12.1888 57.1594 11.0174 49.5477 10.9705 49.055Z" fill="#094752"/>
<path d="M18.8016 47.7241C16.0429 47.7241 13.8113 50.1367 13.8113 53.178C13.8113 56.2193 16.0487 58.6828 18.8016 58.6828C21.5545 58.6828 23.7978 56.2193 23.7978 53.178C23.7978 50.1367 21.5604 47.7241 18.8016 47.7241ZM18.8133 57.9636C17.0445 57.9636 15.8672 55.9021 15.8672 53.1893C15.8672 50.4765 17.0445 48.466 18.8133 48.466C20.5822 48.466 21.7595 50.4765 21.7595 53.1893C21.7595 55.9021 20.5822 57.9636 18.8133 57.9636Z" fill="#094752"/>
<path d="M34.5048 47.9337L34.007 50.0518L35.4771 48.6529H38.1187V57.3123L36.9004 58.4676H41.2113L40.075 57.3972V48.6529H42.7283L44.1868 50.0518L43.6889 47.9337H34.5048Z" fill="#094752"/>
<path d="M27.8334 57.754V53.2346H29.5086L30.4809 54.1748L30.475 51.6149L29.5086 52.538H27.8334V48.6529H31.1252L32.5836 50.0518L32.0799 47.9337H24.694L25.8713 49.055V57.3972L24.7525 58.4676H32.4782L33.1049 55.9871L31.213 57.754H27.8334Z" fill="#094752"/>
<path d="M26.9783 46.8236C27.5113 46.8236 27.9447 46.4159 27.9447 45.9118C27.9447 45.4078 27.5113 45 26.9783 45C26.4453 45 26.0118 45.4078 26.0118 45.9118C26.0118 46.4159 26.4453 46.8236 26.9783 46.8236Z" fill="#094752"/>
<path d="M30.4105 46.8236C30.9435 46.8236 31.377 46.4159 31.377 45.9118C31.377 45.4078 30.9435 45 30.4105 45C29.8775 45 29.4441 45.4078 29.4441 45.9118C29.4441 46.4159 29.8775 46.8236 30.4105 46.8236Z" fill="#094752"/>
<path d="M108.435 47.9337H104.621L105.805 49.055L105.822 57.3916L104.703 58.4676H108.932C112.376 58.4506 114.303 56.1286 114.292 53.0251C114.286 49.7176 111.773 47.928 108.429 47.9337H108.435ZM108.739 57.7767C107.837 57.7767 107.79 57.7371 107.79 57.7371L107.773 48.6416C107.773 48.6416 107.784 48.6246 108.095 48.6246C110.52 48.6246 112.171 50.267 112.177 53.1327C112.183 55.8341 110.936 57.7824 108.745 57.7824L108.739 57.7767Z" fill="#094752"/>
<path d="M100.193 47.9337L101.371 49.055L101.388 55.2338L95.4783 47.9337H92.5907C92.5907 47.9337 93.5161 48.7605 93.9964 49.2702L94.014 57.3916L92.8894 58.4676H96.064L94.9394 57.3916L94.9219 50.301L101.529 58.4676H102.302L102.279 49.055L103.456 47.9337H100.193Z" fill="#094752"/>
<path d="M81.4679 47.9337H77.1336L78.305 49.055V52.7532H74.0937V49.055L75.2827 47.9337H70.9366L72.1139 49.055V57.4086L70.9952 58.4676H75.2183L74.0937 57.3972V53.4895H78.305V57.4086L77.1804 58.4676H81.4035L80.2847 57.3972V49.055L81.4679 47.9337Z" fill="#094752"/>
<path d="M120.688 47.7241C117.929 47.7241 115.697 50.1367 115.697 53.178C115.697 56.2193 117.935 58.6828 120.688 58.6828C123.441 58.6828 125.684 56.2193 125.684 53.178C125.684 50.1367 123.446 47.7241 120.688 47.7241ZM120.699 57.9636C118.931 57.9636 117.753 55.9021 117.753 53.1893C117.753 50.4765 118.931 48.466 120.699 48.466C122.468 48.466 123.646 50.4765 123.646 53.1893C123.646 55.9021 122.468 57.9636 120.699 57.9636Z" fill="#094752"/>
<path d="M137 47.9337H133.738L134.915 49.055L134.932 55.2338L129.023 47.9337H125.883C125.883 47.9337 127.06 48.7605 127.541 49.2702L127.558 57.3916L126.434 58.4676H129.608L128.484 57.3916L128.466 50.301L135.073 58.4676H135.846L135.823 49.055L137 47.9337Z" fill="#094752"/>
<path d="M63.1641 53.5121C62.9591 50.822 63.703 48.9078 65.2786 48.6472C65.4133 48.6246 65.5363 48.6019 65.7764 48.6019C67.4165 48.6189 68.705 50.0405 69.115 50.7314L69.0916 47.9393H65.9287C63.2051 47.9393 60.997 50.1424 61.0028 53.1667C61.0028 56.1909 62.9591 58.6432 65.8526 58.6432C68.0315 58.6432 69.0272 57.5558 69.6949 56.3439C69.6949 56.3439 68.5762 57.2727 66.9889 57.4142C65.0677 57.5841 63.3808 56.4345 63.1583 53.5178L63.1641 53.5121Z" fill="#094752"/>
<path d="M56.1941 53.7217L57.2249 52.7476H54.6946L55.5791 53.7047C55.5146 54.1351 55.4268 54.5259 55.3213 54.8827L52.1702 51.9547C53.1015 51.3657 54.0503 50.7427 54.0445 49.5987C54.0445 48.4717 53.0195 47.6505 51.6079 47.6561C50.1377 47.6561 49.0307 48.5906 49.0307 49.8196C49.0307 50.5502 49.1186 51.3487 50.4423 52.589C49.2533 53.3366 47.83 54.2767 47.8358 55.9474C47.8358 57.5388 49.347 58.6715 51.1803 58.7678C53.2303 58.8754 54.3842 57.9806 55.1046 56.9272L57.3304 59V56.7629L55.8368 55.3697C56.0066 54.8091 56.1121 54.2427 56.1882 53.7217H56.1941ZM50.4306 49.1286C50.5536 48.4264 51.069 48.0809 51.5376 48.0583C52.258 48.0186 52.6739 48.6756 52.6797 49.7176C52.6797 50.5445 52.4455 51.0769 51.8187 51.6319C50.372 50.4426 50.3251 49.7403 50.4306 49.1286ZM51.602 57.7597C50.3427 57.6125 49.4524 56.8422 49.4524 55.4037C49.4524 54.4466 49.8097 53.7783 50.7703 52.9684L50.8172 52.9345L54.5833 56.4401C53.8102 57.5049 52.7266 57.8956 51.602 57.7597Z" fill="#094752"/>
<path d="M87.3075 47.7298H86.8155L83.2192 57.3916L82.0829 58.4676H85.1755L84.0451 57.3916L85.1521 54.3673L87.9752 54.3786L89.1877 57.3859L88.0631 58.462H92.3857L91.2553 57.3859L87.3075 47.7241V47.7298ZM85.3278 53.8576L86.4816 50.7314L87.7585 53.8576H85.3278Z" fill="#094752"/>
<g opacity="0.54">
<path d="M245.381 75.8105C248.371 74.2145 250.46 70.6459 250.46 66.492C250.46 64.171 249.821 61.9756 248.611 60.1564C248.611 60.1564 248.339 59.7452 247.881 59.0622C250.716 54.964 253.029 51.6394 253.12 51.507C253.029 51.3745 250.716 48.05 247.881 43.9378C248.339 43.2548 248.611 42.8505 248.611 42.8505C249.826 41.0314 250.46 38.8359 250.46 36.515C250.46 32.361 248.371 28.7855 245.381 27.1964C244.597 22.5337 241.139 19 236.997 19C232.856 19 229.397 22.5267 228.614 27.1964C225.624 28.7786 223.529 32.361 223.529 36.515C223.529 38.8359 224.174 41.0314 225.379 42.8505C225.379 42.8505 225.651 43.2548 226.114 43.9378C223.274 48.043 220.966 51.3676 220.875 51.507C220.966 51.6394 223.274 54.964 226.114 59.0622C225.651 59.7452 225.379 60.1564 225.379 60.1564C224.169 61.9756 223.529 64.1641 223.529 66.492C223.529 70.6459 225.619 74.2145 228.614 75.8105C229.392 80.4733 232.856 84 236.997 84C241.139 84 244.597 80.4733 245.381 75.8105ZM241.917 75.0648C240.664 75.0648 239.428 74.6675 238.346 73.9217C238.17 73.8032 238.01 73.6778 237.85 73.5384C238.746 72.256 240.254 70.0674 241.991 67.5653L242.594 68.4714C243.611 70.0047 244.15 71.8517 244.15 73.8172C244.15 74.096 244.144 74.3748 244.118 74.6535C243.425 74.9254 242.684 75.0787 241.922 75.0787L241.917 75.0648ZM230.048 55.8561V62.1149L229.28 61.0137V56.9991C229.531 56.6297 229.781 56.2464 230.048 55.8561ZM230.453 55.2567C230.708 54.8873 230.959 54.497 231.22 54.1206V63.8016L230.453 62.7004V55.2567ZM231.625 53.5143C231.78 53.2773 231.934 53.0543 232.089 52.8173C232.734 53.7791 233.363 54.7131 233.944 55.5773C233.821 55.3961 233.693 55.2079 233.565 55.0197V62.5959C233.304 62.9792 233.048 63.3625 232.798 63.7389V53.8767C232.664 53.6815 232.531 53.4794 232.393 53.2773V64.3453C232.265 64.5404 232.131 64.7356 232.009 64.9168L231.625 64.3801V53.5143ZM234.253 49.5973C234.519 49.193 234.78 48.8166 235.015 48.4542V54.5388C234.78 54.1834 234.519 53.807 234.253 53.4027V49.5973ZM233.848 52.8033C233.565 52.3852 233.267 51.9461 232.968 51.507C233.267 51.0609 233.565 50.6288 233.848 50.2036V52.8033ZM230.453 40.2926L231.22 39.2053V48.8863C230.959 48.503 230.708 48.1336 230.453 47.7503V40.2926ZM230.048 47.1439C229.786 46.7606 229.531 46.3703 229.28 46.0009V41.9863L230.048 40.8851V47.1439ZM231.625 38.6129L232.009 38.0693C232.131 38.2505 232.265 38.4526 232.393 38.6408V49.7157C232.291 49.8621 232.19 50.0154 232.089 50.1688C231.934 49.9388 231.78 49.7227 231.625 49.4857V38.6059V38.6129ZM244.715 41.9793V46.0009L243.953 47.1369V40.8781L244.715 41.9723V41.9793ZM243.548 40.2996V47.7433L242.78 48.8863V39.1914L243.548 40.2926V40.2996ZM242.375 38.6199V49.4927L241.917 50.1757C241.81 50.0294 241.709 49.876 241.608 49.7297V38.6478C241.741 38.4526 241.869 38.2575 241.991 38.0762L242.37 38.6199H242.375ZM244.715 56.9991V61.0207L244.997 60.6164L243.937 62.1359L243.947 62.1219V55.8631L244.709 57.0061L244.715 56.9991ZM243.548 55.2567V62.7004L242.78 63.8016V54.1137L242.375 53.5073V64.3801L241.997 64.9238C241.869 64.7356 241.741 64.5474 241.613 64.3453V53.2773C241.709 53.124 241.815 52.9706 241.922 52.8173L243.553 55.2497L243.548 55.2567ZM233.97 47.3739V40.9966C234.231 41.3869 234.487 41.7632 234.738 42.1396V46.2378C234.157 47.1091 233.496 48.0848 232.798 49.1163V39.2472C233.133 39.749 233.48 40.2647 233.826 40.7805C233.736 40.6481 233.65 40.5226 233.565 40.3902V47.9663C233.698 47.7642 233.837 47.5621 233.97 47.36V47.3739ZM236.843 57.264C236.843 57.264 236.758 57.1246 236.598 56.8946V46.1054C236.758 45.8684 236.843 45.736 236.843 45.736L236.997 45.513L237.461 46.203L237.36 46.0566V56.9504L236.997 57.494L236.843 57.264ZM237.77 56.344V46.663L238.538 47.806V55.2079L238.895 54.6782L237.466 56.804L237.776 56.344H237.77ZM240.435 40.3972C240.691 40.0069 240.957 39.6235 241.202 39.2541V49.1233C240.941 48.733 240.686 48.3566 240.435 47.9803V40.4041V40.3972ZM240.025 47.3739C239.758 46.9836 239.502 46.6003 239.268 46.2378V42.1396C239.508 41.7702 239.769 41.3869 240.025 41.0035V47.3739ZM238.857 45.6315C238.49 45.0739 238.165 44.593 237.887 44.1887C238.17 43.7636 238.5 43.2687 238.857 42.739V45.6315ZM234.807 46.1333C234.919 45.959 235.031 45.7918 235.143 45.6315V42.746C235.5 43.2757 235.83 43.7705 236.113 44.1887C235.756 44.7184 235.313 45.3805 234.807 46.1333ZM236.193 46.7118V56.2952C235.974 55.9746 235.724 55.5843 235.425 55.1522V47.8478C235.718 47.4087 235.974 47.0254 236.193 46.7048V46.7118ZM234.754 56.797C234.754 56.797 234.743 56.7761 234.732 56.7691V60.8604C234.482 61.2298 234.226 61.6131 233.965 61.9965V55.6261C234.237 56.0373 234.503 56.4276 234.754 56.797ZM235.143 60.254V57.3755C235.51 57.9192 235.836 58.414 236.113 58.8183C235.777 59.3201 235.367 59.9264 234.924 60.5816C234.999 60.4701 235.073 60.3586 235.143 60.254ZM238.857 57.3755V60.254C238.5 59.7313 238.17 59.2364 237.887 58.8183C238.165 58.414 238.49 57.9261 238.857 57.3755ZM239.268 56.7691C239.508 56.4067 239.763 56.0303 240.025 55.6261V62.0034C239.769 61.6201 239.508 61.2368 239.268 60.8674V56.7691ZM240.435 55.0267C240.686 54.6573 240.941 54.274 241.202 53.8837V63.7459C240.957 63.3695 240.696 63.0001 240.435 62.6098V55.0267ZM238.943 54.6015V48.4054L238.815 48.2103L241.027 51.5L238.943 54.6015ZM236.997 42.8575L236.843 42.6345C236.843 42.6345 234.519 39.1705 232.91 36.7729L236.997 30.8974L241.091 36.7729L236.997 42.8505V42.8575ZM236.843 60.3655L236.997 60.1355L241.091 66.2271L236.997 72.0887L232.91 66.2271C234.519 63.8225 236.843 60.3655 236.843 60.3655ZM247.502 61.1531C248.525 62.6795 249.064 64.5335 249.064 66.492C249.064 69.6283 247.646 72.3744 245.546 73.8729V73.7963C245.546 71.4753 244.907 69.2799 243.697 67.4608C243.697 67.4608 243.382 67.0008 242.892 66.255C244.219 64.3383 245.637 62.2892 246.974 60.3586L247.502 61.1531ZM245.125 60.4352V57.6055L246.09 59.0483L245.125 60.4352ZM251.35 51.507L246.996 57.7519C245.887 56.1 244.342 53.807 242.801 51.507C244.342 49.2069 245.887 46.9139 246.996 45.2621L251.35 51.507ZM246.09 43.9587L245.109 45.4224L245.125 45.4015V42.5717L246.09 43.9587ZM249.064 36.508C249.064 38.4665 248.525 40.3135 247.502 41.8538L246.974 42.6414C245.637 40.7038 244.219 38.6617 242.892 36.745C243.388 36.0062 243.697 35.5323 243.697 35.5323C244.907 33.7132 245.546 31.5247 245.546 29.2037V29.1271C247.646 30.6186 249.064 33.3716 249.064 36.5011V36.508ZM244.112 28.3534C244.139 28.6322 244.144 28.911 244.144 29.1968C244.144 31.1553 243.606 33.0092 242.588 34.5356L241.986 35.4417C240.248 32.9395 238.735 30.758 237.845 29.4686C238.005 29.3292 238.165 29.2037 238.34 29.0783C239.428 28.3325 240.664 27.9283 241.911 27.9283C242.679 27.9283 243.42 28.0746 244.107 28.3465L244.112 28.3534ZM230.197 26.5692C231.119 23.1191 233.821 20.624 236.997 20.624C240.174 20.624 242.871 23.1191 243.803 26.5692C243.19 26.4019 242.562 26.3182 241.911 26.3182C240.185 26.3182 238.522 26.9176 237.099 28.0746L236.992 28.1652L236.885 28.0746C235.468 26.9176 233.805 26.3182 232.078 26.3182C231.433 26.3182 230.799 26.4019 230.191 26.5692H230.197ZM232.083 27.9352C233.336 27.9352 234.572 28.3325 235.654 29.0852C235.825 29.2107 235.99 29.3362 236.155 29.4756C235.26 30.758 233.752 32.9395 232.014 35.4486C231.646 34.8911 231.412 34.5426 231.412 34.5426C230.394 33.0162 229.85 31.1622 229.85 29.2037C229.85 28.918 229.861 28.6322 229.888 28.3604C230.581 28.0886 231.316 27.9422 232.083 27.9422V27.9352ZM226.493 41.8538C225.475 40.3205 224.936 38.4735 224.936 36.508C224.936 33.3716 226.349 30.6256 228.449 29.134C228.449 29.1619 228.449 29.1828 228.449 29.2107C228.449 31.5316 229.094 33.7201 230.298 35.5392C230.298 35.5392 230.612 36.0132 231.108 36.752C229.781 38.6687 228.369 40.7108 227.02 42.6484C226.69 42.1466 226.493 41.8608 226.493 41.8608V41.8538ZM228.875 42.5578V45.4015C228.523 44.8787 228.198 44.3978 227.905 43.9517L228.875 42.5578ZM222.65 51.507L222.773 51.3327L227.004 45.2621C228.113 46.9139 229.653 49.2069 231.199 51.507C229.653 53.807 228.113 56.1 227.004 57.7519L222.65 51.507ZM227.905 59.0483C228.246 58.5395 228.646 57.947 229.067 57.3198C229.003 57.4173 228.939 57.5149 228.875 57.6055V60.4352L227.905 59.0483ZM224.936 66.492C224.936 64.5265 225.469 62.6795 226.493 61.1531C226.493 61.1531 226.685 60.8534 227.02 60.3586C228.363 62.2962 229.781 64.3383 231.108 66.255C230.618 66.9938 230.298 67.4608 230.298 67.4608C229.094 69.2799 228.449 71.4753 228.449 73.7963C228.449 73.8311 228.449 73.8451 228.449 73.8729C226.349 72.3744 224.936 69.6283 224.936 66.492ZM229.882 74.6396C229.856 74.3608 229.845 74.082 229.845 73.8032C229.845 71.8378 230.383 69.9908 231.407 68.4574C231.407 68.4574 231.641 68.1089 232.009 67.5514C233.746 70.0535 235.255 72.242 236.15 73.5244C235.985 73.6638 235.82 73.7893 235.649 73.9078C234.567 74.6535 233.331 75.0508 232.078 75.0508C231.311 75.0508 230.57 74.8975 229.882 74.6257V74.6396ZM230.197 76.4308C230.804 76.5911 231.433 76.6887 232.083 76.6887C233.816 76.6887 235.473 76.0754 236.891 74.9254L236.997 74.8417L237.104 74.9254C238.527 76.0823 240.185 76.6887 241.917 76.6887C242.567 76.6887 243.196 76.5981 243.809 76.4308C242.876 79.8739 240.179 82.3691 237.003 82.3691C233.826 82.3691 231.124 79.8739 230.202 76.4308H230.197Z" fill="#094752"/>
<path d="M239.913 49.5485V53.4585L240.318 52.8521V50.1479L239.913 49.5485Z" fill="#094752"/>
</g>
<path d="M240.632 58.3373C240.936 58.3373 241.032 58.0306 241.032 57.7309V53.7791C241.032 53.2912 240.851 53.1657 240.632 53.1657V53.0403H242.066C243.414 53.0403 243.803 54.4342 243.803 55.6749C243.803 57.1524 243.34 58.4 242.125 58.4628H240.638V58.3443L240.632 58.3373ZM241.719 57.717C241.719 58.0376 241.805 58.2537 242.039 58.2537C242.652 58.2537 243.089 57.5776 243.089 55.654C243.089 54.9291 242.908 53.2354 242.071 53.2354C241.901 53.2354 241.799 53.2354 241.719 53.2564V57.717Z" fill="#094752"/>
<path d="M244.539 53.0403H247.076V54.2042C247.076 54.2042 247.033 54.2042 246.985 54.2042C246.921 53.4236 246.607 53.2145 246.052 53.2145C245.919 53.2145 245.796 53.2145 245.658 53.2145V55.5773C246.202 55.5773 246.457 55.4379 246.516 54.9639H246.607V56.4485C246.607 56.4485 246.585 56.4485 246.516 56.4485C246.468 55.7655 246.17 55.7515 245.658 55.7515V57.7518C245.658 58.1491 245.722 58.2746 246.09 58.2746C246.681 58.2746 247.006 58.0724 247.124 57.1594H247.204V58.4418H244.539V58.3234C244.816 58.2815 244.965 58.17 244.965 57.6752V53.793C244.965 53.2633 244.763 53.1797 244.539 53.1518V53.0263V53.0403Z" fill="#094752"/>
<path d="M195.458 62.3728H192.633V62.2334C193.182 62.1428 193.438 61.8222 193.438 60.7488V48.0569H193.369L191.029 62.3728H190.784L188.252 48.0151H188.199V60.3516C188.199 61.4876 188.364 62.1498 189.111 62.2264V62.3658H187V62.2264C187.709 62.1149 187.826 61.6061 187.826 60.6582V48.1545C187.826 47.3111 187.666 46.8442 187.016 46.7675V46.5933H189.313L191.349 57.9122L193.278 46.5933H195.453V46.7675C194.946 46.8302 194.653 47.1021 194.653 48.496V60.4561C194.653 61.7595 194.856 62.0731 195.453 62.2195V62.3589L195.458 62.3728Z" fill="#094752"/>
<path d="M201.683 59.7104L199.743 50.7681H199.637L197.601 59.9613C197.148 61.5992 197.217 62.1637 196.524 62.2683V62.3728H198.512V62.2683C198.027 62.2334 197.745 61.9895 197.745 61.4807C197.745 61.1879 197.984 60.031 198.219 58.9437H200.303C200.521 60.017 200.708 61.1113 200.708 61.3901C200.708 61.9267 200.516 62.1567 200.01 62.2334V62.3728H202.861V62.2334C202.152 62.1637 202.056 61.4458 201.688 59.7104M198.283 58.5325C198.613 57.034 199.072 54.9918 199.263 54.0718C199.423 54.8385 199.882 56.9503 200.212 58.5325H198.283Z" fill="#094752"/>
<path d="M280.162 59.7104L278.222 50.7681H278.115L276.079 59.9613C275.621 61.5992 275.696 62.1637 274.998 62.2683V62.3728H276.986V62.2683C276.506 62.2334 276.229 61.9895 276.229 61.4807C276.229 61.1879 276.458 60.031 276.698 58.9437H278.787C279.011 60.017 279.192 61.1113 279.192 61.3901C279.192 61.9267 279.005 62.1567 278.488 62.2334V62.3728H281.345V62.2334C280.631 62.1637 280.535 61.4458 280.167 59.7104M276.762 58.5325C277.087 57.034 277.556 54.9918 277.742 54.0718C277.902 54.8385 278.361 56.9503 278.691 58.5325H276.762Z" fill="#094752"/>
<path d="M210.44 62.108C210.264 62.2264 209.891 62.4216 209.374 62.4216C208.857 62.4216 208.558 62.1986 208.281 61.8919C207.86 61.4319 207.663 60.4073 207.524 59.5431C207.3 58.177 207.162 57.5079 206.767 57.2291C206.437 56.9852 205.691 57.0758 205.691 57.0758V60.4701C205.691 61.7734 205.781 62.1637 206.41 62.2334V62.3728H203.836V62.2334C204.454 62.1428 204.556 61.7873 204.556 60.4701V53.2842C204.556 51.8833 204.364 51.5139 203.836 51.5139V51.3745H206.368C206.943 51.3745 209.086 51.3815 209.086 54.1136C209.086 56.0721 207.823 56.6088 207.396 56.797C207.396 56.797 207.316 56.8876 207.396 56.9364C208.265 57.494 208.425 58.2885 208.75 59.6616C209.043 60.9022 209.294 62.0592 209.917 62.0592C210.093 62.0592 210.232 62.0383 210.376 61.9407C210.376 61.9407 210.434 62.0522 210.434 62.108M205.696 56.6855C207.061 56.6855 207.871 56.4206 207.871 54.3088C207.871 52.3503 207.173 51.7369 206.293 51.7369H205.696V56.6855Z" fill="#094752"/>
<path d="M217.459 56.9085C217.459 60.3307 216.073 62.6934 214.416 62.6864C212.657 62.6795 211.372 60.3307 211.372 56.9085C211.372 53.4864 212.758 51.1306 214.416 51.1306C216.073 51.1306 217.459 53.3609 217.459 56.9085ZM212.668 56.9085C212.668 59.0413 212.945 62.3031 214.416 62.3031C215.887 62.3031 216.164 59.0134 216.164 56.9085C216.164 54.023 215.615 51.5557 214.416 51.5557C213.216 51.5557 212.668 54.0579 212.668 56.9085Z" fill="#094752"/>
<path d="M225.006 51.5139C224.531 51.5139 224.366 52.0924 224.366 53.1727V58.3582C224.366 60.3307 224.419 60.7698 224.057 61.4807C223.583 62.4077 222.565 62.4913 222.069 62.4913C221.712 62.4913 220.699 62.547 220.225 61.6898C219.878 61.0695 219.836 60.4701 219.836 58.7207V53.2842C219.836 51.9182 219.719 51.5139 219.164 51.5139V51.3745H221.781V51.5139C221.12 51.5139 220.987 51.8485 220.987 53.2842V58.7207C220.987 59.787 220.955 60.6164 221.136 61.1182C221.312 61.5922 221.76 61.878 222.33 61.878C222.9 61.878 223.412 61.6619 223.663 61.2786C223.998 60.7698 223.982 59.9891 223.982 58.3582V53.3958C223.982 52.3991 223.902 51.4303 223.178 51.5139V51.3745H225V51.5139H225.006Z" fill="#094752"/>
<path d="M226.759 51.3815H231.508V53.793C231.508 53.793 231.508 53.7861 231.412 53.7861C231.129 52.1203 230.762 51.6603 229.285 51.6603C229.104 51.6603 228.768 51.6742 228.609 51.6882V56.1697C228.774 56.1697 229.243 56.1627 229.381 56.1627C230.367 56.1837 230.602 55.9118 230.698 55.1382H230.788V58.0376H230.676C230.655 56.9782 230.197 56.5809 229.499 56.5809H228.614V61.1043C228.614 61.9128 228.768 62.0731 229.381 62.0731C230.554 62.0731 231.135 61.7525 231.476 59.8985H231.572V62.3728H226.764V62.2195C227.329 62.1219 227.484 61.8292 227.484 60.8185V52.9427C227.484 51.8624 227.239 51.5139 226.764 51.5139V51.3745L226.759 51.3815Z" fill="#094752"/>
<path d="M237.392 54.0091C237.136 52.0785 236.555 51.5906 235.649 51.5906C235.223 51.5906 234.636 51.8903 234.636 52.9288C234.636 54.2321 235.446 55.0127 236.395 56.114C237.402 57.2779 237.973 57.9958 237.973 59.5152C237.973 60.951 237.179 62.568 235.676 62.568C234.898 62.568 234.684 62.2892 234.434 62.2892C234.237 62.2892 234.066 62.3449 233.981 62.5192H233.896V59.4595H233.991C234.189 61.0346 234.796 62.1637 235.67 62.1637C236.651 62.1637 237.168 61.3273 237.168 60.3028C237.168 59.2085 236.592 58.5743 235.644 57.4661C234.695 56.3718 233.821 55.3403 233.821 53.7303C233.821 52.4409 234.444 51.2351 235.756 51.2351C236.411 51.2351 236.742 51.5557 236.981 51.5557C237.125 51.5557 237.333 51.4791 237.418 51.3676H237.504V54.0161H237.397L237.392 54.0091Z" fill="#094752"/>
<path d="M267.408 54.0091C267.147 52.0785 266.566 51.5906 265.66 51.5906C265.234 51.5906 264.658 51.8903 264.658 52.9288C264.658 54.2321 265.452 55.0127 266.406 56.114C267.408 57.2779 267.979 57.9958 267.979 59.5152C267.979 60.951 267.19 62.568 265.681 62.568C264.898 62.568 264.685 62.2892 264.434 62.2892C264.242 62.2892 264.077 62.3449 263.981 62.5192H263.896V59.4595H263.992C264.179 61.0346 264.791 62.1637 265.66 62.1637C266.651 62.1637 267.163 61.3273 267.163 60.3028C267.163 59.2085 266.588 58.5743 265.634 57.4661C264.68 56.3718 263.811 55.3403 263.811 53.7303C263.811 52.4409 264.434 51.2351 265.74 51.2351C266.396 51.2351 266.731 51.5557 266.971 51.5557C267.121 51.5557 267.323 51.4791 267.414 51.3676H267.499V54.0161H267.392L267.408 54.0091Z" fill="#094752"/>
<path d="M261.887 62.3728H259.243V62.2264C259.76 62.1707 260.005 61.8222 260.005 60.8185V52.9427C260.005 51.8624 259.648 51.5279 259.243 51.5139V51.3745H261.887V51.5139C261.407 51.5209 261.114 51.8345 261.114 52.9427V60.8185C261.114 61.864 261.348 62.1777 261.887 62.2264V62.3728Z" fill="#094752"/>
<path d="M274.331 58.8461C274.358 60.6931 273.612 62.4843 272.381 62.4843C270.622 62.4843 269.801 60.017 269.801 56.9712C269.801 53.6676 270.931 51.1794 272.653 51.1794C273.127 51.1794 273.393 51.5139 273.607 51.5139C273.782 51.5139 273.996 51.4651 274.044 51.27H274.161V54.1833C274.161 54.1833 274.097 54.1833 274.049 54.1833C273.921 52.8451 273.511 51.5488 272.743 51.5488C271.549 51.5488 271.07 54.1415 271.07 56.8876C271.07 60.8743 271.624 61.9895 272.551 61.9895C273.548 61.9895 274.054 60.254 274.081 58.8531L274.326 58.8391L274.331 58.8461Z" fill="#094752"/>
<path d="M287 59.9125L286.957 62.3728H282.305V62.2264C282.784 62.2264 283.008 61.8083 283.008 60.8185V52.9427C283.008 51.8624 282.752 51.5139 282.305 51.5139V51.3745H284.948V51.5139C284.362 51.5209 284.117 51.8485 284.117 53.2842V61.0486C284.117 61.8849 284.309 62.0661 284.954 62.0661C286.046 62.0661 286.68 61.3831 286.893 59.9125H286.995H287Z" fill="#094752"/>
<path d="M211.969 63.5855C212.294 63.2998 212.902 62.9652 213.744 62.9652C215.284 62.9652 215.929 63.6204 217.187 64.3731C218.226 65.0074 218.988 65.321 219.879 65.321C220.603 65.321 221.12 65.0283 221.392 64.7634C221.515 64.638 221.573 64.6798 221.477 64.854C221.131 65.4743 220.374 66.1992 219.218 66.1992C218.269 66.1992 217.459 65.8089 216.169 64.9725C214.544 63.934 214.059 63.4949 212.668 63.4949C212.486 63.4949 212.071 63.6134 211.943 63.718C211.847 63.8016 211.9 63.6413 211.969 63.5855Z" fill="#094752"/>
<path d="M229.04 49.3881C229.749 48.6981 230.831 47.7851 231.705 47.0881C231.875 47.4575 231.913 47.4854 232.057 47.9036C231.321 48.2869 229.403 49.3881 229.163 49.5206C228.971 49.6321 228.918 49.4996 229.04 49.3881Z" fill="#094752"/>
<path d="M258.454 61.871C258.247 62.1776 257.868 62.4355 257.255 62.4355C256.642 62.4355 256.141 62.1428 255.827 61.7176C255.326 61.0694 255.294 59.5291 255.123 58.3094C254.942 57.0967 254.884 56.0164 254.052 55.0964C253.557 54.5527 252.182 54.7967 252.182 54.7967V59.6755C252.182 61.5155 252.229 62.2125 253.034 62.2125V62.3658H250.108V62.2125C250.913 62.087 250.956 61.5434 250.956 59.6755V49.2905C250.956 47.3111 250.721 46.7605 250.108 46.7814V46.6002H253.093C254.473 46.6002 256.701 46.9626 256.701 50.6496C256.701 53.3469 255.065 54.26 254.564 54.5179C254.564 54.5179 254.42 54.6154 254.527 54.6573C256.099 55.2148 256.248 56.5252 256.525 58.5115C256.813 60.5816 257.095 61.9337 257.815 61.9337C258.097 61.9337 258.279 61.871 258.391 61.7594C258.46 61.864 258.391 61.7734 258.46 61.864M252.176 54.3924C252.981 54.3924 253.29 54.3994 253.567 54.3088C254.628 53.9673 255.411 52.7894 255.411 50.8796C255.411 47.8827 254.42 47.109 252.997 47.109C252.741 47.109 252.389 47.1299 252.176 47.1439V54.3924Z" fill="#094752"/>
<path d="M212.774 39.735H215.636V40.7805C215.636 40.7805 215.61 40.7805 215.567 40.7805C215.391 40.1183 215.188 39.9093 214.416 39.9093C214.117 39.9093 214.123 39.9232 214.021 39.9302V41.9793C214.714 41.9793 214.901 41.8956 214.981 41.4147C215.023 41.4147 215.05 41.4147 215.05 41.4147V42.8087H214.981C214.874 42.1953 214.735 42.1465 214.021 42.1465V43.9866C214.021 44.356 214.112 44.4117 214.474 44.4117C215.242 44.4117 215.54 44.1399 215.673 43.5544C215.721 43.5544 215.727 43.5544 215.727 43.5544V44.5581H212.774V44.4675C213.089 44.4187 213.254 44.3141 213.254 43.875V40.4111C213.254 39.9371 213.025 39.8465 212.774 39.8256V39.7211V39.735Z" fill="#094752"/>
<path d="M221.398 44.579C221.398 44.579 221.248 44.5999 221.062 44.5999C220.571 44.5999 220.262 44.3769 220.007 43.6311C219.788 42.9899 219.639 42.2511 219.351 42.2511H218.914V43.7426C218.914 44.3142 219.037 44.4257 219.394 44.4884V44.572H217.677V44.4884C218.051 44.4257 218.157 44.3142 218.157 43.7426V40.5784C218.157 39.958 217.987 39.8605 217.677 39.8326V39.735H219.388C219.889 39.735 220.715 39.8884 220.715 40.9965C220.715 41.6726 220.225 41.9932 219.847 42.1466C219.815 42.1675 219.799 42.1953 219.847 42.1953C220.385 42.3417 220.513 43.0108 220.939 44.0075C221.04 44.2375 221.163 44.5093 221.398 44.5023V44.579ZM218.914 42.0769C219.101 42.0769 219.324 42.0908 219.447 42.0559C219.857 41.9514 219.985 41.6169 219.985 40.9896C219.985 40.4041 219.772 39.9162 219.33 39.9162C219.218 39.9162 219.063 39.9162 218.909 39.9441V42.0769H218.914Z" fill="#094752"/>
<path d="M233.245 39.735H236.107V40.7805C236.107 40.7805 236.075 40.7805 236.038 40.7805C235.862 40.1183 235.66 39.9093 234.887 39.9093C234.588 39.9093 234.588 39.9232 234.487 39.9302V41.9793C235.185 41.9793 235.366 41.8956 235.452 41.4147C235.494 41.4147 235.521 41.4147 235.521 41.4147V42.8087H235.452C235.345 42.1953 235.207 42.1465 234.487 42.1465V43.9866C234.487 44.356 234.588 44.4117 234.94 44.4117C235.713 44.4117 236.017 44.1399 236.145 43.5544C236.193 43.5544 236.198 43.5544 236.198 43.5544V44.5581H233.245V44.4675C233.554 44.4187 233.725 44.3141 233.725 43.875V40.4111C233.725 39.9371 233.496 39.8465 233.245 39.8256V39.7211V39.735Z" fill="#094752"/>
<path d="M242.199 44.579C242.199 44.579 242.05 44.5999 241.863 44.5999C241.378 44.5999 241.069 44.3769 240.813 43.6311C240.595 42.9899 240.446 42.2511 240.158 42.2511H239.715V43.7426C239.715 44.3142 239.838 44.4257 240.2 44.4884V44.572H238.479V44.4884C238.852 44.4257 238.959 44.3142 238.959 43.7426V40.5784C238.959 39.958 238.788 39.8605 238.479 39.8326V39.735H240.19C240.691 39.735 241.517 39.8884 241.517 40.9965C241.517 41.6726 241.027 41.9932 240.653 42.1466C240.622 42.1675 240.6 42.1953 240.653 42.1953C241.192 42.3417 241.32 43.0108 241.746 44.0075C241.842 44.2375 241.965 44.5093 242.204 44.5023V44.579H242.199ZM239.715 42.0769C239.902 42.0769 240.126 42.0908 240.248 42.0559C240.659 41.9514 240.787 41.6169 240.787 40.9896C240.787 40.4041 240.574 39.9162 240.137 39.9162C240.025 39.9162 239.865 39.9162 239.715 39.9441V42.0769Z" fill="#094752"/>
<path d="M222.916 39.735H225.773V40.7805C225.773 40.7805 225.741 40.7805 225.704 40.7805C225.512 40.0487 225.325 39.9093 224.558 39.9093C224.259 39.9093 224.259 39.9232 224.158 39.9302V41.9793C224.856 41.9793 225.043 41.8956 225.123 41.4147C225.213 41.4147 225.187 41.4147 225.187 41.4147V42.8087H225.118C225.011 42.1953 224.872 42.1465 224.158 42.1465V43.9866C224.158 44.356 224.254 44.4117 224.611 44.4117C225.384 44.4117 225.677 44.1747 225.81 43.5544C225.858 43.5544 225.869 43.5544 225.869 43.5544V44.5581H222.916V44.4675C223.226 44.4187 223.391 44.3141 223.391 43.875V40.4111C223.391 39.9371 223.156 39.8465 222.916 39.8256V39.7211V39.735Z" fill="#094752"/>
<path d="M227.91 44.4814C228.257 44.4814 228.369 44.1817 228.369 43.9238V40.3971C228.369 39.9581 228.124 39.8535 227.91 39.8256V39.735H229.456C230.927 39.735 231.375 40.9268 231.375 42.035C231.375 43.3523 230.895 44.5163 229.515 44.572H227.905V44.4814H227.91ZM229.126 43.9657C229.126 44.2863 229.173 44.4117 229.435 44.4117C230.053 44.4117 230.527 43.8193 230.527 42.0699C230.527 41.2962 230.405 39.9232 229.467 39.9232C229.328 39.9232 229.232 39.9093 229.126 39.9162V43.9657Z" fill="#094752"/>
<path d="M247.577 42.1605C247.577 43.666 246.814 44.7045 245.69 44.7045C244.565 44.7045 243.798 43.666 243.798 42.1605C243.798 40.655 244.635 39.6165 245.69 39.6165C246.745 39.6165 247.577 40.5993 247.577 42.1605ZM244.651 42.1605C244.651 42.9272 244.757 44.5302 245.69 44.5302C246.623 44.5302 246.724 42.7947 246.724 42.0838C246.724 40.9826 246.457 39.7768 245.69 39.7768C244.922 39.7768 244.651 41.0593 244.651 42.1535" fill="#094752"/>
<path d="M252.085 40.7665C251.904 40.0068 251.334 39.8117 250.849 39.8117C250.566 39.8117 250.273 40.0626 250.273 40.5296C250.273 40.7944 250.375 41.0732 250.822 41.3729L251.638 41.9166C251.883 42.0838 252.315 42.4323 252.315 43.2129C252.315 43.8472 251.883 44.7114 250.87 44.7114C250.359 44.7114 250.129 44.5163 249.954 44.5163C249.836 44.5163 249.708 44.5999 249.682 44.7114H249.618V43.5196H249.692C249.847 44.2514 250.364 44.5093 250.87 44.5093C251.457 44.5093 251.659 44.0284 251.659 43.6729C251.659 43.0875 251.366 42.8923 251.009 42.6693L250.614 42.4184C249.687 41.8329 249.671 41.4217 249.671 40.9199C249.671 40.3135 250.087 39.6305 250.87 39.6305C251.307 39.6305 251.643 39.8256 251.808 39.8256C251.931 39.8256 252.043 39.7559 252.075 39.6235H252.155V40.7735H252.085V40.7665Z" fill="#094752"/>
<path d="M211.058 37.2607V37.1562H209.209V37.2607C209.523 37.2607 209.699 37.3723 209.699 37.8462V40.432H207.327V37.8462C207.327 37.3723 207.508 37.2607 207.823 37.2607V37.1562H205.979V37.2607C206.256 37.2607 206.459 37.3862 206.459 37.8462V43.889C206.459 44.3211 206.336 44.4048 205.979 44.4745V44.579H207.823V44.4745C207.492 44.4535 207.327 44.3281 207.327 43.889V40.892H209.699V43.889C209.699 44.3211 209.539 44.4535 209.209 44.4745V44.579H211.058V44.4745C210.69 44.4117 210.568 44.3211 210.568 43.889V37.8462C210.568 37.3862 210.776 37.2607 211.058 37.2607Z" fill="#094752"/>
<path d="M262.756 39.735H265.618V40.7805C265.618 40.7805 265.586 40.7805 265.548 40.7805C265.372 40.1183 265.17 39.9093 264.402 39.9093C264.093 39.9093 264.093 39.9232 264.003 39.9302V41.9793C264.696 41.9793 264.882 41.8956 264.957 41.4147C265.005 41.4147 265.031 41.4147 265.031 41.4147V42.8087H264.957C264.855 42.1953 264.717 42.1465 264.003 42.1465V43.9866C264.003 44.356 264.093 44.4117 264.456 44.4117C265.223 44.4117 265.527 44.1399 265.655 43.5544C265.703 43.5544 265.714 43.5544 265.714 43.5544V44.5581H262.761V44.4675C263.07 44.4187 263.246 44.3141 263.246 43.875V40.4111C263.246 39.9371 263.017 39.8465 262.761 39.8256V39.7211L262.756 39.735Z" fill="#094752"/>
<path d="M257.692 44.4814C258.028 44.4814 258.14 44.1817 258.14 43.9238V40.3971C258.14 39.9581 257.9 39.8535 257.692 39.8256V39.735H259.227C260.709 39.735 261.151 40.9268 261.151 42.035C261.151 43.3523 260.666 44.5163 259.286 44.572H257.692V44.4814ZM258.892 43.9657C258.892 44.2863 258.94 44.4117 259.206 44.4117C259.824 44.4117 260.304 43.8193 260.304 42.0699C260.304 41.2962 260.176 39.9232 259.233 39.9232C259.099 39.9232 258.998 39.9093 258.892 39.9162V43.9657Z" fill="#094752"/>
<path d="M270.366 43.5475V44.572H267.616V44.4954C267.92 44.4396 268.085 44.3211 268.085 43.889V40.425C268.085 39.9511 267.861 39.8465 267.616 39.8256V39.735H269.391V39.8256C269.018 39.8535 268.842 39.9441 268.842 40.5714V44.1051C268.842 44.3629 269.007 44.4117 269.242 44.4117C269.849 44.4117 270.212 44.1469 270.318 43.5544H270.366V43.5475Z" fill="#094752"/>
</svg>
