<svg width="287" height="104" viewBox="0 0 287 104" fill="none" xmlns="http://www.w3.org/2000/svg">
<line x1="120" y1="21.9846" x2="120.923" y2="81.9775" stroke="#094752" stroke-width="2"/>
<path d="M143.492 48.6343L144.826 47.3592C144.266 47.3592 142.458 47.3592 141.458 47.3592C140.317 49.89 138.797 53.1586 138.477 53.8382L135.349 47.3528H131.934L133.274 48.6537C133.274 48.6537 132.314 57.521 132.247 58.2201L131 59.3916H134.455L133.154 58.1683L134.075 49.7152L137.923 57.1003C138.19 56.5178 141.284 49.8382 141.451 49.4563C141.491 49.7994 142.698 57.9353 142.718 58.2395L141.545 59.3916H146.18L144.899 58.1618C144.879 57.8964 143.545 49.1974 143.492 48.6343Z" fill="#094752"/>
<path d="M152.409 47.1133C149.268 47.1133 146.727 49.8705 146.727 53.3463C146.727 56.822 149.274 59.6375 152.409 59.6375C155.544 59.6375 158.098 56.822 158.098 53.3463C158.098 49.8705 155.55 47.1133 152.409 47.1133ZM152.422 58.8155C150.408 58.8155 149.068 56.4595 149.068 53.3592C149.068 50.2589 150.408 47.9612 152.422 47.9612C154.437 47.9612 155.777 50.2589 155.777 53.3592C155.777 56.4595 154.437 58.8155 152.422 58.8155Z" fill="#094752"/>
<path d="M170.29 47.3528L169.723 49.7735L171.397 48.1748H174.405V58.0712L173.018 59.3916H177.927L176.633 58.1683V48.1748H179.654L181.315 49.7735L180.748 47.3528H170.29Z" fill="#094752"/>
<path d="M162.694 58.5761V53.411H164.601L165.708 54.4854L165.701 51.5599L164.601 52.6149H162.694V48.1748H166.442L168.102 49.7735L167.529 47.3528H159.119L160.459 48.6343V58.1683L159.185 59.3916H167.982L168.696 56.5566L166.542 58.5761H162.694Z" fill="#094752"/>
<path d="M161.72 46.0841C162.327 46.0841 162.82 45.6181 162.82 45.0421C162.82 44.466 162.327 44 161.72 44C161.113 44 160.619 44.466 160.619 45.0421C160.619 45.6181 161.113 46.0841 161.72 46.0841Z" fill="#094752"/>
<path d="M165.628 46.0841C166.235 46.0841 166.729 45.6181 166.729 45.0421C166.729 44.466 166.235 44 165.628 44C165.021 44 164.528 44.466 164.528 45.0421C164.528 45.6181 165.021 46.0841 165.628 46.0841Z" fill="#094752"/>
<path d="M254.473 47.3528H250.131L251.478 48.6343L251.498 58.1618L250.224 59.3916H255.04C258.961 59.3722 261.156 56.7184 261.142 53.1715C261.136 49.3916 258.274 47.3463 254.466 47.3528H254.473ZM254.82 58.6019C253.793 58.6019 253.739 58.5566 253.739 58.5566L253.719 48.1618C253.719 48.1618 253.733 48.1424 254.086 48.1424C256.847 48.1424 258.728 50.0194 258.735 53.2945C258.741 56.3819 257.321 58.6084 254.826 58.6084L254.82 58.6019Z" fill="#094752"/>
<path d="M245.089 47.3528L246.429 48.6343L246.449 55.6958L239.72 47.3528H236.432C236.432 47.3528 237.485 48.2977 238.032 48.8803L238.052 58.1618L236.772 59.3916H240.387L239.106 58.1618L239.086 50.0583L246.609 59.3916H247.49L247.463 48.6343L248.804 47.3528H245.089Z" fill="#094752"/>
<path d="M223.766 47.3528H218.831L220.165 48.6343V52.8608H215.369V48.6343L216.723 47.3528H211.775L213.115 48.6343V58.1812L211.841 59.3916H216.65L215.369 58.1683V53.7023H220.165V58.1812L218.884 59.3916H223.693L222.419 58.1683V48.6343L223.766 47.3528Z" fill="#094752"/>
<path d="M268.425 47.1133C265.284 47.1133 262.743 49.8705 262.743 53.3463C262.743 56.822 265.291 59.6375 268.425 59.6375C271.56 59.6375 274.115 56.822 274.115 53.3463C274.115 49.8705 271.567 47.1133 268.425 47.1133ZM268.439 58.8155C266.425 58.8155 265.084 56.4595 265.084 53.3592C265.084 50.2589 266.425 47.9612 268.439 47.9612C270.453 47.9612 271.794 50.2589 271.794 53.3592C271.794 56.4595 270.453 58.8155 268.439 58.8155Z" fill="#094752"/>
<path d="M287 47.3528H283.285L284.626 48.6343L284.646 55.6958L277.916 47.3528H274.341C274.341 47.3528 275.682 48.2977 276.229 48.8803L276.249 58.1618L274.968 59.3916H278.583L277.303 58.1618L277.283 50.0583L284.806 59.3916H285.686L285.659 48.6343L287 47.3528Z" fill="#094752"/>
<path d="M202.924 53.7282C202.691 50.6537 203.538 48.466 205.332 48.1683C205.485 48.1424 205.625 48.1165 205.899 48.1165C207.766 48.1359 209.234 49.7605 209.7 50.5502L209.674 47.3592H206.072C202.971 47.3592 200.456 49.877 200.463 53.3333C200.463 56.7896 202.691 59.5922 205.986 59.5922C208.467 59.5922 209.6 58.3495 210.361 56.9644C210.361 56.9644 209.087 58.0259 207.279 58.1877C205.092 58.3819 203.171 57.068 202.918 53.7346L202.924 53.7282Z" fill="#094752"/>
<path d="M194.987 53.9676L196.161 52.8544H193.28L194.287 53.9482C194.214 54.4401 194.114 54.8867 193.994 55.2945L190.405 51.9482C191.466 51.2751 192.546 50.5631 192.54 49.2557C192.54 47.9676 191.373 47.0291 189.765 47.0356C188.091 47.0356 186.831 48.1036 186.831 49.5081C186.831 50.343 186.931 51.2557 188.438 52.6731C187.084 53.5275 185.463 54.6019 185.47 56.5113C185.47 58.3301 187.191 59.6246 189.278 59.7346C191.613 59.8576 192.927 58.835 193.747 57.6311L196.281 60V57.4434L194.581 55.8511C194.774 55.2104 194.894 54.5631 194.981 53.9676H194.987ZM188.425 48.7184C188.565 47.9159 189.152 47.521 189.685 47.4951C190.505 47.4498 190.979 48.2006 190.986 49.3916C190.986 50.3366 190.719 50.945 190.005 51.5793C188.358 50.2201 188.305 49.4175 188.425 48.7184ZM189.758 58.5825C188.325 58.4142 187.311 57.534 187.311 55.89C187.311 54.7961 187.718 54.0324 188.811 53.1068L188.865 53.068L193.153 57.0744C192.273 58.2913 191.039 58.7379 189.758 58.5825Z" fill="#094752"/>
<path d="M230.416 47.1197H229.856L225.76 58.1618L224.467 59.3916H227.988L226.701 58.1618L227.961 54.7055L231.176 54.7184L232.557 58.1553L231.276 59.3851H236.198L234.911 58.1553L230.416 47.1133V47.1197ZM228.161 54.123L229.475 50.5502L230.929 54.123H228.161Z" fill="#094752"/>
<g opacity="0.7">
<g opacity="0.5">
<path d="M62.8718 78.1806C66.0917 76.4617 68.3417 72.6187 68.3417 68.1452C68.3417 65.6457 67.6529 63.2814 66.35 61.3223C66.35 61.3223 66.0573 60.8795 65.5637 60.1439C68.6172 55.7304 71.1081 52.1501 71.2057 52.0075C71.1081 51.8649 68.6172 48.2846 65.5637 43.8561C66.0573 43.1205 66.35 42.6852 66.35 42.6852C67.6586 40.7261 68.3417 38.3618 68.3417 35.8623C68.3417 31.3888 66.0917 27.5383 62.8718 25.8269C62.0281 20.8055 58.3031 17 53.8434 17C49.3837 17 45.6587 20.798 44.815 25.8269C41.5951 27.5308 39.3394 31.3888 39.3394 35.8623C39.3394 38.3618 40.0339 40.7261 41.3311 42.6852C41.3311 42.6852 41.6238 43.1205 42.1231 43.8561C39.0639 48.2771 36.5787 51.8574 36.4811 52.0075C36.5787 52.1501 39.0639 55.7304 42.1231 60.1439C41.6238 60.8795 41.3311 61.3223 41.3311 61.3223C40.0282 63.2814 39.3394 65.6382 39.3394 68.1452C39.3394 72.6187 41.5893 76.4617 44.815 78.1806C45.653 83.202 49.3837 87 53.8434 87C58.3031 87 62.0281 83.202 62.8718 78.1806ZM59.1411 77.3774C57.7923 77.3774 56.4607 76.9496 55.2955 76.1465C55.1061 76.0189 54.9339 75.8838 54.7617 75.7336C55.726 74.3526 57.3503 71.9957 59.2214 69.3011L59.87 70.2769C60.9663 71.9282 61.546 73.9172 61.546 76.0339C61.546 76.3341 61.5402 76.6344 61.5115 76.9346C60.7654 77.2273 59.9676 77.3924 59.1468 77.3924L59.1411 77.3774ZM46.3589 56.6912V63.4315L45.5324 62.2455V57.9222C45.8022 57.5243 46.072 57.1115 46.3589 56.6912ZM46.7952 56.0457C47.0707 55.6479 47.3404 55.2275 47.6217 54.8222V65.2479L46.7952 64.062V56.0457ZM48.0579 54.1692C48.2243 53.914 48.3908 53.6738 48.5572 53.4186C49.2517 54.4544 49.929 55.4602 50.5546 56.3909C50.4226 56.1958 50.2848 55.9931 50.1471 55.7905V63.9494C49.8659 64.3622 49.5903 64.775 49.3206 65.1804V54.5595C49.1771 54.3493 49.0336 54.1317 48.8844 53.914V65.8334C48.7466 66.0435 48.6031 66.2537 48.4711 66.4488L48.0579 65.8709V54.1692ZM50.8875 49.9509C51.1745 49.5155 51.4557 49.1102 51.7083 48.7199V55.2726C51.4557 54.8898 51.1745 54.4845 50.8875 54.0491V49.9509ZM50.4513 53.4036C50.1471 52.9532 49.8257 52.4804 49.5043 52.0075C49.8257 51.5271 50.1471 51.0618 50.4513 50.6039V53.4036ZM46.7952 39.9305L47.6217 38.7596V49.1853C47.3404 48.7725 47.0707 48.3747 46.7952 47.9618V39.9305ZM46.3589 47.3088C46.0777 46.896 45.8022 46.4757 45.5324 46.0778V41.7544L46.3589 40.5685V47.3088ZM48.0579 38.1216L48.4711 37.5361C48.6031 37.7313 48.7466 37.949 48.8844 38.1516V50.0785C48.7753 50.2361 48.6663 50.4012 48.5572 50.5664C48.3908 50.3187 48.2243 50.086 48.0579 49.8308V38.1141V38.1216ZM62.1544 41.7469V46.0778L61.3336 47.3013V40.561L62.1544 41.7394V41.7469ZM60.8974 39.938V47.9543L60.0709 49.1853V38.7446L60.8974 39.9305V39.938ZM59.6347 38.1291V49.8383L59.1411 50.5739C59.0263 50.4163 58.9172 50.2511 58.8082 50.0935V38.1591C58.9517 37.949 59.0894 37.7388 59.2214 37.5436L59.6289 38.1291H59.6347ZM62.1544 57.9222V62.2531L62.4586 61.8177L61.3164 63.454L61.3278 63.439V56.6987L62.1486 57.9297L62.1544 57.9222ZM60.8974 56.0457V64.062L60.0709 65.2479V54.8147L59.6347 54.1617V65.8709L59.2272 66.4564C59.0894 66.2537 58.9517 66.051 58.8139 65.8334V53.914C58.9172 53.7489 59.032 53.5837 59.1468 53.4186L60.9031 56.0382L60.8974 56.0457ZM50.5833 47.5565V40.6886C50.8645 41.1089 51.14 41.5143 51.4098 41.9196V46.333C50.7842 47.2713 50.0725 48.3221 49.3206 49.433V38.8046C49.6822 39.3451 50.0553 39.9005 50.4283 40.4559C50.3308 40.3133 50.2389 40.1782 50.1471 40.0356V48.1945C50.2906 47.9768 50.4398 47.7592 50.5833 47.5415V47.5565ZM53.6769 58.2074C53.6769 58.2074 53.5851 58.0573 53.4129 57.8096V46.1904C53.5851 45.9352 53.6769 45.7926 53.6769 45.7926L53.8434 45.5524L54.3427 46.2955L54.2337 46.1379V57.8696L53.8434 58.4551L53.6769 58.2074ZM54.6756 57.2166V46.7909L55.5021 48.0219V55.9931L55.8867 55.4227L54.3485 57.712L54.6814 57.2166H54.6756ZM57.5454 40.0431C57.821 39.6228 58.1079 39.2099 58.3719 38.8121V49.4405C58.0907 49.0202 57.8152 48.6148 57.5454 48.2095V40.0506V40.0431ZM57.1035 47.5565C56.8165 47.1362 56.541 46.7234 56.2885 46.333V41.9196C56.5468 41.5218 56.828 41.1089 57.1035 40.6961V47.5565ZM55.8465 45.68C55.4505 45.0796 55.1004 44.5617 54.8019 44.1263C55.1061 43.6685 55.462 43.1355 55.8465 42.5651V45.68ZM51.4844 46.2205C51.6049 46.0328 51.7255 45.8527 51.846 45.68V42.5726C52.2306 43.143 52.5864 43.676 52.8906 44.1263C52.5061 44.6968 52.0297 45.4098 51.4844 46.2205ZM52.9767 46.8434V57.1641C52.7414 56.8188 52.4716 56.3985 52.1502 55.9331V48.0669C52.4659 47.594 52.7414 47.1812 52.9767 46.8359V46.8434ZM51.427 57.7045C51.427 57.7045 51.4155 57.682 51.4041 57.6745V62.0804C51.1343 62.4782 50.8588 62.8911 50.5776 63.3039V56.4435C50.8703 56.8863 51.1573 57.3067 51.427 57.7045ZM51.846 61.4274V58.3275C52.242 58.9129 52.5922 59.4458 52.8906 59.8812C52.529 60.4216 52.0871 61.0746 51.6107 61.7802C51.691 61.6601 51.7714 61.54 51.846 61.4274ZM55.8465 58.3275V61.4274C55.462 60.8645 55.1061 60.3315 54.8019 59.8812C55.1004 59.4458 55.4505 58.9204 55.8465 58.3275ZM56.2885 57.6745C56.5468 57.2841 56.8223 56.8788 57.1035 56.4435V63.3114C56.828 62.8986 56.5468 62.4857 56.2885 62.0879V57.6745ZM57.5454 55.798C57.8152 55.4002 58.0907 54.9873 58.3719 54.567V65.1879C58.1079 64.7825 57.8267 64.3847 57.5454 63.9644V55.798ZM55.9384 55.3401V48.6674L55.8006 48.4572L58.1825 52L55.9384 55.3401ZM53.8434 42.6927L53.6769 42.4525C53.6769 42.4525 51.1745 38.7221 49.4411 36.14L53.8434 29.8126L58.2514 36.14L53.8434 42.6852V42.6927ZM53.6769 61.5475L53.8434 61.2998L58.2514 67.86L53.8434 74.1724L49.4411 67.86C51.1745 65.2704 53.6769 61.5475 53.6769 61.5475ZM65.1562 62.3957C66.2582 64.0395 66.8379 66.036 66.8379 68.1452C66.8379 71.5228 65.3111 74.4802 63.0497 76.0939V76.0114C63.0497 73.5119 62.361 71.1475 61.0581 69.1885C61.0581 69.1885 60.7195 68.6931 60.1914 67.89C61.6206 65.8259 63.1473 63.6191 64.5879 61.54L65.1562 62.3957ZM62.5963 61.6226V58.5752L63.6352 60.1289L62.5963 61.6226ZM69.3002 52.0075L64.6109 58.7328C63.4171 56.9539 61.7526 54.4845 60.0938 52.0075C61.7526 49.5306 63.4171 47.0611 64.6109 45.2822L69.3002 52.0075ZM63.6352 43.8786L62.5791 45.4549L62.5963 45.4323V42.3849L63.6352 43.8786ZM66.8379 35.8548C66.8379 37.964 66.2582 39.953 65.1562 41.6118L64.5879 42.46C63.1473 40.3734 61.6206 38.1741 60.1914 36.11C60.7252 35.3144 61.0581 34.804 61.0581 34.804C62.361 32.8449 63.0497 30.4881 63.0497 27.9886V27.9061C65.3111 29.5123 66.8379 32.4772 66.8379 35.8473V35.8548ZM61.5058 27.0729C61.5345 27.3732 61.5402 27.6734 61.5402 27.9811C61.5402 30.0903 60.9605 32.0869 59.8643 33.7306L59.2157 34.7064C57.3446 32.0118 55.7145 29.6624 54.756 28.2739C54.9282 28.1237 55.1004 27.9886 55.2898 27.8535C56.4607 27.0504 57.7923 26.6151 59.1353 26.6151C59.9618 26.6151 60.7596 26.7727 61.5 27.0654L61.5058 27.0729ZM46.5197 25.1514C47.5126 21.436 50.4226 18.7489 53.8434 18.7489C57.2642 18.7489 60.1685 21.436 61.1729 25.1514C60.5128 24.9713 59.8356 24.8812 59.1353 24.8812C57.2757 24.8812 55.4849 25.5267 53.9525 26.7727L53.8377 26.8703L53.7229 26.7727C52.1961 25.5267 50.4054 24.8812 48.5457 24.8812C47.8512 24.8812 47.1682 24.9713 46.5139 25.1514H46.5197ZM48.5515 26.6226C49.9003 26.6226 51.2319 27.0504 52.397 27.861C52.5807 27.9961 52.7586 28.1312 52.9365 28.2814C51.9723 29.6624 50.348 32.0118 48.4769 34.7139C48.0808 34.1134 47.8283 33.7382 47.8283 33.7382C46.732 32.0944 46.1466 30.0978 46.1466 27.9886C46.1466 27.6809 46.1581 27.3732 46.1868 27.0804C46.9329 26.7877 47.725 26.6301 48.5515 26.6301V26.6226ZM42.5306 41.6118C41.4344 39.9605 40.8547 37.9715 40.8547 35.8548C40.8547 32.4772 42.3757 29.5198 44.6371 27.9136C44.6371 27.9436 44.6371 27.9661 44.6371 27.9961C44.6371 30.4956 45.3316 32.8525 46.6287 34.8115C46.6287 34.8115 46.9673 35.3219 47.5011 36.1175C46.072 38.1816 44.551 40.3809 43.0988 42.4675C42.743 41.9271 42.5306 41.6193 42.5306 41.6193V41.6118ZM45.0962 42.3699V45.4323C44.7174 44.8694 44.3673 44.3515 44.0516 43.8711L45.0962 42.3699ZM38.3924 52.0075L38.5244 51.8199L43.0816 45.2822C44.2755 47.0611 45.9342 49.5306 47.5987 52.0075C45.9342 54.4845 44.2755 56.9539 43.0816 58.7328L38.3924 52.0075ZM44.0516 60.1289C44.419 59.581 44.8494 58.943 45.3029 58.2674C45.234 58.3725 45.1651 58.4776 45.0962 58.5752V61.6226L44.0516 60.1289ZM40.8547 68.1452C40.8547 66.0285 41.4286 64.0395 42.5306 62.3957C42.5306 62.3957 42.7373 62.0729 43.0988 61.54C44.5452 63.6266 46.072 65.8259 47.5011 67.89C46.9731 68.6856 46.6287 69.1885 46.6287 69.1885C45.3316 71.1475 44.6371 73.5119 44.6371 76.0114C44.6371 76.0489 44.6371 76.0639 44.6371 76.0939C42.3757 74.4802 40.8547 71.5228 40.8547 68.1452ZM46.181 76.9196C46.1523 76.6193 46.1408 76.3191 46.1408 76.0189C46.1408 73.9022 46.7205 71.9131 47.8225 70.2618C47.8225 70.2618 48.0751 69.8866 48.4711 69.2861C50.3422 71.9807 51.9665 74.3376 52.9308 75.7186C52.7529 75.8688 52.5749 76.0039 52.3913 76.1315C51.2261 76.9346 49.8945 77.3624 48.5457 77.3624C47.7192 77.3624 46.9214 77.1973 46.181 76.9046V76.9196ZM46.5197 78.8486C47.174 79.0212 47.8512 79.1263 48.5515 79.1263C50.4168 79.1263 52.2019 78.4658 53.7286 77.2273L53.8434 77.1373L53.9582 77.2273C55.4907 78.4733 57.2757 79.1263 59.1411 79.1263C59.8413 79.1263 60.5186 79.0287 61.1786 78.8486C60.1742 82.5565 57.2699 85.2436 53.8491 85.2436C50.4283 85.2436 47.5183 82.5565 46.5254 78.8486H46.5197Z" fill="#094752"/>
<path d="M56.9829 49.8984V54.1092L57.4191 53.4562V50.5439L56.9829 49.8984Z" fill="#094752"/>
</g>
<path d="M57.7578 59.3633C58.085 59.3633 58.1883 59.033 58.1883 58.7102V54.4544C58.1883 53.929 57.9931 53.7939 57.7578 53.7939V53.6588H59.3018C60.7539 53.6588 61.1729 55.16 61.1729 56.496C61.1729 58.0873 60.6735 59.4308 59.3649 59.4984H57.7636V59.3708L57.7578 59.3633ZM58.9287 58.6952C58.9287 59.0405 59.0205 59.2732 59.2731 59.2732C59.9331 59.2732 60.4038 58.5451 60.4038 56.4735C60.4038 55.6929 60.2086 53.8689 59.3075 53.8689C59.1238 53.8689 59.0148 53.8689 58.9287 53.8915V58.6952Z" fill="#094752"/>
<path d="M61.9647 53.6588H64.6968V54.9122C64.6968 54.9122 64.6509 54.9122 64.5992 54.9122C64.5303 54.0716 64.1917 53.8464 63.5948 53.8464C63.4513 53.8464 63.3193 53.8464 63.17 53.8464V56.3909C63.7555 56.3909 64.031 56.2408 64.0941 55.7304H64.1917V57.3291C64.1917 57.3291 64.1687 57.3291 64.0941 57.3291C64.0425 56.5936 63.721 56.5786 63.17 56.5786V58.7327C63.17 59.1606 63.2389 59.2957 63.635 59.2957C64.272 59.2957 64.6222 59.078 64.7484 58.0947H64.8345V59.4758H61.9647V59.3482C62.2632 59.3032 62.4239 59.1831 62.4239 58.6502V54.4694C62.4239 53.899 62.2058 53.8089 61.9647 53.7789V53.6438V53.6588Z" fill="#094752"/>
<path d="M9.10876 63.7092H6.06677V63.559C6.65795 63.4615 6.93345 63.1162 6.93345 61.9603V48.2921H6.85883L4.33915 63.7092H4.07512L1.34881 48.247H1.29141V61.5325C1.29141 62.7559 1.46934 63.469 2.27289 63.5515V63.7017H0V63.5515C0.763368 63.4315 0.88964 62.8835 0.88964 61.8627V48.3971C0.88964 47.4889 0.717451 46.986 0.0172188 46.9035V46.7158H2.49099L4.68352 58.9054L6.76126 46.7158H9.10302V46.9035C8.55776 46.971 8.24208 47.2637 8.24208 48.7649V61.645C8.24208 63.0486 8.46019 63.3864 9.10302 63.544V63.6942L9.10876 63.7092Z" fill="#094752"/>
<path d="M15.8127 60.8419L13.7234 51.2119H13.6086L11.4161 61.1121C10.9282 62.876 11.0029 63.484 10.2567 63.5966V63.7092H12.3976V63.5966C11.8753 63.5591 11.5711 63.2963 11.5711 62.7484C11.5711 62.4332 11.8294 61.1872 12.0819 60.0163H14.3261C14.5614 61.1722 14.7623 62.3506 14.7623 62.6508C14.7623 63.2288 14.5557 63.4765 14.0104 63.559V63.7092H17.0811V63.559C16.3177 63.484 16.2144 62.7109 15.8184 60.8419M12.1508 59.5734C12.5066 57.9597 13.0002 55.7604 13.2069 54.7696C13.3791 55.5953 13.8727 57.8696 14.2285 59.5734H12.1508Z" fill="#094752"/>
<path d="M100.328 60.8419L98.2391 51.2119H98.1243L95.9317 61.1121C95.4381 62.876 95.5185 63.484 94.7666 63.5966V63.7092H96.9075V63.5966C96.3909 63.5591 96.0924 63.2963 96.0924 62.7484C96.0924 62.4332 96.3393 61.1872 96.5975 60.0163H98.8475C99.0885 61.1722 99.2837 62.3506 99.2837 62.6508C99.2837 63.2288 99.0828 63.4765 98.526 63.559V63.7092H101.602V63.559C100.833 63.484 100.73 62.7109 100.334 60.8419M96.6664 59.5734C97.0165 57.9597 97.5216 55.7604 97.7225 54.7696C97.8947 55.5953 98.3883 57.8696 98.7441 59.5734H96.6664Z" fill="#094752"/>
<path d="M25.2426 63.4239C25.0532 63.5515 24.6514 63.7617 24.0947 63.7617C23.5379 63.7617 23.2165 63.5215 22.9181 63.1913C22.4646 62.6959 22.2523 61.5925 22.103 60.6618C21.862 59.1906 21.7127 58.4701 21.288 58.1698C20.9322 57.9071 20.1286 58.0047 20.1286 58.0047V61.6601C20.1286 63.0637 20.2262 63.484 20.9035 63.5591V63.7092H18.1312V63.5591C18.797 63.4615 18.9061 63.0787 18.9061 61.6601V53.9215C18.9061 52.4128 18.6994 52.015 18.1312 52.015V51.8649H20.8575C21.4774 51.8649 23.7847 51.8724 23.7847 54.8147C23.7847 56.9238 22.4245 57.5018 21.9653 57.7045C21.9653 57.7045 21.8792 57.802 21.9653 57.8546C22.9008 58.455 23.073 59.3107 23.4231 60.7894C23.7388 62.1254 24.0086 63.3714 24.6801 63.3714C24.8695 63.3714 25.0188 63.3489 25.1737 63.2438C25.1737 63.2438 25.2369 63.3639 25.2369 63.4239M20.1344 57.5844C21.6037 57.5844 22.4761 57.2991 22.4761 55.0249C22.4761 52.9157 21.7242 52.2552 20.7772 52.2552H20.1344V57.5844Z" fill="#094752"/>
<path d="M32.8018 57.8245C32.8018 61.5099 31.3095 64.0544 29.5245 64.0469C27.6304 64.0394 26.2472 61.5099 26.2472 57.8245C26.2472 54.1392 27.7395 51.6022 29.5245 51.6022C31.3095 51.6022 32.8018 54.004 32.8018 57.8245ZM27.6419 57.8245C27.6419 60.1214 27.9404 63.6341 29.5245 63.6341C31.1086 63.6341 31.4071 60.0913 31.4071 57.8245C31.4071 54.7171 30.8159 52.06 29.5245 52.06C28.2331 52.06 27.6419 54.7546 27.6419 57.8245Z" fill="#094752"/>
<path d="M40.929 52.015C40.4182 52.015 40.2403 52.638 40.2403 53.8014V59.3858C40.2403 61.5099 40.2977 61.9828 39.9074 62.7484C39.3966 63.7467 38.3003 63.8368 37.7665 63.8368C37.382 63.8368 36.2914 63.8968 35.7806 62.9736C35.4075 62.3056 35.3616 61.6601 35.3616 59.7761V53.9215C35.3616 52.4503 35.2353 52.015 34.6384 52.015V51.8649H37.4566V52.015C36.7449 52.015 36.6014 52.3753 36.6014 53.9215V59.7761C36.6014 60.9245 36.5669 61.8177 36.7621 62.3581C36.9515 62.8685 37.4336 63.1763 38.0478 63.1763C38.6619 63.1763 39.2129 62.9436 39.4827 62.5307C39.8443 61.9828 39.827 61.1422 39.827 59.3858V54.0416C39.827 52.9682 39.7409 51.9249 38.9604 52.015V51.8649H40.9233V52.015H40.929Z" fill="#094752"/>
<path d="M42.8175 51.8724H47.9315V54.4694C47.9315 54.4694 47.9315 54.4619 47.8282 54.4619C47.524 52.668 47.128 52.1726 45.5381 52.1726C45.3429 52.1726 44.9813 52.1876 44.8092 52.2026V57.0289C44.9871 57.0289 45.4922 57.0214 45.6414 57.0214C46.7032 57.0439 46.9558 56.7512 47.0591 55.9181H47.1567V59.0405H47.0361C47.0132 57.8996 46.5196 57.4718 45.7677 57.4718H44.8149V62.3431C44.8149 63.2138 44.9813 63.3864 45.6414 63.3864C46.9041 63.3864 47.5297 63.0411 47.8971 61.0446H48.0004V63.7092H42.8232V63.544C43.4316 63.439 43.5981 63.1237 43.5981 62.0354V53.5537C43.5981 52.3903 43.3341 52.015 42.8232 52.015V51.8649L42.8175 51.8724Z" fill="#094752"/>
<path d="M54.268 54.7021C53.9925 52.623 53.3669 52.0976 52.3912 52.0976C51.932 52.0976 51.3006 52.4203 51.3006 53.5387C51.3006 54.9423 52.1731 55.783 53.1947 56.9689C54.2795 58.2224 54.8936 58.9955 54.8936 60.6318C54.8936 62.178 54.0384 63.9193 52.4199 63.9193C51.5819 63.9193 51.3523 63.6191 51.0825 63.6191C50.8702 63.6191 50.6865 63.6792 50.5947 63.8668H50.5028V60.5717H50.6062C50.8185 62.268 51.4728 63.484 52.4141 63.484C53.4702 63.484 54.027 62.5833 54.027 61.4799C54.027 60.3015 53.4071 59.6185 52.3854 58.425C51.3638 57.2466 50.4225 56.1357 50.4225 54.4019C50.4225 53.0133 51.094 51.7148 52.506 51.7148C53.2119 51.7148 53.5678 52.06 53.8261 52.06C53.981 52.06 54.2049 51.9775 54.2967 51.8574H54.3886V54.7096H54.2738L54.268 54.7021Z" fill="#094752"/>
<path d="M86.5936 54.7021C86.3124 52.623 85.6867 52.0976 84.711 52.0976C84.2518 52.0976 83.632 52.4203 83.632 53.5387C83.632 54.9423 84.4872 55.783 85.5146 56.9689C86.5936 58.2224 87.2077 58.9955 87.2077 60.6318C87.2077 62.178 86.3583 63.9193 84.734 63.9193C83.8902 63.9193 83.6607 63.6191 83.3909 63.6191C83.1843 63.6191 83.0063 63.6792 82.903 63.8668H82.8112V60.5717H82.9145C83.1154 62.268 83.7754 63.484 84.711 63.484C85.7786 63.484 86.3296 62.5833 86.3296 61.4799C86.3296 60.3015 85.7097 59.6185 84.6823 58.425C83.6549 57.2466 82.7194 56.1357 82.7194 54.4019C82.7194 53.0133 83.3909 51.7148 84.7971 51.7148C85.5031 51.7148 85.8647 52.06 86.123 52.06C86.2837 52.06 86.5018 51.9775 86.5993 51.8574H86.6912V54.7096H86.5764L86.5936 54.7021Z" fill="#094752"/>
<path d="M80.6473 63.7092H77.8004V63.5516C78.3572 63.4915 78.6212 63.1162 78.6212 62.0354V53.5537C78.6212 52.3903 78.2366 52.03 77.8004 52.015V51.8649H80.6473V52.015C80.1307 52.0225 79.815 52.3603 79.815 53.5537V62.0354C79.815 63.1612 80.0676 63.499 80.6473 63.5516V63.7092Z" fill="#094752"/>
<path d="M94.0491 59.9112C94.0778 61.9002 93.2742 63.8293 91.9484 63.8293C90.0543 63.8293 89.1704 61.1722 89.1704 57.8921C89.1704 54.3343 90.3872 51.6547 92.2411 51.6547C92.7519 51.6547 93.0389 52.015 93.2685 52.015C93.4579 52.015 93.6875 51.9624 93.7391 51.7523H93.8654V54.8897C93.8654 54.8897 93.7965 54.8897 93.7449 54.8897C93.6071 53.4486 93.1652 52.0525 92.3387 52.0525C91.053 52.0525 90.5364 54.8447 90.5364 57.802C90.5364 62.0954 91.1334 63.2963 92.1321 63.2963C93.2054 63.2963 93.7506 61.4274 93.7793 59.9187L94.0433 59.9037L94.0491 59.9112Z" fill="#094752"/>
<path d="M107.692 61.0596L107.647 63.7092H102.636V63.5516C103.152 63.5516 103.393 63.1012 103.393 62.0354V53.5537C103.393 52.3903 103.118 52.015 102.636 52.015V51.8649H105.483V52.015C104.851 52.0225 104.587 52.3753 104.587 53.9215V62.2831C104.587 63.1838 104.794 63.3789 105.488 63.3789C106.665 63.3789 107.348 62.6433 107.578 61.0596H107.687H107.692Z" fill="#094752"/>
<path d="M26.8901 65.0152C27.2402 64.7074 27.8945 64.3472 28.8013 64.3472C30.4601 64.3472 31.1546 65.0527 32.5091 65.8634C33.6284 66.5464 34.4491 66.8842 35.4076 66.8842C36.1882 66.8842 36.745 66.5689 37.0377 66.2837C37.1697 66.1486 37.2328 66.1936 37.1295 66.3813C36.7564 67.0493 35.9414 67.8299 34.6959 67.8299C33.6743 67.8299 32.8019 67.4096 31.4129 66.5089C29.6623 65.3905 29.14 64.9176 27.6419 64.9176C27.4468 64.9176 26.9991 65.0452 26.8614 65.1578C26.758 65.2479 26.8154 65.0752 26.8901 65.0152Z" fill="#094752"/>
<path d="M45.2739 49.7257C46.0373 48.9826 47.2024 47.9993 48.1437 47.2487C48.3274 47.6465 48.3676 47.6766 48.5226 48.1269C47.7305 48.5397 45.6642 49.7257 45.4059 49.8683C45.1993 49.9884 45.1419 49.8458 45.2739 49.7257Z" fill="#094752"/>
<path d="M76.951 63.1687C76.7272 63.499 76.3196 63.7767 75.6596 63.7767C74.9995 63.7767 74.46 63.4615 74.1214 63.0036C73.5818 62.3056 73.5474 60.6467 73.3637 59.3332C73.1686 58.0272 73.1055 56.8638 72.2101 55.873C71.6763 55.2875 70.1955 55.5502 70.1955 55.5502V60.8044C70.1955 62.7859 70.2471 63.5365 71.1138 63.5365V63.7016H67.9628V63.5365C68.8294 63.4014 68.8754 62.816 68.8754 60.8044V49.6206C68.8754 47.4889 68.6228 46.8959 67.9628 46.9185V46.7233H71.1769C72.6635 46.7233 75.0627 47.1136 75.0627 51.0842C75.0627 53.989 73.3006 54.9723 72.7611 55.25C72.7611 55.25 72.6061 55.3551 72.7209 55.4001C74.4141 56.0006 74.5748 57.4117 74.8733 59.5509C75.1832 61.7801 75.4874 63.2363 76.2622 63.2363C76.5664 63.2363 76.7616 63.1687 76.8821 63.0486C76.9567 63.1612 76.8821 63.0636 76.9567 63.1612M70.1897 55.1149C71.0564 55.1149 71.3893 55.1224 71.6878 55.0248C72.83 54.657 73.6737 53.3885 73.6737 51.3319C73.6737 48.1044 72.6061 47.2712 71.0736 47.2712C70.7981 47.2712 70.4193 47.2938 70.1897 47.3088V55.1149Z" fill="#094752"/>
<path d="M27.7568 39.33H30.839V40.4559C30.839 40.4559 30.8103 40.4559 30.7644 40.4559C30.575 39.7428 30.3569 39.5177 29.5246 39.5177C29.2032 39.5177 29.209 39.5327 29.0999 39.5402V41.7469C29.8461 41.7469 30.0469 41.6568 30.133 41.1389C30.179 41.1389 30.2076 41.1389 30.2076 41.1389V42.6401H30.133C30.0182 41.9796 29.869 41.9271 29.0999 41.9271V43.9086C29.0999 44.3064 29.1975 44.3665 29.5878 44.3665C30.4143 44.3665 30.7357 44.0737 30.8792 43.4432C30.9308 43.4432 30.9366 43.4432 30.9366 43.4432V44.5241H27.7568V44.4265C28.0955 44.374 28.2734 44.2614 28.2734 43.7885V40.0581C28.2734 39.5477 28.0266 39.4501 27.7568 39.4276V39.315V39.33Z" fill="#094752"/>
<path d="M37.0436 44.5466C37.0436 44.5466 36.8829 44.5691 36.682 44.5691C36.154 44.5691 35.8211 44.3289 35.5456 43.5258C35.3102 42.8353 35.1495 42.0396 34.8396 42.0396H34.3689V43.6459C34.3689 44.2614 34.501 44.3815 34.8855 44.449V44.5391H33.0374V44.449C33.4391 44.3815 33.5539 44.2614 33.5539 43.6459V40.2382C33.5539 39.5702 33.3703 39.4651 33.0374 39.4351V39.33H34.8798C35.4193 39.33 36.3089 39.4951 36.3089 40.6886C36.3089 41.4167 35.7809 41.7619 35.3734 41.9271C35.3389 41.9496 35.3217 41.9796 35.3734 41.9796C35.9531 42.1372 36.0908 42.8578 36.55 43.9311C36.659 44.1788 36.7911 44.4716 37.0436 44.4641V44.5466ZM34.3689 41.852C34.5698 41.852 34.8109 41.867 34.9429 41.8295C35.3849 41.7169 35.5226 41.3566 35.5226 40.6811C35.5226 40.0506 35.293 39.5252 34.8166 39.5252C34.6961 39.5252 34.5297 39.5252 34.3632 39.5552V41.852H34.3689Z" fill="#094752"/>
<path d="M49.8026 39.33H52.8848V40.4559C52.8848 40.4559 52.8503 40.4559 52.8102 40.4559C52.6208 39.7428 52.4027 39.5177 51.5704 39.5177C51.249 39.5177 51.249 39.5327 51.1399 39.5402V41.7469C51.8918 41.7469 52.087 41.6568 52.1788 41.1389C52.2247 41.1389 52.2534 41.1389 52.2534 41.1389V42.6401H52.1788C52.064 41.9796 51.9148 41.9271 51.1399 41.9271V43.9086C51.1399 44.3064 51.249 44.3665 51.6278 44.3665C52.4601 44.3665 52.7872 44.0737 52.925 43.4432C52.9766 43.4432 52.9824 43.4432 52.9824 43.4432V44.5241H49.8026V44.4265C50.1355 44.374 50.3192 44.2614 50.3192 43.7885V40.0581C50.3192 39.5477 50.0724 39.4501 49.8026 39.4276V39.315V39.33Z" fill="#094752"/>
<path d="M59.4452 44.5466C59.4452 44.5466 59.2845 44.5691 59.0836 44.5691C58.5613 44.5691 58.2284 44.3289 57.9529 43.5258C57.7176 42.8353 57.5569 42.0396 57.2469 42.0396H56.7706V43.6459C56.7706 44.2614 56.9026 44.3815 57.2929 44.449V44.5391H55.439V44.449C55.8407 44.3815 55.9555 44.2614 55.9555 43.6459V40.2382C55.9555 39.5702 55.7719 39.4651 55.439 39.4351V39.33H57.2814C57.8209 39.33 58.7105 39.4951 58.7105 40.6886C58.7105 41.4167 58.1825 41.7619 57.7807 41.9271C57.7463 41.9496 57.7233 41.9796 57.7807 41.9796C58.3604 42.1372 58.4982 42.8578 58.9573 43.9311C59.0607 44.1788 59.1927 44.4716 59.451 44.4641V44.5466H59.4452ZM56.7706 41.852C56.9714 41.852 57.2125 41.867 57.3445 41.8295C57.7865 41.7169 57.9242 41.3566 57.9242 40.6811C57.9242 40.0506 57.6946 39.5252 57.224 39.5252C57.1035 39.5252 56.9313 39.5252 56.7706 39.5552V41.852Z" fill="#094752"/>
<path d="M38.6792 39.33H41.7556V40.4559C41.7556 40.4559 41.7212 40.4559 41.681 40.4559C41.4744 39.6678 41.2735 39.5177 40.447 39.5177C40.1256 39.5177 40.1256 39.5327 40.0165 39.5402V41.7469C40.7684 41.7469 40.9693 41.6568 41.0554 41.1389C41.153 41.1389 41.1243 41.1389 41.1243 41.1389V42.6401H41.0497C40.9349 41.9796 40.7856 41.9271 40.0165 41.9271V43.9086C40.0165 44.3064 40.1198 44.3665 40.5044 44.3665C41.3366 44.3665 41.6523 44.1113 41.7958 43.4432C41.8475 43.4432 41.8589 43.4432 41.8589 43.4432V44.5241H38.6792V44.4265C39.0121 44.374 39.19 44.2614 39.19 43.7885V40.0581C39.19 39.5477 38.9375 39.4501 38.6792 39.4276V39.315V39.33Z" fill="#094752"/>
<path d="M44.0573 44.4415C44.4303 44.4415 44.5509 44.1188 44.5509 43.8411V40.0431C44.5509 39.5702 44.2868 39.4576 44.0573 39.4276V39.33H45.7217C47.3059 39.33 47.788 40.6135 47.788 41.807C47.788 43.2256 47.2714 44.4791 45.7849 44.5391H44.0515V44.4415H44.0573ZM45.3659 43.8861C45.3659 44.2314 45.4175 44.3665 45.6988 44.3665C46.3646 44.3665 46.8754 43.7285 46.8754 41.8445C46.8754 41.0113 46.7434 39.5327 45.7332 39.5327C45.584 39.5327 45.4807 39.5177 45.3659 39.5252V43.8861Z" fill="#094752"/>
<path d="M65.2363 41.9421C65.2363 43.5633 64.4155 44.6817 63.2044 44.6817C61.9934 44.6817 61.1669 43.5633 61.1669 41.9421C61.1669 40.3208 62.068 39.2024 63.2044 39.2024C64.3409 39.2024 65.2363 40.2608 65.2363 41.9421ZM62.0852 41.9421C62.0852 42.7677 62.2 44.4941 63.2044 44.4941C64.2089 44.4941 64.3179 42.6251 64.3179 41.8595C64.3179 40.6736 64.0309 39.3751 63.2044 39.3751C62.3779 39.3751 62.0852 40.7561 62.0852 41.9346" fill="#094752"/>
<path d="M70.092 40.4409C69.8969 39.6228 69.2827 39.4126 68.7604 39.4126C68.4562 39.4126 68.1405 39.6828 68.1405 40.1857C68.1405 40.4709 68.2496 40.7712 68.7317 41.0939L69.6099 41.6794C69.8739 41.8595 70.3388 42.2348 70.3388 43.0755C70.3388 43.7585 69.8739 44.6892 68.7834 44.6892C68.2324 44.6892 67.9856 44.4791 67.7962 44.4791C67.6699 44.4791 67.5321 44.5691 67.5034 44.6892H67.4346V43.4057H67.5149C67.6814 44.1938 68.2381 44.4716 68.7834 44.4716C69.4147 44.4716 69.6328 43.9537 69.6328 43.5709C69.6328 42.9404 69.3172 42.7302 68.9326 42.49L68.5079 42.2198C67.5092 41.5893 67.492 41.1465 67.492 40.606C67.492 39.953 67.9397 39.2174 68.7834 39.2174C69.254 39.2174 69.6156 39.4276 69.7936 39.4276C69.9256 39.4276 70.0461 39.3525 70.0805 39.2099H70.1666V40.4484H70.092V40.4409Z" fill="#094752"/>
<path d="M25.9087 36.6654V36.5528H23.917V36.6654C24.2557 36.6654 24.4451 36.7855 24.4451 37.2959V40.0806H21.891V37.2959C21.891 36.7855 22.0861 36.6654 22.4247 36.6654V36.5528H20.4388V36.6654C20.7373 36.6654 20.9554 36.8005 20.9554 37.2959V43.8035C20.9554 44.2689 20.8234 44.359 20.4388 44.434V44.5466H22.4247V44.434C22.0689 44.4115 21.891 44.2764 21.891 43.8035V40.576H24.4451V43.8035C24.4451 44.2689 24.2729 44.4115 23.917 44.434V44.5466H25.9087V44.434C25.5127 44.3665 25.3806 44.2689 25.3806 43.8035V37.2959C25.3806 36.8005 25.6045 36.6654 25.9087 36.6654Z" fill="#094752"/>
<path d="M81.583 39.33H84.6652V40.4559C84.6652 40.4559 84.6307 40.4559 84.5906 40.4559C84.4012 39.7428 84.183 39.5177 83.3565 39.5177C83.0236 39.5177 83.0236 39.5327 82.9261 39.5402V41.7469C83.6722 41.7469 83.8731 41.6568 83.9535 41.1389C84.0051 41.1389 84.0338 41.1389 84.0338 41.1389V42.6401H83.9535C83.8444 41.9796 83.6952 41.9271 82.9261 41.9271V43.9086C82.9261 44.3064 83.0237 44.3665 83.4139 44.3665C84.2404 44.3665 84.5676 44.0737 84.7054 43.4432C84.757 43.4432 84.7685 43.4432 84.7685 43.4432V44.5241H81.5887V44.4265C81.9216 44.374 82.1111 44.2614 82.1111 43.7885V40.0581C82.1111 39.5477 81.8642 39.4501 81.5887 39.4276V39.315L81.583 39.33Z" fill="#094752"/>
<path d="M76.1302 44.4415C76.4918 44.4415 76.6124 44.1188 76.6124 43.8411V40.0431C76.6124 39.5702 76.3541 39.4576 76.1302 39.4276V39.33H77.7833C79.3789 39.33 79.8553 40.6135 79.8553 41.807C79.8553 43.2256 79.333 44.4791 77.8464 44.5391H76.1302V44.4415ZM77.4217 43.8861C77.4217 44.2314 77.4733 44.3665 77.7603 44.3665C78.4261 44.3665 78.9427 43.7285 78.9427 41.8445C78.9427 41.0113 78.8049 39.5327 77.789 39.5327C77.6455 39.5327 77.5365 39.5177 77.4217 39.5252V43.8861Z" fill="#094752"/>
<path d="M89.779 43.4357V44.5391H86.8174V44.4565C87.1445 44.3965 87.3225 44.2689 87.3225 43.8035V40.0731C87.3225 39.5627 87.0814 39.4501 86.8174 39.4276V39.33H88.7287V39.4276C88.3269 39.4576 88.1375 39.5552 88.1375 40.2307V44.0362C88.1375 44.3139 88.3154 44.3665 88.568 44.3665C89.2223 44.3665 89.6126 44.0813 89.7274 43.4433H89.779V43.4357Z" fill="#094752"/>
</g>
</svg>
