<svg width="287" height="103" viewBox="0 0 287 103" fill="none" xmlns="http://www.w3.org/2000/svg">
<path d="M170.78 20.6001H170.44V80.0201H170.78V20.6001Z" fill="#F6D1C8"/>
<path d="M106.04 25.0498L102.79 36.0998C102.67 36.9698 103.97 35.3498 104.08 35.3298L104.51 35.5898C104.21 36.4498 102.58 38.0698 101.64 37.6098C100.88 37.1598 101.25 36.3898 101.25 35.6798C100.36 36.7198 98.88 38.3798 97.4 37.3898C95.73 36.2698 96.89 33.1698 97.86 31.8498C98.83 30.5298 101.29 28.5298 102.88 30.0198C103.07 30.0198 103.99 26.7198 103.99 26.4998C103.99 25.9198 103.16 26.0998 102.79 26.0798V25.5798L106.05 25.0598L106.04 25.0498ZM102.23 30.3998C101 29.1698 98.92 32.4498 98.59 33.4498C98.32 34.2798 97.85 36.7198 99.4 36.3198C100.64 35.9998 103.37 31.5398 102.23 30.4098V30.3998Z" fill="#F6D1C8"/>
<path d="M81.2101 36.3499C81.7201 36.8999 83.6401 34.3499 83.8901 33.9799C84.7901 32.6199 85.2601 31.2699 85.6901 29.6999L87.2101 29.6799C87.5001 29.9699 85.2201 35.6099 85.5801 36.5299L86.6101 35.3299L87.0201 35.7299C85.4001 38.5999 82.7501 38.4099 84.3001 34.6399C83.6101 35.5899 80.8501 39.1099 79.6701 37.1299C79.0001 35.9999 80.8101 32.3599 80.8801 30.9599C80.9001 30.6899 80.9101 30.6699 80.6201 30.6999L79.84 31.6499C79.77 31.7099 79.7001 31.6999 79.6201 31.6999C78.9001 31.6499 79.2501 31.2799 79.5801 30.8699C80.6401 29.5599 82.8801 28.3699 82.5401 31.0899C82.4401 31.9099 80.8801 35.9899 81.2201 36.3599L81.2101 36.3499Z" fill="#F6D1C8"/>
<path d="M91.65 29.4999L90.97 32.2399L91.99 30.9499C92.59 29.8299 95.36 28.5599 95.59 30.4599C95.72 31.5299 93.84 36.1299 94.05 36.3499L95.34 35.3199C96.27 35.4099 95.08 36.6499 94.74 36.9499C94.14 37.4899 92.77 38.2299 92.41 37.0399C92.14 36.1499 93.82 32.5099 93.87 31.2799C93.88 30.9899 93.87 30.8799 93.62 30.7099C91.94 31.5599 90.82 33.5299 90.08 35.2099C89.87 35.6899 89.54 37.1499 89.34 37.3799C89.1 37.6699 87.69 37.6999 87.78 37.1899L89.6 30.5199H88.4L88.41 30.0199L91.65 29.4899V29.4999Z" fill="#F6D1C8"/>
<path d="M139.27 29.4997L138.42 32.4097C139.38 31.4597 140.38 29.4897 141.93 29.4797C142.88 29.4797 143.23 29.9697 143.18 30.8997C143.13 31.8297 141.48 36.1397 141.68 36.3497L142.97 35.3197C143.88 35.3897 142.79 36.5597 142.46 36.8697C141.87 37.4097 140.6 38.2297 140.09 37.1597C139.65 36.2297 141.54 32.2397 141.5 30.9797L141.11 30.7197C140.25 30.7897 138.2 33.9897 137.83 34.8097C137.58 35.3597 137.22 37.0897 136.98 37.3797C136.74 37.6697 135.33 37.6997 135.42 37.1897C135.58 36.2797 137.53 30.8297 137.24 30.5197H136.04L136.05 30.0197L139.29 29.4897L139.27 29.4997Z" fill="#F6D1C8"/>
<path d="M111.69 30.1897C111.79 29.4497 112.79 29.4997 113.41 29.5097L111.53 36.2797C112.06 36.9397 112.55 35.2397 112.98 35.3397C114.09 35.5797 111.88 37.4097 111.31 37.6097C109.94 38.0797 109.97 37.0597 109.9 36.0297C107.07 39.2597 104.16 37.4297 105.84 33.3397C106.67 31.3297 109.54 28.0697 111.69 30.1997V30.1897ZM109.93 30.2197C108.25 30.5797 105.98 35.7997 107.52 36.3297C108.78 36.7597 110.34 34.4397 110.74 33.4397C111.14 32.4397 111.71 29.8397 109.92 30.2197H109.93Z" fill="#F6D1C8"/>
<path d="M101.59 56.5598L103.73 64.2598L105.7 56.5598H108.95V68.5398H106.9V59.8098L104.66 68.5398L102.9 68.5498L100.39 59.6398V68.5398H98.33V56.8098L98.59 56.5598H101.59Z" fill="#F6D1C8"/>
<path d="M130.19 56.5599L132.31 56.5799L132.59 56.9799C132.24 59.5899 133.34 65.3199 131.88 67.3999C130.55 69.2899 126.54 69.2 125.26 67.23C125.16 67.08 124.72 66.1299 124.72 66.0599V56.5599C125.22 56.6599 126.92 56.2999 127.09 56.8399L127.2 65.9699C127.8 67.0899 130.19 66.8099 130.19 65.5399V56.5499V56.5599Z" fill="#F6D1C8"/>
<path d="M123.17 68.5399C122.14 68.6299 121.96 68.6099 121.54 67.6899C119.59 69.7999 116.1 68.6299 115.8 65.7199C115.65 64.1899 115.65 61.0899 115.8 59.5499C116.22 54.8499 123.78 55.6199 123.17 60.4999L120.97 60.4799C120.7 60.3099 121.04 58.6099 119.62 58.4799C118.78 58.3999 118.16 58.9299 118.04 59.7399C117.92 60.6199 117.92 65.2499 118.19 65.9099C118.9 67.6699 121.46 66.3599 120.94 64.4399L119.3 64.2799C119.13 64.0399 119.11 62.6099 119.48 62.3899H123.16V68.5499L123.17 68.5399Z" fill="#F6D1C8"/>
<path d="M140.47 58.6098H136.53V61.3498H139.44V63.3998H136.53V66.4798H140.38C140.88 66.9798 140.55 67.8698 140.64 68.5298H134.13V56.5398H140.21C140.71 57.0398 140.38 57.9298 140.47 58.5898V58.6098Z" fill="#F6D1C8"/>
<path d="M89.09 56.5598L91.23 56.7298L94.22 65.1198V56.5598H95.59V68.5398L94.07 68.5198L90.46 58.6098V68.5398H89.09V56.5598Z" fill="#F6D1C8"/>
<path d="M144.24 66.4899H147.84V68.5399H141.85V56.5499C142.61 56.6599 143.65 56.2799 144.25 56.8099V66.4899H144.24Z" fill="#F6D1C8"/>
<path d="M87.3699 68.5398L86.0199 68.5198L85.2099 65.1098L82.2499 65.1398L81.5199 68.5298L80.1699 68.5498C80.7999 67.2198 82.4399 56.7898 83.0199 56.5898C83.3299 56.4798 84.6099 56.4398 84.7599 56.8598L87.3599 68.5598L87.3699 68.5398ZM82.5799 63.9198H84.9799L83.6999 57.9298L82.5799 63.9198Z" fill="#F6D1C8"/>
<path d="M79.15 59.8099L78.11 59.7299C77.86 59.3399 77.91 58.8699 77.68 58.4499C76.84 56.9599 74.46 57.4599 74.53 59.1899C74.62 61.2899 78.48 62.1099 79.18 64.4699C80.67 69.4999 73.32 70.4399 73.22 65.4399L74.36 65.3499C74.65 65.5599 74.37 66.8999 75.55 67.4199C77.15 68.1199 78.38 66.8499 78.11 65.1999C77.75 63.0099 73.3 62.4199 73.31 59.1999C73.33 55.1799 79.73 55.6599 79.15 59.7999V59.8099Z" fill="#F6D1C8"/>
<path d="M113.75 68.5399H111.35V56.5499C112.11 56.6599 113.15 56.2799 113.75 56.8099V68.5399Z" fill="#F6D1C8"/>
<path d="M131 29.5399C136.37 28.6199 135.41 35.8899 131.14 37.3799C127.46 38.6699 125.82 35.4299 127.48 32.3499C128.06 31.2699 129.76 29.7499 131 29.5299V29.5399ZM131.34 30.2199C129.21 30.6999 126.72 37.6799 130.41 36.8299C132.32 36.3899 134.55 29.4999 131.34 30.2199Z" fill="#F6D1C8"/>
<path d="M80.38 26.9098L80.36 25.8198C80.36 25.6598 80.05 25.7098 79.95 25.7498C79.15 26.0698 78.44 28.7998 78.47 29.6698C78.61 29.8098 79.39 29.3998 79.3 29.8998C79.13 30.7898 79 30.5198 78.13 30.5298C77.71 32.8898 76.88 39.6398 74.76 40.9498C72.82 42.1498 71.86 39.3398 73.85 39.5098L74.09 40.6298C74.86 40.0598 75.08 39.3298 75.33 38.4398C76.02 35.9198 76.16 33.1298 76.92 30.6098L75.72 30.5298C75.8 29.4498 76.02 29.8398 76.58 29.5998C77.59 29.1498 77.71 26.3898 79.26 25.4298C80.94 24.3798 82.17 26.0298 81.29 26.9498C81.03 27.2498 80.67 27.0498 80.37 26.9198L80.38 26.9098Z" fill="#F6D1C8"/>
<path d="M121.07 32.0197C120.51 32.5497 119.38 32.1397 119.6 31.3297C119.72 30.8897 121.25 29.7197 118.84 30.2197C116.43 30.7197 114.34 36.3597 117.49 36.5897C119.04 36.6997 120.02 35.0198 120.51 35.1498C121.16 35.5298 119.98 36.3997 119.63 36.6597C116.23 39.1497 112.94 36.9098 114.65 32.8798C115.5 30.8798 118.19 28.8897 120.44 29.5797C121.41 29.8797 121.8 31.3397 121.07 32.0297V32.0197Z" fill="#F6D1C8"/>
<path d="M125.74 29.4997L123.86 36.2697C123.88 36.5197 124.06 36.4997 124.28 36.3497C124.69 36.0797 124.98 35.5197 125.31 35.1497L125.71 35.7097C125.42 36.9797 122.01 38.8497 122.17 36.6397C122.25 35.5497 123.96 31.3197 123.83 30.7897C123.73 30.3697 122.89 30.5597 122.56 30.5197C122.41 30.5197 122.45 30.1597 122.47 30.0897C122.62 29.7497 125.19 29.5097 125.72 29.4897L125.74 29.4997Z" fill="#F6D1C8"/>
<path d="M12.18 38.4898C11.8 35.1298 9.36001 32.9898 6.01001 32.8398L14.52 25.4298C18.76 24.8798 24.7 25.9898 24.85 31.2198L25.28 31.0498L31.79 25.3998C36.27 24.9298 42 25.8298 42.15 31.3898L49.12 25.4298C53.4 24.9698 58.7 25.6998 59.45 30.7898C59.87 38.7198 58.99 47.4298 59.62 55.2798C59.9 58.8098 62.2 61.0998 65.79 61.0998C63.23 63.2098 60.83 65.6998 58.26 67.7798C56.96 68.8298 56.77 69.0698 54.96 68.8498C49.88 68.2098 47.07 64.0698 46.77 59.2298C46.33 51.9798 47.15 44.2998 46.74 36.9998C46.32 34.7998 44.1 34.3198 42.16 34.4798V68.3898H29.66C29.59 62.0298 29.74 55.6498 29.66 49.2898C29.66 48.7998 29.48 48.3798 29.47 47.9398C29.43 44.6798 29.88 40.0398 29.47 36.9898C29.17 34.8198 26.96 34.1398 25.03 34.3198L24.85 35.9398V68.3998H12.18V38.5198V38.4898Z" fill="#F6D1C8"/>
<path d="M76.84 41.6597L79.07 49.3697L81.3 41.6597H84.21L84.47 41.9197V53.3897C83.97 53.8897 83.08 53.5597 82.41 53.6497V44.7497L79.91 53.6597L78.14 53.6397L75.73 44.7397V53.6397H73.85V41.6497H76.85L76.84 41.6597Z" fill="#F6D1C8"/>
<path d="M97.6499 41.6597V46.4497H100.9V41.6597C101.66 41.7697 102.7 41.3897 103.3 41.9197V53.6497H100.9V48.5097H97.6499V53.6497H95.4199V41.6597H97.6499Z" fill="#F6D1C8"/>
<path d="M105.93 52.8997C105.53 52.4997 105.08 51.3997 105.02 50.8197C104.87 49.5097 104.87 44.6197 105.28 43.5397C106.33 40.7897 111.07 40.7897 112.18 43.4897C112.75 44.8897 112.76 50.2797 112.25 51.7097C111.38 54.1297 107.58 54.5397 105.93 52.8997ZM107.63 43.9297C107.45 44.1197 107.27 44.8797 107.24 45.1697C107.13 46.3097 107.09 49.5397 107.28 50.6097C107.57 52.2197 109.89 52.2097 110.14 50.6397C110.27 49.7897 110.29 45.2997 110.11 44.5197C109.88 43.4897 108.25 43.2497 107.62 43.9297H107.63Z" fill="#F6D1C8"/>
<path d="M116.49 41.6597V50.1397C116.49 51.4297 117.86 52.1797 119.02 51.6397C119.24 51.5397 119.75 50.7897 119.75 50.6497V41.6597L121.87 41.6797L122.15 42.0797C121.81 44.5997 123.05 51.4097 120.94 53.0297C119.32 54.2797 116 54.1597 114.81 52.3297C114.71 52.1797 114.27 51.2297 114.27 51.1597V41.6597H116.5H116.49Z" fill="#F6D1C8"/>
<path d="M94.22 53.6397H92L91.46 51.0897L88.37 51.1697L87.71 53.5597L85.47 53.6297L88.4 41.6597L91.38 41.8097L94.2 53.6297L94.22 53.6397ZM90.97 49.0197C90.62 47.7197 90.48 46.3297 90.06 45.0497C90 44.8697 90.02 44.5297 89.77 44.5697L88.91 49.0197H90.97Z" fill="#F6D1C8"/>
<path d="M134.47 25.22C133.71 26.01 132.68 27.75 131.82 28.31C131.61 28.45 131.48 28.52 131.21 28.47L132.23 25.3L134.46 25.22H134.47Z" fill="#F6D1C8"/>
<path d="M125.18 26.1098C126.61 25.6998 127.06 27.7098 125.75 28.0598C124.53 28.3798 124.06 26.4298 125.18 26.1098Z" fill="#F6D1C8"/>
<path d="M230.36 30.07C231.47 29.99 233.93 30.08 234.9 30.57C235.67 30.96 235.97 31.69 236.05 32.5C236.51 37.08 235.77 42.49 235.98 47.15C235.64 49.22 232.33 49.29 230.66 49.19C229.16 49.11 226.91 48.87 226.65 47.04L226.68 32.03C226.94 30.31 228.96 30.17 230.37 30.07H230.36ZM230.86 31.77C230.64 31.81 230.42 31.89 230.22 31.98L230.05 32.32V46.72L230.22 47.23C230.79 47.58 232.48 47.66 232.62 46.89L232.54 32.07C232.05 31.73 231.45 31.68 230.86 31.78V31.77Z" fill="#F6D1C8"/>
<path d="M261.65 30.3599L264.99 39.9499V32.1599C264.99 32.1599 264.58 31.8599 264.51 31.6099C264.4 31.2299 264.51 30.7599 264.48 30.3599H267.56C267.51 30.7499 267.65 31.2699 267.54 31.6299C267.45 31.9199 267.05 31.8799 267.05 31.8999V48.8499H264.4L260.55 37.8899V47.0499C260.55 47.0499 260.96 47.3499 261.03 47.5999C261.14 47.9799 261.03 48.4499 261.06 48.8499H257.98C258.04 48.4699 257.89 47.9399 257.98 47.5999C258.03 47.4199 258.33 47.4399 258.41 47.3099C258.82 46.6799 258.69 33.7199 258.51 32.3099C258.43 31.6499 258.03 31.8099 257.98 31.5999C257.89 31.2599 258.04 30.7299 257.98 30.3499H261.66L261.65 30.3599Z" fill="#F6D1C8"/>
<path d="M252.06 30.3599L256.5 47.3299C257.46 47.4499 257.04 48.0799 257.11 48.8599H253.34L252.04 43.8799L248.9 43.8999L247.86 48.8499H245.64L249.72 31.9399C248.97 31.7399 249.29 30.9799 249.24 30.3699H252.07L252.06 30.3599ZM251.8 42.5199L250.52 37.7199L249.24 42.5199H251.81H251.8Z" fill="#F6D1C8"/>
<path d="M219.26 47.0499C219.71 47.5899 221.57 47.6999 221.8 47.0199C221.92 46.6499 221.91 41.9799 221.82 41.4099C221.78 41.1199 221.68 40.9299 221.49 40.7099C220.68 39.7699 219.03 38.6599 218.14 37.7199C217.91 37.4699 217.45 36.9299 217.34 36.6399C217.11 36.0299 217.11 32.7399 217.29 32.0599C217.72 30.4099 220.38 30.2699 221.75 30.3499C222.19 30.3799 222.7 30.6599 222.96 30.6799C223.03 30.6799 223.01 30.3799 223.15 30.3499C223.72 30.2199 224.64 30.4399 225.26 30.3499V35.4899L223.11 35.3299C222.69 34.7199 223.82 32.3399 222.69 31.8099C222.27 31.6099 220.78 31.5999 220.55 32.0699C220.4 32.3799 220.41 34.4399 220.46 34.8999C220.67 36.6699 224.79 38.5899 225.18 40.4499C225.41 41.5599 225.39 45.3399 225.26 46.5399C225.08 48.2499 223.82 48.8699 222.26 49.0199C220.99 49.1399 218.6 49.0999 217.72 48.0799C217.63 47.9799 217.21 47.2699 217.21 47.2199V43.0199H219.27V47.0399L219.26 47.0499Z" fill="#F6D1C8"/>
<path d="M241.35 30.3599C241.29 30.7399 241.44 31.2699 241.35 31.6099C241.3 31.7899 240.83 31.8799 240.83 31.9899V47.4899C243 47.4099 243.27 44.5499 243.59 42.8799L244.94 42.8599V48.8499H236.89C236.94 48.4599 236.8 47.9399 236.92 47.5899C237.01 47.3399 237.44 47.4099 237.42 47.0599C237.01 44.9499 237.95 32.8799 237.31 31.8999C237.23 31.7799 236.93 31.7899 236.88 31.6099C236.79 31.2699 236.94 30.7399 236.88 30.3599H241.33H241.35Z" fill="#F6D1C8"/>
<path d="M254.63 50.3899C255.85 50.6499 255.72 53.6099 255.56 54.5799C255.49 54.9999 255.04 55.3999 255.07 55.5899C255.1 55.7599 255.49 55.9099 255.57 56.2999C255.74 57.1699 255.44 58.4799 255.57 59.3899C255.64 59.8599 256.03 60.1499 255.92 60.6599C252.62 61.2399 253.97 58.3999 253.67 56.3199L253.41 56.0599L252.32 56.0399V59.7199C252.32 59.7699 252.89 60.2599 252.66 60.6599H250.26V50.3899C251.52 50.5699 253.47 50.1399 254.63 50.3899ZM253.69 54.8399V51.4999L253.41 51.2699L252.32 51.2399V54.8399H253.69Z" fill="#F6D1C8"/>
<path d="M244.09 60.6699C243.99 60.1499 244.38 59.8699 244.44 59.3899C244.64 57.9899 244.6 53.4599 244.44 52.0099C244.37 51.3799 243.97 51.0299 244.09 50.3999H248.46C248.54 50.3999 249.06 50.6599 249.14 50.7499C249.48 51.0999 249.51 54.1899 249.4 54.7699C249.33 55.1499 248.89 55.4099 248.89 55.4599C248.89 55.5099 249.32 55.7699 249.4 56.1499C249.49 56.5999 249.46 59.8599 249.31 60.1699C249.27 60.2599 248.84 60.6899 248.8 60.6899H244.09V60.6699ZM247.52 54.8399V51.4999L247.24 51.2699L246.15 51.2399V54.8399H247.52ZM247.52 56.0399H246.15V59.7199C246.46 60.0999 247.19 60.1199 247.52 59.7199V56.0399Z" fill="#F6D1C8"/>
<path d="M217.2 60.6699V50.3999H221.57C221.92 50.3999 222.47 51.0999 222.52 51.4999C222.72 53.0499 222.7 57.9799 222.52 59.5599C222.49 59.8499 222.18 60.6699 221.92 60.6699H217.21H217.2ZM219.26 51.2499V59.9799C219.66 59.9599 220.59 60.0899 220.64 59.5599C220.91 57.0699 220.44 54.0699 220.6 51.5299L220.34 51.2699L219.25 51.2499H219.26Z" fill="#F6D1C8"/>
<path d="M227.31 50.3899L227.82 53.2999C226.2 53.5199 227.1 50.8199 225.42 51.2499V54.8499C226.28 54.9799 226.55 54.6699 226.64 53.8399L227.3 53.8199V56.8999L226.64 56.8799C226.55 56.0599 226.28 55.7499 225.42 55.8699V59.9799L226.25 59.9599C226.64 59.7199 226.61 56.9699 227.82 57.4199V60.6699H223.2C223.1 60.1499 223.49 59.8699 223.55 59.3899C223.75 57.9899 223.71 53.4599 223.55 52.0099C223.48 51.3799 223.08 51.0299 223.2 50.3999H227.31V50.3899Z" fill="#F6D1C8"/>
<path d="M267.56 50.3899V53.2999H266.36C266.32 52.0099 266.81 50.9099 265.02 51.2699C263.69 53.6199 267.09 54.5799 267.49 55.8599C267.68 56.4799 267.65 59.4999 267.37 60.0399C266.7 61.3399 263.11 60.9299 263.11 59.8899V57.4099L264.23 57.5699L264.33 59.7799C264.79 60.0499 265.2 59.9599 265.68 59.8099V56.4699C265.68 56.1699 263.46 54.6699 263.24 54.1099C263.06 53.6599 263.01 51.8199 263.15 51.3599C263.55 49.9899 266.5 50.5999 267.57 50.3799L267.56 50.3899Z" fill="#F6D1C8"/>
<path d="M243.58 60.67L241.55 60.65L240.93 58.1L239.11 58.03L238.54 60.51L237.25 60.67L239.44 51.97L239.3 50.39C239.83 50.46 240.68 50.15 240.99 50.67L243.59 60.66L243.58 60.67ZM240.67 57.24L239.99 54.67L239.3 57.24H240.67Z" fill="#F6D1C8"/>
<path d="M277.84 23.1599V75.9899L277.58 76.2499H254.2C252.98 83.0599 244.73 83.9299 239.09 83.0499C235.32 82.4599 231.49 80.4199 231.08 76.2499H207.02L206.76 75.9899V23.4199L207.02 23.1599H277.84ZM275.78 25.3899H208.98V74.0199H231.08C231.56 69.2099 235.91 64.2799 240.66 63.3099C247.16 61.9899 253.26 67.8799 254.2 74.0199H275.78V25.3899ZM244.27 72.3099C243.22 72.5399 243.24 73.4199 243.32 74.3799L244.25 74.5199L244.44 72.9999C245.08 73.0899 245.41 73.6999 246.15 73.5099L245.64 73.6799L245.98 74.0199L245.37 74.1799C245.14 75.0999 245.6 76.0599 246.67 75.9099C246.12 77.0299 247.56 77.1599 247.18 78.3099C248.62 78.3099 250 78.4799 251.44 78.2799C254.63 72.8799 248.31 64.9399 242.65 64.9399C239.18 64.9399 235.84 67.6399 234.21 70.5499C232.9 72.8799 232.21 75.8799 233.83 78.2299C235.21 78.5799 236.54 78.2799 237.94 78.3099C237.67 77.2099 239.13 77.0199 238.45 75.9099C239.63 76.1399 240.45 74.4999 239.34 73.9999L239.48 73.6899L238.96 73.5199C239.48 73.8199 240.4 72.9599 240.58 72.9999C241.02 73.0899 240.69 73.7199 240.7 73.9499C240.74 74.8899 241.99 74.8999 241.86 73.6199C241.77 72.7699 241.57 72.4999 240.84 72.3199C240.32 72.1899 240.58 72.2899 240.33 72.3199C239.82 72.3699 239.32 72.5699 238.79 72.4899C238.66 71.8299 239.86 72.1199 239.99 71.6399C239.35 71.2999 239.19 71.6399 238.62 71.8099L239.13 71.3799L237.59 70.0999C238.37 69.9599 238.75 70.5599 239.3 70.9499C239.28 70.1999 240.56 70.8199 240.84 70.2699H239.64L239.98 69.7599C239.59 69.9499 238.34 68.9799 238.61 68.7299L239.9 69.2399C240.27 68.2599 240.77 69.7699 241.44 69.6899C241.64 69.6699 242.19 69.0199 242.03 68.8899C242.33 68.9299 242.92 68.9299 243.23 68.8899C243.39 70.2299 244.26 69.5699 244.86 68.8899L245.2 69.2299L246.49 68.7199C246.76 68.9699 245.51 69.9399 245.12 69.7499L245.63 70.2599C245.04 70.1699 244.44 69.9199 244.09 70.5999C244.65 70.5299 245.64 70.2899 245.89 70.9399C246.3 70.4899 246.87 70.0799 247.52 70.0899C247.45 70.8499 246.45 70.9599 245.98 71.3699L246.66 71.4599C246.37 72.1899 245.93 71.2199 245.29 71.6299L246.32 72.4799C245.79 72.5499 245.29 72.3699 244.78 72.3099C244.75 72.3099 244.67 72.1399 244.52 72.1399C244.37 72.1399 244.3 72.2999 244.27 72.3099ZM242.93 70.5599L242.64 69.0499C242.33 69.4299 241.83 69.9799 242.38 70.3299L241.87 70.6699L242.62 71.2599L243.24 70.6699L242.93 70.5499V70.5599ZM241.69 70.5999V70.2599H241.52V70.5999H241.69ZM243.58 70.5999V70.2599H243.41V70.5999H243.58ZM239.98 70.9399C239.23 70.8099 239.88 71.6599 240.15 71.4499L239.98 70.9399ZM241.87 71.9699L241.71 71.1899L240.68 70.9399L240.84 71.6999L241.87 71.9599V71.9699ZM245.12 71.4499C245.19 71.5299 245.57 71.1499 245.46 70.9399C245.39 70.8599 245.01 71.2399 245.12 71.4499ZM244.44 71.1099L243.44 71.1299L243.24 71.9599C243.77 71.9299 244.58 71.8299 244.44 71.1099ZM241.87 74.8799L241.19 75.0499L241.62 75.7299L241.87 74.8799ZM244.09 75.0499L243.23 74.8799C243.14 74.9799 243.21 75.8299 243.58 75.6499C243.9 75.5899 243.98 75.3299 244.09 75.0499ZM241.68 76.0999L241.01 75.9899C240.18 76.9799 239.85 77.2799 240.92 78.3099L241.68 76.0999ZM244.26 75.9099L243.4 76.1799C243.47 76.5399 243.92 78.2299 244.35 78.1399L244.95 77.1899L244.26 75.9099ZM240.33 78.2999C239.74 77.5999 239.08 77.1099 238.28 77.8799C238.47 78.8199 239.63 78.1199 240.33 78.2999ZM244.78 78.2999C245.28 78.1099 247.14 78.8399 246.83 77.8799C246.58 77.1099 245.04 77.6399 244.78 78.2999ZM250.77 78.8199H234.33C234.96 79.9599 236.03 79.3199 236.98 79.3199C240.69 79.3199 244.41 79.3199 248.11 79.3199C249.06 79.3199 250.13 79.9699 250.76 78.8199H250.77ZM249.23 80.0199C248.45 79.6699 247.79 80.0199 247.1 80.0199C243.72 80.0199 240.37 79.8699 237 79.8399C236.7 79.8399 236.18 80.0099 235.88 80.0999C235.88 80.2699 237.88 80.5399 238.19 80.5399C238.77 80.5399 239.25 80.3399 239.73 80.3399C242.46 80.3599 246.14 80.7999 248.77 80.3099C248.93 80.2799 249.28 80.2399 249.24 80.0099L249.23 80.0199ZM246.15 81.0399H238.96V81.2099C239.33 81.0399 239.89 81.3799 240.07 81.3799H245.21C245.36 81.3799 245.83 81.0599 246.15 81.2099V81.0399Z" fill="#F6D1C8"/>
<path d="M262.59 60.6699L260.56 60.6499L259.87 58.0299L258.16 57.9499L257.55 60.4999L256.26 60.6599L258.45 51.9599L258.31 50.3799L259.94 50.5499L262.59 60.6599V60.6699ZM259.68 57.2399L259 54.6699L258.31 57.2399H259.68Z" fill="#F6D1C8"/>
<path d="M240.84 72.3098C240.84 72.9398 240.33 72.9398 240.33 72.3098H240.84Z" fill="#F6D1C8"/>
<path d="M236.73 50.3899V53.6399L235.61 53.4799C235.23 52.9399 236.18 50.2999 234.36 51.5199L234.44 59.8199L235.38 59.8999C235.9 58.7999 234.8 57.2599 236.74 57.5699V60.0499C236.74 60.7599 232.67 61.7499 232.45 59.3699C232.28 57.4799 232.27 53.5299 232.45 51.6499C232.65 49.5899 235.42 50.7699 236.74 50.3799L236.73 50.3899Z" fill="#F6D1C8"/>
<path d="M244.78 72.3098C244.78 72.9398 244.27 72.9398 244.27 72.3098H244.78Z" fill="#F6D1C8"/>
<path d="M254.42 30.7498C255.89 29.4098 258.1 31.5098 256.77 33.0098C255.34 34.6198 252.85 32.1898 254.42 30.7498ZM255.18 30.7298C253.82 31.0298 254.24 33.4398 255.75 33.1898C257.26 32.9398 257.16 30.2898 255.18 30.7298Z" fill="#F6D1C8"/>
<path d="M242.04 68.89L240.85 68.71L240.98 68.41C240.82 68.36 240.71 68.33 240.63 68.16C239.68 66.16 240.22 65.74 242.39 65.81C241.91 64.87 243.39 64.87 242.9 65.81C244.94 65.77 245.7 66.18 244.59 68.1C244.43 68.37 244.08 68.28 244.12 68.81L243.25 68.89C243.25 68.89 244 68.7 243.93 68.55C243.02 68.36 242.27 68.36 241.36 68.55C241.29 68.7 242.01 68.89 242.04 68.89ZM242.38 66.15C242.21 65.98 241.57 66.24 241.7 66.75C241.86 67.36 242.78 66.56 242.38 66.15ZM243.58 66.83C244.05 66.19 242.31 65.69 242.98 66.83C243.1 67.03 243.56 66.85 243.58 66.83ZM241.18 66.32L240.52 66.77L240.84 67.69L241.18 67.61V66.32ZM244.43 67.69C244.54 67.02 245.16 66.52 244.09 66.32C244.13 66.69 244.11 67.16 244.15 67.51C244.19 67.81 244.13 68.01 244.42 67.69H244.43ZM242.72 67.17V66.83H242.55V67.17H242.72ZM241.52 67.34V67H241.35V67.34H241.52ZM243.92 67.34V67H243.75V67.34H243.92ZM242.89 67.69H242.21V67.86H242.89V67.69ZM241.52 67.86H241.01V68.03H241.52V67.86ZM244.26 67.86H243.58V68.03H244.26V67.86ZM241.87 68.2H241.19V68.37H241.87V68.2ZM243.92 68.2H243.41V68.37H243.92V68.2Z" fill="#F6D1C8"/>
<path d="M256.25 32.7498L255.31 32.0698L254.88 32.7598V31.0498L256.18 31.2098C256.44 31.8798 255.64 32.1098 256.25 32.7598V32.7498ZM255.91 31.7298V31.4798C255.73 31.2098 255.54 31.1798 255.23 31.2198V31.7298H255.91Z" fill="#F6D1C8"/>
</svg>
