<svg width="287" height="103" viewBox="0 0 287 103" fill="none" xmlns="http://www.w3.org/2000/svg">
<path d="M51.89 38.66C50.39 33.97 52.33 29.32 56.33 26.66C56.72 26.4 58.2 25.74 58.32 25.6C58.5 25.38 58.86 23.95 59.08 23.47C63.05 14.99 76.56 14.9 80.64 23.31C80.87 23.78 81.31 25.45 81.45 25.62C81.53 25.72 83.39 26.6 83.8 26.88C87.47 29.42 89.58 34.52 87.83 38.82C87.64 39.29 87.14 39.48 87.19 40.26L84.96 43.2L87.35 45.96C87.47 46.15 87.7 46.12 87.84 46.19C87.89 46.61 88.49 47.15 88.8 47.47C89 48.52 88.94 49.3 88.96 50.36L83.58 44.59L78.06 50.96C77.93 51.46 80.25 53.77 80.77 54.22C80.8 55.2 80.84 56.39 80.77 57.36C80.75 57.66 80.81 57.96 80.44 58.07C80.42 57.68 80.49 57.29 80.41 56.9L79.48 55.83V62.09L80.41 61.01L80.44 58.4H81.08V60.32C81.62 59.86 82.63 59.04 81.88 58.4C82.57 58.4 83.27 58.4 83.97 58.4V57.12C85.73 55.54 87.15 53.39 88.94 51.83C88.95 52.79 88.94 53.76 88.94 54.72L84.94 58.99C87.35 61.73 88.94 64.8 88.25 68.55C87.56 72.3 85.26 74.51 82.2 76.3C81.97 76.43 81.5 76.49 81.43 76.57C81.36 76.65 80.95 78.18 80.78 78.57C76.76 87.55 62.82 87.34 58.85 78.3C58.66 77.88 58.5 76.85 58.29 76.62C58.1 76.41 57.07 76.05 56.7 75.8C51.68 72.58 49.64 66.68 52.99 61.37C53.33 60.84 54.77 59.34 54.76 58.96C54.76 58.63 53 57.07 52.68 56.64C52.69 55.68 52.65 54.71 52.68 53.75C53.21 54.2 55.88 57.5 56.27 57.43C56.43 57.4 56.64 57.02 56.85 56.96C56.84 58.37 56.91 59.6 56.69 60.97C56.31 60.14 55.44 61.3 55.18 61.63C51.84 65.85 53.46 72.03 58.13 74.45C58.18 72.45 58.75 70.55 59.86 68.88C60.16 68.42 61.6 66.9 61.63 66.64C61.71 66.1 58.51 63.35 58.29 62.58H60.74L61.97 63.86C62.09 63.43 61.6 62.38 62.45 62.58C62.47 63.49 62.16 64.59 63.01 65.14C63.11 65.02 63.57 64.63 63.57 64.58V53.03C63.57 53.03 63.17 52.57 63.01 52.63C62.96 52.84 62.64 53.05 62.61 53.11C62.51 53.13 62.38 53.09 62.29 53.11V51.12C62.28 51.04 61.75 50.87 61.65 50.86L59.89 48.77C60.83 48.39 61.67 48.06 62.46 47.65C62.5 48.11 62.35 48.65 62.54 49.09C62.75 49.57 63.58 49.73 63.58 49.33V37.62C63.58 37.57 63.11 37.18 63.02 37.06L62.47 37.95V46.52C62.41 46.52 62.22 46.64 62.14 46.68C61.87 46.51 61.98 46.07 61.98 45.8C61.97 44.76 61.98 43.71 61.98 42.67C61.98 41.63 62.07 40.97 61.98 39.78C61.94 39.31 62.01 38.81 61.98 38.34L61.02 38.98C60.62 38.8 59.56 38.65 59.09 38.66L61.66 35.69C59.72 33.39 58.08 30.9 58.12 27.75C54.18 29.91 52.42 34.4 53.95 38.66C53.26 38.65 52.55 38.64 51.86 38.66H51.89ZM79 24.86C78.59 23.06 77.01 21.4 75.49 20.43C70.32 17.12 63.08 19.05 60.71 24.78C61.8 24.93 62.89 24.63 64.01 24.7C65 24.76 66.39 25.08 67.33 25.39C67.84 25.56 69.77 26.61 69.91 26.61C70.18 26.59 71.59 25.74 72.06 25.55C74.26 24.71 76.67 24.55 79 24.87V24.86ZM68.57 27.93C68.18 27.37 64.65 26.51 63.85 26.46C63.12 26.41 60.97 26.51 60.35 26.79C59.65 27.11 60.44 30.12 60.68 30.75C60.92 31.38 62.49 34.06 63.06 34.16C63.25 34.19 63.33 34.04 63.45 33.94L68.25 28.64C68.37 28.5 68.66 28.08 68.56 27.93H68.57ZM71.14 27.91L76.83 34.16C78.41 32.55 80.1 29.51 79.64 27.18C79.55 26.7 79.12 26.77 78.71 26.67C76.13 26.02 73.46 26.79 71.14 27.91ZM80.77 38.66C80.21 38.81 79.37 39.98 79.24 40.58C79 41.71 79.43 42 79.49 42.84C79.58 43.98 79.42 45.22 79.49 46.37C80.6 45.75 80.33 44.82 80.61 43.8C80.7 43.84 81.01 43.95 81.09 43.96V44.6C81.37 44.51 81.56 44.24 81.57 43.96C83.48 43.99 84.74 42.69 84.46 40.75C86.99 37.68 87.01 33.43 84.59 30.27C84.28 29.86 81.96 27.51 81.57 27.92C81.76 31 79.96 33.48 78.08 35.7L80.77 38.67V38.66ZM66.81 38.66C66.16 38.65 65.25 38.53 64.72 38.82C64.61 38.75 64.27 38.45 64.24 38.5V48.45C65.77 47.37 65.05 45.58 65.2 43.96C65.76 43.94 65.64 43.86 65.68 44.35C65.74 45.09 65.64 45.86 65.68 46.6L66 46.68C66.01 46.19 66.66 45.97 66.77 45.61C67 44.83 66.32 43.69 67.44 43.96L67.52 44.76C67.75 44.3 68.49 44.06 68.72 43.8C68.99 43.5 68.88 43.22 68.88 42.84C68.49 42.73 68.59 42.99 68.4 43.16L67.44 42.2V43.64C67.28 43.66 66.92 43.67 66.8 43.64V41.39H67.12C67.59 41.6 67.55 41.7 67.92 42.03V40.43C67.49 40.95 67.22 41.16 66.48 41.07V38.98C66.74 38.99 67.02 38.96 67.28 38.98L69.93 42.03C70.69 41.08 71.45 40.07 72.42 39.3C72.83 40.34 72.45 41.99 72.58 43.15C72.56 42.93 72.31 42.37 72.34 42.03C72.1 42.35 71.04 43.31 71.21 43.63C71.38 43.95 72.11 44.41 72.34 44.75C72.53 44.09 72.15 43.83 73.06 43.95C72.96 45.1 73.01 45.97 74.02 46.68C74.02 45.72 74.02 44.75 74.02 43.79C74.02 43.74 74.02 43.68 74.02 43.63C74.02 42.88 74.02 42.13 74.02 41.38C74.6 41.43 74.48 41.7 74.66 42.02C74.89 43.47 74.31 46.18 74.75 47.47C74.85 47.76 75.33 48.28 75.62 48.44C75.4 47.16 75.92 44.75 75.62 43.63C75.82 43.69 76.08 43.92 76.26 43.95C76.5 45.31 75.92 48.13 76.29 49.3C76.34 49.46 76.49 49.6 76.66 49.57C76.75 49.45 77.22 49.06 77.22 49.01V37.62C77.22 37.62 76.88 37.25 76.8 37.23C76.06 37.09 76.27 39 76.26 39.46H75.94C75.89 39.31 75.68 39.14 75.62 38.98C75.58 38.88 75.65 38.64 75.62 38.5L75.3 38.82C74.52 38.69 73.69 38.64 72.89 38.66C73.19 38.01 75.42 36.11 75.28 35.56L69.76 29.67L64.44 35.69L66.79 38.66H66.81ZM77.88 48.12C78.31 47.85 78.75 47.42 78.83 46.91C79.04 45.59 78.99 41.26 78.85 39.85C78.78 39.14 78.44 38.9 77.88 38.5V48.12ZM69.38 50.85C69.17 50.83 68.95 50.85 68.74 50.85V46.36C67.1 47.23 67.99 49.31 67.78 50.85C67.58 50.87 67.29 50.81 67.14 50.85L67.06 48.12C65.82 48.96 66.23 50.2 66.18 51.49C65.89 51.78 65.61 52.45 65.55 52.87C65.04 56.66 69.9 57.5 70.03 60.15L68.1 62.24C67.79 62.23 67.01 61.89 66.82 61.67C66.63 61.45 66.69 61.16 66.66 61.12C66.79 60.02 67.07 57.47 66.73 56.48C66.61 56.13 66.11 55.63 65.7 55.67C65.82 56.8 65.53 58.28 65.7 59.36C65.36 60.36 65.62 61.52 65.54 62.57C66.4 62.19 66.91 62.65 67.62 62.73L64.42 66.64L69.92 72.51L75.32 66.51L70.82 61.3C71.16 60.72 71.36 59.73 71.3 59.05C71.44 59.28 72.17 59.96 72.42 60.17V57.44C71.85 57.64 71.64 58.53 71.14 58.56C70.85 58.05 70.77 57.5 70.34 56.96C70.29 55.9 70.41 54.81 70.34 53.75C70.83 53.84 70.65 53.5 70.66 53.2C70.67 52.84 70.71 51.01 70.62 50.9C70.56 50.83 70.35 50.88 70.34 50.87C70.17 50.61 70.49 46.34 70.34 45.5C70.25 44.99 69.8 44.97 69.53 45.33C69.09 45.91 69.55 49.88 69.38 50.88V50.85ZM70.98 55.98C71.41 55.71 71.85 55.28 71.93 54.77C72.04 54.04 72.02 47.59 71.85 47.17C71.77 46.96 71.21 46.35 70.97 46.2V55.98H70.98ZM72.59 54.22C72.88 54.02 73.77 53.07 73.84 52.82C73.97 52.38 73.93 49.52 73.72 49.15C73.56 48.87 72.87 48.36 72.59 48.12V54.22ZM65.53 52.29V49.88C64.43 50.82 64.27 51.39 65.53 52.29ZM74.51 51.97C75.52 51.32 75.52 50.93 74.59 50.21L74.51 51.97ZM78.84 57.43C79 56.17 79.63 55.78 79.08 54.22C78.86 53.61 77.97 52.61 77.32 52.61H74.83C75.58 53.08 75.23 53.48 75.31 54.21C74.91 54.43 74.72 54.62 74.66 55.08C74.48 56.41 74.48 61.15 74.66 62.48C74.73 63.03 75.2 63.37 75.63 63.67V58.38C75.84 58.38 76.06 58.38 76.27 58.38C76.45 60.2 76.02 62.48 76.27 64.24C76.39 65.1 77.08 65.17 77.24 64.39C77.56 62.73 77.01 60.14 77.24 58.38C77.41 58.36 77.72 58.28 77.88 58.22L77.96 63.67C78.22 63.34 78.76 63.07 78.84 62.62C79.12 61.18 78.65 58.95 78.84 57.41V57.43ZM64.24 63.68C64.67 63.41 65.11 62.98 65.19 62.47C65.4 61.12 65.35 56.69 65.21 55.25C65.14 54.54 64.8 54.3 64.24 53.9V63.68ZM74.03 61.92V55.66C73.8 55.82 73.25 56.25 73.15 56.46C73 56.79 72.99 60.36 73.1 60.83C73.19 61.25 73.67 61.69 74.03 61.91V61.92ZM67.45 59.99C67.74 59.78 68.58 59.09 68.58 58.79L67.45 57.43V60V59.99ZM81.57 74.43C81.67 74.55 82.77 73.75 82.93 73.63C87.26 70.15 87.58 64.36 83.58 60.48L78.06 66.51C80.02 68.74 81.76 71.29 81.58 74.43H81.57ZM71.14 74.27C73.4 75.51 76.33 76.15 78.88 75.51C79.25 75.42 79.57 75.42 79.65 75C79.99 73.23 78.91 70.66 77.86 69.25C77.73 69.08 76.92 68.04 76.84 68.02C76.43 67.92 71.81 73.56 71.15 74.27H71.14ZM60.26 75.36C60.33 75.42 61.84 75.69 62.08 75.71C63.77 75.85 65.55 75.62 67.13 74.99C67.42 74.87 68.64 74.36 68.57 74.04C67.78 73.36 63.61 68.17 63.04 68.17C62.44 68.17 60.99 70.72 60.75 71.34C60.49 72.03 59.73 74.9 60.26 75.36ZM79.17 77.32C76.83 77.63 74.63 77.55 72.39 76.8C71.88 76.63 70.08 75.61 69.95 75.61C69.7 75.61 68.36 76.43 67.94 76.59C66.82 77.02 65.38 77.4 64.18 77.48C62.98 77.56 61.87 77.33 60.72 77.4C63.93 85.44 75.98 85.3 79.17 77.32Z" fill="#F6D1C8"/>
<path d="M234.72 45.0801C239.3 45.6001 240.56 49.7601 238.33 53.4201C241.43 54.9601 241.27 59.3901 238.61 61.3201C237.88 61.8401 235.9 62.7301 235.04 62.7301H221.8V45.0901H234.72V45.0801ZM225.65 51.9701H234.07C234.17 51.9701 234.91 51.4801 235.03 51.3301C235.72 50.4301 235.47 48.4501 234.23 48.4501H225.65V51.9801V51.9701ZM225.65 59.3501H234.88C235.27 59.3501 236.28 58.5901 236.44 58.1901C236.72 57.4901 236.7 56.1101 235.98 55.6801C235.88 55.6201 235.09 55.3401 235.04 55.3401H225.65V59.3501Z" fill="#F6D1C8"/>
<path d="M263.2 45.0801V48.4401H251.32L251.48 51.9701H262.39V55.5001H251.48L251.32 59.3501H263.84V62.7201H247.31V45.0801H263.2Z" fill="#F6D1C8"/>
<path d="M171.9 62.7201V45.0801H182.09C184.17 45.0801 187.43 46.9201 188.75 48.5301C193.32 54.0801 189.03 62.7301 181.93 62.7301H171.9V62.7201ZM175.75 59.3501H181.29C186.32 59.3501 188.58 52.7801 184.66 49.7301C183.96 49.1901 182.32 48.4401 181.45 48.4401H175.75V59.3501Z" fill="#F6D1C8"/>
<path d="M203.64 44.8001C210.29 44.0501 216.21 47.9301 215.55 55.1001C214.69 64.3701 200.06 66.0501 196.21 57.9101C193.45 52.0601 197.31 45.5101 203.64 44.8001ZM201 49.7801C199.86 50.8801 199.25 52.7301 199.33 54.3001C199.74 61.8201 212.15 61.4401 211.53 53.3301C211.14 48.2301 204.4 46.5001 200.99 49.7801H201Z" fill="#F6D1C8"/>
<path d="M273.95 45.0801V59.3501H285.5V62.7201H269.94V45.0801H273.95Z" fill="#F6D1C8"/>
<path d="M4.72008 45.8799L7.37008 57.2699L10.0201 45.8799H13.0701C13.1001 46.4199 12.4701 46.1399 12.2001 46.6899C12.0301 47.0299 11.9701 47.7899 11.9401 48.1999C11.7201 51.5499 11.6501 57.2599 11.9501 60.5599C11.9801 60.8399 12.0801 61.5399 12.1901 61.7599C12.4301 62.2299 13.1601 62.0399 13.0701 62.5699H9.22008C9.07008 62.0999 10.1801 62.0999 10.1801 61.5299V48.1399L6.89008 62.5799L6.49008 62.1799C5.29008 57.7399 4.63008 52.9999 3.39008 48.5899C3.34008 48.4199 3.35008 48.1099 3.12008 48.1399V60.8899C3.12008 60.9699 3.44008 61.8299 3.52008 61.9299C3.85008 62.3199 4.49008 62.0499 4.40008 62.5699H1.51008C1.42008 62.0599 2.02008 62.2699 2.30008 61.8299C2.42008 61.6399 2.47008 61.4299 2.48008 61.2099C2.14008 56.7499 2.93008 51.6299 2.48008 47.2399C2.46008 47.0399 2.48008 46.8799 2.39008 46.6899C2.17008 46.2399 1.41008 46.4099 1.51008 45.8899H4.72008V45.8799Z" fill="#F6D1C8"/>
<path d="M87.8299 46.1999C87.8199 46.0899 87.7699 45.8599 87.9299 45.8799C90.5999 46.0299 95.5499 45.0499 96.6699 48.3599C97.2999 50.2299 96.9099 52.3499 95.2999 53.5799L93.9399 54.3799C97.2499 54.9799 96.2399 59.0399 97.4399 61.2299C97.8999 62.0599 98.3699 61.9499 99.2399 61.9199C97.9899 63.2399 95.6999 62.5999 95.1099 60.8299C94.2299 58.1799 95.1499 53.8599 90.7299 54.5399V61.0399C90.7299 61.1099 90.9799 61.7499 91.0399 61.8499C91.3699 62.3399 91.9599 62.0699 91.8499 62.5699H87.8399C87.7699 62.0399 88.4299 62.2399 88.7099 61.7599C89.1799 60.9599 88.9499 56.0199 88.9599 54.7099C88.9599 53.7499 88.9699 52.7799 88.9599 51.8199C88.9599 51.3399 88.9699 50.8599 88.9599 50.3799C88.9399 49.3199 88.9999 48.5399 88.7999 47.4899C88.7299 47.1399 88.8399 46.8999 88.5599 46.5299C88.2499 46.1199 88.0599 46.3099 87.8399 46.2099L87.8299 46.1999ZM90.7199 49.7299C90.7199 50.6399 90.7099 51.5499 90.7199 52.4599C90.7199 52.9899 90.7199 53.5299 90.7199 54.0599C93.7099 54.3799 95.2399 52.7399 95.0599 49.7999C94.8799 46.8599 93.3699 46.3099 90.7199 46.5199C90.7199 47.5899 90.7199 48.6599 90.7199 49.7299Z" fill="#F6D1C8"/>
<path d="M52.37 39.7799C52.38 39.5099 52.36 39.2399 52.37 38.9799C52.82 39.0199 53.4 38.8699 53.81 39.0599C54.11 39.1999 54.16 39.5799 54.34 39.7399C54.42 39.8199 54.59 39.7599 54.61 39.7799C54.87 40.0399 56.02 41.6799 56.14 41.7099C57.03 41.3999 57.22 40.1699 58.14 39.9499C58.2 40.7499 58.19 41.8699 58.14 42.6799C57.36 42.7599 57.66 43.2799 57.5 43.7999C57.61 43.7999 57.72 43.7999 57.82 43.7999C57.87 43.7999 57.93 43.7999 57.98 43.7999L58.78 44.5999L58.94 43.7999C59.05 43.7999 59.15 43.7999 59.26 43.7999C59.07 45.0399 59.43 45.7599 60.38 46.5299V43.7999C60.44 43.7999 60.8 43.6699 60.86 43.6399C60.95 44.8399 60.67 46.1699 61.02 47.3299C60.62 47.5799 59.81 48.1599 59.42 48.4499L56.77 45.2399L56.26 44.7699C55.84 44.6999 51.19 50.2799 50.44 50.9699C50.35 51.3299 51.62 52.6899 52.03 52.9399C52.09 53.8199 52.02 54.7799 52.03 55.6699L48.18 51.6599C48.36 51.1699 48.32 51.1399 48.98 51.1799V51.0199C48.63 51.1799 48.2 50.8799 48.02 50.8599L54.28 43.7999C54.64 43.7799 54.8 43.5299 54.9 43.2099C54.93 42.9199 54.67 42.9199 54.6 42.8399C54.31 42.4599 54.15 42.3399 53.8 42.0399V40.5999C53.58 40.7499 53.41 40.8299 53.16 40.9199L52.36 39.7999L52.37 39.7799Z" fill="#F6D1C8"/>
<path d="M28.8701 50.8501C31.5801 51.1701 32.8701 54.0001 30.8001 55.9801L29.4401 56.7801C31.4401 57.1101 31.2001 61.5701 32.6401 62.0101C33.0901 62.1501 33.6401 61.6901 33.6001 62.1501C32.1201 62.9901 30.6101 62.6201 29.9101 61.0301C29.2101 59.4401 29.6701 56.5301 27.1901 56.9401V61.6701C27.1901 62.2401 28.1501 62.0401 27.9901 62.5501H24.4601C24.3701 62.0701 24.8201 62.2901 25.1101 62.0001C25.2701 61.8401 25.3801 61.5701 25.4101 61.3401C25.2301 58.4501 25.6801 55.2101 25.4301 52.3601C25.4001 52.0601 25.4101 51.8601 25.2401 51.5801C24.9401 51.0601 24.4101 51.3701 24.4601 50.8401C25.8601 50.9601 27.5001 50.6801 28.8701 50.8401V50.8501ZM27.0201 56.4601C31.2001 57.2801 31.0701 50.5001 27.0201 51.3301V56.4601Z" fill="#F6D1C8"/>
<path d="M38.05 50.73C44.68 49.38 44.78 62.68 39.11 62.87C33.44 63.06 33.5 51.65 38.05 50.73ZM37.82 61.86C38.88 62.89 40.11 62.21 40.66 61.04C41.6 59.01 41.65 53.76 40.31 51.92C39.58 50.92 38.53 50.89 37.73 51.85C36.28 53.59 36.19 60.28 37.82 61.86Z" fill="#F6D1C8"/>
<path d="M48.04 50.8501C48.22 50.8701 48.65 51.1701 49 51.0101V51.1701C48.34 51.1301 48.38 51.1701 48.2 51.6501C48.09 51.9301 48.06 52.0501 48.03 52.3601C47.87 54.4001 47.85 58.0501 48.03 60.0801C48.19 61.9101 49.65 62.3501 51.2 61.6401C52.45 61.0701 52.06 56.9801 52.04 55.6701C52.03 54.7801 52.1 53.8201 52.04 52.9401C52.01 52.4801 51.99 51.8201 51.71 51.4301C51.37 50.9801 50.84 51.4301 50.92 50.8601H53.49C53.46 51.4101 52.88 51.2501 52.72 51.9401C52.6 52.4701 52.7 53.1801 52.69 53.7501C52.66 54.7101 52.7 55.6801 52.69 56.6401C52.64 60.2501 53.48 63.0201 48.59 62.5801C46.73 62.4101 46.41 61.2801 46.27 59.6001C46.16 58.3401 46.49 51.8801 46.12 51.4001C46.02 51.2701 45.12 51.1201 45.46 50.8601C45.56 50.7801 47.69 50.8301 48.03 50.8601L48.04 50.8501Z" fill="#F6D1C8"/>
<path d="M121.84 62.5601L122.58 61.9301C123.99 58.2201 124.91 54.3001 126.01 50.4801L126.41 50.3701L129.46 61.1201C129.57 61.3901 129.72 61.7301 129.93 61.9401C130.27 62.2701 130.73 62.1101 130.66 62.5701H126.65C126.52 62.0501 127.15 62.3101 127.41 62.0501C127.74 61.7301 127.27 59.3301 127.05 59.0401C126.78 58.6801 124.88 58.9901 124.34 58.8701C124.17 59.5001 123.35 61.6201 123.8 62.0501C124.07 62.3101 124.69 62.0501 124.56 62.5701H121.83L121.84 62.5601ZM124.41 58.3901H126.82C126.77 57.8701 125.98 54.2801 125.78 54.2201C125.48 54.1301 125.54 54.3601 125.47 54.5401C125.02 55.7201 124.77 57.1701 124.42 58.3901H124.41Z" fill="#F6D1C8"/>
<path d="M14.51 62.5599C14.17 62.2899 15.05 62.0999 15.11 62.0399C15.9 61.2299 17.88 52.4099 18.61 50.5299C18.69 50.3299 18.61 50.1399 18.92 50.2099L22.2 61.5299L23.17 62.5599H19.32C19.18 62.0499 19.85 62.2499 20.04 61.9199C20.36 61.3999 19.76 59.4899 19.54 58.8599C19.01 58.9699 17.09 58.6699 16.83 59.0299C16.66 59.2699 16.21 61.3299 16.27 61.6699C16.43 62.5199 17.26 61.9199 17.23 62.5599H14.5H14.51ZM19.48 58.3899L18.28 53.8999C17.81 55.3599 17.25 56.8699 17.08 58.3899H19.49H19.48Z" fill="#F6D1C8"/>
<path d="M111.74 50.8499V53.7399C111.29 53.8099 111.47 53.6499 111.38 53.3899C111.14 52.6999 111.1 51.9399 110.36 51.5199C109.19 50.8499 107.85 51.1599 107.88 52.6999C107.94 55.4299 112.89 56.2299 112.37 60.0699C112.18 61.4599 110.82 62.6599 109.42 62.7399C108.37 62.7999 107.61 62.2299 106.61 62.5699V59.3599C106.95 59.3099 106.87 59.3399 106.97 59.5599C107.22 60.1299 107.24 60.6999 107.66 61.2699C109.08 63.2099 111.85 61.7299 110.97 59.3999C110.48 58.1099 107.94 56.7099 107.08 55.2699C105.92 53.3199 106.77 50.6799 109.25 50.6799C110.09 50.6799 110.84 51.2899 111.74 50.8499Z" fill="#F6D1C8"/>
<path d="M203.99 32.4C204.43 32.47 205.23 32.26 205.59 32.48C206.03 32.75 206.75 34.81 207.27 34.81C207.4 34.81 208.38 32.79 208.7 32.55C209.11 32.26 209.75 32.45 210.24 32.4V38.66H208.8V34.97C208.41 35.18 207.47 37.17 207.27 37.22C206.8 37.33 205.93 35.21 205.43 34.97V38.66H203.99V32.4Z" fill="#F6D1C8"/>
<path d="M135.64 50.8501C135.72 51.3901 135.2 51.0401 134.83 51.4001C134.67 51.5601 134.57 51.8401 134.53 52.0601L134.55 61.6401C134.77 62.3901 136.32 62.0701 136.88 61.7801C137.79 61.3101 137.77 60.4901 138.37 59.8201V62.5501H131.95C131.81 62.0401 132.41 62.2701 132.61 61.9601C132.71 61.8001 132.74 61.5401 132.76 61.3501C132.99 59.2101 132.97 54.3601 132.76 52.2001C132.74 51.9301 132.74 51.6501 132.58 51.4101C132.33 51.0501 131.85 51.3501 131.95 50.8401H135.64V50.8501Z" fill="#F6D1C8"/>
<path d="M120.88 50.85V53.9C120.56 53.94 120.62 53.93 120.52 53.7C120.29 53.15 120.38 52.58 119.99 51.98C119.48 51.2 118.65 50.89 117.88 51.54C116.53 52.69 116.56 57.41 116.71 59.1C117.11 63.54 120.6 62.41 120.56 58.7H121.04C121.17 60.96 119.82 63.26 117.23 62.43C113.68 61.28 113.81 51.23 118.25 50.69C119.26 50.57 119.89 51.2 120.88 50.84V50.85Z" fill="#F6D1C8"/>
<path d="M223.89 75.24L224.21 76.2C223.81 76.15 223.23 76.3 222.87 76.18C222.67 76.11 222.68 75.82 222.48 75.73C222.2 75.61 221.64 75.63 221.29 75.52C217.92 74.41 218.45 68.98 222.37 68.98C225.92 68.98 226.92 73.71 223.89 75.25V75.24ZM223.25 74.11C223.66 74.42 224.37 72.68 224.33 72.15C224.09 68.88 219.07 70.24 220.64 73.42C220.93 74.02 222.21 74.87 221.64 73.63C222.04 73.68 222.63 73.53 222.99 73.65C223.25 73.74 223.22 74.08 223.26 74.11H223.25Z" fill="#F6D1C8"/>
<path d="M29.91 35.9299C30.07 36.3299 29.27 36.3999 29.27 36.8099V39.4599H32.48V36.4899C32.48 36.2699 31.86 36.2699 31.84 36.2499C31.83 36.2399 31.82 35.9299 31.84 35.9299H34.41C34.54 36.4499 34.07 36.1199 33.91 36.3399C33.82 36.4699 33.78 36.7899 33.77 36.9699C33.7 37.6899 33.64 43.2199 33.84 43.4799C34 43.6899 34.45 43.4799 34.41 43.7899H31.84V43.6299L32.48 43.3899V39.9399H29.51L29.27 40.1799V43.0699C29.27 43.4399 29.91 43.5499 29.91 43.7899H27.5C27.4 43.5699 27.98 43.5399 27.98 43.3899V36.4899C27.98 36.3199 27.29 36.3199 27.5 35.9299H29.91Z" fill="#F6D1C8"/>
<path d="M249.19 32.44C251.18 32.03 253.33 32.85 253.57 35.05C254.1 39.96 246.61 40.14 246.99 35.2C247.08 34.02 248 32.68 249.2 32.44H249.19ZM249.67 33.72C247.95 34.11 248 37.31 250.16 37.5C252.76 37.73 252.86 32.99 249.67 33.72Z" fill="#F6D1C8"/>
<path d="M243.38 32.4C245.11 32.66 245.76 34.63 244.67 35.93C244.48 36.15 243.94 36.44 243.94 36.49C243.94 36.77 245.48 38.43 245.23 38.65C244.75 38.59 244.05 38.78 243.63 38.57C242.97 38.25 242.75 36.22 241.38 36.72V38.65H239.94V32.39C241.01 32.5 242.36 32.24 243.39 32.39L243.38 32.4ZM241.38 35.45C244.59 35.93 244.58 33.21 241.38 33.68V35.45Z" fill="#F6D1C8"/>
<path d="M217.31 69.1399V70.4199H213.62V71.3799H215.87V72.8299H213.62V74.1099H217.63V75.5499H212.42L212.18 75.3099V69.1399H217.31Z" fill="#F6D1C8"/>
<path d="M225.01 33.6899H221.64V34.8099H224.53V36.2499H221.64V37.3699H225.01V38.6499H220.04V32.6299L220.28 32.3899H224.77C225.08 32.3899 225.02 33.4099 225.01 33.6699V33.6899Z" fill="#F6D1C8"/>
<path d="M104.03 50.8501C104.42 51.1501 103.34 51.2501 103.21 51.4401C103.05 51.6901 103.08 52.0801 103.06 52.3701C102.9 54.6801 102.82 59.1201 103.06 61.3601C103.08 61.5601 103.12 61.9001 103.26 62.0401C103.52 62.2901 104.16 62.0401 104.03 62.5601H100.34C100.25 62.0501 100.85 62.2601 101.13 61.8201C101.3 61.5601 101.29 61.3301 101.31 61.0401C101.5 59.0001 101.53 54.3701 101.31 52.3701C101.28 52.1001 101.21 51.7101 101.06 51.4901C100.76 51.0501 100.27 51.3601 100.34 50.8401H104.03V50.8501Z" fill="#F6D1C8"/>
<path d="M229.02 69.1399V73.8699C229.02 74.3899 231.59 74.5799 231.59 73.7099V69.1399H233.03V73.7099C233.03 73.7699 232.75 74.5399 232.69 74.6499C231.96 75.9199 228.97 75.9699 228.05 74.9999C227.97 74.9099 227.57 74.2399 227.57 74.1899V69.1399H229.01H229.02Z" fill="#F6D1C8"/>
<path d="M253.57 75.5501L252.15 75.5201L251.5 74.0401C251.4 73.9001 248.99 73.8701 248.7 73.9701C248.24 74.1301 248.21 75.2701 247.79 75.4701C247.43 75.6501 246.9 75.5101 246.5 75.5501C246.45 75.2701 246.54 75.0501 246.63 74.7901C247.23 73.0001 248.8 71.0201 249.42 69.1601C249.79 69.1001 250.31 69.0301 250.6 69.2901L253.57 75.5501ZM250.2 71.2201C249.86 70.9601 249.16 72.5901 249.24 72.6601H250.68L250.2 71.2201Z" fill="#F6D1C8"/>
<path d="M230.76 34.15C230.64 34.22 228.02 33.04 228.22 34.23C228.35 34.97 231.73 34.73 231.57 36.96C231.41 39.19 227.62 39.23 226.75 37.95C226.55 37.66 227 36.81 227.34 36.75C227.62 36.7 228.86 37.98 229.71 37.37C230.92 36.49 228.32 36.16 227.81 35.92C226.87 35.48 226.6 34.79 226.76 33.78C227 32.32 229.12 32.19 230.25 32.52C231.38 32.85 231.34 33.27 230.74 34.16L230.76 34.15Z" fill="#F6D1C8"/>
<path d="M216.01 32.4201L218.43 38.6601L217.01 38.6301L216.4 37.4001C215.88 37.4401 214.14 37.2001 213.85 37.5401C213.23 38.2801 214 38.9701 212.01 38.6601L214.49 32.5601C214.83 32.2601 215.55 32.4201 216 32.4201H216.01ZM215.38 34.3301C215.01 34.2501 215.12 34.3701 215.02 34.5301C214.92 34.6901 214.36 36.0301 214.42 36.0901H216.02L215.38 34.3301Z" fill="#F6D1C8"/>
<path d="M210.25 69.1399V70.4199H207.84V75.5499C207.57 75.5499 206.4 75.6399 206.4 75.3099V70.4199H203.99V69.1399H210.25Z" fill="#F6D1C8"/>
<path d="M238.33 32.3999V33.8399H236.57V38.6499H234.97V33.8399L233.19 33.7699C232.91 33.5699 233.08 32.7499 233.04 32.3999H238.33Z" fill="#F6D1C8"/>
<path d="M241.54 69.1399V74.1099H245.23V75.5499H240.25V69.1399H241.54Z" fill="#F6D1C8"/>
<path d="M48.68 64.9701C49.04 65.2901 47.35 66.1601 47.14 66.2301C43.43 67.6001 40.66 63.9601 37.37 63.6801C36.73 63.6301 36.15 63.7901 35.53 63.7601C38.46 61.7601 41.06 63.92 43.71 64.88C45.52 65.53 46.85 65.7101 48.68 64.9601V64.9701Z" fill="#F6D1C8"/>
<path d="M46.35 38.6601C47.29 38.8201 48.07 39.7101 47.53 40.6501C47.26 41.1201 46.82 41.0301 46.59 41.3901L47.14 41.7201L48.51 43.9601C46.63 44.2001 46.76 42.6401 46.02 41.7201C45.82 41.4701 45.38 41.0901 45.3 41.6301C45.25 41.9601 45.24 42.9301 45.3 43.2401C45.39 43.7401 45.89 43.4501 45.78 43.9601H43.37C43.22 43.4501 43.78 43.7301 43.94 43.4901C44.07 43.3001 44.07 39.3201 43.94 39.1301C43.78 38.8901 43.22 39.1701 43.37 38.6601C44.28 38.7601 45.47 38.5201 46.34 38.6601H46.35ZM45.15 41.2301C47.12 41.5101 47.11 38.6401 45.15 38.9801V41.2301Z" fill="#F6D1C8"/>
<path d="M98.26 43.7899C98.21 43.5399 98.56 43.6299 98.66 43.4699C98.77 43.2999 98.81 39.7799 98.74 39.3699C98.65 38.8699 98.15 39.1599 98.26 38.6499H100.91C102.02 38.6499 103.06 40.0599 103.08 41.1399C103.1 42.0999 102.31 43.7799 101.23 43.7799H98.26V43.7899ZM99.86 38.9799V43.3899C99.86 43.4399 100.04 43.5799 100.13 43.6099C102.27 44.2899 102.61 38.2699 99.86 38.9799Z" fill="#F6D1C8"/>
<path d="M40.66 38.6599V39.7799C40.1 39.0199 39.5 38.8999 38.57 38.9799V41.0699C39.11 41.1599 39.45 40.8699 39.85 40.5899V41.9499C39.63 42.1699 39.63 41.5899 39.37 41.4699C39.11 41.3499 38.83 41.3899 38.56 41.3899C38.64 41.8399 38.39 43.3399 38.71 43.5699C39.28 43.9699 40.39 43.2799 40.8 42.8399V43.7999H36.79C36.74 43.5499 37.09 43.6399 37.19 43.4799C37.3 43.3099 37.34 39.7899 37.27 39.3799C37.18 38.8799 36.68 39.1699 36.79 38.6599H40.64H40.66Z" fill="#F6D1C8"/>
<path d="M87.83 38.8199C88.72 38.4799 89.78 38.7399 90.72 38.6599V39.7799C90.25 39.8199 90.26 39.2699 89.88 39.0999C89.24 38.8099 88.05 38.7399 88.15 39.6999C88.25 40.6599 91.73 40.8499 90.76 43.1099C90.21 44.3999 88.1 43.7499 87.03 43.9499V42.6699C87.52 42.6599 87.54 43.2299 87.93 43.4499C88.53 43.7999 89.9 43.7999 89.92 42.8899C89.94 41.7399 87.27 41.6599 87.19 40.2599C87.15 39.4699 87.64 39.2899 87.83 38.8199Z" fill="#F6D1C8"/>
<path d="M109.17 38.6599V39.7799C108.66 39.7799 108.71 39.2099 108.22 39.0499C107.8 38.9099 107.35 38.9999 106.93 38.9799V41.0699C107.2 41.0899 107.45 41.0699 107.7 40.9499C108.08 40.7699 107.92 40.3299 108.38 40.4299V41.9499C107.95 42.2799 108.08 41.5599 107.63 41.4199C107.41 41.3499 107.16 41.3899 106.94 41.3899C107.1 42.3799 106.37 43.7699 107.8 43.6299C108.55 43.5599 108.65 43.3899 108.98 42.8899C109.46 42.1699 109.34 43.3599 109.34 43.7999H105.17C105.17 43.5199 105.59 43.5999 105.74 43.3199C105.91 42.9799 105.88 39.3799 105.67 39.0799C105.52 38.8599 105.04 39.1899 105.17 38.6699H109.18L109.17 38.6599Z" fill="#F6D1C8"/>
<path d="M237.2 69.1399H235.76V75.5599H237.2V69.1399Z" fill="#F6D1C8"/>
<path d="M51.89 38.66C52.58 38.64 53.29 38.65 53.98 38.66C54.19 38.66 54.41 38.66 54.62 38.66V39.78C54.62 39.78 54.43 39.81 54.35 39.74C54.17 39.58 54.12 39.2 53.82 39.06C53.41 38.87 52.83 39.02 52.38 38.98C52.37 39.25 52.39 39.52 52.38 39.78C52.36 40.21 52.39 40.64 52.38 41.06C52.74 41.16 52.92 40.99 53.18 40.9C53.44 40.81 53.6 40.73 53.82 40.58V42.02C53.3 41.58 53.31 41.19 52.38 41.38C52.46 41.83 52.21 43.33 52.53 43.56C53.35 43.79 54.17 43.56 54.63 42.83C54.7 42.91 54.96 42.91 54.93 43.2C54.83 43.52 54.67 43.78 54.31 43.79H50.62C50.58 43.48 50.96 43.74 51.12 43.54C51.35 43.23 51.35 39.41 51.12 39.08C50.97 38.86 50.49 39.19 50.62 38.67C51.05 38.67 51.48 38.67 51.9 38.67L51.89 38.66Z" fill="#F6D1C8"/>
<path d="M152.81 24.0601H152.65V79.8801H152.81V24.0601Z" fill="#F6D1C8"/>
<path d="M114.3 38.6599C114.43 39.2399 113.85 38.8499 113.68 38.9999C113.47 39.1799 113.41 42.7799 113.54 43.1999C113.72 43.7999 114.39 43.6599 114.83 43.4399C115.19 43.2599 115.32 42.8199 115.75 42.8399V43.7999H111.9C111.93 43.4899 112.3 43.7099 112.39 43.2399C112.46 42.8599 112.43 39.2999 112.31 39.1299C112.15 38.8899 111.59 39.1699 111.74 38.6599H114.31H114.3Z" fill="#F6D1C8"/>
<path d="M61.68 50.8499C61.78 50.8599 62.31 51.0299 62.33 51.1099V53.0999C62.33 53.0999 62.22 53.2299 62.16 53.2599C62.02 52.8999 61.96 52.2699 61.69 51.9199C61.56 51.7499 61.39 51.8399 61.36 51.8099C60.37 51.0799 59.68 51.3599 58.47 51.3299C58.5 52.5599 58.43 53.7999 58.47 55.0199C58.48 55.3399 58.47 55.6599 58.47 55.9799C58.56 56.0699 60.46 55.9399 60.76 55.8199C60.97 55.7399 60.84 55.5399 60.87 55.4999C60.98 55.3599 61.2 55.0599 61.35 55.0199V57.8299C61.11 58.0899 61.21 57.4599 61.11 57.2699C61.05 57.1599 60.9 57.1399 60.87 57.0999C60.65 56.7599 60.95 56.8599 60.39 56.6199C60 56.4499 60 56.4799 59.59 56.4599C59.22 56.4399 58.84 56.4699 58.47 56.4599C58.47 56.8899 58.48 57.3199 58.47 57.7399C58.45 58.5299 58.45 59.3499 58.47 60.1499C58.52 61.8699 58.18 62.2199 60.23 62.0699C60.28 62.0699 60.34 62.0699 60.39 62.0699C60.58 62.0499 60.71 61.9799 60.87 61.9099C61.76 61.5399 61.62 61.3399 61.99 60.6299C62.12 60.3799 62.19 60.3099 62.31 59.9899C62.61 60.5899 62.47 61.5299 62.47 62.2399C62.47 62.2899 62.47 62.3499 62.47 62.3999C61.08 62.3999 59.69 62.3999 58.3 62.3999C57.5 62.3999 56.69 62.3999 55.89 62.3999C55.92 62.0899 56.45 62.1999 56.61 61.9199C56.77 61.6399 56.64 61.2499 56.69 60.9599C56.91 59.5899 56.84 58.3599 56.85 56.9499C56.85 55.9299 57.05 51.9799 56.54 51.3999C56.42 51.2699 55.56 51.0999 55.89 50.8499C56.12 50.6699 61.07 50.7799 61.67 50.8499H61.68Z" fill="#F6D1C8"/>
<path d="M67.77 50.85C68.08 50.83 68.42 50.85 68.73 50.85C68.94 50.85 69.16 50.83 69.37 50.85C69.53 50.86 70.08 51.29 70.33 50.85C70.34 50.87 70.55 50.81 70.61 50.88C70.7 50.99 70.66 52.82 70.65 53.18C70.64 53.49 70.81 53.82 70.33 53.73C70.28 53.03 70.18 52.3 69.69 51.75C69.55 51.6 69.4 51.67 69.36 51.64C69.03 51.42 69.22 51.46 68.72 51.32C68.37 51.22 68.23 51.08 67.76 51.16C67.67 51.18 67.21 51.41 67.12 51.48C66.23 52.17 66.66 53.09 67.12 53.89C67.33 54.25 67.49 54.4 67.76 54.69C68 54.95 68.46 55.24 68.72 55.49C68.98 55.74 69.27 55.89 69.36 55.97C69.58 56.18 70.18 56.75 70.32 56.93C70.76 57.48 70.84 58.02 71.12 58.53C71.18 58.63 71.18 58.84 71.28 59.01C71.34 59.69 71.14 60.67 70.8 61.26C70.2 62.29 68.74 62.83 67.59 62.7C66.88 62.62 66.36 62.16 65.51 62.54C65.59 61.49 65.33 60.33 65.67 59.33C65.69 59.46 66.16 60.71 66.26 60.9C66.39 61.16 66.62 61.08 66.63 61.1C66.66 61.14 66.59 61.42 66.79 61.65C66.99 61.88 67.76 62.21 68.07 62.22C69.36 62.27 70.05 61.35 70 60.13C69.87 57.48 65.02 56.64 65.52 52.85C65.58 52.44 65.85 51.77 66.15 51.47C66.22 51.4 67.06 50.84 67.11 50.83C67.27 50.79 67.55 50.85 67.75 50.83L67.77 50.85Z" fill="#F6D1C8"/>
<path d="M78.84 57.4301C78.6 57.7301 78.24 58.0901 77.88 58.2301C77.72 58.2901 77.41 58.3701 77.24 58.3901C76.95 58.4301 76.59 58.3901 76.28 58.3901C76.07 58.3901 75.85 58.3901 75.64 58.3901C75.37 58.3901 75.1 58.3901 74.84 58.3901C75.13 58.0101 75.37 58.1001 75.47 57.5001C75.64 56.4601 75.42 55.2201 75.32 54.2201C75.24 53.4801 75.59 53.0901 74.84 52.6201H77.33C77.98 52.6201 78.88 53.6101 79.09 54.2301C79.64 55.7901 79.01 56.1801 78.85 57.4401L78.84 57.4301ZM77.24 58.0701C77.63 57.9801 77.75 57.5601 77.88 57.2701C78.42 56.0701 78.3 55.1901 77.88 54.0601C77.71 53.6001 77.84 53.0901 77.08 52.9401C76.89 52.9001 76.64 52.9601 76.44 52.9401C76.55 53.6801 76.23 57.7401 76.59 58.0001C76.71 58.0901 77.08 58.1101 77.24 58.0701Z" fill="#F6D1C8"/>
<path d="M72.91 38.66C73.71 38.64 74.53 38.69 75.32 38.82C75.38 38.82 75.52 38.99 75.64 38.98C75.7 39.14 75.91 39.32 75.96 39.46C76.34 40.61 75.8 40.43 75.64 41.06L75 41.3L75.64 41.7C75.73 42.29 76.04 42.42 76.28 42.82C76.41 43.04 76.47 43.31 76.6 43.51C76.69 43.66 76.9 43.56 76.92 43.7C76.99 44.04 76.61 44 76.28 43.94C76.1 43.91 75.84 43.68 75.64 43.62C75.62 43.53 74.83 42.3 74.68 42.02C74.5 41.7 74.62 41.43 74.04 41.38C73.93 41.38 73.83 41.38 73.72 41.38C73.85 42.04 73.39 43.19 74.04 43.63C74.04 43.68 74.04 43.74 74.04 43.79H73.08C72.71 43.79 72.33 43.79 71.96 43.79V43.63L72.53 43.48C72.62 43.39 72.61 43.26 72.6 43.15C72.47 41.99 72.85 40.34 72.44 39.3C72.35 39.07 72.56 38.9 71.96 38.98V38.66C72.28 38.66 72.6 38.66 72.92 38.66H72.91ZM73.71 40.42C73.79 40.94 73.45 41.22 74.03 41.22C74.26 41.22 74.48 41.19 74.67 41.06C75.26 40.68 75.14 40 74.83 39.46C74.76 39.35 74.86 39.09 74.57 39C74.28 38.91 73.86 39 73.55 38.98C73.42 39.52 73.65 40 73.71 40.42Z" fill="#F6D1C8"/>
<path d="M84.4599 40.7399C84.7399 42.6799 83.4799 43.9799 81.57 43.9499C81.42 43.9499 81.2299 43.9699 81.0899 43.9499C81.0099 43.9399 80.7 43.8299 80.61 43.7899C80.25 43.6299 79.7899 43.0999 79.4899 42.8299C79.4299 41.9999 78.9999 41.7099 79.2399 40.5699C79.3699 39.9799 80.2099 38.7999 80.7699 38.6499C82.2299 38.2599 84.2299 39.1299 84.4599 40.7399ZM81.0899 39.1399C80.1699 39.8999 80.1499 42.6999 81.0899 43.4699C81.3699 43.6999 81.4699 43.8099 81.8899 43.7899C82.9699 43.7299 83.1499 42.2299 83.1699 41.3799C83.1999 40.1699 82.66 37.8399 81.08 39.1299L81.0899 39.1399Z" fill="#F6D1C8"/>
<path d="M61.0399 38.9799C61.3399 39.1199 61.6599 39.6299 61.9999 39.7799C62.0899 40.9599 62.0099 41.5799 61.9999 42.6699C61.5899 42.8699 61.2599 43.4399 60.8799 43.6299C60.8199 43.6599 60.4599 43.7799 60.3999 43.7899C60.0699 43.8399 59.6299 43.7699 59.2799 43.7899C59.1699 43.7899 59.0699 43.7899 58.9599 43.7899C58.6399 43.7899 58.3199 43.7999 57.9999 43.7899C57.9499 43.7899 57.8899 43.7899 57.8399 43.7899C58.2099 43.4399 58.1299 43.1099 58.1599 42.6699C58.2099 41.8599 58.2199 40.7499 58.1599 39.9399C58.1399 39.6799 58.1599 39.4199 58.0499 39.1699C57.9399 38.9199 57.6399 39.0799 57.6699 38.8199L59.1099 38.6599C59.5699 38.6599 60.6399 38.7999 61.0399 38.9799ZM59.2699 43.4699L59.3499 43.6299C59.8399 43.7099 60.0399 43.5999 60.3899 43.3099C61.5599 42.3599 61.3699 38.4599 59.1099 38.9799C59.2099 40.4399 58.8999 42.0599 59.2699 43.4699Z" fill="#F6D1C8"/>
<path d="M66.81 38.66C67.21 38.66 68.36 38.57 68.59 38.73L68.74 39.78C68.28 39.85 68.4 39.4 68 39.16C67.75 39.01 67.57 39.01 67.3 38.98C67.03 38.95 66.76 38.99 66.5 38.98V41.07C67.24 41.16 67.51 40.95 67.94 40.43V42.03C67.57 41.69 67.61 41.59 67.14 41.39C66.93 41.3 66.81 41.14 66.5 41.23C66.61 41.75 66.22 43.48 66.82 43.64C66.94 43.67 67.31 43.66 67.46 43.64C68.09 43.58 68.02 43.53 68.42 43.16C68.61 42.99 68.51 42.73 68.9 42.84C68.9 43.22 69.01 43.5 68.74 43.8C67.57 43.76 66.38 43.85 65.21 43.8C65.06 43.8 64.77 43.88 64.73 43.72C64.73 43.59 65.03 43.66 65.21 43.48C65.37 43.32 65.35 43.32 65.38 43.1C65.46 42.47 65.48 39.97 65.38 39.39C65.29 38.91 65 39.08 64.9 38.99C64.84 38.94 64.79 38.86 64.74 38.83C65.27 38.54 66.18 38.66 66.83 38.67L66.81 38.66Z" fill="#F6D1C8"/>
<path d="M81.73 52.6201V52.9401C81.73 53.7401 81.73 54.5501 81.73 55.3501C82.22 55.3801 82.8 55.2701 82.86 54.7101C83.15 54.5001 83.41 56.1001 82.94 56.3101C82.88 55.7501 82.45 55.4801 81.9 55.6701C81.65 55.7501 81.66 57.6601 81.82 57.9201C82.08 58.3601 83.07 58.1701 83.36 57.8501C83.48 57.7201 83.47 57.4801 83.5 57.4401C83.78 57.1101 83.94 57.1601 83.98 57.1201V58.4001C83.29 58.4001 82.59 58.4001 81.89 58.4001C81.62 58.4001 81.36 58.4001 81.09 58.4001H80.45V58.0801C80.82 57.9701 80.76 57.6701 80.78 57.3701C80.84 56.4101 80.8 55.2101 80.78 54.2301C80.76 53.6801 80.75 53.4801 80.62 52.9501C80.6 52.8601 80.64 52.7301 80.62 52.6301C80.97 52.5901 81.38 52.6301 81.74 52.6301L81.73 52.6201Z" fill="#F6D1C8"/>
<path d="M62.4799 46.52C62.9299 46.52 63.13 47.02 63.13 47.4C63.12 47.51 62.67 47.55 62.4799 47.65C61.6899 48.06 60.85 48.39 59.91 48.77C59.75 48.84 58.99 49.13 58.95 49.09V48.85C59.11 48.71 59.27 48.57 59.43 48.45C59.82 48.15 60.6299 47.58 61.0299 47.33C61.2899 47.17 61.88 46.84 62.15 46.69C62.23 46.65 62.42 46.53 62.47 46.53L62.4799 46.52Z" fill="#F6D1C8"/>
<path d="M76.28 39.46C76.26 40.58 76.3 41.71 76.28 42.83C76.04 42.43 75.73 42.3 75.64 41.71C75.62 41.58 75.61 41.18 75.64 41.07C75.81 40.44 76.34 40.62 75.96 39.47H76.28V39.46Z" fill="#F6D1C8"/>
<path d="M90.72 52.45C90.71 51.54 90.72 50.63 90.72 49.72C92.08 50.67 92.15 51.51 90.72 52.45Z" fill="#F6D1C8"/>
<path d="M83.5 57.4299C83.5 57.4299 83.48 57.7099 83.36 57.8399C83.06 58.1599 82.08 58.3499 81.82 57.9099C81.67 57.6499 81.65 55.7499 81.9 55.6599L83.5 57.4199V57.4299Z" fill="#F6D1C8"/>
<path d="M81.73 52.62C82.02 52.62 83.79 52.55 83.82 52.71C83.81 53.15 83.96 54.42 83.46 53.69C82.91 52.88 82.81 52.87 81.73 52.94V52.62Z" fill="#F6D1C8"/>
<path d="M80.61 52.6201C80.63 52.7201 80.59 52.8501 80.61 52.9401C80.11 52.9501 80.03 52.6801 80.61 52.6201Z" fill="#F6D1C8"/>
<path d="M61.36 51.8101C61.36 51.8101 61.56 51.7501 61.69 51.9201C61.96 52.2701 62.03 52.9001 62.16 53.2601C62.22 53.4301 62.32 53.4401 62.48 53.4201C62.24 54.7001 62.42 58.3501 62.48 59.8401C62.42 59.8801 62.34 59.9301 62.32 60.0001C62.2 60.3301 62.13 60.3901 62 60.6401V53.9001C61.53 54.3001 60.84 54.8301 60.88 55.5001C60.85 55.5401 60.98 55.7301 60.77 55.8201C60.47 55.9401 58.56 56.0701 58.48 55.9801C58.48 55.6601 58.49 55.3401 58.48 55.0201L61.37 51.8101H61.36Z" fill="#F6D1C8"/>
<path d="M59.59 56.4599C59.4 56.6799 59.29 56.8699 59.26 57.1699C59.19 57.8999 59.15 60.2199 59.27 60.8599C59.37 61.3799 60.03 61.6099 60.23 62.0699C58.18 62.2099 58.51 61.8699 58.47 60.1499C58.91 60.4399 58.77 60.2999 58.79 59.9099C58.82 59.2999 58.81 58.5999 58.79 57.9799C58.77 57.5899 58.9 57.4599 58.47 57.7399C58.48 57.3099 58.47 56.8799 58.47 56.4599C58.84 56.4699 59.22 56.4399 59.59 56.4599Z" fill="#F6D1C8"/>
<path d="M60.88 57.1099V61.9199C60.72 61.9899 60.58 62.0599 60.4 62.0799V56.6299C60.96 56.8699 60.66 56.7699 60.88 57.1099Z" fill="#F6D1C8"/>
<path d="M69.38 51.6501V55.9801C69.29 55.9001 69.01 55.7601 68.74 55.5001V51.3301C69.24 51.4701 69.05 51.4301 69.38 51.6501Z" fill="#F6D1C8"/>
<path d="M67.77 54.6999C67.5 54.4099 67.34 54.2599 67.13 53.8999V51.4899C67.22 51.4199 67.68 51.1799 67.77 51.1699V54.6999Z" fill="#F6D1C8"/>
<path d="M77.88 54.0599V57.2699C77.75 57.5599 77.63 57.9899 77.24 58.0699C77.15 56.3799 77.44 54.5799 77.08 52.9399C77.84 53.0899 77.71 53.6099 77.88 54.0599Z" fill="#F6D1C8"/>
<path d="M74.8299 39.46C74.4899 39.84 74.7399 40.56 74.6699 41.06C74.4699 41.19 74.2599 41.22 74.0299 41.22V40.26L73.7099 40.42C73.6399 40 73.4199 39.52 73.5499 38.98C73.8699 39.01 74.2799 38.91 74.5699 39C74.8599 39.09 74.7599 39.34 74.8299 39.46Z" fill="#F6D1C8"/>
<path d="M83.18 41.3899C83.16 42.2399 82.97 43.7399 81.9 43.7999C82.78 42.9099 81.42 42.6999 81.26 41.8799C81 41.8399 81.11 42.0999 81.1 42.2799C81.08 42.6799 81.11 43.0899 81.1 43.4899C80.16 42.7199 80.18 39.9199 81.1 39.1599L83.19 41.4099L83.18 41.3899Z" fill="#F6D1C8"/>
<path d="M60.39 43.3101L60.31 40.1001C59.02 40.9901 59.24 42.0701 59.27 43.4701C58.9 42.0501 59.21 40.4401 59.11 38.9801C61.37 38.4601 61.56 42.3601 60.39 43.3101Z" fill="#F6D1C8"/>
<path d="M65.21 43.47C65.08 41.99 65.53 40.33 64.89 38.98C65 39.07 65.28 38.9 65.37 39.38C65.48 39.96 65.46 42.46 65.37 43.09C65.34 43.31 65.37 43.31 65.2 43.47H65.21Z" fill="#F6D1C8"/>
</svg>
