<svg width="287" height="104" viewBox="0 0 287 104" fill="none" xmlns="http://www.w3.org/2000/svg">
<path d="M211.108 32.8112C213.998 35.3698 217.701 39.5904 219.515 42.9973C221.673 47.0662 218.529 51.1834 215.949 54.1488L216.26 54.0799L238.059 36.356C239.57 35.9077 238.894 37.6111 238.535 38.3422C237.19 41.0939 234.28 44.5352 232.308 46.9627C228.459 51.7075 222.811 58.6315 217.853 62.0591C217.156 62.5418 214.749 64.0452 214.77 62.2177C214.791 60.8453 216.198 57.8936 216.873 56.6178C217.06 56.2729 217.294 55.9488 217.46 55.5902C217.266 55.5419 217.239 55.7902 217.17 55.8454C215.004 57.4522 212.26 60.7901 209.667 61.3694C206.191 62.1556 203.998 60.0315 203.584 56.7143C203.239 48.0593 203.536 39.3559 203.432 30.6871C203.446 29.5423 204.122 28.9423 205.26 29.0044C206.798 29.094 209.901 31.7492 211.108 32.8112Z" fill="#094752"/>
<path d="M66.4618 58.6797V41.811C66.4618 41.6317 66.7997 41.2248 66.979 41.2248H72.5169V65.7141C72.5169 66.4038 72.1169 67.2382 71.5307 67.6175C70.3376 68.3899 66.6204 68.3899 65.5515 67.3969L53.2896 50.9143L53.0551 50.7005V67.3624C53.0551 67.652 52.793 68.0865 52.4689 68.0865H47V43.3903C47 42.6041 47.5862 41.8248 48.2827 41.5076C49.4965 40.9559 52.862 40.9421 53.9102 41.8455L66.4618 58.6728V58.6797Z" fill="#094752"/>
<path d="M167.129 66.1005C164.081 69.2039 158.143 68.8384 155.192 65.804C152.24 62.7695 151.833 56.6731 153.55 52.9145C157.281 44.756 172.067 45.956 172.826 55.5696C172.812 59.5213 173.108 63.5626 172.902 67.5143C172.474 75.6521 165.633 76.5142 158.916 75.7142C157.833 75.5831 156.081 75.4659 155.688 74.2659C155.481 73.6383 155.523 71.5487 155.743 70.9142C156.054 70.0246 157.564 70.5694 158.288 70.6384C160.454 70.8315 165.26 71.3694 166.591 69.2453C166.778 68.9419 167.122 68.0453 167.122 67.7143V66.1005H167.129ZM162.716 52.7904C157.005 52.9628 157.074 62.8247 162.212 63.2799C166.122 63.6316 167.336 60.673 167.198 57.2731C167.088 54.5903 165.529 52.7076 162.716 52.7904Z" fill="#094752"/>
<path d="M182.329 47.9625V59.4037C182.329 62.1485 183.819 63.6588 186.619 63.2037C189.046 62.8106 189.639 61.0658 189.757 58.852C189.936 55.521 189.619 52.0314 189.757 48.6798C189.743 48.3763 190.136 47.9625 190.412 47.9625H195.467V67.1622C195.067 75.4104 189.177 76.5207 182.095 75.7138C181.012 75.5897 179.26 75.4725 178.874 74.2587C178.667 73.6035 178.743 71.7208 178.922 71.038C179.019 70.6794 179.308 70.445 179.688 70.4243C180.191 70.3967 181.17 70.6518 181.75 70.7001C183.646 70.8725 187.598 71.2311 188.936 69.6312C189.274 69.2243 189.694 68.2243 189.694 67.7071V66.3692C187.791 68.1622 184.984 68.5346 182.474 68.0519C178.743 67.3415 176.846 64.5899 176.626 60.9072C176.391 56.9348 176.805 52.7418 176.626 48.7418C176.577 48.4177 177.074 47.9487 177.35 47.9487H182.336L182.329 47.9625Z" fill="#094752"/>
<path d="M89.9096 55.8661V54.8041C89.9096 54.673 89.7372 54.0248 89.6683 53.873C89.3372 53.1075 88.4269 52.8248 87.6683 52.7144C85.7166 52.4248 83.3235 52.5903 81.3511 52.7765C80.5787 52.8455 79.5236 53.1282 78.8063 53.1213C78.1926 53.1213 78.1926 52.3903 78.1512 51.9214C78.0891 51.1903 78.0201 49.9766 78.1995 49.2869C78.5581 47.9076 80.6477 47.8111 81.8339 47.6938C85.9097 47.28 92.9441 47.0042 94.8958 51.4731C96.5164 55.1765 95.1716 61.4591 95.6199 65.5211C95.4268 67.4935 92.151 67.9073 90.5579 68.1556C85.158 68.997 75.6891 69.1142 76.1581 61.3281C76.5719 54.4937 85.089 55.2937 89.9165 55.8661H89.9096ZM89.9096 59.7833H84.0959C83.9718 59.7833 83.4201 59.935 83.2683 59.9902C81.7373 60.5143 81.6201 62.5074 83.0408 63.2453C84.289 63.9005 87.0269 63.7695 88.42 63.5557C88.7993 63.4936 89.9096 63.3626 89.9096 62.8453V59.7902V59.7833Z" fill="#094752"/>
<path d="M121.889 47.9627V60.3625C121.889 61.9349 123.413 63.0797 124.882 63.2108C127.364 63.4314 129.075 62.4935 129.247 59.8798C129.488 56.266 129.061 52.3902 129.247 48.7489C129.206 48.3903 129.654 47.9558 129.971 47.9558H134.957V61.3211C134.633 66.1073 130.833 68.2865 126.399 68.5003C121.261 68.7486 116.447 66.7831 116.109 61.0453C115.875 57.0729 116.289 52.8799 116.109 48.8799C116.013 48.5144 116.496 47.9558 116.833 47.9558H121.889V47.9627Z" fill="#094752"/>
<path d="M105.247 42.0591V47.9694H111.744C111.744 47.9694 112.04 48.1211 112.061 48.1556C112.144 48.2866 112.24 48.928 112.254 49.1142C112.323 49.9418 112.378 52.0521 111.84 52.6659C111.702 52.8245 111.178 53.121 110.992 53.121H105.247V60.9209C105.247 61.0865 105.365 61.6589 105.42 61.8451C105.558 62.3209 105.854 62.7278 106.303 62.9554C107.999 63.8312 110.399 62.714 112.109 62.4795C112.516 62.4244 112.682 62.3968 112.882 62.7692C113.282 63.5071 113.827 65.3071 113.689 66.1209C113.516 67.1691 111.261 67.845 110.351 68.0726C105.516 69.3001 99.9096 68.2312 99.5372 62.3554V42.7695C99.5234 42.466 99.9165 42.0522 100.192 42.0522H105.247V42.0591Z" fill="#094752"/>
<path d="M144.509 68.0937H139.178C138.999 68.0937 138.73 67.7971 138.799 67.5833C139.006 63.142 138.53 58.4593 138.799 54.0456C138.957 51.4388 140.033 49.3077 142.488 48.2526C144.461 47.4043 147.461 47.3423 149.53 47.8664C151.598 48.3905 151.592 49.7008 151.385 51.5767C151.323 52.1284 151.378 52.7905 150.736 52.8525C149.854 52.9353 148.764 52.687 147.847 52.7146C145.943 52.7698 144.509 53.5353 144.509 55.6318V68.1006V68.0937Z" fill="#094752"/>
</svg>
