<svg width="287" height="104" viewBox="0 0 287 104" fill="none" xmlns="http://www.w3.org/2000/svg">
<path d="M201.809 35.2469C204.271 37.4266 207.426 41.0223 208.971 43.9248C210.81 47.3912 208.131 50.8988 205.933 53.4251L206.198 53.3664L224.77 38.2668C226.057 37.8849 225.481 39.3361 225.175 39.9589C224.029 42.3032 221.55 45.235 219.87 47.303C216.591 51.3453 211.779 57.2441 207.555 60.1642C206.962 60.5754 204.911 61.8562 204.929 60.2993C204.947 59.1301 206.145 56.6154 206.72 55.5285C206.88 55.2347 207.079 54.9586 207.221 54.6531C207.055 54.6119 207.032 54.8235 206.973 54.8705C205.128 56.2394 202.791 59.0831 200.581 59.5766C197.62 60.2464 195.752 58.4368 195.399 55.6107C195.105 48.2373 195.358 40.8225 195.27 33.4373C195.282 32.462 195.857 31.9508 196.827 32.0037C198.137 32.0801 200.781 34.3421 201.809 35.2469Z" fill="#094752"/>
<path d="M78.5802 57.2852V42.9142C78.5802 42.7614 78.868 42.4147 79.0208 42.4147H83.7387V63.278C83.7387 63.8656 83.3979 64.5765 82.8985 64.8996C81.8821 65.5576 78.7153 65.5576 77.8046 64.7117L67.3583 50.6696L67.1585 50.4874V64.6823C67.1585 64.929 66.9352 65.2992 66.6591 65.2992H62V44.2596C62 43.5898 62.4994 42.9259 63.0928 42.6557C64.1269 42.1857 66.994 42.1739 67.887 42.9435L78.5802 57.2793V57.2852Z" fill="#094752"/>
<path d="M164.342 63.6072C161.745 66.2511 156.686 65.9397 154.172 63.3546C151.658 60.7694 151.311 55.5756 152.774 52.3736C155.952 45.4231 168.549 46.4454 169.195 54.6355C169.183 58.0021 169.436 61.445 169.26 64.8116C168.896 71.7445 163.067 72.479 157.345 71.7974C156.422 71.6857 154.93 71.5859 154.595 70.5635C154.419 70.0289 154.454 68.2487 154.642 67.7081C154.907 66.9502 156.193 67.4144 156.81 67.4732C158.655 67.6377 162.75 68.0959 163.884 66.2863C164.043 66.0278 164.336 65.264 164.336 64.982V63.6072H164.342ZM160.582 52.2678C155.717 52.4147 155.776 60.8164 160.153 61.2042C163.484 61.5038 164.518 58.9833 164.401 56.0868C164.307 53.8012 162.979 52.1973 160.582 52.2678Z" fill="#094752"/>
<path d="M177.291 48.1548V57.902C177.291 60.2404 178.561 61.527 180.946 61.1393C183.014 60.8044 183.519 59.318 183.619 57.432C183.772 54.5942 183.502 51.6213 183.619 48.7659C183.607 48.5074 183.942 48.1548 184.177 48.1548H188.484V64.5117C188.143 71.5386 183.125 72.4845 177.092 71.7971C176.169 71.6914 174.677 71.5915 174.348 70.5575C174.171 69.9993 174.236 68.3953 174.389 67.8136C174.471 67.5081 174.718 67.3084 175.041 67.2908C175.47 67.2673 176.304 67.4846 176.798 67.5258C178.413 67.6726 181.78 67.9781 182.92 66.6151C183.208 66.2685 183.566 65.4165 183.566 64.9759V63.8361C181.944 65.3636 179.553 65.6809 177.415 65.2697C174.236 64.6645 172.62 62.3203 172.433 59.1829C172.232 55.7986 172.585 52.2265 172.433 48.8187C172.391 48.5426 172.814 48.1431 173.049 48.1431H177.297L177.291 48.1548Z" fill="#094752"/>
<path d="M98.5561 54.8882V53.9834C98.5561 53.8718 98.4092 53.3195 98.3505 53.1902C98.0684 52.5381 97.2929 52.2972 96.6466 52.2032C94.9839 51.9564 92.9452 52.0974 91.2648 52.2561C90.6068 52.3149 89.7079 52.5557 89.0968 52.5498C88.574 52.5498 88.574 51.927 88.5387 51.5276C88.4858 50.9047 88.427 49.8707 88.5799 49.2832C88.8854 48.1081 90.6656 48.0259 91.6761 47.9259C95.1484 47.5734 101.141 47.3384 102.804 51.1457C104.185 54.3007 103.039 59.6531 103.421 63.1136C103.256 64.794 100.466 65.1465 99.1084 65.3581C94.508 66.0749 86.4412 66.1747 86.8407 59.5415C87.1932 53.719 94.4493 54.4006 98.562 54.8882H98.5561ZM98.5561 58.2254H93.6032C93.4975 58.2254 93.0275 58.3546 92.8981 58.4017C91.5938 58.8482 91.494 60.5462 92.7043 61.1748C93.7677 61.733 96.1002 61.6214 97.287 61.4392C97.6102 61.3863 98.5561 61.2747 98.5561 60.834V58.2313V58.2254Z" fill="#094752"/>
<path d="M125.8 48.155V58.7188C125.8 60.0584 127.099 61.0337 128.35 61.1454C130.465 61.3333 131.922 60.5343 132.069 58.3076C132.274 55.2289 131.911 51.9269 132.069 48.8248C132.034 48.5193 132.416 48.1491 132.686 48.1491H136.934V59.5355C136.658 63.613 133.42 65.4695 129.643 65.6517C125.265 65.8632 121.164 64.1887 120.876 59.3005C120.677 55.9163 121.03 52.3441 120.876 48.9364C120.795 48.625 121.206 48.1491 121.493 48.1491H125.8V48.155Z" fill="#094752"/>
<path d="M111.623 43.1254V48.1606H117.158C117.158 48.1606 117.41 48.2899 117.428 48.3193C117.498 48.4309 117.58 48.9773 117.592 49.1359C117.651 49.841 117.698 51.6388 117.239 52.1617C117.122 52.2969 116.675 52.5495 116.517 52.5495H111.623V59.1945C111.623 59.3355 111.723 59.8232 111.77 59.9818C111.888 60.3872 112.14 60.7338 112.522 60.9277C113.967 61.6738 116.012 60.7221 117.469 60.5223C117.815 60.4753 117.957 60.4518 118.127 60.7691C118.468 61.3977 118.932 62.9312 118.815 63.6245C118.667 64.5175 116.746 65.0933 115.971 65.2872C111.852 66.333 107.075 65.4224 106.758 60.4166V43.7307C106.746 43.4721 107.081 43.1196 107.316 43.1196H111.623V43.1254Z" fill="#094752"/>
<path d="M145.071 65.3052H140.53C140.377 65.3052 140.148 65.0525 140.207 64.8704C140.383 61.0867 139.978 57.0973 140.207 53.3372C140.341 51.1163 141.258 49.3008 143.35 48.4019C145.03 47.6792 147.586 47.6264 149.349 48.0729C151.111 48.5194 151.106 49.6357 150.929 51.2338C150.876 51.7038 150.923 52.2679 150.376 52.3207C149.625 52.3913 148.696 52.1797 147.915 52.2032C146.293 52.2503 145.071 52.9024 145.071 54.6885V65.3111V65.3052Z" fill="#094752"/>
</svg>
