<svg width="287" height="103" viewBox="0 0 287 103" fill="none" xmlns="http://www.w3.org/2000/svg">
<path d="M94.6954 57.9915C85.4636 57.9915 76.2318 57.9915 67 57.9915V45.162H94.6954V17H107.305V45.1705H135V58C125.768 58 116.536 58 107.305 58C107.305 57.9236 107.196 57.72 107.196 57.5163C107.171 53.4011 107.23 49.2858 107.196 45.179H94.8038C94.7788 49.2943 94.8371 53.4096 94.8038 57.5163C94.8038 57.72 94.6954 57.9236 94.6954 58V57.9915Z" fill="#F6D1C8"/>
<path d="M106.978 58C107.047 67.2073 106.927 76.4146 106.978 85.622L106.807 86H94.1886L94.0173 85.622C94.0773 76.4146 93.9573 67.1989 94.0173 58C98.3348 58 102.652 58 106.97 58H106.978Z" fill="#F6D1C8"/>
<path d="M221 45H208.741C208.193 43.6056 207.805 42.1691 207.181 40.7999C204.508 34.9533 199.314 30.2575 193.243 28.0987C179.5 23.2013 163.893 30.8203 160.31 45H148C149.391 36.2721 154.467 28.3843 161.583 23.2097C175.166 13.331 195.242 13.6082 208.454 24.0161C214.997 29.1655 219.668 36.7509 220.992 45H221Z" fill="#F6D1C8"/>
<path d="M208.58 58H221C219.44 66.6838 214.12 74.4585 206.65 79.474C193.193 88.5068 173.969 88.1497 160.976 78.4839C154.206 73.4441 149.535 66.1319 148 58H160.259C160.597 58.6087 160.74 59.3553 160.993 60.0208C165.394 71.334 177.839 77.8184 190.166 75.1484C199.044 73.225 206.346 66.5133 208.58 58.0081V58Z" fill="#F6D1C8"/>
</svg>
