<svg width="287" height="103" viewBox="0 0 287 103" fill="none" xmlns="http://www.w3.org/2000/svg">
<path d="M108.782 55.9939C102.188 55.9939 95.5941 55.9939 89 55.9939V46.8299H108.782V26.7142H117.789V46.836H137.571V55.9999C130.977 55.9999 124.383 55.9999 117.789 55.9999C117.789 55.9454 117.711 55.7999 117.711 55.6544C117.694 52.715 117.736 49.7755 117.711 46.8421H108.86C108.842 49.7816 108.884 52.7211 108.86 55.6544C108.86 55.7999 108.782 55.9454 108.782 55.9999V55.9939Z" fill="#094752"/>
<path d="M117.556 56C117.605 62.5766 117.519 69.1533 117.556 75.73L117.434 76H108.42L108.298 75.73C108.341 69.1533 108.255 62.5706 108.298 56C111.382 56 114.466 56 117.55 56H117.556Z" fill="#094752"/>
<path d="M199 46.7143H190.243C189.852 45.7183 189.575 44.6922 189.129 43.7142C187.22 39.5381 183.51 36.1839 179.173 34.6419C169.357 31.1438 158.209 36.5859 155.65 46.7143H146.857C147.851 40.4801 151.476 34.8459 156.559 31.1498C166.261 24.0936 180.601 24.2916 190.038 31.7258C194.712 35.4039 198.048 40.8221 198.994 46.7143H199Z" fill="#094752"/>
<path d="M190.128 56H199C197.886 62.2027 194.086 67.7561 188.75 71.3386C179.138 77.7906 165.406 77.5355 156.126 70.6314C151.29 67.0315 147.953 61.8085 146.857 56H155.613C155.855 56.4348 155.957 56.9681 156.138 57.4434C159.281 65.5243 168.171 70.156 176.976 68.2489C183.317 66.875 188.533 62.0809 190.128 56.0058V56Z" fill="#094752"/>
</svg>
