<svg width="287" height="103" viewBox="0 0 287 103" fill="none" xmlns="http://www.w3.org/2000/svg">
<path d="M16.311 28L16.0667 32.1056L16.4896 32.1936L18.1812 28.8385L20.3962 28.5544V39.103L18.5278 39.4503V40.0091H24.2861V39.4503L22.4209 39.103V28.5544L24.6365 28.8385L26.3288 32.1936L26.7467 32.1056L26.5074 28H16.311Z" fill="#094752"/>
<path d="M35.7605 28.5544L37.2631 28.9086V33.5531H31.4806V28.9086L32.9874 28.5544V28H27.8182V28.5544L29.4597 28.9086V39.103L27.8182 39.4503V40.0091H32.9874V39.4503L31.4806 39.103V34.3549H37.2631V39.103L35.7605 39.4503V40.0091H40.9235V39.4503L39.284 39.103V28.9086L40.9235 28.5544V28H35.7605V28.5544Z" fill="#094752"/>
<path d="M50.7014 39.139L45.7617 39.3976V34.1801L47.9643 34.3035L48.6811 35.9265H49.0978V31.6646H48.6811L47.9643 33.4352L45.7617 33.5686V28.5544L49.8277 28.8726L51.5596 31.4575L51.9236 31.3688L51.5032 28H42.103V28.5544L43.7407 28.9086V39.103L42.103 39.4503V40.0091H52.3776L52.7943 36.6403L52.4327 36.5497L50.7014 39.139Z" fill="#094752"/>
<path d="M64.2822 51.754L62.2663 55.3219L58.0384 55.6481V50.2346L59.6476 50.4119L60.5232 52.5094H61.4198V46.5209H60.5232L59.6476 48.7852L58.0384 48.9874V43.8151L61.733 44.2145L63.9244 47.7675L64.5117 47.6707L64.4348 42.7552H43.8473V43.6098L45.6797 44.2182V57.6469C45.6797 58.8085 44.9002 59.0063 43.926 59.0063C43.5943 59.0063 43.35 58.9691 43.1887 58.9077V58.8482C43.7381 58.6417 44.3074 58.1548 44.3074 57.2605C44.3074 56.3662 43.6371 55.5048 42.5568 55.5048C42.4694 55.5048 42.3845 55.5197 42.2964 55.5271C43.1484 54.8946 43.6154 54.0257 43.6154 52.936C43.6154 50.5757 41.7011 49.5362 39.5816 49.3316V49.2293C41.37 48.9024 42.8377 47.9442 42.8377 46.1724C42.8377 43.6694 40.0293 42.754 37.095 42.754H29.8013V43.6086L31.3335 44.217V55.2989L29.8013 55.9129V56.7644H37.2983C38.8598 56.7644 40.1856 56.5492 41.2137 56.1306C40.9005 56.4841 40.704 56.9635 40.704 57.4987C40.704 59.2339 42.3627 60.478 45.0125 60.478C47.86 60.478 50.2846 59.2395 50.2846 55.5265V44.217L51.9087 43.6086L53.4366 44.217V55.2989L51.9087 55.9129V56.7644L64.942 56.7495L64.8782 51.8476L64.2835 51.7521L64.2822 51.754ZM35.7512 44.3237H36.362C37.8905 44.3237 38.5627 44.6096 38.5627 46.5445C38.5627 48.1098 37.9699 48.6624 36.4073 48.6624H35.7512V44.3237ZM36.7278 55.1997H35.7512V50.087H36.6677C38.2589 50.087 39.1103 50.9025 39.1103 52.6737C39.1103 54.6707 38.4214 55.1997 36.7278 55.1997Z" fill="#094752"/>
<path d="M128.641 50.8604L125.833 55.3411L121.864 55.6475V50.234L123.471 50.4114L124.35 52.5088H125.244V46.5204H124.35L123.471 48.7846L121.864 48.9868V43.8145L125.285 44.1767L127.911 48.0076L128.542 47.9102L128.252 42.7553H110.504V43.6099L112.384 44.2183L109.508 53.1438L106.108 44.2183L107.574 43.6099V42.7553H77.3745L77.2511 44.5488L77.209 45.1051L77.0484 44.3473C75.9018 43.2576 74.256 42.6933 72.4087 42.6933C68.0103 42.6933 65.1262 45.5213 65.1262 49.6479C65.1262 56.068 70.6272 57.7462 74.013 56.9641C76.0159 56.4947 77.5507 55.2996 78.4436 53.573L77.3621 52.8958C76.6751 54.0884 75.6246 55.0434 74.3236 55.3449C72.583 55.7473 70.0964 55.2041 70.0964 50.0343C70.0964 45.2478 71.3149 44.2505 73.298 44.2505C74.7124 44.2505 76.8754 45.2478 76.9802 48.0076L77.6623 48.0826L79.7161 44.1389L81.9292 43.7761V55.2996L80.0559 55.9136V56.7651H88.4037V55.9136L86.5292 55.2996V43.7761L88.7832 44.1389L90.8073 48.0826L91.4584 48.01L91.1831 43.6099L93.3181 44.2183V55.3002L91.5291 55.9142V56.7657H99.7126V55.9142L97.9186 55.3002V44.2183L99.7126 43.6099L100.994 44.2183L106.434 56.971H109.448L114.48 44.2183L115.853 43.6099L117.261 44.2183V55.3002L115.734 55.9142V56.7657H128.907L129.315 50.9608L128.64 50.8604H128.641Z" fill="#094752"/>
<path d="M22.4958 42.6263C18.3827 42.6263 15 45.9858 15 49.855C15 53.7243 18.2804 56.9709 22.4958 56.9709C26.7113 56.9709 29.9762 53.715 29.9762 49.855C29.9762 45.9951 26.591 42.6263 22.4958 42.6263ZM22.4878 53.8074C20.2678 53.8074 18.4751 52.012 18.4751 49.7974C18.4751 47.5827 20.2678 45.7879 22.4878 45.7879C24.7078 45.7879 26.4955 47.5796 26.4955 49.7974C26.4955 52.0151 24.6953 53.8074 22.4878 53.8074Z" fill="#094752"/>
<path d="M81.835 61.1882C81.9162 60.9692 81.9757 60.7026 81.9757 60.5208C81.9757 60.1401 81.5088 59.9583 80.9228 59.9583H80.1997C80.018 59.9583 79.9337 59.879 79.956 59.7568L80.0398 59.4144C80.0782 59.2737 80.1191 59.2092 80.2599 59.2092C80.4639 59.2092 81.2855 59.2737 84.2149 59.2737C84.5386 59.2737 84.5771 59.3946 84.6192 59.7382L85.5891 69.4855C85.6486 70.0095 85.8297 70.0095 86.092 69.6461L93.2176 59.5968C93.3559 59.3952 93.4818 59.2743 93.7416 59.2743C95.9851 59.2743 96.6257 59.2098 96.8911 59.2098C97.0282 59.2098 97.0926 59.2743 97.0716 59.3717L96.9903 59.799C96.9705 59.9186 96.9283 59.9596 96.7863 59.9596H96.1823C95.6993 59.9596 95.4376 60.465 95.153 61.4536L92.551 70.861C92.3284 71.7274 92.6322 72.1119 93.1587 72.1119H93.7825C93.9035 72.1119 93.9419 72.1702 93.9221 72.2725L93.8408 72.6943C93.8222 72.8164 93.8011 72.8586 93.5996 72.8586C93.3559 72.8586 92.6918 72.7941 91.2618 72.7941C89.6235 72.7941 88.8353 72.8586 88.6338 72.8586C88.4496 72.8586 88.436 72.7941 88.4496 72.6521L88.4955 72.3135C88.5079 72.1913 88.555 72.1119 88.7144 72.1119H89.2396C90.2504 72.1119 90.6715 71.5432 90.9152 70.6787L93.6201 60.9277C93.6994 60.6027 93.4359 60.6027 93.2976 60.808L85.0229 72.4921C84.7141 72.938 84.2546 72.938 84.2137 72.3513L83.0659 60.9885C83.0237 60.6027 82.8408 60.6027 82.7409 60.8874L79.4308 70.6781C79.0277 71.8459 79.4308 72.1113 79.8742 72.1113H80.5823C80.7206 72.1113 80.7417 72.1696 80.7206 72.3129L80.6611 72.6936C80.6425 72.7935 80.583 72.858 80.4199 72.858C80.1997 72.858 79.5722 72.7935 78.3419 72.7935C77.2115 72.7935 76.6068 72.858 76.3836 72.858C76.2813 72.858 76.2441 72.7935 76.2602 72.6936L76.3421 72.2719C76.3619 72.1485 76.383 72.1113 76.4853 72.1113H76.8847C77.9767 72.1113 78.2427 71.5277 78.5193 70.7171L81.8343 61.1894L81.835 61.1882Z" fill="#094752"/>
<path d="M96.6226 71.0198C96.6226 69.3242 97.7295 67.2051 99.2109 65.7495C99.8546 65.1021 100.942 64.3963 101.912 64.3963C102.699 64.3963 103.06 64.9817 103.06 65.4735C103.06 66.4559 102.315 67.5065 101.187 68.0957C100.093 68.6358 99.0032 68.8566 98.2584 68.9223C98.1573 69.1605 97.9942 69.8278 97.9942 70.7773C97.9942 71.7268 98.6652 72.0486 99.0472 72.0486C100.034 72.0486 100.922 71.2989 101.345 70.6167C101.389 70.5546 101.448 70.5168 101.528 70.5956L101.751 70.7773C101.851 70.8368 101.851 70.8982 101.769 70.9602C101.264 71.666 100.053 72.9994 98.499 72.9994C97.1893 72.9994 96.6219 72.3507 96.6219 71.0198H96.6226ZM98.4215 68.3307C99.1247 68.3964 101.77 67.5499 101.77 66.0534C101.77 65.6478 101.571 65.285 101.124 65.285C99.8291 65.285 98.5833 67.6094 98.4215 68.3301V68.3307Z" fill="#094752"/>
<path d="M111.598 59.8523C111.44 59.8523 111.419 59.776 111.44 59.7177L111.56 59.2916C111.577 59.2085 111.619 59.1719 111.8 59.1719H114.285C114.565 59.1719 114.608 59.3698 114.526 59.5403C114.224 60.2374 110.691 69.6858 110.351 70.897C110.167 71.5258 110.147 71.826 110.429 71.826C110.769 71.826 111.739 70.897 111.839 70.7767C111.921 70.7159 112 70.7159 112.06 70.7965L112.264 70.9993C112.321 71.0378 112.321 71.1202 112.264 71.1984C112.119 71.3813 110.384 72.9988 109.319 72.9988C108.994 72.9988 108.772 72.8939 108.772 72.5318C108.772 72.1286 109.21 70.7525 109.66 69.6033L109.502 69.5648C108.51 71.1407 106.613 72.9988 105.241 72.9988C104.553 72.9988 103.952 72.5318 103.952 71.6654C103.952 70.0703 105.078 67.6677 106.732 66.0342C107.381 65.4078 108.551 64.3957 109.904 64.3957C110.448 64.3957 110.832 64.6611 111.175 65.0617L112.729 60.6405C112.871 60.256 112.766 59.851 112.226 59.851H111.597L111.598 59.8523ZM109.21 69.202C109.781 68.4336 110.527 67.1654 110.527 66.3759C110.527 65.4245 110.101 65.0425 109.459 65.0425C107.56 65.0425 105.421 69.4631 105.421 71.3212C105.421 71.7472 105.728 71.9699 106.007 71.9699C106.857 71.9699 108.408 70.3153 109.21 69.202Z" fill="#094752"/>
<path d="M114.643 72.4915C114.643 72.027 114.988 71.1035 115.833 68.8399L116.416 67.2677C116.622 66.7226 116.783 66.3164 116.783 66.0727C116.783 65.8934 116.66 65.8097 116.498 65.8097C116.157 65.8097 115.208 66.9031 114.883 67.228C114.802 67.3068 114.723 67.3068 114.666 67.2442L114.502 67.0625C114.417 67.0048 114.381 66.9614 114.441 66.8807C114.525 66.7635 116.579 64.3374 117.874 64.3969C118.114 64.3969 118.354 64.5625 118.354 64.9024C118.354 65.2683 118.03 66.1762 117.669 67.1431L116.499 70.2129C116.216 70.9603 116.137 71.4055 116.137 71.5414C116.137 71.7256 116.195 71.8452 116.357 71.8862C116.783 71.8093 117.874 70.6564 117.972 70.4759C118.014 70.4126 118.093 70.4126 118.195 70.5168L118.354 70.6564C118.44 70.7537 118.46 70.7972 118.393 70.8976C118.275 71.057 116.661 72.9994 114.988 72.9994C114.785 72.9808 114.643 72.8152 114.643 72.4915ZM117.185 60.7261C117.185 60.1797 117.61 59.7177 118.237 59.7177C118.939 59.7177 119.306 60.2219 119.306 60.6852C119.306 60.9878 119.062 61.6936 118.237 61.6936C117.351 61.6936 117.185 60.9481 117.185 60.7261Z" fill="#094752"/>
<path d="M128.528 64.3963C128.61 64.3963 128.628 64.4999 128.587 64.5805C128.206 65.4084 127.176 68.1924 127.072 68.5174C126.953 68.856 126.106 71.3621 126.106 71.5413C126.106 71.7206 126.207 71.7851 126.328 71.7851C126.57 71.7851 127.598 70.737 127.739 70.554C127.801 70.4957 127.865 70.4542 127.902 70.5168L128.082 70.7159C128.146 70.7767 128.166 70.8176 128.125 70.8778C127.902 71.2852 126.146 72.9994 124.995 72.9994C124.754 72.9994 124.573 72.9181 124.573 72.6508C124.573 72.3507 124.777 71.7262 125.538 69.5872L125.441 69.545C124.591 70.8374 122.553 73 121.121 73C120.657 73 120.032 72.6167 120.032 71.71C120.032 68.7592 123.338 64.3969 125.804 64.3969C126.652 64.3969 127.036 64.7591 127.238 65.0841L127.62 64.5389C127.684 64.4565 127.739 64.3969 127.822 64.3969H128.528L128.528 64.3963ZM125.986 67.9121C126.269 67.3273 126.47 66.8187 126.47 66.2351C126.47 65.69 126.269 65.0425 125.519 65.0425C123.664 65.0425 121.502 69.3007 121.502 71.2201C121.502 71.6834 121.706 71.9246 122.044 71.9246C123.058 71.9246 125.623 68.6563 125.986 67.9121Z" fill="#094752"/>
<path d="M179.766 30.0005V29.1946C179.766 28.4744 179.15 28.0629 178.076 28.0629H176.443V32.8469H177.34V31.1265H178.076C179.15 31.1265 179.766 30.715 179.766 29.9948V30.0005ZM177.34 28.8002H178.076C178.596 28.8002 178.876 29.0002 178.876 29.3661V29.8347C178.876 30.1891 178.584 30.3949 178.076 30.3949H177.34V28.8002Z" fill="#094752"/>
<path d="M192.688 31.801L192.974 32.8469H193.887L192.546 28.0629H191.472L190.136 32.8469H190.992L191.272 31.801H192.688ZM191.466 31.0694L191.98 29.1203L192.506 31.1094H191.455L191.466 31.0694Z" fill="#094752"/>
<path d="M204.782 28.0629V32.8469H207.443V32.1153H205.679V28.0629H204.782Z" fill="#094752"/>
<path d="M220.473 31.801L220.759 32.8469H221.672L220.33 28.0629H219.257L217.921 32.8469H218.777L219.057 31.801H220.473ZM219.246 31.0694L219.759 29.1203L220.285 31.1094H219.234L219.246 31.0694Z" fill="#094752"/>
<path d="M235.673 31.2694H234.806V31.6009C234.806 31.8581 234.674 32.1668 234.046 32.1668C233.549 32.1668 233.292 31.9782 233.292 31.6009V29.3032C233.292 28.9259 233.544 28.7373 234.046 28.7373C234.674 28.7373 234.806 29.046 234.806 29.3032V29.5318H235.673V29.1317C235.673 28.6173 235.388 28 234.035 28C232.681 28 232.396 28.6116 232.396 29.1317V31.7667C232.396 32.2811 232.681 32.8984 234.035 32.8984C235.388 32.8984 235.673 32.2868 235.673 31.7667V31.2637V31.2694Z" fill="#094752"/>
<path d="M247.67 28.0629H246.774V32.8469H247.67V28.0629Z" fill="#094752"/>
<path d="M258.907 29.1374V31.7724C258.907 32.4926 259.524 32.9041 260.603 32.9041C261.683 32.9041 262.299 32.4926 262.299 31.7724V29.1374C262.299 28.4172 261.683 28.0057 260.603 28.0057C259.524 28.0057 258.907 28.4172 258.907 29.1374ZM261.403 29.3089V31.6066C261.403 31.9724 261.117 32.1725 260.603 32.1725C260.089 32.1725 259.81 31.9724 259.81 31.6066V29.3089C259.81 28.9431 260.089 28.743 260.603 28.743C261.117 28.743 261.403 28.9431 261.403 29.3089Z" fill="#094752"/>
<path d="M203.406 47.6565L201.384 47.0849C205.05 46.982 205.227 45.1873 205.227 44.4271V43.5983C205.227 42.7924 204.845 40.9233 201.316 40.9233H197.53V51.8232H199.883V47.102H200.659L202.823 51.8232H205.421L203.406 47.6622V47.6565ZM199.883 41.392H201.316C202.041 41.392 202.909 41.5749 202.909 42.4494V45.5702C202.909 46.4447 202.041 46.6276 201.316 46.6276H199.883V41.3863V41.392Z" fill="#094752"/>
<path d="M188.308 47.6565L186.287 47.0849C189.953 46.982 190.13 45.1873 190.13 44.4271V43.5983C190.13 42.7924 189.747 40.9233 186.218 40.9233H182.433V51.8232H184.785V47.102H185.562L187.726 51.8232H190.324L188.308 47.6622V47.6565ZM184.791 41.392H186.224C186.949 41.392 187.817 41.5749 187.817 42.4494V45.5702C187.817 46.4447 186.949 46.6276 186.224 46.6276H184.791V41.3863V41.392Z" fill="#094752"/>
<path d="M214.974 40.9233H212.622V51.8232H214.974V40.9233Z" fill="#094752"/>
<path d="M225.178 51.3545V40.9233H222.825V51.8232H229.061V51.3545H225.178Z" fill="#094752"/>
<path d="M242.177 40.9233V49.274C242.177 50.6972 241.132 51.4803 239.236 51.4803C238.522 51.4803 237.677 51.2974 237.677 50.4229V40.9233H235.325V49.274C235.325 50.0799 235.707 51.949 239.236 51.949C242.342 51.949 242.674 50.0799 242.674 49.274V40.9233H242.171H242.177Z" fill="#094752"/>
<path d="M257.914 44.73V43.4668C257.914 42.4665 257.422 40.7918 254.116 40.7918C250.81 40.7918 250.319 42.4665 250.319 43.4668V49.2683C250.319 50.2685 250.81 51.9432 254.116 51.9432C257.422 51.9432 257.914 50.2685 257.914 49.2683V47.7879H255.624V50.4171C255.624 51.1316 255.138 51.4746 254.145 51.4746C253.151 51.4746 252.666 51.1259 252.666 50.4171V42.3237C252.666 41.6092 253.151 41.2662 254.145 41.2662C255.138 41.2662 255.624 41.6149 255.624 42.3237V44.73H257.914Z" fill="#094752"/>
<path d="M172.235 40.9233H170.322L168.255 47.5307C166.684 47.2963 165.468 45.9417 165.468 44.3013C165.468 42.5008 166.936 41.0319 168.734 41.0319C168.923 41.0319 169.1 41.049 169.277 41.0776L169.42 40.6261C169.197 40.5861 168.968 40.5632 168.734 40.5632C166.673 40.5632 165 42.2379 165 44.3013C165 46.1532 166.348 47.685 168.112 47.9822L166.913 51.8175H167.41L168.586 48.0394H171.983L173.114 51.8175H175.604L172.24 40.9176L172.235 40.9233ZM168.734 47.5707L170.31 42.518L171.829 47.5707H168.729H168.734Z" fill="#094752"/>
<path d="M267.643 51.3545V45.7817C268.123 45.7817 268.466 46.1189 268.837 46.4733C269.242 46.862 269.653 47.2621 270.282 47.2621C271.218 47.2621 271.783 46.6219 271.783 45.5473V45.5245H271.315V45.5473C271.315 46.3361 270.938 46.7877 270.287 46.7877C269.808 46.7877 269.465 46.4504 269.094 46.0961C268.688 45.7074 268.277 45.3073 267.649 45.3073V41.3863H271.663V40.9176H265.302V51.8175H271.835V51.3488H267.649L267.643 51.3545Z" fill="#094752"/>
<path d="M219.366 58.2837L217.706 59.9448L219.366 61.6059L221.025 59.9448L219.366 58.2837Z" fill="#094752"/>
<path d="M216.813 59.8023H199.86V60.111H216.813V59.8023Z" fill="#094752"/>
<path d="M238.882 59.8023H221.929V60.111H238.882V59.8023Z" fill="#094752"/>
<path d="M192.146 67.9702C191.129 67.9702 190.61 68.3302 190.61 69.0447V71.9254C190.61 72.6399 191.124 73 192.146 73C193.168 73 193.682 72.6399 193.682 71.9254V70.5479H192.117V71.0452H193.128V71.8569C193.128 72.297 192.819 72.5027 192.157 72.5027C191.289 72.5027 191.186 72.1312 191.186 71.8511V69.1247C191.186 68.8447 191.289 68.4731 192.157 68.4731C192.819 68.4731 193.128 68.6789 193.128 69.1247V69.4791H193.682V69.0447C193.682 68.3302 193.168 67.9702 192.146 67.9702Z" fill="#094752"/>
<path d="M197.079 70.6108H199.089V70.125H197.079V68.5246H199.22V68.0273H196.52V72.9371H199.306V72.4399H197.079V70.6108Z" fill="#094752"/>
<path d="M201.63 68.5246H202.966V72.9371H203.537V68.5246H204.873V68.0273H201.63V68.5246Z" fill="#094752"/>
<path d="M210.503 68.0273H209.904L208.802 69.9535L207.677 68.0445L207.665 68.0273H207.037L208.442 70.4394L207.032 72.8914L207.003 72.9371H207.608L208.745 70.9538L209.915 72.9257L209.927 72.9371H210.566L209.099 70.4451L210.503 68.0273Z" fill="#094752"/>
<path d="M214.432 67.9702C213.136 67.9702 212.862 68.5532 212.862 69.0447V71.9254C212.862 72.417 213.136 73 214.432 73C215.477 73 216.008 72.6399 216.008 71.9254V69.0447C216.008 68.3302 215.477 67.9702 214.432 67.9702ZM215.437 69.119V71.8454C215.437 72.2855 215.106 72.497 214.426 72.497C213.747 72.497 213.427 72.2855 213.427 71.8454V69.119C213.427 68.6789 213.752 68.4674 214.426 68.4674C215.1 68.4674 215.437 68.6789 215.437 69.119Z" fill="#094752"/>
<path d="M220.285 70.7195H218.458V71.2396H220.285V70.7195Z" fill="#094752"/>
<path d="M225.104 70.365C225.481 70.2107 225.669 69.9364 225.669 69.5305V69.0619C225.669 68.376 225.138 68.033 224.099 68.033H222.74V72.9486H224.287C225.332 72.9486 225.863 72.5942 225.863 71.8911V71.2567C225.863 70.8166 225.601 70.5136 225.098 70.3708L225.104 70.365ZM225.104 69.5191C225.104 69.9592 224.79 70.1764 224.167 70.1764H223.305V68.5074H224.099C224.796 68.5074 225.11 68.7018 225.11 69.1304V69.5134L225.104 69.5191ZM223.305 70.6451H224.293C224.961 70.6451 225.304 70.8566 225.304 71.2738V71.7997C225.304 72.2398 224.973 72.4513 224.293 72.4513H223.305V70.6394V70.6451Z" fill="#094752"/>
<path d="M228.947 68.0273H228.381V72.9429H228.947V68.0273Z" fill="#094752"/>
<path d="M232.327 68.0273H231.756V72.9371H234.423V72.4399H232.327V68.0273Z" fill="#094752"/>
<path d="M239.162 70.365C239.539 70.2107 239.727 69.9364 239.727 69.5305V69.0619C239.727 68.376 239.196 68.033 238.157 68.033H236.798V72.9486H238.345C239.39 72.9486 239.921 72.5942 239.921 71.8911V71.2567C239.921 70.8166 239.659 70.5136 239.156 70.3708L239.162 70.365ZM239.168 69.5191C239.168 69.9592 238.854 70.1764 238.231 70.1764H237.363V68.5074H238.157C238.854 68.5074 239.162 68.7018 239.162 69.1304V69.5134L239.168 69.5191ZM237.363 70.6451H238.351C239.019 70.6451 239.356 70.8566 239.356 71.2738V71.7997C239.356 72.2398 239.025 72.4513 238.351 72.4513H237.363V70.6394V70.6451Z" fill="#094752"/>
<path d="M243.959 68.0273H243.319L241.88 72.8971L241.869 72.9371H242.417L242.822 71.5596H244.432L244.838 72.9143V72.9371H245.426L243.959 68.0502V68.0273ZM244.295 71.0909H242.965L243.627 68.8504L244.295 71.0909Z" fill="#094752"/>
<path d="M249.08 67.9702C247.784 67.9702 247.51 68.5532 247.51 69.0447V71.9254C247.51 72.417 247.784 73 249.08 73C249.8 73 250.656 72.8114 250.656 71.9254V69.0447C250.656 68.3302 250.125 67.9702 249.08 67.9702ZM250.085 69.119V71.8454C250.085 72.2855 249.754 72.497 249.08 72.497C248.406 72.497 248.081 72.2798 248.081 71.8454V69.119C248.081 68.6789 248.406 68.4674 249.08 68.4674C249.754 68.4674 250.085 68.6789 250.085 69.119Z" fill="#094752"/>
</svg>
