<svg width="287" height="103" viewBox="0 0 287 103" fill="none" xmlns="http://www.w3.org/2000/svg">
<path d="M4.30737 28L4.06372 32.1056L4.48547 32.1936L6.17246 28.8385L8.38138 28.5544V39.103L6.51815 39.4503V40.0091H12.2606V39.4503L10.4005 39.103V28.5544L12.61 28.8385L14.2976 32.1936L14.7144 32.1056L14.4757 28H4.30737Z" fill="#094752"/>
<path d="M23.7034 28.5544L25.2018 28.9086V33.5531H19.4352V28.9086L20.9379 28.5544V28H15.783V28.5544L17.4199 28.9086V39.103L15.783 39.4503V40.0091H20.9379V39.4503L19.4352 39.103V34.3549H25.2018V39.103L23.7034 39.4503V40.0091H28.8522V39.4503L27.2172 39.103V28.9086L28.8522 28.5544V28H23.7034V28.5544Z" fill="#094752"/>
<path d="M38.6032 39.139L33.677 39.3976V34.1801L35.8736 34.3035L36.5884 35.9265H37.004V31.6646H36.5884L35.8736 33.4352L33.677 33.5686V28.5544L37.7318 28.8726L39.459 31.4575L39.822 31.3688L39.4028 28H30.0284V28.5544L31.6616 28.9086V39.103L30.0284 39.4503V40.0091H40.2747L40.6903 36.6403L40.3297 36.5497L38.6032 39.139Z" fill="#094752"/>
<path d="M52.1466 51.754L50.1362 55.3219L45.9199 55.6481V50.2346L47.5247 50.4119L48.3978 52.5094H49.292V46.5209H48.3978L47.5247 48.7852L45.9199 48.9874V43.8151L49.6043 44.2145L51.7898 47.7675L52.3754 47.6707L52.2987 42.7552H31.7679V43.6098L33.5952 44.2182V57.6469C33.5952 58.8085 32.8179 59.0063 31.8464 59.0063C31.5155 59.0063 31.2719 58.9691 31.1111 58.9077V58.8482C31.659 58.6417 32.2267 58.1548 32.2267 57.2605C32.2267 56.3662 31.5582 55.5048 30.481 55.5048C30.3938 55.5048 30.3091 55.5197 30.2212 55.5271C31.0709 54.8946 31.5366 54.0257 31.5366 52.936C31.5366 50.5757 29.6276 49.5362 27.5139 49.3316V49.2293C29.2974 48.9024 30.7611 47.9442 30.7611 46.1724C30.7611 43.6694 27.9604 42.754 25.0341 42.754H17.7605V43.6086L19.2886 44.217V55.2989L17.7605 55.9129V56.7644H25.2369C26.7941 56.7644 28.1162 56.5492 29.1415 56.1306C28.8292 56.4841 28.6332 56.9635 28.6332 57.4987C28.6332 59.2339 30.2874 60.478 32.9298 60.478C35.7695 60.478 38.1875 59.2395 38.1875 55.5265V44.217L39.807 43.6086L41.3308 44.217V55.2989L39.807 55.9129V56.7644L52.8046 56.7495L52.7409 51.8476L52.1478 51.7521L52.1466 51.754ZM23.694 44.3237H24.3032C25.8275 44.3237 26.4979 44.6096 26.4979 46.5445C26.4979 48.1098 25.9067 48.6624 24.3483 48.6624H23.694V44.3237ZM24.668 55.1997H23.694V50.087H24.608C26.1948 50.087 27.0439 50.9025 27.0439 52.6737C27.0439 54.6707 26.3569 55.1997 24.668 55.1997Z" fill="#094752"/>
<path d="M116.328 50.8604L113.528 55.3411L109.57 55.6475V50.234L111.173 50.4114L112.049 52.5088H112.94V46.5204H112.049L111.173 48.7846L109.57 48.9868V43.8145L112.982 44.1767L115.6 48.0076L116.229 47.9102L115.94 42.7553H98.2409V43.6099L100.116 44.2183L97.2477 53.1438L93.8577 44.2183L95.3189 43.6099V42.7553H65.2029L65.0798 44.5488L65.0378 45.1051L64.8776 44.3473C63.7342 43.2576 62.093 42.6933 60.2508 42.6933C55.8645 42.6933 52.9883 45.5213 52.9883 49.6479C52.9883 56.068 58.4741 57.7462 61.8506 56.9641C63.848 56.4947 65.3785 55.2996 66.269 53.573L65.1905 52.8958C64.5053 54.0884 63.4578 55.0434 62.1604 55.3449C60.4245 55.7473 57.9447 55.2041 57.9447 50.0343C57.9447 45.2478 59.1599 44.2505 61.1375 44.2505C62.5481 44.2505 64.7051 45.2478 64.8096 48.0076L65.4898 48.0826L67.538 44.1389L69.745 43.7761V55.2996L67.8769 55.9136V56.7651H76.2017V55.9136L74.3323 55.2996V43.7761L76.5802 44.1389L78.5987 48.0826L79.248 48.01L78.9734 43.6099L81.1026 44.2183V55.3002L79.3185 55.9142V56.7657H87.4795V55.9142L85.6905 55.3002V44.2183L87.4795 43.6099L88.7571 44.2183L94.1823 56.971H97.1877L102.207 44.2183L103.576 43.6099L104.98 44.2183V55.3002L103.456 55.9142V56.7657H116.593L117 50.9608L116.327 50.8604H116.328Z" fill="#094752"/>
<path d="M10.4752 42.6263C6.37337 42.6263 3 45.9858 3 49.855C3 53.7243 6.27133 56.9709 10.4752 56.9709C14.6791 56.9709 17.935 53.715 17.935 49.855C17.935 45.9951 14.5591 42.6263 10.4752 42.6263ZM10.4672 53.8074C8.2533 53.8074 6.46551 52.012 6.46551 49.7974C6.46551 47.5827 8.2533 45.7879 10.4672 45.7879C12.681 45.7879 14.4639 47.5796 14.4639 49.7974C14.4639 52.0151 12.6687 53.8074 10.4672 53.8074Z" fill="#094752"/>
<path d="M69.651 61.1882C69.732 60.9692 69.7914 60.7026 69.7914 60.5208C69.7914 60.1401 69.3257 59.9583 68.7414 59.9583H68.0203C67.8391 59.9583 67.755 59.879 67.7773 59.7568L67.8608 59.4144C67.8991 59.2737 67.9399 59.2092 68.0803 59.2092C68.2837 59.2092 69.1031 59.2737 72.0244 59.2737C72.3472 59.2737 72.3856 59.3946 72.4276 59.7382L73.3948 69.4855C73.4542 70.0095 73.6348 70.0095 73.8963 69.6461L81.0024 59.5968C81.1403 59.3952 81.2658 59.2743 81.5249 59.2743C83.7623 59.2743 84.4011 59.2098 84.6658 59.2098C84.8024 59.2098 84.8667 59.2743 84.8457 59.3717L84.7647 59.799C84.7449 59.9186 84.7029 59.9596 84.5612 59.9596H83.9589C83.4772 59.9596 83.2162 60.465 82.9324 61.4536L80.3376 70.861C80.1156 71.7274 80.4186 72.1119 80.9436 72.1119H81.5657C81.6863 72.1119 81.7247 72.1702 81.7049 72.2725L81.6238 72.6943C81.6053 72.8164 81.5843 72.8586 81.3833 72.8586C81.1403 72.8586 80.478 72.7941 79.0519 72.7941C77.4181 72.7941 76.6321 72.8586 76.4312 72.8586C76.2475 72.8586 76.2339 72.7941 76.2475 72.6521L76.2933 72.3135C76.3056 72.1913 76.3526 72.1119 76.5115 72.1119H77.0353C78.0433 72.1119 78.4632 71.5432 78.7062 70.6787L81.4037 60.9277C81.4829 60.6027 81.22 60.6027 81.0821 60.808L72.8302 72.4921C72.5223 72.938 72.064 72.938 72.0232 72.3513L70.8785 60.9885C70.8365 60.6027 70.6541 60.6027 70.5545 60.8874L67.2535 70.6781C66.8515 71.8459 67.2535 72.1113 67.6956 72.1113H68.4019C68.5398 72.1113 68.5608 72.1696 68.5398 72.3129L68.4804 72.6936C68.4618 72.7935 68.4025 72.858 68.2398 72.858C68.0203 72.858 67.3945 72.7935 66.1676 72.7935C65.0402 72.7935 64.4373 72.858 64.2147 72.858C64.1126 72.858 64.0755 72.7935 64.0916 72.6936L64.1732 72.2719C64.193 72.1485 64.2141 72.1113 64.3161 72.1113H64.7143C65.8033 72.1113 66.0686 71.5277 66.3444 70.7171L69.6504 61.1894L69.651 61.1882Z" fill="#094752"/>
<path d="M84.398 71.0198C84.398 69.3242 85.5018 67.2051 86.9792 65.7495C87.6211 65.1021 88.7057 64.3963 89.6729 64.3963C90.4577 64.3963 90.8176 64.9817 90.8176 65.4735C90.8176 66.4559 90.0749 67.5065 88.9494 68.0957C87.8591 68.6358 86.772 68.8566 86.0293 68.9223C85.9285 69.1605 85.7659 69.8278 85.7659 70.7773C85.7659 71.7268 86.435 72.0486 86.8159 72.0486C87.8004 72.0486 88.6853 71.2989 89.1077 70.6167C89.151 70.5546 89.2097 70.5168 89.2901 70.5956L89.5121 70.7773C89.6117 70.8368 89.6117 70.8982 89.5307 70.9602C89.0267 71.666 87.8189 72.9994 86.2692 72.9994C84.9632 72.9994 84.3973 72.3507 84.3973 71.0198H84.398ZM86.1919 68.3307C86.8932 68.3964 89.5313 67.5499 89.5313 66.0534C89.5313 65.6478 89.3328 65.285 88.8869 65.285C87.5957 65.285 86.3533 67.6094 86.1919 68.3301V68.3307Z" fill="#094752"/>
<path d="M99.3324 59.8523C99.1747 59.8523 99.1537 59.776 99.1747 59.7177L99.294 59.2916C99.3113 59.2085 99.3534 59.1719 99.534 59.1719H102.012C102.291 59.1719 102.333 59.3698 102.252 59.5403C101.951 60.2374 98.4277 69.6858 98.0888 70.897C97.9051 71.5258 97.8853 71.826 98.1667 71.826C98.5056 71.826 99.4728 70.897 99.5729 70.7767C99.6539 70.7159 99.7331 70.7159 99.7925 70.7965L99.9959 70.9993C100.053 71.0378 100.053 71.1202 99.9959 71.1984C99.8518 71.3813 98.1215 72.9988 97.0598 72.9988C96.7357 72.9988 96.5137 72.8939 96.5137 72.5318C96.5137 72.1286 96.9509 70.7525 97.3999 69.6033L97.2422 69.5648C96.2528 71.1407 94.3611 72.9988 92.9926 72.9988C92.3061 72.9988 91.7075 72.5318 91.7075 71.6654C91.7075 70.0703 92.8299 67.6677 94.4798 66.0342C95.1266 65.4078 96.2936 64.3957 97.6429 64.3957C98.1852 64.3957 98.568 64.6611 98.9106 65.0617L100.46 60.6405C100.601 60.256 100.497 59.851 99.9582 59.851H99.3311L99.3324 59.8523ZM96.9509 69.202C97.5198 68.4336 98.2644 67.1654 98.2644 66.3759C98.2644 65.4245 97.8396 65.0425 97.1995 65.0425C95.3054 65.0425 93.1725 69.4631 93.1725 71.3212C93.1725 71.7472 93.478 71.9699 93.7569 71.9699C94.6047 71.9699 96.1513 70.3153 96.9509 69.202Z" fill="#094752"/>
<path d="M102.369 72.4915C102.369 72.027 102.713 71.1035 103.555 68.8399L104.137 67.2677C104.342 66.7226 104.503 66.3164 104.503 66.0727C104.503 65.8934 104.38 65.8097 104.219 65.8097C103.879 65.8097 102.933 66.9031 102.609 67.228C102.528 67.3068 102.448 67.3068 102.392 67.2442L102.228 67.0625C102.144 67.0048 102.107 66.9614 102.167 66.8807C102.251 66.7635 104.3 64.3374 105.591 64.3969C105.83 64.3969 106.069 64.5625 106.069 64.9024C106.069 65.2683 105.746 66.1762 105.386 67.1431L104.22 70.2129C103.938 70.9603 103.858 71.4055 103.858 71.5414C103.858 71.7256 103.917 71.8452 104.078 71.8862C104.503 71.8093 105.591 70.6564 105.688 70.4759C105.73 70.4126 105.809 70.4126 105.912 70.5168L106.069 70.6564C106.155 70.7537 106.175 70.7972 106.109 70.8976C105.991 71.057 104.381 72.9994 102.713 72.9994C102.51 72.9808 102.369 72.8152 102.369 72.4915ZM104.904 60.7261C104.904 60.1797 105.328 59.7177 105.953 59.7177C106.653 59.7177 107.019 60.2219 107.019 60.6852C107.019 60.9878 106.776 61.6936 105.953 61.6936C105.069 61.6936 104.904 60.9481 104.904 60.7261Z" fill="#094752"/>
<path d="M116.216 64.3963C116.297 64.3963 116.315 64.4999 116.274 64.5805C115.894 65.4084 114.868 68.1924 114.763 68.5174C114.645 68.856 113.8 71.3621 113.8 71.5413C113.8 71.7206 113.901 71.7851 114.022 71.7851C114.263 71.7851 115.288 70.737 115.429 70.554C115.49 70.4957 115.554 70.4542 115.591 70.5168L115.771 70.7159C115.834 70.7767 115.854 70.8176 115.813 70.8778C115.591 71.2852 113.841 72.9994 112.692 72.9994C112.452 72.9994 112.272 72.9181 112.272 72.6508C112.272 72.3507 112.475 71.7262 113.234 69.5872L113.137 69.545C112.289 70.8374 110.257 73 108.829 73C108.366 73 107.743 72.6167 107.743 71.71C107.743 68.7592 111.04 64.3969 113.499 64.3969C114.345 64.3969 114.728 64.7591 114.93 65.0841L115.311 64.5389C115.374 64.4565 115.429 64.3969 115.512 64.3969H116.215L116.216 64.3963ZM113.68 67.9121C113.962 67.3273 114.163 66.8187 114.163 66.2351C114.163 65.69 113.962 65.0425 113.215 65.0425C111.365 65.0425 109.209 69.3007 109.209 71.2201C109.209 71.6834 109.412 71.9246 109.75 71.9246C110.76 71.9246 113.319 68.6563 113.68 67.9121Z" fill="#094752"/>
<path d="M192.651 30.0005V29.1946C192.651 28.4744 192.039 28.0629 190.974 28.0629H189.354V32.8469H190.243V31.1265H190.974C192.039 31.1265 192.651 30.715 192.651 29.9948V30.0005ZM190.243 28.8002H190.974C191.49 28.8002 191.767 29.0002 191.767 29.3661V29.8347C191.767 30.1891 191.478 30.3949 190.974 30.3949H190.243V28.8002Z" fill="#094752"/>
<path d="M205.472 31.801L205.755 32.8469H206.662L205.33 28.0629H204.265L202.94 32.8469H203.789L204.067 31.801H205.472ZM204.26 31.0694L204.77 29.1203L205.291 31.1094H204.248L204.26 31.0694Z" fill="#094752"/>
<path d="M217.471 28.0629V32.8469H220.112V32.1153H218.361V28.0629H217.471Z" fill="#094752"/>
<path d="M233.04 31.801L233.323 32.8469H234.23L232.898 28.0629H231.833L230.507 32.8469H231.357L231.635 31.801H233.04ZM231.822 31.0694L232.332 29.1203L232.853 31.1094H231.81L231.822 31.0694Z" fill="#094752"/>
<path d="M248.121 31.2694H247.26V31.6009C247.26 31.8581 247.13 32.1668 246.507 32.1668C246.014 32.1668 245.759 31.9782 245.759 31.6009V29.3032C245.759 28.9259 246.008 28.7373 246.507 28.7373C247.13 28.7373 247.26 29.046 247.26 29.3032V29.5318H248.121V29.1317C248.121 28.6173 247.838 28 246.495 28C245.153 28 244.869 28.6116 244.869 29.1317V31.7667C244.869 32.2811 245.153 32.8984 246.495 32.8984C247.838 32.8984 248.121 32.2868 248.121 31.7667V31.2637V31.2694Z" fill="#094752"/>
<path d="M260.024 28.0629H259.135V32.8469H260.024V28.0629Z" fill="#094752"/>
<path d="M271.174 29.1374V31.7724C271.174 32.4926 271.786 32.9041 272.856 32.9041C273.927 32.9041 274.539 32.4926 274.539 31.7724V29.1374C274.539 28.4172 273.927 28.0057 272.856 28.0057C271.786 28.0057 271.174 28.4172 271.174 29.1374ZM273.65 29.3089V31.6066C273.65 31.9724 273.366 32.1725 272.856 32.1725C272.347 32.1725 272.069 31.9724 272.069 31.6066V29.3089C272.069 28.9431 272.347 28.743 272.856 28.743C273.366 28.743 273.65 28.9431 273.65 29.3089Z" fill="#094752"/>
<path d="M216.106 47.6565L214.1 47.0849C217.737 46.982 217.913 45.1873 217.913 44.4271V43.5983C217.913 42.7924 217.533 40.9233 214.032 40.9233H210.276V51.8232H212.61V47.102H213.381L215.528 51.8232H218.106L216.106 47.6622V47.6565ZM212.61 41.392H214.032C214.752 41.392 215.613 41.5749 215.613 42.4494V45.5702C215.613 46.4447 214.752 46.6276 214.032 46.6276H212.61V41.3863V41.392Z" fill="#094752"/>
<path d="M201.126 47.6565L199.121 47.0849C202.758 46.982 202.933 45.1873 202.933 44.4271V43.5983C202.933 42.7924 202.554 40.9233 199.053 40.9233H195.296V51.8232H197.631V47.102H198.401L200.548 51.8232H203.126L201.126 47.6622V47.6565ZM197.636 41.392H199.058C199.778 41.392 200.639 41.5749 200.639 42.4494V45.5702C200.639 46.4447 199.778 46.6276 199.058 46.6276H197.636V41.3863V41.392Z" fill="#094752"/>
<path d="M227.584 40.9233H225.25V51.8232H227.584V40.9233Z" fill="#094752"/>
<path d="M237.708 51.3545V40.9233H235.374V51.8232H241.56V51.3545H237.708Z" fill="#094752"/>
<path d="M254.574 40.9233V49.274C254.574 50.6972 253.537 51.4803 251.656 51.4803C250.948 51.4803 250.11 51.2974 250.11 50.4229V40.9233H247.775V49.274C247.775 50.0799 248.155 51.949 251.656 51.949C254.738 51.949 255.067 50.0799 255.067 49.274V40.9233H254.568H254.574Z" fill="#094752"/>
<path d="M270.188 44.73V43.4668C270.188 42.4665 269.7 40.7918 266.42 40.7918C263.14 40.7918 262.653 42.4665 262.653 43.4668V49.2683C262.653 50.2685 263.14 51.9432 266.42 51.9432C269.7 51.9432 270.188 50.2685 270.188 49.2683V47.7879H267.916V50.4171C267.916 51.1316 267.434 51.4746 266.449 51.4746C265.463 51.4746 264.981 51.1259 264.981 50.4171V42.3237C264.981 41.6092 265.463 41.2662 266.449 41.2662C267.434 41.2662 267.916 41.6149 267.916 42.3237V44.73H270.188Z" fill="#094752"/>
<path d="M185.178 40.9233H183.28L181.229 47.5307C179.671 47.2963 178.465 45.9417 178.465 44.3013C178.465 42.5008 179.921 41.0319 181.705 41.0319C181.892 41.0319 182.068 41.049 182.243 41.0776L182.385 40.6261C182.164 40.5861 181.937 40.5632 181.705 40.5632C179.66 40.5632 178 42.2379 178 44.3013C178 46.1532 179.337 47.685 181.088 47.9822L179.898 51.8175H180.391L181.558 48.0394H184.929L186.051 51.8175H188.521L185.184 40.9176L185.178 40.9233ZM181.705 47.5707L183.269 42.518L184.776 47.5707H181.7H181.705Z" fill="#094752"/>
<path d="M279.842 51.3545V45.7817C280.318 45.7817 280.657 46.1189 281.026 46.4733C281.428 46.862 281.836 47.2621 282.459 47.2621C283.388 47.2621 283.949 46.6219 283.949 45.5473V45.5245H283.484V45.5473C283.484 46.3361 283.111 46.7877 282.465 46.7877C281.989 46.7877 281.649 46.4504 281.281 46.0961C280.878 45.7074 280.47 45.3073 279.847 45.3073V41.3863H283.83V40.9176H277.519V51.8175H284V51.3488H279.847L279.842 51.3545Z" fill="#094752"/>
<path d="M231.941 58.2837L230.295 59.9448L231.941 61.6059L233.588 59.9448L231.941 58.2837Z" fill="#094752"/>
<path d="M229.408 59.8023H212.588V60.111H229.408V59.8023Z" fill="#094752"/>
<path d="M251.305 59.8023H234.484V60.111H251.305V59.8023Z" fill="#094752"/>
<path d="M204.934 67.9702C203.925 67.9702 203.41 68.3302 203.41 69.0447V71.9254C203.41 72.6399 203.919 73 204.934 73C205.948 73 206.458 72.6399 206.458 71.9254V70.5479H204.905V71.0452H205.908V71.8569C205.908 72.297 205.602 72.5027 204.945 72.5027C204.084 72.5027 203.982 72.1312 203.982 71.8511V69.1247C203.982 68.8447 204.084 68.4731 204.945 68.4731C205.602 68.4731 205.908 68.6789 205.908 69.1247V69.4791H206.458V69.0447C206.458 68.3302 205.948 67.9702 204.934 67.9702Z" fill="#094752"/>
<path d="M209.829 70.6108H211.823V70.125H209.829V68.5246H211.953V68.0273H209.273V72.9371H212.038V72.4399H209.829V70.6108Z" fill="#094752"/>
<path d="M214.344 68.5246H215.67V72.9371H216.236V68.5246H217.562V68.0273H214.344V68.5246Z" fill="#094752"/>
<path d="M223.148 68.0273H222.553L221.46 69.9535L220.343 68.0445L220.332 68.0273H219.709L221.103 70.4394L219.703 72.8914L219.675 72.9371H220.275L221.403 70.9538L222.564 72.9257L222.576 72.9371H223.21L221.754 70.4451L223.148 68.0273Z" fill="#094752"/>
<path d="M227.046 67.9702C225.76 67.9702 225.488 68.5532 225.488 69.0447V71.9254C225.488 72.417 225.76 73 227.046 73C228.082 73 228.609 72.6399 228.609 71.9254V69.0447C228.609 68.3302 228.082 67.9702 227.046 67.9702ZM228.043 69.119V71.8454C228.043 72.2855 227.714 72.497 227.04 72.497C226.366 72.497 226.049 72.2855 226.049 71.8454V69.119C226.049 68.6789 226.371 68.4674 227.04 68.4674C227.709 68.4674 228.043 68.6789 228.043 69.119Z" fill="#094752"/>
<path d="M232.853 70.7195H231.04V71.2396H232.853V70.7195Z" fill="#094752"/>
<path d="M237.634 70.365C238.008 70.2107 238.195 69.9364 238.195 69.5305V69.0619C238.195 68.376 237.668 68.033 236.637 68.033H235.289V72.9486H236.824C237.861 72.9486 238.388 72.5942 238.388 71.8911V71.2567C238.388 70.8166 238.127 70.5136 237.629 70.3708L237.634 70.365ZM237.634 69.5191C237.634 69.9592 237.323 70.1764 236.705 70.1764H235.85V68.5074H236.637C237.328 68.5074 237.64 68.7018 237.64 69.1304V69.5134L237.634 69.5191ZM235.85 70.6451H236.83C237.493 70.6451 237.833 70.8566 237.833 71.2738V71.7997C237.833 72.2398 237.504 72.4513 236.83 72.4513H235.85V70.6394V70.6451Z" fill="#094752"/>
<path d="M241.447 68.0273H240.886V72.9429H241.447V68.0273Z" fill="#094752"/>
<path d="M244.801 68.0273H244.235V72.9371H246.88V72.4399H244.801V68.0273Z" fill="#094752"/>
<path d="M251.583 70.365C251.956 70.2107 252.143 69.9364 252.143 69.5305V69.0619C252.143 68.376 251.617 68.033 250.585 68.033H249.237V72.9486H250.772C251.809 72.9486 252.336 72.5942 252.336 71.8911V71.2567C252.336 70.8166 252.075 70.5136 251.577 70.3708L251.583 70.365ZM251.588 69.5191C251.588 69.9592 251.277 70.1764 250.659 70.1764H249.798V68.5074H250.585C251.277 68.5074 251.583 68.7018 251.583 69.1304V69.5134L251.588 69.5191ZM249.798 70.6451H250.778C251.441 70.6451 251.775 70.8566 251.775 71.2738V71.7997C251.775 72.2398 251.447 72.4513 250.778 72.4513H249.798V70.6394V70.6451Z" fill="#094752"/>
<path d="M256.342 68.0273H255.707L254.279 72.8971L254.268 72.9371H254.812L255.214 71.5596H256.812L257.214 72.9143V72.9371H257.798L256.342 68.0502V68.0273ZM256.676 71.0909H255.356L256.013 68.8504L256.676 71.0909Z" fill="#094752"/>
<path d="M261.423 67.9702C260.137 67.9702 259.865 68.5532 259.865 69.0447V71.9254C259.865 72.417 260.137 73 261.423 73C262.137 73 262.987 72.8114 262.987 71.9254V69.0447C262.987 68.3302 262.46 67.9702 261.423 67.9702ZM262.42 69.119V71.8454C262.42 72.2855 262.092 72.497 261.423 72.497C260.755 72.497 260.432 72.2798 260.432 71.8454V69.119C260.432 68.6789 260.755 68.4674 261.423 68.4674C262.092 68.4674 262.42 68.6789 262.42 69.119Z" fill="#094752"/>
<line x1="148" y1="19.9846" x2="148.923" y2="79.9775" stroke="#094752" stroke-width="2"/>
</svg>
