<svg width="287" height="103" viewBox="0 0 287 103" fill="none" xmlns="http://www.w3.org/2000/svg">
<path d="M26.311 29L26.0667 33.1056L26.4896 33.1936L28.1812 29.8385L30.3962 29.5544V40.103L28.5278 40.4503V41.0091H34.2861V40.4503L32.4209 40.103V29.5544L34.6365 29.8385L36.3288 33.1936L36.7467 33.1056L36.5074 29H26.311Z" fill="#094752"/>
<path d="M45.7605 29.5544L47.2631 29.9086V34.5531H41.4806V29.9086L42.9874 29.5544V29H37.8182V29.5544L39.4597 29.9086V40.103L37.8182 40.4503V41.0091H42.9874V40.4503L41.4806 40.103V35.3549H47.2631V40.103L45.7605 40.4503V41.0091H50.9235V40.4503L49.284 40.103V29.9086L50.9235 29.5544V29H45.7605V29.5544Z" fill="#094752"/>
<path d="M60.7014 40.139L55.7617 40.3976V35.1801L57.9643 35.3035L58.6811 36.9265H59.0978V32.6646H58.6811L57.9643 34.4352L55.7617 34.5686V29.5544L59.8277 29.8726L61.5596 32.4575L61.9236 32.3688L61.5032 29H52.103V29.5544L53.7407 29.9086V40.103L52.103 40.4503V41.0091H62.3776L62.7943 37.6403L62.4327 37.5497L60.7014 40.139Z" fill="#094752"/>
<path d="M74.2822 52.754L72.2663 56.3219L68.0384 56.6481V51.2346L69.6476 51.4119L70.5232 53.5094H71.4198V47.5209H70.5232L69.6476 49.7852L68.0384 49.9874V44.8151L71.733 45.2145L73.9244 48.7675L74.5117 48.6707L74.4348 43.7552H53.8473V44.6098L55.6797 45.2182V58.6469C55.6797 59.8085 54.9002 60.0063 53.926 60.0063C53.5943 60.0063 53.35 59.9691 53.1887 59.9077V59.8482C53.7381 59.6417 54.3074 59.1548 54.3074 58.2605C54.3074 57.3662 53.6371 56.5048 52.5568 56.5048C52.4694 56.5048 52.3845 56.5197 52.2964 56.5271C53.1484 55.8946 53.6154 55.0257 53.6154 53.936C53.6154 51.5757 51.7011 50.5362 49.5816 50.3316V50.2293C51.37 49.9024 52.8377 48.9442 52.8377 47.1724C52.8377 44.6694 50.0293 43.754 47.095 43.754H39.8013V44.6086L41.3335 45.217V56.2989L39.8013 56.9129V57.7644H47.2983C48.8598 57.7644 50.1856 57.5492 51.2137 57.1306C50.9005 57.4841 50.704 57.9635 50.704 58.4987C50.704 60.2339 52.3627 61.478 55.0125 61.478C57.86 61.478 60.2846 60.2395 60.2846 56.5265V45.217L61.9087 44.6086L63.4366 45.217V56.2989L61.9087 56.9129V57.7644L74.942 57.7495L74.8782 52.8476L74.2835 52.7521L74.2822 52.754ZM45.7512 45.3237H46.362C47.8905 45.3237 48.5627 45.6096 48.5627 47.5445C48.5627 49.1098 47.9699 49.6624 46.4073 49.6624H45.7512V45.3237ZM46.7278 56.1997H45.7512V51.087H46.6677C48.2589 51.087 49.1103 51.9025 49.1103 53.6737C49.1103 55.6707 48.4214 56.1997 46.7278 56.1997Z" fill="#094752"/>
<path d="M138.641 51.8604L135.833 56.3411L131.864 56.6475V51.234L133.471 51.4114L134.35 53.5088H135.244V47.5204H134.35L133.471 49.7846L131.864 49.9868V44.8145L135.285 45.1767L137.911 49.0076L138.542 48.9102L138.252 43.7553H120.504V44.6099L122.384 45.2183L119.508 54.1438L116.108 45.2183L117.574 44.6099V43.7553H87.3745L87.2511 45.5488L87.209 46.1051L87.0484 45.3473C85.9018 44.2576 84.256 43.6933 82.4087 43.6933C78.0103 43.6933 75.1262 46.5213 75.1262 50.6479C75.1262 57.068 80.6272 58.7462 84.013 57.9641C86.0159 57.4947 87.5507 56.2996 88.4436 54.573L87.3621 53.8958C86.6751 55.0884 85.6246 56.0434 84.3236 56.3449C82.583 56.7473 80.0964 56.2041 80.0964 51.0343C80.0964 46.2478 81.3149 45.2505 83.298 45.2505C84.7124 45.2505 86.8754 46.2478 86.9802 49.0076L87.6623 49.0826L89.7161 45.1389L91.9292 44.7761V56.2996L90.0559 56.9136V57.7651H98.4037V56.9136L96.5292 56.2996V44.7761L98.7832 45.1389L100.807 49.0826L101.458 49.01L101.183 44.6099L103.318 45.2183V56.3002L101.529 56.9142V57.7657H109.713V56.9142L107.919 56.3002V45.2183L109.713 44.6099L110.994 45.2183L116.434 57.971H119.448L124.48 45.2183L125.853 44.6099L127.261 45.2183V56.3002L125.734 56.9142V57.7657H138.907L139.315 51.9608L138.64 51.8604H138.641Z" fill="#094752"/>
<path d="M32.4958 43.6263C28.3827 43.6263 25 46.9858 25 50.855C25 54.7243 28.2804 57.9709 32.4958 57.9709C36.7113 57.9709 39.9762 54.715 39.9762 50.855C39.9762 46.9951 36.591 43.6263 32.4958 43.6263ZM32.4878 54.8074C30.2678 54.8074 28.4751 53.012 28.4751 50.7974C28.4751 48.5827 30.2678 46.7879 32.4878 46.7879C34.7078 46.7879 36.4955 48.5796 36.4955 50.7974C36.4955 53.0151 34.6953 54.8074 32.4878 54.8074Z" fill="#094752"/>
<path d="M91.835 62.1882C91.9162 61.9692 91.9757 61.7026 91.9757 61.5208C91.9757 61.1401 91.5088 60.9583 90.9228 60.9583H90.1997C90.018 60.9583 89.9337 60.879 89.956 60.7568L90.0398 60.4144C90.0782 60.2737 90.1191 60.2092 90.2599 60.2092C90.4639 60.2092 91.2855 60.2737 94.2149 60.2737C94.5386 60.2737 94.5771 60.3946 94.6192 60.7382L95.5891 70.4855C95.6486 71.0095 95.8297 71.0095 96.092 70.6461L103.218 60.5968C103.356 60.3952 103.482 60.2743 103.742 60.2743C105.985 60.2743 106.626 60.2098 106.891 60.2098C107.028 60.2098 107.093 60.2743 107.072 60.3717L106.99 60.799C106.97 60.9186 106.928 60.9596 106.786 60.9596H106.182C105.699 60.9596 105.438 61.465 105.153 62.4536L102.551 71.861C102.328 72.7274 102.632 73.1119 103.159 73.1119H103.783C103.903 73.1119 103.942 73.1702 103.922 73.2725L103.841 73.6943C103.822 73.8164 103.801 73.8586 103.6 73.8586C103.356 73.8586 102.692 73.7941 101.262 73.7941C99.6235 73.7941 98.8353 73.8586 98.6338 73.8586C98.4496 73.8586 98.436 73.7941 98.4496 73.6521L98.4955 73.3135C98.5079 73.1913 98.555 73.1119 98.7144 73.1119H99.2396C100.25 73.1119 100.671 72.5432 100.915 71.6787L103.62 61.9277C103.699 61.6027 103.436 61.6027 103.298 61.808L95.0229 73.4921C94.7141 73.938 94.2546 73.938 94.2137 73.3513L93.0659 61.9885C93.0237 61.6027 92.8408 61.6027 92.7409 61.8874L89.4308 71.6781C89.0277 72.8459 89.4308 73.1113 89.8742 73.1113H90.5823C90.7206 73.1113 90.7417 73.1696 90.7206 73.3129L90.6611 73.6936C90.6425 73.7935 90.583 73.858 90.4199 73.858C90.1997 73.858 89.5722 73.7935 88.3419 73.7935C87.2115 73.7935 86.6068 73.858 86.3836 73.858C86.2813 73.858 86.2441 73.7935 86.2602 73.6936L86.3421 73.2719C86.3619 73.1485 86.383 73.1113 86.4853 73.1113H86.8847C87.9767 73.1113 88.2427 72.5277 88.5193 71.7171L91.8343 62.1894L91.835 62.1882Z" fill="#094752"/>
<path d="M106.623 72.0198C106.623 70.3242 107.729 68.2051 109.211 66.7495C109.855 66.1021 110.942 65.3963 111.912 65.3963C112.699 65.3963 113.06 65.9817 113.06 66.4735C113.06 67.4559 112.315 68.5065 111.187 69.0957C110.093 69.6358 109.003 69.8566 108.258 69.9223C108.157 70.1605 107.994 70.8278 107.994 71.7773C107.994 72.7268 108.665 73.0486 109.047 73.0486C110.034 73.0486 110.922 72.2989 111.345 71.6167C111.389 71.5546 111.448 71.5168 111.528 71.5956L111.751 71.7773C111.851 71.8368 111.851 71.8982 111.769 71.9602C111.264 72.666 110.053 73.9994 108.499 73.9994C107.189 73.9994 106.622 73.3507 106.622 72.0198H106.623ZM108.421 69.3307C109.125 69.3964 111.77 68.5499 111.77 67.0534C111.77 66.6478 111.571 66.285 111.124 66.285C109.829 66.285 108.583 68.6094 108.421 69.3301V69.3307Z" fill="#094752"/>
<path d="M121.598 60.8523C121.44 60.8523 121.419 60.776 121.44 60.7177L121.56 60.2916C121.577 60.2085 121.619 60.1719 121.8 60.1719H124.285C124.565 60.1719 124.608 60.3698 124.526 60.5403C124.224 61.2374 120.691 70.6858 120.351 71.897C120.167 72.5258 120.147 72.826 120.429 72.826C120.769 72.826 121.739 71.897 121.839 71.7767C121.921 71.7159 122 71.7159 122.06 71.7965L122.264 71.9993C122.321 72.0378 122.321 72.1202 122.264 72.1984C122.119 72.3813 120.384 73.9988 119.319 73.9988C118.994 73.9988 118.772 73.8939 118.772 73.5318C118.772 73.1286 119.21 71.7525 119.66 70.6033L119.502 70.5648C118.51 72.1407 116.613 73.9988 115.241 73.9988C114.553 73.9988 113.952 73.5318 113.952 72.6654C113.952 71.0703 115.078 68.6677 116.732 67.0342C117.381 66.4078 118.551 65.3957 119.904 65.3957C120.448 65.3957 120.832 65.6611 121.175 66.0617L122.729 61.6405C122.871 61.256 122.766 60.851 122.226 60.851H121.597L121.598 60.8523ZM119.21 70.202C119.781 69.4336 120.527 68.1654 120.527 67.3759C120.527 66.4245 120.101 66.0425 119.459 66.0425C117.56 66.0425 115.421 70.4631 115.421 72.3212C115.421 72.7472 115.728 72.9699 116.007 72.9699C116.857 72.9699 118.408 71.3153 119.21 70.202Z" fill="#094752"/>
<path d="M124.643 73.4915C124.643 73.027 124.988 72.1035 125.833 69.8399L126.416 68.2677C126.622 67.7226 126.783 67.3164 126.783 67.0727C126.783 66.8934 126.66 66.8097 126.498 66.8097C126.157 66.8097 125.208 67.9031 124.883 68.228C124.802 68.3068 124.723 68.3068 124.666 68.2442L124.502 68.0625C124.417 68.0048 124.381 67.9614 124.441 67.8807C124.525 67.7635 126.579 65.3374 127.874 65.3969C128.114 65.3969 128.354 65.5625 128.354 65.9024C128.354 66.2683 128.03 67.1762 127.669 68.1431L126.499 71.2129C126.216 71.9603 126.137 72.4055 126.137 72.5414C126.137 72.7256 126.195 72.8452 126.357 72.8862C126.783 72.8093 127.874 71.6564 127.972 71.4759C128.014 71.4126 128.093 71.4126 128.195 71.5168L128.354 71.6564C128.44 71.7537 128.46 71.7972 128.393 71.8976C128.275 72.057 126.661 73.9994 124.988 73.9994C124.785 73.9808 124.643 73.8152 124.643 73.4915ZM127.185 61.7261C127.185 61.1797 127.61 60.7177 128.237 60.7177C128.939 60.7177 129.306 61.2219 129.306 61.6852C129.306 61.9878 129.062 62.6936 128.237 62.6936C127.351 62.6936 127.185 61.9481 127.185 61.7261Z" fill="#094752"/>
<path d="M138.528 65.3963C138.61 65.3963 138.628 65.4999 138.587 65.5805C138.206 66.4084 137.176 69.1924 137.072 69.5174C136.953 69.856 136.106 72.3621 136.106 72.5413C136.106 72.7206 136.207 72.7851 136.328 72.7851C136.57 72.7851 137.598 71.737 137.739 71.554C137.801 71.4957 137.865 71.4542 137.902 71.5168L138.082 71.7159C138.146 71.7767 138.166 71.8176 138.125 71.8778C137.902 72.2852 136.146 73.9994 134.995 73.9994C134.754 73.9994 134.573 73.9181 134.573 73.6508C134.573 73.3507 134.777 72.7262 135.538 70.5872L135.441 70.545C134.591 71.8374 132.553 74 131.121 74C130.657 74 130.032 73.6167 130.032 72.71C130.032 69.7592 133.338 65.3969 135.804 65.3969C136.652 65.3969 137.036 65.7591 137.238 66.0841L137.62 65.5389C137.684 65.4565 137.739 65.3969 137.822 65.3969H138.528L138.528 65.3963ZM135.986 68.9121C136.269 68.3273 136.47 67.8187 136.47 67.2351C136.47 66.69 136.269 66.0425 135.519 66.0425C133.664 66.0425 131.502 70.3007 131.502 72.2201C131.502 72.6834 131.706 72.9246 132.044 72.9246C133.058 72.9246 135.623 69.6563 135.986 68.9121Z" fill="#094752"/>
<path d="M169.766 31.0005V30.1946C169.766 29.4744 169.15 29.0629 168.076 29.0629H166.443V33.8469H167.34V32.1265H168.076C169.15 32.1265 169.766 31.715 169.766 30.9948V31.0005ZM167.34 29.8002H168.076C168.596 29.8002 168.876 30.0002 168.876 30.3661V30.8347C168.876 31.1891 168.584 31.3949 168.076 31.3949H167.34V29.8002Z" fill="#094752"/>
<path d="M182.688 32.801L182.974 33.8469H183.887L182.546 29.0629H181.472L180.136 33.8469H180.992L181.272 32.801H182.688ZM181.466 32.0694L181.98 30.1203L182.506 32.1094H181.455L181.466 32.0694Z" fill="#094752"/>
<path d="M194.782 29.0629V33.8469H197.443V33.1153H195.679V29.0629H194.782Z" fill="#094752"/>
<path d="M210.473 32.801L210.759 33.8469H211.672L210.33 29.0629H209.257L207.921 33.8469H208.777L209.057 32.801H210.473ZM209.246 32.0694L209.759 30.1203L210.285 32.1094H209.234L209.246 32.0694Z" fill="#094752"/>
<path d="M225.673 32.2694H224.806V32.6009C224.806 32.8581 224.674 33.1668 224.046 33.1668C223.549 33.1668 223.292 32.9782 223.292 32.6009V30.3032C223.292 29.9259 223.544 29.7373 224.046 29.7373C224.674 29.7373 224.806 30.046 224.806 30.3032V30.5318H225.673V30.1317C225.673 29.6173 225.388 29 224.035 29C222.681 29 222.396 29.6116 222.396 30.1317V32.7667C222.396 33.2811 222.681 33.8984 224.035 33.8984C225.388 33.8984 225.673 33.2868 225.673 32.7667V32.2637V32.2694Z" fill="#094752"/>
<path d="M237.67 29.0629H236.774V33.8469H237.67V29.0629Z" fill="#094752"/>
<path d="M248.907 30.1374V32.7724C248.907 33.4926 249.524 33.9041 250.603 33.9041C251.683 33.9041 252.299 33.4926 252.299 32.7724V30.1374C252.299 29.4172 251.683 29.0057 250.603 29.0057C249.524 29.0057 248.907 29.4172 248.907 30.1374ZM251.403 30.3089V32.6066C251.403 32.9724 251.117 33.1725 250.603 33.1725C250.089 33.1725 249.81 32.9724 249.81 32.6066V30.3089C249.81 29.9431 250.089 29.743 250.603 29.743C251.117 29.743 251.403 29.9431 251.403 30.3089Z" fill="#094752"/>
<path d="M193.406 48.6565L191.384 48.0849C195.05 47.982 195.227 46.1873 195.227 45.4271V44.5983C195.227 43.7924 194.845 41.9233 191.316 41.9233H187.53V52.8232H189.883V48.102H190.659L192.823 52.8232H195.421L193.406 48.6622V48.6565ZM189.883 42.392H191.316C192.041 42.392 192.909 42.5749 192.909 43.4494V46.5702C192.909 47.4447 192.041 47.6276 191.316 47.6276H189.883V42.3863V42.392Z" fill="#094752"/>
<path d="M178.308 48.6565L176.287 48.0849C179.953 47.982 180.13 46.1873 180.13 45.4271V44.5983C180.13 43.7924 179.747 41.9233 176.218 41.9233H172.433V52.8232H174.785V48.102H175.562L177.726 52.8232H180.324L178.308 48.6622V48.6565ZM174.791 42.392H176.224C176.949 42.392 177.817 42.5749 177.817 43.4494V46.5702C177.817 47.4447 176.949 47.6276 176.224 47.6276H174.791V42.3863V42.392Z" fill="#094752"/>
<path d="M204.974 41.9233H202.622V52.8232H204.974V41.9233Z" fill="#094752"/>
<path d="M215.178 52.3545V41.9233H212.825V52.8232H219.061V52.3545H215.178Z" fill="#094752"/>
<path d="M232.177 41.9233V50.274C232.177 51.6972 231.132 52.4803 229.236 52.4803C228.522 52.4803 227.677 52.2974 227.677 51.4229V41.9233H225.325V50.274C225.325 51.0799 225.707 52.949 229.236 52.949C232.342 52.949 232.674 51.0799 232.674 50.274V41.9233H232.171H232.177Z" fill="#094752"/>
<path d="M247.914 45.73V44.4668C247.914 43.4665 247.422 41.7918 244.116 41.7918C240.81 41.7918 240.319 43.4665 240.319 44.4668V50.2683C240.319 51.2685 240.81 52.9432 244.116 52.9432C247.422 52.9432 247.914 51.2685 247.914 50.2683V48.7879H245.624V51.4171C245.624 52.1316 245.138 52.4746 244.145 52.4746C243.151 52.4746 242.666 52.1259 242.666 51.4171V43.3237C242.666 42.6092 243.151 42.2662 244.145 42.2662C245.138 42.2662 245.624 42.6149 245.624 43.3237V45.73H247.914Z" fill="#094752"/>
<path d="M162.235 41.9233H160.322L158.255 48.5307C156.684 48.2963 155.468 46.9417 155.468 45.3013C155.468 43.5008 156.936 42.0319 158.734 42.0319C158.923 42.0319 159.1 42.049 159.277 42.0776L159.42 41.6261C159.197 41.5861 158.968 41.5632 158.734 41.5632C156.673 41.5632 155 43.2379 155 45.3013C155 47.1532 156.348 48.685 158.112 48.9822L156.913 52.8175H157.41L158.586 49.0394H161.983L163.114 52.8175H165.604L162.24 41.9176L162.235 41.9233ZM158.734 48.5707L160.31 43.518L161.829 48.5707H158.729H158.734Z" fill="#094752"/>
<path d="M257.643 52.3545V46.7817C258.123 46.7817 258.466 47.1189 258.837 47.4733C259.242 47.862 259.653 48.2621 260.282 48.2621C261.218 48.2621 261.783 47.6219 261.783 46.5473V46.5245H261.315V46.5473C261.315 47.3361 260.938 47.7877 260.287 47.7877C259.808 47.7877 259.465 47.4504 259.094 47.0961C258.688 46.7074 258.277 46.3073 257.649 46.3073V42.3863H261.663V41.9176H255.302V52.8175H261.835V52.3488H257.649L257.643 52.3545Z" fill="#094752"/>
<path d="M209.366 59.2837L207.706 60.9448L209.366 62.6059L211.025 60.9448L209.366 59.2837Z" fill="#094752"/>
<path d="M206.813 60.8023H189.86V61.111H206.813V60.8023Z" fill="#094752"/>
<path d="M228.882 60.8023H211.929V61.111H228.882V60.8023Z" fill="#094752"/>
<path d="M182.146 68.9702C181.129 68.9702 180.61 69.3302 180.61 70.0447V72.9254C180.61 73.6399 181.124 74 182.146 74C183.168 74 183.682 73.6399 183.682 72.9254V71.5479H182.117V72.0452H183.128V72.8569C183.128 73.297 182.819 73.5027 182.157 73.5027C181.289 73.5027 181.186 73.1312 181.186 72.8511V70.1247C181.186 69.8447 181.289 69.4731 182.157 69.4731C182.819 69.4731 183.128 69.6789 183.128 70.1247V70.4791H183.682V70.0447C183.682 69.3302 183.168 68.9702 182.146 68.9702Z" fill="#094752"/>
<path d="M187.079 71.6108H189.089V71.125H187.079V69.5246H189.22V69.0273H186.52V73.9371H189.306V73.4399H187.079V71.6108Z" fill="#094752"/>
<path d="M191.63 69.5246H192.966V73.9371H193.537V69.5246H194.873V69.0273H191.63V69.5246Z" fill="#094752"/>
<path d="M200.503 69.0273H199.904L198.802 70.9535L197.677 69.0445L197.665 69.0273H197.037L198.442 71.4394L197.032 73.8914L197.003 73.9371H197.608L198.745 71.9538L199.915 73.9257L199.927 73.9371H200.566L199.099 71.4451L200.503 69.0273Z" fill="#094752"/>
<path d="M204.432 68.9702C203.136 68.9702 202.862 69.5532 202.862 70.0447V72.9254C202.862 73.417 203.136 74 204.432 74C205.477 74 206.008 73.6399 206.008 72.9254V70.0447C206.008 69.3302 205.477 68.9702 204.432 68.9702ZM205.437 70.119V72.8454C205.437 73.2855 205.106 73.497 204.426 73.497C203.747 73.497 203.427 73.2855 203.427 72.8454V70.119C203.427 69.6789 203.752 69.4674 204.426 69.4674C205.1 69.4674 205.437 69.6789 205.437 70.119Z" fill="#094752"/>
<path d="M210.285 71.7195H208.458V72.2396H210.285V71.7195Z" fill="#094752"/>
<path d="M215.104 71.365C215.481 71.2107 215.669 70.9364 215.669 70.5305V70.0619C215.669 69.376 215.138 69.033 214.099 69.033H212.74V73.9486H214.287C215.332 73.9486 215.863 73.5942 215.863 72.8911V72.2567C215.863 71.8166 215.601 71.5136 215.098 71.3708L215.104 71.365ZM215.104 70.5191C215.104 70.9592 214.79 71.1764 214.167 71.1764H213.305V69.5074H214.099C214.796 69.5074 215.11 69.7018 215.11 70.1304V70.5134L215.104 70.5191ZM213.305 71.6451H214.293C214.961 71.6451 215.304 71.8566 215.304 72.2738V72.7997C215.304 73.2398 214.973 73.4513 214.293 73.4513H213.305V71.6394V71.6451Z" fill="#094752"/>
<path d="M218.947 69.0273H218.381V73.9429H218.947V69.0273Z" fill="#094752"/>
<path d="M222.327 69.0273H221.756V73.9371H224.423V73.4399H222.327V69.0273Z" fill="#094752"/>
<path d="M229.162 71.365C229.539 71.2107 229.727 70.9364 229.727 70.5305V70.0619C229.727 69.376 229.196 69.033 228.157 69.033H226.798V73.9486H228.345C229.39 73.9486 229.921 73.5942 229.921 72.8911V72.2567C229.921 71.8166 229.659 71.5136 229.156 71.3708L229.162 71.365ZM229.168 70.5191C229.168 70.9592 228.854 71.1764 228.231 71.1764H227.363V69.5074H228.157C228.854 69.5074 229.162 69.7018 229.162 70.1304V70.5134L229.168 70.5191ZM227.363 71.6451H228.351C229.019 71.6451 229.356 71.8566 229.356 72.2738V72.7997C229.356 73.2398 229.025 73.4513 228.351 73.4513H227.363V71.6394V71.6451Z" fill="#094752"/>
<path d="M233.959 69.0273H233.319L231.88 73.8971L231.869 73.9371H232.417L232.822 72.5596H234.432L234.838 73.9143V73.9371H235.426L233.959 69.0502V69.0273ZM234.295 72.0909H232.965L233.627 69.8504L234.295 72.0909Z" fill="#094752"/>
<path d="M239.08 68.9702C237.784 68.9702 237.51 69.5532 237.51 70.0447V72.9254C237.51 73.417 237.784 74 239.08 74C239.8 74 240.656 73.8114 240.656 72.9254V70.0447C240.656 69.3302 240.125 68.9702 239.08 68.9702ZM240.085 70.119V72.8454C240.085 73.2855 239.754 73.497 239.08 73.497C238.406 73.497 238.081 73.2798 238.081 72.8454V70.119C238.081 69.6789 238.406 69.4674 239.08 69.4674C239.754 69.4674 240.085 69.6789 240.085 70.119Z" fill="#094752"/>
</svg>
