<svg width="287" height="103" viewBox="0 0 287 103" fill="none" xmlns="http://www.w3.org/2000/svg">
<path d="M111.804 55.9944C105.869 55.9944 99.9347 55.9944 94 55.9944V47.7469H111.804V29.6428H119.91V47.7524H137.714V55.9999C131.779 55.9999 125.845 55.9999 119.91 55.9999C119.91 55.9508 119.84 55.8199 119.84 55.6889C119.824 53.0434 119.862 50.3979 119.84 47.7578H111.874C111.858 50.4034 111.895 53.0489 111.874 55.6889C111.874 55.8199 111.804 55.9508 111.804 55.9999V55.9944Z" fill="#094752"/>
<path d="M119.7 56C119.745 61.919 119.667 67.8379 119.7 73.757L119.59 74H111.478L111.368 73.757C111.407 67.8379 111.33 61.9136 111.368 56C114.144 56 116.919 56 119.695 56H119.7Z" fill="#094752"/>
<path d="M193 47.6428H185.119C184.767 46.7464 184.517 45.823 184.116 44.9428C182.398 41.1843 179.059 38.1655 175.156 36.7777C166.321 33.6294 156.288 38.5273 153.985 47.6428H146.071C146.966 42.0321 150.229 36.9613 154.803 33.6348C163.535 27.2842 176.441 27.4624 184.935 34.1532C189.141 37.4635 192.144 42.3399 192.995 47.6428H193Z" fill="#094752"/>
<path d="M185.016 56H193C191.997 61.5824 188.577 66.5805 183.775 69.8047C175.124 75.6115 162.766 75.3819 154.413 69.1682C150.061 65.9283 147.058 61.2276 146.071 56H153.952C154.169 56.3913 154.261 56.8713 154.424 57.2991C157.253 64.5719 165.254 68.7404 173.178 67.024C178.885 65.7875 183.579 61.4728 185.016 56.0052V56Z" fill="#094752"/>
</svg>
