<svg width="287" height="103" viewBox="0 0 287 103" fill="none" xmlns="http://www.w3.org/2000/svg">
<path d="M206.051 23.0213V71.851H230.107V71.8463L230.112 71.8111H206.099V23.0706H273.915V71.8111H250.405L250.408 71.8463V71.851H273.961V23.0213H206.053H206.051Z" fill="#094752"/>
<path fill-rule="evenodd" clip-rule="evenodd" d="M253.417 31.2477C254.264 31.2477 254.994 30.5857 254.994 29.6818C254.994 28.7779 254.264 28.1323 253.417 28.1323C252.571 28.1323 251.82 28.792 251.82 29.6818C251.82 30.5716 252.549 31.2477 253.417 31.2477ZM252.137 29.6795C252.137 28.947 252.688 28.3859 253.417 28.3859C254.147 28.3859 254.674 28.947 254.674 29.6795C254.674 30.4119 254.121 30.9871 253.417 30.9871C252.714 30.9871 252.137 30.4331 252.137 29.6795ZM253.076 29.8062H253.394L253.866 30.5857H254.181L253.668 29.7945C253.933 29.7593 254.123 29.6208 254.123 29.2991C254.123 28.947 253.918 28.7897 253.491 28.7897H252.807V30.5857H253.076V29.8062ZM253.076 29.5738V29.0221H253.453C253.644 29.0221 253.849 29.0597 253.849 29.2874C253.849 29.5597 253.637 29.5738 253.408 29.5738H253.076Z" fill="#094752"/>
<path d="M216.099 28.468C215.34 28.7638 214.47 29.4564 214.47 30.5668V33.5085C214.47 34.032 214.625 34.4804 215.116 35.0204C215.653 35.605 218.653 38.3306 218.743 38.3964C219.123 38.7063 219.304 39.2181 219.304 39.697L219.316 44.4699C219.316 44.7821 219.135 44.984 218.836 45.1108C218.295 45.3362 217.589 45.3103 217.041 45.1178C216.797 45.0404 216.564 44.8032 216.564 44.4699L216.568 40.7676H214.501L214.486 44.3431C214.52 45.3362 215.009 45.8667 215.619 46.2447C216.902 47.0359 220.201 46.8504 221.26 46.3527C222.163 45.9301 222.607 45.092 222.607 44.3666L222.597 38.6241C222.597 38.0372 222.292 37.4268 221.934 37.0958C221.62 36.8117 218.624 34.0226 218.348 33.7644C218.045 33.4827 217.773 33.0789 217.773 32.4966V30.2053C217.773 30.0034 217.897 29.7076 218.25 29.5456C218.724 29.3296 219.616 29.3625 220.05 29.5456C220.37 29.6771 220.539 29.9001 220.539 30.2194L220.525 33.2338H222.607V28.1229H220.52V28.5267C219.008 27.9374 217.196 28.0384 216.099 28.4656" fill="#094752"/>
<path fill-rule="evenodd" clip-rule="evenodd" d="M225.712 28.191C224.873 28.3835 224.131 29.0174 224.131 30.0175V44.7258C224.131 45.5123 224.758 46.3293 225.734 46.5382C227.723 46.9725 229.95 47.0711 231.939 46.5523C232.883 46.3105 233.515 45.6696 233.515 44.7234V30.0152C233.518 29.1629 232.912 28.4117 231.937 28.184C230.398 27.8224 227.813 27.6933 225.714 28.1886M229.602 29.5832C229.907 29.6513 230.215 29.8626 230.215 30.2664L230.21 44.4582C230.21 44.9042 229.869 45.0826 229.602 45.1484C229.189 45.254 228.486 45.2517 228.049 45.146C227.646 45.0427 227.439 44.7892 227.439 44.4582V30.2593C227.439 29.8508 227.761 29.6489 228.059 29.5808C228.498 29.4775 229.144 29.4822 229.602 29.5808" fill="#094752"/>
<path d="M234.555 28.1252V29.5221C234.82 29.5221 235.072 29.6935 235.072 29.9846V44.7398C235.072 45.0122 234.832 45.207 234.56 45.207V46.6156H242.628V40.6924H241.223C241.209 42.1362 240.4 45.2188 238.905 45.2188H238.371V29.9799C238.371 29.724 238.612 29.5197 238.895 29.5197V28.1229H234.552L234.555 28.1252Z" fill="#094752"/>
<path d="M255.924 28.1252V29.5127C256.184 29.5127 256.434 29.7029 256.434 29.9799V44.7446C256.434 45.0052 256.215 45.2118 255.924 45.2118V46.6157H259.02V45.2071C258.743 45.2071 258.505 45.0169 258.505 44.7446V35.166L262.268 46.618H265.022V29.9846C265.022 29.7498 265.223 29.5221 265.533 29.5221L265.542 28.1252H262.444V29.5221C262.716 29.5221 262.957 29.7146 262.957 29.9846V38.1898L259.656 28.1252H255.926H255.924Z" fill="#094752"/>
<path fill-rule="evenodd" clip-rule="evenodd" d="M247.026 29.5127C247.369 29.5127 247.567 29.8297 247.536 29.9799C247.491 30.1818 243.31 46.6157 243.31 46.6157H245.502C245.502 46.6157 245.86 44.8573 245.917 44.6483C245.964 44.4957 246.689 41.6315 246.689 41.6315H249.94C249.94 41.6315 250.563 44.0684 250.701 44.646C250.765 44.9418 251.183 46.6157 251.183 46.6157H254.877V45.2071H254.61C254.316 45.2071 254.126 44.9864 254.111 44.8596L249.935 28.1252H247.021V29.5127H247.026ZM248.335 35.2223L249.62 40.3309H247.014L248.335 35.2223Z" fill="#094752"/>
<path fill-rule="evenodd" clip-rule="evenodd" d="M214.47 48.2004V48.9845C214.637 48.9845 214.765 49.1136 214.765 49.2427V57.4292C214.765 57.5677 214.634 57.6851 214.47 57.6851V58.4668H218.701C219.287 58.4668 219.864 58.0583 219.864 57.401V49.231C219.862 48.7521 219.452 48.2004 218.703 48.2004H214.47ZM216.592 48.9845H217.599C217.832 48.9845 218.028 49.1465 218.028 49.3672V57.3024C218.028 57.5395 217.806 57.6827 217.603 57.6827H216.59V48.9845H216.592Z" fill="#094752"/>
<path d="M220.646 48.9775C220.802 48.9775 220.942 49.0831 220.942 49.231V57.4268C220.942 57.5865 220.782 57.6851 220.654 57.6851V58.4669H225.285V55.1378H224.565L223.733 57.6968H222.771V53.5156H223.275C223.723 53.5297 224.016 53.8255 224.016 54.1823V54.5509H224.782V51.6421H224.016V52.0295C224.016 52.3887 223.687 52.6868 223.275 52.6868H222.769V48.9822H223.723L224.515 50.9542H225.276L224.782 48.1981H220.646V48.9751V48.9775Z" fill="#094752"/>
<path d="M261.917 48.3976C261.488 48.5596 261.011 48.9469 261.011 49.562V51.2007C261.011 51.4895 261.094 51.7336 261.369 52.0388C261.664 52.3581 263.336 53.8747 263.382 53.9146C263.591 54.079 263.692 54.3678 263.692 54.6307L263.701 57.2812C263.701 57.455 263.603 57.563 263.434 57.6381C263.129 57.7555 262.74 57.7461 262.442 57.6381C262.296 57.5935 262.172 57.462 262.172 57.2812V55.2223H261.023L261.018 57.2085C261.035 57.7625 261.307 58.0536 261.645 58.2649C262.354 58.7039 264.192 58.603 264.784 58.326C265.278 58.0912 265.521 57.6287 265.521 57.2225V54.0391C265.521 53.7151 265.351 53.3747 265.146 53.1939C264.977 53.0343 263.315 51.4824 263.157 51.3463C262.986 51.189 262.84 50.9612 262.84 50.6373V49.3695C262.84 49.2521 262.909 49.0878 263.11 48.9986C263.37 48.8812 263.856 48.8976 264.109 48.9986C264.283 49.0714 264.374 49.1981 264.374 49.3742V51.0505H265.521V48.2051H264.371V48.4351C263.529 48.1065 262.521 48.1581 261.917 48.4023" fill="#094752"/>
<path fill-rule="evenodd" clip-rule="evenodd" d="M241.791 48.9845C241.918 48.9845 242.075 49.0526 242.075 49.2428V57.4268C242.075 57.6264 241.901 57.6827 241.791 57.6827V58.4669H246.02C246.583 58.4669 247.181 58.049 247.181 57.4409V54.18C247.181 53.8114 247.033 53.5203 246.544 53.2409C246.997 53.0507 247.181 52.5906 247.181 52.3089V49.2545C247.181 48.731 246.707 48.1981 246.02 48.1981H241.791V48.9822V48.9845ZM244.913 48.9845C245.156 48.9845 245.34 49.1559 245.34 49.3649V52.3089C245.34 52.5225 245.156 52.6892 244.923 52.6892H243.911V48.9845H244.913ZM243.923 53.7457H244.913C245.137 53.7457 245.34 53.903 245.34 54.18V57.3024C245.34 57.5395 245.14 57.6827 244.913 57.6827H243.911V53.7457H243.923Z" fill="#094752"/>
<path fill-rule="evenodd" clip-rule="evenodd" d="M253.36 57.4268V54.18C253.36 53.8114 253.222 53.5203 252.733 53.2409C253.181 53.0507 253.36 52.5906 253.36 52.3089V49.2545C253.36 48.731 252.895 48.1981 252.203 48.1981H247.973V48.9822C248.087 48.9822 248.254 49.0503 248.254 49.2404V57.4245C248.254 57.624 248.08 57.6804 247.973 57.6804V58.4645H250.379V57.6804C250.21 57.6804 250.095 57.5654 250.095 57.4245V53.7433H251.094C251.319 53.7433 251.531 53.9006 251.531 54.1776V57.4245C251.531 58.0818 252.103 58.4645 252.702 58.4645H253.656V57.6804C253.522 57.6804 253.363 57.5888 253.363 57.4245M251.094 48.9845C251.343 48.9845 251.531 49.1559 251.531 49.3649V52.3089C251.531 52.5225 251.345 52.6892 251.104 52.6892H250.09V48.9845H251.094Z" fill="#094752"/>
<path d="M232.562 48.2473C232.056 48.1863 231.25 48.2168 231.011 48.252C230.584 48.3037 230.007 48.637 230.007 49.2873V57.401C230.007 57.8118 230.267 58.2532 230.928 58.434C231.453 58.5795 232.759 58.6007 233.418 58.441C234.057 58.2861 234.331 57.8987 234.331 57.2906V55.3843H233.182V57.3C233.182 57.5113 233.012 57.6146 232.862 57.678C232.693 57.7367 232.325 57.7273 232.151 57.6686C231.951 57.5982 231.846 57.4691 231.841 57.3V49.3977C231.841 49.2427 231.961 49.0808 232.144 49.0268C232.368 48.9563 232.709 48.9563 232.905 49.0338C233.062 49.0948 233.189 49.2099 233.189 49.3836V51.3017H234.334V48.1933H233.184V48.6042C233.184 48.6042 233.027 48.2919 232.564 48.2403" fill="#094752"/>
<path fill-rule="evenodd" clip-rule="evenodd" d="M236.919 48.9775C237.112 48.9775 237.214 49.1536 237.2 49.231C237.176 49.3461 234.856 58.4669 234.856 58.4669H236.065C236.065 58.4669 236.272 57.4902 236.306 57.3728C236.33 57.2907 236.725 55.6966 236.725 55.6966H238.543C238.543 55.6966 238.886 57.0489 238.958 57.3658C238.994 57.5348 239.227 58.4645 239.227 58.4645H241.278V57.6804H241.133C240.966 57.6804 240.868 57.556 240.851 57.4902L238.543 48.1981H236.919V48.9751V48.9775ZM237.651 52.1445L238.362 54.9758H236.911L237.648 52.1445H237.651Z" fill="#094752"/>
<path fill-rule="evenodd" clip-rule="evenodd" d="M256.191 48.9775C256.413 48.9892 256.489 49.1723 256.458 49.2897C256.434 49.4024 254.121 58.4692 254.121 58.4692H255.342C255.342 58.4692 255.54 57.4925 255.573 57.3752C255.602 57.293 256 55.6989 256 55.6989H257.808C257.808 55.6989 258.151 57.0512 258.235 57.3681C258.268 57.5372 258.502 58.4668 258.502 58.4668H260.553V57.6827H260.398C260.243 57.6827 260.133 57.5583 260.126 57.4925L257.813 48.2004H256.196V48.9775H256.191ZM256.918 52.1445L257.631 54.9758H256.184L256.918 52.1445Z" fill="#094752"/>
<path d="M204.002 21V73.8724H228.536C228.781 75.7717 229.743 77.4456 231.29 78.6382C233.334 80.2041 236.361 81 240.26 81C244.159 81 247.169 80.2041 249.22 78.6382C250.775 77.4432 251.724 75.7717 251.975 73.8724H276V21H204H204.002ZM240.26 79.2087C238.765 79.2087 237.439 79.0725 236.265 78.826C236.461 78.819 236.642 78.7932 236.776 78.7462V78.7415C237.119 78.6406 237.739 78.6406 238.094 78.7462C238.49 78.8659 239.239 78.8659 239.609 78.7462C239.967 78.6241 240.596 78.6382 240.93 78.7462C241.285 78.8659 242.051 78.8659 242.423 78.7462C242.764 78.6382 243.391 78.6382 243.747 78.7415C243.883 78.7861 244.066 78.8119 244.262 78.8237C243.086 79.0725 241.758 79.2087 240.26 79.2087ZM246.365 78.1804C245.977 78.1335 245.438 78.1335 245.154 78.2274C244.846 78.3283 244.238 78.3448 243.835 78.2274C243.458 78.0983 242.673 78.1194 242.332 78.2274C242.039 78.3119 241.426 78.3448 241.011 78.2274C240.68 78.1335 239.866 78.11 239.506 78.2274C239.196 78.3283 238.586 78.3448 238.183 78.2274C237.787 78.11 237.133 78.0865 236.678 78.2274V78.2321C236.385 78.3119 235.781 78.3448 235.361 78.2274C235.092 78.1569 234.543 78.1264 234.138 78.1687C233.854 78.0513 233.575 77.9151 233.31 77.7602C233.556 77.7602 233.795 77.7273 233.95 77.6733C234.312 77.563 234.942 77.563 235.271 77.6733C235.628 77.7907 236.394 77.7954 236.773 77.6733C237.117 77.57 237.737 77.563 238.092 77.6733C238.488 77.7954 239.237 77.7907 239.606 77.6733C239.964 77.563 240.594 77.563 240.928 77.6733C241.283 77.7907 242.049 77.7954 242.421 77.6733C242.762 77.5677 243.389 77.563 243.744 77.6733C244.143 77.7907 244.877 77.7907 245.249 77.6733C245.605 77.563 246.237 77.563 246.566 77.6733C246.723 77.7273 246.957 77.7555 247.2 77.7602C246.933 77.9128 246.661 78.0489 246.365 78.1781M248.137 77.1263C248.08 77.1263 248.032 77.1474 247.977 77.1615C247.684 77.2484 247.074 77.2719 246.661 77.1615C246.322 77.0676 245.521 77.0465 245.154 77.1615C244.846 77.2625 244.238 77.2836 243.835 77.1615C243.458 77.0347 242.673 77.0629 242.332 77.1615C242.039 77.2484 241.426 77.2719 241.011 77.1615C240.68 77.0676 239.866 77.0465 239.506 77.1615C239.196 77.2625 238.586 77.2836 238.183 77.1615C237.787 77.0488 237.133 77.0207 236.678 77.1615H236.68C236.384 77.2484 235.779 77.2719 235.361 77.1615C235.027 77.0676 234.224 77.0465 233.859 77.1615C233.551 77.2625 232.931 77.2836 232.531 77.1615C232.483 77.1474 232.426 77.1474 232.375 77.1287C232.147 76.9408 231.939 76.7413 231.748 76.537C232.003 76.5323 232.259 76.5511 232.447 76.6169C232.841 76.7366 233.582 76.7342 233.95 76.6169C234.312 76.4948 234.942 76.5042 235.271 76.6169C235.628 76.7342 236.394 76.7366 236.773 76.6169C237.117 76.5112 237.737 76.5042 238.092 76.6169C238.488 76.7366 239.237 76.7342 239.606 76.6169C239.964 76.4948 240.594 76.5042 240.928 76.6169C241.283 76.7342 242.049 76.7366 242.421 76.6169C242.762 76.5042 243.389 76.5042 243.744 76.6098C244.143 76.7342 244.877 76.7342 245.249 76.6169C245.605 76.4948 246.237 76.5042 246.566 76.6169C246.928 76.7342 247.689 76.7366 248.068 76.6169C248.252 76.5605 248.505 76.5323 248.762 76.5323C248.571 76.7413 248.366 76.9408 248.137 77.1287M239.051 73.7362C239.091 73.7362 239.263 73.7362 239.454 73.7222C239.44 73.8114 239.432 73.8841 239.42 73.9475C239.325 74.4969 238.886 75.6214 238.557 76.0675L238.529 76.0511C238.529 76.0511 237.994 75.3538 237.901 75.2834C237.806 75.2035 237.889 74.9711 237.815 74.6495C238.159 74.3889 238.478 74.0227 238.638 73.5437C238.824 73.64 238.989 73.7245 239.051 73.7386M238.71 72.7502C238.92 72.7502 239.096 72.7408 239.161 72.7126C239.208 72.6939 239.38 72.5859 239.564 72.4614C239.549 72.823 239.523 73.1681 239.492 73.4381C239.38 73.4381 239.275 73.4381 239.215 73.4216C239.06 73.3888 238.91 73.2315 238.743 73.0084C238.734 72.938 238.724 72.8418 238.707 72.7526M238.068 75.9313L238.23 76.0722V76.1051L238.18 76.0933C237.784 75.9806 237.131 75.9572 236.675 76.0933H236.678C236.54 76.1356 236.344 76.1567 236.129 76.1661L236.105 76.1145L236.005 76.0464C236.005 76.0464 235.712 75.5721 236.027 75.3914C236.148 75.3209 236.585 75.2951 237.074 75.0486C237.157 75.2951 237.284 75.4829 237.343 75.5111C237.451 75.5627 237.942 75.8562 238.068 75.9337M239.821 67.8811C239.69 67.8224 239.533 67.8553 239.459 67.9586C239.397 68.0454 239.423 68.1464 239.516 68.2145C239.466 68.2661 239.42 68.3201 239.38 68.3741C239.304 68.3272 239.242 68.2825 239.161 68.2356C239.096 68.1065 239.218 67.9515 239.342 67.914C239.485 67.8694 239.728 67.6745 239.84 67.5266C239.914 67.4303 240.181 67.0124 240.119 66.7072H240.372C240.31 67.0124 240.572 67.4303 240.644 67.5266C240.758 67.6745 241.002 67.8694 241.138 67.914C241.271 67.9515 241.383 68.1065 241.321 68.2356C241.245 68.2825 241.171 68.3272 241.102 68.3741C241.057 68.3201 241.014 68.2661 240.968 68.2145C241.057 68.1464 241.083 68.0454 241.021 67.9586C240.952 67.8553 240.789 67.8224 240.656 67.8811C240.534 67.9351 240.484 68.0619 240.56 68.1652C240.62 68.2473 240.744 68.2872 240.856 68.2661C240.892 68.3201 240.93 68.4023 240.956 68.4797C240.665 68.6863 240.374 68.907 240.246 69.1371C240.095 68.9047 239.807 68.684 239.521 68.4797C239.547 68.4023 239.592 68.3201 239.618 68.2661C239.733 68.2872 239.862 68.2497 239.921 68.1652C239.99 68.0595 239.945 67.9351 239.821 67.8811ZM239.95 66.5805C239.719 66.5664 239.497 66.5429 239.313 66.51C238.984 66.4443 238.92 66.3739 238.91 66.3692C238.92 66.3504 238.97 66.28 239.301 66.2189C239.561 66.172 239.914 66.1391 240.284 66.1391C240.653 66.1391 240.997 66.172 241.259 66.2189C241.588 66.28 241.638 66.3527 241.65 66.3692C241.638 66.3739 241.574 66.4443 241.238 66.51C241.037 66.5476 240.789 66.5758 240.527 66.5805L240.477 66.5147L240.415 66.5852C240.367 66.5852 240.324 66.5852 240.279 66.5852C240.207 66.5852 240.134 66.5852 240.06 66.5805L240 66.5147L239.95 66.5805ZM242.332 76.091C242.304 76.098 242.28 76.1027 242.244 76.1098V76.0722L242.402 75.9313C242.538 75.8539 243.034 75.5604 243.134 75.5087C243.193 75.4806 243.317 75.2951 243.406 75.0462C243.897 75.2928 244.326 75.3186 244.455 75.389C244.76 75.5698 244.46 76.044 244.46 76.044L244.372 76.1121L244.345 76.1637C244.164 76.1544 243.988 76.1356 243.835 76.091C243.458 75.9665 242.673 75.9877 242.332 76.091ZM242.578 75.281C242.478 75.3538 241.953 76.0487 241.953 76.0487L241.925 76.0651C241.591 75.6214 241.159 74.4945 241.057 73.9452C241.047 73.8818 241.035 73.8114 241.023 73.7198C241.216 73.7339 241.386 73.7339 241.429 73.7339C241.491 73.7198 241.658 73.6353 241.844 73.539C242.01 74.018 242.318 74.3842 242.664 74.6448C242.59 74.9688 242.669 75.1989 242.578 75.2787M241.741 73.0061C241.569 73.2291 241.426 73.3864 241.269 73.4193C241.197 73.4334 241.099 73.4357 240.992 73.4357C240.956 73.1657 240.93 72.8206 240.916 72.4591C241.099 72.5835 241.278 72.6915 241.324 72.7103C241.381 72.7408 241.567 72.7479 241.772 72.7479C241.753 72.8371 241.743 72.9333 241.739 73.0038M249.165 76.0252C248.762 75.9783 248.247 76.0135 247.977 76.091C247.684 76.1778 247.074 76.2084 246.661 76.091C246.322 76.0018 245.521 75.9783 245.154 76.091C245.056 76.1285 244.913 76.1473 244.753 76.1591V76.0651L244.925 75.9243V75.2834C244.925 75.0909 244.493 74.8913 244.422 74.8162C244.398 74.781 244.345 74.7246 244.286 74.6518C244.343 74.4265 244.286 74.1471 244.119 73.9217C244.095 73.8818 244.434 73.7362 244.343 73.6799C244.259 73.6235 243.93 73.6846 243.833 73.6423C243.797 73.6235 243.737 73.6001 243.711 73.586C243.189 73.3888 243.031 72.8371 243.015 72.5953C242.998 72.4215 243.048 71.9942 243.062 71.8698C243.103 71.9238 243.15 71.8863 243.21 71.959C243.251 71.7876 243.172 71.7102 243.072 71.6773C243.379 71.6773 243.525 71.7196 243.771 71.959C243.658 71.6679 243.484 71.5388 243.15 71.4496C243.367 71.3815 243.644 71.3369 244.004 71.4848C243.725 71.189 243.415 71.1749 243.086 71.2336C242.917 71.0833 242.862 71.0763 242.795 71.0458C242.633 70.98 242.318 70.6021 242.151 70.7335C242.297 70.804 242.225 70.9894 242.068 70.9284C242.063 70.98 242.068 71.0317 242.08 71.074C242.092 71.1984 241.999 71.2805 241.889 71.3345C242.046 71.3181 242.168 71.3627 242.208 71.4965C242.254 71.6163 242.232 71.7759 242.099 71.9215C242.051 71.9942 241.979 72.1398 241.937 72.2595C241.693 72.3558 241.5 72.4027 241.35 72.3558C241.25 72.3253 241.066 72.222 240.911 72.1257C240.911 71.3345 241.018 70.5387 241.376 70.217C241.452 70.1513 241.574 70.0738 241.734 69.994C241.836 70.0457 241.934 70.1044 242.018 70.1584C241.958 70.2382 241.972 70.3415 242.053 70.4119C242.163 70.4964 242.325 70.4964 242.428 70.4189C242.533 70.3368 242.538 70.203 242.428 70.1161C242.347 70.0504 242.208 70.0386 242.108 70.0926C242.046 70.0245 241.965 69.9658 241.908 69.9095C242.034 69.8461 242.168 69.778 242.313 69.7123V69.7287C242.299 69.8625 242.538 69.9377 242.924 70.0809C243.217 70.1936 243.864 70.2992 244.135 70.0339C243.74 69.8672 243.532 69.7029 243.234 69.6325C242.976 69.5714 242.747 69.562 242.578 69.5855C242.869 69.447 243.167 69.3014 243.41 69.1606C243.549 69.1841 243.687 69.2357 243.802 69.2662C243.766 69.3601 243.816 69.4611 243.926 69.5057C244.04 69.5691 244.207 69.5221 244.281 69.4306C244.352 69.3296 244.314 69.2075 244.181 69.1418C244.076 69.0901 243.947 69.116 243.861 69.1794C243.773 69.1324 243.675 69.0855 243.601 69.0432C243.642 69.015 243.687 68.9822 243.723 68.954C243.93 68.9258 244.252 68.8108 244.565 68.6042C244.865 68.407 245.015 68.1675 245.364 67.8341C244.949 67.7027 244.283 68.0783 244.019 68.3037C243.663 68.6183 243.432 68.7896 243.506 68.9047L243.52 68.9094C243.46 68.9399 243.41 68.9681 243.351 69.0033C243.341 68.9211 243.341 68.8155 243.327 68.7216C243.449 68.6981 243.527 68.6206 243.527 68.5197C243.527 68.4046 243.408 68.3037 243.27 68.3037C243.119 68.3037 242.998 68.4046 242.998 68.5197C242.998 68.6183 243.088 68.6981 243.205 68.7216C243.184 68.846 243.158 69.0033 243.091 69.1301C242.85 69.2216 242.585 69.3155 242.306 69.386C242.289 69.3578 242.292 69.3249 242.34 69.3038C242.445 69.2662 242.693 69.1676 242.826 68.9704C242.948 68.7826 242.824 68.3201 243.129 68.2121C242.607 68.1581 242.192 68.792 242.111 68.9915C242.053 69.1254 242.17 69.2521 242.101 69.3273C242.068 69.3719 242.006 69.4376 241.941 69.4846C241.564 69.5785 241.166 69.6724 240.868 69.7733C240.811 69.4024 240.932 69.0808 241.157 68.7943C241.24 68.8789 241.491 68.8976 241.82 68.8319C242.068 68.7849 242.275 68.5666 242.54 68.2614C242.218 68.191 241.86 68.2825 241.655 68.4164C241.55 68.4774 241.438 68.5267 241.347 68.5713C241.653 68.2685 242.056 68.0126 242.425 67.7872C242.561 67.7707 242.707 67.7919 242.828 67.813C242.828 67.8881 242.888 67.9609 242.986 67.9867C243.098 68.0149 243.22 67.9609 243.253 67.874C243.298 67.7778 243.232 67.6862 243.115 67.6557C243.017 67.6299 242.917 67.6698 242.862 67.7379C242.786 67.7097 242.693 67.6862 242.628 67.6651C242.716 67.6111 242.797 67.5595 242.874 67.5102C243.024 67.5407 243.248 67.4233 243.594 67.2519C243.897 67.1064 244.391 66.6932 244.231 66.3434C243.806 66.5359 243.489 66.5875 243.239 66.7636C242.874 67.0101 242.716 67.3036 242.766 67.4397C242.576 67.543 242.33 67.6675 242.065 67.8036L242.061 67.7872C242.058 67.752 242.084 67.7167 242.146 67.6745C242.208 67.6299 242.478 67.4984 242.628 67.3411C242.802 67.165 242.95 66.7307 242.704 66.5053C242.695 66.6885 242.266 66.7824 242.113 67.043C242.025 67.1979 241.958 67.3247 241.965 67.482C241.965 67.5994 242.01 67.7214 241.939 67.8341L241.91 67.8834C241.848 67.921 241.784 67.9539 241.724 67.9867C241.71 67.9069 241.71 67.8036 241.703 67.7097C241.817 67.6862 241.901 67.6088 241.901 67.5102C241.901 67.3951 241.782 67.3012 241.641 67.3012C241.5 67.3012 241.381 67.3928 241.381 67.5102C241.381 67.6088 241.467 67.6862 241.574 67.7097C241.557 67.8318 241.533 67.9773 241.471 68.0971C241.376 68.0619 241.34 67.9304 241.359 67.9022C241.433 67.7661 241.297 67.4162 241.164 67.2425C240.968 66.9819 240.789 66.8481 240.637 66.6955C241.405 66.6579 241.984 66.5171 242.003 66.3598C242.03 66.1626 241.259 66.0076 240.291 66.0076C239.323 66.0076 238.55 66.1626 238.571 66.3598C238.583 66.5171 239.13 66.6509 239.852 66.6885C239.707 66.8434 239.525 66.9819 239.325 67.2402C239.201 67.4162 239.053 67.7637 239.13 67.8999C239.151 67.928 239.115 68.0595 239.022 68.0947C238.958 67.975 238.934 67.8294 238.912 67.7074C239.027 67.6839 239.108 67.6064 239.108 67.5078C239.108 67.3928 238.994 67.2989 238.85 67.2989C238.707 67.2989 238.583 67.3904 238.583 67.5078C238.583 67.6064 238.672 67.6839 238.784 67.7074C238.774 67.7989 238.774 67.9046 238.76 67.9844C238.691 67.9515 238.638 67.9187 238.574 67.8811L238.548 67.8318C238.478 67.7191 238.524 67.597 238.524 67.4796C238.533 67.3247 238.462 67.1979 238.369 67.0406C238.214 66.78 237.78 66.6861 237.773 66.503C237.517 66.7284 237.675 67.1627 237.846 67.3388C238.006 67.4937 238.273 67.6275 238.335 67.6721C238.395 67.7121 238.421 67.7496 238.421 67.7848L238.412 67.8013C238.152 67.6651 237.901 67.5383 237.703 67.4374C237.765 67.3012 237.606 67.0054 237.241 66.7612C236.976 66.5852 236.671 66.5335 236.241 66.341C236.084 66.6908 236.585 67.104 236.881 67.2496C237.231 67.4209 237.453 67.5383 237.601 67.5078C237.682 67.5571 237.763 67.6088 237.849 67.6628C237.78 67.6839 237.691 67.7074 237.615 67.7355C237.563 67.6674 237.465 67.6275 237.362 67.6534C237.25 67.6839 237.179 67.7754 237.212 67.8717C237.253 67.9586 237.379 68.0126 237.491 67.9844C237.586 67.9586 237.651 67.8858 237.646 67.8107C237.768 67.7895 237.916 67.7684 238.047 67.7848C238.426 68.0102 238.829 68.2661 239.132 68.569C239.044 68.522 238.934 68.4727 238.827 68.414C238.617 68.2802 238.261 68.1886 237.942 68.2591C238.202 68.5619 238.405 68.7826 238.655 68.8296C238.986 68.8976 239.242 68.8765 239.323 68.792C239.542 69.0784 239.664 69.3977 239.609 69.771C239.311 69.67 238.922 69.5761 238.543 69.4822C238.471 69.4353 238.405 69.3695 238.374 69.3249C238.309 69.2474 238.421 69.123 238.369 68.9892C238.283 68.7896 237.868 68.1558 237.346 68.2098C237.653 68.3178 237.524 68.7803 237.648 68.9681C237.78 69.1653 238.03 69.2639 238.13 69.3014C238.183 69.3202 238.183 69.3554 238.166 69.3836C237.887 69.3108 237.62 69.2193 237.389 69.1277C237.315 69.0033 237.291 68.8436 237.269 68.7192C237.379 68.6957 237.467 68.6159 237.467 68.5173C237.467 68.4023 237.348 68.3013 237.203 68.3013C237.057 68.3013 236.938 68.4023 236.938 68.5173C236.938 68.6183 237.021 68.6957 237.136 68.7192C237.126 68.8131 237.121 68.9188 237.114 69.0009C237.057 68.9681 237.002 68.9375 236.947 68.907L236.957 68.9023C237.031 68.7873 236.802 68.6159 236.454 68.3013C236.182 68.0759 235.521 67.698 235.099 67.8318C235.457 68.1628 235.6 68.4023 235.898 68.6018C236.213 68.8084 236.532 68.9235 236.745 68.9516C236.778 68.9798 236.816 69.0127 236.859 69.0408C236.785 69.0808 236.687 69.1301 236.599 69.177C236.518 69.1113 236.382 69.0878 236.277 69.1394C236.146 69.2052 236.108 69.3273 236.179 69.4282C236.253 69.5198 236.416 69.5667 236.547 69.5033C236.649 69.4564 236.695 69.3554 236.666 69.2639C236.778 69.2334 236.909 69.1817 237.057 69.1582C237.293 69.2991 237.596 69.4447 237.889 69.5832C237.718 69.5597 237.489 69.5691 237.234 69.6301C236.933 69.7006 236.728 69.8625 236.33 70.0316C236.599 70.2945 237.248 70.1912 237.544 70.0785C237.93 69.9353 238.164 69.8602 238.156 69.7264L238.149 69.7099C238.292 69.7733 238.438 69.8438 238.557 69.9071C238.495 69.9635 238.421 70.0198 238.357 70.0903C238.252 70.0363 238.121 70.048 238.03 70.1137C237.93 70.2006 237.93 70.3344 238.035 70.4166C238.14 70.4964 238.304 70.4964 238.409 70.4096C238.495 70.3391 238.509 70.2358 238.445 70.156C238.533 70.102 238.629 70.0433 238.736 69.9917C238.896 70.0715 239.02 70.149 239.087 70.2147C239.444 70.5387 239.554 71.3322 239.554 72.1234C239.399 72.2196 239.22 72.3159 239.11 72.3534C238.972 72.4004 238.772 72.3534 238.536 72.2572C238.488 72.1351 238.412 71.9919 238.357 71.9191C238.226 71.7736 238.214 71.6139 238.252 71.4942C238.297 71.3604 238.421 71.3158 238.581 71.3322C238.471 71.2806 238.374 71.1984 238.383 71.0716C238.393 71.027 238.402 70.9753 238.397 70.926C238.242 70.9871 238.168 70.7993 238.321 70.7312C238.142 70.5974 237.835 70.9777 237.682 71.0434C237.61 71.074 237.544 71.081 237.379 71.2312C237.052 71.1726 236.742 71.1866 236.461 71.4824C236.814 71.3345 237.1 71.3792 237.317 71.4472C236.976 71.5364 236.811 71.6679 236.697 71.9567C236.95 71.7196 237.088 71.675 237.396 71.675C237.291 71.7078 237.214 71.783 237.253 71.9567C237.315 71.8839 237.362 71.9191 237.41 71.8675C237.422 71.9919 237.467 72.4192 237.455 72.5929C237.429 72.8347 237.274 73.3864 236.749 73.5836C236.728 73.5954 236.666 73.6212 236.628 73.64C236.542 73.6822 236.201 73.6212 236.113 73.6775C236.032 73.7339 236.373 73.8771 236.342 73.9194C236.182 74.1471 236.129 74.4265 236.184 74.6495C236.122 74.7223 236.072 74.7763 236.041 74.8138C235.97 74.8866 235.54 75.0885 235.54 75.281V75.9219L235.71 76.0628V76.152C235.586 76.1403 235.462 76.1191 235.352 76.0886C235.018 75.9994 234.214 75.9759 233.849 76.0886C233.542 76.1919 232.922 76.206 232.521 76.0886C232.211 75.9994 231.741 75.9712 231.336 76.0252C230.701 75.1167 230.36 74.0391 230.36 72.8347C230.36 72.715 230.365 72.5976 230.37 72.4802C230.375 72.3628 230.384 72.2525 230.403 72.1398C230.465 71.5153 230.608 70.8744 230.823 70.2405L230.84 70.1912C230.88 70.0715 230.933 69.9541 230.971 69.8344C230.992 69.7874 231.011 69.7428 231.03 69.7006C231.064 69.6043 231.102 69.5198 231.14 69.4306C231.162 69.3766 231.188 69.3273 231.212 69.2756C231.25 69.1911 231.288 69.1042 231.331 69.0197C231.357 68.9728 231.379 68.9258 231.402 68.8812C231.453 68.7756 231.51 68.6676 231.562 68.5737C231.579 68.5408 231.596 68.5126 231.61 68.4915C231.681 68.3553 231.755 68.2285 231.832 68.1018C231.856 68.0572 231.879 68.0243 231.906 67.9844C231.963 67.8928 232.015 67.806 232.077 67.7167C232.106 67.6721 232.139 67.6228 232.166 67.5735C232.218 67.4961 232.275 67.4092 232.34 67.3317C232.366 67.2871 232.399 67.2449 232.433 67.1956C232.497 67.1063 232.566 67.0218 232.631 66.9303C232.657 66.8974 232.683 66.8598 232.714 66.8246C232.807 66.7049 232.905 66.5922 233.003 66.4725L233.072 66.3973C233.148 66.3081 233.227 66.2119 233.303 66.1203C233.349 66.0875 233.38 66.0475 233.422 66.0076C233.492 65.9348 233.561 65.855 233.63 65.7846C233.675 65.74 233.711 65.7048 233.752 65.6625C233.828 65.5874 233.899 65.5123 233.981 65.4395C234.016 65.4019 234.054 65.3738 234.09 65.3432C234.205 65.2376 234.322 65.1343 234.434 65.0333L234.448 65.0286C234.558 64.9277 234.672 64.8314 234.799 64.7469C234.832 64.714 234.87 64.6859 234.913 64.6507C234.989 64.5896 235.073 64.5309 235.161 64.4628C235.211 64.4347 235.254 64.4042 235.299 64.3689C235.383 64.3102 235.466 64.2539 235.557 64.1999C235.597 64.167 235.638 64.1365 235.679 64.1177C235.788 64.0473 235.896 63.9792 236.005 63.9135L236.079 63.8712C236.203 63.7985 236.344 63.7233 236.48 63.6576C236.518 63.6365 236.554 63.62 236.59 63.5989C236.687 63.5472 236.785 63.5026 236.883 63.4604C236.933 63.4346 236.978 63.4111 237.028 63.3946C237.124 63.3477 237.219 63.3125 237.31 63.2773C237.358 63.2514 237.408 63.235 237.46 63.2162C237.563 63.1787 237.665 63.1364 237.768 63.1106C237.804 63.0918 237.842 63.0801 237.887 63.066C238.025 63.0214 238.164 62.9791 238.314 62.9415L238.395 62.9251C238.514 62.8946 238.631 62.8688 238.75 62.8406C238.798 62.8359 238.848 62.8265 238.901 62.8148C238.998 62.7936 239.096 62.7796 239.192 62.7631C239.251 62.7584 239.296 62.742 239.351 62.7396C239.459 62.7279 239.556 62.7185 239.659 62.7091C239.709 62.7044 239.757 62.6974 239.804 62.6974C239.955 62.6856 240.105 62.6809 240.253 62.6809C240.401 62.6809 240.553 62.6856 240.706 62.6974C240.751 62.6974 240.804 62.7021 240.844 62.7091C240.952 62.7162 241.049 62.7279 241.152 62.7396C241.202 62.7396 241.262 62.7584 241.312 62.7631C241.412 62.7772 241.507 62.7913 241.612 62.8148C241.658 62.8265 241.7 62.8335 241.751 62.8406C241.872 62.8688 241.991 62.8946 242.106 62.9251C242.139 62.9322 242.165 62.9321 242.194 62.9415C242.332 62.9791 242.476 63.0237 242.621 63.066C242.662 63.0801 242.697 63.0918 242.733 63.1106C242.84 63.1387 242.938 63.1787 243.041 63.2162C243.091 63.235 243.143 63.2514 243.191 63.2773C243.277 63.3101 243.372 63.3453 243.47 63.3946C243.518 63.4111 243.565 63.4346 243.616 63.4604C243.716 63.505 243.809 63.5472 243.909 63.5989C243.945 63.62 243.99 63.6365 244.021 63.6576C244.154 63.7233 244.288 63.7985 244.422 63.8712C244.45 63.8877 244.472 63.9088 244.496 63.9135C244.605 63.9769 244.708 64.0473 244.813 64.1177C244.858 64.1365 244.901 64.167 244.944 64.1999C245.03 64.2539 245.111 64.3102 245.199 64.3689C245.244 64.4042 245.285 64.4347 245.333 64.4628C245.416 64.5333 245.502 64.592 245.588 64.6507C245.626 64.6859 245.664 64.714 245.702 64.7469C245.817 64.8338 245.934 64.9277 246.046 65.0192L246.06 65.0357C246.179 65.1366 246.294 65.2376 246.401 65.3456C246.442 65.3761 246.485 65.416 246.516 65.4442C246.587 65.517 246.673 65.5921 246.74 65.6649C246.78 65.7071 246.816 65.747 246.861 65.7869C246.933 65.8644 247.004 65.9372 247.069 66.01C247.105 66.0499 247.15 66.0898 247.188 66.1227C247.264 66.2142 247.345 66.3105 247.419 66.395L247.481 66.4748C247.586 66.5922 247.682 66.7072 247.775 66.827C247.803 66.8645 247.834 66.8998 247.863 66.9326C247.927 67.0242 247.994 67.1087 248.059 67.1979C248.092 67.2472 248.121 67.2895 248.156 67.3364C248.214 67.4115 248.266 67.4984 248.319 67.5759C248.354 67.6252 248.383 67.6745 248.412 67.7191C248.469 67.8083 248.533 67.8975 248.583 67.9867C248.605 68.0266 248.636 68.0595 248.664 68.1041C248.736 68.2309 248.81 68.3577 248.886 68.4938C248.898 68.5173 248.912 68.5431 248.927 68.576C248.974 68.6723 249.039 68.7803 249.089 68.8836C249.11 68.9282 249.139 68.9751 249.153 69.0221C249.201 69.1066 249.246 69.1958 249.277 69.278C249.306 69.3296 249.325 69.3789 249.349 69.4306C249.389 69.5221 249.425 69.6066 249.458 69.7029C249.48 69.7452 249.497 69.7898 249.518 69.8367C249.568 69.9635 249.611 70.0903 249.661 70.217L249.671 70.2382C249.883 70.8791 250.028 71.52 250.086 72.1398C250.102 72.2525 250.114 72.3652 250.119 72.4826C250.124 72.6 250.129 72.7173 250.129 72.8371C250.129 74.0391 249.795 75.119 249.158 76.0252M273.916 71.8088H251.972C251.889 71.1139 251.731 70.4119 251.498 69.7052L251.326 69.2404L251.252 69.0549L251.126 68.745L251.04 68.569L250.901 68.2638L250.801 68.0783C250.823 68.1229 250.646 67.7731 250.646 67.7731L250.594 67.6721L250.339 67.2237L250.262 67.1087L250.057 66.7824L249.931 66.6016L249.769 66.3551L249.642 66.1767L249.425 65.8902L249.315 65.7494L248.989 65.3573L248.927 65.2845L248.638 64.9559L248.516 64.8197L248.226 64.5239L248.135 64.4323L247.88 64.1858L247.737 64.0567L247.343 63.7045L246.926 63.3688L246.837 63.2984C246.797 63.2538 246.496 63.0378 246.496 63.0354L246.337 62.9298L246.05 62.7326C246.012 62.7091 245.891 62.6293 245.891 62.6293L245.411 62.3405L244.951 62.0846L244.856 62.0377C244.81 62.0142 244.457 61.8475 244.457 61.8475L244.264 61.763L243.937 61.6268L243.747 61.547L243.382 61.4132C243.348 61.4015 243.239 61.3686 243.239 61.3686L242.654 61.1996L242.583 61.1855L242.158 61.0869L241.977 61.0516L241.603 60.9906L241.395 60.9624L241.006 60.9225C240.98 60.9225 240.825 60.9108 240.825 60.9108L240.253 60.885L239.676 60.9108L239.533 60.9225C239.499 60.9225 239.113 60.9624 239.113 60.9624L238.905 60.9906L238.538 61.0516C238.488 61.0657 238.347 61.0869 238.347 61.0869L237.908 61.1902L237.811 61.2066L237.274 61.3686L237.162 61.4038L236.754 61.5541L236.563 61.6292L236.234 61.77L236.055 61.8499L235.702 62.0165C235.669 62.033 235.557 62.094 235.557 62.094L235.082 62.3429L235.047 62.3664L234.987 62.3992L234.62 62.6316L234.515 62.6974C234.467 62.7256 234.169 62.9322 234.169 62.9322L234.009 63.0401L233.666 63.3007L233.573 63.3712L233.177 63.6975L232.757 64.0637L232.633 64.1811L232.368 64.4347L232.247 64.5591L231.994 64.822L231.856 64.9746L231.588 65.2728L231.505 65.3667L231.178 65.7705L231.119 65.8503C231.083 65.8926 230.863 66.1814 230.863 66.1814L230.739 66.3504L230.553 66.6227L230.448 66.7871L230.253 67.0923L230.169 67.2308L229.912 67.6745L229.898 67.7027L229.673 68.1229L229.597 68.2872L229.452 68.5854L229.378 68.7615L229.251 69.0714L229.18 69.2263L229.022 69.6559C228.77 70.4025 228.615 71.1068 228.524 71.8088H206.089V23.0683H273.906V71.8088H273.916ZM241.243 63.6482C241.049 63.5613 240.756 63.5144 240.501 63.4932L240.506 63.3618H240.696V63.1035H240.518L240.527 62.8828H240.11V63.1035H239.914V63.3618H240.11V63.4932C239.862 63.5144 239.559 63.5613 239.366 63.6482C238.791 63.5402 238.24 63.7421 237.982 63.9933C237.765 64.1952 237.751 64.4135 237.765 64.5943C237.78 64.761 237.877 65.0099 237.966 65.1648L238.004 65.2517C238.025 65.2094 238.042 65.1672 238.063 65.1343C238.125 65.0451 238.19 65.0545 238.207 65.1437C238.211 65.2376 238.178 65.3784 238.121 65.47L238.476 66.2119C238.66 65.8738 240.188 65.8738 240.262 65.8738C240.336 65.8738 241.963 65.8738 242.056 66.2494L242.447 65.4653C242.397 65.3761 242.361 65.2376 242.371 65.1437C242.387 65.0521 242.447 65.0451 242.516 65.1343C242.538 65.1672 242.554 65.2071 242.569 65.2517L242.609 65.1648C242.695 65.0099 242.802 64.7634 242.819 64.5943C242.833 64.4135 242.828 64.1952 242.619 63.9933C242.361 63.7445 241.815 63.5426 241.24 63.6482M241.479 64.7164C241.569 64.7446 241.634 64.8455 241.624 64.9512C241.619 65.0404 241.541 65.1014 241.464 65.0732C241.374 65.038 241.305 64.9394 241.314 64.8361C241.319 64.7399 241.4 64.6835 241.481 64.7164M240.296 64.5779C240.398 64.5779 240.482 64.6601 240.479 64.7563C240.479 64.8596 240.391 64.9371 240.293 64.9371C240.184 64.9371 240.112 64.8596 240.112 64.7563C240.112 64.6601 240.184 64.5779 240.296 64.5779ZM239.11 64.7164C239.196 64.6835 239.277 64.7399 239.277 64.8361C239.282 64.9371 239.218 65.038 239.132 65.0732C239.044 65.1014 238.972 65.0404 238.96 64.9512C238.955 64.8455 239.022 64.7446 239.11 64.7164ZM238.445 65.5404C238.407 65.5733 238.3 65.6297 238.29 65.578C238.316 65.5451 238.34 65.5264 238.362 65.4771C238.385 65.4231 238.419 65.362 238.436 65.2892C238.455 65.2 238.457 65.1014 238.445 65.0192C238.431 64.9488 238.4 64.9019 238.364 64.8901C238.331 64.8784 238.3 64.9019 238.269 64.9488C238.209 64.8408 238.176 64.7234 238.161 64.5943V64.5849C238.149 64.5028 238.159 64.3783 238.297 64.2304C238.433 64.1013 238.724 63.9604 238.991 63.9464C238.927 64.0567 238.889 64.1999 238.889 64.3337C238.886 64.4206 238.905 64.5309 238.927 64.6225C238.905 64.6577 238.889 64.7 238.889 64.7305L238.855 64.7352C238.743 64.7634 238.66 64.8995 238.672 65.0451C238.684 65.1836 238.779 65.2705 238.889 65.2564C238.939 65.2423 238.991 65.2188 239.048 65.1836C239.048 65.2352 238.991 65.3315 238.91 65.3573C238.796 65.4019 238.686 65.4113 238.605 65.3456C238.583 65.4113 238.543 65.4512 238.445 65.5357M238.929 65.848C238.726 65.8949 238.56 65.8597 238.555 65.7682C238.545 65.686 238.7 65.571 238.908 65.5287C239.106 65.4841 239.275 65.5193 239.275 65.6085C239.285 65.6954 239.125 65.8034 238.929 65.848ZM239.666 65.1061C239.661 65.1812 239.497 65.2352 239.361 65.2282C239.313 65.2282 239.261 65.1812 239.258 65.1296C239.304 65.1296 239.358 65.1296 239.418 65.1108C239.463 65.1038 239.516 65.0709 239.542 65.0169C239.592 64.9582 239.611 64.8807 239.611 64.8009C239.609 64.7281 239.578 64.6648 239.535 64.6272C239.494 64.5967 239.451 64.5873 239.389 64.5967L239.351 64.6154C239.342 64.5544 239.304 64.5098 239.251 64.4934C239.246 64.437 239.246 64.3807 239.251 64.3337C239.265 64.1952 239.378 63.998 239.621 63.937L239.649 63.9182C239.771 63.8853 239.897 63.8478 240.112 63.8384V64.4394C240.055 64.4722 240.029 64.5192 240.019 64.5755L239.974 64.5638C239.838 64.5638 239.733 64.6788 239.733 64.8197C239.733 64.876 239.754 64.93 239.778 64.9723L239.826 65.0239C239.871 65.0732 239.926 65.0897 239.983 65.0897H240.045L240.067 65.0826C240.103 65.0756 240.136 65.0732 240.162 65.0639C240.162 65.1061 240.138 65.1601 240.098 65.1859L240.081 65.193L240.057 65.1977H240.043C239.969 65.2047 239.74 65.1836 239.668 65.1038V65.1085L239.666 65.1061ZM240.265 65.7259L239.735 65.5381L240.265 65.3503L240.792 65.5404L240.265 65.7259ZM240.892 65.1061V65.1014C240.823 65.1812 240.599 65.2024 240.527 65.1953H240.506L240.482 65.1906L240.47 65.1836C240.432 65.1578 240.408 65.1038 240.405 65.0615C240.432 65.0709 240.465 65.0732 240.496 65.0803L240.52 65.0873H240.58C240.639 65.0873 240.694 65.0709 240.737 65.0216L240.785 64.9699C240.813 64.9277 240.832 64.8737 240.842 64.8174C240.842 64.6765 240.732 64.5614 240.601 64.5614L240.553 64.5732C240.551 64.5239 240.527 64.4769 240.482 64.4464C240.482 64.2727 240.491 64.0379 240.496 63.836H240.498C240.708 63.8454 240.83 63.883 240.954 63.9158L240.983 63.9346C241.223 63.9957 241.326 64.1929 241.345 64.3314C241.35 64.3783 241.35 64.4347 241.343 64.484C241.274 64.5004 241.223 64.545 241.221 64.6131L241.173 64.5943C241.121 64.5826 241.078 64.5943 241.035 64.6248C240.997 64.6624 240.961 64.7258 240.961 64.7986C240.956 64.8784 240.983 64.9559 241.018 65.0146C241.054 65.0686 241.099 65.1014 241.152 65.1085C241.204 65.1272 241.259 65.1296 241.307 65.1272C241.302 65.1789 241.254 65.2258 241.195 65.2258C241.064 65.2329 240.904 65.1789 240.892 65.1038M241.605 65.848C241.4 65.8034 241.247 65.693 241.254 65.6085C241.254 65.5193 241.424 65.4841 241.624 65.5287C241.834 65.571 241.987 65.686 241.979 65.7682C241.965 65.8621 241.793 65.8949 241.603 65.848M242.428 64.5967C242.402 64.7352 242.371 64.8526 242.304 64.9606V64.9535C242.268 64.9066 242.232 64.8854 242.206 64.8948C242.173 64.9066 242.134 64.9535 242.123 65.0239C242.106 65.1061 242.106 65.2047 242.125 65.2939C242.146 65.3644 242.173 65.4277 242.196 65.4817C242.213 65.531 242.232 65.5498 242.268 65.5827C242.258 65.6343 242.149 65.578 242.113 65.5451C242.025 65.4606 241.979 65.4207 241.958 65.355C241.875 65.4207 241.758 65.4113 241.65 65.3667C241.567 65.3409 241.505 65.2446 241.514 65.193C241.567 65.2282 241.619 65.254 241.674 65.2658C241.782 65.2798 241.875 65.193 241.894 65.0545C241.908 64.9089 241.822 64.7704 241.708 64.7446L241.679 64.7399L241.658 64.6577C241.684 64.5474 241.708 64.4417 241.708 64.3431C241.708 64.2093 241.679 64.0661 241.607 63.9557C241.877 63.9698 242.17 64.1107 242.301 64.2398C242.435 64.3877 242.437 64.5121 242.428 64.5943V64.6037V64.5967Z" fill="#094752"/>
<path d="M48.5391 54.4016L48.5306 42.7911C48.5306 39.8539 46.4603 39.4313 44.2387 39.4313V70.5145H32.7239C32.7239 70.5145 32.66 47.0088 32.66 42.7911C32.66 39.89 30.826 39.2593 28.3787 39.2593L28.368 70.5145H16.7212C16.8043 66.5537 16.7212 46.8389 16.7212 44.5113C16.7212 37.5773 11 38.1082 11 38.1082L18.9343 31.1657H21.9567C23.7566 31.1657 28.3808 32.561 28.3808 36.6513L34.6579 31.1657H37.8274C40.3663 31.1657 44.2408 32.7903 44.2408 36.7766L50.6542 31.1657H53.6469C55.9388 31.1657 60.0688 32.5419 60.0688 36.7618L60.1817 54.4016L60.186 57.4619C60.186 64.3938 65.9114 63.865 65.9114 63.865L57.9814 70.8075C57.1827 71.5063 48.5327 70.6716 48.5327 62.0067L48.5413 54.4016H48.5391Z" fill="#094752"/>
<path d="M73.2706 57.0562V46.1423H76.1972L78.0929 53.3078H78.1228L80.0185 46.1423H82.9451V57.0562H81.1559V48.4699H81.1261L78.8981 57.0562H77.3219L75.0939 48.4699H75.0641V57.0562H73.2749H73.2706Z" fill="#094752"/>
<path d="M84.006 57.0562L86.7196 46.1423H89.4034L92.0403 57.0562H90.0381L89.5078 54.7583H86.611L86.0188 57.0562H84.0017H84.006ZM86.9922 52.9149H89.069L88.053 48.5018H88.0231L86.9922 52.9149Z" fill="#094752"/>
<path d="M93.1033 57.0562V46.1423H95.1949V50.496H98.1514V46.1423H100.243V57.0562H98.1514V52.3394H95.1949V57.0562H93.1033Z" fill="#094752"/>
<path d="M101.866 49.6486C101.866 46.9578 103.291 45.9894 105.323 45.9894C107.355 45.9894 108.78 46.9578 108.78 49.6486V53.5478C108.78 56.2386 107.355 57.207 105.323 57.207C103.291 57.207 101.866 56.2386 101.866 53.5478V49.6486ZM103.96 53.8218C103.96 55.0302 104.49 55.3636 105.323 55.3636C106.156 55.3636 106.688 55.0302 106.688 53.8218V49.3768C106.688 48.1684 106.158 47.835 105.323 47.835C104.488 47.835 103.96 48.1684 103.96 49.3768V53.8218Z" fill="#094752"/>
<path d="M112.495 46.1423V53.7772C112.495 54.8199 112.951 55.3636 113.967 55.3636C114.983 55.3636 115.453 54.8199 115.453 53.7772V46.1423H117.545V53.792C117.545 56.1961 116.12 57.2092 113.967 57.2092C111.813 57.2092 110.403 56.1961 110.403 53.792V46.1423H112.495Z" fill="#094752"/>
<path d="M77.1196 62.6077C77.028 61.4885 76.5743 60.6432 75.4369 60.6432C74.5274 60.6432 73.9353 61.2485 73.9353 62.0789C73.9353 64.5424 78.3316 64.5743 78.3316 68.0806C78.3316 69.82 77.3305 70.8627 75.5264 70.8627C73.7223 70.8627 72.7808 69.6076 72.751 67.779H73.8437C73.8735 69.0639 74.4805 69.8646 75.6478 69.8646C76.634 69.8646 77.2708 69.2296 77.2708 68.0657C77.2708 65.5873 72.8745 65.2985 72.8745 62.1851C72.8745 60.6432 73.9353 59.6451 75.5136 59.6451C77.0919 59.6451 78.1207 60.7027 78.2123 62.6077H77.1196Z" fill="#094752"/>
<path d="M83.2306 59.7959L85.6418 70.7098H84.4596L83.8078 67.4753H81.0175L80.3657 70.7098H79.1836L81.5948 59.7959H83.2327H83.2306ZM81.1837 66.4772H83.6396L82.4276 60.6114H82.3978L81.1858 66.4772H81.1837Z" fill="#094752"/>
<path d="M89.1902 59.7959L92.0103 67.8385H92.0423V59.7959H93.2244V70.7098H91.9507L88.5555 61.2167H88.5257V70.7098H87.3435V59.7959H89.1923H89.1902Z" fill="#094752"/>
<path d="M95.8466 70.7098V59.7959H98.7732L100.669 66.9614H100.699L102.594 59.7959H105.521V70.7098H103.732V62.1235H103.7L101.472 70.7098H99.8957L97.6656 62.1235H97.6358V70.7098H95.8466Z" fill="#094752"/>
<path d="M107.749 70.7098V59.7959H109.841V70.7098H107.749Z" fill="#094752"/>
<path d="M117.181 69.803C116.62 70.438 116.013 70.8606 115.225 70.8606C113.193 70.8606 111.768 69.8922 111.768 67.2035V63.3022C111.768 60.6114 113.193 59.6451 115.225 59.6451C117.362 59.6451 118.516 60.8684 118.591 63.3489H116.499C116.499 61.943 115.984 61.4906 115.225 61.4906C114.39 61.4906 113.86 61.824 113.86 63.0325V67.4775C113.86 68.6859 114.39 69.0193 115.225 69.0193C116.013 69.0193 116.499 68.4459 116.499 67.5072V66.8425H115.029V65.1201H118.593V70.714H117.5L117.183 69.8072L117.181 69.803Z" fill="#094752"/>
<path d="M122.092 59.7959V67.4307C122.092 68.4735 122.548 69.0172 123.564 69.0172C124.58 69.0172 125.051 68.4735 125.051 67.4307V59.7959H127.142V67.4456C127.142 69.8497 125.717 70.8627 123.564 70.8627C121.411 70.8627 120 69.8497 120 67.4456V59.7959H122.092Z" fill="#094752"/>
<path d="M128.644 70.7098V59.7959H134.376V61.6393H130.738V64.1495H133.513V65.993H130.738V68.8643H134.529V70.7077H128.646L128.644 70.7098Z" fill="#094752"/>
<path d="M135.724 70.7098V59.7959H137.816V68.8664H141.181V70.7098H135.724Z" fill="#094752"/>
<path d="M78.1292 35.2305L78.0227 35.7465H77.1643L76.5168 39.1636C76.2314 40.6694 75.9417 41.8353 75.652 42.6572C75.2409 43.8189 74.7979 44.6217 74.3229 45.0655C73.9629 45.4053 73.6008 45.5731 73.2409 45.5731C73.0066 45.5731 72.8063 45.4797 72.6402 45.2907C72.5188 45.1611 72.457 44.9912 72.457 44.7831C72.457 44.6153 72.5082 44.4709 72.6061 44.3498C72.7062 44.2267 72.8276 44.1651 72.9746 44.1651C73.0811 44.1651 73.1706 44.2097 73.243 44.2989C73.3154 44.3881 73.3516 44.49 73.3516 44.6047C73.3516 44.7194 73.3112 44.8256 73.2281 44.9254C73.1663 44.9976 73.1344 45.0528 73.1344 45.0889C73.1344 45.1356 73.1472 45.1717 73.1748 45.1993C73.2111 45.2354 73.2643 45.2546 73.3388 45.2546C73.5071 45.2546 73.6839 45.1845 73.8713 45.0443C74.0567 44.9041 74.2228 44.6939 74.3676 44.4157C74.5125 44.1375 74.6488 43.734 74.7787 43.2073C74.8341 42.9885 74.9811 42.2664 75.2196 41.041L76.242 35.7487H75.2196L75.3027 35.2326C75.6286 35.2326 75.8544 35.2029 75.9843 35.1434C76.1142 35.0839 76.2314 34.9692 76.34 34.7993C76.4487 34.6295 76.5871 34.313 76.7596 33.85C76.9918 33.2257 77.2133 32.7393 77.4242 32.3953C77.7139 31.9323 78.0185 31.584 78.338 31.3525C78.6575 31.121 78.9578 31.0042 79.2411 31.0042C79.5393 31.0042 79.7778 31.104 79.9589 31.3058C80.1399 31.5054 80.2294 31.7242 80.2294 31.9578C80.2294 32.1404 80.1847 32.2933 80.0931 32.4186C80.0036 32.5439 79.8865 32.6055 79.7459 32.6055C79.6245 32.6055 79.5244 32.5588 79.4498 32.4654C79.3731 32.3719 79.3348 32.2593 79.3348 32.1298C79.3348 32.047 79.3604 31.9429 79.4115 31.8219C79.4626 31.6987 79.4882 31.618 79.4882 31.5755C79.4882 31.5033 79.4711 31.4481 79.4349 31.412C79.3838 31.361 79.3092 31.3334 79.2113 31.3334C78.9642 31.3334 78.7427 31.4375 78.5467 31.6456C78.2847 31.9217 78.0483 32.3549 77.8417 32.9432C77.7352 33.2511 77.5413 34.0136 77.2602 35.2326H78.125L78.1292 35.2305Z" fill="#094752"/>
<path d="M85.4627 35.2305L84.0974 39.89C83.8929 40.5823 83.7928 41.0219 83.7928 41.2025C83.7928 41.2959 83.8098 41.366 83.8439 41.4106C83.878 41.4552 83.9227 41.4764 83.9803 41.4764C84.0697 41.4764 84.1677 41.4361 84.2742 41.3554C84.3807 41.2747 84.6512 40.9519 85.0857 40.3891L85.32 40.5696C84.9068 41.2216 84.4829 41.7015 84.0505 42.0074C83.763 42.2049 83.4861 42.3047 83.2198 42.3047C83.0154 42.3047 82.8556 42.2473 82.7427 42.1327C82.6277 42.018 82.5702 41.8693 82.5702 41.6867C82.5702 41.504 82.6043 41.2747 82.6724 40.9837C82.7555 40.5972 82.9941 39.7583 83.386 38.4671C82.4978 39.9218 81.7544 40.9242 81.1559 41.4764C80.5573 42.0286 80.0014 42.3047 79.4902 42.3047C79.2495 42.3047 79.045 42.2219 78.8789 42.0541C78.7106 41.8863 78.6276 41.6761 78.6276 41.4212C78.6276 41.0304 78.7426 40.4315 78.9726 39.6224L79.6542 37.2077C79.8225 36.63 79.9056 36.269 79.9056 36.1288C79.9056 36.0672 79.8843 36.012 79.8395 35.9695C79.7948 35.9249 79.7458 35.9037 79.6947 35.9037C79.5839 35.9037 79.4753 35.9419 79.3645 36.0205C79.2538 36.0991 79.0067 36.3879 78.619 36.8891L78.3762 36.7171C78.7681 36.1118 79.1835 35.668 79.6223 35.3813C79.9567 35.1583 80.2655 35.0457 80.5467 35.0457C80.7405 35.0457 80.8981 35.1073 81.0217 35.2284C81.1452 35.3515 81.207 35.5087 81.207 35.702C81.207 35.9844 81.1026 36.4856 80.8939 37.2098L80.1569 39.7349C79.9524 40.423 79.8502 40.8584 79.8502 41.0411C79.8502 41.1409 79.8821 41.2194 79.9482 41.2789C80.0142 41.3384 80.1015 41.3681 80.2101 41.3681C80.3827 41.3681 80.6063 41.2832 80.8854 41.1111C81.1623 40.9391 81.5329 40.5568 81.9951 39.9664C82.4573 39.376 82.8386 38.8196 83.1389 38.3014C83.4392 37.7832 83.7587 36.9571 84.0995 35.8273L84.2721 35.2326H85.4649L85.4627 35.2305Z" fill="#094752"/>
<path d="M89.4778 35.0415L88.4341 38.5988C89.4118 37.144 90.1594 36.1883 90.6813 35.7296C91.201 35.2709 91.7016 35.0415 92.1829 35.0415C92.4449 35.0415 92.6601 35.1265 92.8305 35.2985C93.0009 35.4705 93.0861 35.6935 93.0861 35.9717C93.0861 36.2839 93.0094 36.7023 92.8581 37.2226L91.9018 40.5144C91.7931 40.8945 91.7378 41.126 91.7378 41.211C91.7378 41.2832 91.7591 41.3448 91.7995 41.3958C91.8421 41.4446 91.8847 41.4701 91.9337 41.4701C91.9955 41.4701 92.0722 41.4361 92.1616 41.3681C92.4385 41.1494 92.741 40.816 93.0711 40.3679L93.314 40.5165C92.8283 41.2089 92.3682 41.7058 91.9337 42.001C91.6313 42.2049 91.3586 42.3068 91.1179 42.3068C90.9241 42.3068 90.7707 42.2474 90.6557 42.1306C90.5407 42.0138 90.4832 41.8566 90.4832 41.657C90.4832 41.4064 90.5727 40.9774 90.7494 40.3679L91.659 37.2247C91.774 36.8339 91.8315 36.5281 91.8315 36.3094C91.8315 36.2053 91.7974 36.1204 91.7292 36.0545C91.6611 35.9887 91.578 35.9568 91.4779 35.9568C91.3309 35.9568 91.1563 36.0184 90.9518 36.1437C90.5641 36.3773 90.1637 36.766 89.7441 37.3054C89.3245 37.8448 88.8836 38.5351 88.4192 39.3739C88.1743 39.8178 87.9698 40.302 87.8079 40.8287L87.416 42.1178H86.2402L87.6673 37.2247C87.8335 36.6364 87.9187 36.2818 87.9187 36.1607C87.9187 36.0397 87.8739 35.9462 87.7824 35.8591C87.6908 35.7742 87.5779 35.7296 87.4416 35.7296C87.3798 35.7296 87.269 35.7402 87.1114 35.7615L86.8132 35.8082L86.7664 35.5257L89.48 35.0415H89.4778Z" fill="#094752"/>
<path d="M102.65 31L99.9532 40.2234C99.8062 40.7246 99.7338 41.0517 99.7338 41.2089C99.7338 41.2619 99.7551 41.3108 99.7998 41.3575C99.8445 41.4042 99.8892 41.4276 99.9361 41.4276C100.004 41.4276 100.085 41.3936 100.179 41.3257C100.356 41.2004 100.654 40.8882 101.074 40.387L101.34 40.5505C100.963 41.0708 100.584 41.4934 100.198 41.8162C99.8147 42.1391 99.4547 42.3005 99.1203 42.3005C98.9435 42.3005 98.7966 42.2389 98.6815 42.1136C98.5665 41.9883 98.509 41.812 98.509 41.5826C98.509 41.2853 98.5878 40.886 98.7433 40.387L99.0479 39.4185C98.2896 40.5866 97.5995 41.3936 96.9775 41.8417C96.5494 42.1497 96.1383 42.3026 95.7464 42.3026C95.3545 42.3026 95.003 42.1263 94.707 41.7759C94.4109 41.4234 94.2639 40.9455 94.2639 40.3424C94.2639 39.5651 94.511 38.7368 95.0094 37.8555C95.5057 36.9741 96.1618 36.2584 96.9775 35.7062C97.6208 35.2624 98.2108 35.0415 98.7497 35.0415C99.0309 35.0415 99.2758 35.0988 99.4782 35.2135C99.6826 35.3282 99.8829 35.5193 100.081 35.7848L100.85 33.0643C100.907 32.871 100.954 32.7181 100.99 32.6034C101.052 32.3953 101.084 32.2233 101.084 32.0874C101.084 31.9769 101.046 31.8877 100.967 31.8134C100.856 31.7242 100.716 31.6796 100.543 31.6796C100.422 31.6796 100.224 31.6987 99.9468 31.7348V31.446L102.643 31H102.65ZM99.7402 36.5515C99.7402 36.2181 99.6443 35.9505 99.4505 35.7466C99.2566 35.5427 99.0117 35.4408 98.7135 35.4408C98.0553 35.4408 97.3695 35.9823 96.6559 37.0675C95.9424 38.1507 95.5867 39.1892 95.5867 40.1788C95.5867 40.5696 95.6719 40.8691 95.8444 41.0751C96.0169 41.2811 96.2235 41.383 96.4642 41.383C97.0074 41.383 97.689 40.7968 98.5111 39.6245C99.3312 38.4522 99.7423 37.4286 99.7423 36.5515H99.7402Z" fill="#094752"/>
<path d="M109.525 35.0415L107.996 40.3424L107.824 41.0538C107.809 41.1218 107.8 41.1791 107.8 41.2258C107.8 41.3087 107.826 41.383 107.879 41.4446C107.921 41.4913 107.973 41.5147 108.037 41.5147C108.105 41.5147 108.194 41.4722 108.303 41.3894C108.507 41.2386 108.778 40.9264 109.119 40.4507L109.385 40.6376C109.025 41.1791 108.652 41.5933 108.271 41.8757C107.89 42.1603 107.536 42.3026 107.212 42.3026C106.986 42.3026 106.818 42.2474 106.707 42.1348C106.595 42.0222 106.539 41.8608 106.539 41.6463C106.539 41.3915 106.597 41.0559 106.712 40.6376L106.876 40.0514C106.192 40.9434 105.561 41.5656 104.986 41.9203C104.573 42.1752 104.168 42.3026 103.77 42.3026C103.372 42.3026 103.059 42.1454 102.782 41.829C102.505 41.5147 102.366 41.0793 102.366 40.5271C102.366 39.6989 102.616 38.8239 103.114 37.9043C103.613 36.9847 104.247 36.2478 105.016 35.6956C105.617 35.2581 106.183 35.0394 106.718 35.0394C107.038 35.0394 107.302 35.1222 107.515 35.29C107.726 35.4577 107.887 35.7338 107.996 36.1182L108.279 35.2263L109.525 35.0394V35.0415ZM106.733 35.4493C106.399 35.4493 106.043 35.6064 105.666 35.9186C105.133 36.3625 104.658 37.0187 104.243 37.8894C103.828 38.7602 103.619 39.546 103.619 40.251C103.619 40.6057 103.708 40.886 103.885 41.092C104.062 41.2981 104.266 41.4 104.496 41.4C105.065 41.4 105.685 40.9816 106.354 40.1406C107.248 39.0256 107.694 37.8809 107.694 36.7086C107.694 36.2648 107.608 35.9462 107.436 35.7466C107.263 35.5491 107.029 35.4493 106.731 35.4493H106.733Z" fill="#094752"/>
<path d="M116.22 40.4125C115.677 41.0645 115.127 41.5423 114.573 41.846C114.02 42.1518 113.434 42.3026 112.816 42.3026C112.075 42.3026 111.496 42.0945 111.08 41.6782C110.665 41.262 110.456 40.7013 110.456 39.9983C110.456 39.2019 110.68 38.4162 111.127 37.6452C111.574 36.8743 112.175 36.2478 112.931 35.7657C113.687 35.2836 114.426 35.0436 115.155 35.0436C115.724 35.0436 116.15 35.1626 116.433 35.3983C116.716 35.6362 116.857 35.925 116.857 36.269C116.857 36.5919 116.757 36.8679 116.559 37.0973C116.412 37.2736 116.233 37.3628 116.018 37.3628C115.856 37.3628 115.722 37.3097 115.613 37.2056C115.506 37.1015 115.451 36.972 115.451 36.8148C115.451 36.715 115.47 36.6237 115.511 36.5409C115.549 36.4581 115.63 36.3582 115.753 36.2393C115.877 36.1225 115.952 36.0376 115.977 35.9845C116.003 35.9314 116.015 35.8783 116.015 35.8209C116.015 35.7105 115.966 35.6213 115.866 35.547C115.715 35.4429 115.5 35.3898 115.223 35.3898C114.712 35.3898 114.203 35.5703 113.702 35.9292C113.2 36.2882 112.771 36.8 112.416 37.4605C111.988 38.2632 111.773 39.066 111.773 39.8688C111.773 40.3997 111.924 40.8202 112.226 41.1303C112.529 41.4404 112.942 41.5954 113.466 41.5954C113.868 41.5954 114.267 41.4956 114.661 41.2938C115.055 41.0942 115.498 40.7289 115.99 40.2043L116.218 40.4082L116.22 40.4125Z" fill="#094752"/>
<path d="M120.838 35.0415L119.285 40.5208C119.181 40.8903 119.127 41.1133 119.127 41.1855C119.127 41.2683 119.153 41.3363 119.202 41.3894C119.251 41.4425 119.311 41.4679 119.379 41.4679C119.458 41.4679 119.551 41.4255 119.66 41.3426C119.958 41.109 120.259 40.7756 120.561 40.3424L120.836 40.5229C120.48 41.0644 120.063 41.521 119.581 41.8906C119.225 42.1667 118.887 42.3047 118.561 42.3047C118.346 42.3047 118.171 42.241 118.035 42.1136C117.898 41.9861 117.83 41.8247 117.83 41.6336C117.83 41.4425 117.896 41.1196 118.026 40.6715L119.047 37.1695C119.213 36.5961 119.298 36.2372 119.298 36.0906C119.298 35.9759 119.257 35.8825 119.176 35.8103C119.096 35.7381 118.985 35.6998 118.844 35.6998C118.729 35.6998 118.491 35.7296 118.131 35.7848V35.479L120.836 35.0415H120.838ZM120.738 31.9387C120.957 31.9387 121.142 32.0151 121.294 32.1659C121.445 32.3167 121.522 32.5015 121.522 32.7202C121.522 32.939 121.445 33.1174 121.289 33.2703C121.136 33.4232 120.951 33.5018 120.738 33.5018C120.525 33.5018 120.339 33.4253 120.186 33.2703C120.033 33.1174 119.954 32.9326 119.954 32.7202C119.954 32.5079 120.031 32.3167 120.182 32.1659C120.333 32.0151 120.518 31.9387 120.738 31.9387Z" fill="#094752"/>
<path d="M129.032 37.4881C129.032 38.2696 128.823 39.0426 128.408 39.8093C127.993 40.576 127.413 41.1834 126.672 41.6315C125.931 42.0796 125.209 42.3047 124.508 42.3047C123.807 42.3047 123.209 42.0775 122.755 41.6209C122.303 41.1643 122.078 40.5739 122.078 39.8497C122.078 39.083 122.299 38.3142 122.74 37.5433C123.181 36.7724 123.773 36.1628 124.512 35.7147C125.251 35.2666 125.967 35.0415 126.657 35.0415C127.347 35.0415 127.916 35.2687 128.363 35.7211C128.81 36.1735 129.034 36.7639 129.034 37.4881H129.032ZM127.731 36.9507C127.731 36.4665 127.611 36.0949 127.375 35.8358C127.136 35.5788 126.83 35.4493 126.453 35.4493C125.684 35.4493 124.976 35.9972 124.331 37.0952C123.686 38.1931 123.362 39.2826 123.362 40.3657C123.362 40.8606 123.488 41.2428 123.739 41.5104C123.99 41.778 124.305 41.9139 124.687 41.9139C125.424 41.9139 126.114 41.3681 126.761 40.2765C127.407 39.1849 127.731 38.0763 127.731 36.9507ZM128.725 31.1572L126.421 33.8395H126.154L126.962 31.1572H128.725Z" fill="#094752"/>
<path d="M133.179 35.0415L132.135 38.5988C133.113 37.144 133.861 36.1883 134.382 35.7296C134.902 35.2709 135.403 35.0415 135.884 35.0415C136.146 35.0415 136.361 35.1265 136.532 35.2985C136.702 35.4705 136.787 35.6935 136.787 35.9717C136.787 36.2839 136.711 36.7023 136.559 37.2226L135.603 40.5144C135.494 40.8945 135.439 41.126 135.439 41.211C135.439 41.2832 135.46 41.3448 135.501 41.3958C135.543 41.4446 135.586 41.4701 135.635 41.4701C135.697 41.4701 135.773 41.4361 135.863 41.3681C136.14 41.1494 136.442 40.816 136.772 40.3679L137.015 40.5165C136.53 41.2089 136.069 41.7058 135.635 42.001C135.332 42.2049 135.06 42.3068 134.819 42.3068C134.625 42.3068 134.472 42.2474 134.357 42.1306C134.242 42.0138 134.184 41.8566 134.184 41.657C134.184 41.4064 134.274 40.9774 134.451 40.3679L135.36 37.2247C135.475 36.8339 135.533 36.5281 135.533 36.3094C135.533 36.2053 135.499 36.1204 135.43 36.0545C135.362 35.9887 135.279 35.9568 135.179 35.9568C135.032 35.9568 134.857 36.0184 134.653 36.1437C134.265 36.3773 133.865 36.766 133.445 37.3054C133.028 37.8448 132.585 38.5351 132.12 39.3739C131.875 39.8178 131.671 40.302 131.509 40.8287L131.117 42.1178H129.941L131.369 37.2247C131.535 36.6364 131.62 36.2818 131.62 36.1607C131.62 36.0397 131.575 35.9462 131.484 35.8591C131.392 35.7742 131.279 35.7296 131.143 35.7296C131.081 35.7296 130.97 35.7402 130.813 35.7615L130.514 35.8082L130.468 35.5257L133.181 35.0415H133.179Z" fill="#094752"/>
<line x1="173" y1="20.9846" x2="173.923" y2="80.9775" stroke="#094752" stroke-width="2"/>
</svg>
