<svg width="287" height="103" viewBox="0 0 287 103" fill="none" xmlns="http://www.w3.org/2000/svg">
<path d="M160.14 40.07C160 39.93 156.49 40.58 156.32 40.74L153.02 47.09C152.94 47.47 151.77 47.24 151.71 47.16C151.65 47.08 151.57 45.67 151.43 45.22C150.01 40.35 142.48 38.71 140.69 44.28C139.46 48.11 139.16 58.07 143.97 59.64C147.42 60.77 150.67 58.4 152.45 55.62L154.12 56.63C150.69 64.1 139.48 64.62 134.39 58.62C130.47 54.01 130.51 45.53 135.05 41.33C138.68 37.97 145.18 37.25 149.57 39.43C150.64 39.96 152.01 40.73 152.02 42.07C152.24 41.92 152.21 41.7 152.23 41.47C152.3 40.42 152.34 39.36 152.36 38.31H203.75C203.68 38.62 203.85 39.58 203.73 39.77C203.66 39.87 201.73 40.45 201.47 40.66C201.38 40.73 201.32 40.79 201.33 40.92L206.97 55.88L211.94 40.93C211.94 40.81 211.96 40.79 211.85 40.72C211.46 40.46 208.96 39.9 208.86 39.78C208.76 39.67 208.9 38.59 208.85 38.32H239.04L239.45 46.95C239.41 47.09 238.46 47.3 238.3 47.03L233.98 40.72L228.04 40.06V48.91L230.86 48.58C231.15 48.13 232.18 44.88 232.35 44.78C232.56 44.65 233.48 44.83 233.8 44.76V54.82C233.48 54.75 232.55 54.93 232.35 54.8C232.07 54.62 231.22 51.5 230.72 51.27C230.22 51.04 228.63 51.13 228.04 51.07V60.19C230.32 60.17 232.6 59.9 234.88 59.72L239.6 52.17L240.79 52.36L240.11 62.07H217.7C217.75 61.69 217.56 60.92 217.83 60.66C218.12 60.38 220.33 59.82 220.39 59.57L220.19 40.75C220.06 40.63 218.08 39.81 217.9 39.81C217.62 39.81 215.66 40.69 215.49 40.9L207.03 62.35C206.93 62.5 206.78 62.47 206.63 62.49C206.13 62.55 202.05 62.55 201.85 62.42L192.7 40.99C192.49 40.68 190.66 39.79 190.25 39.81C190.05 39.81 187.39 40.7 187.36 40.85L187.43 59.67C187.59 59.92 190.21 60.5 190.31 60.62C190.41 60.74 190.27 61.81 190.32 62.08H176.5C176.56 61.72 176.35 60.9 176.63 60.67C176.93 60.42 179.53 59.81 179.59 59.58L179.57 40.78L175.83 39.83L176.37 47.2C176.06 47.2 175.35 47.52 175.15 47.25L171.88 40.76C170.62 40.37 169.24 40.18 167.92 40.09V59.67C168.53 59.99 170.6 60.33 171.01 60.67C171.29 60.9 171.08 61.72 171.14 62.08H156.92C156.98 61.71 156.78 60.9 157.05 60.67C157.56 60.25 159.54 60.16 160.14 59.6V40.09V40.07Z" fill="#F6D1C8"/>
<path d="M109.02 62.06C109.07 61.68 108.88 60.91 109.15 60.65C109.44 60.37 111.65 59.81 111.71 59.56V40.94L111.63 40.73C110.86 40.62 109.69 39.76 108.96 39.8C108.76 39.8 106.23 40.69 106.2 40.84V61.45C105.57 67.01 101.13 68.73 96.07 68.38C92.22 68.11 88.25 65.17 90.78 61.13C89.22 61.59 87.64 61.91 86.02 62.07H71.46C71.51 61.79 71.38 60.72 71.48 60.6C71.56 60.51 73.45 59.97 73.79 59.76C73.92 59.68 74.02 59.64 74.02 59.45V40.94L73.94 40.73C73.63 40.53 71.56 39.9 71.49 39.79C71.37 39.61 71.54 38.65 71.47 38.33C75.94 38.53 80.65 38.07 85.09 38.33C88.49 38.53 93.57 39.78 93.62 44.03C93.65 47.32 90.74 48.73 87.97 49.39C88.09 49.58 88.24 49.56 88.44 49.59C90.1 49.84 91.62 50.16 92.94 51.26C95.7 53.58 95.48 57.76 92.8 60.04C95.19 59.78 96.81 62.24 95.73 64.37C95.33 65.17 94.74 65.24 94.14 65.8C95.64 66.06 97.79 66.22 98.37 64.46L98.44 40.81C98.38 40.55 95.48 39.9 95.36 39.77C95.26 39.66 95.4 38.58 95.35 38.31H130.37L130.51 46.55L129.45 46.74L125.8 40.8L119.5 40.06V48.91L122.19 48.58C122.54 48.14 123.51 44.88 123.68 44.77C123.87 44.65 124.94 44.82 125.27 44.75V54.81C124.92 54.74 123.9 54.92 123.68 54.79C123.51 54.69 122.47 51.49 122.23 51.31C121.84 51.03 120.05 51.22 119.5 50.92V60.17C121.86 60.12 124.22 59.87 126.58 59.67L126.86 59.42L130.03 53.73C130.24 53.49 130.71 53.82 131.03 53.73L131.17 62.04H109.03L109.02 62.06ZM81.51 48.39H83.59C83.85 48.39 84.91 48 85.18 47.83C86.67 46.86 86.67 43.16 85.67 41.89C84.79 40.77 82.8 40.92 81.51 40.88V48.39ZM81.51 59.52H84.13C84.41 59.52 85.39 59.21 85.68 59.06C87.86 57.89 87.77 53.12 85.99 51.63C85.72 51.41 84.56 50.8 84.27 50.8H81.52V59.52H81.51Z" fill="#F6D1C8"/>
<path d="M58.41 38.1C67.85 37.69 75.07 47.81 70.03 56.28C64.99 64.75 52.48 64.51 47.77 56.16C43.18 48.03 49.45 38.48 58.41 38.1ZM58.14 43.46C52.72 44.07 50.21 50.59 53.75 54.75C56.83 58.37 62.77 57.72 64.99 53.52C67.58 48.63 63.6 42.84 58.14 43.46Z" fill="#F6D1C8"/>
<path d="M156.98 67.5599C156.63 67.4599 156.86 66.3399 157.25 66.3499L164.55 66.4999C164.66 67.0899 164.76 67.6999 164.83 68.2999C165.4 73.3499 165.51 78.8899 166.32 83.8399C166.4 84.3299 166.71 84.7099 167.12 84.2499L179.65 66.6099C181.69 66.3199 183.81 66.3399 185.9 66.3499C186.01 68.4799 184.37 66.8599 183.43 68.0999C181.25 73.9599 179.98 80.1799 178.18 86.1899C178.03 86.8199 178 87.9599 178.75 88.1799C179.29 88.3399 180.57 87.8799 180.51 88.6399C180.51 88.7499 180.44 89.4199 180.4 89.4199H171.28C171.06 87.5899 172.5 88.4499 173.66 88.1099C174.44 87.8799 174.93 87.1799 175.24 86.4699L180.12 69.0799C179.83 68.2899 179.35 69.2099 179.09 69.5399C174.44 75.5699 170.43 82.3999 165.76 88.3999C165.25 89.0499 164.29 90.2499 164.06 88.6799C163.12 82.3799 163.12 75.6699 162.16 69.3899C162.12 69.1199 161.97 68.7299 161.63 68.7799L155.6 86.8299C155.42 88.6499 156.68 88.1699 158 88.2199C158 88.4399 158.08 89.4299 157.8 89.4299H150.49C150.55 87.7199 151.1 88.3699 152.29 88.2099C153.17 88.0899 153.67 87.4899 154.04 86.7399L160.23 68.9099C160.56 68.4199 159.63 67.5699 159.28 67.5699C158.78 67.5699 157.35 67.6699 157 67.5699L156.98 67.5599Z" fill="#F6D1C8"/>
<path d="M76.81 13.26C76.78 13.45 76.86 14.15 76.81 14.2C76.72 14.29 74.61 14.5 74.26 14.74V22.65H84.05V14.81C83.25 14.2 81.15 14.73 81.5 13.27H90.22C90.18 13.46 90.28 14.13 90.22 14.2C90.13 14.3 87.97 14.51 87.62 14.73C87.43 20.48 87.6 26.32 87.53 32.1C87.55 32.25 90.07 32.53 90.2 32.73C90.3 32.88 90.17 33.42 90.22 33.65H81.5C81.54 33.42 81.42 32.88 81.52 32.73C81.59 32.62 83.71 32.22 84.05 32.18V24H74.26V32.18C74.6 32.23 76.72 32.62 76.79 32.73C76.89 32.88 76.76 33.42 76.81 33.65H68.09C68.13 33.42 68.01 32.88 68.11 32.73C68.21 32.58 70.76 32.23 70.78 32.1V14.93L70.69 14.72C70.3 14.46 68.18 14.29 68.09 14.2C68.04 14.15 68.12 13.45 68.09 13.26H76.81Z" fill="#F6D1C8"/>
<path d="M108.35 13.26L109.03 18.69C109.03 19.04 108.56 19.15 108.34 18.94L105.51 14.63L98.56 14.07V22.65L102.32 22.45C102.59 22.09 103.38 19.55 103.54 19.45C103.69 19.36 104 19.45 104.19 19.43V26.67C104 26.64 103.68 26.74 103.54 26.65C103.38 26.55 102.57 24.26 102.32 23.92L98.56 23.72V32.57C101.35 32.52 104.14 32.35 106.92 32.14C107.53 31.73 109.65 27.86 110.03 27.79C110.13 27.77 110.35 27.89 110.5 27.88L109.84 33.64H92.4C92.44 33.41 92.32 32.87 92.42 32.72C92.52 32.57 94.61 32.34 94.99 32.14C95.14 32.06 95.22 32.02 95.22 31.83V14.93C95.25 14.74 95.19 14.75 95.05 14.69C94.62 14.5 92.49 14.29 92.4 14.19C92.35 14.14 92.43 13.44 92.4 13.25H108.37L108.35 13.26Z" fill="#F6D1C8"/>
<path d="M65.81 13.26L66.21 20.23C65.91 20.22 65.57 20.32 65.34 20.1C64.72 19.31 63.13 15.04 62.59 14.67C61.96 14.24 59.65 14.42 58.84 14.06V32.16C59.39 32.29 61.51 32.45 61.85 32.68C62.04 32.81 61.88 33.4 61.93 33.63H52.27C52.31 33.39 52.16 32.8 52.35 32.68C52.69 32.45 54.8 32.29 55.36 32.16V14.06C54.57 14.42 52.21 14.26 51.61 14.67C51.07 15.04 49.47 19.31 48.86 20.1L48.12 20.23L48.52 13.26H65.83H65.81Z" fill="#F6D1C8"/>
<path d="M215.67 66.3699C215.73 66.5499 215.67 66.7199 215.62 66.8999C214.51 70.5799 212.59 74.6599 211.25 78.3599C210.49 80.4499 208.58 84.7599 208.34 86.7099C208.03 89.1899 210.39 86.6299 211.07 85.9299C212.64 86.4099 211.14 87.3099 210.44 87.8699C209.53 88.5999 207.36 90.2099 206.16 89.6299C205.47 89.2899 206.33 86.8799 206.52 86.2399C206.71 85.5999 207.18 84.7599 207.36 84.1299C207.44 83.8699 207.16 83.8899 207.03 83.9299C206.92 83.9699 205.9 85.5599 205.62 85.8799C204.44 87.2299 202.12 89.4699 200.3 89.6799C196.5 90.1199 197.69 85.6699 198.57 83.5299C199.94 80.2099 204.34 74.3899 208.46 75.2399C209.05 75.3599 209.47 75.9899 210.03 76.1499L212.71 68.2899C212.62 67.0999 211.32 67.2999 210.43 67.2999C210.47 66.7799 210.43 66.2899 211.03 66.2199C211.95 66.1099 213.97 66.1499 214.93 66.2199C215.18 66.2399 215.42 66.2699 215.65 66.3699H215.67ZM200.43 87.7599C201.15 88.4199 202.27 87.6399 202.93 87.1899C204.89 85.8299 208.47 81.3499 208.81 78.9899C209.15 76.6299 207.57 75.4799 205.45 76.7099C203.33 77.9399 201.08 82.3299 200.46 84.7299C200.26 85.5099 199.79 87.1799 200.43 87.7699V87.7599Z" fill="#F6D1C8"/>
<path d="M237.15 76.28C237.51 76.24 237.9 75.24 238.05 75.2C238.26 75.15 239.11 75.17 239.37 75.2C239.55 75.22 239.61 75.13 239.55 75.38C238.76 77.29 237.97 79.21 237.28 81.16C236.92 82.17 235.29 86.59 235.32 87.31C235.34 87.84 235.76 87.72 236.13 87.51C236.7 87.2 237.97 85.64 238.3 85.52C238.49 85.45 238.72 85.93 238.73 86.01C238.82 86.61 236.09 88.69 235.5 89.02C234.95 89.33 233.16 90.17 232.79 89.4C232.45 88.71 234.19 84.94 234.34 83.97C234.35 83.85 234.09 83.89 234.07 83.9C233.99 83.97 233.33 85.05 233.12 85.3C231.95 86.7 229.25 89.42 227.41 89.65C224.27 90.05 224.95 86.39 225.57 84.46C226.77 80.78 231.35 74.3 235.84 75.21C236.24 75.29 237.1 75.78 237.15 76.25V76.28ZM234.03 76.17C231.01 76.61 227.82 83.16 227.53 85.9C227.21 88.81 228.9 88.11 230.45 86.8C232.16 85.36 235.57 81.31 235.92 79.12C236.13 77.75 235.8 75.9 234.04 76.16L234.03 76.17Z" fill="#F6D1C8"/>
<path d="M187.93 82.7301C187.52 83.9801 187.09 86.5901 188.04 87.6101C189.16 88.8101 191.37 87.73 192.34 86.81C192.61 86.56 193.16 85.6301 193.34 85.6601C193.62 85.7101 194.04 85.94 193.93 86.24C193.83 86.51 192.63 87.7501 192.34 88.0101C190.39 89.7101 185.77 91.0101 185.26 87.4401C184.67 83.3001 188.36 77.25 192.15 75.63C195.94 74.01 197.25 76.7501 195.07 79.6201C193.54 81.6401 190.37 82.5701 187.92 82.7301H187.93ZM192.71 76.5801C191.16 76.6701 189.36 79.0901 188.73 80.3901C188.63 80.6101 188.25 81.4701 188.23 81.6401C188.21 81.8101 188.25 81.8101 188.38 81.9101C190.32 81.6201 194.35 80.09 193.92 77.59C193.82 76.98 193.35 76.5501 192.71 76.5801Z" fill="#F6D1C8"/>
<path d="M221.47 85.4001C221.62 85.2901 222.27 85.71 222.27 85.99C222.27 86.47 219.53 88.6701 218.95 88.9801C218.11 89.4301 215.82 90.44 215.82 88.81C215.82 87.06 218.37 81.62 219.04 79.56C219.63 77.75 219.76 76.6 217.76 78.28C217.44 78.55 216.26 80 216.14 80.02C215.99 80.05 215.42 79.47 215.42 79.42C215.42 79.28 217.1 77.58 217.36 77.34C218.21 76.56 220.66 74.5501 221.86 75.2601C222.49 75.6301 221.77 77.5101 221.59 78.0801C220.76 80.7601 219.17 83.6201 218.54 86.3001C217.79 89.4901 220.33 86.7501 221.19 85.8601C221.33 85.7101 221.44 85.4101 221.47 85.4001Z" fill="#F6D1C8"/>
<path d="M220.69 67.61C222.2 66.17 224.89 68.29 223.27 69.98C221.65 71.67 219.04 69.18 220.69 67.61Z" fill="#F6D1C8"/>
</svg>
