<svg width="37" height="14" viewBox="0 0 37 14" fill="none" xmlns="http://www.w3.org/2000/svg">
<path d="M13.8217 6.87468C13.9071 6.61736 14.0722 6.3925 14.2941 6.23138C14.5161 6.07026 14.7838 5.98089 15.06 5.9757H15.3588V5.68237H12.184V5.9757H12.5819C13.4611 5.9757 13.6594 6.36681 13.3807 7.16801L11.9635 11.3182L12.3226 11.2479L13.8217 6.87468Z" fill="white"/>
<path d="M7.96885 7.95022L9.6726 11.8134C10.2218 11.6788 10.7749 11.5543 11.3318 11.4399L8.80707 5.68237H8.50755L6.05248 12.1926L3.53852 5.9757H4.91402V5.68237H0.622314V5.9757H1.69973L4.70069 13.3462C5.17619 13.1689 5.65528 12.9945 6.13724 12.8355L7.96885 7.95022Z" fill="white"/>
<path d="M17.9926 3.47624C18.2765 3.47067 18.5473 3.35771 18.7481 3.16103C18.9489 2.96435 19.0643 2.6992 19.07 2.4211C19.07 2.14126 18.9565 1.87289 18.7544 1.67501C18.5524 1.47713 18.2783 1.36597 17.9926 1.36597C17.7068 1.36597 17.4328 1.47713 17.2307 1.67501C17.0287 1.87289 16.9152 2.14126 16.9152 2.4211C16.9209 2.6992 17.0362 2.96435 17.237 3.16103C17.4379 3.35771 17.7086 3.47067 17.9926 3.47624Z" fill="white"/>
<path d="M19.0059 5.68237H15.8519V5.9757H17.249V10.6331C17.8317 10.5928 18.4174 10.5637 19.0059 10.5459V5.68237Z" fill="white"/>
<path d="M24.1189 5.97379H26.4547V5.68046H24.1189V2.57202H23.8194C23.8194 3.74533 23.0206 5.68046 21.6645 5.68046H21.0253V5.97379H22.3634V10.565C22.9524 10.5899 23.538 10.6262 24.1203 10.6741L24.1189 5.97379Z" fill="white"/>
<path d="M30.2896 9.20073C30.2896 8.18428 30.9884 5.89463 33.2043 5.89463C34.2817 5.89463 34.6215 6.4025 34.6215 7.86915V12.8142C35.2129 13.0112 35.7983 13.2206 36.3777 13.4424V8.22297C36.3777 6.36593 35.4791 5.54503 33.5046 5.54503C30.9489 5.54503 30.3305 7.6757 30.3305 7.6757H30.291V0.442383H27.1349V0.735711H28.5327V11.2597C29.1221 11.3675 29.7078 11.4859 30.2896 11.6149V9.20073Z" fill="white"/>
</svg>
